<?xml version="1.0" encoding="us-ascii" standalone="no"?><svg xmlns="http://www.w3.org/2000/svg" xmlns:xlink="http://www.w3.org/1999/xlink" contentStyleType="text/css" height="957px" preserveAspectRatio="none" style="width:1062px;height:957px;background:#FFFFFF;" version="1.1" viewBox="0 0 1062 957" width="1062px" zoomAndPan="magnify"><defs/><g><text fill="#000000" font-family="sans-serif" font-size="14" font-weight="bold" lengthAdjust="spacing" textLength="222" x="419.25" y="29.5332">Sequence Diagram (SD) - UC003</text><rect fill="#FFFFFF" height="758.7891" style="stroke:#181818;stroke-width:1.0;" width="10" x="108" y="126.1797"/><rect fill="#FFFFFF" height="30.3516" style="stroke:#181818;stroke-width:1.0;" width="10" x="214.5" y="156.5313"/><rect fill="#FFFFFF" height="637.3828" style="stroke:#181818;stroke-width:1.0;" width="10" x="313.5" y="217.2344"/><rect fill="#FFFFFF" height="30.3516" style="stroke:#181818;stroke-width:1.0;" width="10" x="415" y="247.5859"/><rect fill="#FFFFFF" height="30.3516" style="stroke:#181818;stroke-width:1.0;" width="10" x="415" y="308.2891"/><rect fill="#FFFFFF" height="30.3516" style="stroke:#181818;stroke-width:1.0;" width="10" x="415" y="763.5625"/><rect fill="#FFFFFF" height="30.3516" style="stroke:#181818;stroke-width:1.0;" width="10" x="536" y="368.9922"/><rect fill="#FFFFFF" height="30.3516" style="stroke:#181818;stroke-width:1.0;" width="10" x="536" y="672.5078"/><rect fill="#FFFFFF" height="30.3516" style="stroke:#181818;stroke-width:1.0;" width="10" x="671.5" y="551.1016"/><rect fill="#FFFFFF" height="30.3516" style="stroke:#181818;stroke-width:1.0;" width="10" x="778.5" y="460.0469"/><rect fill="#FFFFFF" height="91.0547" style="stroke:#181818;stroke-width:1.0;" width="10" x="887.5" y="429.6953"/><rect fill="#FFFFFF" height="91.0547" style="stroke:#181818;stroke-width:1.0;" width="10" x="887.5" y="733.2109"/><rect fill="#FFFFFF" height="30.3516" style="stroke:#181818;stroke-width:1.0;" width="10" x="999" y="611.8047"/><line style="stroke:#181818;stroke-width:0.5;stroke-dasharray:5.0,5.0;" x1="112.5" x2="112.5" y1="93.8281" y2="902.9688"/><line style="stroke:#181818;stroke-width:0.5;stroke-dasharray:5.0,5.0;" x1="219.5" x2="219.5" y1="93.8281" y2="902.9688"/><line style="stroke:#181818;stroke-width:0.5;stroke-dasharray:5.0,5.0;" x1="318.5" x2="318.5" y1="93.8281" y2="902.9688"/><line style="stroke:#181818;stroke-width:0.5;stroke-dasharray:5.0,5.0;" x1="419.5" x2="419.5" y1="93.8281" y2="902.9688"/><line style="stroke:#181818;stroke-width:0.5;stroke-dasharray:5.0,5.0;" x1="540.5" x2="540.5" y1="93.8281" y2="902.9688"/><line style="stroke:#181818;stroke-width:0.5;stroke-dasharray:5.0,5.0;" x1="676.5" x2="676.5" y1="93.8281" y2="902.9688"/><line style="stroke:#181818;stroke-width:0.5;stroke-dasharray:5.0,5.0;" x1="783.5" x2="783.5" y1="93.8281" y2="902.9688"/><line style="stroke:#181818;stroke-width:0.5;stroke-dasharray:5.0,5.0;" x1="892.5" x2="892.5" y1="93.8281" y2="902.9688"/><line style="stroke:#181818;stroke-width:0.5;stroke-dasharray:5.0,5.0;" x1="1003.5" x2="1003.5" y1="93.8281" y2="902.9688"/><rect fill="#E2E2F0" height="49.2188" rx="2.5" ry="2.5" style="stroke:#181818;stroke-width:0.5;" width="109" x="58.5" y="43.6094"/><text fill="#000000" font-family="sans-serif" font-size="14" font-style="italic" lengthAdjust="spacing" textLength="84" x="71" y="65.1426">&#171;application&#187;</text><text fill="#000000" font-family="sans-serif" font-size="14" lengthAdjust="spacing" textLength="95" x="65.5" y="82.752">:UserController</text><rect fill="#E2E2F0" height="49.2188" rx="2.5" ry="2.5" style="stroke:#181818;stroke-width:0.5;" width="109" x="58.5" y="901.9688"/><text fill="#000000" font-family="sans-serif" font-size="14" font-style="italic" lengthAdjust="spacing" textLength="84" x="71" y="923.502">&#171;application&#187;</text><text fill="#000000" font-family="sans-serif" font-size="14" lengthAdjust="spacing" textLength="95" x="65.5" y="941.1113">:UserController</text><rect fill="#E2E2F0" height="49.2188" rx="2.5" ry="2.5" style="stroke:#181818;stroke-width:0.5;" width="84" x="177.5" y="43.6094"/><text fill="#000000" font-family="sans-serif" font-size="14" font-style="italic" lengthAdjust="spacing" textLength="62" x="188.5" y="65.1426">&#171;Service&#187;</text><text fill="#000000" font-family="sans-serif" font-size="14" lengthAdjust="spacing" textLength="70" x="184.5" y="82.752">IAMService</text><rect fill="#E2E2F0" height="49.2188" rx="2.5" ry="2.5" style="stroke:#181818;stroke-width:0.5;" width="84" x="177.5" y="901.9688"/><text fill="#000000" font-family="sans-serif" font-size="14" font-style="italic" lengthAdjust="spacing" textLength="62" x="188.5" y="923.502">&#171;Service&#187;</text><text fill="#000000" font-family="sans-serif" font-size="14" lengthAdjust="spacing" textLength="70" x="184.5" y="941.1113">IAMService</text><rect fill="#E2E2F0" height="49.2188" rx="2.5" ry="2.5" style="stroke:#181818;stroke-width:0.5;" width="94" x="271.5" y="43.6094"/><text fill="#000000" font-family="sans-serif" font-size="14" font-style="italic" lengthAdjust="spacing" textLength="62" x="287.5" y="65.1426">&#171;Service&#187;</text><text fill="#000000" font-family="sans-serif" font-size="14" lengthAdjust="spacing" textLength="80" x="278.5" y="82.752">:UserService</text><rect fill="#E2E2F0" height="49.2188" rx="2.5" ry="2.5" style="stroke:#181818;stroke-width:0.5;" width="94" x="271.5" y="901.9688"/><text fill="#000000" font-family="sans-serif" font-size="14" font-style="italic" lengthAdjust="spacing" textLength="62" x="287.5" y="923.502">&#171;Service&#187;</text><text fill="#000000" font-family="sans-serif" font-size="14" lengthAdjust="spacing" textLength="80" x="278.5" y="941.1113">:UserService</text><rect fill="#E2E2F0" height="49.2188" rx="2.5" ry="2.5" style="stroke:#181818;stroke-width:0.5;" width="89" x="375.5" y="43.6094"/><text fill="#000000" font-family="sans-serif" font-size="14" font-style="italic" lengthAdjust="spacing" textLength="62" x="389" y="65.1426">&#171;domain&#187;</text><text fill="#000000" font-family="sans-serif" font-size="14" lengthAdjust="spacing" textLength="75" x="382.5" y="82.752">dto:UserDto</text><rect fill="#E2E2F0" height="49.2188" rx="2.5" ry="2.5" style="stroke:#181818;stroke-width:0.5;" width="89" x="375.5" y="901.9688"/><text fill="#000000" font-family="sans-serif" font-size="14" font-style="italic" lengthAdjust="spacing" textLength="62" x="389" y="923.502">&#171;domain&#187;</text><text fill="#000000" font-family="sans-serif" font-size="14" lengthAdjust="spacing" textLength="75" x="382.5" y="941.1113">dto:UserDto</text><rect fill="#E2E2F0" height="49.2188" rx="2.5" ry="2.5" style="stroke:#181818;stroke-width:0.5;" width="133" x="474.5" y="43.6094"/><text fill="#000000" font-family="sans-serif" font-size="14" font-style="italic" lengthAdjust="spacing" textLength="89" x="496.5" y="65.1426">&#171;persistence&#187;</text><text fill="#000000" font-family="sans-serif" font-size="14" lengthAdjust="spacing" textLength="119" x="481.5" y="82.752">:IPatientRepository</text><rect fill="#E2E2F0" height="49.2188" rx="2.5" ry="2.5" style="stroke:#181818;stroke-width:0.5;" width="133" x="474.5" y="901.9688"/><text fill="#000000" font-family="sans-serif" font-size="14" font-style="italic" lengthAdjust="spacing" textLength="89" x="496.5" y="923.502">&#171;persistence&#187;</text><text fill="#000000" font-family="sans-serif" font-size="14" lengthAdjust="spacing" textLength="119" x="481.5" y="941.1113">:IPatientRepository</text><rect fill="#E2E2F0" height="49.2188" rx="2.5" ry="2.5" style="stroke:#181818;stroke-width:0.5;" width="118" x="617.5" y="43.6094"/><text fill="#000000" font-family="sans-serif" font-size="14" font-style="italic" lengthAdjust="spacing" textLength="89" x="632" y="65.1426">&#171;persistence&#187;</text><text fill="#000000" font-family="sans-serif" font-size="14" lengthAdjust="spacing" textLength="104" x="624.5" y="82.752">:IUserRepository</text><rect fill="#E2E2F0" height="49.2188" rx="2.5" ry="2.5" style="stroke:#181818;stroke-width:0.5;" width="118" x="617.5" y="901.9688"/><text fill="#000000" font-family="sans-serif" font-size="14" font-style="italic" lengthAdjust="spacing" textLength="89" x="632" y="923.502">&#171;persistence&#187;</text><text fill="#000000" font-family="sans-serif" font-size="14" lengthAdjust="spacing" textLength="104" x="624.5" y="941.1113">:IUserRepository</text><rect fill="#E2E2F0" height="49.2188" rx="2.5" ry="2.5" style="stroke:#181818;stroke-width:0.5;" width="76" x="745.5" y="43.6094"/><text fill="#000000" font-family="sans-serif" font-size="14" font-style="italic" lengthAdjust="spacing" textLength="62" x="752.5" y="65.1426">&#171;domain&#187;</text><text fill="#000000" font-family="sans-serif" font-size="14" lengthAdjust="spacing" textLength="61" x="753" y="82.752">user:User</text><rect fill="#E2E2F0" height="49.2188" rx="2.5" ry="2.5" style="stroke:#181818;stroke-width:0.5;" width="76" x="745.5" y="901.9688"/><text fill="#000000" font-family="sans-serif" font-size="14" font-style="italic" lengthAdjust="spacing" textLength="62" x="752.5" y="923.502">&#171;domain&#187;</text><text fill="#000000" font-family="sans-serif" font-size="14" lengthAdjust="spacing" textLength="61" x="753" y="941.1113">user:User</text><rect fill="#E2E2F0" height="49.2188" rx="2.5" ry="2.5" style="stroke:#181818;stroke-width:0.5;" width="98" x="843.5" y="43.6094"/><text fill="#000000" font-family="sans-serif" font-size="14" font-style="italic" lengthAdjust="spacing" textLength="84" x="850.5" y="65.1426">&#171;application&#187;</text><text fill="#000000" font-family="sans-serif" font-size="14" lengthAdjust="spacing" textLength="77" x="854" y="82.752">UserMapper</text><rect fill="#E2E2F0" height="49.2188" rx="2.5" ry="2.5" style="stroke:#181818;stroke-width:0.5;" width="98" x="843.5" y="901.9688"/><text fill="#000000" font-family="sans-serif" font-size="14" font-style="italic" lengthAdjust="spacing" textLength="84" x="850.5" y="923.502">&#171;application&#187;</text><text fill="#000000" font-family="sans-serif" font-size="14" lengthAdjust="spacing" textLength="77" x="854" y="941.1113">UserMapper</text><rect fill="#E2E2F0" height="49.2188" rx="2.5" ry="2.5" style="stroke:#181818;stroke-width:0.5;" width="105" x="951.5" y="43.6094"/><text fill="#000000" font-family="sans-serif" font-size="14" font-style="italic" lengthAdjust="spacing" textLength="62" x="973" y="65.1426">&#171;domain&#187;</text><text fill="#000000" font-family="sans-serif" font-size="14" lengthAdjust="spacing" textLength="91" x="958.5" y="82.752">patient:Patient</text><rect fill="#E2E2F0" height="49.2188" rx="2.5" ry="2.5" style="stroke:#181818;stroke-width:0.5;" width="105" x="951.5" y="901.9688"/><text fill="#000000" font-family="sans-serif" font-size="14" font-style="italic" lengthAdjust="spacing" textLength="62" x="973" y="923.502">&#171;domain&#187;</text><text fill="#000000" font-family="sans-serif" font-size="14" lengthAdjust="spacing" textLength="91" x="958.5" y="941.1113">patient:Patient</text><rect fill="#FFFFFF" height="758.7891" style="stroke:#181818;stroke-width:1.0;" width="10" x="108" y="126.1797"/><rect fill="#FFFFFF" height="30.3516" style="stroke:#181818;stroke-width:1.0;" width="10" x="214.5" y="156.5313"/><rect fill="#FFFFFF" height="637.3828" style="stroke:#181818;stroke-width:1.0;" width="10" x="313.5" y="217.2344"/><rect fill="#FFFFFF" height="30.3516" style="stroke:#181818;stroke-width:1.0;" width="10" x="415" y="247.5859"/><rect fill="#FFFFFF" height="30.3516" style="stroke:#181818;stroke-width:1.0;" width="10" x="415" y="308.2891"/><rect fill="#FFFFFF" height="30.3516" style="stroke:#181818;stroke-width:1.0;" width="10" x="415" y="763.5625"/><rect fill="#FFFFFF" height="30.3516" style="stroke:#181818;stroke-width:1.0;" width="10" x="536" y="368.9922"/><rect fill="#FFFFFF" height="30.3516" style="stroke:#181818;stroke-width:1.0;" width="10" x="536" y="672.5078"/><rect fill="#FFFFFF" height="30.3516" style="stroke:#181818;stroke-width:1.0;" width="10" x="671.5" y="551.1016"/><rect fill="#FFFFFF" height="30.3516" style="stroke:#181818;stroke-width:1.0;" width="10" x="778.5" y="460.0469"/><rect fill="#FFFFFF" height="91.0547" style="stroke:#181818;stroke-width:1.0;" width="10" x="887.5" y="429.6953"/><rect fill="#FFFFFF" height="91.0547" style="stroke:#181818;stroke-width:1.0;" width="10" x="887.5" y="733.2109"/><rect fill="#FFFFFF" height="30.3516" style="stroke:#181818;stroke-width:1.0;" width="10" x="999" y="611.8047"/><polygon fill="#181818" points="96,122.1797,106,126.1797,96,130.1797,100,126.1797" style="stroke:#181818;stroke-width:1.0;"/><line style="stroke:#181818;stroke-width:1.0;" x1="0" x2="102" y1="126.1797" y2="126.1797"/><text fill="#000000" font-family="sans-serif" font-size="13" lengthAdjust="spacing" textLength="89" x="7" y="121.3232">POST /api/user</text><polygon fill="#181818" points="202.5,152.5313,212.5,156.5313,202.5,160.5313,206.5,156.5313" style="stroke:#181818;stroke-width:1.0;"/><line style="stroke:#181818;stroke-width:1.0;" x1="118" x2="208.5" y1="156.5313" y2="156.5313"/><text fill="#000000" font-family="sans-serif" font-size="13" lengthAdjust="spacing" textLength="56" x="125" y="151.6748">Redirect()</text><polygon fill="#181818" points="129,182.8828,119,186.8828,129,190.8828,125,186.8828" style="stroke:#181818;stroke-width:1.0;"/><line style="stroke:#181818;stroke-width:1.0;stroke-dasharray:2.0,2.0;" x1="123" x2="218.5" y1="186.8828" y2="186.8828"/><text fill="#000000" font-family="sans-serif" font-size="13" lengthAdjust="spacing" textLength="32" x="135" y="182.0264">token</text><polygon fill="#181818" points="301.5,213.2344,311.5,217.2344,301.5,221.2344,305.5,217.2344" style="stroke:#181818;stroke-width:1.0;"/><line style="stroke:#181818;stroke-width:1.0;" x1="118" x2="307.5" y1="217.2344" y2="217.2344"/><text fill="#000000" font-family="sans-serif" font-size="13" lengthAdjust="spacing" textLength="86" x="125" y="212.3779">AddAsync(dto)</text><polygon fill="#181818" points="403,243.5859,413,247.5859,403,251.5859,407,247.5859" style="stroke:#181818;stroke-width:1.0;"/><line style="stroke:#181818;stroke-width:1.0;" x1="323.5" x2="409" y1="247.5859" y2="247.5859"/><text fill="#000000" font-family="sans-serif" font-size="13" lengthAdjust="spacing" textLength="55" x="330.5" y="242.7295">GetRole()</text><polygon fill="#181818" points="334.5,273.9375,324.5,277.9375,334.5,281.9375,330.5,277.9375" style="stroke:#181818;stroke-width:1.0;"/><line style="stroke:#181818;stroke-width:1.0;stroke-dasharray:2.0,2.0;" x1="328.5" x2="419" y1="277.9375" y2="277.9375"/><text fill="#000000" font-family="sans-serif" font-size="13" lengthAdjust="spacing" textLength="53" x="340.5" y="273.0811">PATIENT</text><polygon fill="#181818" points="403,304.2891,413,308.2891,403,312.2891,407,308.2891" style="stroke:#181818;stroke-width:1.0;"/><line style="stroke:#181818;stroke-width:1.0;" x1="323.5" x2="409" y1="308.2891" y2="308.2891"/><text fill="#000000" font-family="sans-serif" font-size="13" lengthAdjust="spacing" textLength="62" x="330.5" y="303.4326">GetEmail()</text><polygon fill="#181818" points="334.5,334.6406,324.5,338.6406,334.5,342.6406,330.5,338.6406" style="stroke:#181818;stroke-width:1.0;"/><line style="stroke:#181818;stroke-width:1.0;stroke-dasharray:2.0,2.0;" x1="328.5" x2="419" y1="338.6406" y2="338.6406"/><text fill="#000000" font-family="sans-serif" font-size="13" lengthAdjust="spacing" textLength="31" x="340.5" y="333.7842">email</text><polygon fill="#181818" points="524,364.9922,534,368.9922,524,372.9922,528,368.9922" style="stroke:#181818;stroke-width:1.0;"/><line style="stroke:#181818;stroke-width:1.0;" x1="323.5" x2="530" y1="368.9922" y2="368.9922"/><text fill="#000000" font-family="sans-serif" font-size="13" lengthAdjust="spacing" textLength="146" x="330.5" y="364.1357">GetByEmailAsync(email)</text><polygon fill="#181818" points="334.5,395.3438,324.5,399.3438,334.5,403.3438,330.5,399.3438" style="stroke:#181818;stroke-width:1.0;"/><line style="stroke:#181818;stroke-width:1.0;stroke-dasharray:2.0,2.0;" x1="328.5" x2="540" y1="399.3438" y2="399.3438"/><text fill="#000000" font-family="sans-serif" font-size="13" lengthAdjust="spacing" textLength="39" x="340.5" y="394.4873">patient</text><polygon fill="#181818" points="875.5,425.6953,885.5,429.6953,875.5,433.6953,879.5,429.6953" style="stroke:#181818;stroke-width:1.0;"/><line style="stroke:#181818;stroke-width:1.0;" x1="323.5" x2="881.5" y1="429.6953" y2="429.6953"/><text fill="#000000" font-family="sans-serif" font-size="13" lengthAdjust="spacing" textLength="67" x="330.5" y="424.8389">ToUser(dto)</text><polygon fill="#181818" points="799.5,456.0469,789.5,460.0469,799.5,464.0469,795.5,460.0469" style="stroke:#181818;stroke-width:1.0;"/><line style="stroke:#181818;stroke-width:1.0;" x1="793.5" x2="886.5" y1="460.0469" y2="460.0469"/><text fill="#000000" font-family="sans-serif" font-size="13" lengthAdjust="spacing" textLength="80" x="805.5" y="455.1904">new User(dto)</text><polygon fill="#181818" points="875.5,486.3984,885.5,490.3984,875.5,494.3984,879.5,490.3984" style="stroke:#181818;stroke-width:1.0;"/><line style="stroke:#181818;stroke-width:1.0;stroke-dasharray:2.0,2.0;" x1="783.5" x2="881.5" y1="490.3984" y2="490.3984"/><text fill="#000000" font-family="sans-serif" font-size="13" lengthAdjust="spacing" textLength="25" x="790.5" y="485.542">user</text><polygon fill="#181818" points="334.5,516.75,324.5,520.75,334.5,524.75,330.5,520.75" style="stroke:#181818;stroke-width:1.0;"/><line style="stroke:#181818;stroke-width:1.0;stroke-dasharray:2.0,2.0;" x1="328.5" x2="891.5" y1="520.75" y2="520.75"/><text fill="#000000" font-family="sans-serif" font-size="13" lengthAdjust="spacing" textLength="25" x="340.5" y="515.8936">user</text><polygon fill="#181818" points="659.5,547.1016,669.5,551.1016,659.5,555.1016,663.5,551.1016" style="stroke:#181818;stroke-width:1.0;"/><line style="stroke:#181818;stroke-width:1.0;" x1="323.5" x2="665.5" y1="551.1016" y2="551.1016"/><text fill="#000000" font-family="sans-serif" font-size="13" lengthAdjust="spacing" textLength="93" x="330.5" y="546.2451">AddAsync(user)</text><polygon fill="#181818" points="334.5,577.4531,324.5,581.4531,334.5,585.4531,330.5,581.4531" style="stroke:#181818;stroke-width:1.0;"/><line style="stroke:#181818;stroke-width:1.0;stroke-dasharray:2.0,2.0;" x1="328.5" x2="675.5" y1="581.4531" y2="581.4531"/><text fill="#000000" font-family="sans-serif" font-size="13" lengthAdjust="spacing" textLength="25" x="340.5" y="576.5967">user</text><polygon fill="#181818" points="987,607.8047,997,611.8047,987,615.8047,991,611.8047" style="stroke:#181818;stroke-width:1.0;"/><line style="stroke:#181818;stroke-width:1.0;" x1="323.5" x2="993" y1="611.8047" y2="611.8047"/><text fill="#000000" font-family="sans-serif" font-size="13" lengthAdjust="spacing" textLength="100" x="330.5" y="606.9482">SetUserId(userId)</text><polygon fill="#181818" points="334.5,638.1563,324.5,642.1563,334.5,646.1563,330.5,642.1563" style="stroke:#181818;stroke-width:1.0;"/><line style="stroke:#181818;stroke-width:1.0;stroke-dasharray:2.0,2.0;" x1="328.5" x2="1003" y1="642.1563" y2="642.1563"/><text fill="#000000" font-family="sans-serif" font-size="13" lengthAdjust="spacing" textLength="22" x="340.5" y="637.2998">void</text><polygon fill="#181818" points="524,668.5078,534,672.5078,524,676.5078,528,672.5078" style="stroke:#181818;stroke-width:1.0;"/><line style="stroke:#181818;stroke-width:1.0;" x1="323.5" x2="530" y1="672.5078" y2="672.5078"/><text fill="#000000" font-family="sans-serif" font-size="13" lengthAdjust="spacing" textLength="125" x="330.5" y="667.6514">UpdateAsync(patient)</text><polygon fill="#181818" points="334.5,698.8594,324.5,702.8594,334.5,706.8594,330.5,702.8594" style="stroke:#181818;stroke-width:1.0;"/><line style="stroke:#181818;stroke-width:1.0;stroke-dasharray:2.0,2.0;" x1="328.5" x2="540" y1="702.8594" y2="702.8594"/><text fill="#000000" font-family="sans-serif" font-size="13" lengthAdjust="spacing" textLength="39" x="340.5" y="698.0029">patient</text><polygon fill="#181818" points="875.5,729.2109,885.5,733.2109,875.5,737.2109,879.5,733.2109" style="stroke:#181818;stroke-width:1.0;"/><line style="stroke:#181818;stroke-width:1.0;" x1="323.5" x2="881.5" y1="733.2109" y2="733.2109"/><text fill="#000000" font-family="sans-serif" font-size="13" lengthAdjust="spacing" textLength="67" x="330.5" y="728.3545">ToDto(user)</text><polygon fill="#181818" points="436,759.5625,426,763.5625,436,767.5625,432,763.5625" style="stroke:#181818;stroke-width:1.0;"/><line style="stroke:#181818;stroke-width:1.0;" x1="430" x2="886.5" y1="763.5625" y2="763.5625"/><text fill="#000000" font-family="sans-serif" font-size="13" lengthAdjust="spacing" textLength="107" x="442" y="758.7061">new UserDto(user)</text><polygon fill="#181818" points="875.5,789.9141,885.5,793.9141,875.5,797.9141,879.5,793.9141" style="stroke:#181818;stroke-width:1.0;"/><line style="stroke:#181818;stroke-width:1.0;stroke-dasharray:2.0,2.0;" x1="420" x2="881.5" y1="793.9141" y2="793.9141"/><text fill="#000000" font-family="sans-serif" font-size="13" lengthAdjust="spacing" textLength="18" x="427" y="789.0576">dto</text><polygon fill="#181818" points="334.5,820.2656,324.5,824.2656,334.5,828.2656,330.5,824.2656" style="stroke:#181818;stroke-width:1.0;"/><line style="stroke:#181818;stroke-width:1.0;stroke-dasharray:2.0,2.0;" x1="328.5" x2="891.5" y1="824.2656" y2="824.2656"/><text fill="#000000" font-family="sans-serif" font-size="13" lengthAdjust="spacing" textLength="18" x="340.5" y="819.4092">dto</text><polygon fill="#181818" points="129,850.6172,119,854.6172,129,858.6172,125,854.6172" style="stroke:#181818;stroke-width:1.0;"/><line style="stroke:#181818;stroke-width:1.0;stroke-dasharray:2.0,2.0;" x1="123" x2="317.5" y1="854.6172" y2="854.6172"/><text fill="#000000" font-family="sans-serif" font-size="13" lengthAdjust="spacing" textLength="18" x="135" y="849.7607">dto</text><polygon fill="#181818" points="11,880.9688,1,884.9688,11,888.9688,7,884.9688" style="stroke:#181818;stroke-width:1.0;"/><line style="stroke:#181818;stroke-width:1.0;stroke-dasharray:2.0,2.0;" x1="5" x2="112" y1="884.9688" y2="884.9688"/><text fill="#000000" font-family="sans-serif" font-size="13" lengthAdjust="spacing" textLength="70" x="17" y="880.1123">201 Created</text><!--SRC=[nLLDZzem4BtdLrXxOW_HqlOM8IGAgog7RH617-36KsgHjTtOi4f_VSUE0tO-qBQN-a9YlpVpFFCow1CNYjRqbIXQdkWH2jDKG6ee3HN72X9z1UYVbCatBexa1wrqU59n0QPHG9Ii6lkI18TbHRLU6LFpxsS3UIb5mNy3cIU9uGPJ5V3h3A84ik7qQ0cpOlD8Kd9Op-UVaWI365voHOKX3zb1GxsMmjIogg1-85IJsojPBAXI5I-fuL8ibp4tNxqKK5zu2Ow6huZtEtsionEY_VCqWndfI1iZ7G5_4SpaA-K39Lc-HOKWp0wKrDp8kd4StBKxo5DGQwwDBSkGRDFqcDtMVUePKKxabJCfqHw-O34zjdsyNr_LtYdpT-jkP9_3D4cw35gMaUstOa-UgE9FLbwIqDBm2pKGW9A4u0hwZ26mVHdP0UFMgRF75dBbuccxOvVjTDhBQkG9H0jXCAJ5kNpBCx9YRAKRKSwms_sK7dHBsra60w0PCl85p4vMq6cDo0YuxTfbxPE6gRUhVVxyTNz31R8ZzaZQPonzzOzvmNB_AgjtiSlykN6vswAvK6CgF2DMqdqCaHhliL4zWoY1fjQ_6TbBQ-oWVP6E5XNByCx769QP4G5lP2H65EUW-r7iSjzR6eWv3s31ROOnEYLXFU8G0Rr_bQ0MtQm8x6p3Z1MaWyP2hiFcVLA6GMApkA61UyO2S-R4v6p29t7tlK_SY8d4N2HdKoQ9GumPzw0OOjlIUCVzRzlYnpRPfVksTKEWS-r8cFlp89m9dHhM1qqDXIdNHW7UOzhUyBxo0suqVXTf6X4-pZ-GTGs8GrS4fE0lvWy0]--></g></svg>