<?xml version="1.0" encoding="us-ascii" standalone="no"?><svg xmlns="http://www.w3.org/2000/svg" xmlns:xlink="http://www.w3.org/1999/xlink" contentStyleType="text/css" height="884px" preserveAspectRatio="none" style="width:1357px;height:884px;background:#FFFFFF;" version="1.1" viewBox="0 0 1357 884" width="1357px" zoomAndPan="magnify"><defs/><g><text fill="#000000" font-family="sans-serif" font-size="14" font-weight="bold" lengthAdjust="spacing" textLength="222" x="571" y="29.5332">Sequence Diagram (SD) - UC003</text><rect fill="#FFFFFF" height="612.0313" style="stroke:#181818;stroke-width:1.0;" width="10" x="108" y="157.1797"/><rect fill="#FFFFFF" height="551.3281" style="stroke:#181818;stroke-width:1.0;" width="10" x="223" y="187.5313"/><rect fill="#FFFFFF" height="91.0547" style="stroke:#181818;stroke-width:1.0;" width="10" x="415" y="261.2344"/><rect fill="#FFFFFF" height="30.3516" style="stroke:#181818;stroke-width:1.0;" width="10" x="590" y="291.5859"/><rect fill="#FFFFFF" height="91.0547" style="stroke:#181818;stroke-width:1.0;" width="10" x="716" y="382.6406"/><rect fill="#FFFFFF" height="91.0547" style="stroke:#181818;stroke-width:1.0;" width="10" x="716" y="617.4531"/><rect fill="#FFFFFF" height="30.3516" style="stroke:#181818;stroke-width:1.0;" width="10" x="891" y="412.9922"/><rect fill="#FFFFFF" height="30.3516" style="stroke:#181818;stroke-width:1.0;" width="10" x="891" y="647.8047"/><rect fill="#FFFFFF" height="83.0547" style="stroke:#181818;stroke-width:1.0;" width="10" x="1000" y="504.0469"/><line style="stroke:#181818;stroke-width:0.5;stroke-dasharray:5.0,5.0;" x1="112.5" x2="112.5" y1="124.8281" y2="787.2109"/><line style="stroke:#181818;stroke-width:0.5;stroke-dasharray:5.0,5.0;" x1="228" x2="228" y1="124.8281" y2="787.2109"/><line style="stroke:#181818;stroke-width:0.5;stroke-dasharray:5.0,5.0;" x1="420" x2="420" y1="124.8281" y2="787.2109"/><line style="stroke:#181818;stroke-width:0.5;stroke-dasharray:5.0,5.0;" x1="594.5" x2="594.5" y1="124.8281" y2="787.2109"/><line style="stroke:#181818;stroke-width:0.5;stroke-dasharray:5.0,5.0;" x1="720.5" x2="720.5" y1="124.8281" y2="787.2109"/><line style="stroke:#181818;stroke-width:0.5;stroke-dasharray:5.0,5.0;" x1="896" x2="896" y1="124.8281" y2="787.2109"/><line style="stroke:#181818;stroke-width:0.5;stroke-dasharray:5.0,5.0;" x1="1005" x2="1005" y1="124.8281" y2="787.2109"/><rect fill="#E2E2F0" height="49.2188" rx="2.5" ry="2.5" style="stroke:#181818;stroke-width:0.5;" width="105" x="60.5" y="74.6094"/><text fill="#000000" font-family="sans-serif" font-size="14" font-style="italic" lengthAdjust="spacing" textLength="84" x="71" y="96.1426">&#171;application&#187;</text><text fill="#000000" font-family="sans-serif" font-size="14" lengthAdjust="spacing" textLength="91" x="67.5" y="113.752">UserController</text><rect fill="#E2E2F0" height="49.2188" rx="2.5" ry="2.5" style="stroke:#181818;stroke-width:0.5;" width="105" x="60.5" y="786.2109"/><text fill="#000000" font-family="sans-serif" font-size="14" font-style="italic" lengthAdjust="spacing" textLength="84" x="71" y="807.7441">&#171;application&#187;</text><text fill="#000000" font-family="sans-serif" font-size="14" lengthAdjust="spacing" textLength="91" x="67.5" y="825.3535">UserController</text><rect fill="#E2E2F0" height="49.2188" rx="2.5" ry="2.5" style="stroke:#181818;stroke-width:0.5;" width="90" x="183" y="74.6094"/><text fill="#000000" font-family="sans-serif" font-size="14" font-style="italic" lengthAdjust="spacing" textLength="60" x="198" y="96.1426">&#171;service&#187;</text><text fill="#000000" font-family="sans-serif" font-size="14" lengthAdjust="spacing" textLength="76" x="190" y="113.752">UserService</text><rect fill="#E2E2F0" height="49.2188" rx="2.5" ry="2.5" style="stroke:#181818;stroke-width:0.5;" width="90" x="183" y="786.2109"/><text fill="#000000" font-family="sans-serif" font-size="14" font-style="italic" lengthAdjust="spacing" textLength="60" x="198" y="807.7441">&#171;service&#187;</text><text fill="#000000" font-family="sans-serif" font-size="14" lengthAdjust="spacing" textLength="76" x="190" y="825.3535">UserService</text><text fill="#000000" font-family="sans-serif" font-size="14" font-style="italic" lengthAdjust="spacing" textLength="79" x="377.5" y="104.1426">&#171;repository&#187;</text><text fill="#000000" font-family="sans-serif" font-size="14" lengthAdjust="spacing" textLength="112" x="361" y="121.752">PatientRepository</text><path d="M402,53.6094 C402,43.6094 420,43.6094 420,43.6094 C420,43.6094 438,43.6094 438,53.6094 L438,79.6094 C438,89.6094 420,89.6094 420,89.6094 C420,89.6094 402,89.6094 402,79.6094 L402,53.6094 " fill="#E2E2F0" style="stroke:#181818;stroke-width:1.5;"/><path d="M402,53.6094 C402,63.6094 420,63.6094 420,63.6094 C420,63.6094 438,63.6094 438,53.6094 " fill="none" style="stroke:#181818;stroke-width:1.5;"/><text fill="#000000" font-family="sans-serif" font-size="14" font-style="italic" lengthAdjust="spacing" textLength="79" x="377.5" y="800.7441">&#171;repository&#187;</text><text fill="#000000" font-family="sans-serif" font-size="14" lengthAdjust="spacing" textLength="112" x="361" y="818.3535">PatientRepository</text><path d="M402,831.4297 C402,821.4297 420,821.4297 420,821.4297 C420,821.4297 438,821.4297 438,831.4297 L438,857.4297 C438,867.4297 420,867.4297 420,867.4297 C420,867.4297 402,867.4297 402,857.4297 L402,831.4297 " fill="#E2E2F0" style="stroke:#181818;stroke-width:1.5;"/><path d="M402,831.4297 C402,841.4297 420,841.4297 420,841.4297 C420,841.4297 438,841.4297 438,831.4297 " fill="none" style="stroke:#181818;stroke-width:1.5;"/><rect fill="#E2E2F0" height="49.2188" rx="2.5" ry="2.5" style="stroke:#181818;stroke-width:0.5;" width="129" x="530.5" y="74.6094"/><text fill="#000000" font-family="sans-serif" font-size="14" font-style="italic" lengthAdjust="spacing" textLength="89" x="550.5" y="96.1426">&#171;persistence&#187;</text><text fill="#000000" font-family="sans-serif" font-size="14" lengthAdjust="spacing" textLength="115" x="537.5" y="113.752">IPatientRepository</text><rect fill="#E2E2F0" height="49.2188" rx="2.5" ry="2.5" style="stroke:#181818;stroke-width:0.5;" width="129" x="530.5" y="786.2109"/><text fill="#000000" font-family="sans-serif" font-size="14" font-style="italic" lengthAdjust="spacing" textLength="89" x="550.5" y="807.7441">&#171;persistence&#187;</text><text fill="#000000" font-family="sans-serif" font-size="14" lengthAdjust="spacing" textLength="115" x="537.5" y="825.3535">IPatientRepository</text><text fill="#000000" font-family="sans-serif" font-size="14" font-style="italic" lengthAdjust="spacing" textLength="79" x="678.5" y="104.1426">&#171;repository&#187;</text><text fill="#000000" font-family="sans-serif" font-size="14" lengthAdjust="spacing" textLength="97" x="669.5" y="121.752">UserRepository</text><path d="M703,53.6094 C703,43.6094 721,43.6094 721,43.6094 C721,43.6094 739,43.6094 739,53.6094 L739,79.6094 C739,89.6094 721,89.6094 721,89.6094 C721,89.6094 703,89.6094 703,79.6094 L703,53.6094 " fill="#E2E2F0" style="stroke:#181818;stroke-width:1.5;"/><path d="M703,53.6094 C703,63.6094 721,63.6094 721,63.6094 C721,63.6094 739,63.6094 739,53.6094 " fill="none" style="stroke:#181818;stroke-width:1.5;"/><text fill="#000000" font-family="sans-serif" font-size="14" font-style="italic" lengthAdjust="spacing" textLength="79" x="678.5" y="800.7441">&#171;repository&#187;</text><text fill="#000000" font-family="sans-serif" font-size="14" lengthAdjust="spacing" textLength="97" x="669.5" y="818.3535">UserRepository</text><path d="M703,831.4297 C703,821.4297 721,821.4297 721,821.4297 C721,821.4297 739,821.4297 739,831.4297 L739,857.4297 C739,867.4297 721,867.4297 721,867.4297 C721,867.4297 703,867.4297 703,857.4297 L703,831.4297 " fill="#E2E2F0" style="stroke:#181818;stroke-width:1.5;"/><path d="M703,831.4297 C703,841.4297 721,841.4297 721,841.4297 C721,841.4297 739,841.4297 739,831.4297 " fill="none" style="stroke:#181818;stroke-width:1.5;"/><rect fill="#E2E2F0" height="49.2188" rx="2.5" ry="2.5" style="stroke:#181818;stroke-width:0.5;" width="114" x="839" y="74.6094"/><text fill="#000000" font-family="sans-serif" font-size="14" font-style="italic" lengthAdjust="spacing" textLength="89" x="851.5" y="96.1426">&#171;persistence&#187;</text><text fill="#000000" font-family="sans-serif" font-size="14" lengthAdjust="spacing" textLength="100" x="846" y="113.752">IUserRepository</text><rect fill="#E2E2F0" height="49.2188" rx="2.5" ry="2.5" style="stroke:#181818;stroke-width:0.5;" width="114" x="839" y="786.2109"/><text fill="#000000" font-family="sans-serif" font-size="14" font-style="italic" lengthAdjust="spacing" textLength="89" x="851.5" y="807.7441">&#171;persistence&#187;</text><text fill="#000000" font-family="sans-serif" font-size="14" lengthAdjust="spacing" textLength="100" x="846" y="825.3535">IUserRepository</text><rect fill="#E2E2F0" height="49.2188" rx="2.5" ry="2.5" style="stroke:#181818;stroke-width:0.5;" width="84" x="963" y="74.6094"/><text fill="#000000" font-family="sans-serif" font-size="14" font-style="italic" lengthAdjust="spacing" textLength="60" x="975" y="96.1426">&#171;service&#187;</text><text fill="#000000" font-family="sans-serif" font-size="14" lengthAdjust="spacing" textLength="70" x="970" y="113.752">IAMService</text><rect fill="#E2E2F0" height="49.2188" rx="2.5" ry="2.5" style="stroke:#181818;stroke-width:0.5;" width="84" x="963" y="786.2109"/><text fill="#000000" font-family="sans-serif" font-size="14" font-style="italic" lengthAdjust="spacing" textLength="60" x="975" y="807.7441">&#171;service&#187;</text><text fill="#000000" font-family="sans-serif" font-size="14" lengthAdjust="spacing" textLength="70" x="970" y="825.3535">IAMService</text><rect fill="#FFFFFF" height="612.0313" style="stroke:#181818;stroke-width:1.0;" width="10" x="108" y="157.1797"/><rect fill="#FFFFFF" height="551.3281" style="stroke:#181818;stroke-width:1.0;" width="10" x="223" y="187.5313"/><rect fill="#FFFFFF" height="91.0547" style="stroke:#181818;stroke-width:1.0;" width="10" x="415" y="261.2344"/><rect fill="#FFFFFF" height="30.3516" style="stroke:#181818;stroke-width:1.0;" width="10" x="590" y="291.5859"/><rect fill="#FFFFFF" height="91.0547" style="stroke:#181818;stroke-width:1.0;" width="10" x="716" y="382.6406"/><rect fill="#FFFFFF" height="91.0547" style="stroke:#181818;stroke-width:1.0;" width="10" x="716" y="617.4531"/><rect fill="#FFFFFF" height="30.3516" style="stroke:#181818;stroke-width:1.0;" width="10" x="891" y="412.9922"/><rect fill="#FFFFFF" height="30.3516" style="stroke:#181818;stroke-width:1.0;" width="10" x="891" y="647.8047"/><rect fill="#FFFFFF" height="83.0547" style="stroke:#181818;stroke-width:1.0;" width="10" x="1000" y="504.0469"/><polygon fill="#181818" points="96,153.1797,106,157.1797,96,161.1797,100,157.1797" style="stroke:#181818;stroke-width:1.0;"/><line style="stroke:#181818;stroke-width:1.0;" x1="0" x2="102" y1="157.1797" y2="157.1797"/><text fill="#000000" font-family="sans-serif" font-size="13" lengthAdjust="spacing" textLength="89" x="7" y="152.3232">POST /api/user</text><polygon fill="#181818" points="211,183.5313,221,187.5313,211,191.5313,215,187.5313" style="stroke:#181818;stroke-width:1.0;"/><line style="stroke:#181818;stroke-width:1.0;" x1="118" x2="217" y1="187.5313" y2="187.5313"/><text fill="#000000" font-family="sans-serif" font-size="13" lengthAdjust="spacing" textLength="86" x="125" y="182.6748">AddAsync(dto)</text><line style="stroke:#181818;stroke-width:1.0;" x1="233" x2="275" y1="217.8828" y2="217.8828"/><line style="stroke:#181818;stroke-width:1.0;" x1="275" x2="275" y1="217.8828" y2="230.8828"/><line style="stroke:#181818;stroke-width:1.0;" x1="234" x2="275" y1="230.8828" y2="230.8828"/><polygon fill="#181818" points="244,226.8828,234,230.8828,244,234.8828,240,230.8828" style="stroke:#181818;stroke-width:1.0;"/><text fill="#000000" font-family="sans-serif" font-size="13" lengthAdjust="spacing" textLength="168" x="240" y="213.0264">ValidatePatientRecord(email)</text><polygon fill="#181818" points="403,257.2344,413,261.2344,403,265.2344,407,261.2344" style="stroke:#181818;stroke-width:1.0;"/><line style="stroke:#181818;stroke-width:1.0;" x1="233" x2="409" y1="261.2344" y2="261.2344"/><text fill="#000000" font-family="sans-serif" font-size="13" lengthAdjust="spacing" textLength="146" x="240" y="256.3779">GetByEmailAsync(email)</text><polygon fill="#181818" points="578,287.5859,588,291.5859,578,295.5859,582,291.5859" style="stroke:#181818;stroke-width:1.0;"/><line style="stroke:#181818;stroke-width:1.0;" x1="425" x2="584" y1="291.5859" y2="291.5859"/><text fill="#000000" font-family="sans-serif" font-size="13" lengthAdjust="spacing" textLength="146" x="432" y="286.7295">GetByEmailAsync(email)</text><polygon fill="#181818" points="436,317.9375,426,321.9375,436,325.9375,432,321.9375" style="stroke:#181818;stroke-width:1.0;"/><line style="stroke:#181818;stroke-width:1.0;stroke-dasharray:2.0,2.0;" x1="430" x2="594" y1="321.9375" y2="321.9375"/><text fill="#000000" font-family="sans-serif" font-size="13" lengthAdjust="spacing" textLength="39" x="442" y="317.0811">patient</text><polygon fill="#181818" points="244,348.2891,234,352.2891,244,356.2891,240,352.2891" style="stroke:#181818;stroke-width:1.0;"/><line style="stroke:#181818;stroke-width:1.0;stroke-dasharray:2.0,2.0;" x1="238" x2="419" y1="352.2891" y2="352.2891"/><text fill="#000000" font-family="sans-serif" font-size="13" lengthAdjust="spacing" textLength="39" x="250" y="347.4326">patient</text><polygon fill="#181818" points="704,378.6406,714,382.6406,704,386.6406,708,382.6406" style="stroke:#181818;stroke-width:1.0;"/><line style="stroke:#181818;stroke-width:1.0;" x1="233" x2="710" y1="382.6406" y2="382.6406"/><text fill="#000000" font-family="sans-serif" font-size="13" lengthAdjust="spacing" textLength="146" x="240" y="377.7842">GetByEmailAsync(email)</text><polygon fill="#181818" points="879,408.9922,889,412.9922,879,416.9922,883,412.9922" style="stroke:#181818;stroke-width:1.0;"/><line style="stroke:#181818;stroke-width:1.0;" x1="726" x2="885" y1="412.9922" y2="412.9922"/><text fill="#000000" font-family="sans-serif" font-size="13" lengthAdjust="spacing" textLength="146" x="733" y="408.1357">GetByEmailAsync(email)</text><polygon fill="#181818" points="737,439.3438,727,443.3438,737,447.3438,733,443.3438" style="stroke:#181818;stroke-width:1.0;"/><line style="stroke:#181818;stroke-width:1.0;stroke-dasharray:2.0,2.0;" x1="731" x2="895" y1="443.3438" y2="443.3438"/><text fill="#000000" font-family="sans-serif" font-size="13" lengthAdjust="spacing" textLength="25" x="743" y="438.4873">user</text><polygon fill="#181818" points="244,469.6953,234,473.6953,244,477.6953,240,473.6953" style="stroke:#181818;stroke-width:1.0;"/><line style="stroke:#181818;stroke-width:1.0;stroke-dasharray:2.0,2.0;" x1="238" x2="720" y1="473.6953" y2="473.6953"/><text fill="#000000" font-family="sans-serif" font-size="13" lengthAdjust="spacing" textLength="25" x="250" y="468.8389">user</text><polygon fill="#181818" points="988,500.0469,998,504.0469,988,508.0469,992,504.0469" style="stroke:#181818;stroke-width:1.0;"/><line style="stroke:#181818;stroke-width:1.0;stroke-dasharray:2.0,2.0;" x1="233" x2="994" y1="504.0469" y2="504.0469"/><text fill="#000000" font-family="sans-serif" font-size="13" lengthAdjust="spacing" textLength="114" x="240" y="499.1904">RegisterUser(email)</text><line style="stroke:#181818;stroke-width:1.0;" x1="1010" x2="1052" y1="539.0742" y2="539.0742"/><line style="stroke:#181818;stroke-width:1.0;" x1="1052" x2="1052" y1="539.0742" y2="552.0742"/><line style="stroke:#181818;stroke-width:1.0;" x1="1011" x2="1052" y1="552.0742" y2="552.0742"/><polygon fill="#181818" points="1021,548.0742,1011,552.0742,1021,556.0742,1017,552.0742" style="stroke:#181818;stroke-width:1.0;"/><text fill="#000000" font-family="sans-serif" font-size="13" lengthAdjust="spacing" textLength="104" x="1017" y="534.2178">CreateUser(email)</text><path d="M1133,517.0469 L1133,559.0469 L1350,559.0469 L1350,527.0469 L1340,517.0469 L1133,517.0469 " fill="#FEFFDD" style="stroke:#181818;stroke-width:0.5;"/><path d="M1340,517.0469 L1340,527.0469 L1350,527.0469 L1340,517.0469 " fill="#FEFFDD" style="stroke:#181818;stroke-width:0.5;"/><text fill="#000000" font-family="sans-serif" font-size="13" lengthAdjust="spacing" textLength="196" x="1139" y="535.542">IAMService is a third-party service</text><text fill="#000000" font-family="sans-serif" font-size="13" lengthAdjust="spacing" textLength="165" x="1139" y="551.8936">that manages user accounts</text><polygon fill="#181818" points="244,583.1016,234,587.1016,244,591.1016,240,587.1016" style="stroke:#181818;stroke-width:1.0;"/><line style="stroke:#181818;stroke-width:1.0;stroke-dasharray:2.0,2.0;" x1="238" x2="1004" y1="587.1016" y2="587.1016"/><text fill="#000000" font-family="sans-serif" font-size="13" lengthAdjust="spacing" textLength="25" x="250" y="582.2451">user</text><polygon fill="#181818" points="704,613.4531,714,617.4531,704,621.4531,708,617.4531" style="stroke:#181818;stroke-width:1.0;"/><line style="stroke:#181818;stroke-width:1.0;" x1="233" x2="710" y1="617.4531" y2="617.4531"/><text fill="#000000" font-family="sans-serif" font-size="13" lengthAdjust="spacing" textLength="86" x="240" y="612.5967">AddAsync(dto)</text><polygon fill="#181818" points="879,643.8047,889,647.8047,879,651.8047,883,647.8047" style="stroke:#181818;stroke-width:1.0;"/><line style="stroke:#181818;stroke-width:1.0;" x1="726" x2="885" y1="647.8047" y2="647.8047"/><text fill="#000000" font-family="sans-serif" font-size="13" lengthAdjust="spacing" textLength="86" x="733" y="642.9482">AddAsync(dto)</text><polygon fill="#181818" points="737,674.1563,727,678.1563,737,682.1563,733,678.1563" style="stroke:#181818;stroke-width:1.0;"/><line style="stroke:#181818;stroke-width:1.0;stroke-dasharray:2.0,2.0;" x1="731" x2="895" y1="678.1563" y2="678.1563"/><text fill="#000000" font-family="sans-serif" font-size="13" lengthAdjust="spacing" textLength="25" x="743" y="673.2998">user</text><polygon fill="#181818" points="244,704.5078,234,708.5078,244,712.5078,240,708.5078" style="stroke:#181818;stroke-width:1.0;"/><line style="stroke:#181818;stroke-width:1.0;stroke-dasharray:2.0,2.0;" x1="238" x2="720" y1="708.5078" y2="708.5078"/><text fill="#000000" font-family="sans-serif" font-size="13" lengthAdjust="spacing" textLength="25" x="250" y="703.6514">user</text><polygon fill="#181818" points="129,734.8594,119,738.8594,129,742.8594,125,738.8594" style="stroke:#181818;stroke-width:1.0;"/><line style="stroke:#181818;stroke-width:1.0;stroke-dasharray:2.0,2.0;" x1="123" x2="227" y1="738.8594" y2="738.8594"/><text fill="#000000" font-family="sans-serif" font-size="13" lengthAdjust="spacing" textLength="18" x="135" y="734.0029">dto</text><polygon fill="#181818" points="11,765.2109,1,769.2109,11,773.2109,7,769.2109" style="stroke:#181818;stroke-width:1.0;"/><line style="stroke:#181818;stroke-width:1.0;stroke-dasharray:2.0,2.0;" x1="5" x2="112" y1="769.2109" y2="769.2109"/><text fill="#000000" font-family="sans-serif" font-size="13" lengthAdjust="spacing" textLength="70" x="17" y="764.3545">201 Created</text><!--SRC=[rLMnRjim4Dtv5HpjGOZRRePWm7M2maDH8oexTRb8Lvc8JAhaEONwzIKZMpd9KcgqKpY9vhrtxnwFP_-eJGqE3hA6_15ApAYfK3hC2KnPeV1TWDz3ONzfKyeVK7b-Kcc3rDGeQrirSIFOOLw1zsiYfn-EXDlScap_HhaGWZI5L1d-FAB9KTvgA2DWbjtEPIBLPh7u84GW8Pth6Wn9vT5jh25dgmgT12_PBasXhYkT0sbhLgiBO8RkIOSq0NN-J5FVVeNm0WWUmAFS1G8qT8-rzPgiQo9YnxPfwhhD8Czs5BnzHWTSZSvhJx5QdZ6gwoFKbUakaLircgk7MdzcNh0TjqCaAsRkKkw-P5_b3TJwvXY2X82Sz1CGiY0XP5ZiHWB5YNefrqMnzet9PmNPUHlPKPo2sb_ZEWlY1D-Wqi4nx1pEhIjcU01TpKUHxCgMyXFIn-Ok1hSgXhXE2qEzdCR5Eo2mjtVwT-8UUGlg7yPrQf1agBfkQ-q32doLhwUJ6tX1neX6gsPUgYkyFCCkFLLJdgg1f-fVF5KJdghEqvxwjdsd31qXKrE6zfaOYthLpLXez-QMyXxB-4nTVCf3ArzqTO2-DlPu1xGRXm4uHXgNiO7KwN9FIywXlGH9U-sA90wCHfxcmNT3Uo1v01F-8FnpuK5RRe-6_BIWgxmQgsogyKPco7_rsGJVcsylFhT3QMqG8-WPdYP93_1-yUxKF8KG3CJc_1y0]--></g></svg>