<?xml version="1.0" encoding="us-ascii" standalone="no"?><svg xmlns="http://www.w3.org/2000/svg" xmlns:xlink="http://www.w3.org/1999/xlink" contentStyleType="text/css" height="887px" preserveAspectRatio="none" style="width:3345px;height:887px;background:#FFFFFF;" version="1.1" viewBox="0 0 3345 887" width="3345px" zoomAndPan="magnify"><defs/><g><text fill="#000000" font-family="sans-serif" font-size="14" font-weight="bold" lengthAdjust="spacing" textLength="190" x="1570.75" y="24.5332">Class Diagram (CD) - UC003</text><!--class UserController--><g id="elem_UserController"><rect codeLine="9" fill="#F1F1F1" height="83.2188" id="UserController" rx="2.5" ry="2.5" style="stroke:#181818;stroke-width:0.5;" width="407" x="8.5" y="164.4394"/><ellipse cx="162.25" cy="180.4394" fill="#ADD1B2" rx="11" ry="11" style="stroke:#181818;stroke-width:1.0;"/><path d="M165.0156,176.3144 Q165.1719,176.0956 165.3594,175.9863 Q165.5469,175.8769 165.7656,175.8769 Q166.1406,175.8769 166.375,176.1425 Q166.6094,176.3925 166.6094,177.0019 L166.6094,178.455 Q166.6094,179.0644 166.375,179.33 Q166.1406,179.5956 165.7656,179.5956 Q165.4219,179.5956 165.2188,179.3925 Q165.0156,179.205 164.9063,178.6894 Q164.8594,178.33 164.6719,178.1425 Q164.3438,177.7675 163.7344,177.5488 Q163.125,177.33 162.5,177.33 Q161.7344,177.33 161.0938,177.6581 Q160.4688,177.9863 159.9688,178.7363 Q159.4844,179.4863 159.4844,180.5175 L159.4844,181.6113 Q159.4844,182.8456 160.375,183.6738 Q161.2656,184.4863 162.8594,184.4863 Q163.7969,184.4863 164.4531,184.2363 Q164.8438,184.08 165.2656,183.6425 Q165.5313,183.3769 165.6719,183.2988 Q165.8281,183.2206 166.0313,183.2206 Q166.3594,183.2206 166.6094,183.4863 Q166.875,183.7363 166.875,184.08 Q166.875,184.4238 166.5313,184.83 Q166.0313,185.4081 165.2344,185.7363 Q164.1563,186.1894 162.8594,186.1894 Q161.3438,186.1894 160.1406,185.5644 Q159.1563,185.0644 158.4688,184.0019 Q157.7813,182.9238 157.7813,181.6425 L157.7813,180.4863 Q157.7813,179.1581 158.3906,178.0175 Q159.0156,176.8613 160.1094,176.2519 Q161.2031,175.6269 162.4375,175.6269 Q163.1719,175.6269 163.8125,175.7988 Q164.4688,175.955 165.0156,176.3144 Z " fill="#000000"/><text fill="#000000" font-family="sans-serif" font-size="14" lengthAdjust="spacing" textLength="91" x="182.75" y="186.1679">UserController</text><line style="stroke:#181818;stroke-width:0.5;" x1="9.5" x2="414.5" y1="196.4394" y2="196.4394"/><line style="stroke:#181818;stroke-width:0.5;" x1="9.5" x2="414.5" y1="204.4394" y2="204.4394"/><text fill="#000000" font-family="sans-serif" font-size="14" lengthAdjust="spacing" textLength="367" x="14.5" y="222.9726">+GetByEmail(email: Email): Task&lt;ActionResult&lt;UserDto&gt;&gt;</text><text fill="#000000" font-family="sans-serif" font-size="14" lengthAdjust="spacing" textLength="395" x="14.5" y="240.582">+Create(dto: CreatingUserDto): Task&lt;ActionResult&lt;UserDto&gt;&gt;</text></g><!--class UserService--><g id="elem_UserService"><rect codeLine="14" fill="#F1F1F1" height="118.4375" id="UserService" rx="2.5" ry="2.5" style="stroke:#181818;stroke-width:0.5;" width="412" x="493" y="146.9394"/><ellipse cx="656.75" cy="162.9394" fill="#ADD1B2" rx="11" ry="11" style="stroke:#181818;stroke-width:1.0;"/><path d="M659.5156,158.8144 Q659.6719,158.5956 659.8594,158.4863 Q660.0469,158.3769 660.2656,158.3769 Q660.6406,158.3769 660.875,158.6425 Q661.1094,158.8925 661.1094,159.5019 L661.1094,160.955 Q661.1094,161.5644 660.875,161.83 Q660.6406,162.0956 660.2656,162.0956 Q659.9219,162.0956 659.7188,161.8925 Q659.5156,161.705 659.4063,161.1894 Q659.3594,160.83 659.1719,160.6425 Q658.8438,160.2675 658.2344,160.0488 Q657.625,159.83 657,159.83 Q656.2344,159.83 655.5938,160.1581 Q654.9688,160.4863 654.4688,161.2363 Q653.9844,161.9863 653.9844,163.0175 L653.9844,164.1113 Q653.9844,165.3456 654.875,166.1738 Q655.7656,166.9863 657.3594,166.9863 Q658.2969,166.9863 658.9531,166.7363 Q659.3438,166.58 659.7656,166.1425 Q660.0313,165.8769 660.1719,165.7988 Q660.3281,165.7206 660.5313,165.7206 Q660.8594,165.7206 661.1094,165.9863 Q661.375,166.2363 661.375,166.58 Q661.375,166.9238 661.0313,167.33 Q660.5313,167.9081 659.7344,168.2363 Q658.6563,168.6894 657.3594,168.6894 Q655.8438,168.6894 654.6406,168.0644 Q653.6563,167.5644 652.9688,166.5019 Q652.2813,165.4238 652.2813,164.1425 L652.2813,162.9863 Q652.2813,161.6581 652.8906,160.5175 Q653.5156,159.3613 654.6094,158.7519 Q655.7031,158.1269 656.9375,158.1269 Q657.6719,158.1269 658.3125,158.2988 Q658.9688,158.455 659.5156,158.8144 Z " fill="#000000"/><text fill="#000000" font-family="sans-serif" font-size="14" lengthAdjust="spacing" textLength="76" x="677.25" y="168.6679">UserService</text><line style="stroke:#181818;stroke-width:0.5;" x1="494" x2="904" y1="178.9394" y2="178.9394"/><line style="stroke:#181818;stroke-width:0.5;" x1="494" x2="904" y1="186.9394" y2="186.9394"/><text fill="#000000" font-family="sans-serif" font-size="14" lengthAdjust="spacing" textLength="400" x="499" y="205.4726">+GetByUsernameAsync(username: Username): Task&lt;UserDto&gt;</text><text fill="#000000" font-family="sans-serif" font-size="14" lengthAdjust="spacing" textLength="325" x="499" y="223.082">+GetByEmailAsync(email: Email): Task&lt;PatientDto&gt;</text><text fill="#000000" font-family="sans-serif" font-size="14" lengthAdjust="spacing" textLength="316" x="499" y="240.6913">+ValidatePatientRecord(email: Email): Task&lt;bool&gt;</text><text fill="#000000" font-family="sans-serif" font-size="14" lengthAdjust="spacing" textLength="320" x="499" y="258.3007">+AddAsync(dto: CreatingUserDto): Task&lt;UserDto&gt;</text></g><!--class IAMService--><g id="elem_IAMService"><rect codeLine="21" fill="#F1F1F1" height="65.6094" id="IAMService" rx="2.5" ry="2.5" style="stroke:#181818;stroke-width:0.5;" width="269" x="2343.5" y="172.9394"/><ellipse cx="2438.75" cy="188.9394" fill="#ADD1B2" rx="11" ry="11" style="stroke:#181818;stroke-width:1.0;"/><path d="M2441.5156,184.8144 Q2441.6719,184.5956 2441.8594,184.4863 Q2442.0469,184.3769 2442.2656,184.3769 Q2442.6406,184.3769 2442.875,184.6425 Q2443.1094,184.8925 2443.1094,185.5019 L2443.1094,186.955 Q2443.1094,187.5644 2442.875,187.83 Q2442.6406,188.0956 2442.2656,188.0956 Q2441.9219,188.0956 2441.7188,187.8925 Q2441.5156,187.705 2441.4063,187.1894 Q2441.3594,186.83 2441.1719,186.6425 Q2440.8438,186.2675 2440.2344,186.0488 Q2439.625,185.83 2439,185.83 Q2438.2344,185.83 2437.5938,186.1581 Q2436.9688,186.4863 2436.4688,187.2363 Q2435.9844,187.9863 2435.9844,189.0175 L2435.9844,190.1113 Q2435.9844,191.3456 2436.875,192.1738 Q2437.7656,192.9863 2439.3594,192.9863 Q2440.2969,192.9863 2440.9531,192.7363 Q2441.3438,192.58 2441.7656,192.1425 Q2442.0313,191.8769 2442.1719,191.7988 Q2442.3281,191.7206 2442.5313,191.7206 Q2442.8594,191.7206 2443.1094,191.9863 Q2443.375,192.2363 2443.375,192.58 Q2443.375,192.9238 2443.0313,193.33 Q2442.5313,193.9081 2441.7344,194.2363 Q2440.6563,194.6894 2439.3594,194.6894 Q2437.8438,194.6894 2436.6406,194.0644 Q2435.6563,193.5644 2434.9688,192.5019 Q2434.2813,191.4238 2434.2813,190.1425 L2434.2813,188.9863 Q2434.2813,187.6581 2434.8906,186.5175 Q2435.5156,185.3613 2436.6094,184.7519 Q2437.7031,184.1269 2438.9375,184.1269 Q2439.6719,184.1269 2440.3125,184.2988 Q2440.9688,184.455 2441.5156,184.8144 Z " fill="#000000"/><text fill="#000000" font-family="sans-serif" font-size="14" lengthAdjust="spacing" textLength="70" x="2459.25" y="194.6679">IAMService</text><line style="stroke:#181818;stroke-width:0.5;" x1="2344.5" x2="2611.5" y1="204.9394" y2="204.9394"/><line style="stroke:#181818;stroke-width:0.5;" x1="2344.5" x2="2611.5" y1="212.9394" y2="212.9394"/><text fill="#000000" font-family="sans-serif" font-size="14" lengthAdjust="spacing" textLength="257" x="2349.5" y="231.4726">+RegisterUser(email: Email): Task&lt;bool&gt;</text></g><!--class PatientRepository--><g id="elem_PatientRepository"><rect codeLine="25" fill="#F1F1F1" height="65.6094" id="PatientRepository" rx="2.5" ry="2.5" style="stroke:#181818;stroke-width:0.5;" width="315" x="982.5" y="172.9394"/><ellipse cx="1079.75" cy="188.9394" fill="#ADD1B2" rx="11" ry="11" style="stroke:#181818;stroke-width:1.0;"/><path d="M1082.5156,184.8144 Q1082.6719,184.5956 1082.8594,184.4863 Q1083.0469,184.3769 1083.2656,184.3769 Q1083.6406,184.3769 1083.875,184.6425 Q1084.1094,184.8925 1084.1094,185.5019 L1084.1094,186.955 Q1084.1094,187.5644 1083.875,187.83 Q1083.6406,188.0956 1083.2656,188.0956 Q1082.9219,188.0956 1082.7188,187.8925 Q1082.5156,187.705 1082.4063,187.1894 Q1082.3594,186.83 1082.1719,186.6425 Q1081.8438,186.2675 1081.2344,186.0488 Q1080.625,185.83 1080,185.83 Q1079.2344,185.83 1078.5938,186.1581 Q1077.9688,186.4863 1077.4688,187.2363 Q1076.9844,187.9863 1076.9844,189.0175 L1076.9844,190.1113 Q1076.9844,191.3456 1077.875,192.1738 Q1078.7656,192.9863 1080.3594,192.9863 Q1081.2969,192.9863 1081.9531,192.7363 Q1082.3438,192.58 1082.7656,192.1425 Q1083.0313,191.8769 1083.1719,191.7988 Q1083.3281,191.7206 1083.5313,191.7206 Q1083.8594,191.7206 1084.1094,191.9863 Q1084.375,192.2363 1084.375,192.58 Q1084.375,192.9238 1084.0313,193.33 Q1083.5313,193.9081 1082.7344,194.2363 Q1081.6563,194.6894 1080.3594,194.6894 Q1078.8438,194.6894 1077.6406,194.0644 Q1076.6563,193.5644 1075.9688,192.5019 Q1075.2813,191.4238 1075.2813,190.1425 L1075.2813,188.9863 Q1075.2813,187.6581 1075.8906,186.5175 Q1076.5156,185.3613 1077.6094,184.7519 Q1078.7031,184.1269 1079.9375,184.1269 Q1080.6719,184.1269 1081.3125,184.2988 Q1081.9688,184.455 1082.5156,184.8144 Z " fill="#000000"/><text fill="#000000" font-family="sans-serif" font-size="14" lengthAdjust="spacing" textLength="112" x="1100.25" y="194.6679">PatientRepository</text><line style="stroke:#181818;stroke-width:0.5;" x1="983.5" x2="1296.5" y1="204.9394" y2="204.9394"/><line style="stroke:#181818;stroke-width:0.5;" x1="983.5" x2="1296.5" y1="212.9394" y2="212.9394"/><text fill="#000000" font-family="sans-serif" font-size="14" lengthAdjust="spacing" textLength="303" x="988.5" y="231.4726">+GetByEmailAsync(email: Email): Task&lt;Patient&gt;</text></g><!--class IPatientRepository--><g id="elem_IPatientRepository"><rect codeLine="29" fill="#F1F1F1" height="65.6094" id="IPatientRepository" rx="2.5" ry="2.5" style="stroke:#181818;stroke-width:0.5;" width="315" x="435.5" y="421.9394"/><ellipse cx="530.75" cy="437.9394" fill="#B4A7E5" rx="11" ry="11" style="stroke:#181818;stroke-width:1.0;"/><path d="M531.7031,434.58 L531.7031,441.2363 L533.4219,441.2363 Q534.0313,441.2363 534.2969,441.4706 Q534.5625,441.705 534.5625,442.0956 Q534.5625,442.4706 534.2969,442.705 Q534.0313,442.9394 533.4219,442.9394 L528.2813,442.9394 Q527.6719,442.9394 527.4063,442.705 Q527.1406,442.4706 527.1406,442.08 Q527.1406,441.705 527.4063,441.4706 Q527.6719,441.2363 528.2813,441.2363 L530,441.2363 L530,434.58 L528.2813,434.58 Q527.6719,434.58 527.4063,434.3456 Q527.1406,434.1113 527.1406,433.7206 Q527.1406,433.3456 527.4063,433.1113 Q527.6719,432.8769 528.2813,432.8769 L533.4219,432.8769 Q534.0313,432.8769 534.2969,433.1113 Q534.5625,433.3456 534.5625,433.7206 Q534.5625,434.1113 534.2969,434.3456 Q534.0313,434.58 533.4219,434.58 L531.7031,434.58 Z " fill="#000000"/><text fill="#000000" font-family="sans-serif" font-size="14" font-style="italic" lengthAdjust="spacing" textLength="116" x="551.25" y="443.6679">IPatientRepository</text><line style="stroke:#181818;stroke-width:0.5;" x1="436.5" x2="749.5" y1="453.9394" y2="453.9394"/><line style="stroke:#181818;stroke-width:0.5;" x1="436.5" x2="749.5" y1="461.9394" y2="461.9394"/><text fill="#000000" font-family="sans-serif" font-size="14" lengthAdjust="spacing" textLength="303" x="441.5" y="480.4726">+GetByEmailAsync(email: Email): Task&lt;Patient&gt;</text></g><!--class UserRepository--><g id="elem_UserRepository"><rect codeLine="33" fill="#F1F1F1" height="83.2188" id="UserRepository" rx="2.5" ry="2.5" style="stroke:#181818;stroke-width:0.5;" width="310" x="1998" y="164.4394"/><ellipse cx="2100.25" cy="180.4394" fill="#ADD1B2" rx="11" ry="11" style="stroke:#181818;stroke-width:1.0;"/><path d="M2103.0156,176.3144 Q2103.1719,176.0956 2103.3594,175.9863 Q2103.5469,175.8769 2103.7656,175.8769 Q2104.1406,175.8769 2104.375,176.1425 Q2104.6094,176.3925 2104.6094,177.0019 L2104.6094,178.455 Q2104.6094,179.0644 2104.375,179.33 Q2104.1406,179.5956 2103.7656,179.5956 Q2103.4219,179.5956 2103.2188,179.3925 Q2103.0156,179.205 2102.9063,178.6894 Q2102.8594,178.33 2102.6719,178.1425 Q2102.3438,177.7675 2101.7344,177.5488 Q2101.125,177.33 2100.5,177.33 Q2099.7344,177.33 2099.0938,177.6581 Q2098.4688,177.9863 2097.9688,178.7363 Q2097.4844,179.4863 2097.4844,180.5175 L2097.4844,181.6113 Q2097.4844,182.8456 2098.375,183.6738 Q2099.2656,184.4863 2100.8594,184.4863 Q2101.7969,184.4863 2102.4531,184.2363 Q2102.8438,184.08 2103.2656,183.6425 Q2103.5313,183.3769 2103.6719,183.2988 Q2103.8281,183.2206 2104.0313,183.2206 Q2104.3594,183.2206 2104.6094,183.4863 Q2104.875,183.7363 2104.875,184.08 Q2104.875,184.4238 2104.5313,184.83 Q2104.0313,185.4081 2103.2344,185.7363 Q2102.1563,186.1894 2100.8594,186.1894 Q2099.3438,186.1894 2098.1406,185.5644 Q2097.1563,185.0644 2096.4688,184.0019 Q2095.7813,182.9238 2095.7813,181.6425 L2095.7813,180.4863 Q2095.7813,179.1581 2096.3906,178.0175 Q2097.0156,176.8613 2098.1094,176.2519 Q2099.2031,175.6269 2100.4375,175.6269 Q2101.1719,175.6269 2101.8125,175.7988 Q2102.4688,175.955 2103.0156,176.3144 Z " fill="#000000"/><text fill="#000000" font-family="sans-serif" font-size="14" lengthAdjust="spacing" textLength="97" x="2120.75" y="186.1679">UserRepository</text><line style="stroke:#181818;stroke-width:0.5;" x1="1999" x2="2307" y1="196.4394" y2="196.4394"/><line style="stroke:#181818;stroke-width:0.5;" x1="1999" x2="2307" y1="204.4394" y2="204.4394"/><text fill="#000000" font-family="sans-serif" font-size="14" lengthAdjust="spacing" textLength="288" x="2004" y="222.9726">+GetByEmailAsync(email: Email): Task&lt;User&gt;</text><text fill="#000000" font-family="sans-serif" font-size="14" lengthAdjust="spacing" textLength="298" x="2004" y="240.582">+AddAsync(dto: CreatingUserDto): Task&lt;User&gt;</text></g><!--class IUserRepository--><g id="elem_IUserRepository"><rect codeLine="38" fill="#F1F1F1" height="83.2188" id="IUserRepository" rx="2.5" ry="2.5" style="stroke:#181818;stroke-width:0.5;" width="310" x="3025" y="413.4394"/><ellipse cx="3124.75" cy="429.4394" fill="#B4A7E5" rx="11" ry="11" style="stroke:#181818;stroke-width:1.0;"/><path d="M3125.7031,426.08 L3125.7031,432.7363 L3127.4219,432.7363 Q3128.0313,432.7363 3128.2969,432.9706 Q3128.5625,433.205 3128.5625,433.5956 Q3128.5625,433.9706 3128.2969,434.205 Q3128.0313,434.4394 3127.4219,434.4394 L3122.2813,434.4394 Q3121.6719,434.4394 3121.4063,434.205 Q3121.1406,433.9706 3121.1406,433.58 Q3121.1406,433.205 3121.4063,432.9706 Q3121.6719,432.7363 3122.2813,432.7363 L3124,432.7363 L3124,426.08 L3122.2813,426.08 Q3121.6719,426.08 3121.4063,425.8456 Q3121.1406,425.6113 3121.1406,425.2206 Q3121.1406,424.8456 3121.4063,424.6113 Q3121.6719,424.3769 3122.2813,424.3769 L3127.4219,424.3769 Q3128.0313,424.3769 3128.2969,424.6113 Q3128.5625,424.8456 3128.5625,425.2206 Q3128.5625,425.6113 3128.2969,425.8456 Q3128.0313,426.08 3127.4219,426.08 L3125.7031,426.08 Z " fill="#000000"/><text fill="#000000" font-family="sans-serif" font-size="14" font-style="italic" lengthAdjust="spacing" textLength="102" x="3145.25" y="435.1679">IUserRepository</text><line style="stroke:#181818;stroke-width:0.5;" x1="3026" x2="3334" y1="445.4394" y2="445.4394"/><line style="stroke:#181818;stroke-width:0.5;" x1="3026" x2="3334" y1="453.4394" y2="453.4394"/><text fill="#000000" font-family="sans-serif" font-size="14" lengthAdjust="spacing" textLength="288" x="3031" y="471.9726">+GetByEmailAsync(email: Email): Task&lt;User&gt;</text><text fill="#000000" font-family="sans-serif" font-size="14" lengthAdjust="spacing" textLength="298" x="3031" y="489.582">+AddAsync(dto: CreatingUserDto): Task&lt;User&gt;</text></g><!--class CreatingUserDto--><g id="elem_CreatingUserDto"><rect codeLine="43" fill="#F1F1F1" height="100.8281" id="CreatingUserDto" rx="2.5" ry="2.5" style="stroke:#181818;stroke-width:0.5;" width="192" x="208" y="404.4394"/><ellipse cx="247.75" cy="420.4394" fill="#ADD1B2" rx="11" ry="11" style="stroke:#181818;stroke-width:1.0;"/><path d="M250.5156,416.3144 Q250.6719,416.0956 250.8594,415.9863 Q251.0469,415.8769 251.2656,415.8769 Q251.6406,415.8769 251.875,416.1425 Q252.1094,416.3925 252.1094,417.0019 L252.1094,418.455 Q252.1094,419.0644 251.875,419.33 Q251.6406,419.5956 251.2656,419.5956 Q250.9219,419.5956 250.7188,419.3925 Q250.5156,419.205 250.4063,418.6894 Q250.3594,418.33 250.1719,418.1425 Q249.8438,417.7675 249.2344,417.5488 Q248.625,417.33 248,417.33 Q247.2344,417.33 246.5938,417.6581 Q245.9688,417.9863 245.4688,418.7363 Q244.9844,419.4863 244.9844,420.5175 L244.9844,421.6113 Q244.9844,422.8456 245.875,423.6738 Q246.7656,424.4863 248.3594,424.4863 Q249.2969,424.4863 249.9531,424.2363 Q250.3438,424.08 250.7656,423.6425 Q251.0313,423.3769 251.1719,423.2988 Q251.3281,423.2206 251.5313,423.2206 Q251.8594,423.2206 252.1094,423.4863 Q252.375,423.7363 252.375,424.08 Q252.375,424.4238 252.0313,424.83 Q251.5313,425.4081 250.7344,425.7363 Q249.6563,426.1894 248.3594,426.1894 Q246.8438,426.1894 245.6406,425.5644 Q244.6563,425.0644 243.9688,424.0019 Q243.2813,422.9238 243.2813,421.6425 L243.2813,420.4863 Q243.2813,419.1581 243.8906,418.0175 Q244.5156,416.8613 245.6094,416.2519 Q246.7031,415.6269 247.9375,415.6269 Q248.6719,415.6269 249.3125,415.7988 Q249.9688,415.955 250.5156,416.3144 Z " fill="#000000"/><text fill="#000000" font-family="sans-serif" font-size="14" lengthAdjust="spacing" textLength="105" x="267.25" y="426.1679">CreatingUserDto</text><line style="stroke:#181818;stroke-width:0.5;" x1="209" x2="399" y1="436.4394" y2="436.4394"/><text fill="#000000" font-family="sans-serif" font-size="14" lengthAdjust="spacing" textLength="84" x="214" y="454.9726">+Email: Email</text><line style="stroke:#181818;stroke-width:0.5;" x1="209" x2="399" y1="462.0488" y2="462.0488"/><text fill="#000000" font-family="sans-serif" font-size="14" lengthAdjust="spacing" textLength="114" x="214" y="480.582">+getEmail(): Email</text><text fill="#000000" font-family="sans-serif" font-size="14" lengthAdjust="spacing" textLength="180" x="214" y="498.1913">+setEmail(email: Email): void</text></g><!--class User--><g id="elem_User"><rect codeLine="49" fill="#F1F1F1" height="136.0469" id="User" rx="2.5" ry="2.5" style="stroke:#181818;stroke-width:0.5;" width="166" x="2661" y="386.9394"/><ellipse cx="2725.25" cy="402.9394" fill="#ADD1B2" rx="11" ry="11" style="stroke:#181818;stroke-width:1.0;"/><path d="M2728.0156,398.8144 Q2728.1719,398.5956 2728.3594,398.4863 Q2728.5469,398.3769 2728.7656,398.3769 Q2729.1406,398.3769 2729.375,398.6425 Q2729.6094,398.8925 2729.6094,399.5019 L2729.6094,400.955 Q2729.6094,401.5644 2729.375,401.83 Q2729.1406,402.0956 2728.7656,402.0956 Q2728.4219,402.0956 2728.2188,401.8925 Q2728.0156,401.705 2727.9063,401.1894 Q2727.8594,400.83 2727.6719,400.6425 Q2727.3438,400.2675 2726.7344,400.0488 Q2726.125,399.83 2725.5,399.83 Q2724.7344,399.83 2724.0938,400.1581 Q2723.4688,400.4863 2722.9688,401.2363 Q2722.4844,401.9863 2722.4844,403.0175 L2722.4844,404.1113 Q2722.4844,405.3456 2723.375,406.1738 Q2724.2656,406.9863 2725.8594,406.9863 Q2726.7969,406.9863 2727.4531,406.7363 Q2727.8438,406.58 2728.2656,406.1425 Q2728.5313,405.8769 2728.6719,405.7988 Q2728.8281,405.7206 2729.0313,405.7206 Q2729.3594,405.7206 2729.6094,405.9863 Q2729.875,406.2363 2729.875,406.58 Q2729.875,406.9238 2729.5313,407.33 Q2729.0313,407.9081 2728.2344,408.2363 Q2727.1563,408.6894 2725.8594,408.6894 Q2724.3438,408.6894 2723.1406,408.0644 Q2722.1563,407.5644 2721.4688,406.5019 Q2720.7813,405.4238 2720.7813,404.1425 L2720.7813,402.9863 Q2720.7813,401.6581 2721.3906,400.5175 Q2722.0156,399.3613 2723.1094,398.7519 Q2724.2031,398.1269 2725.4375,398.1269 Q2726.1719,398.1269 2726.8125,398.2988 Q2727.4688,398.455 2728.0156,398.8144 Z " fill="#000000"/><text fill="#000000" font-family="sans-serif" font-size="14" lengthAdjust="spacing" textLength="29" x="2745.75" y="408.6679">User</text><line style="stroke:#181818;stroke-width:0.5;" x1="2662" x2="2826" y1="418.9394" y2="418.9394"/><text fill="#000000" font-family="sans-serif" font-size="14" lengthAdjust="spacing" textLength="57" x="2667" y="437.4726">+Id: Guid</text><text fill="#000000" font-family="sans-serif" font-size="14" lengthAdjust="spacing" textLength="144" x="2667" y="455.082">+Username: Username</text><text fill="#000000" font-family="sans-serif" font-size="14" lengthAdjust="spacing" textLength="84" x="2667" y="472.6913">+Email: Email</text><text fill="#000000" font-family="sans-serif" font-size="14" lengthAdjust="spacing" textLength="74" x="2667" y="490.3007">+Role: Role</text><text fill="#000000" font-family="sans-serif" font-size="14" lengthAdjust="spacing" textLength="154" x="2667" y="507.9101">+UserStatus: UserStatus</text><line style="stroke:#181818;stroke-width:0.5;" x1="2662" x2="2826" y1="514.9863" y2="514.9863"/></g><!--class UserDto--><g id="elem_UserDto"><rect codeLine="57" fill="#F1F1F1" height="100.8281" id="UserDto" rx="2.5" ry="2.5" style="stroke:#181818;stroke-width:0.5;" width="166" x="7" y="404.4394"/><ellipse cx="60.25" cy="420.4394" fill="#ADD1B2" rx="11" ry="11" style="stroke:#181818;stroke-width:1.0;"/><path d="M63.0156,416.3144 Q63.1719,416.0956 63.3594,415.9863 Q63.5469,415.8769 63.7656,415.8769 Q64.1406,415.8769 64.375,416.1425 Q64.6094,416.3925 64.6094,417.0019 L64.6094,418.455 Q64.6094,419.0644 64.375,419.33 Q64.1406,419.5956 63.7656,419.5956 Q63.4219,419.5956 63.2188,419.3925 Q63.0156,419.205 62.9063,418.6894 Q62.8594,418.33 62.6719,418.1425 Q62.3438,417.7675 61.7344,417.5488 Q61.125,417.33 60.5,417.33 Q59.7344,417.33 59.0938,417.6581 Q58.4688,417.9863 57.9688,418.7363 Q57.4844,419.4863 57.4844,420.5175 L57.4844,421.6113 Q57.4844,422.8456 58.375,423.6738 Q59.2656,424.4863 60.8594,424.4863 Q61.7969,424.4863 62.4531,424.2363 Q62.8438,424.08 63.2656,423.6425 Q63.5313,423.3769 63.6719,423.2988 Q63.8281,423.2206 64.0313,423.2206 Q64.3594,423.2206 64.6094,423.4863 Q64.875,423.7363 64.875,424.08 Q64.875,424.4238 64.5313,424.83 Q64.0313,425.4081 63.2344,425.7363 Q62.1563,426.1894 60.8594,426.1894 Q59.3438,426.1894 58.1406,425.5644 Q57.1563,425.0644 56.4688,424.0019 Q55.7813,422.9238 55.7813,421.6425 L55.7813,420.4863 Q55.7813,419.1581 56.3906,418.0175 Q57.0156,416.8613 58.1094,416.2519 Q59.2031,415.6269 60.4375,415.6269 Q61.1719,415.6269 61.8125,415.7988 Q62.4688,415.955 63.0156,416.3144 Z " fill="#000000"/><text fill="#000000" font-family="sans-serif" font-size="14" lengthAdjust="spacing" textLength="51" x="80.75" y="426.1679">UserDto</text><line style="stroke:#181818;stroke-width:0.5;" x1="8" x2="172" y1="436.4394" y2="436.4394"/><text fill="#000000" font-family="sans-serif" font-size="14" lengthAdjust="spacing" textLength="84" x="13" y="454.9726">+Email: Email</text><text fill="#000000" font-family="sans-serif" font-size="14" lengthAdjust="spacing" textLength="74" x="13" y="472.582">+Role: Role</text><text fill="#000000" font-family="sans-serif" font-size="14" lengthAdjust="spacing" textLength="154" x="13" y="490.1913">+UserStatus: UserStatus</text><line style="stroke:#181818;stroke-width:0.5;" x1="8" x2="172" y1="497.2675" y2="497.2675"/></g><!--class Patient--><g id="elem_Patient"><rect codeLine="63" fill="#F1F1F1" height="206.4844" id="Patient" rx="2.5" ry="2.5" style="stroke:#181818;stroke-width:0.5;" width="314" x="1380" y="102.9394"/><ellipse cx="1510.75" cy="118.9394" fill="#ADD1B2" rx="11" ry="11" style="stroke:#181818;stroke-width:1.0;"/><path d="M1513.5156,114.8144 Q1513.6719,114.5956 1513.8594,114.4863 Q1514.0469,114.3769 1514.2656,114.3769 Q1514.6406,114.3769 1514.875,114.6425 Q1515.1094,114.8925 1515.1094,115.5019 L1515.1094,116.955 Q1515.1094,117.5644 1514.875,117.83 Q1514.6406,118.0956 1514.2656,118.0956 Q1513.9219,118.0956 1513.7188,117.8925 Q1513.5156,117.705 1513.4063,117.1894 Q1513.3594,116.83 1513.1719,116.6425 Q1512.8438,116.2675 1512.2344,116.0488 Q1511.625,115.83 1511,115.83 Q1510.2344,115.83 1509.5938,116.1581 Q1508.9688,116.4863 1508.4688,117.2363 Q1507.9844,117.9863 1507.9844,119.0175 L1507.9844,120.1113 Q1507.9844,121.3456 1508.875,122.1738 Q1509.7656,122.9863 1511.3594,122.9863 Q1512.2969,122.9863 1512.9531,122.7363 Q1513.3438,122.58 1513.7656,122.1425 Q1514.0313,121.8769 1514.1719,121.7988 Q1514.3281,121.7206 1514.5313,121.7206 Q1514.8594,121.7206 1515.1094,121.9863 Q1515.375,122.2363 1515.375,122.58 Q1515.375,122.9238 1515.0313,123.33 Q1514.5313,123.9081 1513.7344,124.2363 Q1512.6563,124.6894 1511.3594,124.6894 Q1509.8438,124.6894 1508.6406,124.0644 Q1507.6563,123.5644 1506.9688,122.5019 Q1506.2813,121.4238 1506.2813,120.1425 L1506.2813,118.9863 Q1506.2813,117.6581 1506.8906,116.5175 Q1507.5156,115.3613 1508.6094,114.7519 Q1509.7031,114.1269 1510.9375,114.1269 Q1511.6719,114.1269 1512.3125,114.2988 Q1512.9688,114.455 1513.5156,114.8144 Z " fill="#000000"/><text fill="#000000" font-family="sans-serif" font-size="14" lengthAdjust="spacing" textLength="44" x="1531.25" y="124.6679">Patient</text><line style="stroke:#181818;stroke-width:0.5;" x1="1381" x2="1693" y1="134.9394" y2="134.9394"/><text fill="#000000" font-family="sans-serif" font-size="14" lengthAdjust="spacing" textLength="57" x="1386" y="153.4726">+Id: Guid</text><text fill="#000000" font-family="sans-serif" font-size="14" lengthAdjust="spacing" textLength="86" x="1386" y="171.082">+UserId: Guid</text><text fill="#000000" font-family="sans-serif" font-size="14" lengthAdjust="spacing" textLength="134" x="1386" y="188.6913">+FullName: FullName</text><text fill="#000000" font-family="sans-serif" font-size="14" lengthAdjust="spacing" textLength="164" x="1386" y="206.3007">+DateOfBirth: DateOfBirth</text><text fill="#000000" font-family="sans-serif" font-size="14" lengthAdjust="spacing" textLength="112" x="1386" y="223.9101">+Gender: Gender</text><text fill="#000000" font-family="sans-serif" font-size="14" lengthAdjust="spacing" textLength="302" x="1386" y="241.5195">+MedicalRecordNumber: MedicalRecordNumber</text><text fill="#000000" font-family="sans-serif" font-size="14" lengthAdjust="spacing" textLength="254" x="1386" y="259.1288">+ContactInformation: ContactInformation</text><text fill="#000000" font-family="sans-serif" font-size="14" lengthAdjust="spacing" textLength="232" x="1386" y="276.7382">+MedicalCondition: MedicalCondition</text><text fill="#000000" font-family="sans-serif" font-size="14" lengthAdjust="spacing" textLength="256" x="1386" y="294.3476">+EmergencyContact: EmergencyContact</text><line style="stroke:#181818;stroke-width:0.5;" x1="1381" x2="1693" y1="301.4238" y2="301.4238"/></g><!--class Username--><g id="elem_Username"><rect codeLine="76" fill="#F1F1F1" height="65.6094" id="Username" rx="2.5" ry="2.5" style="stroke:#181818;stroke-width:0.5;" width="99" x="2642.5" y="635.9394"/><ellipse cx="2658.85" cy="651.9394" fill="#ADD1B2" rx="11" ry="11" style="stroke:#181818;stroke-width:1.0;"/><path d="M2661.6156,647.8144 Q2661.7719,647.5956 2661.9594,647.4863 Q2662.1469,647.3769 2662.3656,647.3769 Q2662.7406,647.3769 2662.975,647.6425 Q2663.2094,647.8925 2663.2094,648.5019 L2663.2094,649.955 Q2663.2094,650.5644 2662.975,650.83 Q2662.7406,651.0956 2662.3656,651.0956 Q2662.0219,651.0956 2661.8188,650.8925 Q2661.6156,650.705 2661.5063,650.1894 Q2661.4594,649.83 2661.2719,649.6425 Q2660.9438,649.2675 2660.3344,649.0488 Q2659.725,648.83 2659.1,648.83 Q2658.3344,648.83 2657.6938,649.1581 Q2657.0688,649.4863 2656.5688,650.2363 Q2656.0844,650.9863 2656.0844,652.0175 L2656.0844,653.1113 Q2656.0844,654.3456 2656.975,655.1738 Q2657.8656,655.9863 2659.4594,655.9863 Q2660.3969,655.9863 2661.0531,655.7363 Q2661.4438,655.58 2661.8656,655.1425 Q2662.1313,654.8769 2662.2719,654.7988 Q2662.4281,654.7206 2662.6313,654.7206 Q2662.9594,654.7206 2663.2094,654.9863 Q2663.475,655.2363 2663.475,655.58 Q2663.475,655.9238 2663.1313,656.33 Q2662.6313,656.9081 2661.8344,657.2363 Q2660.7563,657.6894 2659.4594,657.6894 Q2657.9438,657.6894 2656.7406,657.0644 Q2655.7563,656.5644 2655.0688,655.5019 Q2654.3813,654.4238 2654.3813,653.1425 L2654.3813,651.9863 Q2654.3813,650.6581 2654.9906,649.5175 Q2655.6156,648.3613 2656.7094,647.7519 Q2657.8031,647.1269 2659.0375,647.1269 Q2659.7719,647.1269 2660.4125,647.2988 Q2661.0688,647.455 2661.6156,647.8144 Z " fill="#000000"/><text fill="#000000" font-family="sans-serif" font-size="14" lengthAdjust="spacing" textLength="64" x="2673.15" y="657.6679">Username</text><line style="stroke:#181818;stroke-width:0.5;" x1="2643.5" x2="2740.5" y1="667.9394" y2="667.9394"/><text fill="#000000" font-family="sans-serif" font-size="14" lengthAdjust="spacing" textLength="87" x="2648.5" y="686.4726">+value: String</text><line style="stroke:#181818;stroke-width:0.5;" x1="2643.5" x2="2740.5" y1="693.5488" y2="693.5488"/></g><!--class Email--><g id="elem_Email"><rect codeLine="80" fill="#F1F1F1" height="65.6094" id="Email" rx="2.5" ry="2.5" style="stroke:#181818;stroke-width:0.5;" width="116" x="1700" y="635.9394"/><ellipse cx="1737.5" cy="651.9394" fill="#ADD1B2" rx="11" ry="11" style="stroke:#181818;stroke-width:1.0;"/><path d="M1740.2656,647.8144 Q1740.4219,647.5956 1740.6094,647.4863 Q1740.7969,647.3769 1741.0156,647.3769 Q1741.3906,647.3769 1741.625,647.6425 Q1741.8594,647.8925 1741.8594,648.5019 L1741.8594,649.955 Q1741.8594,650.5644 1741.625,650.83 Q1741.3906,651.0956 1741.0156,651.0956 Q1740.6719,651.0956 1740.4688,650.8925 Q1740.2656,650.705 1740.1563,650.1894 Q1740.1094,649.83 1739.9219,649.6425 Q1739.5938,649.2675 1738.9844,649.0488 Q1738.375,648.83 1737.75,648.83 Q1736.9844,648.83 1736.3438,649.1581 Q1735.7188,649.4863 1735.2188,650.2363 Q1734.7344,650.9863 1734.7344,652.0175 L1734.7344,653.1113 Q1734.7344,654.3456 1735.625,655.1738 Q1736.5156,655.9863 1738.1094,655.9863 Q1739.0469,655.9863 1739.7031,655.7363 Q1740.0938,655.58 1740.5156,655.1425 Q1740.7813,654.8769 1740.9219,654.7988 Q1741.0781,654.7206 1741.2813,654.7206 Q1741.6094,654.7206 1741.8594,654.9863 Q1742.125,655.2363 1742.125,655.58 Q1742.125,655.9238 1741.7813,656.33 Q1741.2813,656.9081 1740.4844,657.2363 Q1739.4063,657.6894 1738.1094,657.6894 Q1736.5938,657.6894 1735.3906,657.0644 Q1734.4063,656.5644 1733.7188,655.5019 Q1733.0313,654.4238 1733.0313,653.1425 L1733.0313,651.9863 Q1733.0313,650.6581 1733.6406,649.5175 Q1734.2656,648.3613 1735.3594,647.7519 Q1736.4531,647.1269 1737.6875,647.1269 Q1738.4219,647.1269 1739.0625,647.2988 Q1739.7188,647.455 1740.2656,647.8144 Z " fill="#000000"/><text fill="#000000" font-family="sans-serif" font-size="14" lengthAdjust="spacing" textLength="34" x="1756.5" y="657.6679">Email</text><line style="stroke:#181818;stroke-width:0.5;" x1="1701" x2="1815" y1="667.9394" y2="667.9394"/><text fill="#000000" font-family="sans-serif" font-size="14" lengthAdjust="spacing" textLength="104" x="1706" y="686.4726">+address: String</text><line style="stroke:#181818;stroke-width:0.5;" x1="1701" x2="1815" y1="693.5488" y2="693.5488"/></g><!--class Role--><g id="elem_Role"><rect codeLine="84" fill="#F1F1F1" height="136.0469" id="Role" rx="2.5" ry="2.5" style="stroke:#181818;stroke-width:0.5;" width="92" x="2777" y="600.9394"/><ellipse cx="2805.95" cy="616.9394" fill="#EB937F" rx="11" ry="11" style="stroke:#181818;stroke-width:1.0;"/><path d="M2804.8094,617.7363 L2804.8094,620.2363 L2809.1375,620.2363 L2809.1375,619.3144 Q2809.1375,618.705 2809.3719,618.4394 Q2809.6219,618.1738 2809.9969,618.1738 Q2810.3719,618.1738 2810.6063,618.4394 Q2810.8406,618.705 2810.8406,619.3144 L2810.8406,621.9394 L2802.8406,621.9394 Q2802.2156,621.9394 2801.95,621.705 Q2801.7,621.4706 2801.7,621.08 Q2801.7,620.705 2801.9656,620.4706 Q2802.2313,620.2363 2802.8406,620.2363 L2803.1063,620.2363 L2803.1063,613.58 L2802.8406,613.58 Q2802.2156,613.58 2801.95,613.3456 Q2801.7,613.1113 2801.7,612.7206 Q2801.7,612.3456 2801.95,612.1113 Q2802.2156,611.8769 2802.8406,611.8769 L2810.4656,611.8769 L2810.4656,614.4706 Q2810.4656,615.08 2810.2313,615.3456 Q2810.0125,615.5956 2809.6219,615.5956 Q2809.2469,615.5956 2809.0125,615.3456 Q2808.7781,615.08 2808.7781,614.4706 L2808.7781,613.58 L2804.8094,613.58 L2804.8094,616.0331 L2806.2938,616.0331 Q2806.2938,615.3769 2806.4188,615.1894 Q2806.6844,614.7831 2807.1531,614.7831 Q2807.5281,614.7831 2807.7625,615.0488 Q2807.9969,615.2988 2807.9969,615.9081 L2807.9969,617.8769 Q2807.9969,618.4238 2807.8719,618.6113 Q2807.6063,619.0019 2807.1531,619.0019 Q2806.6844,619.0019 2806.4188,618.5956 Q2806.2938,618.4081 2806.2938,617.7363 L2804.8094,617.7363 Z " fill="#000000"/><text fill="#000000" font-family="sans-serif" font-size="14" lengthAdjust="spacing" textLength="29" x="2823.05" y="622.6679">Role</text><line style="stroke:#181818;stroke-width:0.5;" x1="2778" x2="2868" y1="632.9394" y2="632.9394"/><text fill="#000000" font-family="sans-serif" font-size="14" lengthAdjust="spacing" textLength="42" x="2783" y="651.4726">ADMIN</text><text fill="#000000" font-family="sans-serif" font-size="14" lengthAdjust="spacing" textLength="61" x="2783" y="669.082">DOCTOR</text><text fill="#000000" font-family="sans-serif" font-size="14" lengthAdjust="spacing" textLength="46" x="2783" y="686.6913">NURSE</text><text fill="#000000" font-family="sans-serif" font-size="14" lengthAdjust="spacing" textLength="80" x="2783" y="704.3007">TECHNICIAN</text><text fill="#000000" font-family="sans-serif" font-size="14" lengthAdjust="spacing" textLength="57" x="2783" y="721.9101">PATIENT</text><line style="stroke:#181818;stroke-width:0.5;" x1="2778" x2="2868" y1="728.9863" y2="728.9863"/></g><g id="elem_GMN16"><path d="M2904,655.9394 L2904,664.9394 L2869.02,668.9394 L2904,672.9394 L2904,682.2909 A0,0 0 0 0 2904,682.2909 L3204,682.2909 A0,0 0 0 0 3204,682.2909 L3204,665.9394 L3194,655.9394 L2904,655.9394 A0,0 0 0 0 2904,655.9394 " fill="#FEFFDD" style="stroke:#181818;stroke-width:0.5;"/><path d="M3194,655.9394 L3194,665.9394 L3204,665.9394 L3194,655.9394 " fill="#FEFFDD" style="stroke:#181818;stroke-width:0.5;"/><text fill="#000000" font-family="sans-serif" font-size="13" lengthAdjust="spacing" textLength="279" x="2910" y="674.4345">in this Use Case, only Patient role is considered</text></g><!--class UserStatus--><g id="elem_UserStatus"><rect codeLine="93" fill="#F1F1F1" height="118.4375" id="UserStatus" rx="2.5" ry="2.5" style="stroke:#181818;stroke-width:0.5;" width="101" x="2150.5" y="609.9394"/><ellipse cx="2165.5" cy="625.9394" fill="#EB937F" rx="11" ry="11" style="stroke:#181818;stroke-width:1.0;"/><path d="M2164.3594,626.7363 L2164.3594,629.2363 L2168.6875,629.2363 L2168.6875,628.3144 Q2168.6875,627.705 2168.9219,627.4394 Q2169.1719,627.1738 2169.5469,627.1738 Q2169.9219,627.1738 2170.1563,627.4394 Q2170.3906,627.705 2170.3906,628.3144 L2170.3906,630.9394 L2162.3906,630.9394 Q2161.7656,630.9394 2161.5,630.705 Q2161.25,630.4706 2161.25,630.08 Q2161.25,629.705 2161.5156,629.4706 Q2161.7813,629.2363 2162.3906,629.2363 L2162.6563,629.2363 L2162.6563,622.58 L2162.3906,622.58 Q2161.7656,622.58 2161.5,622.3456 Q2161.25,622.1113 2161.25,621.7206 Q2161.25,621.3456 2161.5,621.1113 Q2161.7656,620.8769 2162.3906,620.8769 L2170.0156,620.8769 L2170.0156,623.4706 Q2170.0156,624.08 2169.7813,624.3456 Q2169.5625,624.5956 2169.1719,624.5956 Q2168.7969,624.5956 2168.5625,624.3456 Q2168.3281,624.08 2168.3281,623.4706 L2168.3281,622.58 L2164.3594,622.58 L2164.3594,625.0331 L2165.8438,625.0331 Q2165.8438,624.3769 2165.9688,624.1894 Q2166.2344,623.7831 2166.7031,623.7831 Q2167.0781,623.7831 2167.3125,624.0488 Q2167.5469,624.2988 2167.5469,624.9081 L2167.5469,626.8769 Q2167.5469,627.4238 2167.4219,627.6113 Q2167.1563,628.0019 2166.7031,628.0019 Q2166.2344,628.0019 2165.9688,627.5956 Q2165.8438,627.4081 2165.8438,626.7363 L2164.3594,626.7363 Z " fill="#000000"/><text fill="#000000" font-family="sans-serif" font-size="14" lengthAdjust="spacing" textLength="69" x="2179.5" y="631.6679">UserStatus</text><line style="stroke:#181818;stroke-width:0.5;" x1="2151.5" x2="2250.5" y1="641.9394" y2="641.9394"/><text fill="#000000" font-family="sans-serif" font-size="14" lengthAdjust="spacing" textLength="49" x="2156.5" y="660.4726">ACTIVE</text><text fill="#000000" font-family="sans-serif" font-size="14" lengthAdjust="spacing" textLength="61" x="2156.5" y="678.082">INACTIVE</text><text fill="#000000" font-family="sans-serif" font-size="14" lengthAdjust="spacing" textLength="60" x="2156.5" y="695.6913">PENDING</text><text fill="#000000" font-family="sans-serif" font-size="14" lengthAdjust="spacing" textLength="66" x="2156.5" y="713.3007">BLOCKED</text><line style="stroke:#181818;stroke-width:0.5;" x1="2151.5" x2="2250.5" y1="720.3769" y2="720.3769"/></g><g id="elem_GMN20"><path d="M2286.5,655.9394 L2286.5,664.9394 L2251.93,668.9394 L2286.5,672.9394 L2286.5,682.2909 A0,0 0 0 0 2286.5,682.2909 L2607.5,682.2909 A0,0 0 0 0 2607.5,682.2909 L2607.5,665.9394 L2597.5,655.9394 L2286.5,655.9394 A0,0 0 0 0 2286.5,655.9394 " fill="#FEFFDD" style="stroke:#181818;stroke-width:0.5;"/><path d="M2597.5,655.9394 L2597.5,665.9394 L2607.5,665.9394 L2597.5,655.9394 " fill="#FEFFDD" style="stroke:#181818;stroke-width:0.5;"/><text fill="#000000" font-family="sans-serif" font-size="13" lengthAdjust="spacing" textLength="300" x="2292.5" y="674.4345">when a patient user is created, its status is ACTIVE</text></g><!--class FullName--><g id="elem_FullName"><rect codeLine="101" fill="#F1F1F1" height="83.2188" id="FullName" rx="2.5" ry="2.5" style="stroke:#181818;stroke-width:0.5;" width="128" x="2862" y="413.4394"/><ellipse cx="2893.65" cy="429.4394" fill="#ADD1B2" rx="11" ry="11" style="stroke:#181818;stroke-width:1.0;"/><path d="M2896.4156,425.3144 Q2896.5719,425.0956 2896.7594,424.9863 Q2896.9469,424.8769 2897.1656,424.8769 Q2897.5406,424.8769 2897.775,425.1425 Q2898.0094,425.3925 2898.0094,426.0019 L2898.0094,427.455 Q2898.0094,428.0644 2897.775,428.33 Q2897.5406,428.5956 2897.1656,428.5956 Q2896.8219,428.5956 2896.6188,428.3925 Q2896.4156,428.205 2896.3063,427.6894 Q2896.2594,427.33 2896.0719,427.1425 Q2895.7438,426.7675 2895.1344,426.5488 Q2894.525,426.33 2893.9,426.33 Q2893.1344,426.33 2892.4938,426.6581 Q2891.8688,426.9863 2891.3688,427.7363 Q2890.8844,428.4863 2890.8844,429.5175 L2890.8844,430.6113 Q2890.8844,431.8456 2891.775,432.6738 Q2892.6656,433.4863 2894.2594,433.4863 Q2895.1969,433.4863 2895.8531,433.2363 Q2896.2438,433.08 2896.6656,432.6425 Q2896.9313,432.3769 2897.0719,432.2988 Q2897.2281,432.2206 2897.4313,432.2206 Q2897.7594,432.2206 2898.0094,432.4863 Q2898.275,432.7363 2898.275,433.08 Q2898.275,433.4238 2897.9313,433.83 Q2897.4313,434.4081 2896.6344,434.7363 Q2895.5563,435.1894 2894.2594,435.1894 Q2892.7438,435.1894 2891.5406,434.5644 Q2890.5563,434.0644 2889.8688,433.0019 Q2889.1813,431.9238 2889.1813,430.6425 L2889.1813,429.4863 Q2889.1813,428.1581 2889.7906,427.0175 Q2890.4156,425.8613 2891.5094,425.2519 Q2892.6031,424.6269 2893.8375,424.6269 Q2894.5719,424.6269 2895.2125,424.7988 Q2895.8688,424.955 2896.4156,425.3144 Z " fill="#000000"/><text fill="#000000" font-family="sans-serif" font-size="14" lengthAdjust="spacing" textLength="59" x="2911.35" y="435.1679">FullName</text><line style="stroke:#181818;stroke-width:0.5;" x1="2863" x2="2989" y1="445.4394" y2="445.4394"/><text fill="#000000" font-family="sans-serif" font-size="14" lengthAdjust="spacing" textLength="116" x="2868" y="463.9726">+FirstName: Name</text><text fill="#000000" font-family="sans-serif" font-size="14" lengthAdjust="spacing" textLength="115" x="2868" y="481.582">+LastName: Name</text><line style="stroke:#181818;stroke-width:0.5;" x1="2863" x2="2989" y1="488.6581" y2="488.6581"/></g><!--class Name--><g id="elem_Name"><rect codeLine="106" fill="#F1F1F1" height="65.6094" id="Name" rx="2.5" ry="2.5" style="stroke:#181818;stroke-width:0.5;" width="99" x="3239.5" y="635.9394"/><ellipse cx="3268.45" cy="651.9394" fill="#ADD1B2" rx="11" ry="11" style="stroke:#181818;stroke-width:1.0;"/><path d="M3271.2156,647.8144 Q3271.3719,647.5956 3271.5594,647.4863 Q3271.7469,647.3769 3271.9656,647.3769 Q3272.3406,647.3769 3272.575,647.6425 Q3272.8094,647.8925 3272.8094,648.5019 L3272.8094,649.955 Q3272.8094,650.5644 3272.575,650.83 Q3272.3406,651.0956 3271.9656,651.0956 Q3271.6219,651.0956 3271.4188,650.8925 Q3271.2156,650.705 3271.1063,650.1894 Q3271.0594,649.83 3270.8719,649.6425 Q3270.5438,649.2675 3269.9344,649.0488 Q3269.325,648.83 3268.7,648.83 Q3267.9344,648.83 3267.2938,649.1581 Q3266.6688,649.4863 3266.1688,650.2363 Q3265.6844,650.9863 3265.6844,652.0175 L3265.6844,653.1113 Q3265.6844,654.3456 3266.575,655.1738 Q3267.4656,655.9863 3269.0594,655.9863 Q3269.9969,655.9863 3270.6531,655.7363 Q3271.0438,655.58 3271.4656,655.1425 Q3271.7313,654.8769 3271.8719,654.7988 Q3272.0281,654.7206 3272.2313,654.7206 Q3272.5594,654.7206 3272.8094,654.9863 Q3273.075,655.2363 3273.075,655.58 Q3273.075,655.9238 3272.7313,656.33 Q3272.2313,656.9081 3271.4344,657.2363 Q3270.3563,657.6894 3269.0594,657.6894 Q3267.5438,657.6894 3266.3406,657.0644 Q3265.3563,656.5644 3264.6688,655.5019 Q3263.9813,654.4238 3263.9813,653.1425 L3263.9813,651.9863 Q3263.9813,650.6581 3264.5906,649.5175 Q3265.2156,648.3613 3266.3094,647.7519 Q3267.4031,647.1269 3268.6375,647.1269 Q3269.3719,647.1269 3270.0125,647.2988 Q3270.6688,647.455 3271.2156,647.8144 Z " fill="#000000"/><text fill="#000000" font-family="sans-serif" font-size="14" lengthAdjust="spacing" textLength="36" x="3285.55" y="657.6679">Name</text><line style="stroke:#181818;stroke-width:0.5;" x1="3240.5" x2="3337.5" y1="667.9394" y2="667.9394"/><text fill="#000000" font-family="sans-serif" font-size="14" lengthAdjust="spacing" textLength="87" x="3245.5" y="686.4726">+value: String</text><line style="stroke:#181818;stroke-width:0.5;" x1="3240.5" x2="3337.5" y1="693.5488" y2="693.5488"/></g><!--class DateOfBirth--><g id="elem_DateOfBirth"><rect codeLine="110" fill="#F1F1F1" height="65.6094" id="DateOfBirth" rx="2.5" ry="2.5" style="stroke:#181818;stroke-width:0.5;" width="106" x="1594" y="421.9394"/><ellipse cx="1609" cy="437.9394" fill="#ADD1B2" rx="11" ry="11" style="stroke:#181818;stroke-width:1.0;"/><path d="M1611.7656,433.8144 Q1611.9219,433.5956 1612.1094,433.4863 Q1612.2969,433.3769 1612.5156,433.3769 Q1612.8906,433.3769 1613.125,433.6425 Q1613.3594,433.8925 1613.3594,434.5019 L1613.3594,435.955 Q1613.3594,436.5644 1613.125,436.83 Q1612.8906,437.0956 1612.5156,437.0956 Q1612.1719,437.0956 1611.9688,436.8925 Q1611.7656,436.705 1611.6563,436.1894 Q1611.6094,435.83 1611.4219,435.6425 Q1611.0938,435.2675 1610.4844,435.0488 Q1609.875,434.83 1609.25,434.83 Q1608.4844,434.83 1607.8438,435.1581 Q1607.2188,435.4863 1606.7188,436.2363 Q1606.2344,436.9863 1606.2344,438.0175 L1606.2344,439.1113 Q1606.2344,440.3456 1607.125,441.1738 Q1608.0156,441.9863 1609.6094,441.9863 Q1610.5469,441.9863 1611.2031,441.7363 Q1611.5938,441.58 1612.0156,441.1425 Q1612.2813,440.8769 1612.4219,440.7988 Q1612.5781,440.7206 1612.7813,440.7206 Q1613.1094,440.7206 1613.3594,440.9863 Q1613.625,441.2363 1613.625,441.58 Q1613.625,441.9238 1613.2813,442.33 Q1612.7813,442.9081 1611.9844,443.2363 Q1610.9063,443.6894 1609.6094,443.6894 Q1608.0938,443.6894 1606.8906,443.0644 Q1605.9063,442.5644 1605.2188,441.5019 Q1604.5313,440.4238 1604.5313,439.1425 L1604.5313,437.9863 Q1604.5313,436.6581 1605.1406,435.5175 Q1605.7656,434.3613 1606.8594,433.7519 Q1607.9531,433.1269 1609.1875,433.1269 Q1609.9219,433.1269 1610.5625,433.2988 Q1611.2188,433.455 1611.7656,433.8144 Z " fill="#000000"/><text fill="#000000" font-family="sans-serif" font-size="14" lengthAdjust="spacing" textLength="74" x="1623" y="443.6679">DateOfBirth</text><line style="stroke:#181818;stroke-width:0.5;" x1="1595" x2="1699" y1="453.9394" y2="453.9394"/><text fill="#000000" font-family="sans-serif" font-size="14" lengthAdjust="spacing" textLength="80" x="1600" y="472.4726">+value: Date</text><line style="stroke:#181818;stroke-width:0.5;" x1="1595" x2="1699" y1="479.5488" y2="479.5488"/></g><g id="elem_GMN26"><path d="M1735.5,441.9394 L1735.5,450.9394 L1700.28,454.9394 L1735.5,458.9394 L1735.5,468.2909 A0,0 0 0 0 1735.5,468.2909 L1868.5,468.2909 A0,0 0 0 0 1868.5,468.2909 L1868.5,451.9394 L1858.5,441.9394 L1735.5,441.9394 A0,0 0 0 0 1735.5,441.9394 " fill="#FEFFDD" style="stroke:#181818;stroke-width:0.5;"/><path d="M1858.5,441.9394 L1858.5,451.9394 L1868.5,451.9394 L1858.5,441.9394 " fill="#FEFFDD" style="stroke:#181818;stroke-width:0.5;"/><text fill="#000000" font-family="sans-serif" font-size="13" lengthAdjust="spacing" textLength="112" x="1741.5" y="460.4345">must be in the past</text></g><!--class Gender--><g id="elem_Gender"><rect codeLine="115" fill="#F1F1F1" height="65.6094" id="Gender" rx="2.5" ry="2.5" style="stroke:#181818;stroke-width:0.5;" width="112" x="1029" y="421.9394"/><ellipse cx="1058.4" cy="437.9394" fill="#EB937F" rx="11" ry="11" style="stroke:#181818;stroke-width:1.0;"/><path d="M1057.2594,438.7363 L1057.2594,441.2363 L1061.5875,441.2363 L1061.5875,440.3144 Q1061.5875,439.705 1061.8219,439.4394 Q1062.0719,439.1738 1062.4469,439.1738 Q1062.8219,439.1738 1063.0563,439.4394 Q1063.2906,439.705 1063.2906,440.3144 L1063.2906,442.9394 L1055.2906,442.9394 Q1054.6656,442.9394 1054.4,442.705 Q1054.15,442.4706 1054.15,442.08 Q1054.15,441.705 1054.4156,441.4706 Q1054.6813,441.2363 1055.2906,441.2363 L1055.5563,441.2363 L1055.5563,434.58 L1055.2906,434.58 Q1054.6656,434.58 1054.4,434.3456 Q1054.15,434.1113 1054.15,433.7206 Q1054.15,433.3456 1054.4,433.1113 Q1054.6656,432.8769 1055.2906,432.8769 L1062.9156,432.8769 L1062.9156,435.4706 Q1062.9156,436.08 1062.6813,436.3456 Q1062.4625,436.5956 1062.0719,436.5956 Q1061.6969,436.5956 1061.4625,436.3456 Q1061.2281,436.08 1061.2281,435.4706 L1061.2281,434.58 L1057.2594,434.58 L1057.2594,437.0331 L1058.7438,437.0331 Q1058.7438,436.3769 1058.8688,436.1894 Q1059.1344,435.7831 1059.6031,435.7831 Q1059.9781,435.7831 1060.2125,436.0488 Q1060.4469,436.2988 1060.4469,436.9081 L1060.4469,438.8769 Q1060.4469,439.4238 1060.3219,439.6113 Q1060.0563,440.0019 1059.6031,440.0019 Q1059.1344,440.0019 1058.8688,439.5956 Q1058.7438,439.4081 1058.7438,438.7363 L1057.2594,438.7363 Z " fill="#000000"/><text fill="#000000" font-family="sans-serif" font-size="14" lengthAdjust="spacing" textLength="48" x="1075.6" y="443.6679">Gender</text><line style="stroke:#181818;stroke-width:0.5;" x1="1030" x2="1140" y1="453.9394" y2="453.9394"/><text fill="#000000" font-family="sans-serif" font-size="14" lengthAdjust="spacing" textLength="100" x="1035" y="472.4726">MALE, FEMALE</text><line style="stroke:#181818;stroke-width:0.5;" x1="1030" x2="1140" y1="479.5488" y2="479.5488"/></g><!--class MedicalRecordNumber--><g id="elem_MedicalRecordNumber"><rect codeLine="119" fill="#F1F1F1" height="65.6094" id="MedicalRecordNumber" rx="2.5" ry="2.5" style="stroke:#181818;stroke-width:0.5;" width="175" x="1903.5" y="421.9394"/><ellipse cx="1918.5" cy="437.9394" fill="#ADD1B2" rx="11" ry="11" style="stroke:#181818;stroke-width:1.0;"/><path d="M1921.2656,433.8144 Q1921.4219,433.5956 1921.6094,433.4863 Q1921.7969,433.3769 1922.0156,433.3769 Q1922.3906,433.3769 1922.625,433.6425 Q1922.8594,433.8925 1922.8594,434.5019 L1922.8594,435.955 Q1922.8594,436.5644 1922.625,436.83 Q1922.3906,437.0956 1922.0156,437.0956 Q1921.6719,437.0956 1921.4688,436.8925 Q1921.2656,436.705 1921.1563,436.1894 Q1921.1094,435.83 1920.9219,435.6425 Q1920.5938,435.2675 1919.9844,435.0488 Q1919.375,434.83 1918.75,434.83 Q1917.9844,434.83 1917.3438,435.1581 Q1916.7188,435.4863 1916.2188,436.2363 Q1915.7344,436.9863 1915.7344,438.0175 L1915.7344,439.1113 Q1915.7344,440.3456 1916.625,441.1738 Q1917.5156,441.9863 1919.1094,441.9863 Q1920.0469,441.9863 1920.7031,441.7363 Q1921.0938,441.58 1921.5156,441.1425 Q1921.7813,440.8769 1921.9219,440.7988 Q1922.0781,440.7206 1922.2813,440.7206 Q1922.6094,440.7206 1922.8594,440.9863 Q1923.125,441.2363 1923.125,441.58 Q1923.125,441.9238 1922.7813,442.33 Q1922.2813,442.9081 1921.4844,443.2363 Q1920.4063,443.6894 1919.1094,443.6894 Q1917.5938,443.6894 1916.3906,443.0644 Q1915.4063,442.5644 1914.7188,441.5019 Q1914.0313,440.4238 1914.0313,439.1425 L1914.0313,437.9863 Q1914.0313,436.6581 1914.6406,435.5175 Q1915.2656,434.3613 1916.3594,433.7519 Q1917.4531,433.1269 1918.6875,433.1269 Q1919.4219,433.1269 1920.0625,433.2988 Q1920.7188,433.455 1921.2656,433.8144 Z " fill="#000000"/><text fill="#000000" font-family="sans-serif" font-size="14" lengthAdjust="spacing" textLength="143" x="1932.5" y="443.6679">MedicalRecordNumber</text><line style="stroke:#181818;stroke-width:0.5;" x1="1904.5" x2="2077.5" y1="453.9394" y2="453.9394"/><text fill="#000000" font-family="sans-serif" font-size="14" lengthAdjust="spacing" textLength="87" x="1909.5" y="472.4726">+value: String</text><line style="stroke:#181818;stroke-width:0.5;" x1="1904.5" x2="2077.5" y1="479.5488" y2="479.5488"/></g><g id="elem_GMN31"><path d="M2114,441.9394 L2114,450.9394 L2078.72,454.9394 L2114,458.9394 L2114,468.2909 A0,0 0 0 0 2114,468.2909 L2626,468.2909 A0,0 0 0 0 2626,468.2909 L2626,451.9394 L2616,441.9394 L2114,441.9394 A0,0 0 0 0 2114,441.9394 " fill="#FEFFDD" style="stroke:#181818;stroke-width:0.5;"/><path d="M2616,441.9394 L2616,451.9394 L2626,451.9394 L2616,441.9394 " fill="#FEFFDD" style="stroke:#181818;stroke-width:0.5;"/><text fill="#000000" font-family="sans-serif" font-size="13" lengthAdjust="spacing" textLength="491" x="2120" y="460.4345">format - YYYYMMnnnnnn (YYYY = year, MM = month, nnnnnn = sequential number)</text></g><!--class ContactInformation--><g id="elem_ContactInformation"><rect codeLine="124" fill="#F1F1F1" height="83.2188" id="ContactInformation" rx="2.5" ry="2.5" style="stroke:#181818;stroke-width:0.5;" width="208" x="1351" y="413.4394"/><ellipse cx="1391.65" cy="429.4394" fill="#ADD1B2" rx="11" ry="11" style="stroke:#181818;stroke-width:1.0;"/><path d="M1394.4156,425.3144 Q1394.5719,425.0956 1394.7594,424.9863 Q1394.9469,424.8769 1395.1656,424.8769 Q1395.5406,424.8769 1395.775,425.1425 Q1396.0094,425.3925 1396.0094,426.0019 L1396.0094,427.455 Q1396.0094,428.0644 1395.775,428.33 Q1395.5406,428.5956 1395.1656,428.5956 Q1394.8219,428.5956 1394.6188,428.3925 Q1394.4156,428.205 1394.3063,427.6894 Q1394.2594,427.33 1394.0719,427.1425 Q1393.7438,426.7675 1393.1344,426.5488 Q1392.525,426.33 1391.9,426.33 Q1391.1344,426.33 1390.4938,426.6581 Q1389.8688,426.9863 1389.3688,427.7363 Q1388.8844,428.4863 1388.8844,429.5175 L1388.8844,430.6113 Q1388.8844,431.8456 1389.775,432.6738 Q1390.6656,433.4863 1392.2594,433.4863 Q1393.1969,433.4863 1393.8531,433.2363 Q1394.2438,433.08 1394.6656,432.6425 Q1394.9313,432.3769 1395.0719,432.2988 Q1395.2281,432.2206 1395.4313,432.2206 Q1395.7594,432.2206 1396.0094,432.4863 Q1396.275,432.7363 1396.275,433.08 Q1396.275,433.4238 1395.9313,433.83 Q1395.4313,434.4081 1394.6344,434.7363 Q1393.5563,435.1894 1392.2594,435.1894 Q1390.7438,435.1894 1389.5406,434.5644 Q1388.5563,434.0644 1387.8688,433.0019 Q1387.1813,431.9238 1387.1813,430.6425 L1387.1813,429.4863 Q1387.1813,428.1581 1387.7906,427.0175 Q1388.4156,425.8613 1389.5094,425.2519 Q1390.6031,424.6269 1391.8375,424.6269 Q1392.5719,424.6269 1393.2125,424.7988 Q1393.8688,424.955 1394.4156,425.3144 Z " fill="#000000"/><text fill="#000000" font-family="sans-serif" font-size="14" lengthAdjust="spacing" textLength="119" x="1411.35" y="435.1679">ContactInformation</text><line style="stroke:#181818;stroke-width:0.5;" x1="1352" x2="1558" y1="445.4394" y2="445.4394"/><text fill="#000000" font-family="sans-serif" font-size="14" lengthAdjust="spacing" textLength="196" x="1357" y="463.9726">+PhoneNumber: PhoneNumber</text><text fill="#000000" font-family="sans-serif" font-size="14" lengthAdjust="spacing" textLength="84" x="1357" y="481.582">+Email: Email</text><line style="stroke:#181818;stroke-width:0.5;" x1="1352" x2="1558" y1="488.6581" y2="488.6581"/></g><!--class PhoneNumber--><g id="elem_PhoneNumber"><rect codeLine="129" fill="#F1F1F1" height="100.8281" id="PhoneNumber" rx="2.5" ry="2.5" style="stroke:#181818;stroke-width:0.5;" width="196" x="792" y="618.4394"/><ellipse cx="840.75" cy="634.4394" fill="#ADD1B2" rx="11" ry="11" style="stroke:#181818;stroke-width:1.0;"/><path d="M843.5156,630.3144 Q843.6719,630.0956 843.8594,629.9863 Q844.0469,629.8769 844.2656,629.8769 Q844.6406,629.8769 844.875,630.1425 Q845.1094,630.3925 845.1094,631.0019 L845.1094,632.455 Q845.1094,633.0644 844.875,633.33 Q844.6406,633.5956 844.2656,633.5956 Q843.9219,633.5956 843.7188,633.3925 Q843.5156,633.205 843.4063,632.6894 Q843.3594,632.33 843.1719,632.1425 Q842.8438,631.7675 842.2344,631.5488 Q841.625,631.33 841,631.33 Q840.2344,631.33 839.5938,631.6581 Q838.9688,631.9863 838.4688,632.7363 Q837.9844,633.4863 837.9844,634.5175 L837.9844,635.6113 Q837.9844,636.8456 838.875,637.6738 Q839.7656,638.4863 841.3594,638.4863 Q842.2969,638.4863 842.9531,638.2363 Q843.3438,638.08 843.7656,637.6425 Q844.0313,637.3769 844.1719,637.2988 Q844.3281,637.2206 844.5313,637.2206 Q844.8594,637.2206 845.1094,637.4863 Q845.375,637.7363 845.375,638.08 Q845.375,638.4238 845.0313,638.83 Q844.5313,639.4081 843.7344,639.7363 Q842.6563,640.1894 841.3594,640.1894 Q839.8438,640.1894 838.6406,639.5644 Q837.6563,639.0644 836.9688,638.0019 Q836.2813,636.9238 836.2813,635.6425 L836.2813,634.4863 Q836.2813,633.1581 836.8906,632.0175 Q837.5156,630.8613 838.6094,630.2519 Q839.7031,629.6269 840.9375,629.6269 Q841.6719,629.6269 842.3125,629.7988 Q842.9688,629.955 843.5156,630.3144 Z " fill="#000000"/><text fill="#000000" font-family="sans-serif" font-size="14" lengthAdjust="spacing" textLength="90" x="861.25" y="640.1679">PhoneNumber</text><line style="stroke:#181818;stroke-width:0.5;" x1="793" x2="987" y1="650.4394" y2="650.4394"/><text fill="#000000" font-family="sans-serif" font-size="14" lengthAdjust="spacing" textLength="89" x="798" y="668.9726">+Value: String</text><text fill="#000000" font-family="sans-serif" font-size="14" lengthAdjust="spacing" textLength="184" x="798" y="686.582">+CountryCode: CountryCode</text><text fill="#000000" font-family="sans-serif" font-size="14" lengthAdjust="spacing" textLength="80" x="798" y="704.1913">+Number: int</text><line style="stroke:#181818;stroke-width:0.5;" x1="793" x2="987" y1="711.2675" y2="711.2675"/></g><g id="elem_GMN36"><path d="M1023.5,655.9394 L1023.5,664.9394 L988.43,668.9394 L1023.5,672.9394 L1023.5,682.2909 A0,0 0 0 0 1023.5,682.2909 L1664.5,682.2909 A0,0 0 0 0 1664.5,682.2909 L1664.5,665.9394 L1654.5,655.9394 L1023.5,655.9394 A0,0 0 0 0 1023.5,655.9394 " fill="#FEFFDD" style="stroke:#181818;stroke-width:0.5;"/><path d="M1654.5,655.9394 L1654.5,665.9394 L1664.5,665.9394 L1654.5,655.9394 " fill="#FEFFDD" style="stroke:#181818;stroke-width:0.5;"/><text fill="#000000" font-family="sans-serif" font-size="13" lengthAdjust="spacing" textLength="620" x="1029.5" y="674.4345">format - +CCC NNNNNNNNN (CCC = country code, NNNNNNNNN = phone number - integer greater than 0)</text></g><!--class CountryCode--><g id="elem_CountryCode"><rect codeLine="136" fill="#F1F1F1" height="65.6094" id="CountryCode" rx="2.5" ry="2.5" style="stroke:#181818;stroke-width:0.5;" width="116" x="832" y="814.9394"/><ellipse cx="847" cy="830.9394" fill="#ADD1B2" rx="11" ry="11" style="stroke:#181818;stroke-width:1.0;"/><path d="M849.7656,826.8144 Q849.9219,826.5956 850.1094,826.4863 Q850.2969,826.3769 850.5156,826.3769 Q850.8906,826.3769 851.125,826.6425 Q851.3594,826.8925 851.3594,827.5019 L851.3594,828.955 Q851.3594,829.5644 851.125,829.83 Q850.8906,830.0956 850.5156,830.0956 Q850.1719,830.0956 849.9688,829.8925 Q849.7656,829.705 849.6563,829.1894 Q849.6094,828.83 849.4219,828.6425 Q849.0938,828.2675 848.4844,828.0488 Q847.875,827.83 847.25,827.83 Q846.4844,827.83 845.8438,828.1581 Q845.2188,828.4863 844.7188,829.2363 Q844.2344,829.9863 844.2344,831.0175 L844.2344,832.1113 Q844.2344,833.3456 845.125,834.1738 Q846.0156,834.9863 847.6094,834.9863 Q848.5469,834.9863 849.2031,834.7363 Q849.5938,834.58 850.0156,834.1425 Q850.2813,833.8769 850.4219,833.7988 Q850.5781,833.7206 850.7813,833.7206 Q851.1094,833.7206 851.3594,833.9863 Q851.625,834.2363 851.625,834.58 Q851.625,834.9238 851.2813,835.33 Q850.7813,835.9081 849.9844,836.2363 Q848.9063,836.6894 847.6094,836.6894 Q846.0938,836.6894 844.8906,836.0644 Q843.9063,835.5644 843.2188,834.5019 Q842.5313,833.4238 842.5313,832.1425 L842.5313,830.9863 Q842.5313,829.6581 843.1406,828.5175 Q843.7656,827.3613 844.8594,826.7519 Q845.9531,826.1269 847.1875,826.1269 Q847.9219,826.1269 848.5625,826.2988 Q849.2188,826.455 849.7656,826.8144 Z " fill="#000000"/><text fill="#000000" font-family="sans-serif" font-size="14" lengthAdjust="spacing" textLength="84" x="861" y="836.6679">CountryCode</text><line style="stroke:#181818;stroke-width:0.5;" x1="833" x2="947" y1="846.9394" y2="846.9394"/><text fill="#000000" font-family="sans-serif" font-size="14" lengthAdjust="spacing" textLength="87" x="838" y="865.4726">+Code: String</text><line style="stroke:#181818;stroke-width:0.5;" x1="833" x2="947" y1="872.5488" y2="872.5488"/></g><!--class EmergencyContact--><g id="elem_EmergencyContact"><rect codeLine="140" fill="#F1F1F1" height="65.6094" id="EmergencyContact" rx="2.5" ry="2.5" style="stroke:#181818;stroke-width:0.5;" width="208" x="786" y="421.9394"/><ellipse cx="826.2" cy="437.9394" fill="#ADD1B2" rx="11" ry="11" style="stroke:#181818;stroke-width:1.0;"/><path d="M828.9656,433.8144 Q829.1219,433.5956 829.3094,433.4863 Q829.4969,433.3769 829.7156,433.3769 Q830.0906,433.3769 830.325,433.6425 Q830.5594,433.8925 830.5594,434.5019 L830.5594,435.955 Q830.5594,436.5644 830.325,436.83 Q830.0906,437.0956 829.7156,437.0956 Q829.3719,437.0956 829.1688,436.8925 Q828.9656,436.705 828.8563,436.1894 Q828.8094,435.83 828.6219,435.6425 Q828.2938,435.2675 827.6844,435.0488 Q827.075,434.83 826.45,434.83 Q825.6844,434.83 825.0438,435.1581 Q824.4188,435.4863 823.9188,436.2363 Q823.4344,436.9863 823.4344,438.0175 L823.4344,439.1113 Q823.4344,440.3456 824.325,441.1738 Q825.2156,441.9863 826.8094,441.9863 Q827.7469,441.9863 828.4031,441.7363 Q828.7938,441.58 829.2156,441.1425 Q829.4813,440.8769 829.6219,440.7988 Q829.7781,440.7206 829.9813,440.7206 Q830.3094,440.7206 830.5594,440.9863 Q830.825,441.2363 830.825,441.58 Q830.825,441.9238 830.4813,442.33 Q829.9813,442.9081 829.1844,443.2363 Q828.1063,443.6894 826.8094,443.6894 Q825.2938,443.6894 824.0906,443.0644 Q823.1063,442.5644 822.4188,441.5019 Q821.7313,440.4238 821.7313,439.1425 L821.7313,437.9863 Q821.7313,436.6581 822.3406,435.5175 Q822.9656,434.3613 824.0594,433.7519 Q825.1531,433.1269 826.3875,433.1269 Q827.1219,433.1269 827.7625,433.2988 Q828.4188,433.455 828.9656,433.8144 Z " fill="#000000"/><text fill="#000000" font-family="sans-serif" font-size="14" lengthAdjust="spacing" textLength="120" x="845.8" y="443.6679">EmergencyContact</text><line style="stroke:#181818;stroke-width:0.5;" x1="787" x2="993" y1="453.9394" y2="453.9394"/><text fill="#000000" font-family="sans-serif" font-size="14" lengthAdjust="spacing" textLength="196" x="792" y="472.4726">+PhoneNumber: PhoneNumber</text><line style="stroke:#181818;stroke-width:0.5;" x1="787" x2="993" y1="479.5488" y2="479.5488"/></g><!--class MedicalCondition--><g id="elem_MedicalCondition"><rect fill="#F1F1F1" height="48" id="MedicalCondition" rx="2.5" ry="2.5" style="stroke:#181818;stroke-width:0.5;" width="140" x="1176" y="430.9394"/><ellipse cx="1191" cy="446.9394" fill="#ADD1B2" rx="11" ry="11" style="stroke:#181818;stroke-width:1.0;"/><path d="M1193.7656,442.8144 Q1193.9219,442.5956 1194.1094,442.4863 Q1194.2969,442.3769 1194.5156,442.3769 Q1194.8906,442.3769 1195.125,442.6425 Q1195.3594,442.8925 1195.3594,443.5019 L1195.3594,444.955 Q1195.3594,445.5644 1195.125,445.83 Q1194.8906,446.0956 1194.5156,446.0956 Q1194.1719,446.0956 1193.9688,445.8925 Q1193.7656,445.705 1193.6563,445.1894 Q1193.6094,444.83 1193.4219,444.6425 Q1193.0938,444.2675 1192.4844,444.0488 Q1191.875,443.83 1191.25,443.83 Q1190.4844,443.83 1189.8438,444.1581 Q1189.2188,444.4863 1188.7188,445.2363 Q1188.2344,445.9863 1188.2344,447.0175 L1188.2344,448.1113 Q1188.2344,449.3456 1189.125,450.1738 Q1190.0156,450.9863 1191.6094,450.9863 Q1192.5469,450.9863 1193.2031,450.7363 Q1193.5938,450.58 1194.0156,450.1425 Q1194.2813,449.8769 1194.4219,449.7988 Q1194.5781,449.7206 1194.7813,449.7206 Q1195.1094,449.7206 1195.3594,449.9863 Q1195.625,450.2363 1195.625,450.58 Q1195.625,450.9238 1195.2813,451.33 Q1194.7813,451.9081 1193.9844,452.2363 Q1192.9063,452.6894 1191.6094,452.6894 Q1190.0938,452.6894 1188.8906,452.0644 Q1187.9063,451.5644 1187.2188,450.5019 Q1186.5313,449.4238 1186.5313,448.1425 L1186.5313,446.9863 Q1186.5313,445.6581 1187.1406,444.5175 Q1187.7656,443.3613 1188.8594,442.7519 Q1189.9531,442.1269 1191.1875,442.1269 Q1191.9219,442.1269 1192.5625,442.2988 Q1193.2188,442.455 1193.7656,442.8144 Z " fill="#000000"/><text fill="#000000" font-family="sans-serif" font-size="14" lengthAdjust="spacing" textLength="108" x="1205" y="452.6679">MedicalCondition</text><line style="stroke:#181818;stroke-width:0.5;" x1="1177" x2="1315" y1="462.9394" y2="462.9394"/><line style="stroke:#181818;stroke-width:0.5;" x1="1177" x2="1315" y1="470.9394" y2="470.9394"/></g><!--link UserController to UserService--><g id="link_UserController_UserService"><path codeLine="148" d="M415.71,205.9394 C441.25,205.9394 461.4,205.9394 486.98,205.9394 " fill="none" id="UserController-to-UserService" style="stroke:#181818;stroke-width:1.0;stroke-dasharray:7.0,7.0;"/><polygon fill="#181818" points="492.98,205.9394,483.98,201.9394,487.98,205.9394,483.98,209.9394,492.98,205.9394" style="stroke:#181818;stroke-width:1.0;"/><polygon fill="#000000" points="442.75,194.1152,433.7049,191.1762,433.7049,197.0541,442.75,194.1152" style="stroke:#000000;stroke-width:1.0;"/><text fill="#000000" font-family="sans-serif" font-size="13" lengthAdjust="spacing" textLength="28" x="446.75" y="199.4345">uses</text></g><!--link UserController to CreatingUserDto--><g id="link_UserController_CreatingUserDto"><path codeLine="150" d="M222.74,247.5894 C231.21,278.0794 243.91,320.6294 258,356.9394 C264.07,372.5794 268.9769,383.7939 276.1269,398.7839 " fill="none" id="UserController-to-CreatingUserDto" style="stroke:#181818;stroke-width:1.0;"/><polygon fill="#181818" points="278.71,404.1994,278.4457,394.3541,276.5574,399.6865,271.225,397.7982,278.71,404.1994" style="stroke:#181818;stroke-width:1.0;"/><polygon fill="#000000" points="264.6648,352.8299,264.4244,343.3223,258.8819,345.2794,264.6648,352.8299" style="stroke:#000000;stroke-width:1.0;"/><text fill="#000000" font-family="sans-serif" font-size="13" lengthAdjust="spacing" textLength="47" x="272" y="353.4345">receives</text></g><!--link UserController to UserDto--><g id="link_UserController_UserDto"><path codeLine="151" d="M191.99,247.4494 C170.83,290.2894 140.0871,352.5398 117.3171,398.6398 " fill="none" id="UserController-to-UserDto" style="stroke:#181818;stroke-width:1.0;"/><polygon fill="#181818" points="114.66,404.0194,122.232,397.7214,116.8743,399.5364,115.0593,394.1786,114.66,404.0194" style="stroke:#181818;stroke-width:1.0;"/><polygon fill="#000000" points="146.7858,352.5982,153.4263,345.7898,148.1562,343.1869,146.7858,352.5982" style="stroke:#000000;stroke-width:1.0;"/><text fill="#000000" font-family="sans-serif" font-size="13" lengthAdjust="spacing" textLength="40" x="158" y="353.4345">returns</text></g><!--link UserService to UserRepository--><g id="link_UserService_UserRepository"><path codeLine="153" d="M826.3,146.8994 C869.42,129.5494 918.46,112.6394 965,102.9394 C1244.76,44.6094 1323.62,45.0794 1607.5,77.9394 C1748.58,94.2694 1900.3945,131.9836 2009.7745,162.7736 " fill="none" id="UserService-to-UserRepository" style="stroke:#181818;stroke-width:1.0;"/><polygon fill="#181818" points="2015.55,164.3994,2007.9706,158.1103,2010.7371,163.0446,2005.8028,165.811,2015.55,164.3994" style="stroke:#181818;stroke-width:1.0;"/><polygon fill="#000000" points="1574.4996,64.1822,1565.4947,61.1222,1565.4159,66.9996,1574.4996,64.1822" style="stroke:#000000;stroke-width:1.0;"/><text fill="#000000" font-family="sans-serif" font-size="13" lengthAdjust="spacing" textLength="28" x="1578.5" y="69.4345">uses</text></g><!--link UserService to PatientRepository--><g id="link_UserService_PatientRepository"><path codeLine="154" d="M905.3,205.9394 C931.19,205.9394 951.34,205.9394 976.32,205.9394 " fill="none" id="UserService-to-PatientRepository" style="stroke:#181818;stroke-width:1.0;"/><polygon fill="#181818" points="982.32,205.9394,973.32,201.9394,977.32,205.9394,973.32,209.9394,982.32,205.9394" style="stroke:#181818;stroke-width:1.0;"/><polygon fill="#000000" points="932.25,194.1152,923.2049,191.1762,923.2049,197.0541,932.25,194.1152" style="stroke:#000000;stroke-width:1.0;"/><text fill="#000000" font-family="sans-serif" font-size="13" lengthAdjust="spacing" textLength="28" x="936.25" y="199.4345">uses</text></g><!--link UserService to CreatingUserDto--><g id="link_UserService_CreatingUserDto"><path codeLine="155" d="M605.89,265.1594 C538.26,307.4494 452.8073,360.8882 388.5673,401.0582 " fill="none" id="UserService-to-CreatingUserDto" style="stroke:#181818;stroke-width:1.0;"/><polygon fill="#181818" points="383.48,404.2394,393.2317,402.8592,387.7194,401.5884,388.9902,396.0762,383.48,404.2394" style="stroke:#181818;stroke-width:1.0;"/><polygon fill="#000000" points="478.7606,350.7662,487.9879,348.4623,484.8715,343.4786,478.7606,350.7662" style="stroke:#000000;stroke-width:1.0;"/><text fill="#000000" font-family="sans-serif" font-size="13" lengthAdjust="spacing" textLength="47" x="492" y="353.4345">receives</text></g><!--link UserService to User--><g id="link_UserService_User"><path codeLine="156" d="M828.25,265.0594 C870.98,281.9494 919.29,298.5994 965,308.9394 C1130.68,346.3994 1178.19,312.6194 1346,338.9394 C1380.29,344.3194 1387.57,352.4894 1422,356.9394 C1556.7,374.3494 2514.55,345.8394 2644,386.9394 C2649.68,388.7394 2649.8762,388.4681 2655.4362,391.0181 " fill="none" id="UserService-to-User" style="stroke:#181818;stroke-width:1.0;"/><polygon fill="#181818" points="2660.89,393.5194,2654.3769,386.1316,2656.3452,391.435,2651.0418,393.4033,2660.89,393.5194" style="stroke:#181818;stroke-width:1.0;"/><polygon fill="#000000" points="1431.9882,348.459,1423.1666,344.905,1422.7624,350.7689,1431.9882,348.459" style="stroke:#000000;stroke-width:1.0;"/><text fill="#000000" font-family="sans-serif" font-size="13" lengthAdjust="spacing" textLength="43" x="1436" y="353.4345">creates</text></g><!--link UserService to UserDto--><g id="link_UserService_UserDto"><path codeLine="157" d="M568.53,265.1194 C497.27,295.3594 406.89,331.2694 324,356.9394 C265.7,374.9994 246.09,362.8794 190,386.9394 C178.86,391.7194 172.7658,394.6508 162.0658,401.1608 " fill="none" id="UserService-to-UserDto" style="stroke:#181818;stroke-width:1.0;"/><polygon fill="#181818" points="156.94,404.2794,166.7078,403.0187,161.2115,401.6805,162.5497,396.1842,156.94,404.2794" style="stroke:#181818;stroke-width:1.0;"/><polygon fill="#000000" points="377.2585,349.7021,386.7687,349.6183,384.9032,344.0443,377.2585,349.7021" style="stroke:#000000;stroke-width:1.0;"/><text fill="#000000" font-family="sans-serif" font-size="13" lengthAdjust="spacing" textLength="40" x="391" y="353.4345">returns</text></g><!--link UserRepository to IUserRepository--><g id="link_UserRepository_IUserRepository"><path codeLine="159" d="M2208.11,247.6694 C2240.73,269.5994 2283.8,294.9494 2326,308.9394 C2443.96,348.0494 2480.52,324.9394 2604,338.9394 C2783.67,359.3094 2832.57,343.1094 3008,386.9394 C3034.74,393.6194 3057.3308,401.1873 3082.9708,411.1973 " fill="none" id="UserRepository-to-IUserRepository" style="stroke:#181818;stroke-width:1.0;"/><polygon fill="#181818" points="3088.56,413.3794,3081.631,406.3802,3083.9024,411.561,3078.7216,413.8324,3088.56,413.3794" style="stroke:#181818;stroke-width:1.0;"/><polygon fill="#000000" points="2843.9149,349.0338,2835.5638,344.483,2834.4838,350.2608,2843.9149,349.0338" style="stroke:#000000;stroke-width:1.0;"/><text fill="#000000" font-family="sans-serif" font-size="13" lengthAdjust="spacing" textLength="67" x="2848" y="353.4345">implements</text></g><!--link UserRepository to User--><g id="link_UserRepository_User"><path codeLine="160" d="M2212.01,247.5794 C2244.45,268.3894 2286.12,292.6994 2326,308.9394 C2460.78,363.8094 2510.85,328.2094 2644,386.9394 C2649.64,389.4294 2650.0269,389.3853 2655.6369,392.4053 " fill="none" id="UserRepository-to-User" style="stroke:#181818;stroke-width:1.0;"/><polygon fill="#181818" points="2660.92,395.2494,2654.8913,387.4612,2656.5174,392.8793,2651.0993,394.5054,2660.92,395.2494" style="stroke:#181818;stroke-width:1.0;"/><polygon fill="#000000" points="2557.7531,349.6669,2550.0667,344.066,2548.2426,349.6536,2557.7531,349.6669" style="stroke:#000000;stroke-width:1.0;"/><text fill="#000000" font-family="sans-serif" font-size="13" lengthAdjust="spacing" textLength="33" x="2562" y="353.4345">saves</text></g><!--link PatientRepository to IPatientRepository--><g id="link_PatientRepository_IPatientRepository"><path codeLine="162" d="M1077.9,239.0794 C1035.07,260.5094 976.43,288.4094 923,308.9394 C880.08,325.4294 866.73,321.9694 824,338.9394 C763.21,363.0794 701.9128,394.2447 655.9128,419.0147 " fill="none" id="PatientRepository-to-IPatientRepository" style="stroke:#181818;stroke-width:1.0;"/><polygon fill="#181818" points="650.63,421.8594,660.4506,421.1142,655.0323,419.4888,656.6577,414.0705,650.63,421.8594" style="stroke:#181818;stroke-width:1.0;"/><polygon fill="#000000" points="824.4007,350.0763,833.8737,349.232,831.5682,343.8251,824.4007,350.0763" style="stroke:#000000;stroke-width:1.0;"/><text fill="#000000" font-family="sans-serif" font-size="13" lengthAdjust="spacing" textLength="67" x="838" y="353.4345">implements</text></g><!--link PatientRepository to Patient--><g id="link_PatientRepository_Patient"><path codeLine="163" d="M1297.76,205.9394 C1324.81,205.9394 1346.9,205.9394 1373.93,205.9394 " fill="none" id="PatientRepository-to-Patient" style="stroke:#181818;stroke-width:1.0;"/><polygon fill="#181818" points="1379.93,205.9394,1370.93,201.9394,1374.93,205.9394,1370.93,209.9394,1379.93,205.9394" style="stroke:#181818;stroke-width:1.0;"/><polygon fill="#000000" points="1324.75,194.1152,1315.7049,191.1762,1315.7049,197.0541,1324.75,194.1152" style="stroke:#000000;stroke-width:1.0;"/><text fill="#000000" font-family="sans-serif" font-size="13" lengthAdjust="spacing" textLength="33" x="1328.75" y="199.4345">saves</text></g><!--link CreatingUserDto to Email--><g id="link_CreatingUserDto_Email"><path codeLine="165" d="M376.38,505.5294 C389.72,512.5794 403.89,518.8294 418,522.9394 C596.04,574.8394 1067.05,539.3094 1252,552.9394 C1347.89,560.0094 1594.08,562.0094 1682,600.9394 C1700.01,608.9194 1712.5383,618.526 1725.7383,631.546 " fill="none" id="CreatingUserDto-to-Email" style="stroke:#181818;stroke-width:1.0;"/><polygon fill="#181818" points="1730.01,635.7594,1726.4114,626.5915,1726.4503,632.2482,1720.7936,632.287,1730.01,635.7594" style="stroke:#181818;stroke-width:1.0;"/><polygon fill="#000000" points="1539.9783,562.5801,1531.2457,558.8128,1530.6992,564.6652,1539.9783,562.5801" style="stroke:#000000;stroke-width:1.0;"/><text fill="#000000" font-family="sans-serif" font-size="13" lengthAdjust="spacing" textLength="21" x="1544" y="567.4345">has</text></g><!--link Patient to User--><g id="link_Patient_User"><path codeLine="167" d="M1694.03,256.4894 C1809.73,290.7894 1971.59,334.2194 2117,356.9394 C2232.89,375.0494 2532.79,349.6394 2644,386.9394 C2649.65,388.8294 2649.8447,388.5983 2655.3847,391.1883 " fill="none" id="Patient-to-User" style="stroke:#181818;stroke-width:1.0;"/><polygon fill="#181818" points="2660.82,393.7294,2654.361,386.2942,2656.2905,391.6118,2650.9729,393.5413,2660.82,393.7294" style="stroke:#181818;stroke-width:1.0;"/><polygon fill="#000000" points="2126.9516,348.8089,2118.4018,344.6434,2117.5862,350.4644,2126.9516,348.8089" style="stroke:#000000;stroke-width:1.0;"/><text fill="#000000" font-family="sans-serif" font-size="13" lengthAdjust="spacing" textLength="91" x="2131" y="353.4345">creates his own</text><text fill="#000000" font-family="sans-serif" font-size="13" lengthAdjust="spacing" textLength="7" x="1701.8057" y="256.0423">1</text><text fill="#000000" font-family="sans-serif" font-size="13" lengthAdjust="spacing" textLength="7" x="2646.1001" y="385.074">1</text></g><!--link Patient to FullName--><g id="link_Patient_FullName"><path codeLine="169" d="M1694.12,247.4294 C1778.68,268.1094 1885.04,292.3394 1981,308.9394 C2003.54,312.8394 2367.22,354.8494 2390,356.9394 C2490.91,366.1794 2750.84,349.4994 2845,386.9394 C2860.09,392.9394 2869.8887,399.0067 2882.2387,409.3967 " fill="none" id="Patient-to-FullName" style="stroke:#181818;stroke-width:1.0;"/><polygon fill="#181818" points="2886.83,413.2594,2882.5181,404.4046,2883.0039,410.0405,2877.368,410.5263,2886.83,413.2594" style="stroke:#181818;stroke-width:1.0;"/><polygon fill="#000000" points="2399.9542,348.7905,2391.389,344.6568,2390.595,350.4808,2399.9542,348.7905" style="stroke:#000000;stroke-width:1.0;"/><text fill="#000000" font-family="sans-serif" font-size="13" lengthAdjust="spacing" textLength="21" x="2404" y="353.4345">has</text><text fill="#000000" font-family="sans-serif" font-size="13" lengthAdjust="spacing" textLength="7" x="1701.9" y="246.5434">1</text><text fill="#000000" font-family="sans-serif" font-size="13" lengthAdjust="spacing" textLength="7" x="2872.7628" y="402.5372">1</text></g><!--link Patient to DateOfBirth--><g id="link_Patient_DateOfBirth"><path codeLine="170" d="M1582.54,309.1894 C1600.56,349.6694 1617.5489,387.8084 1630.3089,416.4584 " fill="none" id="Patient-to-DateOfBirth" style="stroke:#181818;stroke-width:1.0;"/><polygon fill="#181818" points="1632.75,421.9394,1632.7423,412.0905,1630.7158,417.3719,1625.4344,415.3453,1632.75,421.9394" style="stroke:#181818;stroke-width:1.0;"/><polygon fill="#000000" points="1608.034,352.6827,1607.0392,343.2243,1601.6697,345.6155,1608.034,352.6827" style="stroke:#000000;stroke-width:1.0;"/><text fill="#000000" font-family="sans-serif" font-size="13" lengthAdjust="spacing" textLength="21" x="1615" y="353.4345">has</text><text fill="#000000" font-family="sans-serif" font-size="13" lengthAdjust="spacing" textLength="7" x="1578.6273" y="330.8495">1</text><text fill="#000000" font-family="sans-serif" font-size="13" lengthAdjust="spacing" textLength="7" x="1622.0891" y="411.0548">1</text></g><!--link Patient to Gender--><g id="link_Patient_Gender"><path codeLine="171" d="M1379.75,282.0394 C1358.17,291.5094 1336.16,300.7394 1315,308.9394 C1274.11,324.7894 1259.82,318.5394 1221,338.9394 C1190.15,355.1494 1185.71,364.5594 1159,386.9394 C1145.85,397.9594 1136.2313,406.4242 1123.9513,417.6342 " fill="none" id="Patient-to-Gender" style="stroke:#181818;stroke-width:1.0;"/><polygon fill="#181818" points="1119.52,421.6794,1128.8637,418.5658,1123.2128,418.3084,1123.4702,412.6574,1119.52,421.6794" style="stroke:#181818;stroke-width:1.0;"/><polygon fill="#000000" points="1221.5823,350.4569,1230.9505,348.8173,1228.1976,343.624,1221.5823,350.4569" style="stroke:#000000;stroke-width:1.0;"/><text fill="#000000" font-family="sans-serif" font-size="13" lengthAdjust="spacing" textLength="21" x="1235" y="353.4345">has</text><text fill="#000000" font-family="sans-serif" font-size="13" lengthAdjust="spacing" textLength="5" x="1367.0121" y="299.6049">*</text><text fill="#000000" font-family="sans-serif" font-size="13" lengthAdjust="spacing" textLength="7" x="1118.6271" y="411.1245">1</text></g><!--link Patient to MedicalRecordNumber--><g id="link_Patient_MedicalRecordNumber"><path codeLine="172" d="M1694.13,284.1194 C1754.76,314.8994 1824.25,351.4094 1886,386.9394 C1904.84,397.7794 1920.0298,407.1741 1937.6498,418.5541 " fill="none" id="Patient-to-MedicalRecordNumber" style="stroke:#181818;stroke-width:1.0;"/><polygon fill="#181818" points="1942.69,421.8094,1937.2999,413.5664,1938.4898,419.0967,1932.9596,420.2866,1942.69,421.8094" style="stroke:#181818;stroke-width:1.0;"/><polygon fill="#000000" points="1838.3773,350.5316,1831.8791,343.5873,1829.0383,348.7331,1838.3773,350.5316" style="stroke:#000000;stroke-width:1.0;"/><text fill="#000000" font-family="sans-serif" font-size="13" lengthAdjust="spacing" textLength="21" x="1843" y="353.4345">has</text><text fill="#000000" font-family="sans-serif" font-size="13" lengthAdjust="spacing" textLength="7" x="1701.9105" y="285.0106">1</text><text fill="#000000" font-family="sans-serif" font-size="13" lengthAdjust="spacing" textLength="7" x="1925.0042" y="410.898">1</text></g><!--link Patient to ContactInformation--><g id="link_Patient_ContactInformation"><path codeLine="173" d="M1503.06,309.1894 C1490.89,345.8194 1479.7695,379.3247 1470.3595,407.6847 " fill="none" id="Patient-to-ContactInformation" style="stroke:#181818;stroke-width:1.0;"/><polygon fill="#181818" points="1468.47,413.3794,1475.1008,406.097,1470.0446,408.6338,1467.5078,403.5776,1468.47,413.3794" style="stroke:#181818;stroke-width:1.0;"/><polygon fill="#000000" points="1494.4246,352.8605,1500.0638,345.2021,1494.4853,343.3501,1494.4246,352.8605" style="stroke:#000000;stroke-width:1.0;"/><text fill="#000000" font-family="sans-serif" font-size="13" lengthAdjust="spacing" textLength="21" x="1505" y="353.4345">has</text><text fill="#000000" font-family="sans-serif" font-size="13" lengthAdjust="spacing" textLength="7" x="1493.3105" y="330.8495">1</text><text fill="#000000" font-family="sans-serif" font-size="13" lengthAdjust="spacing" textLength="7" x="1463.1213" y="402.6771">1</text></g><!--link Patient to MedicalCondition--><g id="link_Patient_MedicalCondition"><path codeLine="174" d="M1379.72,280.0594 C1329.35,304.7194 1284.33,328.6194 1276,338.9394 C1254.62,365.4394 1248.7609,399.5642 1246.9909,424.7342 " fill="none" id="Patient-to-MedicalCondition" style="stroke:#181818;stroke-width:1.0;"/><polygon fill="#181818" points="1246.57,430.7194,1251.1915,422.0221,1246.9207,425.7317,1243.2112,421.461,1246.57,430.7194" style="stroke:#181818;stroke-width:1.0;"/><polygon fill="#000000" points="1277.6198,351.7995,1285.9002,347.1212,1281.569,343.1476,1277.6198,351.7995" style="stroke:#000000;stroke-width:1.0;"/><text fill="#000000" font-family="sans-serif" font-size="13" lengthAdjust="spacing" textLength="51" x="1290" y="353.4345">can have</text><text fill="#000000" font-family="sans-serif" font-size="13" lengthAdjust="spacing" textLength="20" x="1352.1401" y="280.5475">0..*</text><text fill="#000000" font-family="sans-serif" font-size="13" lengthAdjust="spacing" textLength="20" x="1224.1536" y="420.0032">0..*</text></g><!--link Patient to EmergencyContact--><g id="link_Patient_EmergencyContact"><path codeLine="175" d="M1379.75,285.0394 C1358.32,293.9494 1336.34,302.2294 1315,308.9394 C1243.48,331.4394 1221.49,319.8194 1149,338.9394 C1086.62,355.3994 1070.92,360.6594 1012,386.9394 C989.16,397.1294 970.0772,407.0839 949.2072,418.8439 " fill="none" id="Patient-to-EmergencyContact" style="stroke:#181818;stroke-width:1.0;"/><polygon fill="#181818" points="943.98,421.7894,953.7845,420.856,948.336,419.3348,949.8572,413.8863,943.98,421.7894" style="stroke:#181818;stroke-width:1.0;"/><polygon fill="#000000" points="1149.2253,349.5991,1158.7351,349.7212,1156.9906,344.1081,1149.2253,349.5991" style="stroke:#000000;stroke-width:1.0;"/><text fill="#000000" font-family="sans-serif" font-size="13" lengthAdjust="spacing" textLength="21" x="1163" y="353.4345">has</text><text fill="#000000" font-family="sans-serif" font-size="13" lengthAdjust="spacing" textLength="5" x="1367.0121" y="285.9752">*</text><text fill="#000000" font-family="sans-serif" font-size="13" lengthAdjust="spacing" textLength="7" x="947.3915" y="410.8738">1</text></g><!--link ContactInformation to PhoneNumber--><g id="link_ContactInformation_PhoneNumber"><path codeLine="178" d="M1389.37,496.5094 C1371.84,506.1694 1352.58,515.7394 1334,522.9394 C1264.14,549.9994 1075.62,573.2494 1006,600.9394 C993.68,605.8394 986.4003,609.0674 974.2803,615.4974 " fill="none" id="ContactInformation-to-PhoneNumber" style="stroke:#181818;stroke-width:1.0;"/><polygon fill="#181818" points="968.98,618.3094,978.805,617.625,973.3969,615.9661,975.0558,610.5579,968.98,618.3094" style="stroke:#181818;stroke-width:1.0;"/><polygon fill="#000000" points="1208.1936,563.4929,1217.6983,563.8256,1216.0786,558.1754,1208.1936,563.4929" style="stroke:#000000;stroke-width:1.0;"/><text fill="#000000" font-family="sans-serif" font-size="13" lengthAdjust="spacing" textLength="21" x="1222" y="567.4345">has</text><text fill="#000000" font-family="sans-serif" font-size="13" lengthAdjust="spacing" textLength="7" x="1370.9203" y="518.2255">1</text><text fill="#000000" font-family="sans-serif" font-size="13" lengthAdjust="spacing" textLength="7" x="972.5944" y="607.5965">1</text></g><!--link ContactInformation to Email--><g id="link_ContactInformation_Email"><path codeLine="179" d="M1524.64,496.5794 C1570.53,524.2894 1631.29,562.7494 1682,600.9394 C1696.19,611.6294 1706.5441,620.3024 1719.2941,631.7424 " fill="none" id="ContactInformation-to-Email" style="stroke:#181818;stroke-width:1.0;"/><polygon fill="#181818" points="1723.76,635.7494,1719.7326,626.7616,1720.0385,632.4102,1714.3899,632.7161,1723.76,635.7494" style="stroke:#181818;stroke-width:1.0;"/><polygon fill="#000000" points="1649.107,564.9669,1643.3536,557.394,1640.0011,562.222,1649.107,564.9669" style="stroke:#000000;stroke-width:1.0;"/><text fill="#000000" font-family="sans-serif" font-size="13" lengthAdjust="spacing" textLength="21" x="1654" y="567.4345">has</text><text fill="#000000" font-family="sans-serif" font-size="13" lengthAdjust="spacing" textLength="7" x="1528.5944" y="518.3071">1</text><text fill="#000000" font-family="sans-serif" font-size="13" lengthAdjust="spacing" textLength="7" x="1709.3299" y="625.2083">1</text></g><!--link EmergencyContact to PhoneNumber--><g id="link_EmergencyContact_PhoneNumber"><path codeLine="181" d="M890,488.1394 C890,522.6594 890,571.8994 890,612.0594 " fill="none" id="EmergencyContact-to-PhoneNumber" style="stroke:#181818;stroke-width:1.0;"/><polygon fill="#181818" points="890,618.0594,894,609.0594,890,613.0594,886,609.0594,890,618.0594" style="stroke:#181818;stroke-width:1.0;"/><polygon fill="#000000" points="895,567.1152,897.9389,558.0701,892.0611,558.0701,895,567.1152" style="stroke:#000000;stroke-width:1.0;"/><text fill="#000000" font-family="sans-serif" font-size="13" lengthAdjust="spacing" textLength="21" x="904" y="567.4345">has</text><text fill="#000000" font-family="sans-serif" font-size="13" lengthAdjust="spacing" textLength="7" x="882.3766" y="509.0393">1</text><text fill="#000000" font-family="sans-serif" font-size="13" lengthAdjust="spacing" textLength="7" x="882.5297" y="607.6777">1</text></g><!--link FullName to Name--><g id="link_FullName_Name"><path codeLine="183" d="M2970.42,496.7394 C2982.1,506.1594 2995.06,515.5794 3008,522.9394 C3095.99,572.9994 3136.63,546.5294 3222,600.9394 C3236.84,610.3994 3246.8814,619.2775 3258.3114,631.4975 " fill="none" id="FullName-to-Name" style="stroke:#181818;stroke-width:1.0;"/><polygon fill="#181818" points="3262.41,635.8794,3259.1833,626.5741,3258.9945,632.2278,3253.3408,632.0389,3262.41,635.8794" style="stroke:#181818;stroke-width:1.0;"/><polygon fill="#000000" points="3167.5284,564.2349,3160.5823,557.7385,3158.0905,563.062,3167.5284,564.2349" style="stroke:#000000;stroke-width:1.0;"/><text fill="#000000" font-family="sans-serif" font-size="13" lengthAdjust="spacing" textLength="21" x="3172" y="567.4345">has</text><text fill="#000000" font-family="sans-serif" font-size="13" lengthAdjust="spacing" textLength="7" x="2969.9416" y="518.182">1</text><text fill="#000000" font-family="sans-serif" font-size="13" lengthAdjust="spacing" textLength="7" x="3249.2039" y="624.9824">2</text></g><!--link PhoneNumber to CountryCode--><g id="link_PhoneNumber_CountryCode"><path codeLine="185" d="M890,719.7194 C890,750.1894 890,782.2894 890,808.8094 " fill="none" id="PhoneNumber-to-CountryCode" style="stroke:#181818;stroke-width:1.0;"/><polygon fill="#181818" points="890,814.8094,894,805.8094,890,809.8094,886,805.8094,890,814.8094" style="stroke:#181818;stroke-width:1.0;"/><polygon fill="#000000" points="895,781.1152,897.9389,772.0701,892.0611,772.0701,895,781.1152" style="stroke:#000000;stroke-width:1.0;"/><text fill="#000000" font-family="sans-serif" font-size="13" lengthAdjust="spacing" textLength="21" x="904" y="781.4345">has</text><text fill="#000000" font-family="sans-serif" font-size="13" lengthAdjust="spacing" textLength="7" x="882.5516" y="740.7792">1</text><text fill="#000000" font-family="sans-serif" font-size="13" lengthAdjust="spacing" textLength="7" x="882.2781" y="803.898">1</text></g><!--link User to Username--><g id="link_User_Username"><path codeLine="187" d="M2724.76,523.1194 C2722.06,533.0894 2719.4,543.2694 2717,552.9394 C2710.12,580.7094 2704.5058,606.6238 2699.7258,629.7238 " fill="none" id="User-to-Username" style="stroke:#181818;stroke-width:1.0;"/><polygon fill="#181818" points="2698.51,635.5994,2704.2507,627.5966,2699.5232,630.7031,2696.4167,625.9755,2698.51,635.5994" style="stroke:#181818;stroke-width:1.0;"/><polygon fill="#000000" points="2720.8569,566.9827,2725.7859,558.8491,2720.0637,557.5053,2720.8569,566.9827" style="stroke:#000000;stroke-width:1.0;"/><text fill="#000000" font-family="sans-serif" font-size="13" lengthAdjust="spacing" textLength="21" x="2731" y="567.4345">has</text><text fill="#000000" font-family="sans-serif" font-size="13" lengthAdjust="spacing" textLength="7" x="2715.4149" y="544.4863">1</text><text fill="#000000" font-family="sans-serif" font-size="13" lengthAdjust="spacing" textLength="7" x="2692.1026" y="625.0287">1</text></g><!--link User to Email--><g id="link_User_Email"><path codeLine="188" d="M2660.75,515.9494 C2655.22,518.5894 2649.62,520.9594 2644,522.9394 C2498.82,574.0494 2451.23,530.2294 2299,552.9394 C2121.4,579.4394 1920.4219,627.1285 1821.8319,651.6985 " fill="none" id="User-to-Email" style="stroke:#181818;stroke-width:1.0;"/><polygon fill="#181818" points="1816.01,653.1494,1825.7102,654.8543,1820.8616,651.9403,1823.7756,647.0917,1816.01,653.1494" style="stroke:#181818;stroke-width:1.0;"/><polygon fill="#000000" points="2299.0642,562.9138,2308.4626,564.3702,2307.5237,558.5678,2299.0642,562.9138" style="stroke:#000000;stroke-width:1.0;"/><text fill="#000000" font-family="sans-serif" font-size="13" lengthAdjust="spacing" textLength="21" x="2313" y="567.4345">has</text><text fill="#000000" font-family="sans-serif" font-size="13" lengthAdjust="spacing" textLength="7" x="2646.0238" y="535.6043">1</text><text fill="#000000" font-family="sans-serif" font-size="13" lengthAdjust="spacing" textLength="7" x="1823.891" y="647.6439">1</text></g><!--link User to Role--><g id="link_User_Role"><path codeLine="189" d="M2769,523.0194 C2778.26,547.8894 2786.6757,570.4468 2795.9357,595.3068 " fill="none" id="User-to-Role" style="stroke:#181818;stroke-width:1.0;"/><polygon fill="#181818" points="2798.03,600.9294,2798.6369,591.0992,2796.2847,596.2439,2791.1401,593.8917,2798.03,600.9294" style="stroke:#181818;stroke-width:1.0;"/><polygon fill="#000000" points="2791.7458,566.8005,2791.3415,557.2985,2785.8336,559.3508,2791.7458,566.8005" style="stroke:#000000;stroke-width:1.0;"/><text fill="#000000" font-family="sans-serif" font-size="13" lengthAdjust="spacing" textLength="21" x="2799" y="567.4345">has</text><text fill="#000000" font-family="sans-serif" font-size="13" lengthAdjust="spacing" textLength="5" x="2766.3203" y="544.376">*</text><text fill="#000000" font-family="sans-serif" font-size="13" lengthAdjust="spacing" textLength="7" x="2787.9161" y="590.1276">1</text></g><!--link User to UserStatus--><g id="link_User_UserStatus"><path codeLine="190" d="M2660.74,515.0194 C2655.19,517.9194 2649.59,520.5894 2644,522.9394 C2487.05,588.8694 2419.08,520.5894 2269,600.9394 C2263.01,604.1494 2261.9381,604.3812 2256.3981,608.6612 " fill="none" id="User-to-UserStatus" style="stroke:#181818;stroke-width:1.0;"/><polygon fill="#181818" points="2251.65,612.3294,2261.2176,609.9925,2255.6067,609.2725,2256.3267,603.6617,2251.65,612.3294" style="stroke:#181818;stroke-width:1.0;"/><polygon fill="#000000" points="2529.1289,563.2433,2538.6039,564.0657,2537.2777,558.3394,2529.1289,563.2433" style="stroke:#000000;stroke-width:1.0;"/><text fill="#000000" font-family="sans-serif" font-size="13" lengthAdjust="spacing" textLength="21" x="2543" y="567.4345">has</text><text fill="#000000" font-family="sans-serif" font-size="13" lengthAdjust="spacing" textLength="5" x="2648.102" y="517.1664">*</text><text fill="#000000" font-family="sans-serif" font-size="13" lengthAdjust="spacing" textLength="7" x="2259.6033" y="600.3286">1</text></g><!--SRC=[nLRTJ-Cu47_FNs7n0jm2ukxUAgXKqi96HmDg2z8zciIa5gdJinrGztJ_-us_4Zj9wUxgfCj3Quz_y-cPyOWtohQOumtQukmD5sGfToL1d6GIiw8aaMW0OetpweEo0htYKf38EyfABCH4IavVQacIh69B-esWooYIL8AuM9sZASM5Gf_4qrDqZfxYoylVeqZpeYT1U5mnoQko91pz7I7uljmHURERRJ0jJuZw7I6zEHsX5HPlLvDCqeejYAXBUQKaJ6Kr7XlMc1CioKakgn7IQp3SGWwm_-FRj2JydMOaC4ZH6TwGYTYnxAIskn5oT2VVYUpwOlY677e4CmcJBTCpBcaEVjY31SagdW-olbHLQPacUMvKVEPyOrpZRZAPTxnTa88AIRZ2VgAqaT1OkQq4bHNVzU_neEzQ76MWzHM39Sb_9hEzqv-JfJX_DC1TP_u7xSRj3iffddcQ3AKWqjJRQK0MZjonxRsYUHXS9ph9H-YkXbEzU-eLoJu35bK9AFNRSYubbhKml6OTwlpKenyLQ7DclnyXvROkorHxvbQ6FeMgVNYzeLokHyZRk2jdEU4WH_yRsfpaDCEbgV6qthmem03HzZTebZYJ2Nkj-0QhHWQvqAC5ak4ufmRPfRZW4LuGbksi81N7a18TcnJSRYj8wmt4wIjq2CZb4UhJmajIb-w2-exB6YAsX0U35IrCtvh3u3pdH0WVHLYzqJTfCPFfF4drQleGhnuMUfa-BPOplLhDugzf4YSJWtcSh99PkW91h9BmnD5YBL7rYao2K8RaccfJKOm5EKCLAtTDDd2b5OxXQHCKheparfmsXPnHyIfvDWOagRTvdANJ9BtJwvlxX_YFsRHdYf-R7sl248PdsHYWdXbjW7xNyZD4fK32A0QoLMG3wLBHnVAMSY5DbhOPUey3MdCBwU6BylAvWrGdFRU2MjZKGg8NOW9Em3yXRIXDCLY1yydzx0pTpjH_gtYW7FQP6femM5ocJ60K-HE- -Ppf3vse7Rf6EuBv6PhFORc1x5-V8GkuHeByLSEbK5mYfcMTDessLuBEliTrnOZJx6q6-bRRYrgO4_CSk6bRGGs34vHeJbGFQ3RcrAc4skn59R2fYSQNE8vHwZuOrs1x3Pcl1SD_3iNH7b-ZhP9Y0m7iwhqhO5NeJELmovYXIoz2ZO7E9sDvlnk4lUTW887psB3sUn4m7_jfSW_aAmysZew1lJE5Neo36N24ngeCHGztVZxklR0A35CqeU_0C80FSRBcpCfrsYp66nSQ_HrOVqGQHdwFbJvOF-SAONhEC63G1yyKXKi67A6RRKbKv4MFmmXM886LNL7VGIrrs6zFy01V4orFV3SeIhYjnpKMQDmOW8v-FL8Yr9ynqKO6gPUZ-c0zh0MtGu8HE8G9ccG7zaiBSvF3Va63hMu_V6YGwA0lBowS1MRP7oWogF4rX7EFrVt9mgWu7h9eQBgm5p7GNdtEe3KObWCSuJttMiu1uL7pq3R0tuwGVzEHtyB3i7jDss9rmVcWTcmsY1uWCD-SUb4taysUGt_MC91_0G00]--></g></svg>