<?xml version="1.0" encoding="us-ascii" standalone="no"?><svg xmlns="http://www.w3.org/2000/svg" xmlns:xlink="http://www.w3.org/1999/xlink" contentStyleType="text/css" height="384px" preserveAspectRatio="none" style="width:1542px;height:384px;background:#FFFFFF;" version="1.1" viewBox="0 0 1542 384" width="1542px" zoomAndPan="magnify"><defs/><g><text fill="#000000" font-family="sans-serif" font-size="14" font-weight="bold" lengthAdjust="spacing" textLength="190" x="669" y="24.5332">Class Diagram (CD) - UC001</text><!--class User--><g id="elem_User"><rect codeLine="9" fill="#F1F1F1" height="118.4375" id="User" rx="2.5" ry="2.5" style="stroke:#181818;stroke-width:0.5;" width="166" x="1120" y="45.6094"/><ellipse cx="1184.25" cy="61.6094" fill="#ADD1B2" rx="11" ry="11" style="stroke:#181818;stroke-width:1.0;"/><path d="M1187.0156,57.4844 Q1187.1719,57.2656 1187.3594,57.1563 Q1187.5469,57.0469 1187.7656,57.0469 Q1188.1406,57.0469 1188.375,57.3125 Q1188.6094,57.5625 1188.6094,58.1719 L1188.6094,59.625 Q1188.6094,60.2344 1188.375,60.5 Q1188.1406,60.7656 1187.7656,60.7656 Q1187.4219,60.7656 1187.2188,60.5625 Q1187.0156,60.375 1186.9063,59.8594 Q1186.8594,59.5 1186.6719,59.3125 Q1186.3438,58.9375 1185.7344,58.7188 Q1185.125,58.5 1184.5,58.5 Q1183.7344,58.5 1183.0938,58.8281 Q1182.4688,59.1563 1181.9688,59.9063 Q1181.4844,60.6563 1181.4844,61.6875 L1181.4844,62.7813 Q1181.4844,64.0156 1182.375,64.8438 Q1183.2656,65.6563 1184.8594,65.6563 Q1185.7969,65.6563 1186.4531,65.4063 Q1186.8438,65.25 1187.2656,64.8125 Q1187.5313,64.5469 1187.6719,64.4688 Q1187.8281,64.3906 1188.0313,64.3906 Q1188.3594,64.3906 1188.6094,64.6563 Q1188.875,64.9063 1188.875,65.25 Q1188.875,65.5938 1188.5313,66 Q1188.0313,66.5781 1187.2344,66.9063 Q1186.1563,67.3594 1184.8594,67.3594 Q1183.3438,67.3594 1182.1406,66.7344 Q1181.1563,66.2344 1180.4688,65.1719 Q1179.7813,64.0938 1179.7813,62.8125 L1179.7813,61.6563 Q1179.7813,60.3281 1180.3906,59.1875 Q1181.0156,58.0313 1182.1094,57.4219 Q1183.2031,56.7969 1184.4375,56.7969 Q1185.1719,56.7969 1185.8125,56.9688 Q1186.4688,57.125 1187.0156,57.4844 Z " fill="#000000"/><text fill="#000000" font-family="sans-serif" font-size="14" lengthAdjust="spacing" textLength="29" x="1204.75" y="67.3379">User</text><line style="stroke:#181818;stroke-width:0.5;" x1="1121" x2="1285" y1="77.6094" y2="77.6094"/><text fill="#000000" font-family="sans-serif" font-size="14" lengthAdjust="spacing" textLength="144" x="1126" y="96.1426">+Username: Username</text><text fill="#000000" font-family="sans-serif" font-size="14" lengthAdjust="spacing" textLength="84" x="1126" y="113.752">+Email: Email</text><text fill="#000000" font-family="sans-serif" font-size="14" lengthAdjust="spacing" textLength="74" x="1126" y="131.3613">+Role: Role</text><text fill="#000000" font-family="sans-serif" font-size="14" lengthAdjust="spacing" textLength="154" x="1126" y="148.9707">+UserStatus: UserStatus</text><line style="stroke:#181818;stroke-width:0.5;" x1="1121" x2="1285" y1="156.0469" y2="156.0469"/></g><!--class Username--><g id="elem_Username"><rect codeLine="16" fill="#F1F1F1" height="65.6094" id="Username" rx="2.5" ry="2.5" style="stroke:#181818;stroke-width:0.5;" width="99" x="1284.5" y="276.6094"/><ellipse cx="1300.85" cy="292.6094" fill="#ADD1B2" rx="11" ry="11" style="stroke:#181818;stroke-width:1.0;"/><path d="M1303.6156,288.4844 Q1303.7719,288.2656 1303.9594,288.1563 Q1304.1469,288.0469 1304.3656,288.0469 Q1304.7406,288.0469 1304.975,288.3125 Q1305.2094,288.5625 1305.2094,289.1719 L1305.2094,290.625 Q1305.2094,291.2344 1304.975,291.5 Q1304.7406,291.7656 1304.3656,291.7656 Q1304.0219,291.7656 1303.8188,291.5625 Q1303.6156,291.375 1303.5063,290.8594 Q1303.4594,290.5 1303.2719,290.3125 Q1302.9438,289.9375 1302.3344,289.7188 Q1301.725,289.5 1301.1,289.5 Q1300.3344,289.5 1299.6938,289.8281 Q1299.0688,290.1563 1298.5688,290.9063 Q1298.0844,291.6563 1298.0844,292.6875 L1298.0844,293.7813 Q1298.0844,295.0156 1298.975,295.8438 Q1299.8656,296.6563 1301.4594,296.6563 Q1302.3969,296.6563 1303.0531,296.4063 Q1303.4438,296.25 1303.8656,295.8125 Q1304.1313,295.5469 1304.2719,295.4688 Q1304.4281,295.3906 1304.6313,295.3906 Q1304.9594,295.3906 1305.2094,295.6563 Q1305.475,295.9063 1305.475,296.25 Q1305.475,296.5938 1305.1313,297 Q1304.6313,297.5781 1303.8344,297.9063 Q1302.7563,298.3594 1301.4594,298.3594 Q1299.9438,298.3594 1298.7406,297.7344 Q1297.7563,297.2344 1297.0688,296.1719 Q1296.3813,295.0938 1296.3813,293.8125 L1296.3813,292.6563 Q1296.3813,291.3281 1296.9906,290.1875 Q1297.6156,289.0313 1298.7094,288.4219 Q1299.8031,287.7969 1301.0375,287.7969 Q1301.7719,287.7969 1302.4125,287.9688 Q1303.0688,288.125 1303.6156,288.4844 Z " fill="#000000"/><text fill="#000000" font-family="sans-serif" font-size="14" lengthAdjust="spacing" textLength="64" x="1315.15" y="298.3379">Username</text><line style="stroke:#181818;stroke-width:0.5;" x1="1285.5" x2="1382.5" y1="308.6094" y2="308.6094"/><text fill="#000000" font-family="sans-serif" font-size="14" lengthAdjust="spacing" textLength="87" x="1290.5" y="327.1426">+value: String</text><line style="stroke:#181818;stroke-width:0.5;" x1="1285.5" x2="1382.5" y1="334.2188" y2="334.2188"/></g><!--class Email--><g id="elem_Email"><rect codeLine="20" fill="#F1F1F1" height="65.6094" id="Email" rx="2.5" ry="2.5" style="stroke:#181818;stroke-width:0.5;" width="116" x="1419" y="276.6094"/><ellipse cx="1456.5" cy="292.6094" fill="#ADD1B2" rx="11" ry="11" style="stroke:#181818;stroke-width:1.0;"/><path d="M1459.2656,288.4844 Q1459.4219,288.2656 1459.6094,288.1563 Q1459.7969,288.0469 1460.0156,288.0469 Q1460.3906,288.0469 1460.625,288.3125 Q1460.8594,288.5625 1460.8594,289.1719 L1460.8594,290.625 Q1460.8594,291.2344 1460.625,291.5 Q1460.3906,291.7656 1460.0156,291.7656 Q1459.6719,291.7656 1459.4688,291.5625 Q1459.2656,291.375 1459.1563,290.8594 Q1459.1094,290.5 1458.9219,290.3125 Q1458.5938,289.9375 1457.9844,289.7188 Q1457.375,289.5 1456.75,289.5 Q1455.9844,289.5 1455.3438,289.8281 Q1454.7188,290.1563 1454.2188,290.9063 Q1453.7344,291.6563 1453.7344,292.6875 L1453.7344,293.7813 Q1453.7344,295.0156 1454.625,295.8438 Q1455.5156,296.6563 1457.1094,296.6563 Q1458.0469,296.6563 1458.7031,296.4063 Q1459.0938,296.25 1459.5156,295.8125 Q1459.7813,295.5469 1459.9219,295.4688 Q1460.0781,295.3906 1460.2813,295.3906 Q1460.6094,295.3906 1460.8594,295.6563 Q1461.125,295.9063 1461.125,296.25 Q1461.125,296.5938 1460.7813,297 Q1460.2813,297.5781 1459.4844,297.9063 Q1458.4063,298.3594 1457.1094,298.3594 Q1455.5938,298.3594 1454.3906,297.7344 Q1453.4063,297.2344 1452.7188,296.1719 Q1452.0313,295.0938 1452.0313,293.8125 L1452.0313,292.6563 Q1452.0313,291.3281 1452.6406,290.1875 Q1453.2656,289.0313 1454.3594,288.4219 Q1455.4531,287.7969 1456.6875,287.7969 Q1457.4219,287.7969 1458.0625,287.9688 Q1458.7188,288.125 1459.2656,288.4844 Z " fill="#000000"/><text fill="#000000" font-family="sans-serif" font-size="14" lengthAdjust="spacing" textLength="34" x="1475.5" y="298.3379">Email</text><line style="stroke:#181818;stroke-width:0.5;" x1="1420" x2="1534" y1="308.6094" y2="308.6094"/><text fill="#000000" font-family="sans-serif" font-size="14" lengthAdjust="spacing" textLength="104" x="1425" y="327.1426">+address: String</text><line style="stroke:#181818;stroke-width:0.5;" x1="1420" x2="1534" y1="334.2188" y2="334.2188"/></g><!--class Role--><g id="elem_Role"><rect codeLine="24" fill="#F1F1F1" height="136.0469" id="Role" rx="2.5" ry="2.5" style="stroke:#181818;stroke-width:0.5;" width="92" x="7" y="241.6094"/><ellipse cx="35.95" cy="257.6094" fill="#EB937F" rx="11" ry="11" style="stroke:#181818;stroke-width:1.0;"/><path d="M34.8094,258.4063 L34.8094,260.9063 L39.1375,260.9063 L39.1375,259.9844 Q39.1375,259.375 39.3719,259.1094 Q39.6219,258.8438 39.9969,258.8438 Q40.3719,258.8438 40.6063,259.1094 Q40.8406,259.375 40.8406,259.9844 L40.8406,262.6094 L32.8406,262.6094 Q32.2156,262.6094 31.95,262.375 Q31.7,262.1406 31.7,261.75 Q31.7,261.375 31.9656,261.1406 Q32.2313,260.9063 32.8406,260.9063 L33.1063,260.9063 L33.1063,254.25 L32.8406,254.25 Q32.2156,254.25 31.95,254.0156 Q31.7,253.7813 31.7,253.3906 Q31.7,253.0156 31.95,252.7813 Q32.2156,252.5469 32.8406,252.5469 L40.4656,252.5469 L40.4656,255.1406 Q40.4656,255.75 40.2313,256.0156 Q40.0125,256.2656 39.6219,256.2656 Q39.2469,256.2656 39.0125,256.0156 Q38.7781,255.75 38.7781,255.1406 L38.7781,254.25 L34.8094,254.25 L34.8094,256.7031 L36.2938,256.7031 Q36.2938,256.0469 36.4188,255.8594 Q36.6844,255.4531 37.1531,255.4531 Q37.5281,255.4531 37.7625,255.7188 Q37.9969,255.9688 37.9969,256.5781 L37.9969,258.5469 Q37.9969,259.0938 37.8719,259.2813 Q37.6063,259.6719 37.1531,259.6719 Q36.6844,259.6719 36.4188,259.2656 Q36.2938,259.0781 36.2938,258.4063 L34.8094,258.4063 Z " fill="#000000"/><text fill="#000000" font-family="sans-serif" font-size="14" lengthAdjust="spacing" textLength="29" x="53.05" y="263.3379">Role</text><line style="stroke:#181818;stroke-width:0.5;" x1="8" x2="98" y1="273.6094" y2="273.6094"/><text fill="#000000" font-family="sans-serif" font-size="14" lengthAdjust="spacing" textLength="42" x="13" y="292.1426">ADMIN</text><text fill="#000000" font-family="sans-serif" font-size="14" lengthAdjust="spacing" textLength="61" x="13" y="309.752">DOCTOR</text><text fill="#000000" font-family="sans-serif" font-size="14" lengthAdjust="spacing" textLength="46" x="13" y="327.3613">NURSE</text><text fill="#000000" font-family="sans-serif" font-size="14" lengthAdjust="spacing" textLength="80" x="13" y="344.9707">TECHNICIAN</text><text fill="#000000" font-family="sans-serif" font-size="14" lengthAdjust="spacing" textLength="57" x="13" y="362.5801">PATIENT</text><line style="stroke:#181818;stroke-width:0.5;" x1="8" x2="98" y1="369.6563" y2="369.6563"/></g><g id="elem_GMN6"><path d="M134.5,296.6094 L134.5,305.6094 L99.02,309.6094 L134.5,313.6094 L134.5,322.9609 A0,0 0 0 0 134.5,322.9609 L725.5,322.9609 A0,0 0 0 0 725.5,322.9609 L725.5,306.6094 L715.5,296.6094 L134.5,296.6094 A0,0 0 0 0 134.5,296.6094 " fill="#FEFFDD" style="stroke:#181818;stroke-width:0.5;"/><path d="M715.5,296.6094 L715.5,306.6094 L725.5,306.6094 L715.5,296.6094 " fill="#FEFFDD" style="stroke:#181818;stroke-width:0.5;"/><text fill="#000000" font-family="sans-serif" font-size="13" lengthAdjust="spacing" textLength="570" x="140.5" y="315.1045">in this Use Case, only Backoffice Roles are considered (ADMIN, DOCTOR, NURSE, TECHNICIAN)</text></g><!--class UserStatus--><g id="elem_UserStatus"><rect codeLine="33" fill="#F1F1F1" height="118.4375" id="UserStatus" rx="2.5" ry="2.5" style="stroke:#181818;stroke-width:0.5;" width="101" x="760.5" y="250.6094"/><ellipse cx="775.5" cy="266.6094" fill="#EB937F" rx="11" ry="11" style="stroke:#181818;stroke-width:1.0;"/><path d="M774.3594,267.4063 L774.3594,269.9063 L778.6875,269.9063 L778.6875,268.9844 Q778.6875,268.375 778.9219,268.1094 Q779.1719,267.8438 779.5469,267.8438 Q779.9219,267.8438 780.1563,268.1094 Q780.3906,268.375 780.3906,268.9844 L780.3906,271.6094 L772.3906,271.6094 Q771.7656,271.6094 771.5,271.375 Q771.25,271.1406 771.25,270.75 Q771.25,270.375 771.5156,270.1406 Q771.7813,269.9063 772.3906,269.9063 L772.6563,269.9063 L772.6563,263.25 L772.3906,263.25 Q771.7656,263.25 771.5,263.0156 Q771.25,262.7813 771.25,262.3906 Q771.25,262.0156 771.5,261.7813 Q771.7656,261.5469 772.3906,261.5469 L780.0156,261.5469 L780.0156,264.1406 Q780.0156,264.75 779.7813,265.0156 Q779.5625,265.2656 779.1719,265.2656 Q778.7969,265.2656 778.5625,265.0156 Q778.3281,264.75 778.3281,264.1406 L778.3281,263.25 L774.3594,263.25 L774.3594,265.7031 L775.8438,265.7031 Q775.8438,265.0469 775.9688,264.8594 Q776.2344,264.4531 776.7031,264.4531 Q777.0781,264.4531 777.3125,264.7188 Q777.5469,264.9688 777.5469,265.5781 L777.5469,267.5469 Q777.5469,268.0938 777.4219,268.2813 Q777.1563,268.6719 776.7031,268.6719 Q776.2344,268.6719 775.9688,268.2656 Q775.8438,268.0781 775.8438,267.4063 L774.3594,267.4063 Z " fill="#000000"/><text fill="#000000" font-family="sans-serif" font-size="14" lengthAdjust="spacing" textLength="69" x="789.5" y="272.3379">UserStatus</text><line style="stroke:#181818;stroke-width:0.5;" x1="761.5" x2="860.5" y1="282.6094" y2="282.6094"/><text fill="#000000" font-family="sans-serif" font-size="14" lengthAdjust="spacing" textLength="49" x="766.5" y="301.1426">ACTIVE</text><text fill="#000000" font-family="sans-serif" font-size="14" lengthAdjust="spacing" textLength="61" x="766.5" y="318.752">INACTIVE</text><text fill="#000000" font-family="sans-serif" font-size="14" lengthAdjust="spacing" textLength="60" x="766.5" y="336.3613">PENDING</text><text fill="#000000" font-family="sans-serif" font-size="14" lengthAdjust="spacing" textLength="66" x="766.5" y="353.9707">BLOCKED</text><line style="stroke:#181818;stroke-width:0.5;" x1="761.5" x2="860.5" y1="361.0469" y2="361.0469"/></g><g id="elem_GMN10"><path d="M897,296.6094 L897,305.6094 L861.66,309.6094 L897,313.6094 L897,322.9609 A0,0 0 0 0 897,322.9609 L1249,322.9609 A0,0 0 0 0 1249,322.9609 L1249,306.6094 L1239,296.6094 L897,296.6094 A0,0 0 0 0 897,296.6094 " fill="#FEFFDD" style="stroke:#181818;stroke-width:0.5;"/><path d="M1239,296.6094 L1239,306.6094 L1249,306.6094 L1239,296.6094 " fill="#FEFFDD" style="stroke:#181818;stroke-width:0.5;"/><text fill="#000000" font-family="sans-serif" font-size="13" lengthAdjust="spacing" textLength="331" x="903" y="315.1045">when a backoffice user is created, its status is PENDING</text></g><!--class Admin--><g id="elem_Admin"><rect codeLine="41" fill="#F1F1F1" height="58.7031" id="Admin" rx="2.5" ry="2.5" style="stroke:#181818;stroke-width:0.5;" width="133" x="894.5" y="75.1094"/><ellipse cx="909.5" cy="96.4609" fill="#ADD1B2" rx="11" ry="11" style="stroke:#181818;stroke-width:1.0;"/><path d="M912.2656,92.3359 Q912.4219,92.1172 912.6094,92.0078 Q912.7969,91.8984 913.0156,91.8984 Q913.3906,91.8984 913.625,92.1641 Q913.8594,92.4141 913.8594,93.0234 L913.8594,94.4766 Q913.8594,95.0859 913.625,95.3516 Q913.3906,95.6172 913.0156,95.6172 Q912.6719,95.6172 912.4688,95.4141 Q912.2656,95.2266 912.1563,94.7109 Q912.1094,94.3516 911.9219,94.1641 Q911.5938,93.7891 910.9844,93.5703 Q910.375,93.3516 909.75,93.3516 Q908.9844,93.3516 908.3438,93.6797 Q907.7188,94.0078 907.2188,94.7578 Q906.7344,95.5078 906.7344,96.5391 L906.7344,97.6328 Q906.7344,98.8672 907.625,99.6953 Q908.5156,100.5078 910.1094,100.5078 Q911.0469,100.5078 911.7031,100.2578 Q912.0938,100.1016 912.5156,99.6641 Q912.7813,99.3984 912.9219,99.3203 Q913.0781,99.2422 913.2813,99.2422 Q913.6094,99.2422 913.8594,99.5078 Q914.125,99.7578 914.125,100.1016 Q914.125,100.4453 913.7813,100.8516 Q913.2813,101.4297 912.4844,101.7578 Q911.4063,102.2109 910.1094,102.2109 Q908.5938,102.2109 907.3906,101.5859 Q906.4063,101.0859 905.7188,100.0234 Q905.0313,98.9453 905.0313,97.6641 L905.0313,96.5078 Q905.0313,95.1797 905.6406,94.0391 Q906.2656,92.8828 907.3594,92.2734 Q908.4531,91.6484 909.6875,91.6484 Q910.4219,91.6484 911.0625,91.8203 Q911.7188,91.9766 912.2656,92.3359 Z " fill="#000000"/><text fill="#000000" font-family="sans-serif" font-size="12" font-style="italic" lengthAdjust="spacing" textLength="105" x="921.5" y="92.5664">&#171;conceptual class&#187;</text><text fill="#000000" font-family="sans-serif" font-size="14" lengthAdjust="spacing" textLength="39" x="954.5" y="109.7363">Admin</text><line style="stroke:#181818;stroke-width:0.5;" x1="895.5" x2="1026.5" y1="117.8125" y2="117.8125"/><line style="stroke:#181818;stroke-width:0.5;" x1="895.5" x2="1026.5" y1="125.8125" y2="125.8125"/></g><!--link Admin to User--><g id="link_Admin_User"><path codeLine="43" d="M1027.77,104.6094 C1056.17,104.6094 1083.59,104.6094 1113.6,104.6094 " fill="none" id="Admin-to-User" style="stroke:#181818;stroke-width:1.0;"/><polygon fill="#181818" points="1119.6,104.6094,1110.6,100.6094,1114.6,104.6094,1110.6,108.6094,1119.6,104.6094" style="stroke:#181818;stroke-width:1.0;"/><polygon fill="#000000" points="1054.75,92.7852,1045.7049,89.8462,1045.7049,95.7241,1054.75,92.7852" style="stroke:#000000;stroke-width:1.0;"/><text fill="#000000" font-family="sans-serif" font-size="13" lengthAdjust="spacing" textLength="43" x="1058.75" y="98.1045">creates</text><text fill="#000000" font-family="sans-serif" font-size="13" lengthAdjust="spacing" textLength="7" x="1035.4558" y="101.265">1</text><text fill="#000000" font-family="sans-serif" font-size="13" lengthAdjust="spacing" textLength="5" x="1106.9495" y="101.3882">*</text></g><!--link User to Username--><g id="link_User_Username"><path codeLine="45" d="M1240.54,163.7794 C1264.2,200.4494 1290.6069,241.3678 1310.0869,271.5578 " fill="none" id="User-to-Username" style="stroke:#181818;stroke-width:1.0;"/><polygon fill="#181818" points="1313.34,276.5994,1311.8215,266.8683,1310.6291,272.3981,1305.0993,271.2057,1313.34,276.5994" style="stroke:#181818;stroke-width:1.0;"/><polygon fill="#000000" points="1276.711,206.9864,1274.2762,197.7928,1269.3373,200.9797,1276.711,206.9864" style="stroke:#000000;stroke-width:1.0;"/><text fill="#000000" font-family="sans-serif" font-size="13" lengthAdjust="spacing" textLength="21" x="1283" y="208.1045">has</text><text fill="#000000" font-family="sans-serif" font-size="13" lengthAdjust="spacing" textLength="7" x="1237.6886" y="185.4556">1</text><text fill="#000000" font-family="sans-serif" font-size="13" lengthAdjust="spacing" textLength="7" x="1301.357" y="265.7127">1</text></g><!--link User to Email--><g id="link_User_Email"><path codeLine="46" d="M1286.47,159.6794 C1322.42,183.7994 1364.49,213.1494 1401,241.6094 C1414.87,252.4294 1425.0259,261.0116 1437.7059,272.3416 " fill="none" id="User-to-Email" style="stroke:#181818;stroke-width:1.0;"/><polygon fill="#181818" points="1442.18,276.3394,1438.134,267.36,1438.4516,273.0079,1432.8036,273.3255,1442.18,276.3394" style="stroke:#181818;stroke-width:1.0;"/><polygon fill="#000000" points="1368.0097,205.7722,1362.5118,198.0118,1359.0004,202.7255,1368.0097,205.7722" style="stroke:#000000;stroke-width:1.0;"/><text fill="#000000" font-family="sans-serif" font-size="13" lengthAdjust="spacing" textLength="21" x="1373" y="208.1045">has</text><text fill="#000000" font-family="sans-serif" font-size="13" lengthAdjust="spacing" textLength="7" x="1293.944" y="161.2159">1</text><text fill="#000000" font-family="sans-serif" font-size="13" lengthAdjust="spacing" textLength="7" x="1427.6358" y="265.7825">1</text></g><!--link User to Role--><g id="link_User_Role"><path codeLine="47" d="M1119.79,140.8794 C1096.02,149.6594 1069.82,158.1194 1045,163.6094 C842.94,208.3394 303.7,152.3294 117,241.6094 C110.76,244.5894 109.5338,244.7699 103.9538,249.1399 " fill="none" id="User-to-Role" style="stroke:#181818;stroke-width:1.0;"/><polygon fill="#181818" points="99.23,252.8394,108.782,250.4394,103.1665,249.7565,103.8494,244.141,99.23,252.8394" style="stroke:#181818;stroke-width:1.0;"/><polygon fill="#000000" points="362.0282,203.315,371.3338,205.2789,370.7109,199.4341,362.0282,203.315" style="stroke:#000000;stroke-width:1.0;"/><text fill="#000000" font-family="sans-serif" font-size="13" lengthAdjust="spacing" textLength="21" x="376" y="208.1045">has</text><text fill="#000000" font-family="sans-serif" font-size="13" lengthAdjust="spacing" textLength="5" x="1106.8886" y="140.9767">*</text><text fill="#000000" font-family="sans-serif" font-size="13" lengthAdjust="spacing" textLength="7" x="106.8449" y="240.4399">1</text></g><!--link User to UserStatus--><g id="link_User_UserStatus"><path codeLine="48" d="M1119.9,136.3594 C1038.21,167.3194 920,214.2994 879,241.6094 C873.07,245.5594 871.7912,246.2048 866.1512,250.9748 " fill="none" id="User-to-UserStatus" style="stroke:#181818;stroke-width:1.0;"/><polygon fill="#181818" points="861.57,254.8494,871.0249,252.0917,865.3877,251.6206,865.8588,245.9834,861.57,254.8494" style="stroke:#181818;stroke-width:1.0;"/><polygon fill="#000000" points="970.4433,204.8434,979.8963,203.7984,977.4767,198.4416,970.4433,204.8434" style="stroke:#000000;stroke-width:1.0;"/><text fill="#000000" font-family="sans-serif" font-size="13" lengthAdjust="spacing" textLength="21" x="984" y="208.1045">has</text><text fill="#000000" font-family="sans-serif" font-size="13" lengthAdjust="spacing" textLength="5" x="1107.0088" y="153.515">*</text><text fill="#000000" font-family="sans-serif" font-size="13" lengthAdjust="spacing" textLength="7" x="869.5115" y="243.1203">1</text></g><!--SRC=[TPB1RgCm48RlVeeHfxPBfUGQLP6eGLlKNL85ilSfJC2gCH4shTggxxx6XWMfMWumU3xF_y_O-aMe2_ROmWNB5wmfD- -IeAVIeAebCVqFq0rMtPjGDPnHQcAhL2bHwyYONZmFXjAoKxdu8DWmPeInvVYOXrXWFT9NFBw6MpZnpMRBcDiB9qqzV3AmpuynLjZI3kR8hoSj2ha3z_4hnqvQQdmlEtE3Pj1-hu_Prrfbh3ShlQ8SR87S6bVrWZc5cS6gwadhDKLgQ9tgn4JnxpHpKNpWnU7emknqp1CN5Gb_o5AUHfvvYeeqoGfRI7N6ZbhKZO7k3BuPeS0qmba5Zff2w9HyXtjxEjtvB4fod0Ri2UoSjQYefmgkd8TmCX1wzN0bVJtPNiOoc-T5-iSRJRFLprEInMdsqyNtlmxyCOc_MLxF-wqX1GZFYz5XF5FRIjaJ6gf244Q3zjfsUHQOXXvLhUtzxiusLTB532ZzjThl6VEvO1l0xHw2cy09xwR26YpXxey3Hc8Rm7A96Xo9Ry1qczRPcoNh3-C_oNNR7laB]--></g></svg>