<?xml version="1.0" encoding="us-ascii" standalone="no"?><svg xmlns="http://www.w3.org/2000/svg" xmlns:xlink="http://www.w3.org/1999/xlink" contentStyleType="text/css" height="691px" preserveAspectRatio="none" style="width:690px;height:691px;background:#FFFFFF;" version="1.1" viewBox="0 0 690 691" width="690px" zoomAndPan="magnify"><defs/><g><text fill="#000000" font-family="sans-serif" font-size="14" font-weight="bold" lengthAdjust="spacing" textLength="285" x="204.75" y="29.5332">System Sequence Diagram (SSD) - UC021</text><rect fill="#FFFFFF" height="460.2734" style="stroke:#181818;stroke-width:1.0;" width="10" x="22.5" y="131.2188"/><rect fill="#FFFFFF" height="30.3516" style="stroke:#181818;stroke-width:1.0;" width="10" x="490.5" y="153.5703"/><rect fill="#FFFFFF" height="73.7031" style="stroke:#181818;stroke-width:1.0;" width="10" x="490.5" y="214.2734"/><rect fill="#FFFFFF" height="30.3516" style="stroke:#181818;stroke-width:1.0;" width="10" x="490.5" y="318.3281"/><rect fill="#FFFFFF" height="30.3516" style="stroke:#181818;stroke-width:1.0;" width="10" x="490.5" y="379.0313"/><rect fill="#FFFFFF" height="30.3516" style="stroke:#181818;stroke-width:1.0;" width="10" x="490.5" y="439.7344"/><rect fill="#FFFFFF" height="30.3516" style="stroke:#181818;stroke-width:1.0;" width="10" x="490.5" y="500.4375"/><rect fill="#FFFFFF" height="30.3516" style="stroke:#181818;stroke-width:1.0;" width="10" x="490.5" y="561.1406"/><line style="stroke:#181818;stroke-width:0.5;stroke-dasharray:5.0,5.0;" x1="27" x2="27" y1="121.2188" y2="609.4922"/><line style="stroke:#181818;stroke-width:0.5;stroke-dasharray:5.0,5.0;" x1="495.5" x2="495.5" y1="121.2188" y2="609.4922"/><text fill="#000000" font-family="sans-serif" font-size="14" lengthAdjust="spacing" textLength="39" x="5" y="118.1426">Admin</text><ellipse cx="27.5" cy="52.1094" fill="#E2E2F0" rx="8" ry="8" style="stroke:#181818;stroke-width:0.5;"/><path d="M27.5,60.1094 L27.5,87.1094 M14.5,68.1094 L40.5,68.1094 M27.5,87.1094 L14.5,102.1094 M27.5,87.1094 L40.5,102.1094 " fill="none" style="stroke:#181818;stroke-width:0.5;"/><text fill="#000000" font-family="sans-serif" font-size="14" lengthAdjust="spacing" textLength="39" x="5" y="623.0254">Admin</text><ellipse cx="27.5" cy="634.6016" fill="#E2E2F0" rx="8" ry="8" style="stroke:#181818;stroke-width:0.5;"/><path d="M27.5,642.6016 L27.5,669.6016 M14.5,650.6016 L40.5,650.6016 M27.5,669.6016 L14.5,684.6016 M27.5,669.6016 L40.5,684.6016 " fill="none" style="stroke:#181818;stroke-width:0.5;"/><rect fill="#E2E2F0" height="31.6094" rx="2.5" ry="2.5" style="stroke:#181818;stroke-width:0.5;" width="64" x="463.5" y="88.6094"/><text fill="#000000" font-family="sans-serif" font-size="14" lengthAdjust="spacing" textLength="50" x="470.5" y="110.1426">:System</text><rect fill="#E2E2F0" height="31.6094" rx="2.5" ry="2.5" style="stroke:#181818;stroke-width:0.5;" width="64" x="463.5" y="608.4922"/><text fill="#000000" font-family="sans-serif" font-size="14" lengthAdjust="spacing" textLength="50" x="470.5" y="630.0254">:System</text><rect fill="#FFFFFF" height="460.2734" style="stroke:#181818;stroke-width:1.0;" width="10" x="22.5" y="131.2188"/><rect fill="#FFFFFF" height="30.3516" style="stroke:#181818;stroke-width:1.0;" width="10" x="490.5" y="153.5703"/><rect fill="#FFFFFF" height="73.7031" style="stroke:#181818;stroke-width:1.0;" width="10" x="490.5" y="214.2734"/><rect fill="#FFFFFF" height="30.3516" style="stroke:#181818;stroke-width:1.0;" width="10" x="490.5" y="318.3281"/><rect fill="#FFFFFF" height="30.3516" style="stroke:#181818;stroke-width:1.0;" width="10" x="490.5" y="379.0313"/><rect fill="#FFFFFF" height="30.3516" style="stroke:#181818;stroke-width:1.0;" width="10" x="490.5" y="439.7344"/><rect fill="#FFFFFF" height="30.3516" style="stroke:#181818;stroke-width:1.0;" width="10" x="490.5" y="500.4375"/><rect fill="#FFFFFF" height="30.3516" style="stroke:#181818;stroke-width:1.0;" width="10" x="490.5" y="561.1406"/><polygon fill="#181818" points="478.5,149.5703,488.5,153.5703,478.5,157.5703,482.5,153.5703" style="stroke:#181818;stroke-width:1.0;"/><line style="stroke:#181818;stroke-width:1.0;" x1="32.5" x2="484.5" y1="153.5703" y2="153.5703"/><text fill="#000000" font-family="sans-serif" font-size="13" lengthAdjust="spacing" textLength="158" x="39.5" y="148.7139">Edit existing operation type</text><polygon fill="#181818" points="43.5,179.9219,33.5,183.9219,43.5,187.9219,39.5,183.9219" style="stroke:#181818;stroke-width:1.0;"/><line style="stroke:#181818;stroke-width:1.0;stroke-dasharray:2.0,2.0;" x1="37.5" x2="494.5" y1="183.9219" y2="183.9219"/><text fill="#000000" font-family="sans-serif" font-size="13" lengthAdjust="spacing" textLength="104" x="49.5" y="179.0654">Ask for new name</text><polygon fill="#181818" points="478.5,210.2734,488.5,214.2734,478.5,218.2734,482.5,214.2734" style="stroke:#181818;stroke-width:1.0;"/><line style="stroke:#181818;stroke-width:1.0;" x1="32.5" x2="484.5" y1="214.2734" y2="214.2734"/><text fill="#000000" font-family="sans-serif" font-size="13" lengthAdjust="spacing" textLength="171" x="39.5" y="209.417">Provide new operation's name</text><line style="stroke:#181818;stroke-width:1.0;" x1="500.5" x2="542.5" y1="244.625" y2="244.625"/><line style="stroke:#181818;stroke-width:1.0;" x1="542.5" x2="542.5" y1="244.625" y2="257.625"/><line style="stroke:#181818;stroke-width:1.0;" x1="501.5" x2="542.5" y1="257.625" y2="257.625"/><polygon fill="#181818" points="511.5,253.625,501.5,257.625,511.5,261.625,507.5,257.625" style="stroke:#181818;stroke-width:1.0;"/><text fill="#000000" font-family="sans-serif" font-size="13" lengthAdjust="spacing" textLength="176" x="507.5" y="239.7686">Validate new operation's name</text><polygon fill="#181818" points="43.5,283.9766,33.5,287.9766,43.5,291.9766,39.5,287.9766" style="stroke:#181818;stroke-width:1.0;"/><line style="stroke:#181818;stroke-width:1.0;stroke-dasharray:2.0,2.0;" x1="37.5" x2="494.5" y1="287.9766" y2="287.9766"/><text fill="#000000" font-family="sans-serif" font-size="13" lengthAdjust="spacing" textLength="419" x="49.5" y="283.1201">Ask for new operation's anesthesia/preparation phase estimated duration</text><polygon fill="#181818" points="478.5,314.3281,488.5,318.3281,478.5,322.3281,482.5,318.3281" style="stroke:#181818;stroke-width:1.0;"/><line style="stroke:#181818;stroke-width:1.0;" x1="32.5" x2="484.5" y1="318.3281" y2="318.3281"/><text fill="#000000" font-family="sans-serif" font-size="13" lengthAdjust="spacing" textLength="420" x="39.5" y="313.4717">Provide new operation's anesthesia/preparation phase estimated duration</text><polygon fill="#181818" points="43.5,344.6797,33.5,348.6797,43.5,352.6797,39.5,348.6797" style="stroke:#181818;stroke-width:1.0;"/><line style="stroke:#181818;stroke-width:1.0;stroke-dasharray:2.0,2.0;" x1="37.5" x2="494.5" y1="348.6797" y2="348.6797"/><text fill="#000000" font-family="sans-serif" font-size="13" lengthAdjust="spacing" textLength="331" x="49.5" y="343.8232">Ask for new operation's surgery phase estimated duration</text><polygon fill="#181818" points="478.5,375.0313,488.5,379.0313,478.5,383.0313,482.5,379.0313" style="stroke:#181818;stroke-width:1.0;"/><line style="stroke:#181818;stroke-width:1.0;" x1="32.5" x2="484.5" y1="379.0313" y2="379.0313"/><text fill="#000000" font-family="sans-serif" font-size="13" lengthAdjust="spacing" textLength="332" x="39.5" y="374.1748">Provide new operation's surgery phase estimated duration</text><polygon fill="#181818" points="43.5,405.3828,33.5,409.3828,43.5,413.3828,39.5,409.3828" style="stroke:#181818;stroke-width:1.0;"/><line style="stroke:#181818;stroke-width:1.0;stroke-dasharray:2.0,2.0;" x1="37.5" x2="494.5" y1="409.3828" y2="409.3828"/><text fill="#000000" font-family="sans-serif" font-size="13" lengthAdjust="spacing" textLength="336" x="49.5" y="404.5264">Ask for new operation's cleaning phase estimated duration</text><polygon fill="#181818" points="478.5,435.7344,488.5,439.7344,478.5,443.7344,482.5,439.7344" style="stroke:#181818;stroke-width:1.0;"/><line style="stroke:#181818;stroke-width:1.0;" x1="32.5" x2="484.5" y1="439.7344" y2="439.7344"/><text fill="#000000" font-family="sans-serif" font-size="13" lengthAdjust="spacing" textLength="337" x="39.5" y="434.8779">Provide new operation's cleaning phase estimated duration</text><polygon fill="#181818" points="43.5,466.0859,33.5,470.0859,43.5,474.0859,39.5,470.0859" style="stroke:#181818;stroke-width:1.0;"/><line style="stroke:#181818;stroke-width:1.0;stroke-dasharray:2.0,2.0;" x1="37.5" x2="494.5" y1="470.0859" y2="470.0859"/><text fill="#000000" font-family="sans-serif" font-size="13" lengthAdjust="spacing" textLength="217" x="49.5" y="465.2295">Ask for new operation's specialization</text><polygon fill="#181818" points="478.5,496.4375,488.5,500.4375,478.5,504.4375,482.5,500.4375" style="stroke:#181818;stroke-width:1.0;"/><line style="stroke:#181818;stroke-width:1.0;" x1="32.5" x2="484.5" y1="500.4375" y2="500.4375"/><text fill="#000000" font-family="sans-serif" font-size="13" lengthAdjust="spacing" textLength="218" x="39.5" y="495.5811">Provide new operation's specialization</text><polygon fill="#181818" points="43.5,526.7891,33.5,530.7891,43.5,534.7891,39.5,530.7891" style="stroke:#181818;stroke-width:1.0;"/><line style="stroke:#181818;stroke-width:1.0;stroke-dasharray:2.0,2.0;" x1="37.5" x2="494.5" y1="530.7891" y2="530.7891"/><text fill="#000000" font-family="sans-serif" font-size="13" lengthAdjust="spacing" textLength="434" x="49.5" y="525.9326">Ask for new operation's required number of doctors, nurses and technicians</text><polygon fill="#181818" points="478.5,557.1406,488.5,561.1406,478.5,565.1406,482.5,561.1406" style="stroke:#181818;stroke-width:1.0;"/><line style="stroke:#181818;stroke-width:1.0;" x1="32.5" x2="484.5" y1="561.1406" y2="561.1406"/><text fill="#000000" font-family="sans-serif" font-size="13" lengthAdjust="spacing" textLength="342" x="39.5" y="556.2842">Provide number of doctors, nurses and technicians required</text><polygon fill="#181818" points="38.5,587.4922,28.5,591.4922,38.5,595.4922,34.5,591.4922" style="stroke:#181818;stroke-width:1.0;"/><line style="stroke:#181818;stroke-width:1.0;stroke-dasharray:2.0,2.0;" x1="32.5" x2="494.5" y1="591.4922" y2="591.4922"/><text fill="#000000" font-family="sans-serif" font-size="13" lengthAdjust="spacing" textLength="354" x="44.5" y="586.6357">Save edited operation type, making it available for schedulling</text><!--SRC=[jLHDJyCm3BttLrYx018J7ySTa2R67Qc2kvTugxKc3KbQ6ByUfvss0KCh-yWXYcBd-JqxUf5ZIP0lGoG3ERtLP1N1X77kqS1bda-kO0WlZxVtTncgM7aOQyCMCAH3vj17LkpGHXYCEfX12dR7BBtX1YErsHd8aWCC7rO98tZI784-E4IsSwWSUOnSMOXBHst-6c45cUxQBQqLyQ402ku8nc41Co5fwHqicWv1qq-CNKIUVTMmflRfciP5sC3i1DaciS5wnP9rIjq9relzzYkq5691WV76UPAUToro1GO22R6HMXfqtGLE8FgGYdlxiqzcgFsS_FASkdgLE5g8AWbj-ivdLDAlnl4pSQHOVlFdoIRm6_1eabvyYxrejxMPaeTg1hfAPXMkvSe7IXzQGoHLM74hjE4G8NsnrtJ-9ox7HiOeRYWwljlWDHXSf56BKsA3NE9KF3ir8gY2T5sM4ln3qTPDSk0l]--></g></svg>