<?xml version="1.0" encoding="us-ascii" standalone="no"?><svg xmlns="http://www.w3.org/2000/svg" xmlns:xlink="http://www.w3.org/1999/xlink" contentStyleType="text/css" height="397px" preserveAspectRatio="none" style="width:1147px;height:397px;background:#FFFFFF;" version="1.1" viewBox="0 0 1147 397" width="1147px" zoomAndPan="magnify"><defs/><g><text fill="#000000" font-family="sans-serif" font-size="14" font-weight="bold" lengthAdjust="spacing" textLength="194" x="469.5" y="24.5332">Domain Model (DM) - UC020</text><!--cluster OperationTypeAggregate--><g id="cluster_OperationTypeAggregate"><rect fill="none" height="276" rx="2.5" ry="2.5" style="stroke:#000000;stroke-width:1.5;" width="923" x="218" y="45.6094"/><text fill="#000000" font-family="sans-serif" font-size="14" font-weight="bold" lengthAdjust="spacing" textLength="176" x="591.5" y="62.1426">OperationTypeAggregate</text></g><!--class OperationType--><g id="elem_OperationType"><rect codeLine="16" fill="#F1F1F1" height="50.7031" id="OperationType" rx="2.5" ry="2.5" style="stroke:#181818;stroke-width:0.5;" width="101" x="234" y="205.1094"/><text fill="#000000" font-family="sans-serif" font-size="12" font-style="italic" lengthAdjust="spacing" textLength="67" x="251" y="222.5664">&#171;root entity&#187;</text><text fill="#000000" font-family="sans-serif" font-size="14" lengthAdjust="spacing" textLength="95" x="237" y="239.7363">OperationType</text><line style="stroke:#181818;stroke-width:0.5;" x1="235" x2="334" y1="247.8125" y2="247.8125"/></g><!--class OperationTypeID--><g id="elem_OperationTypeID"><rect codeLine="17" fill="#F1F1F1" height="50.7031" id="OperationTypeID" rx="2.5" ry="2.5" style="stroke:#181818;stroke-width:0.5;" width="114" x="479" y="254.1094"/><text fill="#000000" font-family="sans-serif" font-size="12" font-style="italic" lengthAdjust="spacing" textLength="81" x="495.5" y="271.5664">&#171;value object&#187;</text><text fill="#000000" font-family="sans-serif" font-size="14" lengthAdjust="spacing" textLength="108" x="482" y="288.7363">OperationTypeID</text><line style="stroke:#181818;stroke-width:0.5;" x1="480" x2="592" y1="296.8125" y2="296.8125"/></g><g id="elem_GMN5"><path d="M851.5,271.6094 L851.5,279.8694 L593.04,280.3694 L851.5,287.8694 L851.5,297.9609 A0,0 0 0 0 851.5,297.9609 L962.5,297.9609 A0,0 0 0 0 962.5,297.9609 L962.5,281.6094 L952.5,271.6094 L851.5,271.6094 A0,0 0 0 0 851.5,271.6094 " fill="#FEFFDD" style="stroke:#181818;stroke-width:0.5;"/><path d="M952.5,271.6094 L952.5,281.6094 L962.5,281.6094 L952.5,271.6094 " fill="#FEFFDD" style="stroke:#181818;stroke-width:0.5;"/><text fill="#000000" font-family="sans-serif" font-size="13" lengthAdjust="spacing" textLength="90" x="857.5" y="290.1045">unique identifier</text></g><!--class RequiredStaff--><g id="elem_RequiredStaff"><rect codeLine="19" fill="#F1F1F1" height="50.7031" id="RequiredStaff" rx="2.5" ry="2.5" style="stroke:#181818;stroke-width:0.5;" width="93" x="489.5" y="168.1094"/><text fill="#000000" font-family="sans-serif" font-size="12" font-style="italic" lengthAdjust="spacing" textLength="81" x="495.5" y="185.5664">&#171;value object&#187;</text><text fill="#000000" font-family="sans-serif" font-size="14" lengthAdjust="spacing" textLength="87" x="492.5" y="202.7363">RequiredStaff</text><line style="stroke:#181818;stroke-width:0.5;" x1="490.5" x2="581.5" y1="210.8125" y2="210.8125"/></g><!--class PhaseDetails--><g id="elem_PhaseDetails"><rect codeLine="20" fill="#F1F1F1" height="50.7031" id="PhaseDetails" rx="2.5" ry="2.5" style="stroke:#181818;stroke-width:0.5;" width="89" x="491.5" y="82.1094"/><text fill="#000000" font-family="sans-serif" font-size="12" font-style="italic" lengthAdjust="spacing" textLength="81" x="495.5" y="99.5664">&#171;value object&#187;</text><text fill="#000000" font-family="sans-serif" font-size="14" lengthAdjust="spacing" textLength="83" x="494.5" y="116.7363">PhaseDetails</text><line style="stroke:#181818;stroke-width:0.5;" x1="492.5" x2="579.5" y1="124.8125" y2="124.8125"/></g><!--class Phase--><g id="elem_Phase"><rect codeLine="21" fill="#F1F1F1" height="68.3125" id="Phase" rx="2.5" ry="2.5" style="stroke:#181818;stroke-width:0.5;" width="436" x="689" y="168.6094"/><text fill="#000000" font-family="sans-serif" font-size="12" font-style="italic" lengthAdjust="spacing" textLength="81" x="866.5" y="186.0664">&#171;value object&#187;</text><text fill="#000000" font-family="sans-serif" font-size="14" lengthAdjust="spacing" textLength="40" x="887" y="203.2363">Phase</text><line style="stroke:#181818;stroke-width:0.5;" x1="690" x2="1124" y1="211.3125" y2="211.3125"/><text fill="#000000" font-family="sans-serif" font-size="14" lengthAdjust="spacing" textLength="424" x="695" y="229.8457">ANAESTHESIA_PREPARATION, SURGERY_PROCESS, CLEANING</text></g><!--class Duration--><g id="elem_Duration"><rect codeLine="24" fill="#F1F1F1" height="50.7031" id="Duration" rx="2.5" ry="2.5" style="stroke:#181818;stroke-width:0.5;" width="83" x="865.5" y="82.1094"/><text fill="#000000" font-family="sans-serif" font-size="12" font-style="italic" lengthAdjust="spacing" textLength="81" x="866.5" y="99.5664">&#171;value object&#187;</text><text fill="#000000" font-family="sans-serif" font-size="14" lengthAdjust="spacing" textLength="54" x="880" y="116.7363">Duration</text><line style="stroke:#181818;stroke-width:0.5;" x1="866.5" x2="947.5" y1="124.8125" y2="124.8125"/></g><!--class Admin--><g id="elem_Admin"><rect codeLine="27" fill="#F1F1F1" height="50.7031" id="Admin" rx="2.5" ry="2.5" style="stroke:#181818;stroke-width:0.5;" width="107" x="7" y="205.1094"/><text fill="#000000" font-family="sans-serif" font-size="12" font-style="italic" lengthAdjust="spacing" textLength="105" x="8" y="222.5664">&#171;conceptual class&#187;</text><text fill="#000000" font-family="sans-serif" font-size="14" lengthAdjust="spacing" textLength="39" x="41" y="239.7363">Admin</text><line style="stroke:#181818;stroke-width:0.5;" x1="8" x2="113" y1="247.8125" y2="247.8125"/></g><!--class Name--><g id="elem_Name"><rect codeLine="28" fill="#F1F1F1" height="50.7031" id="Name" rx="2.5" ry="2.5" style="stroke:#181818;stroke-width:0.5;" width="83" x="494.5" y="340.1094"/><text fill="#000000" font-family="sans-serif" font-size="12" font-style="italic" lengthAdjust="spacing" textLength="81" x="495.5" y="357.5664">&#171;value object&#187;</text><text fill="#000000" font-family="sans-serif" font-size="14" lengthAdjust="spacing" textLength="36" x="518" y="374.7363">Name</text><line style="stroke:#181818;stroke-width:0.5;" x1="495.5" x2="576.5" y1="382.8125" y2="382.8125"/></g><!--class Specialization--><g id="elem_Specialization"><rect codeLine="29" fill="#F1F1F1" height="50.7031" id="Specialization" rx="2.5" ry="2.5" style="stroke:#181818;stroke-width:0.5;" width="92" x="14.5" y="119.1094"/><text fill="#000000" font-family="sans-serif" font-size="12" font-style="italic" lengthAdjust="spacing" textLength="81" x="20" y="136.5664">&#171;value object&#187;</text><text fill="#000000" font-family="sans-serif" font-size="14" lengthAdjust="spacing" textLength="86" x="17.5" y="153.7363">Specialization</text><line style="stroke:#181818;stroke-width:0.5;" x1="15.5" x2="105.5" y1="161.8125" y2="161.8125"/></g><!--link Admin to OperationType--><g id="link_Admin_OperationType"><path codeLine="31" d="M114.11,230.6094 C150.4,230.6094 198.32,230.6094 233.93,230.6094 " fill="none" id="Admin-OperationType" style="stroke:#181818;stroke-width:1.0;"/><polygon fill="#000000" points="154,221.7852,144.9549,218.8462,144.9549,224.7241,154,221.7852" style="stroke:#000000;stroke-width:1.0;"/><text fill="#000000" font-family="sans-serif" font-size="13" lengthAdjust="spacing" textLength="43" x="158" y="227.1045">creates</text><text fill="#000000" font-family="sans-serif" font-size="13" lengthAdjust="spacing" textLength="7" x="122.1411" y="245.2751">1</text><text fill="#000000" font-family="sans-serif" font-size="13" lengthAdjust="spacing" textLength="5" x="221.1353" y="245.3271">*</text></g><!--link OperationType to OperationTypeID--><g id="link_OperationType_OperationTypeID"><path codeLine="33" d="M335.09,240.3494 C376.59,248.4994 435.77,260.1194 478.98,268.6094 " fill="none" id="OperationType-OperationTypeID" style="stroke:#181818;stroke-width:1.0;"/><polygon fill="#000000" points="374.9063,238.7487,366.5971,234.1218,365.4644,239.8894,374.9063,238.7487" style="stroke:#000000;stroke-width:1.0;"/><text fill="#000000" font-family="sans-serif" font-size="13" lengthAdjust="spacing" textLength="69" x="379" y="243.1045">identified by</text><text fill="#000000" font-family="sans-serif" font-size="13" lengthAdjust="spacing" textLength="7" x="343.0345" y="256.4977">1</text><text fill="#000000" font-family="sans-serif" font-size="13" lengthAdjust="spacing" textLength="7" x="463.8476" y="281.7449">1</text></g><!--link OperationType to Name--><g id="link_OperationType_Name"><path codeLine="34" d="M317.35,256.1594 C331.49,266.8894 348.62,279.0594 365,288.6094 C407.41,313.3294 459.16,335.7594 494.34,349.9494 " fill="none" id="OperationType-Name" style="stroke:#181818;stroke-width:1.0;"/><polygon fill="#000000" points="398.418,282.1263,391.8019,275.2943,389.0496,280.4879,398.418,282.1263" style="stroke:#000000;stroke-width:1.0;"/><text fill="#000000" font-family="sans-serif" font-size="13" lengthAdjust="spacing" textLength="21" x="403" y="285.1045">has</text><text fill="#000000" font-family="sans-serif" font-size="13" lengthAdjust="spacing" textLength="7" x="317.1372" y="277.4879">1</text><text fill="#000000" font-family="sans-serif" font-size="13" lengthAdjust="spacing" textLength="7" x="479.5781" y="362.1837">1</text></g><!--link OperationType to RequiredStaff--><g id="link_OperationType_RequiredStaff"><path codeLine="35" d="M335.09,223.2594 C380,216.5994 445.62,206.8594 489.29,200.3894 " fill="none" id="OperationType-RequiredStaff" style="stroke:#181818;stroke-width:1.0;"/><polygon fill="#000000" points="391.9459,198.0516,382.5675,196.4715,383.4299,202.2857,391.9459,198.0516" style="stroke:#000000;stroke-width:1.0;"/><text fill="#000000" font-family="sans-serif" font-size="13" lengthAdjust="spacing" textLength="35" x="396" y="204.1045">needs</text><text fill="#000000" font-family="sans-serif" font-size="13" lengthAdjust="spacing" textLength="7" x="343.0345" y="236.8976">1</text><text fill="#000000" font-family="sans-serif" font-size="13" lengthAdjust="spacing" textLength="7" x="474.6016" y="216.1973">1</text></g><!--link OperationType to PhaseDetails--><g id="link_OperationType_PhaseDetails"><path codeLine="36" d="M324.49,205.0594 C337.19,197.1494 351.49,188.6694 365,181.6094 C406.8,159.7694 456.43,138.6994 491.24,124.6594 " fill="none" id="OperationType-PhaseDetails" style="stroke:#181818;stroke-width:1.0;"/><polygon fill="#000000" points="398.5038,132.6136,389.0799,133.8947,391.6327,139.1893,398.5038,132.6136" style="stroke:#000000;stroke-width:1.0;"/><text fill="#000000" font-family="sans-serif" font-size="13" lengthAdjust="spacing" textLength="21" x="403" y="140.1045">has</text><text fill="#000000" font-family="sans-serif" font-size="13" lengthAdjust="spacing" textLength="7" x="326.3844" y="194.4557">1</text><text fill="#000000" font-family="sans-serif" font-size="13" lengthAdjust="spacing" textLength="20" x="463.5394" y="141.7227">1..*</text></g><!--link PhaseDetails to Phase--><g id="link_PhaseDetails_Phase"><path codeLine="37" d="M580.65,121.1894 C594.19,125.2994 609.18,129.7394 623,133.6094 C666.71,145.8394 714.55,157.9794 758.26,168.5794 " fill="none" id="PhaseDetails-Phase" style="stroke:#181818;stroke-width:1.0;"/><polygon fill="#000000" points="632.831,126.0742,624.8493,120.9027,623.334,126.5819,632.831,126.0742" style="stroke:#000000;stroke-width:1.0;"/><text fill="#000000" font-family="sans-serif" font-size="13" lengthAdjust="spacing" textLength="21" x="637" y="130.1045">has</text><text fill="#000000" font-family="sans-serif" font-size="13" lengthAdjust="spacing" textLength="7" x="588.6248" y="138.3124">1</text><text fill="#000000" font-family="sans-serif" font-size="13" lengthAdjust="spacing" textLength="7" x="721.2878" y="157.8037">1</text></g><!--link PhaseDetails to Duration--><g id="link_PhaseDetails_Duration"><path codeLine="38" d="M580.78,107.6094 C652.85,107.6094 795.44,107.6094 865.38,107.6094 " fill="none" id="PhaseDetails-Duration" style="stroke:#181818;stroke-width:1.0;"/><polygon fill="#000000" points="633,98.7852,623.9549,95.8462,623.9549,101.7241,633,98.7852" style="stroke:#000000;stroke-width:1.0;"/><text fill="#000000" font-family="sans-serif" font-size="13" lengthAdjust="spacing" textLength="21" x="637" y="104.1045">has</text><text fill="#000000" font-family="sans-serif" font-size="13" lengthAdjust="spacing" textLength="7" x="588.4746" y="103.8812">1</text><text fill="#000000" font-family="sans-serif" font-size="13" lengthAdjust="spacing" textLength="7" x="850.625" y="122.5352">1</text></g><!--SRC=[XP91Rvmm48Nl_XKZJcsLZP8ULz5AQ449KiEkO7F8gVB204wCJUoXrQRAVwzPs1IoHV49URvvRyOF-onKmmsleU7PCoynfOD4C9WHLwL4Pjy1M_5S_nQgX89BYsnKoYItrYSoOjyIHfbMgNX5k6ACT0EaOQ-9T0svw8I5LanYGLt1YBAYqJshH8wG2PCvx-DtZLJft3efGMwoGDTSABZNEKhu4jn_XGKyhA- -EwzX0_0s3HhUoUqE3VfbQR3aX1xyOU3ESLYOC71pOxGcGELC3glL71S5Zlp5POkWzqzkv05Lcd1OHHSVMvRGAl7YMjmsJhyGQ4Rw2RwqRliy9LuK_rVlmMt5BGP8N4ZxANS63Bjtnu_zCDtTXMda_zmcuTPF_5sqYIyWVKXkm-JHNMxMOPfUmFf7wCTHV7jiVHjv16s_uFaSRuprY9_NegkxVo73Xbek-rx7z43Cw_CnXrhQO2Qu5AypBgnNzwuzM2p0- -PzY7C9cK4NkGN7JakddcllBDebhFvbbCF-CDzw7BxZtMFFKzDiErmXvhCDbvTkaKdC9uV9vSYWp_epwZsj4_WN]--></g></svg>