<?xml version="1.0" encoding="us-ascii" standalone="no"?><svg xmlns="http://www.w3.org/2000/svg" xmlns:xlink="http://www.w3.org/1999/xlink" contentStyleType="text/css" height="470px" preserveAspectRatio="none" style="width:1185px;height:470px;background:#FFFFFF;" version="1.1" viewBox="0 0 1185 470" width="1185px" zoomAndPan="magnify"><defs/><g><text fill="#000000" font-family="sans-serif" font-size="14" font-weight="bold" lengthAdjust="spacing" textLength="194" x="488.5" y="24.5332">Domain Model (DM) - UC020</text><!--cluster OperationTypeAggregate--><g id="cluster_OperationTypeAggregate"><rect fill="none" height="362" rx="2.5" ry="2.5" style="stroke:#000000;stroke-width:1.5;" width="961" x="218" y="45.6094"/><text fill="#000000" font-family="sans-serif" font-size="14" font-weight="bold" lengthAdjust="spacing" textLength="176" x="610.5" y="62.1426">OperationTypeAggregate</text></g><!--class OperationType--><g id="elem_OperationType"><rect codeLine="17" fill="#F1F1F1" height="50.7031" id="OperationType" rx="2.5" ry="2.5" style="stroke:#181818;stroke-width:0.5;" width="101" x="234" y="211.1094"/><text fill="#000000" font-family="sans-serif" font-size="12" font-style="italic" lengthAdjust="spacing" textLength="67" x="251" y="228.5664">&#171;root entity&#187;</text><text fill="#000000" font-family="sans-serif" font-size="14" lengthAdjust="spacing" textLength="95" x="237" y="245.7363">OperationType</text><line style="stroke:#181818;stroke-width:0.5;" x1="235" x2="334" y1="253.8125" y2="253.8125"/></g><!--class OperationTypeID--><g id="elem_OperationTypeID"><rect codeLine="18" fill="#F1F1F1" height="50.7031" id="OperationTypeID" rx="2.5" ry="2.5" style="stroke:#181818;stroke-width:0.5;" width="114" x="498" y="340.1094"/><text fill="#000000" font-family="sans-serif" font-size="12" font-style="italic" lengthAdjust="spacing" textLength="81" x="514.5" y="357.5664">&#171;value object&#187;</text><text fill="#000000" font-family="sans-serif" font-size="14" lengthAdjust="spacing" textLength="108" x="501" y="374.7363">OperationTypeID</text><line style="stroke:#181818;stroke-width:0.5;" x1="499" x2="611" y1="382.8125" y2="382.8125"/></g><g id="elem_GMN5"><path d="M889.5,352.6094 L889.5,361.6094 L612,365.6094 L889.5,369.6094 L889.5,378.9609 A0,0 0 0 0 889.5,378.9609 L1000.5,378.9609 A0,0 0 0 0 1000.5,378.9609 L1000.5,362.6094 L990.5,352.6094 L889.5,352.6094 A0,0 0 0 0 889.5,352.6094 " fill="#FEFFDD" style="stroke:#181818;stroke-width:0.5;"/><path d="M990.5,352.6094 L990.5,362.6094 L1000.5,362.6094 L990.5,352.6094 " fill="#FEFFDD" style="stroke:#181818;stroke-width:0.5;"/><text fill="#000000" font-family="sans-serif" font-size="13" lengthAdjust="spacing" textLength="90" x="895.5" y="371.1045">unique identifier</text></g><!--class OperationTypeName--><g id="elem_OperationTypeName"><rect codeLine="20" fill="#F1F1F1" height="50.7031" id="OperationTypeName" rx="2.5" ry="2.5" style="stroke:#181818;stroke-width:0.5;" width="137" x="486.5" y="254.1094"/><text fill="#000000" font-family="sans-serif" font-size="12" font-style="italic" lengthAdjust="spacing" textLength="81" x="514.5" y="271.5664">&#171;value object&#187;</text><text fill="#000000" font-family="sans-serif" font-size="14" lengthAdjust="spacing" textLength="131" x="489.5" y="288.7363">OperationTypeName</text><line style="stroke:#181818;stroke-width:0.5;" x1="487.5" x2="622.5" y1="296.8125" y2="296.8125"/></g><!--class RequiredStaff--><g id="elem_RequiredStaff"><rect codeLine="21" fill="#F1F1F1" height="50.7031" id="RequiredStaff" rx="2.5" ry="2.5" style="stroke:#181818;stroke-width:0.5;" width="93" x="508.5" y="168.1094"/><text fill="#000000" font-family="sans-serif" font-size="12" font-style="italic" lengthAdjust="spacing" textLength="81" x="514.5" y="185.5664">&#171;value object&#187;</text><text fill="#000000" font-family="sans-serif" font-size="14" lengthAdjust="spacing" textLength="87" x="511.5" y="202.7363">RequiredStaff</text><line style="stroke:#181818;stroke-width:0.5;" x1="509.5" x2="600.5" y1="210.8125" y2="210.8125"/></g><!--class OperationPhaseDetails--><g id="elem_OperationPhaseDetails"><rect codeLine="22" fill="#F1F1F1" height="50.7031" id="OperationPhaseDetails" rx="2.5" ry="2.5" style="stroke:#181818;stroke-width:0.5;" width="152" x="479" y="82.1094"/><text fill="#000000" font-family="sans-serif" font-size="12" font-style="italic" lengthAdjust="spacing" textLength="81" x="514.5" y="99.5664">&#171;value object&#187;</text><text fill="#000000" font-family="sans-serif" font-size="14" lengthAdjust="spacing" textLength="146" x="482" y="116.7363">OperationPhaseDetails</text><line style="stroke:#181818;stroke-width:0.5;" x1="480" x2="630" y1="124.8125" y2="124.8125"/></g><!--class OperationPhase--><g id="elem_OperationPhase"><rect codeLine="23" fill="#F1F1F1" height="68.3125" id="OperationPhase" rx="2.5" ry="2.5" style="stroke:#181818;stroke-width:0.5;" width="436" x="727" y="81.6094"/><text fill="#000000" font-family="sans-serif" font-size="12" font-style="italic" lengthAdjust="spacing" textLength="81" x="904.5" y="99.0664">&#171;value object&#187;</text><text fill="#000000" font-family="sans-serif" font-size="14" lengthAdjust="spacing" textLength="103" x="893.5" y="116.2363">OperationPhase</text><line style="stroke:#181818;stroke-width:0.5;" x1="728" x2="1162" y1="124.3125" y2="124.3125"/><text fill="#000000" font-family="sans-serif" font-size="14" lengthAdjust="spacing" textLength="424" x="733" y="142.8457">ANAESTHESIA_PREPARATION, SURGERY_PROCESS, CLEANING</text></g><!--class Admin--><g id="elem_Admin"><rect codeLine="28" fill="#F1F1F1" height="50.7031" id="Admin" rx="2.5" ry="2.5" style="stroke:#181818;stroke-width:0.5;" width="107" x="7" y="211.1094"/><text fill="#000000" font-family="sans-serif" font-size="12" font-style="italic" lengthAdjust="spacing" textLength="105" x="8" y="228.5664">&#171;conceptual class&#187;</text><text fill="#000000" font-family="sans-serif" font-size="14" lengthAdjust="spacing" textLength="39" x="41" y="245.7363">Admin</text><line style="stroke:#181818;stroke-width:0.5;" x1="8" x2="113" y1="253.8125" y2="253.8125"/></g><!--class Time--><g id="elem_Time"><rect fill="#F1F1F1" height="35.6094" id="Time" rx="2.5" ry="2.5" style="stroke:#181818;stroke-width:0.5;" width="37" x="926.5" y="423.6094"/><text fill="#000000" font-family="sans-serif" font-size="14" lengthAdjust="spacing" textLength="31" x="929.5" y="443.1426">Time</text><line style="stroke:#181818;stroke-width:0.5;" x1="927.5" x2="962.5" y1="451.2188" y2="451.2188"/></g><!--link Admin to OperationType--><g id="link_Admin_OperationType"><path codeLine="30" d="M114.11,236.6094 C150.4,236.6094 198.32,236.6094 233.93,236.6094 " fill="none" id="Admin-OperationType" style="stroke:#181818;stroke-width:1.0;"/><polygon fill="#000000" points="154,227.7852,144.9549,224.8462,144.9549,230.7241,154,227.7852" style="stroke:#000000;stroke-width:1.0;"/><text fill="#000000" font-family="sans-serif" font-size="13" lengthAdjust="spacing" textLength="43" x="158" y="233.1045">creates</text><text fill="#000000" font-family="sans-serif" font-size="13" lengthAdjust="spacing" textLength="7" x="122.1411" y="251.2751">1</text><text fill="#000000" font-family="sans-serif" font-size="13" lengthAdjust="spacing" textLength="5" x="221.1353" y="251.3271">*</text></g><!--link OperationType to OperationTypeID--><g id="link_OperationType_OperationTypeID"><path codeLine="31" d="M312.93,262.1294 C327.55,274.6994 346.33,289.3394 365,299.6094 C407.17,322.8194 459.03,340.2294 497.76,351.3294 " fill="none" id="OperationType-OperationTypeID" style="stroke:#181818;stroke-width:1.0;"/><polygon fill="#000000" points="374.503,292.9583,367.6343,286.3802,365.0796,291.6738,374.503,292.9583" style="stroke:#000000;stroke-width:1.0;"/><text fill="#000000" font-family="sans-serif" font-size="13" lengthAdjust="spacing" textLength="69" x="379" y="296.1045">identified by</text><text fill="#000000" font-family="sans-serif" font-size="13" lengthAdjust="spacing" textLength="7" x="311.6951" y="283.451">1</text><text fill="#000000" font-family="sans-serif" font-size="13" lengthAdjust="spacing" textLength="7" x="482.9777" y="364.0614">1</text></g><!--link OperationType to OperationTypeName--><g id="link_OperationType_OperationTypeName"><path codeLine="32" d="M335.12,253.9694 C344.93,256.8994 355.22,259.6294 365,261.6094 C404.74,269.6594 449.92,274.1294 486.14,276.5994 " fill="none" id="OperationType-OperationTypeName" style="stroke:#181818;stroke-width:1.0;"/><polygon fill="#000000" points="398.9448,253.5261,390.4351,249.2792,389.5641,255.0922,398.9448,253.5261" style="stroke:#000000;stroke-width:1.0;"/><text fill="#000000" font-family="sans-serif" font-size="13" lengthAdjust="spacing" textLength="21" x="403" y="258.1045">has</text><text fill="#000000" font-family="sans-serif" font-size="13" lengthAdjust="spacing" textLength="7" x="343.0689" y="271.2369">1</text><text fill="#000000" font-family="sans-serif" font-size="13" lengthAdjust="spacing" textLength="7" x="471.6779" y="290.6425">1</text></g><!--link OperationType to RequiredStaff--><g id="link_OperationType_RequiredStaff"><path codeLine="33" d="M335.06,228.6794 C384.61,220.7394 460.17,208.6394 508.31,200.9294 " fill="none" id="OperationType-RequiredStaff" style="stroke:#181818;stroke-width:1.0;"/><polygon fill="#000000" points="391.9371,201.9944,382.541,200.523,383.4706,206.3269,391.9371,201.9944" style="stroke:#000000;stroke-width:1.0;"/><text fill="#000000" font-family="sans-serif" font-size="13" lengthAdjust="spacing" textLength="35" x="396" y="208.1045">needs</text><text fill="#000000" font-family="sans-serif" font-size="13" lengthAdjust="spacing" textLength="7" x="343.0001" y="242.2324">1</text><text fill="#000000" font-family="sans-serif" font-size="13" lengthAdjust="spacing" textLength="7" x="493.6247" y="216.82">1</text></g><!--link OperationType to OperationPhaseDetails--><g id="link_OperationType_OperationPhaseDetails"><path codeLine="34" d="M322.29,211.0694 C335.46,202.4494 350.61,193.1194 365,185.6094 C403.08,165.7494 447.39,147.2294 483.52,133.2294 " fill="none" id="OperationType-OperationPhaseDetails" style="stroke:#181818;stroke-width:1.0;"/><polygon fill="#000000" points="398.5027,137.6113,389.0795,138.8972,391.635,144.1905,398.5027,137.6113" style="stroke:#000000;stroke-width:1.0;"/><text fill="#000000" font-family="sans-serif" font-size="13" lengthAdjust="spacing" textLength="21" x="403" y="145.1045">has</text><text fill="#000000" font-family="sans-serif" font-size="13" lengthAdjust="spacing" textLength="7" x="324.0768" y="200.0529">1</text><text fill="#000000" font-family="sans-serif" font-size="13" lengthAdjust="spacing" textLength="20" x="451.0434" y="151.9222">1..*</text></g><!--link OperationPhaseDetails to OperationPhase--><g id="link_OperationPhaseDetails_OperationPhase"><path codeLine="35" d="M631.27,109.1694 C659.26,109.7394 692.6,110.4294 726.92,111.1394 " fill="none" id="OperationPhaseDetails-OperationPhase" style="stroke:#181818;stroke-width:1.0;"/><polygon fill="#000000" points="670.9989,101.8881,662.0163,98.7636,661.8953,104.6402,670.9989,101.8881" style="stroke:#000000;stroke-width:1.0;"/><text fill="#000000" font-family="sans-serif" font-size="13" lengthAdjust="spacing" textLength="21" x="675" y="107.1045">has</text><text fill="#000000" font-family="sans-serif" font-size="13" lengthAdjust="spacing" textLength="7" x="639.1224" y="123.6375">1</text><text fill="#000000" font-family="sans-serif" font-size="13" lengthAdjust="spacing" textLength="7" x="711.957" y="124.7621">1</text></g><!--link OperationPhaseDetails to Time--><g id="link_OperationPhaseDetails_Time"><path codeLine="36" d="M611.46,133.3394 C618.67,138.3394 625.46,144.0894 631,150.6094 C709.91,243.5694 632.53,330.5294 727,407.6094 C786.39,456.0694 886.29,449.3894 926.48,444.2894 " fill="none" id="OperationPhaseDetails-Time" style="stroke:#181818;stroke-width:1.0;"/><polygon fill="#000000" points="669.5584,201.2976,665.1857,192.8519,661.0566,197.0351,669.5584,201.2976" style="stroke:#000000;stroke-width:1.0;"/><text fill="#000000" font-family="sans-serif" font-size="13" lengthAdjust="spacing" textLength="21" x="675" y="203.1045">has</text><text fill="#000000" font-family="sans-serif" font-size="13" lengthAdjust="spacing" textLength="7" x="616.045" y="154.2839">1</text><text fill="#000000" font-family="sans-serif" font-size="13" lengthAdjust="spacing" textLength="7" x="911.6354" y="461.7214">1</text></g><!--SRC=[fL91Rjim4Bpp5GkTsY8EaXuDmm1X2wc0HZOavz1JGOihYGr5AkIgXLlaxwKiDxNYk31GdWZkpCxE3lsZCgrmee5M58-Ymfns6i5XGS9K6fb_0VXQIFj3cGfAeJsoerAXXVUSoAbjHvWKrkJg9y8DOsHR80jRIsGRaAflhAnX6alg2qvLDHszirf9X4Av8cZlxmrIRQKFhHI5oPQs4Sh0lPMeuTto_ZrCu65nyp5e7Hn0j6hHYRxTPjSYhog7bI2Cu1U3SFR3mWW3ivcpbW1D4DdDv_-BIvO1-Lte3i5klmLh1wYnX0VBjdnDcK9dr5EW1DUXVwdGdUkVYWRVLXZ06JvrOQKo9r6M_mA-T5tNmkCIIIZjBoUS80yhxWzFUPnlFiLvmh-kitZDCxv9LkaLv0_PNPnz2O-hHPpdLx3u7FCqIU_sr6VspDYWnMKJafxDmdSgiALEw668C10RQj5j19C9H1-YLpbDeN0OClSmP-FA7yfjT1BP5EP_TozXkxkGka-Z9uULdAUCC-dX1b6U9LnV7viQnNCYDQg-DUKGriMyZJeoz1i0]--></g></svg>