<?xml version="1.0" encoding="us-ascii" standalone="no"?><svg xmlns="http://www.w3.org/2000/svg" xmlns:xlink="http://www.w3.org/1999/xlink" contentStyleType="text/css" height="617px" preserveAspectRatio="none" style="width:1734px;height:617px;background:#FFFFFF;" version="1.1" viewBox="0 0 1734 617" width="1734px" zoomAndPan="magnify"><defs/><g><text fill="#000000" font-family="sans-serif" font-size="14" font-weight="bold" lengthAdjust="spacing" textLength="194" x="763" y="24.5332">Domain Model (DM) - UC020</text><!--cluster OperationTypeAggregate--><g id="cluster_OperationTypeAggregate"><rect fill="none" height="355" rx="2.5" ry="2.5" style="stroke:#000000;stroke-width:1.5;" width="959" x="218" y="115.1094"/><text fill="#000000" font-family="sans-serif" font-size="14" font-weight="bold" lengthAdjust="spacing" textLength="176" x="609.5" y="131.6426">OperationTypeAggregate</text></g><!--class OperationType--><g id="elem_OperationType"><rect codeLine="16" fill="#F1F1F1" height="50.7031" id="OperationType" rx="2.5" ry="2.5" style="stroke:#181818;stroke-width:0.5;" width="101" x="234" y="393.6094"/><text fill="#000000" font-family="sans-serif" font-size="12" font-style="italic" lengthAdjust="spacing" textLength="67" x="251" y="411.0664">&#171;root entity&#187;</text><text fill="#000000" font-family="sans-serif" font-size="14" lengthAdjust="spacing" textLength="95" x="237" y="428.2363">OperationType</text><line style="stroke:#181818;stroke-width:0.5;" x1="235" x2="334" y1="436.3125" y2="436.3125"/></g><!--class OperationTypeID--><g id="elem_OperationTypeID"><rect codeLine="17" fill="#F1F1F1" height="50.7031" id="OperationTypeID" rx="2.5" ry="2.5" style="stroke:#181818;stroke-width:0.5;" width="114" x="479" y="205.6094"/><text fill="#000000" font-family="sans-serif" font-size="12" font-style="italic" lengthAdjust="spacing" textLength="81" x="495.5" y="223.0664">&#171;value object&#187;</text><text fill="#000000" font-family="sans-serif" font-size="14" lengthAdjust="spacing" textLength="108" x="482" y="240.2363">OperationTypeID</text><line style="stroke:#181818;stroke-width:0.5;" x1="480" x2="592" y1="248.3125" y2="248.3125"/></g><g id="elem_GMN5"><path d="M887.5,151.1094 L887.5,177.4609 L998.5,177.4609 L998.5,161.1094 L988.5,151.1094 L887.5,151.1094 " fill="#FEFFDD" style="stroke:#181818;stroke-width:0.5;"/><path d="M988.5,151.1094 L988.5,161.1094 L998.5,161.1094 L988.5,151.1094 " fill="#FEFFDD" style="stroke:#181818;stroke-width:1.0;"/><text fill="#000000" font-family="sans-serif" font-size="13" lengthAdjust="spacing" textLength="90" x="893.5" y="169.6045">unique identifier</text></g><!--class RequiredStaff--><g id="elem_RequiredStaff"><rect codeLine="19" fill="#F1F1F1" height="50.7031" id="RequiredStaff" rx="2.5" ry="2.5" style="stroke:#181818;stroke-width:0.5;" width="93" x="489.5" y="393.6094"/><text fill="#000000" font-family="sans-serif" font-size="12" font-style="italic" lengthAdjust="spacing" textLength="81" x="495.5" y="411.0664">&#171;value object&#187;</text><text fill="#000000" font-family="sans-serif" font-size="14" lengthAdjust="spacing" textLength="87" x="492.5" y="428.2363">RequiredStaff</text><line style="stroke:#181818;stroke-width:0.5;" x1="490.5" x2="581.5" y1="436.3125" y2="436.3125"/></g><!--class PhaseDetails--><g id="elem_PhaseDetails"><rect codeLine="20" fill="#F1F1F1" height="50.7031" id="PhaseDetails" rx="2.5" ry="2.5" style="stroke:#181818;stroke-width:0.5;" width="89" x="491.5" y="307.6094"/><text fill="#000000" font-family="sans-serif" font-size="12" font-style="italic" lengthAdjust="spacing" textLength="81" x="495.5" y="325.0664">&#171;value object&#187;</text><text fill="#000000" font-family="sans-serif" font-size="14" lengthAdjust="spacing" textLength="83" x="494.5" y="342.2363">PhaseDetails</text><line style="stroke:#181818;stroke-width:0.5;" x1="492.5" x2="579.5" y1="350.3125" y2="350.3125"/></g><!--class Phase--><g id="elem_Phase"><rect codeLine="21" fill="#F1F1F1" height="68.3125" id="Phase" rx="2.5" ry="2.5" style="stroke:#181818;stroke-width:0.5;" width="436" x="725" y="299.1094"/><text fill="#000000" font-family="sans-serif" font-size="12" font-style="italic" lengthAdjust="spacing" textLength="81" x="902.5" y="316.5664">&#171;value object&#187;</text><text fill="#000000" font-family="sans-serif" font-size="14" lengthAdjust="spacing" textLength="40" x="923" y="333.7363">Phase</text><line style="stroke:#181818;stroke-width:0.5;" x1="726" x2="1160" y1="341.8125" y2="341.8125"/><text fill="#000000" font-family="sans-serif" font-size="14" lengthAdjust="spacing" textLength="424" x="731" y="360.3457">ANAESTHESIA_PREPARATION, SURGERY_PROCESS, CLEANING</text></g><!--class Duration--><g id="elem_Duration"><rect codeLine="24" fill="#F1F1F1" height="50.7031" id="Duration" rx="2.5" ry="2.5" style="stroke:#181818;stroke-width:0.5;" width="83" x="901.5" y="212.6094"/><text fill="#000000" font-family="sans-serif" font-size="12" font-style="italic" lengthAdjust="spacing" textLength="81" x="902.5" y="230.0664">&#171;value object&#187;</text><text fill="#000000" font-family="sans-serif" font-size="14" lengthAdjust="spacing" textLength="54" x="916" y="247.2363">Duration</text><line style="stroke:#181818;stroke-width:0.5;" x1="902.5" x2="983.5" y1="255.3125" y2="255.3125"/></g><!--class Quantity--><g id="elem_Quantity"><rect codeLine="25" fill="#F1F1F1" height="50.7031" id="Quantity" rx="2.5" ry="2.5" style="stroke:#181818;stroke-width:0.5;" width="83" x="901.5" y="402.6094"/><text fill="#000000" font-family="sans-serif" font-size="12" font-style="italic" lengthAdjust="spacing" textLength="81" x="902.5" y="420.0664">&#171;value object&#187;</text><text fill="#000000" font-family="sans-serif" font-size="14" lengthAdjust="spacing" textLength="53" x="916.5" y="437.2363">Quantity</text><line style="stroke:#181818;stroke-width:0.5;" x1="902.5" x2="983.5" y1="445.3125" y2="445.3125"/></g><!--class Admin--><g id="elem_Admin"><rect codeLine="28" fill="#F1F1F1" height="50.7031" id="Admin" rx="2.5" ry="2.5" style="stroke:#181818;stroke-width:0.5;" width="107" x="7" y="393.6094"/><text fill="#000000" font-family="sans-serif" font-size="12" font-style="italic" lengthAdjust="spacing" textLength="105" x="8" y="411.0664">&#171;conceptual class&#187;</text><text fill="#000000" font-family="sans-serif" font-size="14" lengthAdjust="spacing" textLength="39" x="41" y="428.2363">Admin</text><line style="stroke:#181818;stroke-width:0.5;" x1="8" x2="113" y1="436.3125" y2="436.3125"/></g><!--class Name--><g id="elem_Name"><rect codeLine="29" fill="#F1F1F1" height="50.7031" id="Name" rx="2.5" ry="2.5" style="stroke:#181818;stroke-width:0.5;" width="83" x="494.5" y="486.6094"/><text fill="#000000" font-family="sans-serif" font-size="12" font-style="italic" lengthAdjust="spacing" textLength="81" x="495.5" y="504.0664">&#171;value object&#187;</text><text fill="#000000" font-family="sans-serif" font-size="14" lengthAdjust="spacing" textLength="36" x="518" y="521.2363">Name</text><line style="stroke:#181818;stroke-width:0.5;" x1="495.5" x2="576.5" y1="529.3125" y2="529.3125"/></g><!--class Specialization--><g id="elem_Specialization"><rect codeLine="30" fill="#F1F1F1" height="68.3125" id="Specialization" rx="2.5" ry="2.5" style="stroke:#181818;stroke-width:0.5;" width="354" x="766" y="528.1094"/><text fill="#000000" font-family="sans-serif" font-size="12" font-style="italic" lengthAdjust="spacing" textLength="81" x="902.5" y="545.5664">&#171;value object&#187;</text><text fill="#000000" font-family="sans-serif" font-size="14" lengthAdjust="spacing" textLength="86" x="900" y="562.7363">Specialization</text><line style="stroke:#181818;stroke-width:0.5;" x1="767" x2="1119" y1="570.8125" y2="570.8125"/><text fill="#000000" font-family="sans-serif" font-size="14" lengthAdjust="spacing" textLength="342" x="772" y="589.3457">ANAESTHESIOLOGY, CARDIOLOGY, ORTHOPEDICS</text></g><!--class Role--><g id="elem_Role"><rect codeLine="33" fill="#F1F1F1" height="53.2188" id="Role" rx="2.5" ry="2.5" style="stroke:#181818;stroke-width:0.5;" width="330" x="778" y="45.6094"/><text fill="#000000" font-family="sans-serif" font-size="14" lengthAdjust="spacing" textLength="29" x="928.5" y="65.1426">Role</text><line style="stroke:#181818;stroke-width:0.5;" x1="779" x2="1107" y1="73.2188" y2="73.2188"/><text fill="#000000" font-family="sans-serif" font-size="14" lengthAdjust="spacing" textLength="318" x="784" y="91.752">ADMIN, DOCTOR, NURSE, TECHNICIAN, PATIENT</text></g><g id="elem_GMN17"><path d="M1224,59.1094 L1224,68.1094 L1108.22,72.1094 L1224,76.1094 L1224,85.4609 A0,0 0 0 0 1224,85.4609 L1727,85.4609 A0,0 0 0 0 1727,85.4609 L1727,69.1094 L1717,59.1094 L1224,59.1094 A0,0 0 0 0 1224,59.1094 " fill="#FEFFDD" style="stroke:#181818;stroke-width:0.5;"/><path d="M1717,59.1094 L1717,69.1094 L1727,69.1094 L1717,59.1094 " fill="#FEFFDD" style="stroke:#181818;stroke-width:0.5;"/><text fill="#000000" font-family="sans-serif" font-size="13" lengthAdjust="spacing" textLength="482" x="1230" y="77.6045">in this Use Case, only Staff roles are considered (DOCTOR, NURSE, TECHNICIAN)</text></g><!--link OperationTypeID to GMN5--><g id="link_OperationTypeID_GMN5"><path d="M593.23,219.6294 C630.52,212.1894 680.59,202.5294 725,195.1094 C780.18,185.8894 843.54,177.0394 887.49,171.1694 " fill="none" id="OperationTypeID-GMN5" style="stroke:#181818;stroke-width:1.0;stroke-dasharray:7.0,7.0;"/></g><!--link Admin to OperationType--><g id="link_Admin_OperationType"><path codeLine="38" d="M114.11,419.1094 C150.4,419.1094 198.32,419.1094 233.93,419.1094 " fill="none" id="Admin-OperationType" style="stroke:#181818;stroke-width:1.0;"/><polygon fill="#000000" points="154,410.2852,144.9549,407.3462,144.9549,413.2241,154,410.2852" style="stroke:#000000;stroke-width:1.0;"/><text fill="#000000" font-family="sans-serif" font-size="13" lengthAdjust="spacing" textLength="43" x="158" y="415.6045">creates</text><text fill="#000000" font-family="sans-serif" font-size="13" lengthAdjust="spacing" textLength="7" x="122.1411" y="433.7751">1</text><text fill="#000000" font-family="sans-serif" font-size="13" lengthAdjust="spacing" textLength="5" x="221.1353" y="433.8271">*</text></g><!--link OperationType to OperationTypeID--><g id="link_OperationType_OperationTypeID"><path codeLine="40" d="M307.77,393.4894 C323,376.7394 344.13,354.9294 365,338.1094 C403.97,306.7094 452.66,276.8994 487.94,256.7494 " fill="none" id="OperationType-OperationTypeID" style="stroke:#181818;stroke-width:1.0;"/><polygon fill="#000000" points="373.9828,270.2624,365.0011,273.3896,368.5546,278.0717,373.9828,270.2624" style="stroke:#000000;stroke-width:1.0;"/><text fill="#000000" font-family="sans-serif" font-size="13" lengthAdjust="spacing" textLength="69" x="379" y="278.6045">identified by</text><text fill="#000000" font-family="sans-serif" font-size="13" lengthAdjust="spacing" textLength="7" x="305.5889" y="382.8686">1</text><text fill="#000000" font-family="sans-serif" font-size="13" lengthAdjust="spacing" textLength="7" x="469.6613" y="277.6742">1</text></g><!--link OperationType to Name--><g id="link_OperationType_Name"><path codeLine="41" d="M335.09,437.5994 C381.7,454.9694 450.64,480.6694 494.16,496.8894 " fill="none" id="OperationType-Name" style="stroke:#181818;stroke-width:1.0;"/><polygon fill="#000000" points="398.6851,443.0314,391.2361,437.1185,389.1832,442.6262,398.6851,443.0314" style="stroke:#000000;stroke-width:1.0;"/><text fill="#000000" font-family="sans-serif" font-size="13" lengthAdjust="spacing" textLength="21" x="403" y="446.6045">has</text><text fill="#000000" font-family="sans-serif" font-size="13" lengthAdjust="spacing" textLength="7" x="343.0345" y="455.0328">1</text><text fill="#000000" font-family="sans-serif" font-size="13" lengthAdjust="spacing" textLength="7" x="479.3672" y="509.1993">1</text></g><!--link OperationType to Specialization--><g id="link_OperationType_Specialization"><path codeLine="42" d="M306.6,444.7194 C339.05,481.7894 405.24,548.6394 479,573.1094 C570.39,603.4294 677.59,602.9794 765.81,593.9094 " fill="none" id="OperationType-Specialization" style="stroke:#181818;stroke-width:1.0;"/><polygon fill="#000000" points="527.7553,565.8301,520.0609,560.2402,518.2448,565.8304,527.7553,565.8301" style="stroke:#000000;stroke-width:1.0;"/><text fill="#000000" font-family="sans-serif" font-size="13" lengthAdjust="spacing" textLength="21" x="532" y="569.6045">has</text><text fill="#000000" font-family="sans-serif" font-size="13" lengthAdjust="spacing" textLength="5" x="305.8875" y="465.6376">*</text><text fill="#000000" font-family="sans-serif" font-size="13" lengthAdjust="spacing" textLength="7" x="751.1871" y="609.0844">1</text></g><!--link OperationType to RequiredStaff--><g id="link_OperationType_RequiredStaff"><path codeLine="43" d="M335.09,419.1094 C380,419.1094 445.62,419.1094 489.29,419.1094 " fill="none" id="OperationType-RequiredStaff" style="stroke:#181818;stroke-width:1.0;"/><polygon fill="#000000" points="392,410.2852,382.9549,407.3462,382.9549,413.2241,392,410.2852" style="stroke:#000000;stroke-width:1.0;"/><text fill="#000000" font-family="sans-serif" font-size="13" lengthAdjust="spacing" textLength="35" x="396" y="415.6045">needs</text><text fill="#000000" font-family="sans-serif" font-size="13" lengthAdjust="spacing" textLength="7" x="343.0345" y="433.8271">1</text><text fill="#000000" font-family="sans-serif" font-size="13" lengthAdjust="spacing" textLength="5" x="476.4472" y="433.9312">*</text></g><!--link OperationType to PhaseDetails--><g id="link_OperationType_PhaseDetails"><path codeLine="44" d="M335.09,402.0194 C380.71,386.2994 447.71,363.1994 491.34,348.1594 " fill="none" id="OperationType-PhaseDetails" style="stroke:#181818;stroke-width:1.0;"/><polygon fill="#000000" points="398.727,353.6557,389.218,353.8249,391.1335,359.3819,398.727,353.6557" style="stroke:#000000;stroke-width:1.0;"/><text fill="#000000" font-family="sans-serif" font-size="13" lengthAdjust="spacing" textLength="21" x="403" y="360.6045">has</text><text fill="#000000" font-family="sans-serif" font-size="13" lengthAdjust="spacing" textLength="7" x="343.0345" y="414.227">1</text><text fill="#000000" font-family="sans-serif" font-size="13" lengthAdjust="spacing" textLength="20" x="463.6534" y="364.9415">1..*</text></g><!--link RequiredStaff to Role--><g id="link_RequiredStaff_Role"><path codeLine="45" d="M577.19,393.5994 C583.15,388.4094 588.72,382.5394 593,376.1094 C621.81,332.8694 599.64,309.5294 623,263.1094 C655.7,198.1294 664.57,175.5994 725,135.1094 C748.38,119.4494 775.71,107.6094 802.92,98.6994 " fill="none" id="RequiredStaff-Role" style="stroke:#181818;stroke-width:1.0;"/><polygon fill="#000000" points="649.0391,145.3148,641.2076,150.7109,645.875,154.2836,649.0391,145.3148" style="stroke:#000000;stroke-width:1.0;"/><text fill="#000000" font-family="sans-serif" font-size="13" lengthAdjust="spacing" textLength="21" x="655" y="154.6045">has</text><text fill="#000000" font-family="sans-serif" font-size="13" lengthAdjust="spacing" textLength="7" x="579.8481" y="382.5906">1</text><text fill="#000000" font-family="sans-serif" font-size="13" lengthAdjust="spacing" textLength="7" x="762.7171" y="120.2088">1</text></g><!--link RequiredStaff to Specialization--><g id="link_RequiredStaff_Specialization"><path codeLine="46" d="M582.67,435.2394 C646.08,457.6294 762.34,498.6794 845.45,528.0194 " fill="none" id="RequiredStaff-Specialization" style="stroke:#181818;stroke-width:1.0;"/><polygon fill="#000000" points="650.7148,442.9498,643.1641,437.1672,641.2072,442.7097,650.7148,442.9498" style="stroke:#000000;stroke-width:1.0;"/><text fill="#000000" font-family="sans-serif" font-size="13" lengthAdjust="spacing" textLength="21" x="655" y="446.6045">has</text><text fill="#000000" font-family="sans-serif" font-size="13" lengthAdjust="spacing" textLength="7" x="590.3523" y="452.479">1</text><text fill="#000000" font-family="sans-serif" font-size="13" lengthAdjust="spacing" textLength="7" x="818.5558" y="517.2319">1</text></g><!--link RequiredStaff to Quantity--><g id="link_RequiredStaff_Quantity"><path codeLine="47" d="M582.67,420.1294 C662.32,421.8994 825.36,425.5194 901.34,427.2094 " fill="none" id="RequiredStaff-Quantity" style="stroke:#181818;stroke-width:1.0;"/><polygon fill="#000000" points="632.9988,412.3962,624.0212,409.2571,623.8906,415.1335,632.9988,412.3962" style="stroke:#000000;stroke-width:1.0;"/><text fill="#000000" font-family="sans-serif" font-size="13" lengthAdjust="spacing" textLength="57" x="637" y="417.6045">this many</text><text fill="#000000" font-family="sans-serif" font-size="13" lengthAdjust="spacing" textLength="7" x="590.3523" y="416.6053">1</text><text fill="#000000" font-family="sans-serif" font-size="13" lengthAdjust="spacing" textLength="7" x="886.5781" y="441.9805">1</text></g><!--link PhaseDetails to Phase--><g id="link_PhaseDetails_Phase"><path codeLine="48" d="M580.73,333.1094 C616.42,333.1094 669.75,333.1094 724.54,333.1094 " fill="none" id="PhaseDetails-Phase" style="stroke:#181818;stroke-width:1.0;"/><polygon fill="#000000" points="651,324.2852,641.9549,321.3462,641.9549,327.2241,651,324.2852" style="stroke:#000000;stroke-width:1.0;"/><text fill="#000000" font-family="sans-serif" font-size="13" lengthAdjust="spacing" textLength="21" x="655" y="329.6045">has</text><text fill="#000000" font-family="sans-serif" font-size="13" lengthAdjust="spacing" textLength="7" x="588.4167" y="347.9312">1</text><text fill="#000000" font-family="sans-serif" font-size="13" lengthAdjust="spacing" textLength="7" x="710.2569" y="346.8676">1</text></g><!--link PhaseDetails to Duration--><g id="link_PhaseDetails_Duration"><path codeLine="49" d="M580.64,319.5094 C594.18,315.3994 609.18,310.9594 623,307.1094 C668.07,294.5594 679.37,291.4394 725,281.1094 C786.24,267.2494 857.77,253.5594 901.47,245.4694 " fill="none" id="PhaseDetails-Duration" style="stroke:#181818;stroke-width:1.0;"/><polygon fill="#000000" points="650.8719,279.1608,641.3976,278.3311,642.7194,284.0584,650.8719,279.1608" style="stroke:#000000;stroke-width:1.0;"/><text fill="#000000" font-family="sans-serif" font-size="13" lengthAdjust="spacing" textLength="21" x="655" y="285.6045">has</text><text fill="#000000" font-family="sans-serif" font-size="13" lengthAdjust="spacing" textLength="7" x="588.6132" y="313.4807">1</text><text fill="#000000" font-family="sans-serif" font-size="13" lengthAdjust="spacing" textLength="7" x="886.449" y="261.7582">1</text></g><!--SRC=[XPD1Rvj048Nl-oj6d9h8YP8UhSWI0cGZ9U02FkHKhM6Cju5TmYwjd2h_lGFOZh53mmcntxoPj_FGBq9MlEObL3nzuJd6PbSWr9WQBlC2cJu2UiipzKV873QyqCXEZjA2QsqRKujrOz1FbOp56y8TOqPLO1IibJ6gX4oqma99Lk36j0UroBVcv3lRYWmX5NLAlRlt4irMPPgaXA79N5Lo8U59PLZ0D_Vf2cvWvTnzfrvx1s255TQybKjs5TfvNcFE3Lhmbm4ztR0mOE3XeLRA04fgiflDnZZV9V8tBne4jVv58-zHgGpkhQZDUSaK6YbUgOJSaFv6O7sY7-5hG-wpsF3DvdFr7bnkkKON3HU5_fAx0FRUsySER2zE5bxisp-NaRUq8plnms02yIgQUz4pVGmTBuudu3nwTk07ywxq_QI7s_G6_pV7ZuPtjtd9l3FM8tPMYbQ3yf9YPHfUzBN4z430oqih36LJGbnXAdWXtZuVPE_tmslu6CwVoP8TkOVtC4eMuT9pVITcxz3BHeeojgzrdtow5JTqaZ2QGB2AOcy2YUSi0j_nRJfQqiLvGGBaQ9Y0LcKAvCriXOOLxSEXfKn0oM87_QPhGZJmciAkfAPeK0OepsFDhXZhRykwj-3c1gnhwop2KqXhf9Xhc34sF3hKt5iNSPx2x2EN6QntuwNTCbgU0dPENH-fixsCy1ycXlblSOcOZHNStzvIpU1NE7GO2ftCtQtqIsfaxb7-6E-MxDPSShbZWz5EyFwlFAYEKSV_wW3-0m00]--></g></svg>