<?xml version="1.0" encoding="us-ascii" standalone="no"?><svg xmlns="http://www.w3.org/2000/svg" xmlns:xlink="http://www.w3.org/1999/xlink" contentStyleType="text/css" height="349px" preserveAspectRatio="none" style="width:506px;height:349px;background:#FFFFFF;" version="1.1" viewBox="0 0 506 349" width="506px" zoomAndPan="magnify"><defs/><g><line style="stroke:#181818;stroke-width:0.5;stroke-dasharray:5.0,5.0;" x1="22" x2="22" y1="82.6094" y2="267.3672"/><line style="stroke:#181818;stroke-width:0.5;stroke-dasharray:5.0,5.0;" x1="228.5" x2="228.5" y1="82.6094" y2="267.3672"/><line style="stroke:#181818;stroke-width:0.5;stroke-dasharray:5.0,5.0;" x1="430" x2="430" y1="82.6094" y2="267.3672"/><text fill="#000000" font-family="sans-serif" font-size="14" lengthAdjust="spacing" textLength="29" x="5" y="79.5332">User</text><ellipse cx="22.5" cy="13.5" fill="#E2E2F0" rx="8" ry="8" style="stroke:#181818;stroke-width:0.5;"/><path d="M22.5,21.5 L22.5,48.5 M9.5,29.5 L35.5,29.5 M22.5,48.5 L9.5,63.5 M22.5,48.5 L35.5,63.5 " fill="none" style="stroke:#181818;stroke-width:0.5;"/><text fill="#000000" font-family="sans-serif" font-size="14" lengthAdjust="spacing" textLength="29" x="5" y="280.9004">User</text><ellipse cx="22.5" cy="292.4766" fill="#E2E2F0" rx="8" ry="8" style="stroke:#181818;stroke-width:0.5;"/><path d="M22.5,300.4766 L22.5,327.4766 M9.5,308.4766 L35.5,308.4766 M22.5,327.4766 L9.5,342.4766 M22.5,327.4766 L35.5,342.4766 " fill="none" style="stroke:#181818;stroke-width:0.5;"/><rect fill="#E2E2F0" height="31.6094" rx="2.5" ry="2.5" style="stroke:#181818;stroke-width:0.5;" width="60" x="198.5" y="50"/><text fill="#000000" font-family="sans-serif" font-size="14" lengthAdjust="spacing" textLength="46" x="205.5" y="71.5332">System</text><rect fill="#E2E2F0" height="31.6094" rx="2.5" ry="2.5" style="stroke:#181818;stroke-width:0.5;" width="60" x="198.5" y="266.3672"/><text fill="#000000" font-family="sans-serif" font-size="14" lengthAdjust="spacing" textLength="46" x="205.5" y="287.9004">System</text><rect fill="#E2E2F0" height="31.6094" rx="2.5" ry="2.5" style="stroke:#181818;stroke-width:0.5;" width="139" x="361" y="50"/><text fill="#000000" font-family="sans-serif" font-size="14" lengthAdjust="spacing" textLength="125" x="368" y="71.5332">AzureSQLDatabase</text><rect fill="#E2E2F0" height="31.6094" rx="2.5" ry="2.5" style="stroke:#181818;stroke-width:0.5;" width="139" x="361" y="266.3672"/><text fill="#000000" font-family="sans-serif" font-size="14" lengthAdjust="spacing" textLength="125" x="368" y="287.9004">AzureSQLDatabase</text><polygon fill="#181818" points="216.5,110.9609,226.5,114.9609,216.5,118.9609,220.5,114.9609" style="stroke:#181818;stroke-width:1.0;"/><line style="stroke:#181818;stroke-width:1.0;" x1="22.5" x2="222.5" y1="114.9609" y2="114.9609"/><text fill="#000000" font-family="sans-serif" font-size="13" lengthAdjust="spacing" textLength="182" x="29.5" y="110.1045">Request Create (include object)</text><line style="stroke:#181818;stroke-width:1.0;" x1="228.5" x2="270.5" y1="145.3125" y2="145.3125"/><line style="stroke:#181818;stroke-width:1.0;" x1="270.5" x2="270.5" y1="145.3125" y2="158.3125"/><line style="stroke:#181818;stroke-width:1.0;" x1="229.5" x2="270.5" y1="158.3125" y2="158.3125"/><polygon fill="#181818" points="239.5,154.3125,229.5,158.3125,239.5,162.3125,235.5,158.3125" style="stroke:#181818;stroke-width:1.0;"/><text fill="#000000" font-family="sans-serif" font-size="13" lengthAdjust="spacing" textLength="86" x="235.5" y="140.4561">Validate object</text><polygon fill="#181818" points="418.5,184.6641,428.5,188.6641,418.5,192.6641,422.5,188.6641" style="stroke:#181818;stroke-width:1.0;"/><line style="stroke:#181818;stroke-width:1.0;" x1="228.5" x2="424.5" y1="188.6641" y2="188.6641"/><text fill="#000000" font-family="sans-serif" font-size="13" lengthAdjust="spacing" textLength="77" x="235.5" y="183.8076">Create object</text><polygon fill="#181818" points="239.5,215.0156,229.5,219.0156,239.5,223.0156,235.5,219.0156" style="stroke:#181818;stroke-width:1.0;"/><line style="stroke:#181818;stroke-width:1.0;stroke-dasharray:2.0,2.0;" x1="233.5" x2="429.5" y1="219.0156" y2="219.0156"/><text fill="#000000" font-family="sans-serif" font-size="13" lengthAdjust="spacing" textLength="178" x="245.5" y="214.1592">Return success/error message</text><polygon fill="#181818" points="33.5,245.3672,23.5,249.3672,33.5,253.3672,29.5,249.3672" style="stroke:#181818;stroke-width:1.0;"/><line style="stroke:#181818;stroke-width:1.0;stroke-dasharray:2.0,2.0;" x1="27.5" x2="227.5" y1="249.3672" y2="249.3672"/><text fill="#000000" font-family="sans-serif" font-size="13" lengthAdjust="spacing" textLength="178" x="39.5" y="244.5107">Return success/error message</text><!--SRC=[XS-x3i8m30NGFL_X4OQAdG49mSW25UnkUeM2-i9s1lXwKeWGXO7DiixrWxtrGaU5k875WWy3TqRbJGtjfBM-Hq6vtstPk6A5SsEAYbN6jAG3hX5gj16mWMQXyqsiGNrrWRUvo_0pSk8cr2D-cG_olI_XF3VJ7r1CRx4e7Mdq7geBYAG_srJo6UyjAV1yuWz_0000]--></g></svg>