<?xml version="1.0" encoding="us-ascii" standalone="no"?><svg xmlns="http://www.w3.org/2000/svg" xmlns:xlink="http://www.w3.org/1999/xlink" contentStyleType="text/css" height="349px" preserveAspectRatio="none" style="width:507px;height:349px;background:#FFFFFF;" version="1.1" viewBox="0 0 507 349" width="507px" zoomAndPan="magnify"><defs/><g><rect fill="#FFFFFF" height="156.7578" style="stroke:#181818;stroke-width:1.0;" width="10" x="17.5" y="92.6094"/><rect fill="#FFFFFF" height="134.4063" style="stroke:#181818;stroke-width:1.0;" width="10" x="229.5" y="114.9609"/><rect fill="#FFFFFF" height="30.3516" style="stroke:#181818;stroke-width:1.0;" width="10" x="441.5" y="188.6641"/><line style="stroke:#181818;stroke-width:0.5;stroke-dasharray:5.0,5.0;" x1="22" x2="22" y1="82.6094" y2="267.3672"/><line style="stroke:#181818;stroke-width:0.5;stroke-dasharray:5.0,5.0;" x1="234.5" x2="234.5" y1="82.6094" y2="267.3672"/><line style="stroke:#181818;stroke-width:0.5;stroke-dasharray:5.0,5.0;" x1="446" x2="446" y1="82.6094" y2="267.3672"/><text fill="#000000" font-family="sans-serif" font-size="14" lengthAdjust="spacing" textLength="29" x="5" y="79.5332">User</text><ellipse cx="22.5" cy="13.5" fill="#E2E2F0" rx="8" ry="8" style="stroke:#181818;stroke-width:0.5;"/><path d="M22.5,21.5 L22.5,48.5 M9.5,29.5 L35.5,29.5 M22.5,48.5 L9.5,63.5 M22.5,48.5 L35.5,63.5 " fill="none" style="stroke:#181818;stroke-width:0.5;"/><text fill="#000000" font-family="sans-serif" font-size="14" lengthAdjust="spacing" textLength="29" x="5" y="280.9004">User</text><ellipse cx="22.5" cy="292.4766" fill="#E2E2F0" rx="8" ry="8" style="stroke:#181818;stroke-width:0.5;"/><path d="M22.5,300.4766 L22.5,327.4766 M9.5,308.4766 L35.5,308.4766 M22.5,327.4766 L9.5,342.4766 M22.5,327.4766 L35.5,342.4766 " fill="none" style="stroke:#181818;stroke-width:0.5;"/><rect fill="#E2E2F0" height="31.6094" rx="2.5" ry="2.5" style="stroke:#181818;stroke-width:0.5;" width="60" x="204.5" y="50"/><text fill="#000000" font-family="sans-serif" font-size="14" lengthAdjust="spacing" textLength="46" x="211.5" y="71.5332">System</text><rect fill="#E2E2F0" height="31.6094" rx="2.5" ry="2.5" style="stroke:#181818;stroke-width:0.5;" width="60" x="204.5" y="266.3672"/><text fill="#000000" font-family="sans-serif" font-size="14" lengthAdjust="spacing" textLength="46" x="211.5" y="287.9004">System</text><rect fill="#E2E2F0" height="31.6094" rx="2.5" ry="2.5" style="stroke:#181818;stroke-width:0.5;" width="109" x="392" y="50"/><text fill="#000000" font-family="sans-serif" font-size="14" lengthAdjust="spacing" textLength="95" x="399" y="71.5332">PostgreSQLDb</text><rect fill="#E2E2F0" height="31.6094" rx="2.5" ry="2.5" style="stroke:#181818;stroke-width:0.5;" width="109" x="392" y="266.3672"/><text fill="#000000" font-family="sans-serif" font-size="14" lengthAdjust="spacing" textLength="95" x="399" y="287.9004">PostgreSQLDb</text><rect fill="#FFFFFF" height="156.7578" style="stroke:#181818;stroke-width:1.0;" width="10" x="17.5" y="92.6094"/><rect fill="#FFFFFF" height="134.4063" style="stroke:#181818;stroke-width:1.0;" width="10" x="229.5" y="114.9609"/><rect fill="#FFFFFF" height="30.3516" style="stroke:#181818;stroke-width:1.0;" width="10" x="441.5" y="188.6641"/><polygon fill="#181818" points="217.5,110.9609,227.5,114.9609,217.5,118.9609,221.5,114.9609" style="stroke:#181818;stroke-width:1.0;"/><line style="stroke:#181818;stroke-width:1.0;" x1="27.5" x2="223.5" y1="114.9609" y2="114.9609"/><text fill="#000000" font-family="sans-serif" font-size="13" lengthAdjust="spacing" textLength="182" x="34.5" y="110.1045">Request Create (include object)</text><line style="stroke:#181818;stroke-width:1.0;" x1="239.5" x2="281.5" y1="145.3125" y2="145.3125"/><line style="stroke:#181818;stroke-width:1.0;" x1="281.5" x2="281.5" y1="145.3125" y2="158.3125"/><line style="stroke:#181818;stroke-width:1.0;" x1="240.5" x2="281.5" y1="158.3125" y2="158.3125"/><polygon fill="#181818" points="250.5,154.3125,240.5,158.3125,250.5,162.3125,246.5,158.3125" style="stroke:#181818;stroke-width:1.0;"/><text fill="#000000" font-family="sans-serif" font-size="13" lengthAdjust="spacing" textLength="86" x="246.5" y="140.4561">Validate object</text><polygon fill="#181818" points="429.5,184.6641,439.5,188.6641,429.5,192.6641,433.5,188.6641" style="stroke:#181818;stroke-width:1.0;"/><line style="stroke:#181818;stroke-width:1.0;" x1="239.5" x2="435.5" y1="188.6641" y2="188.6641"/><text fill="#000000" font-family="sans-serif" font-size="13" lengthAdjust="spacing" textLength="77" x="246.5" y="183.8076">Create object</text><polygon fill="#181818" points="250.5,215.0156,240.5,219.0156,250.5,223.0156,246.5,219.0156" style="stroke:#181818;stroke-width:1.0;"/><line style="stroke:#181818;stroke-width:1.0;stroke-dasharray:2.0,2.0;" x1="244.5" x2="445.5" y1="219.0156" y2="219.0156"/><text fill="#000000" font-family="sans-serif" font-size="13" lengthAdjust="spacing" textLength="178" x="256.5" y="214.1592">Return success/error message</text><polygon fill="#181818" points="33.5,245.3672,23.5,249.3672,33.5,253.3672,29.5,249.3672" style="stroke:#181818;stroke-width:1.0;"/><line style="stroke:#181818;stroke-width:1.0;stroke-dasharray:2.0,2.0;" x1="27.5" x2="233.5" y1="249.3672" y2="249.3672"/><text fill="#000000" font-family="sans-serif" font-size="13" lengthAdjust="spacing" textLength="178" x="39.5" y="244.5107">Return success/error message</text><!--SRC=[ZP6x3i8m34NtVeL762fs1XOO6O2gx6bgLK5zOJj8_3rf6qK9I1MU7CltNDjHMWQ2af6oKP4ORKRL2nHl5koIqcLWQGYBw_bKPPdIObvAS962Yoc1_E2bi8SRFYsom95mQjoONhUsHXYg1shPpgA0yORW8oIU5dFlgZNrf5b0QvfuPgVqatpfmWp9XX15yaYOURgmMEg1hTR8l4CYTzhEfQh1WAXntUzd2-Smd_OFViJszumguQDcbmy0]--></g></svg>