<?xml version="1.0" encoding="us-ascii" standalone="no"?><svg xmlns="http://www.w3.org/2000/svg" xmlns:xlink="http://www.w3.org/1999/xlink" contentStyleType="text/css" height="1201px" preserveAspectRatio="none" style="width:1133px;height:1201px;background:#FFFFFF;" version="1.1" viewBox="0 0 1133 1201" width="1133px" zoomAndPan="magnify"><defs/><g><text fill="#000000" font-family="sans-serif" font-size="14" font-weight="bold" lengthAdjust="spacing" textLength="222" x="457.25" y="29.5332">Sequence Diagram (SD) - UC023</text><rect fill="#FFFFFF" height="212.4609" style="stroke:#181818;stroke-width:1.0;" width="10" x="222" y="108.5703"/><rect fill="#FFFFFF" height="212.4609" style="stroke:#181818;stroke-width:1.0;" width="10" x="222" y="376.7344"/><rect fill="#FFFFFF" height="212.4609" style="stroke:#181818;stroke-width:1.0;" width="10" x="222" y="651.8984"/><rect fill="#FFFFFF" height="212.4609" style="stroke:#181818;stroke-width:1.0;" width="10" x="222" y="927.0625"/><rect fill="#FFFFFF" height="151.7578" style="stroke:#181818;stroke-width:1.0;" width="10" x="456" y="138.9219"/><rect fill="#FFFFFF" height="151.7578" style="stroke:#181818;stroke-width:1.0;" width="10" x="456" y="407.0859"/><rect fill="#FFFFFF" height="151.7578" style="stroke:#181818;stroke-width:1.0;" width="10" x="456" y="682.25"/><rect fill="#FFFFFF" height="151.7578" style="stroke:#181818;stroke-width:1.0;" width="10" x="456" y="957.4141"/><rect fill="#FFFFFF" height="91.0547" style="stroke:#181818;stroke-width:1.0;" width="10" x="751.5" y="169.2734"/><rect fill="#FFFFFF" height="91.0547" style="stroke:#181818;stroke-width:1.0;" width="10" x="751.5" y="437.4375"/><rect fill="#FFFFFF" height="91.0547" style="stroke:#181818;stroke-width:1.0;" width="10" x="751.5" y="712.6016"/><rect fill="#FFFFFF" height="91.0547" style="stroke:#181818;stroke-width:1.0;" width="10" x="751.5" y="987.7656"/><rect fill="#FFFFFF" height="30.3516" style="stroke:#181818;stroke-width:1.0;" width="10" x="1022.5" y="199.625"/><rect fill="#FFFFFF" height="30.3516" style="stroke:#181818;stroke-width:1.0;" width="10" x="1022.5" y="467.7891"/><rect fill="#FFFFFF" height="30.3516" style="stroke:#181818;stroke-width:1.0;" width="10" x="1022.5" y="742.9531"/><rect fill="#FFFFFF" height="30.3516" style="stroke:#181818;stroke-width:1.0;" width="10" x="1022.5" y="1018.1172"/><rect fill="none" height="261.1641" style="stroke:#000000;stroke-width:1.5;" width="1124.5" x="3" y="336.0313"/><rect fill="none" height="261.1641" style="stroke:#000000;stroke-width:1.5;" width="1124.5" x="3" y="611.1953"/><rect fill="none" height="261.1641" style="stroke:#000000;stroke-width:1.5;" width="1124.5" x="3" y="886.3594"/><line style="stroke:#181818;stroke-width:0.5;stroke-dasharray:5.0,5.0;" x1="226.5" x2="226.5" y1="76.2188" y2="1164.5234"/><line style="stroke:#181818;stroke-width:0.5;stroke-dasharray:5.0,5.0;" x1="461" x2="461" y1="76.2188" y2="1164.5234"/><line style="stroke:#181818;stroke-width:0.5;stroke-dasharray:5.0,5.0;" x1="603" x2="603" y1="76.2188" y2="1164.5234"/><line style="stroke:#181818;stroke-width:0.5;stroke-dasharray:5.0,5.0;" x1="756" x2="756" y1="76.2188" y2="1164.5234"/><line style="stroke:#181818;stroke-width:0.5;stroke-dasharray:5.0,5.0;" x1="1027.5" x2="1027.5" y1="76.2188" y2="1164.5234"/><rect fill="#E2E2F0" height="31.6094" rx="2.5" ry="2.5" style="stroke:#181818;stroke-width:0.5;" width="171" x="141.5" y="43.6094"/><text fill="#000000" font-family="sans-serif" font-size="14" lengthAdjust="spacing" textLength="157" x="148.5" y="65.1426">OperationTypeController</text><rect fill="#E2E2F0" height="31.6094" rx="2.5" ry="2.5" style="stroke:#181818;stroke-width:0.5;" width="171" x="141.5" y="1163.5234"/><text fill="#000000" font-family="sans-serif" font-size="14" lengthAdjust="spacing" textLength="157" x="148.5" y="1185.0566">OperationTypeController</text><rect fill="#E2E2F0" height="31.6094" rx="2.5" ry="2.5" style="stroke:#181818;stroke-width:0.5;" width="156" x="383" y="43.6094"/><text fill="#000000" font-family="sans-serif" font-size="14" lengthAdjust="spacing" textLength="142" x="390" y="65.1426">OperationTypeService</text><rect fill="#E2E2F0" height="31.6094" rx="2.5" ry="2.5" style="stroke:#181818;stroke-width:0.5;" width="156" x="383" y="1163.5234"/><text fill="#000000" font-family="sans-serif" font-size="14" lengthAdjust="spacing" textLength="142" x="390" y="1185.0566">OperationTypeService</text><rect fill="#E2E2F0" height="31.6094" rx="2.5" ry="2.5" style="stroke:#181818;stroke-width:0.5;" width="109" x="549" y="43.6094"/><text fill="#000000" font-family="sans-serif" font-size="14" lengthAdjust="spacing" textLength="95" x="556" y="65.1426">OperationType</text><rect fill="#E2E2F0" height="31.6094" rx="2.5" ry="2.5" style="stroke:#181818;stroke-width:0.5;" width="109" x="549" y="1163.5234"/><text fill="#000000" font-family="sans-serif" font-size="14" lengthAdjust="spacing" textLength="95" x="556" y="1185.0566">OperationType</text><rect fill="#E2E2F0" height="31.6094" rx="2.5" ry="2.5" style="stroke:#181818;stroke-width:0.5;" width="177" x="668" y="43.6094"/><text fill="#000000" font-family="sans-serif" font-size="14" lengthAdjust="spacing" textLength="163" x="675" y="65.1426">OperationTypeRepository</text><rect fill="#E2E2F0" height="31.6094" rx="2.5" ry="2.5" style="stroke:#181818;stroke-width:0.5;" width="177" x="668" y="1163.5234"/><text fill="#000000" font-family="sans-serif" font-size="14" lengthAdjust="spacing" textLength="163" x="675" y="1185.0566">OperationTypeRepository</text><rect fill="#E2E2F0" height="31.6094" rx="2.5" ry="2.5" style="stroke:#181818;stroke-width:0.5;" width="180" x="937.5" y="43.6094"/><text fill="#000000" font-family="sans-serif" font-size="14" lengthAdjust="spacing" textLength="166" x="944.5" y="65.1426">IOperationTypeRepository</text><rect fill="#E2E2F0" height="31.6094" rx="2.5" ry="2.5" style="stroke:#181818;stroke-width:0.5;" width="180" x="937.5" y="1163.5234"/><text fill="#000000" font-family="sans-serif" font-size="14" lengthAdjust="spacing" textLength="166" x="944.5" y="1185.0566">IOperationTypeRepository</text><rect fill="#FFFFFF" height="212.4609" style="stroke:#181818;stroke-width:1.0;" width="10" x="222" y="108.5703"/><rect fill="#FFFFFF" height="212.4609" style="stroke:#181818;stroke-width:1.0;" width="10" x="222" y="376.7344"/><rect fill="#FFFFFF" height="212.4609" style="stroke:#181818;stroke-width:1.0;" width="10" x="222" y="651.8984"/><rect fill="#FFFFFF" height="212.4609" style="stroke:#181818;stroke-width:1.0;" width="10" x="222" y="927.0625"/><rect fill="#FFFFFF" height="151.7578" style="stroke:#181818;stroke-width:1.0;" width="10" x="456" y="138.9219"/><rect fill="#FFFFFF" height="151.7578" style="stroke:#181818;stroke-width:1.0;" width="10" x="456" y="407.0859"/><rect fill="#FFFFFF" height="151.7578" style="stroke:#181818;stroke-width:1.0;" width="10" x="456" y="682.25"/><rect fill="#FFFFFF" height="151.7578" style="stroke:#181818;stroke-width:1.0;" width="10" x="456" y="957.4141"/><rect fill="#FFFFFF" height="91.0547" style="stroke:#181818;stroke-width:1.0;" width="10" x="751.5" y="169.2734"/><rect fill="#FFFFFF" height="91.0547" style="stroke:#181818;stroke-width:1.0;" width="10" x="751.5" y="437.4375"/><rect fill="#FFFFFF" height="91.0547" style="stroke:#181818;stroke-width:1.0;" width="10" x="751.5" y="712.6016"/><rect fill="#FFFFFF" height="91.0547" style="stroke:#181818;stroke-width:1.0;" width="10" x="751.5" y="987.7656"/><rect fill="#FFFFFF" height="30.3516" style="stroke:#181818;stroke-width:1.0;" width="10" x="1022.5" y="199.625"/><rect fill="#FFFFFF" height="30.3516" style="stroke:#181818;stroke-width:1.0;" width="10" x="1022.5" y="467.7891"/><rect fill="#FFFFFF" height="30.3516" style="stroke:#181818;stroke-width:1.0;" width="10" x="1022.5" y="742.9531"/><rect fill="#FFFFFF" height="30.3516" style="stroke:#181818;stroke-width:1.0;" width="10" x="1022.5" y="1018.1172"/><polygon fill="#181818" points="210,104.5703,220,108.5703,210,112.5703,214,108.5703" style="stroke:#181818;stroke-width:1.0;"/><line style="stroke:#181818;stroke-width:1.0;" x1="0" x2="216" y1="108.5703" y2="108.5703"/><text fill="#000000" font-family="sans-serif" font-size="13" lengthAdjust="spacing" textLength="133" x="7" y="103.7139">GET /api/operationtype</text><polygon fill="#181818" points="444,134.9219,454,138.9219,444,142.9219,448,138.9219" style="stroke:#181818;stroke-width:1.0;"/><line style="stroke:#181818;stroke-width:1.0;" x1="232" x2="450" y1="138.9219" y2="138.9219"/><text fill="#000000" font-family="sans-serif" font-size="13" lengthAdjust="spacing" textLength="44" x="239" y="134.0654">GetAll()</text><polygon fill="#181818" points="739.5,165.2734,749.5,169.2734,739.5,173.2734,743.5,169.2734" style="stroke:#181818;stroke-width:1.0;"/><line style="stroke:#181818;stroke-width:1.0;" x1="466" x2="745.5" y1="169.2734" y2="169.2734"/><text fill="#000000" font-family="sans-serif" font-size="13" lengthAdjust="spacing" textLength="81" x="473" y="164.417">GetAllAsync()</text><polygon fill="#181818" points="1010.5,195.625,1020.5,199.625,1010.5,203.625,1014.5,199.625" style="stroke:#181818;stroke-width:1.0;"/><line style="stroke:#181818;stroke-width:1.0;" x1="761.5" x2="1016.5" y1="199.625" y2="199.625"/><text fill="#000000" font-family="sans-serif" font-size="13" lengthAdjust="spacing" textLength="81" x="768.5" y="194.7686">GetAllAsync()</text><polygon fill="#181818" points="772.5,225.9766,762.5,229.9766,772.5,233.9766,768.5,229.9766" style="stroke:#181818;stroke-width:1.0;"/><line style="stroke:#181818;stroke-width:1.0;stroke-dasharray:2.0,2.0;" x1="766.5" x2="1026.5" y1="229.9766" y2="229.9766"/><text fill="#000000" font-family="sans-serif" font-size="13" lengthAdjust="spacing" textLength="88" x="778.5" y="225.1201">operationTypes</text><polygon fill="#181818" points="477,256.3281,467,260.3281,477,264.3281,473,260.3281" style="stroke:#181818;stroke-width:1.0;"/><line style="stroke:#181818;stroke-width:1.0;stroke-dasharray:2.0,2.0;" x1="471" x2="755.5" y1="260.3281" y2="260.3281"/><text fill="#000000" font-family="sans-serif" font-size="13" lengthAdjust="spacing" textLength="129" x="483" y="255.4717">operationTypesDtoList</text><polygon fill="#181818" points="243,286.6797,233,290.6797,243,294.6797,239,290.6797" style="stroke:#181818;stroke-width:1.0;"/><line style="stroke:#181818;stroke-width:1.0;stroke-dasharray:2.0,2.0;" x1="237" x2="460" y1="290.6797" y2="290.6797"/><text fill="#000000" font-family="sans-serif" font-size="13" lengthAdjust="spacing" textLength="129" x="249" y="285.8232">operationTypesDtoList</text><polygon fill="#181818" points="11,317.0313,1,321.0313,11,325.0313,7,321.0313" style="stroke:#181818;stroke-width:1.0;"/><line style="stroke:#181818;stroke-width:1.0;stroke-dasharray:2.0,2.0;" x1="5" x2="226" y1="321.0313" y2="321.0313"/><text fill="#000000" font-family="sans-serif" font-size="13" lengthAdjust="spacing" textLength="129" x="17" y="316.1748">operationTypesDtoList</text><path d="M3,336.0313 L68,336.0313 L68,344.3828 L58,354.3828 L3,354.3828 L3,336.0313 " fill="#EEEEEE" style="stroke:#000000;stroke-width:1.5;"/><rect fill="none" height="261.1641" style="stroke:#000000;stroke-width:1.5;" width="1124.5" x="3" y="336.0313"/><text fill="#000000" font-family="sans-serif" font-size="13" font-weight="bold" lengthAdjust="spacing" textLength="20" x="18" y="350.5264">opt</text><text fill="#000000" font-family="sans-serif" font-size="11" font-weight="bold" lengthAdjust="spacing" textLength="174" x="83" y="349.4502">[Admin wants to filter by name]</text><polygon fill="#181818" points="210,372.7344,220,376.7344,210,380.7344,214,376.7344" style="stroke:#181818;stroke-width:1.0;"/><line style="stroke:#181818;stroke-width:1.0;" x1="0" x2="216" y1="376.7344" y2="376.7344"/><text fill="#000000" font-family="sans-serif" font-size="13" lengthAdjust="spacing" textLength="196" x="7" y="371.8779">GET /api/operationtype?filter=filter</text><polygon fill="#181818" points="444,403.0859,454,407.0859,444,411.0859,448,407.0859" style="stroke:#181818;stroke-width:1.0;"/><line style="stroke:#181818;stroke-width:1.0;" x1="232" x2="450" y1="407.0859" y2="407.0859"/><text fill="#000000" font-family="sans-serif" font-size="13" lengthAdjust="spacing" textLength="111" x="239" y="402.2295">GetByName(name)</text><polygon fill="#181818" points="739.5,433.4375,749.5,437.4375,739.5,441.4375,743.5,437.4375" style="stroke:#181818;stroke-width:1.0;"/><line style="stroke:#181818;stroke-width:1.0;" x1="466" x2="745.5" y1="437.4375" y2="437.4375"/><text fill="#000000" font-family="sans-serif" font-size="13" lengthAdjust="spacing" textLength="148" x="473" y="432.5811">GetByNameAsync(name)</text><polygon fill="#181818" points="1010.5,463.7891,1020.5,467.7891,1010.5,471.7891,1014.5,467.7891" style="stroke:#181818;stroke-width:1.0;"/><line style="stroke:#181818;stroke-width:1.0;" x1="761.5" x2="1016.5" y1="467.7891" y2="467.7891"/><text fill="#000000" font-family="sans-serif" font-size="13" lengthAdjust="spacing" textLength="148" x="768.5" y="462.9326">GetByNameAsync(name)</text><polygon fill="#181818" points="772.5,494.1406,762.5,498.1406,772.5,502.1406,768.5,498.1406" style="stroke:#181818;stroke-width:1.0;"/><line style="stroke:#181818;stroke-width:1.0;stroke-dasharray:2.0,2.0;" x1="766.5" x2="1026.5" y1="498.1406" y2="498.1406"/><text fill="#000000" font-family="sans-serif" font-size="13" lengthAdjust="spacing" textLength="81" x="778.5" y="493.2842">operationType</text><polygon fill="#181818" points="477,524.4922,467,528.4922,477,532.4922,473,528.4922" style="stroke:#181818;stroke-width:1.0;"/><line style="stroke:#181818;stroke-width:1.0;stroke-dasharray:2.0,2.0;" x1="471" x2="755.5" y1="528.4922" y2="528.4922"/><text fill="#000000" font-family="sans-serif" font-size="13" lengthAdjust="spacing" textLength="18" x="483" y="523.6357">dto</text><polygon fill="#181818" points="243,554.8438,233,558.8438,243,562.8438,239,558.8438" style="stroke:#181818;stroke-width:1.0;"/><line style="stroke:#181818;stroke-width:1.0;stroke-dasharray:2.0,2.0;" x1="237" x2="460" y1="558.8438" y2="558.8438"/><text fill="#000000" font-family="sans-serif" font-size="13" lengthAdjust="spacing" textLength="18" x="249" y="553.9873">dto</text><polygon fill="#181818" points="11,585.1953,1,589.1953,11,593.1953,7,589.1953" style="stroke:#181818;stroke-width:1.0;"/><line style="stroke:#181818;stroke-width:1.0;stroke-dasharray:2.0,2.0;" x1="5" x2="226" y1="589.1953" y2="589.1953"/><text fill="#000000" font-family="sans-serif" font-size="13" lengthAdjust="spacing" textLength="18" x="17" y="584.3389">dto</text><path d="M3,611.1953 L68,611.1953 L68,619.5469 L58,629.5469 L3,629.5469 L3,611.1953 " fill="#EEEEEE" style="stroke:#000000;stroke-width:1.5;"/><rect fill="none" height="261.1641" style="stroke:#000000;stroke-width:1.5;" width="1124.5" x="3" y="611.1953"/><text fill="#000000" font-family="sans-serif" font-size="13" font-weight="bold" lengthAdjust="spacing" textLength="20" x="18" y="625.6904">opt</text><text fill="#000000" font-family="sans-serif" font-size="11" font-weight="bold" lengthAdjust="spacing" textLength="218" x="83" y="624.6143">[Admin wants to filter by Specialization]</text><polygon fill="#181818" points="210,647.8984,220,651.8984,210,655.8984,214,651.8984" style="stroke:#181818;stroke-width:1.0;"/><line style="stroke:#181818;stroke-width:1.0;" x1="0" x2="216" y1="651.8984" y2="651.8984"/><text fill="#000000" font-family="sans-serif" font-size="13" lengthAdjust="spacing" textLength="196" x="7" y="647.042">GET /api/operationtype?filter=filter</text><polygon fill="#181818" points="444,678.25,454,682.25,444,686.25,448,682.25" style="stroke:#181818;stroke-width:1.0;"/><line style="stroke:#181818;stroke-width:1.0;" x1="232" x2="450" y1="682.25" y2="682.25"/><text fill="#000000" font-family="sans-serif" font-size="13" lengthAdjust="spacing" textLength="205" x="239" y="677.3936">GetBySpecialization(specialization)</text><polygon fill="#181818" points="739.5,708.6016,749.5,712.6016,739.5,716.6016,743.5,712.6016" style="stroke:#181818;stroke-width:1.0;"/><line style="stroke:#181818;stroke-width:1.0;" x1="466" x2="745.5" y1="712.6016" y2="712.6016"/><text fill="#000000" font-family="sans-serif" font-size="13" lengthAdjust="spacing" textLength="242" x="473" y="707.7451">GetBySpecializationAsync(specialization)</text><polygon fill="#181818" points="1010.5,738.9531,1020.5,742.9531,1010.5,746.9531,1014.5,742.9531" style="stroke:#181818;stroke-width:1.0;"/><line style="stroke:#181818;stroke-width:1.0;" x1="761.5" x2="1016.5" y1="742.9531" y2="742.9531"/><text fill="#000000" font-family="sans-serif" font-size="13" lengthAdjust="spacing" textLength="242" x="768.5" y="738.0967">GetBySpecializationAsync(specialization)</text><polygon fill="#181818" points="772.5,769.3047,762.5,773.3047,772.5,777.3047,768.5,773.3047" style="stroke:#181818;stroke-width:1.0;"/><line style="stroke:#181818;stroke-width:1.0;stroke-dasharray:2.0,2.0;" x1="766.5" x2="1026.5" y1="773.3047" y2="773.3047"/><text fill="#000000" font-family="sans-serif" font-size="13" lengthAdjust="spacing" textLength="88" x="778.5" y="768.4482">operationTypes</text><polygon fill="#181818" points="477,799.6563,467,803.6563,477,807.6563,473,803.6563" style="stroke:#181818;stroke-width:1.0;"/><line style="stroke:#181818;stroke-width:1.0;stroke-dasharray:2.0,2.0;" x1="471" x2="755.5" y1="803.6563" y2="803.6563"/><text fill="#000000" font-family="sans-serif" font-size="13" lengthAdjust="spacing" textLength="129" x="483" y="798.7998">operationTypesDtoList</text><polygon fill="#181818" points="243,830.0078,233,834.0078,243,838.0078,239,834.0078" style="stroke:#181818;stroke-width:1.0;"/><line style="stroke:#181818;stroke-width:1.0;stroke-dasharray:2.0,2.0;" x1="237" x2="460" y1="834.0078" y2="834.0078"/><text fill="#000000" font-family="sans-serif" font-size="13" lengthAdjust="spacing" textLength="129" x="249" y="829.1514">operationTypesDtoList</text><polygon fill="#181818" points="11,860.3594,1,864.3594,11,868.3594,7,864.3594" style="stroke:#181818;stroke-width:1.0;"/><line style="stroke:#181818;stroke-width:1.0;stroke-dasharray:2.0,2.0;" x1="5" x2="226" y1="864.3594" y2="864.3594"/><text fill="#000000" font-family="sans-serif" font-size="13" lengthAdjust="spacing" textLength="129" x="17" y="859.5029">operationTypesDtoList</text><path d="M3,886.3594 L68,886.3594 L68,894.7109 L58,904.7109 L3,904.7109 L3,886.3594 " fill="#EEEEEE" style="stroke:#000000;stroke-width:1.5;"/><rect fill="none" height="261.1641" style="stroke:#000000;stroke-width:1.5;" width="1124.5" x="3" y="886.3594"/><text fill="#000000" font-family="sans-serif" font-size="13" font-weight="bold" lengthAdjust="spacing" textLength="20" x="18" y="900.8545">opt</text><text fill="#000000" font-family="sans-serif" font-size="11" font-weight="bold" lengthAdjust="spacing" textLength="266" x="83" y="899.7783">[Admin wants to filter by Status (active/inactive)]</text><polygon fill="#181818" points="210,923.0625,220,927.0625,210,931.0625,214,927.0625" style="stroke:#181818;stroke-width:1.0;"/><line style="stroke:#181818;stroke-width:1.0;" x1="0" x2="216" y1="927.0625" y2="927.0625"/><text fill="#000000" font-family="sans-serif" font-size="13" lengthAdjust="spacing" textLength="196" x="7" y="922.2061">GET /api/operationtype?filter=filter</text><polygon fill="#181818" points="444,953.4141,454,957.4141,444,961.4141,448,957.4141" style="stroke:#181818;stroke-width:1.0;"/><line style="stroke:#181818;stroke-width:1.0;" x1="232" x2="450" y1="957.4141" y2="957.4141"/><text fill="#000000" font-family="sans-serif" font-size="13" lengthAdjust="spacing" textLength="119" x="239" y="952.5576">GetByStatus(status)</text><polygon fill="#181818" points="739.5,983.7656,749.5,987.7656,739.5,991.7656,743.5,987.7656" style="stroke:#181818;stroke-width:1.0;"/><line style="stroke:#181818;stroke-width:1.0;" x1="466" x2="745.5" y1="987.7656" y2="987.7656"/><text fill="#000000" font-family="sans-serif" font-size="13" lengthAdjust="spacing" textLength="156" x="473" y="982.9092">GetByStatusAsync(status)</text><polygon fill="#181818" points="1010.5,1014.1172,1020.5,1018.1172,1010.5,1022.1172,1014.5,1018.1172" style="stroke:#181818;stroke-width:1.0;"/><line style="stroke:#181818;stroke-width:1.0;" x1="761.5" x2="1016.5" y1="1018.1172" y2="1018.1172"/><text fill="#000000" font-family="sans-serif" font-size="13" lengthAdjust="spacing" textLength="156" x="768.5" y="1013.2607">GetByStatusAsync(status)</text><polygon fill="#181818" points="772.5,1044.4688,762.5,1048.4688,772.5,1052.4688,768.5,1048.4688" style="stroke:#181818;stroke-width:1.0;"/><line style="stroke:#181818;stroke-width:1.0;stroke-dasharray:2.0,2.0;" x1="766.5" x2="1026.5" y1="1048.4688" y2="1048.4688"/><text fill="#000000" font-family="sans-serif" font-size="13" lengthAdjust="spacing" textLength="88" x="778.5" y="1043.6123">operationTypes</text><polygon fill="#181818" points="477,1074.8203,467,1078.8203,477,1082.8203,473,1078.8203" style="stroke:#181818;stroke-width:1.0;"/><line style="stroke:#181818;stroke-width:1.0;stroke-dasharray:2.0,2.0;" x1="471" x2="755.5" y1="1078.8203" y2="1078.8203"/><text fill="#000000" font-family="sans-serif" font-size="13" lengthAdjust="spacing" textLength="129" x="483" y="1073.9639">operationTypesDtoList</text><polygon fill="#181818" points="243,1105.1719,233,1109.1719,243,1113.1719,239,1109.1719" style="stroke:#181818;stroke-width:1.0;"/><line style="stroke:#181818;stroke-width:1.0;stroke-dasharray:2.0,2.0;" x1="237" x2="460" y1="1109.1719" y2="1109.1719"/><text fill="#000000" font-family="sans-serif" font-size="13" lengthAdjust="spacing" textLength="129" x="249" y="1104.3154">operationTypesDtoList</text><polygon fill="#181818" points="11,1135.5234,1,1139.5234,11,1143.5234,7,1139.5234" style="stroke:#181818;stroke-width:1.0;"/><line style="stroke:#181818;stroke-width:1.0;stroke-dasharray:2.0,2.0;" x1="5" x2="226" y1="1139.5234" y2="1139.5234"/><text fill="#000000" font-family="sans-serif" font-size="13" lengthAdjust="spacing" textLength="129" x="17" y="1134.667">operationTypesDtoList</text><!--SRC=[xPNFRfmm4CRlFCKe9_Q0DcflLVzeawsgbQfMAka3EEnaCuhNfdWs4NdwWc71mEAbAcfog2ymnjytzl0RC0-aKf69FQGYUH0xZ3cN21acBDHEOc2Q1UPURFKJgHtS2MdS9v8KSfuYf5hcPU0yIwGmPiMSqUs1SPDe5TCpmcKGC76HASPV1rG9mfh4hXI4yNe14VoyldppDWWA4wQ4Kg4OBhwdc0achMwAPDTQSQQbnEm2X84sz6XYp1ufGIkexpshxRArtWjIdbK_CDM6M6UvNT-6NSt69zgKSH147vrZl8CldszWAL9QwgEqB78GY8JfKJ2wPmwW66qCXLLzmC87UILbkAWMDUfZ0UniEUg9KjlkxoXVcLmbHu-EZtFYvc4vsldIqHwnR-OkxmIDULqPw0qx3L5lfzejiUcgjkZpTFVgbgxhk6RzbGotKiVqL1MQWlPUhCVLSUoyd_THDCN2aRjmw9HXjTsJWgS2HWEiuOua5vpSvg34lauoYRzFbV93TUanrIVIJ-LL_gt87PORQ5aO0ZO0rGzhvLeXLbcVHckCMn-xG- - -SZ1n3kM9E0-5Vg9zL6zPZpR7M5N6MEvuZT5xYk16EC8igkqPSECK4nAIdcsHNWhXxYv2qmbdnRgRgOAmdsvErAVa-rVucpdvF_DL_ykEcFxFEDiZqtuKVzWrBFXW8BHoN9AgRXOlrZzsFw6nbtdxnLhMtDRsi_R72V___V3w-k4t]--></g></svg>