<?xml version="1.0" encoding="us-ascii" standalone="no"?><svg xmlns="http://www.w3.org/2000/svg" xmlns:xlink="http://www.w3.org/1999/xlink" contentStyleType="text/css" height="1115px" preserveAspectRatio="none" style="width:1806px;height:1115px;background:#FFFFFF;" version="1.1" viewBox="0 0 1806 1115" width="1806px" zoomAndPan="magnify"><defs/><g><text fill="#000000" font-family="sans-serif" font-size="14" font-weight="bold" lengthAdjust="spacing" textLength="190" x="801.25" y="24.5332">Class Diagram (CD) - UC023</text><!--class OperationTypeController--><g id="elem_OperationTypeController"><rect codeLine="12" fill="#F1F1F1" height="118.4375" id="OperationTypeController" rx="2.5" ry="2.5" style="stroke:#181818;stroke-width:0.5;" width="695" x="395.5" y="45.6094"/><ellipse cx="660.25" cy="61.6094" fill="#ADD1B2" rx="11" ry="11" style="stroke:#181818;stroke-width:1.0;"/><path d="M663.0156,57.4844 Q663.1719,57.2656 663.3594,57.1563 Q663.5469,57.0469 663.7656,57.0469 Q664.1406,57.0469 664.375,57.3125 Q664.6094,57.5625 664.6094,58.1719 L664.6094,59.625 Q664.6094,60.2344 664.375,60.5 Q664.1406,60.7656 663.7656,60.7656 Q663.4219,60.7656 663.2188,60.5625 Q663.0156,60.375 662.9063,59.8594 Q662.8594,59.5 662.6719,59.3125 Q662.3438,58.9375 661.7344,58.7188 Q661.125,58.5 660.5,58.5 Q659.7344,58.5 659.0938,58.8281 Q658.4688,59.1563 657.9688,59.9063 Q657.4844,60.6563 657.4844,61.6875 L657.4844,62.7813 Q657.4844,64.0156 658.375,64.8438 Q659.2656,65.6563 660.8594,65.6563 Q661.7969,65.6563 662.4531,65.4063 Q662.8438,65.25 663.2656,64.8125 Q663.5313,64.5469 663.6719,64.4688 Q663.8281,64.3906 664.0313,64.3906 Q664.3594,64.3906 664.6094,64.6563 Q664.875,64.9063 664.875,65.25 Q664.875,65.5938 664.5313,66 Q664.0313,66.5781 663.2344,66.9063 Q662.1563,67.3594 660.8594,67.3594 Q659.3438,67.3594 658.1406,66.7344 Q657.1563,66.2344 656.4688,65.1719 Q655.7813,64.0938 655.7813,62.8125 L655.7813,61.6563 Q655.7813,60.3281 656.3906,59.1875 Q657.0156,58.0313 658.1094,57.4219 Q659.2031,56.7969 660.4375,56.7969 Q661.1719,56.7969 661.8125,56.9688 Q662.4688,57.125 663.0156,57.4844 Z " fill="#000000"/><text fill="#000000" font-family="sans-serif" font-size="14" lengthAdjust="spacing" textLength="157" x="680.75" y="67.3379">OperationTypeController</text><line style="stroke:#181818;stroke-width:0.5;" x1="396.5" x2="1089.5" y1="77.6094" y2="77.6094"/><line style="stroke:#181818;stroke-width:0.5;" x1="396.5" x2="1089.5" y1="85.6094" y2="85.6094"/><text fill="#000000" font-family="sans-serif" font-size="14" lengthAdjust="spacing" textLength="418" x="401.5" y="104.1426">+GetAll(): Task&lt;ActionResult&lt;IEnumerable&lt;OperationTypeDto&gt;&gt;&gt;</text><text fill="#000000" font-family="sans-serif" font-size="14" lengthAdjust="spacing" textLength="439" x="401.5" y="121.752">+GetByName(name: Name): Task&lt;ActionResult&lt;OperationTypeDto&gt;&gt;</text><text fill="#000000" font-family="sans-serif" font-size="14" lengthAdjust="spacing" textLength="683" x="401.5" y="139.3613">+GetBySpecialization(specialization: Specialization): Task&lt;ActionResult&lt;IEnumerable&lt;OperationTypeDto&gt;&gt;&gt;</text><text fill="#000000" font-family="sans-serif" font-size="14" lengthAdjust="spacing" textLength="532" x="401.5" y="156.9707">+GetByStatus(status: bool): Task&lt;ActionResult&lt;IEnumerable&lt;OperationTypeDto&gt;&gt;&gt;</text></g><!--class OperationTypeService--><g id="elem_OperationTypeService"><rect codeLine="19" fill="#F1F1F1" height="118.4375" id="OperationTypeService" rx="2.5" ry="2.5" style="stroke:#181818;stroke-width:0.5;" width="581" x="624.5" y="223.6094"/><ellipse cx="839.75" cy="239.6094" fill="#ADD1B2" rx="11" ry="11" style="stroke:#181818;stroke-width:1.0;"/><path d="M842.5156,235.4844 Q842.6719,235.2656 842.8594,235.1563 Q843.0469,235.0469 843.2656,235.0469 Q843.6406,235.0469 843.875,235.3125 Q844.1094,235.5625 844.1094,236.1719 L844.1094,237.625 Q844.1094,238.2344 843.875,238.5 Q843.6406,238.7656 843.2656,238.7656 Q842.9219,238.7656 842.7188,238.5625 Q842.5156,238.375 842.4063,237.8594 Q842.3594,237.5 842.1719,237.3125 Q841.8438,236.9375 841.2344,236.7188 Q840.625,236.5 840,236.5 Q839.2344,236.5 838.5938,236.8281 Q837.9688,237.1563 837.4688,237.9063 Q836.9844,238.6563 836.9844,239.6875 L836.9844,240.7813 Q836.9844,242.0156 837.875,242.8438 Q838.7656,243.6563 840.3594,243.6563 Q841.2969,243.6563 841.9531,243.4063 Q842.3438,243.25 842.7656,242.8125 Q843.0313,242.5469 843.1719,242.4688 Q843.3281,242.3906 843.5313,242.3906 Q843.8594,242.3906 844.1094,242.6563 Q844.375,242.9063 844.375,243.25 Q844.375,243.5938 844.0313,244 Q843.5313,244.5781 842.7344,244.9063 Q841.6563,245.3594 840.3594,245.3594 Q838.8438,245.3594 837.6406,244.7344 Q836.6563,244.2344 835.9688,243.1719 Q835.2813,242.0938 835.2813,240.8125 L835.2813,239.6563 Q835.2813,238.3281 835.8906,237.1875 Q836.5156,236.0313 837.6094,235.4219 Q838.7031,234.7969 839.9375,234.7969 Q840.6719,234.7969 841.3125,234.9688 Q841.9688,235.125 842.5156,235.4844 Z " fill="#000000"/><text fill="#000000" font-family="sans-serif" font-size="14" lengthAdjust="spacing" textLength="142" x="860.25" y="245.3379">OperationTypeService</text><line style="stroke:#181818;stroke-width:0.5;" x1="625.5" x2="1204.5" y1="255.6094" y2="255.6094"/><line style="stroke:#181818;stroke-width:0.5;" x1="625.5" x2="1204.5" y1="263.6094" y2="263.6094"/><text fill="#000000" font-family="sans-serif" font-size="14" lengthAdjust="spacing" textLength="304" x="630.5" y="282.1426">+GetAllAsync(): Task&lt;List&lt;OperationTypeDto&gt;&gt;</text><text fill="#000000" font-family="sans-serif" font-size="14" lengthAdjust="spacing" textLength="382" x="630.5" y="299.752">+GetByNameAsync(name: Name): Task&lt;OperationTypeDto&gt;</text><text fill="#000000" font-family="sans-serif" font-size="14" lengthAdjust="spacing" textLength="569" x="630.5" y="317.3613">+GetBySpecializationAsync(specialization: Specialization): Task&lt;List&lt;OperationTypeDto&gt;&gt;</text><text fill="#000000" font-family="sans-serif" font-size="14" lengthAdjust="spacing" textLength="418" x="630.5" y="334.9707">+GetByStatusAsync(status: bool): Task&lt;List&lt;OperationTypeDto&gt;&gt;</text></g><!--class OperationTypeRepository--><g id="elem_OperationTypeRepository"><rect codeLine="26" fill="#F1F1F1" height="118.4375" id="OperationTypeRepository" rx="2.5" ry="2.5" style="stroke:#181818;stroke-width:0.5;" width="559" x="1240.5" y="223.6094"/><ellipse cx="1434.25" cy="239.6094" fill="#ADD1B2" rx="11" ry="11" style="stroke:#181818;stroke-width:1.0;"/><path d="M1437.0156,235.4844 Q1437.1719,235.2656 1437.3594,235.1563 Q1437.5469,235.0469 1437.7656,235.0469 Q1438.1406,235.0469 1438.375,235.3125 Q1438.6094,235.5625 1438.6094,236.1719 L1438.6094,237.625 Q1438.6094,238.2344 1438.375,238.5 Q1438.1406,238.7656 1437.7656,238.7656 Q1437.4219,238.7656 1437.2188,238.5625 Q1437.0156,238.375 1436.9063,237.8594 Q1436.8594,237.5 1436.6719,237.3125 Q1436.3438,236.9375 1435.7344,236.7188 Q1435.125,236.5 1434.5,236.5 Q1433.7344,236.5 1433.0938,236.8281 Q1432.4688,237.1563 1431.9688,237.9063 Q1431.4844,238.6563 1431.4844,239.6875 L1431.4844,240.7813 Q1431.4844,242.0156 1432.375,242.8438 Q1433.2656,243.6563 1434.8594,243.6563 Q1435.7969,243.6563 1436.4531,243.4063 Q1436.8438,243.25 1437.2656,242.8125 Q1437.5313,242.5469 1437.6719,242.4688 Q1437.8281,242.3906 1438.0313,242.3906 Q1438.3594,242.3906 1438.6094,242.6563 Q1438.875,242.9063 1438.875,243.25 Q1438.875,243.5938 1438.5313,244 Q1438.0313,244.5781 1437.2344,244.9063 Q1436.1563,245.3594 1434.8594,245.3594 Q1433.3438,245.3594 1432.1406,244.7344 Q1431.1563,244.2344 1430.4688,243.1719 Q1429.7813,242.0938 1429.7813,240.8125 L1429.7813,239.6563 Q1429.7813,238.3281 1430.3906,237.1875 Q1431.0156,236.0313 1432.1094,235.4219 Q1433.2031,234.7969 1434.4375,234.7969 Q1435.1719,234.7969 1435.8125,234.9688 Q1436.4688,235.125 1437.0156,235.4844 Z " fill="#000000"/><text fill="#000000" font-family="sans-serif" font-size="14" lengthAdjust="spacing" textLength="163" x="1454.75" y="245.3379">OperationTypeRepository</text><line style="stroke:#181818;stroke-width:0.5;" x1="1241.5" x2="1798.5" y1="255.6094" y2="255.6094"/><line style="stroke:#181818;stroke-width:0.5;" x1="1241.5" x2="1798.5" y1="263.6094" y2="263.6094"/><text fill="#000000" font-family="sans-serif" font-size="14" lengthAdjust="spacing" textLength="282" x="1246.5" y="282.1426">+GetAllAsync(): Task&lt;List&lt;OperationType&gt;&gt;</text><text fill="#000000" font-family="sans-serif" font-size="14" lengthAdjust="spacing" textLength="360" x="1246.5" y="299.752">+GetByNameAsync(name: Name): Task&lt;OperationType&gt;</text><text fill="#000000" font-family="sans-serif" font-size="14" lengthAdjust="spacing" textLength="547" x="1246.5" y="317.3613">+GetBySpecializationAsync(specialization: Specialization): Task&lt;List&lt;OperationType&gt;&gt;</text><text fill="#000000" font-family="sans-serif" font-size="14" lengthAdjust="spacing" textLength="396" x="1246.5" y="334.9707">+GetByStatusAsync(status: bool): Task&lt;List&lt;OperationType&gt;&gt;</text></g><!--class IOperationTypeRepository--><g id="elem_IOperationTypeRepository"><rect codeLine="33" fill="#F1F1F1" height="118.4375" id="IOperationTypeRepository" rx="2.5" ry="2.5" style="stroke:#181818;stroke-width:0.5;" width="559" x="1240.5" y="401.6094"/><ellipse cx="1432.25" cy="417.6094" fill="#B4A7E5" rx="11" ry="11" style="stroke:#181818;stroke-width:1.0;"/><path d="M1433.2031,414.25 L1433.2031,420.9063 L1434.9219,420.9063 Q1435.5313,420.9063 1435.7969,421.1406 Q1436.0625,421.375 1436.0625,421.7656 Q1436.0625,422.1406 1435.7969,422.375 Q1435.5313,422.6094 1434.9219,422.6094 L1429.7813,422.6094 Q1429.1719,422.6094 1428.9063,422.375 Q1428.6406,422.1406 1428.6406,421.75 Q1428.6406,421.375 1428.9063,421.1406 Q1429.1719,420.9063 1429.7813,420.9063 L1431.5,420.9063 L1431.5,414.25 L1429.7813,414.25 Q1429.1719,414.25 1428.9063,414.0156 Q1428.6406,413.7813 1428.6406,413.3906 Q1428.6406,413.0156 1428.9063,412.7813 Q1429.1719,412.5469 1429.7813,412.5469 L1434.9219,412.5469 Q1435.5313,412.5469 1435.7969,412.7813 Q1436.0625,413.0156 1436.0625,413.3906 Q1436.0625,413.7813 1435.7969,414.0156 Q1435.5313,414.25 1434.9219,414.25 L1433.2031,414.25 Z " fill="#000000"/><text fill="#000000" font-family="sans-serif" font-size="14" font-style="italic" lengthAdjust="spacing" textLength="167" x="1452.75" y="423.3379">IOperationTypeRepository</text><line style="stroke:#181818;stroke-width:0.5;" x1="1241.5" x2="1798.5" y1="433.6094" y2="433.6094"/><line style="stroke:#181818;stroke-width:0.5;" x1="1241.5" x2="1798.5" y1="441.6094" y2="441.6094"/><text fill="#000000" font-family="sans-serif" font-size="14" lengthAdjust="spacing" textLength="282" x="1246.5" y="460.1426">+GetAllAsync(): Task&lt;List&lt;OperationType&gt;&gt;</text><text fill="#000000" font-family="sans-serif" font-size="14" lengthAdjust="spacing" textLength="360" x="1246.5" y="477.752">+GetByNameAsync(name: Name): Task&lt;OperationType&gt;</text><text fill="#000000" font-family="sans-serif" font-size="14" lengthAdjust="spacing" textLength="547" x="1246.5" y="495.3613">+GetBySpecializationAsync(specialization: Specialization): Task&lt;List&lt;OperationType&gt;&gt;</text><text fill="#000000" font-family="sans-serif" font-size="14" lengthAdjust="spacing" textLength="396" x="1246.5" y="512.9707">+GetByStatusAsync(status: bool): Task&lt;List&lt;OperationType&gt;&gt;</text></g><!--class OperationType--><g id="elem_OperationType"><rect codeLine="40" fill="#F1F1F1" height="241.7031" id="OperationType" rx="2.5" ry="2.5" style="stroke:#181818;stroke-width:0.5;" width="424" x="801" y="579.6094"/><ellipse cx="961.25" cy="595.6094" fill="#ADD1B2" rx="11" ry="11" style="stroke:#181818;stroke-width:1.0;"/><path d="M964.0156,591.4844 Q964.1719,591.2656 964.3594,591.1563 Q964.5469,591.0469 964.7656,591.0469 Q965.1406,591.0469 965.375,591.3125 Q965.6094,591.5625 965.6094,592.1719 L965.6094,593.625 Q965.6094,594.2344 965.375,594.5 Q965.1406,594.7656 964.7656,594.7656 Q964.4219,594.7656 964.2188,594.5625 Q964.0156,594.375 963.9063,593.8594 Q963.8594,593.5 963.6719,593.3125 Q963.3438,592.9375 962.7344,592.7188 Q962.125,592.5 961.5,592.5 Q960.7344,592.5 960.0938,592.8281 Q959.4688,593.1563 958.9688,593.9063 Q958.4844,594.6563 958.4844,595.6875 L958.4844,596.7813 Q958.4844,598.0156 959.375,598.8438 Q960.2656,599.6563 961.8594,599.6563 Q962.7969,599.6563 963.4531,599.4063 Q963.8438,599.25 964.2656,598.8125 Q964.5313,598.5469 964.6719,598.4688 Q964.8281,598.3906 965.0313,598.3906 Q965.3594,598.3906 965.6094,598.6563 Q965.875,598.9063 965.875,599.25 Q965.875,599.5938 965.5313,600 Q965.0313,600.5781 964.2344,600.9063 Q963.1563,601.3594 961.8594,601.3594 Q960.3438,601.3594 959.1406,600.7344 Q958.1563,600.2344 957.4688,599.1719 Q956.7813,598.0938 956.7813,596.8125 L956.7813,595.6563 Q956.7813,594.3281 957.3906,593.1875 Q958.0156,592.0313 959.1094,591.4219 Q960.2031,590.7969 961.4375,590.7969 Q962.1719,590.7969 962.8125,590.9688 Q963.4688,591.125 964.0156,591.4844 Z " fill="#000000"/><text fill="#000000" font-family="sans-serif" font-size="14" lengthAdjust="spacing" textLength="95" x="981.75" y="601.3379">OperationType</text><line style="stroke:#181818;stroke-width:0.5;" x1="802" x2="1224" y1="611.6094" y2="611.6094"/><text fill="#000000" font-family="sans-serif" font-size="14" lengthAdjust="spacing" textLength="135" x="807" y="630.1426">+Id: OperationTypeID</text><text fill="#000000" font-family="sans-serif" font-size="14" lengthAdjust="spacing" textLength="88" x="807" y="647.752">+Name: Name</text><text fill="#000000" font-family="sans-serif" font-size="14" lengthAdjust="spacing" textLength="83" x="807" y="665.3613">+Status: bool</text><text fill="#000000" font-family="sans-serif" font-size="14" lengthAdjust="spacing" textLength="188" x="807" y="682.9707">+Specialization: Specialization</text><text fill="#000000" font-family="sans-serif" font-size="14" lengthAdjust="spacing" textLength="228" x="807" y="700.5801">+RequiredStaff: List&lt;RequiredStaff&gt;</text><text fill="#000000" font-family="sans-serif" font-size="14" lengthAdjust="spacing" textLength="218" x="807" y="718.1895">+PhasesDuration: PhasesDuration</text><line style="stroke:#181818;stroke-width:0.5;" x1="802" x2="1224" y1="725.2656" y2="725.2656"/><text fill="#000000" font-family="sans-serif" font-size="14" lengthAdjust="spacing" textLength="217" x="807" y="743.7988">+ChangeName(name: Name): void</text><text fill="#000000" font-family="sans-serif" font-size="14" lengthAdjust="spacing" textLength="215" x="807" y="761.4082">+ChangeStatus(status: bool): void</text><text fill="#000000" font-family="sans-serif" font-size="14" lengthAdjust="spacing" textLength="366" x="807" y="779.0176">+ChangeSpecialization(specialization: Specialization): void</text><text fill="#000000" font-family="sans-serif" font-size="14" lengthAdjust="spacing" textLength="404" x="807" y="796.627">+ChangeRequiredStaff(requiredStaff: List&lt;RequiredStaff&gt;): void</text><text fill="#000000" font-family="sans-serif" font-size="14" lengthAdjust="spacing" textLength="412" x="807" y="814.2363">+ChangePhasesDuration(phasesDuration: PhasesDuration): void</text></g><!--class OperationTypeDto--><g id="elem_OperationTypeDto"><rect codeLine="54" fill="#F1F1F1" height="153.6563" id="OperationTypeDto" rx="2.5" ry="2.5" style="stroke:#181818;stroke-width:0.5;" width="240" x="526" y="623.6094"/><ellipse cx="583.25" cy="639.6094" fill="#ADD1B2" rx="11" ry="11" style="stroke:#181818;stroke-width:1.0;"/><path d="M586.0156,635.4844 Q586.1719,635.2656 586.3594,635.1563 Q586.5469,635.0469 586.7656,635.0469 Q587.1406,635.0469 587.375,635.3125 Q587.6094,635.5625 587.6094,636.1719 L587.6094,637.625 Q587.6094,638.2344 587.375,638.5 Q587.1406,638.7656 586.7656,638.7656 Q586.4219,638.7656 586.2188,638.5625 Q586.0156,638.375 585.9063,637.8594 Q585.8594,637.5 585.6719,637.3125 Q585.3438,636.9375 584.7344,636.7188 Q584.125,636.5 583.5,636.5 Q582.7344,636.5 582.0938,636.8281 Q581.4688,637.1563 580.9688,637.9063 Q580.4844,638.6563 580.4844,639.6875 L580.4844,640.7813 Q580.4844,642.0156 581.375,642.8438 Q582.2656,643.6563 583.8594,643.6563 Q584.7969,643.6563 585.4531,643.4063 Q585.8438,643.25 586.2656,642.8125 Q586.5313,642.5469 586.6719,642.4688 Q586.8281,642.3906 587.0313,642.3906 Q587.3594,642.3906 587.6094,642.6563 Q587.875,642.9063 587.875,643.25 Q587.875,643.5938 587.5313,644 Q587.0313,644.5781 586.2344,644.9063 Q585.1563,645.3594 583.8594,645.3594 Q582.3438,645.3594 581.1406,644.7344 Q580.1563,644.2344 579.4688,643.1719 Q578.7813,642.0938 578.7813,640.8125 L578.7813,639.6563 Q578.7813,638.3281 579.3906,637.1875 Q580.0156,636.0313 581.1094,635.4219 Q582.2031,634.7969 583.4375,634.7969 Q584.1719,634.7969 584.8125,634.9688 Q585.4688,635.125 586.0156,635.4844 Z " fill="#000000"/><text fill="#000000" font-family="sans-serif" font-size="14" lengthAdjust="spacing" textLength="117" x="603.75" y="645.3379">OperationTypeDto</text><line style="stroke:#181818;stroke-width:0.5;" x1="527" x2="765" y1="655.6094" y2="655.6094"/><text fill="#000000" font-family="sans-serif" font-size="14" lengthAdjust="spacing" textLength="135" x="532" y="674.1426">+Id: OperationTypeID</text><text fill="#000000" font-family="sans-serif" font-size="14" lengthAdjust="spacing" textLength="88" x="532" y="691.752">+Name: Name</text><text fill="#000000" font-family="sans-serif" font-size="14" lengthAdjust="spacing" textLength="83" x="532" y="709.3613">+Status: bool</text><text fill="#000000" font-family="sans-serif" font-size="14" lengthAdjust="spacing" textLength="188" x="532" y="726.9707">+Specialization: Specialization</text><text fill="#000000" font-family="sans-serif" font-size="14" lengthAdjust="spacing" textLength="228" x="532" y="744.5801">+RequiredStaff: List&lt;RequiredStaff&gt;</text><text fill="#000000" font-family="sans-serif" font-size="14" lengthAdjust="spacing" textLength="218" x="532" y="762.1895">+PhasesDuration: PhasesDuration</text><line style="stroke:#181818;stroke-width:0.5;" x1="527" x2="765" y1="769.2656" y2="769.2656"/></g><!--class RequiredStaff--><g id="elem_RequiredStaff"><rect codeLine="63" fill="#F1F1F1" height="100.8281" id="RequiredStaff" rx="2.5" ry="2.5" style="stroke:#181818;stroke-width:0.5;" width="200" x="7" y="881.6094"/><ellipse cx="59.25" cy="897.6094" fill="#ADD1B2" rx="11" ry="11" style="stroke:#181818;stroke-width:1.0;"/><path d="M62.0156,893.4844 Q62.1719,893.2656 62.3594,893.1563 Q62.5469,893.0469 62.7656,893.0469 Q63.1406,893.0469 63.375,893.3125 Q63.6094,893.5625 63.6094,894.1719 L63.6094,895.625 Q63.6094,896.2344 63.375,896.5 Q63.1406,896.7656 62.7656,896.7656 Q62.4219,896.7656 62.2188,896.5625 Q62.0156,896.375 61.9063,895.8594 Q61.8594,895.5 61.6719,895.3125 Q61.3438,894.9375 60.7344,894.7188 Q60.125,894.5 59.5,894.5 Q58.7344,894.5 58.0938,894.8281 Q57.4688,895.1563 56.9688,895.9063 Q56.4844,896.6563 56.4844,897.6875 L56.4844,898.7813 Q56.4844,900.0156 57.375,900.8438 Q58.2656,901.6563 59.8594,901.6563 Q60.7969,901.6563 61.4531,901.4063 Q61.8438,901.25 62.2656,900.8125 Q62.5313,900.5469 62.6719,900.4688 Q62.8281,900.3906 63.0313,900.3906 Q63.3594,900.3906 63.6094,900.6563 Q63.875,900.9063 63.875,901.25 Q63.875,901.5938 63.5313,902 Q63.0313,902.5781 62.2344,902.9063 Q61.1563,903.3594 59.8594,903.3594 Q58.3438,903.3594 57.1406,902.7344 Q56.1563,902.2344 55.4688,901.1719 Q54.7813,900.0938 54.7813,898.8125 L54.7813,897.6563 Q54.7813,896.3281 55.3906,895.1875 Q56.0156,894.0313 57.1094,893.4219 Q58.2031,892.7969 59.4375,892.7969 Q60.1719,892.7969 60.8125,892.9688 Q61.4688,893.125 62.0156,893.4844 Z " fill="#000000"/><text fill="#000000" font-family="sans-serif" font-size="14" lengthAdjust="spacing" textLength="87" x="79.75" y="903.3379">RequiredStaff</text><line style="stroke:#181818;stroke-width:0.5;" x1="8" x2="206" y1="913.6094" y2="913.6094"/><text fill="#000000" font-family="sans-serif" font-size="14" lengthAdjust="spacing" textLength="74" x="13" y="932.1426">+Role: Role</text><text fill="#000000" font-family="sans-serif" font-size="14" lengthAdjust="spacing" textLength="188" x="13" y="949.752">+Specialization: Specialization</text><text fill="#000000" font-family="sans-serif" font-size="14" lengthAdjust="spacing" textLength="122" x="13" y="967.3613">+Quantity: Quantity</text><line style="stroke:#181818;stroke-width:0.5;" x1="8" x2="206" y1="974.4375" y2="974.4375"/></g><g id="elem_GMN9"><path d="M242,919.1094 L242,928.6094 L207.1,932.6094 L242,936.6094 L242,945.4609 A0,0 0 0 0 242,945.4609 L586,945.4609 A0,0 0 0 0 586,945.4609 L586,929.1094 L576,919.1094 L242,919.1094 A0,0 0 0 0 242,919.1094 " fill="#FEFFDD" style="stroke:#181818;stroke-width:0.5;"/><path d="M576,919.1094 L576,929.1094 L586,929.1094 L576,919.1094 " fill="#FEFFDD" style="stroke:#181818;stroke-width:0.5;"/><text fill="#000000" font-family="sans-serif" font-size="13" lengthAdjust="spacing" textLength="323" x="248" y="937.6045">Role can only be a staff role: Doctor, Nurse or Assistant</text></g><!--class Quantity--><g id="elem_Quantity"><rect codeLine="72" fill="#F1F1F1" height="65.6094" id="Quantity" rx="2.5" ry="2.5" style="stroke:#181818;stroke-width:0.5;" width="96" x="54" y="1042.6094"/><ellipse cx="73.95" cy="1058.6094" fill="#ADD1B2" rx="11" ry="11" style="stroke:#181818;stroke-width:1.0;"/><path d="M76.7156,1054.4844 Q76.8719,1054.2656 77.0594,1054.1563 Q77.2469,1054.0469 77.4656,1054.0469 Q77.8406,1054.0469 78.075,1054.3125 Q78.3094,1054.5625 78.3094,1055.1719 L78.3094,1056.625 Q78.3094,1057.2344 78.075,1057.5 Q77.8406,1057.7656 77.4656,1057.7656 Q77.1219,1057.7656 76.9188,1057.5625 Q76.7156,1057.375 76.6063,1056.8594 Q76.5594,1056.5 76.3719,1056.3125 Q76.0438,1055.9375 75.4344,1055.7188 Q74.825,1055.5 74.2,1055.5 Q73.4344,1055.5 72.7938,1055.8281 Q72.1688,1056.1563 71.6688,1056.9063 Q71.1844,1057.6563 71.1844,1058.6875 L71.1844,1059.7813 Q71.1844,1061.0156 72.075,1061.8438 Q72.9656,1062.6563 74.5594,1062.6563 Q75.4969,1062.6563 76.1531,1062.4063 Q76.5438,1062.25 76.9656,1061.8125 Q77.2313,1061.5469 77.3719,1061.4688 Q77.5281,1061.3906 77.7313,1061.3906 Q78.0594,1061.3906 78.3094,1061.6563 Q78.575,1061.9063 78.575,1062.25 Q78.575,1062.5938 78.2313,1063 Q77.7313,1063.5781 76.9344,1063.9063 Q75.8563,1064.3594 74.5594,1064.3594 Q73.0438,1064.3594 71.8406,1063.7344 Q70.8563,1063.2344 70.1688,1062.1719 Q69.4813,1061.0938 69.4813,1059.8125 L69.4813,1058.6563 Q69.4813,1057.3281 70.0906,1056.1875 Q70.7156,1055.0313 71.8094,1054.4219 Q72.9031,1053.7969 74.1375,1053.7969 Q74.8719,1053.7969 75.5125,1053.9688 Q76.1688,1054.125 76.7156,1054.4844 Z " fill="#000000"/><text fill="#000000" font-family="sans-serif" font-size="14" lengthAdjust="spacing" textLength="53" x="89.05" y="1064.3379">Quantity</text><line style="stroke:#181818;stroke-width:0.5;" x1="55" x2="149" y1="1074.6094" y2="1074.6094"/><text fill="#000000" font-family="sans-serif" font-size="14" lengthAdjust="spacing" textLength="84" x="60" y="1093.1426">+Quantity: int</text><line style="stroke:#181818;stroke-width:0.5;" x1="55" x2="149" y1="1100.2188" y2="1100.2188"/></g><g id="elem_GMN13"><path d="M763.5,1062.6094 L763.5,1088.9609 L968.5,1088.9609 L968.5,1072.6094 L958.5,1062.6094 L763.5,1062.6094 " fill="#FEFFDD" style="stroke:#181818;stroke-width:0.5;"/><path d="M958.5,1062.6094 L958.5,1072.6094 L968.5,1072.6094 L958.5,1062.6094 " fill="#FEFFDD" style="stroke:#181818;stroke-width:1.0;"/><text fill="#000000" font-family="sans-serif" font-size="13" lengthAdjust="spacing" textLength="184" x="769.5" y="1081.1045">Quantity must be greater than 0</text></g><!--class Specialization--><g id="elem_Specialization"><rect codeLine="79" fill="#F1F1F1" height="65.6094" id="Specialization" rx="2.5" ry="2.5" style="stroke:#181818;stroke-width:0.5;" width="178" x="550" y="1042.6094"/><ellipse cx="592" cy="1058.6094" fill="#ADD1B2" rx="11" ry="11" style="stroke:#181818;stroke-width:1.0;"/><path d="M594.7656,1054.4844 Q594.9219,1054.2656 595.1094,1054.1563 Q595.2969,1054.0469 595.5156,1054.0469 Q595.8906,1054.0469 596.125,1054.3125 Q596.3594,1054.5625 596.3594,1055.1719 L596.3594,1056.625 Q596.3594,1057.2344 596.125,1057.5 Q595.8906,1057.7656 595.5156,1057.7656 Q595.1719,1057.7656 594.9688,1057.5625 Q594.7656,1057.375 594.6563,1056.8594 Q594.6094,1056.5 594.4219,1056.3125 Q594.0938,1055.9375 593.4844,1055.7188 Q592.875,1055.5 592.25,1055.5 Q591.4844,1055.5 590.8438,1055.8281 Q590.2188,1056.1563 589.7188,1056.9063 Q589.2344,1057.6563 589.2344,1058.6875 L589.2344,1059.7813 Q589.2344,1061.0156 590.125,1061.8438 Q591.0156,1062.6563 592.6094,1062.6563 Q593.5469,1062.6563 594.2031,1062.4063 Q594.5938,1062.25 595.0156,1061.8125 Q595.2813,1061.5469 595.4219,1061.4688 Q595.5781,1061.3906 595.7813,1061.3906 Q596.1094,1061.3906 596.3594,1061.6563 Q596.625,1061.9063 596.625,1062.25 Q596.625,1062.5938 596.2813,1063 Q595.7813,1063.5781 594.9844,1063.9063 Q593.9063,1064.3594 592.6094,1064.3594 Q591.0938,1064.3594 589.8906,1063.7344 Q588.9063,1063.2344 588.2188,1062.1719 Q587.5313,1061.0938 587.5313,1059.8125 L587.5313,1058.6563 Q587.5313,1057.3281 588.1406,1056.1875 Q588.7656,1055.0313 589.8594,1054.4219 Q590.9531,1053.7969 592.1875,1053.7969 Q592.9219,1053.7969 593.5625,1053.9688 Q594.2188,1054.125 594.7656,1054.4844 Z " fill="#000000"/><text fill="#000000" font-family="sans-serif" font-size="14" lengthAdjust="spacing" textLength="86" x="612" y="1064.3379">Specialization</text><line style="stroke:#181818;stroke-width:0.5;" x1="551" x2="727" y1="1074.6094" y2="1074.6094"/><text fill="#000000" font-family="sans-serif" font-size="14" lengthAdjust="spacing" textLength="166" x="556" y="1093.1426">+Designation: Designation</text><line style="stroke:#181818;stroke-width:0.5;" x1="551" x2="727" y1="1100.2188" y2="1100.2188"/></g><!--class PhasesDuration--><g id="elem_PhasesDuration"><rect codeLine="83" fill="#F1F1F1" height="65.6094" id="PhasesDuration" rx="2.5" ry="2.5" style="stroke:#181818;stroke-width:0.5;" width="260" x="1073" y="899.1094"/><ellipse cx="1148.25" cy="915.1094" fill="#ADD1B2" rx="11" ry="11" style="stroke:#181818;stroke-width:1.0;"/><path d="M1151.0156,910.9844 Q1151.1719,910.7656 1151.3594,910.6563 Q1151.5469,910.5469 1151.7656,910.5469 Q1152.1406,910.5469 1152.375,910.8125 Q1152.6094,911.0625 1152.6094,911.6719 L1152.6094,913.125 Q1152.6094,913.7344 1152.375,914 Q1152.1406,914.2656 1151.7656,914.2656 Q1151.4219,914.2656 1151.2188,914.0625 Q1151.0156,913.875 1150.9063,913.3594 Q1150.8594,913 1150.6719,912.8125 Q1150.3438,912.4375 1149.7344,912.2188 Q1149.125,912 1148.5,912 Q1147.7344,912 1147.0938,912.3281 Q1146.4688,912.6563 1145.9688,913.4063 Q1145.4844,914.1563 1145.4844,915.1875 L1145.4844,916.2813 Q1145.4844,917.5156 1146.375,918.3438 Q1147.2656,919.1563 1148.8594,919.1563 Q1149.7969,919.1563 1150.4531,918.9063 Q1150.8438,918.75 1151.2656,918.3125 Q1151.5313,918.0469 1151.6719,917.9688 Q1151.8281,917.8906 1152.0313,917.8906 Q1152.3594,917.8906 1152.6094,918.1563 Q1152.875,918.4063 1152.875,918.75 Q1152.875,919.0938 1152.5313,919.5 Q1152.0313,920.0781 1151.2344,920.4063 Q1150.1563,920.8594 1148.8594,920.8594 Q1147.3438,920.8594 1146.1406,920.2344 Q1145.1563,919.7344 1144.4688,918.6719 Q1143.7813,917.5938 1143.7813,916.3125 L1143.7813,915.1563 Q1143.7813,913.8281 1144.3906,912.6875 Q1145.0156,911.5313 1146.1094,910.9219 Q1147.2031,910.2969 1148.4375,910.2969 Q1149.1719,910.2969 1149.8125,910.4688 Q1150.4688,910.625 1151.0156,910.9844 Z " fill="#000000"/><text fill="#000000" font-family="sans-serif" font-size="14" lengthAdjust="spacing" textLength="101" x="1168.75" y="920.8379">PhasesDuration</text><line style="stroke:#181818;stroke-width:0.5;" x1="1074" x2="1332" y1="931.1094" y2="931.1094"/><text fill="#000000" font-family="sans-serif" font-size="14" lengthAdjust="spacing" textLength="248" x="1079" y="949.6426">-_phases: Dictionary&lt;Phase, Duration&gt;</text><line style="stroke:#181818;stroke-width:0.5;" x1="1074" x2="1332" y1="956.7188" y2="956.7188"/></g><!--class Phase--><g id="elem_Phase"><rect codeLine="87" fill="#F1F1F1" height="65.6094" id="Phase" rx="2.5" ry="2.5" style="stroke:#181818;stroke-width:0.5;" width="260" x="1038" y="1042.6094"/><ellipse cx="1143.75" cy="1058.6094" fill="#EB937F" rx="11" ry="11" style="stroke:#181818;stroke-width:1.0;"/><path d="M1142.6094,1059.4063 L1142.6094,1061.9063 L1146.9375,1061.9063 L1146.9375,1060.9844 Q1146.9375,1060.375 1147.1719,1060.1094 Q1147.4219,1059.8438 1147.7969,1059.8438 Q1148.1719,1059.8438 1148.4063,1060.1094 Q1148.6406,1060.375 1148.6406,1060.9844 L1148.6406,1063.6094 L1140.6406,1063.6094 Q1140.0156,1063.6094 1139.75,1063.375 Q1139.5,1063.1406 1139.5,1062.75 Q1139.5,1062.375 1139.7656,1062.1406 Q1140.0313,1061.9063 1140.6406,1061.9063 L1140.9063,1061.9063 L1140.9063,1055.25 L1140.6406,1055.25 Q1140.0156,1055.25 1139.75,1055.0156 Q1139.5,1054.7813 1139.5,1054.3906 Q1139.5,1054.0156 1139.75,1053.7813 Q1140.0156,1053.5469 1140.6406,1053.5469 L1148.2656,1053.5469 L1148.2656,1056.1406 Q1148.2656,1056.75 1148.0313,1057.0156 Q1147.8125,1057.2656 1147.4219,1057.2656 Q1147.0469,1057.2656 1146.8125,1057.0156 Q1146.5781,1056.75 1146.5781,1056.1406 L1146.5781,1055.25 L1142.6094,1055.25 L1142.6094,1057.7031 L1144.0938,1057.7031 Q1144.0938,1057.0469 1144.2188,1056.8594 Q1144.4844,1056.4531 1144.9531,1056.4531 Q1145.3281,1056.4531 1145.5625,1056.7188 Q1145.7969,1056.9688 1145.7969,1057.5781 L1145.7969,1059.5469 Q1145.7969,1060.0938 1145.6719,1060.2813 Q1145.4063,1060.6719 1144.9531,1060.6719 Q1144.4844,1060.6719 1144.2188,1060.2656 Q1144.0938,1060.0781 1144.0938,1059.4063 L1142.6094,1059.4063 Z " fill="#000000"/><text fill="#000000" font-family="sans-serif" font-size="14" lengthAdjust="spacing" textLength="40" x="1164.25" y="1064.3379">Phase</text><line style="stroke:#181818;stroke-width:0.5;" x1="1039" x2="1297" y1="1074.6094" y2="1074.6094"/><text fill="#000000" font-family="sans-serif" font-size="14" lengthAdjust="spacing" textLength="248" x="1044" y="1093.1426">PREPARATION, SURGERY, CLEANING</text><line style="stroke:#181818;stroke-width:0.5;" x1="1039" x2="1297" y1="1100.2188" y2="1100.2188"/></g><!--class Duration--><g id="elem_Duration"><rect codeLine="91" fill="#F1F1F1" height="65.6094" id="Duration" rx="2.5" ry="2.5" style="stroke:#181818;stroke-width:0.5;" width="92" x="1333" y="1042.6094"/><ellipse cx="1350.7" cy="1058.6094" fill="#ADD1B2" rx="11" ry="11" style="stroke:#181818;stroke-width:1.0;"/><path d="M1353.4656,1054.4844 Q1353.6219,1054.2656 1353.8094,1054.1563 Q1353.9969,1054.0469 1354.2156,1054.0469 Q1354.5906,1054.0469 1354.825,1054.3125 Q1355.0594,1054.5625 1355.0594,1055.1719 L1355.0594,1056.625 Q1355.0594,1057.2344 1354.825,1057.5 Q1354.5906,1057.7656 1354.2156,1057.7656 Q1353.8719,1057.7656 1353.6688,1057.5625 Q1353.4656,1057.375 1353.3563,1056.8594 Q1353.3094,1056.5 1353.1219,1056.3125 Q1352.7938,1055.9375 1352.1844,1055.7188 Q1351.575,1055.5 1350.95,1055.5 Q1350.1844,1055.5 1349.5438,1055.8281 Q1348.9188,1056.1563 1348.4188,1056.9063 Q1347.9344,1057.6563 1347.9344,1058.6875 L1347.9344,1059.7813 Q1347.9344,1061.0156 1348.825,1061.8438 Q1349.7156,1062.6563 1351.3094,1062.6563 Q1352.2469,1062.6563 1352.9031,1062.4063 Q1353.2938,1062.25 1353.7156,1061.8125 Q1353.9813,1061.5469 1354.1219,1061.4688 Q1354.2781,1061.3906 1354.4813,1061.3906 Q1354.8094,1061.3906 1355.0594,1061.6563 Q1355.325,1061.9063 1355.325,1062.25 Q1355.325,1062.5938 1354.9813,1063 Q1354.4813,1063.5781 1353.6844,1063.9063 Q1352.6063,1064.3594 1351.3094,1064.3594 Q1349.7938,1064.3594 1348.5906,1063.7344 Q1347.6063,1063.2344 1346.9188,1062.1719 Q1346.2313,1061.0938 1346.2313,1059.8125 L1346.2313,1058.6563 Q1346.2313,1057.3281 1346.8406,1056.1875 Q1347.4656,1055.0313 1348.5594,1054.4219 Q1349.6531,1053.7969 1350.8875,1053.7969 Q1351.6219,1053.7969 1352.2625,1053.9688 Q1352.9188,1054.125 1353.4656,1054.4844 Z " fill="#000000"/><text fill="#000000" font-family="sans-serif" font-size="14" lengthAdjust="spacing" textLength="54" x="1365.3" y="1064.3379">Duration</text><line style="stroke:#181818;stroke-width:0.5;" x1="1334" x2="1424" y1="1074.6094" y2="1074.6094"/><text fill="#000000" font-family="sans-serif" font-size="14" lengthAdjust="spacing" textLength="80" x="1339" y="1093.1426">+Minutes: int</text><line style="stroke:#181818;stroke-width:0.5;" x1="1334" x2="1424" y1="1100.2188" y2="1100.2188"/></g><!--class Name--><g id="elem_Name"><rect codeLine="95" fill="#F1F1F1" height="65.6094" id="Name" rx="2.5" ry="2.5" style="stroke:#181818;stroke-width:0.5;" width="99" x="867.5" y="899.1094"/><ellipse cx="896.45" cy="915.1094" fill="#ADD1B2" rx="11" ry="11" style="stroke:#181818;stroke-width:1.0;"/><path d="M899.2156,910.9844 Q899.3719,910.7656 899.5594,910.6563 Q899.7469,910.5469 899.9656,910.5469 Q900.3406,910.5469 900.575,910.8125 Q900.8094,911.0625 900.8094,911.6719 L900.8094,913.125 Q900.8094,913.7344 900.575,914 Q900.3406,914.2656 899.9656,914.2656 Q899.6219,914.2656 899.4188,914.0625 Q899.2156,913.875 899.1063,913.3594 Q899.0594,913 898.8719,912.8125 Q898.5438,912.4375 897.9344,912.2188 Q897.325,912 896.7,912 Q895.9344,912 895.2938,912.3281 Q894.6688,912.6563 894.1688,913.4063 Q893.6844,914.1563 893.6844,915.1875 L893.6844,916.2813 Q893.6844,917.5156 894.575,918.3438 Q895.4656,919.1563 897.0594,919.1563 Q897.9969,919.1563 898.6531,918.9063 Q899.0438,918.75 899.4656,918.3125 Q899.7313,918.0469 899.8719,917.9688 Q900.0281,917.8906 900.2313,917.8906 Q900.5594,917.8906 900.8094,918.1563 Q901.075,918.4063 901.075,918.75 Q901.075,919.0938 900.7313,919.5 Q900.2313,920.0781 899.4344,920.4063 Q898.3563,920.8594 897.0594,920.8594 Q895.5438,920.8594 894.3406,920.2344 Q893.3563,919.7344 892.6688,918.6719 Q891.9813,917.5938 891.9813,916.3125 L891.9813,915.1563 Q891.9813,913.8281 892.5906,912.6875 Q893.2156,911.5313 894.3094,910.9219 Q895.4031,910.2969 896.6375,910.2969 Q897.3719,910.2969 898.0125,910.4688 Q898.6688,910.625 899.2156,910.9844 Z " fill="#000000"/><text fill="#000000" font-family="sans-serif" font-size="14" lengthAdjust="spacing" textLength="36" x="913.55" y="920.8379">Name</text><line style="stroke:#181818;stroke-width:0.5;" x1="868.5" x2="965.5" y1="931.1094" y2="931.1094"/><text fill="#000000" font-family="sans-serif" font-size="14" lengthAdjust="spacing" textLength="87" x="873.5" y="949.6426">+Name: string</text><line style="stroke:#181818;stroke-width:0.5;" x1="868.5" x2="965.5" y1="956.7188" y2="956.7188"/></g><!--class OperationTypeID--><g id="elem_OperationTypeID"><rect codeLine="99" fill="#F1F1F1" height="65.6094" id="OperationTypeID" rx="2.5" ry="2.5" style="stroke:#181818;stroke-width:0.5;" width="140" x="692" y="899.1094"/><ellipse cx="707" cy="915.1094" fill="#ADD1B2" rx="11" ry="11" style="stroke:#181818;stroke-width:1.0;"/><path d="M709.7656,910.9844 Q709.9219,910.7656 710.1094,910.6563 Q710.2969,910.5469 710.5156,910.5469 Q710.8906,910.5469 711.125,910.8125 Q711.3594,911.0625 711.3594,911.6719 L711.3594,913.125 Q711.3594,913.7344 711.125,914 Q710.8906,914.2656 710.5156,914.2656 Q710.1719,914.2656 709.9688,914.0625 Q709.7656,913.875 709.6563,913.3594 Q709.6094,913 709.4219,912.8125 Q709.0938,912.4375 708.4844,912.2188 Q707.875,912 707.25,912 Q706.4844,912 705.8438,912.3281 Q705.2188,912.6563 704.7188,913.4063 Q704.2344,914.1563 704.2344,915.1875 L704.2344,916.2813 Q704.2344,917.5156 705.125,918.3438 Q706.0156,919.1563 707.6094,919.1563 Q708.5469,919.1563 709.2031,918.9063 Q709.5938,918.75 710.0156,918.3125 Q710.2813,918.0469 710.4219,917.9688 Q710.5781,917.8906 710.7813,917.8906 Q711.1094,917.8906 711.3594,918.1563 Q711.625,918.4063 711.625,918.75 Q711.625,919.0938 711.2813,919.5 Q710.7813,920.0781 709.9844,920.4063 Q708.9063,920.8594 707.6094,920.8594 Q706.0938,920.8594 704.8906,920.2344 Q703.9063,919.7344 703.2188,918.6719 Q702.5313,917.5938 702.5313,916.3125 L702.5313,915.1563 Q702.5313,913.8281 703.1406,912.6875 Q703.7656,911.5313 704.8594,910.9219 Q705.9531,910.2969 707.1875,910.2969 Q707.9219,910.2969 708.5625,910.4688 Q709.2188,910.625 709.7656,910.9844 Z " fill="#000000"/><text fill="#000000" font-family="sans-serif" font-size="14" lengthAdjust="spacing" textLength="108" x="721" y="920.8379">OperationTypeID</text><line style="stroke:#181818;stroke-width:0.5;" x1="693" x2="831" y1="931.1094" y2="931.1094"/><text fill="#000000" font-family="sans-serif" font-size="14" lengthAdjust="spacing" textLength="57" x="698" y="949.6426">+Id: Guid</text><line style="stroke:#181818;stroke-width:0.5;" x1="693" x2="831" y1="956.7188" y2="956.7188"/></g><!--class Role--><g id="elem_Role"><rect codeLine="103" fill="#F1F1F1" height="65.6094" id="Role" rx="2.5" ry="2.5" style="stroke:#181818;stroke-width:0.5;" width="330" x="185" y="1042.6094"/><ellipse cx="331.25" cy="1058.6094" fill="#EB937F" rx="11" ry="11" style="stroke:#181818;stroke-width:1.0;"/><path d="M330.1094,1059.4063 L330.1094,1061.9063 L334.4375,1061.9063 L334.4375,1060.9844 Q334.4375,1060.375 334.6719,1060.1094 Q334.9219,1059.8438 335.2969,1059.8438 Q335.6719,1059.8438 335.9063,1060.1094 Q336.1406,1060.375 336.1406,1060.9844 L336.1406,1063.6094 L328.1406,1063.6094 Q327.5156,1063.6094 327.25,1063.375 Q327,1063.1406 327,1062.75 Q327,1062.375 327.2656,1062.1406 Q327.5313,1061.9063 328.1406,1061.9063 L328.4063,1061.9063 L328.4063,1055.25 L328.1406,1055.25 Q327.5156,1055.25 327.25,1055.0156 Q327,1054.7813 327,1054.3906 Q327,1054.0156 327.25,1053.7813 Q327.5156,1053.5469 328.1406,1053.5469 L335.7656,1053.5469 L335.7656,1056.1406 Q335.7656,1056.75 335.5313,1057.0156 Q335.3125,1057.2656 334.9219,1057.2656 Q334.5469,1057.2656 334.3125,1057.0156 Q334.0781,1056.75 334.0781,1056.1406 L334.0781,1055.25 L330.1094,1055.25 L330.1094,1057.7031 L331.5938,1057.7031 Q331.5938,1057.0469 331.7188,1056.8594 Q331.9844,1056.4531 332.4531,1056.4531 Q332.8281,1056.4531 333.0625,1056.7188 Q333.2969,1056.9688 333.2969,1057.5781 L333.2969,1059.5469 Q333.2969,1060.0938 333.1719,1060.2813 Q332.9063,1060.6719 332.4531,1060.6719 Q331.9844,1060.6719 331.7188,1060.2656 Q331.5938,1060.0781 331.5938,1059.4063 L330.1094,1059.4063 Z " fill="#000000"/><text fill="#000000" font-family="sans-serif" font-size="14" lengthAdjust="spacing" textLength="29" x="351.75" y="1064.3379">Role</text><line style="stroke:#181818;stroke-width:0.5;" x1="186" x2="514" y1="1074.6094" y2="1074.6094"/><text fill="#000000" font-family="sans-serif" font-size="14" lengthAdjust="spacing" textLength="318" x="191" y="1093.1426">ADMIN, DOCTOR, NURSE, TECHNICIAN, PATIENT</text><line style="stroke:#181818;stroke-width:0.5;" x1="186" x2="514" y1="1100.2188" y2="1100.2188"/></g><!--link Quantity to GMN13--><g id="link_Quantity_GMN13"><path d="M118,1042.2694 C118,1027.1494 118,1012.6094 118,1012.6094 C118,1012.6094 797.75,1012.6094 797.75,1012.6094 C797.75,1012.6094 797.75,1044.0994 797.75,1062.5594 " fill="none" id="Quantity-GMN13" style="stroke:#181818;stroke-width:1.0;stroke-dasharray:7.0,7.0;"/></g><!--link OperationTypeController to OperationTypeService--><g id="link_OperationTypeController_OperationTypeService"><path codeLine="107" d="M857.5,163.8794 C857.5,183.0994 857.5,198.3994 857.5,217.5994 " fill="none" id="OperationTypeController-to-OperationTypeService" style="stroke:#181818;stroke-width:1.0;stroke-dasharray:7.0,7.0;"/><polygon fill="#181818" points="857.5,223.5994,861.5,214.5994,857.5,218.5994,853.5,214.5994,857.5,223.5994" style="stroke:#181818;stroke-width:1.0;"/><polygon fill="#000000" points="819.5,189.9152,822.4389,180.8701,816.5611,180.8701,819.5,189.9152" style="stroke:#000000;stroke-width:1.0;"/><text fill="#000000" font-family="sans-serif" font-size="13" lengthAdjust="spacing" textLength="28" x="828.5" y="190.2345">uses</text></g><!--link OperationTypeController to OperationTypeDto--><g id="link_OperationTypeController_OperationTypeDto"><path codeLine="108" d="M575.25,163.6594 C575.25,272.0194 575.25,496.5394 575.25,617.2494 " fill="none" id="OperationTypeController-to-OperationTypeDto" style="stroke:#181818;stroke-width:1.0;"/><polygon fill="#181818" points="575.25,623.2494,579.25,614.2494,575.25,618.2494,571.25,614.2494,575.25,623.2494" style="stroke:#181818;stroke-width:1.0;"/><polygon fill="#000000" points="525.25,389.6352,528.1889,380.5901,522.3111,380.5901,525.25,389.6352" style="stroke:#000000;stroke-width:1.0;"/><text fill="#000000" font-family="sans-serif" font-size="13" lengthAdjust="spacing" textLength="40" x="534.25" y="389.9545">returns</text></g><!--link OperationTypeService to OperationTypeRepository--><g id="link_OperationTypeService_OperationTypeRepository"><path codeLine="110" d="M1205.54,263.6094 C1217.05,263.6094 1222.59,263.6094 1234.08,263.6094 " fill="none" id="OperationTypeService-to-OperationTypeRepository" style="stroke:#181818;stroke-width:1.0;"/><polygon fill="#181818" points="1240.08,263.6094,1231.08,259.6094,1235.08,263.6094,1231.08,267.6094,1240.08,263.6094" style="stroke:#181818;stroke-width:1.0;"/><polygon fill="#000000" points="1211.31,272.7852,1202.2649,269.8462,1202.2649,275.7241,1211.31,272.7852" style="stroke:#000000;stroke-width:1.0;"/><text fill="#000000" font-family="sans-serif" font-size="13" lengthAdjust="spacing" textLength="28" x="1215.31" y="278.1045">uses</text></g><!--link OperationTypeService to OperationType--><g id="link_OperationTypeService_OperationType"><path codeLine="111" d="M1003.25,341.6094 C1003.25,403.1594 1003.25,495.3894 1003.25,573.5494 " fill="none" id="OperationTypeService-to-OperationType" style="stroke:#181818;stroke-width:1.0;"/><polygon fill="#181818" points="1003.25,579.5494,1007.25,570.5494,1003.25,574.5494,999.25,570.5494,1003.25,579.5494" style="stroke:#181818;stroke-width:1.0;"/><polygon fill="#000000" points="947.25,456.7552,950.1889,447.7101,944.3111,447.7101,947.25,456.7552" style="stroke:#000000;stroke-width:1.0;"/><text fill="#000000" font-family="sans-serif" font-size="13" lengthAdjust="spacing" textLength="46" x="956.25" y="457.0745">updates</text></g><!--link OperationTypeService to OperationTypeDto--><g id="link_OperationTypeService_OperationTypeDto"><path codeLine="112" d="M695.25,341.6094 C695.25,415.4294 695.25,535.9994 695.25,617.4394 " fill="none" id="OperationTypeService-to-OperationTypeDto" style="stroke:#181818;stroke-width:1.0;"/><polygon fill="#181818" points="695.25,623.4394,699.25,614.4394,695.25,618.4394,691.25,614.4394,695.25,623.4394" style="stroke:#181818;stroke-width:1.0;"/><polygon fill="#000000" points="642.25,478.7052,645.1889,469.6601,639.3111,469.6601,642.25,478.7052" style="stroke:#000000;stroke-width:1.0;"/><text fill="#000000" font-family="sans-serif" font-size="13" lengthAdjust="spacing" textLength="43" x="651.25" y="479.0245">creates</text></g><!--link OperationTypeRepository to IOperationTypeRepository--><g id="link_OperationTypeRepository_IOperationTypeRepository"><path codeLine="114" d="M1520,341.8794 C1520,361.0994 1520,376.3994 1520,395.5994 " fill="none" id="OperationTypeRepository-to-IOperationTypeRepository" style="stroke:#181818;stroke-width:1.0;"/><polygon fill="#181818" points="1520,401.5994,1524,392.5994,1520,396.5994,1516,392.5994,1520,401.5994" style="stroke:#181818;stroke-width:1.0;"/><polygon fill="#000000" points="1443,367.9152,1445.9389,358.8701,1440.0611,358.8701,1443,367.9152" style="stroke:#000000;stroke-width:1.0;"/><text fill="#000000" font-family="sans-serif" font-size="13" lengthAdjust="spacing" textLength="67" x="1452" y="368.2345">implements</text></g><!--link OperationTypeRepository to OperationType--><g id="link_OperationTypeRepository_OperationType"><path codeLine="115" d="M1240.45,302.6094 C1224.77,302.6094 1215.25,302.6094 1215.25,302.6094 C1215.25,302.6094 1215.25,456.4794 1215.25,573.5794 " fill="none" id="OperationTypeRepository-to-OperationType" style="stroke:#181818;stroke-width:1.0;"/><polygon fill="#181818" points="1215.25,579.5794,1219.25,570.5794,1215.25,574.5794,1211.25,570.5794,1215.25,579.5794" style="stroke:#181818;stroke-width:1.0;"/><polygon fill="#000000" points="1100.787,424.6437,1104.5509,415.9096,1098.6983,415.3653,1100.787,424.6437" style="stroke:#000000;stroke-width:1.0;"/><text fill="#000000" font-family="sans-serif" font-size="13" lengthAdjust="spacing" textLength="104" x="1110.25" y="424.9845">saves in database</text></g><!--link OperationType to OperationTypeID--><g id="link_OperationType_OperationTypeID"><path codeLine="117" d="M821.67,821.7794 C821.67,850.2294 821.67,872.2294 821.67,892.9094 " fill="none" id="OperationType-to-OperationTypeID" style="stroke:#181818;stroke-width:1.0;"/><polygon fill="#181818" points="821.67,898.9094,825.67,889.9094,821.67,893.9094,817.67,889.9094,821.67,898.9094" style="stroke:#181818;stroke-width:1.0;"/><polygon fill="#000000" points="790.67,874.5252,793.6089,865.4801,787.7311,865.4801,790.67,874.5252" style="stroke:#000000;stroke-width:1.0;"/><text fill="#000000" font-family="sans-serif" font-size="13" lengthAdjust="spacing" textLength="21" x="799.67" y="874.8445">has</text></g><!--link OperationType to Name--><g id="link_OperationType_Name"><path codeLine="118" d="M933.5,821.7794 C933.5,850.2294 933.5,872.2294 933.5,892.9094 " fill="none" id="OperationType-to-Name" style="stroke:#181818;stroke-width:1.0;"/><polygon fill="#181818" points="933.5,898.9094,937.5,889.9094,933.5,893.9094,929.5,889.9094,933.5,898.9094" style="stroke:#181818;stroke-width:1.0;"/><polygon fill="#000000" points="902.5,856.5252,905.4389,847.4801,899.5611,847.4801,902.5,856.5252" style="stroke:#000000;stroke-width:1.0;"/><text fill="#000000" font-family="sans-serif" font-size="13" lengthAdjust="spacing" textLength="21" x="911.5" y="856.8445">has</text></g><!--link OperationType to Specialization--><g id="link_OperationType_Specialization"><path codeLine="119" d="M849.75,821.7494 C849.75,923.5694 849.75,1052.6094 849.75,1052.6094 C849.75,1052.6094 791.59,1052.6094 734.07,1052.6094 " fill="none" id="OperationType-to-Specialization" style="stroke:#181818;stroke-width:1.0;"/><polygon fill="#181818" points="728.07,1052.6094,737.07,1056.6094,733.07,1052.6094,737.07,1048.6094,728.07,1052.6094" style="stroke:#181818;stroke-width:1.0;"/><polygon fill="#000000" points="816.5101,993.6654,823.1897,986.8953,817.9346,984.2621,816.5101,993.6654" style="stroke:#000000;stroke-width:1.0;"/><text fill="#000000" font-family="sans-serif" font-size="13" lengthAdjust="spacing" textLength="21" x="827.75" y="994.5145">has</text></g><!--link OperationType to RequiredStaff--><g id="link_OperationType_RequiredStaff"><path codeLine="120" d="M811.33,821.6094 C811.33,861.3794 811.33,895.6094 811.33,895.6094 C811.33,895.6094 407.62,895.6094 213.17,895.6094 " fill="none" id="OperationType-to-RequiredStaff" style="stroke:#181818;stroke-width:1.0;"/><polygon fill="#181818" points="207.17,895.6094,216.17,899.6094,212.17,895.6094,216.17,891.6094,207.17,895.6094" style="stroke:#181818;stroke-width:1.0;"/><polygon fill="#000000" points="510.2878,887.399,519.6253,889.2052,518.9036,883.3718,510.2878,887.399" style="stroke:#000000;stroke-width:1.0;"/><text fill="#000000" font-family="sans-serif" font-size="13" lengthAdjust="spacing" textLength="21" x="524.25" y="892.1045">has</text></g><!--link OperationType to PhasesDuration--><g id="link_OperationType_PhasesDuration"><path codeLine="121" d="M1174.33,821.7794 C1174.33,850.2294 1174.33,872.2294 1174.33,892.9094 " fill="none" id="OperationType-to-PhasesDuration" style="stroke:#181818;stroke-width:1.0;"/><polygon fill="#181818" points="1174.33,898.9094,1178.33,889.9094,1174.33,893.9094,1170.33,889.9094,1174.33,898.9094" style="stroke:#181818;stroke-width:1.0;"/><polygon fill="#000000" points="1143.33,856.5252,1146.2689,847.4801,1140.3911,847.4801,1143.33,856.5252" style="stroke:#000000;stroke-width:1.0;"/><text fill="#000000" font-family="sans-serif" font-size="13" lengthAdjust="spacing" textLength="21" x="1152.33" y="856.8445">has</text></g><!--link OperationTypeDto to OperationTypeID--><g id="link_OperationTypeDto_OperationTypeID"><path codeLine="123" d="M710.5,777.6994 C710.5,818.8694 710.5,861.4094 710.5,892.9194 " fill="none" id="OperationTypeDto-to-OperationTypeID" style="stroke:#181818;stroke-width:1.0;"/><polygon fill="#181818" points="710.5,898.9194,714.5,889.9194,710.5,893.9194,706.5,889.9194,710.5,898.9194" style="stroke:#181818;stroke-width:1.0;"/><polygon fill="#000000" points="679.5,834.4852,682.4389,825.4401,676.5611,825.4401,679.5,834.4852" style="stroke:#000000;stroke-width:1.0;"/><text fill="#000000" font-family="sans-serif" font-size="13" lengthAdjust="spacing" textLength="21" x="688.5" y="834.8045">has</text></g><!--link OperationTypeDto to Name--><g id="link_OperationTypeDto_Name"><path codeLine="124" d="M747.5,777.8794 C747.5,815.0294 747.5,851.6094 747.5,851.6094 C747.5,851.6094 900.5,851.6094 900.5,851.6094 C900.5,851.6094 900.5,870.7294 900.5,892.8994 " fill="none" id="OperationTypeDto-to-Name" style="stroke:#181818;stroke-width:1.0;"/><polygon fill="#181818" points="900.5,898.8994,904.5,889.8994,900.5,893.8994,896.5,889.8994,900.5,898.8994" style="stroke:#181818;stroke-width:1.0;"/><polygon fill="#000000" points="783.7766,845.7897,778.3127,838.0053,774.7807,842.7036,783.7766,845.7897" style="stroke:#000000;stroke-width:1.0;"/><text fill="#000000" font-family="sans-serif" font-size="13" lengthAdjust="spacing" textLength="21" x="788.78" y="848.1045">has</text></g><!--link OperationTypeDto to Specialization--><g id="link_OperationTypeDto_Specialization"><path codeLine="125" d="M639,777.8594 C639,859.1194 639,977.2294 639,1036.2194 " fill="none" id="OperationTypeDto-to-Specialization" style="stroke:#181818;stroke-width:1.0;"/><polygon fill="#181818" points="639,1042.2194,643,1033.2194,639,1037.2194,635,1033.2194,639,1042.2194" style="stroke:#181818;stroke-width:1.0;"/><polygon fill="#000000" points="608,906.2152,610.9389,897.1701,605.0611,897.1701,608,906.2152" style="stroke:#000000;stroke-width:1.0;"/><text fill="#000000" font-family="sans-serif" font-size="13" lengthAdjust="spacing" textLength="21" x="617" y="906.5345">has</text></g><!--link OperationTypeDto to RequiredStaff--><g id="link_OperationTypeDto_RequiredStaff"><path codeLine="126" d="M556,777.6194 C556,830.2794 556,890.6094 556,890.6094 C556,890.6094 345.54,890.6094 213.21,890.6094 " fill="none" id="OperationTypeDto-to-RequiredStaff" style="stroke:#181818;stroke-width:1.0;"/><polygon fill="#181818" points="207.21,890.6094,216.21,894.6094,212.21,890.6094,216.21,886.6094,207.21,890.6094" style="stroke:#181818;stroke-width:1.0;"/><polygon fill="#000000" points="358.3513,883.3504,367.8618,883.31,366.0217,877.7276,358.3513,883.3504" style="stroke:#000000;stroke-width:1.0;"/><text fill="#000000" font-family="sans-serif" font-size="13" lengthAdjust="spacing" textLength="65" x="372.1" y="887.1045">has several</text></g><!--link OperationTypeDto to PhasesDuration--><g id="link_OperationTypeDto_PhasesDuration"><path codeLine="127" d="M729,777.8694 C729,828.9794 729,886.6094 729,886.6094 C729,886.6094 1123.67,886.6094 1123.67,886.6094 C1123.67,886.6094 1123.67,885.9894 1123.67,893.0394 " fill="none" id="OperationTypeDto-to-PhasesDuration" style="stroke:#181818;stroke-width:1.0;"/><polygon fill="#181818" points="1123.67,899.0394,1127.67,890.0394,1123.67,894.0394,1119.67,890.0394,1123.67,899.0394" style="stroke:#181818;stroke-width:1.0;"/><polygon fill="#000000" points="851.9798,879.1858,844.1202,873.8307,842.4736,879.4733,851.9798,879.1858" style="stroke:#000000;stroke-width:1.0;"/><text fill="#000000" font-family="sans-serif" font-size="13" lengthAdjust="spacing" textLength="21" x="856.18" y="883.1045">has</text></g><!--link RequiredStaff to Role--><g id="link_RequiredStaff_Role"><path codeLine="129" d="M196,982.6994 C196,1002.5494 196,1018.7794 196,1036.5094 " fill="none" id="RequiredStaff-to-Role" style="stroke:#181818;stroke-width:1.0;"/><polygon fill="#181818" points="196,1042.5094,200,1033.5094,196,1037.5094,192,1033.5094,196,1042.5094" style="stroke:#181818;stroke-width:1.0;"/><text fill="#000000" font-family="sans-serif" font-size="13" lengthAdjust="spacing" textLength="21" x="174" y="1009.1045">has</text></g><!--link RequiredStaff to Specialization--><g id="link_RequiredStaff_Specialization"><path codeLine="130" d="M207.03,974.6094 C342.61,974.6094 568,974.6094 568,974.6094 C568,974.6094 568,1007.0794 568,1036.5394 " fill="none" id="RequiredStaff-to-Specialization" style="stroke:#181818;stroke-width:1.0;"/><polygon fill="#181818" points="568,1042.5394,572,1033.5394,568,1037.5394,564,1033.5394,568,1042.5394" style="stroke:#181818;stroke-width:1.0;"/><polygon fill="#000000" points="395.408,966.6306,386.9901,962.2045,385.9962,967.9978,395.408,966.6306" style="stroke:#000000;stroke-width:1.0;"/><text fill="#000000" font-family="sans-serif" font-size="13" lengthAdjust="spacing" textLength="21" x="399.48" y="971.1045">has</text></g><!--link RequiredStaff to Quantity--><g id="link_RequiredStaff_Quantity"><path codeLine="131" d="M86,982.6994 C86,1002.5494 86,1018.7794 86,1036.5094 " fill="none" id="RequiredStaff-to-Quantity" style="stroke:#181818;stroke-width:1.0;"/><polygon fill="#181818" points="86,1042.5094,90,1033.5094,86,1037.5094,82,1033.5094,86,1042.5094" style="stroke:#181818;stroke-width:1.0;"/><polygon fill="#000000" points="55,1008.7852,57.9389,999.7401,52.0611,999.7401,55,1008.7852" style="stroke:#000000;stroke-width:1.0;"/><text fill="#000000" font-family="sans-serif" font-size="13" lengthAdjust="spacing" textLength="21" x="64" y="1009.1045">has</text></g><!--link PhasesDuration to Phase--><g id="link_PhasesDuration_Phase"><path codeLine="133" d="M1185.5,965.3894 C1185.5,988.5794 1185.5,1013.3594 1185.5,1036.5094 " fill="none" id="PhasesDuration-to-Phase" style="stroke:#181818;stroke-width:1.0;"/><polygon fill="#181818" points="1185.5,1042.5094,1189.5,1033.5094,1185.5,1037.5094,1181.5,1033.5094,1185.5,1042.5094" style="stroke:#181818;stroke-width:1.0;"/><polygon fill="#000000" points="1154.5,1000.1252,1157.4389,991.0801,1151.5611,991.0801,1154.5,1000.1252" style="stroke:#000000;stroke-width:1.0;"/><text fill="#000000" font-family="sans-serif" font-size="13" lengthAdjust="spacing" textLength="21" x="1163.5" y="1000.4445">has</text></g><!--link PhasesDuration to Duration--><g id="link_PhasesDuration_Duration"><path codeLine="134" d="M1315.5,965.3894 C1315.5,1007.7794 1315.5,1075.6094 1315.5,1075.6094 C1315.5,1075.6094 1317,1075.6094 1326.85,1075.6094 " fill="none" id="PhasesDuration-to-Duration" style="stroke:#181818;stroke-width:1.0;"/><polygon fill="#181818" points="1332.85,1075.6094,1323.85,1071.6094,1327.85,1075.6094,1323.85,1079.6094,1332.85,1075.6094" style="stroke:#181818;stroke-width:1.0;"/><polygon fill="#000000" points="1285.0122,1025.3289,1287.0091,1016.0303,1281.1622,1016.6324,1285.0122,1025.3289" style="stroke:#000000;stroke-width:1.0;"/><text fill="#000000" font-family="sans-serif" font-size="13" lengthAdjust="spacing" textLength="21" x="1293.5" y="1025.6745">has</text></g><!--SRC=[xLPDZzis4BthLypHGRn5qDwCXG5LChO24kzMzXvwAcXvR1DBaof9RU4K_UyTIg9MdxjEWXm2r0VR4j-RUVCq6j8ySPappSwGi-o97N5ZBm91OsQPF0eCJ0Cm9xPNVtDvX0CJfhsI2MPCQAtcky9YaYcvuPyHFhGWWakqbnn1QNjIGI3mOC4gqFnuih3dBY5NCh0gTxTtobfrRjqFBBUaAtAP8ERiw8BEelWTtC1ZzE7dNuAWL07tEMhcA5lA5YbfjH82DVmJ07tUtw4DXPYzMy2McQVRi8oUeYc4lKrMiZWJUoVmjXCcjcgvN3O1VhsisHbdahuMuFwEHXj6Q0NOv9Xn9lZd4Z4pdSi5T9U_KUp6CbkOcIb_5cIj4byLyTzHYpUedtc6NNz3Sv5PO_97RjwmmvbOSOQc3eYJDbOHhlFoRKsLRNNC4U-c8epRb6Ak3BTANxxCgQ-pwNjvz8q6LUvmQL4V6FLCyhz5unQDD93t9DalkWj9N2sictghwqqhNttdrP8gJ8f_5JHqzyG-71PG2kpSgyjxE3639Yvq7QjxNM6Y4sqXE9oLpuhlsuZn0JL0VU78xFCxLSpqctMEXEWMESjVzS3pnnydpOeVwuasPNIulePK2PBglgyNzdl19EtgbmNuVvH4AelreK0TkhbAbai16PEWfBZ03e61AONeKa6iCXeWSrWNshYp1eJ6KC4KFa2v1nVTr-6J-X9UvD206YXf93fiGpqNnZeHHusCXXfOQXCwzlHJTQlt2MCq_2XhWreNBrPt7q7Dku4_gyOZ4Y_tRwOljoLq3XvRJX6a_RoAKLCVqjL3c8RRv7uzXyrZUhTA_vX3z74LhfFrtKlUNiRtdxYaSvtnpjGervWUKRMgeHEWF4vqV1At6_wkg5wDKcFvKAl5CFwKaBZuFjhUf_GS7zFDQWxRLVJREecIa9OUIFzglNNagRFUJylnCye2bb2GSvF46_eiXo-guscqXPQcbzH7xhDQUzbuqeOuI5WHyZqrrDKSBp8h-x0liYN6CPFNbF9pBl2CqffNOmmL6_QCXXe4I3ZRKS_rH0nfr12EIFqvWYoRQtgvzqPD0xlJQXhNUzKyC1ZOV7KP7ZnTYKTSKup7ZjO31fy9AyOfKwLrGvN1ondg5eTh4oA7m6OuDebw0XfD3M84C93x7m00]--></g></svg>