<?xml version="1.0" encoding="us-ascii" standalone="no"?><svg xmlns="http://www.w3.org/2000/svg" xmlns:xlink="http://www.w3.org/1999/xlink" contentStyleType="text/css" height="583px" preserveAspectRatio="none" style="width:545px;height:583px;background:#FFFFFF;" version="1.1" viewBox="0 0 545 583" width="545px" zoomAndPan="magnify"><defs/><g><text fill="#000000" font-family="sans-serif" font-size="14" font-weight="bold" lengthAdjust="spacing" textLength="285" x="129.25" y="29.5332">System Sequence Diagram (SSD) - UC003</text><rect fill="#FFFFFF" height="351.8672" style="stroke:#181818;stroke-width:1.0;" width="10" x="25" y="131.2188"/><rect fill="#FFFFFF" height="30.3516" style="stroke:#181818;stroke-width:1.0;" width="10" x="201" y="153.5703"/><rect fill="#FFFFFF" height="117.0547" style="stroke:#181818;stroke-width:1.0;" width="10" x="201" y="366.0313"/><rect fill="#FFFFFF" height="30.3516" style="stroke:#181818;stroke-width:1.0;" width="10" x="514" y="214.2734"/><rect fill="#FFFFFF" height="30.3516" style="stroke:#181818;stroke-width:1.0;" width="10" x="514" y="274.9766"/><rect fill="#FFFFFF" height="30.3516" style="stroke:#181818;stroke-width:1.0;" width="10" x="514" y="335.6797"/><line style="stroke:#181818;stroke-width:0.5;stroke-dasharray:5.0,5.0;" x1="30" x2="30" y1="121.2188" y2="501.0859"/><line style="stroke:#181818;stroke-width:0.5;stroke-dasharray:5.0,5.0;" x1="206" x2="206" y1="121.2188" y2="501.0859"/><line style="stroke:#181818;stroke-width:0.5;stroke-dasharray:5.0,5.0;" x1="518.5" x2="518.5" y1="121.2188" y2="501.0859"/><text fill="#000000" font-family="sans-serif" font-size="14" lengthAdjust="spacing" textLength="44" x="5" y="118.1426">Patient</text><ellipse cx="30" cy="52.1094" fill="#E2E2F0" rx="8" ry="8" style="stroke:#181818;stroke-width:0.5;"/><path d="M30,60.1094 L30,87.1094 M17,68.1094 L43,68.1094 M30,87.1094 L17,102.1094 M30,87.1094 L43,102.1094 " fill="none" style="stroke:#181818;stroke-width:0.5;"/><text fill="#000000" font-family="sans-serif" font-size="14" lengthAdjust="spacing" textLength="44" x="5" y="514.6191">Patient</text><ellipse cx="30" cy="526.1953" fill="#E2E2F0" rx="8" ry="8" style="stroke:#181818;stroke-width:0.5;"/><path d="M30,534.1953 L30,561.1953 M17,542.1953 L43,542.1953 M30,561.1953 L17,576.1953 M30,561.1953 L43,576.1953 " fill="none" style="stroke:#181818;stroke-width:0.5;"/><rect fill="#E2E2F0" height="31.6094" rx="2.5" ry="2.5" style="stroke:#181818;stroke-width:0.5;" width="64" x="174" y="88.6094"/><text fill="#000000" font-family="sans-serif" font-size="14" lengthAdjust="spacing" textLength="50" x="181" y="110.1426">:System</text><rect fill="#E2E2F0" height="31.6094" rx="2.5" ry="2.5" style="stroke:#181818;stroke-width:0.5;" width="64" x="174" y="500.0859"/><text fill="#000000" font-family="sans-serif" font-size="14" lengthAdjust="spacing" textLength="50" x="181" y="521.6191">:System</text><rect fill="#E2E2F0" height="31.6094" rx="2.5" ry="2.5" style="stroke:#181818;stroke-width:0.5;" width="41" x="498.5" y="88.6094"/><text fill="#000000" font-family="sans-serif" font-size="14" lengthAdjust="spacing" textLength="27" x="505.5" y="110.1426">:IAM</text><rect fill="#E2E2F0" height="31.6094" rx="2.5" ry="2.5" style="stroke:#181818;stroke-width:0.5;" width="41" x="498.5" y="500.0859"/><text fill="#000000" font-family="sans-serif" font-size="14" lengthAdjust="spacing" textLength="27" x="505.5" y="521.6191">:IAM</text><rect fill="#FFFFFF" height="351.8672" style="stroke:#181818;stroke-width:1.0;" width="10" x="25" y="131.2188"/><rect fill="#FFFFFF" height="30.3516" style="stroke:#181818;stroke-width:1.0;" width="10" x="201" y="153.5703"/><rect fill="#FFFFFF" height="117.0547" style="stroke:#181818;stroke-width:1.0;" width="10" x="201" y="366.0313"/><rect fill="#FFFFFF" height="30.3516" style="stroke:#181818;stroke-width:1.0;" width="10" x="514" y="214.2734"/><rect fill="#FFFFFF" height="30.3516" style="stroke:#181818;stroke-width:1.0;" width="10" x="514" y="274.9766"/><rect fill="#FFFFFF" height="30.3516" style="stroke:#181818;stroke-width:1.0;" width="10" x="514" y="335.6797"/><polygon fill="#181818" points="189,149.5703,199,153.5703,189,157.5703,193,153.5703" style="stroke:#181818;stroke-width:1.0;"/><line style="stroke:#181818;stroke-width:1.0;" x1="35" x2="195" y1="153.5703" y2="153.5703"/><text fill="#000000" font-family="sans-serif" font-size="13" lengthAdjust="spacing" textLength="69" x="42" y="148.7139">Self-register</text><polygon fill="#181818" points="46,179.9219,36,183.9219,46,187.9219,42,183.9219" style="stroke:#181818;stroke-width:1.0;"/><line style="stroke:#181818;stroke-width:1.0;stroke-dasharray:2.0,2.0;" x1="40" x2="205" y1="183.9219" y2="183.9219"/><text fill="#000000" font-family="sans-serif" font-size="13" lengthAdjust="spacing" textLength="90" x="52" y="179.0654">Redirect to IAM</text><polygon fill="#181818" points="502,210.2734,512,214.2734,502,218.2734,506,214.2734" style="stroke:#181818;stroke-width:1.0;"/><line style="stroke:#181818;stroke-width:1.0;" x1="35" x2="508" y1="214.2734" y2="214.2734"/><text fill="#000000" font-family="sans-serif" font-size="13" lengthAdjust="spacing" textLength="48" x="42" y="209.417">Register</text><polygon fill="#181818" points="46,240.625,36,244.625,46,248.625,42,244.625" style="stroke:#181818;stroke-width:1.0;"/><line style="stroke:#181818;stroke-width:1.0;stroke-dasharray:2.0,2.0;" x1="40" x2="518" y1="244.625" y2="244.625"/><text fill="#000000" font-family="sans-serif" font-size="13" lengthAdjust="spacing" textLength="76" x="52" y="239.7686">Ask for email</text><polygon fill="#181818" points="502,270.9766,512,274.9766,502,278.9766,506,274.9766" style="stroke:#181818;stroke-width:1.0;"/><line style="stroke:#181818;stroke-width:1.0;" x1="35" x2="508" y1="274.9766" y2="274.9766"/><text fill="#000000" font-family="sans-serif" font-size="13" lengthAdjust="spacing" textLength="63" x="42" y="270.1201">Input email</text><polygon fill="#181818" points="46,301.3281,36,305.3281,46,309.3281,42,305.3281" style="stroke:#181818;stroke-width:1.0;"/><line style="stroke:#181818;stroke-width:1.0;stroke-dasharray:2.0,2.0;" x1="40" x2="518" y1="305.3281" y2="305.3281"/><text fill="#000000" font-family="sans-serif" font-size="13" lengthAdjust="spacing" textLength="100" x="52" y="300.4717">Ask for password</text><polygon fill="#181818" points="502,331.6797,512,335.6797,502,339.6797,506,335.6797" style="stroke:#181818;stroke-width:1.0;"/><line style="stroke:#181818;stroke-width:1.0;" x1="35" x2="508" y1="335.6797" y2="335.6797"/><text fill="#000000" font-family="sans-serif" font-size="13" lengthAdjust="spacing" textLength="87" x="42" y="330.8232">Input password</text><polygon fill="#181818" points="222,362.0313,212,366.0313,222,370.0313,218,366.0313" style="stroke:#181818;stroke-width:1.0;"/><line style="stroke:#181818;stroke-width:1.0;" x1="216" x2="518" y1="366.0313" y2="366.0313"/><text fill="#000000" font-family="sans-serif" font-size="13" lengthAdjust="spacing" textLength="284" x="228" y="361.1748">Send user information as a token (email and role)</text><line style="stroke:#181818;stroke-width:1.0;" x1="211" x2="253" y1="396.3828" y2="396.3828"/><line style="stroke:#181818;stroke-width:1.0;" x1="253" x2="253" y1="396.3828" y2="409.3828"/><line style="stroke:#181818;stroke-width:1.0;" x1="212" x2="253" y1="409.3828" y2="409.3828"/><polygon fill="#181818" points="222,405.3828,212,409.3828,222,413.3828,218,409.3828" style="stroke:#181818;stroke-width:1.0;"/><text fill="#000000" font-family="sans-serif" font-size="13" lengthAdjust="spacing" textLength="184" x="218" y="391.5264">Verify patient's profile is created</text><line style="stroke:#181818;stroke-width:1.0;" x1="211" x2="253" y1="439.7344" y2="439.7344"/><line style="stroke:#181818;stroke-width:1.0;" x1="253" x2="253" y1="439.7344" y2="452.7344"/><line style="stroke:#181818;stroke-width:1.0;" x1="212" x2="253" y1="452.7344" y2="452.7344"/><polygon fill="#181818" points="222,448.7344,212,452.7344,222,456.7344,218,452.7344" style="stroke:#181818;stroke-width:1.0;"/><text fill="#000000" font-family="sans-serif" font-size="13" lengthAdjust="spacing" textLength="217" x="218" y="434.8779">Link patient's profile to user's account</text><polygon fill="#181818" points="41,479.0859,31,483.0859,41,487.0859,37,483.0859" style="stroke:#181818;stroke-width:1.0;"/><line style="stroke:#181818;stroke-width:1.0;stroke-dasharray:2.0,2.0;" x1="35" x2="205" y1="483.0859" y2="483.0859"/><text fill="#000000" font-family="sans-serif" font-size="13" lengthAdjust="spacing" textLength="142" x="47" y="478.2295">Show success message</text><!--SRC=[bP9DQyCm38Rl-HMYbxM7G66t7WPblHGw60lRNJXA9fBOcUsizDzFpjVIhkce3uajwtqVovPdNn8a9-UfWeI-6jAAOCUOMwnWcIIx5SJm_hnUFqQelB7mYfv9Uq0tJACQhMV5DKfuiUdC5Y6XcrxixxSlxQRye-39t-Xfz8f0ni28dtgBZPojp69BESlITbcZjiUqmJ3wScAHzquRUAEKBIaFtdJaa9ZILOy9NbA3zYfsj0b35kV0hIiWa_kY2hdyWnkrbwozhXi_5Ts9gz6vex7flSHptGtez4bq2eqZ2wm5NOclqU5bKIwv80tBjWn0IREcfDNycVvzob_g1rdEJdBUjee71xKr6KiJimDbIKpIM_83w-AAMBeYL28HLCeqGoFETLFoQOxW6gN8EQZaWpdDjjGaD7Jv3m00]--></g></svg>