<?xml version="1.0" encoding="us-ascii" standalone="no"?><svg xmlns="http://www.w3.org/2000/svg" xmlns:xlink="http://www.w3.org/1999/xlink" contentStyleType="text/css" height="691px" preserveAspectRatio="none" style="width:705px;height:691px;background:#FFFFFF;" version="1.1" viewBox="0 0 705 691" width="705px" zoomAndPan="magnify"><defs/><g><text fill="#000000" font-family="sans-serif" font-size="14" font-weight="bold" lengthAdjust="spacing" textLength="285" x="209.25" y="29.5332">System Sequence Diagram (SSD) - UC003</text><rect fill="#FFFFFF" height="460.2734" style="stroke:#181818;stroke-width:1.0;" width="10" x="25" y="131.2188"/><rect fill="#FFFFFF" height="30.3516" style="stroke:#181818;stroke-width:1.0;" width="10" x="359" y="153.5703"/><rect fill="#FFFFFF" height="73.7031" style="stroke:#181818;stroke-width:1.0;" width="10" x="359" y="214.2734"/><rect fill="#FFFFFF" height="30.3516" style="stroke:#181818;stroke-width:1.0;" width="10" x="359" y="500.4375"/><rect fill="#FFFFFF" height="30.3516" style="stroke:#181818;stroke-width:1.0;" width="10" x="359" y="561.1406"/><rect fill="#FFFFFF" height="30.3516" style="stroke:#181818;stroke-width:1.0;" width="10" x="674" y="318.3281"/><rect fill="#FFFFFF" height="30.3516" style="stroke:#181818;stroke-width:1.0;" width="10" x="674" y="379.0313"/><rect fill="#FFFFFF" height="30.3516" style="stroke:#181818;stroke-width:1.0;" width="10" x="674" y="439.7344"/><line style="stroke:#181818;stroke-width:0.5;stroke-dasharray:5.0,5.0;" x1="30" x2="30" y1="121.2188" y2="609.4922"/><line style="stroke:#181818;stroke-width:0.5;stroke-dasharray:5.0,5.0;" x1="364" x2="364" y1="121.2188" y2="609.4922"/><line style="stroke:#181818;stroke-width:0.5;stroke-dasharray:5.0,5.0;" x1="678.5" x2="678.5" y1="121.2188" y2="609.4922"/><text fill="#000000" font-family="sans-serif" font-size="14" lengthAdjust="spacing" textLength="44" x="5" y="118.1426">Patient</text><ellipse cx="30" cy="52.1094" fill="#E2E2F0" rx="8" ry="8" style="stroke:#181818;stroke-width:0.5;"/><path d="M30,60.1094 L30,87.1094 M17,68.1094 L43,68.1094 M30,87.1094 L17,102.1094 M30,87.1094 L43,102.1094 " fill="none" style="stroke:#181818;stroke-width:0.5;"/><text fill="#000000" font-family="sans-serif" font-size="14" lengthAdjust="spacing" textLength="44" x="5" y="623.0254">Patient</text><ellipse cx="30" cy="634.6016" fill="#E2E2F0" rx="8" ry="8" style="stroke:#181818;stroke-width:0.5;"/><path d="M30,642.6016 L30,669.6016 M17,650.6016 L43,650.6016 M30,669.6016 L17,684.6016 M30,669.6016 L43,684.6016 " fill="none" style="stroke:#181818;stroke-width:0.5;"/><rect fill="#E2E2F0" height="31.6094" rx="2.5" ry="2.5" style="stroke:#181818;stroke-width:0.5;" width="64" x="332" y="88.6094"/><text fill="#000000" font-family="sans-serif" font-size="14" lengthAdjust="spacing" textLength="50" x="339" y="110.1426">:System</text><rect fill="#E2E2F0" height="31.6094" rx="2.5" ry="2.5" style="stroke:#181818;stroke-width:0.5;" width="64" x="332" y="608.4922"/><text fill="#000000" font-family="sans-serif" font-size="14" lengthAdjust="spacing" textLength="50" x="339" y="630.0254">:System</text><rect fill="#E2E2F0" height="31.6094" rx="2.5" ry="2.5" style="stroke:#181818;stroke-width:0.5;" width="41" x="658.5" y="88.6094"/><text fill="#000000" font-family="sans-serif" font-size="14" lengthAdjust="spacing" textLength="27" x="665.5" y="110.1426">:IAM</text><rect fill="#E2E2F0" height="31.6094" rx="2.5" ry="2.5" style="stroke:#181818;stroke-width:0.5;" width="41" x="658.5" y="608.4922"/><text fill="#000000" font-family="sans-serif" font-size="14" lengthAdjust="spacing" textLength="27" x="665.5" y="630.0254">:IAM</text><rect fill="#FFFFFF" height="460.2734" style="stroke:#181818;stroke-width:1.0;" width="10" x="25" y="131.2188"/><rect fill="#FFFFFF" height="30.3516" style="stroke:#181818;stroke-width:1.0;" width="10" x="359" y="153.5703"/><rect fill="#FFFFFF" height="73.7031" style="stroke:#181818;stroke-width:1.0;" width="10" x="359" y="214.2734"/><rect fill="#FFFFFF" height="30.3516" style="stroke:#181818;stroke-width:1.0;" width="10" x="359" y="500.4375"/><rect fill="#FFFFFF" height="30.3516" style="stroke:#181818;stroke-width:1.0;" width="10" x="359" y="561.1406"/><rect fill="#FFFFFF" height="30.3516" style="stroke:#181818;stroke-width:1.0;" width="10" x="674" y="318.3281"/><rect fill="#FFFFFF" height="30.3516" style="stroke:#181818;stroke-width:1.0;" width="10" x="674" y="379.0313"/><rect fill="#FFFFFF" height="30.3516" style="stroke:#181818;stroke-width:1.0;" width="10" x="674" y="439.7344"/><polygon fill="#181818" points="347,149.5703,357,153.5703,347,157.5703,351,153.5703" style="stroke:#181818;stroke-width:1.0;"/><line style="stroke:#181818;stroke-width:1.0;" x1="35" x2="353" y1="153.5703" y2="153.5703"/><text fill="#000000" font-family="sans-serif" font-size="13" lengthAdjust="spacing" textLength="69" x="42" y="148.7139">Self-register</text><polygon fill="#181818" points="46,179.9219,36,183.9219,46,187.9219,42,183.9219" style="stroke:#181818;stroke-width:1.0;"/><line style="stroke:#181818;stroke-width:1.0;stroke-dasharray:2.0,2.0;" x1="40" x2="363" y1="183.9219" y2="183.9219"/><text fill="#000000" font-family="sans-serif" font-size="13" lengthAdjust="spacing" textLength="300" x="52" y="179.0654">Ask for email to check for patient's record existence</text><polygon fill="#181818" points="347,210.2734,357,214.2734,347,218.2734,351,214.2734" style="stroke:#181818;stroke-width:1.0;"/><line style="stroke:#181818;stroke-width:1.0;" x1="35" x2="353" y1="214.2734" y2="214.2734"/><text fill="#000000" font-family="sans-serif" font-size="13" lengthAdjust="spacing" textLength="63" x="42" y="209.417">Input email</text><line style="stroke:#181818;stroke-width:1.0;" x1="369" x2="411" y1="244.625" y2="244.625"/><line style="stroke:#181818;stroke-width:1.0;" x1="411" x2="411" y1="244.625" y2="257.625"/><line style="stroke:#181818;stroke-width:1.0;" x1="370" x2="411" y1="257.625" y2="257.625"/><polygon fill="#181818" points="380,253.625,370,257.625,380,261.625,376,257.625" style="stroke:#181818;stroke-width:1.0;"/><text fill="#000000" font-family="sans-serif" font-size="13" lengthAdjust="spacing" textLength="291" x="376" y="239.7686">Check if patient's record with provided email exists</text><polygon fill="#181818" points="46,283.9766,36,287.9766,46,291.9766,42,287.9766" style="stroke:#181818;stroke-width:1.0;"/><line style="stroke:#181818;stroke-width:1.0;stroke-dasharray:2.0,2.0;" x1="40" x2="363" y1="287.9766" y2="287.9766"/><text fill="#000000" font-family="sans-serif" font-size="13" lengthAdjust="spacing" textLength="90" x="52" y="283.1201">Redirect to IAM</text><polygon fill="#181818" points="662,314.3281,672,318.3281,662,322.3281,666,318.3281" style="stroke:#181818;stroke-width:1.0;"/><line style="stroke:#181818;stroke-width:1.0;" x1="35" x2="668" y1="318.3281" y2="318.3281"/><text fill="#000000" font-family="sans-serif" font-size="13" lengthAdjust="spacing" textLength="48" x="42" y="313.4717">Register</text><polygon fill="#181818" points="46,344.6797,36,348.6797,46,352.6797,42,348.6797" style="stroke:#181818;stroke-width:1.0;"/><line style="stroke:#181818;stroke-width:1.0;stroke-dasharray:2.0,2.0;" x1="40" x2="678" y1="348.6797" y2="348.6797"/><text fill="#000000" font-family="sans-serif" font-size="13" lengthAdjust="spacing" textLength="76" x="52" y="343.8232">Ask for email</text><polygon fill="#181818" points="662,375.0313,672,379.0313,662,383.0313,666,379.0313" style="stroke:#181818;stroke-width:1.0;"/><line style="stroke:#181818;stroke-width:1.0;" x1="35" x2="668" y1="379.0313" y2="379.0313"/><text fill="#000000" font-family="sans-serif" font-size="13" lengthAdjust="spacing" textLength="63" x="42" y="374.1748">Input email</text><polygon fill="#181818" points="46,405.3828,36,409.3828,46,413.3828,42,409.3828" style="stroke:#181818;stroke-width:1.0;"/><line style="stroke:#181818;stroke-width:1.0;stroke-dasharray:2.0,2.0;" x1="40" x2="678" y1="409.3828" y2="409.3828"/><text fill="#000000" font-family="sans-serif" font-size="13" lengthAdjust="spacing" textLength="100" x="52" y="404.5264">Ask for password</text><polygon fill="#181818" points="662,435.7344,672,439.7344,662,443.7344,666,439.7344" style="stroke:#181818;stroke-width:1.0;"/><line style="stroke:#181818;stroke-width:1.0;" x1="35" x2="668" y1="439.7344" y2="439.7344"/><text fill="#000000" font-family="sans-serif" font-size="13" lengthAdjust="spacing" textLength="87" x="42" y="434.8779">Input password</text><polygon fill="#181818" points="46,466.0859,36,470.0859,46,474.0859,42,470.0859" style="stroke:#181818;stroke-width:1.0;"/><line style="stroke:#181818;stroke-width:1.0;stroke-dasharray:2.0,2.0;" x1="40" x2="678" y1="470.0859" y2="470.0859"/><text fill="#000000" font-family="sans-serif" font-size="13" lengthAdjust="spacing" textLength="135" x="52" y="465.2295">Registration successful</text><polygon fill="#181818" points="347,496.4375,357,500.4375,347,504.4375,351,500.4375" style="stroke:#181818;stroke-width:1.0;"/><line style="stroke:#181818;stroke-width:1.0;" x1="35" x2="353" y1="500.4375" y2="500.4375"/><text fill="#000000" font-family="sans-serif" font-size="13" lengthAdjust="spacing" textLength="100" x="42" y="495.5811">Return to system</text><polygon fill="#181818" points="46,526.7891,36,530.7891,46,534.7891,42,530.7891" style="stroke:#181818;stroke-width:1.0;"/><line style="stroke:#181818;stroke-width:1.0;stroke-dasharray:2.0,2.0;" x1="40" x2="363" y1="530.7891" y2="530.7891"/><text fill="#000000" font-family="sans-serif" font-size="13" lengthAdjust="spacing" textLength="127" x="52" y="525.9326">Ask for phone number</text><polygon fill="#181818" points="347,557.1406,357,561.1406,347,565.1406,351,561.1406" style="stroke:#181818;stroke-width:1.0;"/><line style="stroke:#181818;stroke-width:1.0;" x1="35" x2="353" y1="561.1406" y2="561.1406"/><text fill="#000000" font-family="sans-serif" font-size="13" lengthAdjust="spacing" textLength="114" x="42" y="556.2842">Input phone number</text><polygon fill="#181818" points="41,587.4922,31,591.4922,41,595.4922,37,591.4922" style="stroke:#181818;stroke-width:1.0;"/><line style="stroke:#181818;stroke-width:1.0;stroke-dasharray:2.0,2.0;" x1="35" x2="363" y1="591.4922" y2="591.4922"/><text fill="#000000" font-family="sans-serif" font-size="13" lengthAdjust="spacing" textLength="144" x="47" y="586.6357">Validate user registration</text><!--SRC=[dLCzJyCm4DtpAqvTW25I9ROCI5MxT412ZM0tpgKzaJZ6FhVmxx7Z98H-ASLBxFFTU-_UEKnS8UJVbh6673yTAecm8h4reeRxF5yzG0glo_dyCH6I6mClWWaLWx3zDj72C4dImeTdMGIRXOIuFRfVBvxRI_zD0YRj1UE0bO1VFKVwr45aNbjLfWQtv8ycPWsr7KqR3Ajh9_Nb7L862_i1fPUFjQ0Ak06vGnb3EkRSMJ0e6rC0VWKMRqI4BF0iqncHQwKTHug94dzhbwqUAa_b78Xte4spfmABhe5MehtUyWOByX0SkctDdjQCJmsrPvqUOCBoXoiUdz0DjSTSbrsRHgU5jGTlrAsCV-icaaPZZ3ys2goJ4gqjtRHk-r5la9rHOInsD89_FMUzQnI2SlLxFwjRN-ifmar2taH5HKXs5WsOaJiNvOn2_L__0m00]--></g></svg>