<?xml version="1.0" encoding="us-ascii" standalone="no"?><svg xmlns="http://www.w3.org/2000/svg" xmlns:xlink="http://www.w3.org/1999/xlink" contentStyleType="text/css" height="483px" preserveAspectRatio="none" style="width:590px;height:483px;background:#FFFFFF;" version="1.1" viewBox="0 0 590 483" width="590px" zoomAndPan="magnify"><defs/><g><text fill="#000000" font-family="sans-serif" font-size="14" font-weight="bold" lengthAdjust="spacing" textLength="285" x="153.5" y="29.5332">System Sequence Diagram (SSD) - UC003</text><rect fill="#FFFFFF" height="260.6484" style="stroke:#181818;stroke-width:1.0;" width="10" x="40" y="131.2188"/><rect fill="#FFFFFF" height="30.3516" style="stroke:#181818;stroke-width:1.0;" width="10" x="485" y="153.5703"/><rect fill="#FFFFFF" height="55.7031" style="stroke:#181818;stroke-width:1.0;" width="10" x="485" y="214.2734"/><rect fill="#FFFFFF" height="46.1875" style="stroke:#181818;stroke-width:1.0;" width="10" x="485" y="330.6797"/><rect fill="#FFFFFF" height="30.3516" style="stroke:#181818;stroke-width:1.0;" width="10" x="547.5" y="300.3281"/><rect fill="none" height="155.5938" style="stroke:#000000;stroke-width:1.5;" width="573" x="10" y="229.2734"/><line style="stroke:#181818;stroke-width:0.5;stroke-dasharray:5.0,5.0;" x1="45" x2="45" y1="121.2188" y2="401.8672"/><line style="stroke:#181818;stroke-width:0.5;stroke-dasharray:5.0,5.0;" x1="490" x2="490" y1="121.2188" y2="401.8672"/><line style="stroke:#181818;stroke-width:0.5;stroke-dasharray:5.0,5.0;" x1="552" x2="552" y1="121.2188" y2="401.8672"/><text fill="#000000" font-family="sans-serif" font-size="14" lengthAdjust="spacing" textLength="44" x="20" y="118.1426">Patient</text><ellipse cx="45" cy="52.1094" fill="#E2E2F0" rx="8" ry="8" style="stroke:#181818;stroke-width:0.5;"/><path d="M45,60.1094 L45,87.1094 M32,68.1094 L58,68.1094 M45,87.1094 L32,102.1094 M45,87.1094 L58,102.1094 " fill="none" style="stroke:#181818;stroke-width:0.5;"/><text fill="#000000" font-family="sans-serif" font-size="14" lengthAdjust="spacing" textLength="44" x="20" y="415.4004">Patient</text><ellipse cx="45" cy="426.9766" fill="#E2E2F0" rx="8" ry="8" style="stroke:#181818;stroke-width:0.5;"/><path d="M45,434.9766 L45,461.9766 M32,442.9766 L58,442.9766 M45,461.9766 L32,476.9766 M45,461.9766 L58,476.9766 " fill="none" style="stroke:#181818;stroke-width:0.5;"/><rect fill="#E2E2F0" height="31.6094" rx="2.5" ry="2.5" style="stroke:#181818;stroke-width:0.5;" width="64" x="458" y="88.6094"/><text fill="#000000" font-family="sans-serif" font-size="14" lengthAdjust="spacing" textLength="50" x="465" y="110.1426">:System</text><rect fill="#E2E2F0" height="31.6094" rx="2.5" ry="2.5" style="stroke:#181818;stroke-width:0.5;" width="64" x="458" y="400.8672"/><text fill="#000000" font-family="sans-serif" font-size="14" lengthAdjust="spacing" textLength="50" x="465" y="422.4004">:System</text><rect fill="#E2E2F0" height="31.6094" rx="2.5" ry="2.5" style="stroke:#181818;stroke-width:0.5;" width="41" x="532" y="88.6094"/><text fill="#000000" font-family="sans-serif" font-size="14" lengthAdjust="spacing" textLength="27" x="539" y="110.1426">:IAM</text><rect fill="#E2E2F0" height="31.6094" rx="2.5" ry="2.5" style="stroke:#181818;stroke-width:0.5;" width="41" x="532" y="400.8672"/><text fill="#000000" font-family="sans-serif" font-size="14" lengthAdjust="spacing" textLength="27" x="539" y="422.4004">:IAM</text><rect fill="#FFFFFF" height="260.6484" style="stroke:#181818;stroke-width:1.0;" width="10" x="40" y="131.2188"/><rect fill="#FFFFFF" height="30.3516" style="stroke:#181818;stroke-width:1.0;" width="10" x="485" y="153.5703"/><rect fill="#FFFFFF" height="55.7031" style="stroke:#181818;stroke-width:1.0;" width="10" x="485" y="214.2734"/><rect fill="#FFFFFF" height="46.1875" style="stroke:#181818;stroke-width:1.0;" width="10" x="485" y="330.6797"/><rect fill="#FFFFFF" height="30.3516" style="stroke:#181818;stroke-width:1.0;" width="10" x="547.5" y="300.3281"/><polygon fill="#181818" points="473,149.5703,483,153.5703,473,157.5703,477,153.5703" style="stroke:#181818;stroke-width:1.0;"/><line style="stroke:#181818;stroke-width:1.0;" x1="50" x2="479" y1="153.5703" y2="153.5703"/><text fill="#000000" font-family="sans-serif" font-size="13" lengthAdjust="spacing" textLength="69" x="57" y="148.7139">Self-register</text><polygon fill="#181818" points="61,179.9219,51,183.9219,61,187.9219,57,183.9219" style="stroke:#181818;stroke-width:1.0;"/><line style="stroke:#181818;stroke-width:1.0;stroke-dasharray:2.0,2.0;" x1="55" x2="489" y1="183.9219" y2="183.9219"/><text fill="#000000" font-family="sans-serif" font-size="13" lengthAdjust="spacing" textLength="76" x="67" y="179.0654">Ask for email</text><polygon fill="#181818" points="473,210.2734,483,214.2734,473,218.2734,477,214.2734" style="stroke:#181818;stroke-width:1.0;"/><line style="stroke:#181818;stroke-width:1.0;" x1="50" x2="479" y1="214.2734" y2="214.2734"/><text fill="#000000" font-family="sans-serif" font-size="13" lengthAdjust="spacing" textLength="77" x="57" y="209.417">Provide email</text><path d="M10,229.2734 L71,229.2734 L71,237.625 L61,247.625 L10,247.625 L10,229.2734 " fill="#EEEEEE" style="stroke:#000000;stroke-width:1.5;"/><rect fill="none" height="155.5938" style="stroke:#000000;stroke-width:1.5;" width="573" x="10" y="229.2734"/><text fill="#000000" font-family="sans-serif" font-size="13" font-weight="bold" lengthAdjust="spacing" textLength="16" x="25" y="243.7686">alt</text><text fill="#000000" font-family="sans-serif" font-size="11" font-weight="bold" lengthAdjust="spacing" textLength="182" x="86" y="242.6924">[Exists patient record with email]</text><polygon fill="#181818" points="61,265.9766,51,269.9766,61,273.9766,57,269.9766" style="stroke:#181818;stroke-width:1.0;"/><line style="stroke:#181818;stroke-width:1.0;stroke-dasharray:2.0,2.0;" x1="55" x2="489" y1="269.9766" y2="269.9766"/><text fill="#000000" font-family="sans-serif" font-size="13" lengthAdjust="spacing" textLength="90" x="67" y="265.1201">Redirect to IAM</text><polygon fill="#181818" points="535.5,296.3281,545.5,300.3281,535.5,304.3281,539.5,300.3281" style="stroke:#181818;stroke-width:1.0;"/><line style="stroke:#181818;stroke-width:1.0;" x1="50" x2="541.5" y1="300.3281" y2="300.3281"/><text fill="#000000" font-family="sans-serif" font-size="13" lengthAdjust="spacing" textLength="215" x="57" y="295.4717">Provide credentials (email, password)</text><polygon fill="#181818" points="61,326.6797,51,330.6797,61,334.6797,57,330.6797" style="stroke:#181818;stroke-width:1.0;"/><line style="stroke:#181818;stroke-width:1.0;stroke-dasharray:2.0,2.0;" x1="55" x2="551.5" y1="330.6797" y2="330.6797"/><text fill="#000000" font-family="sans-serif" font-size="13" lengthAdjust="spacing" textLength="112" x="67" y="325.8232">Redirect to System</text><line style="stroke:#000000;stroke-width:1.0;stroke-dasharray:2.0,2.0;" x1="10" x2="583" y1="339.6797" y2="339.6797"/><text fill="#000000" font-family="sans-serif" font-size="11" font-weight="bold" lengthAdjust="spacing" textLength="163" x="15" y="351.0986">[No patient record with email]</text><polygon fill="#181818" points="61,372.8672,51,376.8672,61,380.8672,57,376.8672" style="stroke:#181818;stroke-width:1.0;"/><line style="stroke:#181818;stroke-width:1.0;stroke-dasharray:2.0,2.0;" x1="55" x2="489" y1="376.8672" y2="376.8672"/><text fill="#000000" font-family="sans-serif" font-size="13" lengthAdjust="spacing" textLength="411" x="67" y="372.0107">Inform that email is not registered as patient and so cannot self-register</text><!--SRC=[jPB1Ri8m38RlVGgB4qYhXBGRXqbexC212QtQ0rYD0MjjqYKUR6y_fscxZW6t-TBK-VtxgsjXgGYAho1KGq7l7sHBWXNZtcCDqw9OpI27ryVv_3x3Kfo7BGgJ5S3G7xC6lN393MfwiaXcaoX8nxFxzNBJNkepYvvyHA71AmEDlaV-q5aibAtQvPxshAy-gORQhasRZD5zJgxbdTC2bk4DTefFDNALf8OkEbnellNko8R6nLW9F7qgJO2cA_1KEc_Wn78OAs-YNiDz8SFg9o0k3QeNNu4-0zUI7-hIaz4yOnLWseBTANC89wMTNM3yrI-69gxJdLEC00SZgWB1i_kNIQsj_jOQv82Il803M1URf6KX4xUjRutMG71GeesQy7UhRWoPhCcoqLs_izy0]--></g></svg>