<?xml version="1.0" encoding="us-ascii" standalone="no"?><svg xmlns="http://www.w3.org/2000/svg" xmlns:xlink="http://www.w3.org/1999/xlink" contentStyleType="text/css" height="630px" preserveAspectRatio="none" style="width:908px;height:630px;background:#FFFFFF;" version="1.1" viewBox="0 0 908 630" width="908px" zoomAndPan="magnify"><defs/><g><text fill="#000000" font-family="sans-serif" font-size="14" font-weight="bold" lengthAdjust="spacing" textLength="285" x="313.75" y="29.5332">System Sequence Diagram (SSD) - UC020</text><rect fill="#FFFFFF" height="399.5703" style="stroke:#181818;stroke-width:1.0;" width="10" x="22.5" y="131.2188"/><rect fill="#FFFFFF" height="30.3516" style="stroke:#181818;stroke-width:1.0;" width="10" x="708.5" y="153.5703"/><rect fill="#FFFFFF" height="73.7031" style="stroke:#181818;stroke-width:1.0;" width="10" x="708.5" y="214.2734"/><rect fill="#FFFFFF" height="30.3516" style="stroke:#181818;stroke-width:1.0;" width="10" x="708.5" y="318.3281"/><rect fill="#FFFFFF" height="30.3516" style="stroke:#181818;stroke-width:1.0;" width="10" x="708.5" y="379.0313"/><rect fill="#FFFFFF" height="30.3516" style="stroke:#181818;stroke-width:1.0;" width="10" x="708.5" y="439.7344"/><rect fill="#FFFFFF" height="30.3516" style="stroke:#181818;stroke-width:1.0;" width="10" x="708.5" y="500.4375"/><line style="stroke:#181818;stroke-width:0.5;stroke-dasharray:5.0,5.0;" x1="27" x2="27" y1="121.2188" y2="548.7891"/><line style="stroke:#181818;stroke-width:0.5;stroke-dasharray:5.0,5.0;" x1="713.5" x2="713.5" y1="121.2188" y2="548.7891"/><text fill="#000000" font-family="sans-serif" font-size="14" lengthAdjust="spacing" textLength="39" x="5" y="118.1426">Admin</text><ellipse cx="27.5" cy="52.1094" fill="#E2E2F0" rx="8" ry="8" style="stroke:#181818;stroke-width:0.5;"/><path d="M27.5,60.1094 L27.5,87.1094 M14.5,68.1094 L40.5,68.1094 M27.5,87.1094 L14.5,102.1094 M27.5,87.1094 L40.5,102.1094 " fill="none" style="stroke:#181818;stroke-width:0.5;"/><text fill="#000000" font-family="sans-serif" font-size="14" lengthAdjust="spacing" textLength="39" x="5" y="562.3223">Admin</text><ellipse cx="27.5" cy="573.8984" fill="#E2E2F0" rx="8" ry="8" style="stroke:#181818;stroke-width:0.5;"/><path d="M27.5,581.8984 L27.5,608.8984 M14.5,589.8984 L40.5,589.8984 M27.5,608.8984 L14.5,623.8984 M27.5,608.8984 L40.5,623.8984 " fill="none" style="stroke:#181818;stroke-width:0.5;"/><rect fill="#E2E2F0" height="31.6094" rx="2.5" ry="2.5" style="stroke:#181818;stroke-width:0.5;" width="64" x="681.5" y="88.6094"/><text fill="#000000" font-family="sans-serif" font-size="14" lengthAdjust="spacing" textLength="50" x="688.5" y="110.1426">:System</text><rect fill="#E2E2F0" height="31.6094" rx="2.5" ry="2.5" style="stroke:#181818;stroke-width:0.5;" width="64" x="681.5" y="547.7891"/><text fill="#000000" font-family="sans-serif" font-size="14" lengthAdjust="spacing" textLength="50" x="688.5" y="569.3223">:System</text><rect fill="#FFFFFF" height="399.5703" style="stroke:#181818;stroke-width:1.0;" width="10" x="22.5" y="131.2188"/><rect fill="#FFFFFF" height="30.3516" style="stroke:#181818;stroke-width:1.0;" width="10" x="708.5" y="153.5703"/><rect fill="#FFFFFF" height="73.7031" style="stroke:#181818;stroke-width:1.0;" width="10" x="708.5" y="214.2734"/><rect fill="#FFFFFF" height="30.3516" style="stroke:#181818;stroke-width:1.0;" width="10" x="708.5" y="318.3281"/><rect fill="#FFFFFF" height="30.3516" style="stroke:#181818;stroke-width:1.0;" width="10" x="708.5" y="379.0313"/><rect fill="#FFFFFF" height="30.3516" style="stroke:#181818;stroke-width:1.0;" width="10" x="708.5" y="439.7344"/><rect fill="#FFFFFF" height="30.3516" style="stroke:#181818;stroke-width:1.0;" width="10" x="708.5" y="500.4375"/><polygon fill="#181818" points="696.5,149.5703,706.5,153.5703,696.5,157.5703,700.5,153.5703" style="stroke:#181818;stroke-width:1.0;"/><line style="stroke:#181818;stroke-width:1.0;" x1="32.5" x2="702.5" y1="153.5703" y2="153.5703"/><text fill="#000000" font-family="sans-serif" font-size="13" lengthAdjust="spacing" textLength="204" x="39.5" y="148.7139">Register new type of operation type</text><polygon fill="#181818" points="43.5,179.9219,33.5,183.9219,43.5,187.9219,39.5,183.9219" style="stroke:#181818;stroke-width:1.0;"/><line style="stroke:#181818;stroke-width:1.0;stroke-dasharray:2.0,2.0;" x1="37.5" x2="712.5" y1="183.9219" y2="183.9219"/><text fill="#000000" font-family="sans-serif" font-size="13" lengthAdjust="spacing" textLength="170" x="49.5" y="179.0654">Ask for new operation's name</text><polygon fill="#181818" points="696.5,210.2734,706.5,214.2734,696.5,218.2734,700.5,214.2734" style="stroke:#181818;stroke-width:1.0;"/><line style="stroke:#181818;stroke-width:1.0;" x1="32.5" x2="702.5" y1="214.2734" y2="214.2734"/><text fill="#000000" font-family="sans-serif" font-size="13" lengthAdjust="spacing" textLength="171" x="39.5" y="209.417">Provide new operation's name</text><line style="stroke:#181818;stroke-width:1.0;" x1="718.5" x2="760.5" y1="244.625" y2="244.625"/><line style="stroke:#181818;stroke-width:1.0;" x1="760.5" x2="760.5" y1="244.625" y2="257.625"/><line style="stroke:#181818;stroke-width:1.0;" x1="719.5" x2="760.5" y1="257.625" y2="257.625"/><polygon fill="#181818" points="729.5,253.625,719.5,257.625,729.5,261.625,725.5,257.625" style="stroke:#181818;stroke-width:1.0;"/><text fill="#000000" font-family="sans-serif" font-size="13" lengthAdjust="spacing" textLength="176" x="725.5" y="239.7686">Validate new operation's name</text><polygon fill="#181818" points="43.5,283.9766,33.5,287.9766,43.5,291.9766,39.5,287.9766" style="stroke:#181818;stroke-width:1.0;"/><line style="stroke:#181818;stroke-width:1.0;stroke-dasharray:2.0,2.0;" x1="37.5" x2="712.5" y1="287.9766" y2="287.9766"/><text fill="#000000" font-family="sans-serif" font-size="13" lengthAdjust="spacing" textLength="419" x="49.5" y="283.1201">Ask for new operation's anesthesia/preparation phase estimated duration</text><polygon fill="#181818" points="696.5,314.3281,706.5,318.3281,696.5,322.3281,700.5,318.3281" style="stroke:#181818;stroke-width:1.0;"/><line style="stroke:#181818;stroke-width:1.0;" x1="32.5" x2="702.5" y1="318.3281" y2="318.3281"/><text fill="#000000" font-family="sans-serif" font-size="13" lengthAdjust="spacing" textLength="420" x="39.5" y="313.4717">Provide new operation's anesthesia/preparation phase estimated duration</text><polygon fill="#181818" points="43.5,344.6797,33.5,348.6797,43.5,352.6797,39.5,348.6797" style="stroke:#181818;stroke-width:1.0;"/><line style="stroke:#181818;stroke-width:1.0;stroke-dasharray:2.0,2.0;" x1="37.5" x2="712.5" y1="348.6797" y2="348.6797"/><text fill="#000000" font-family="sans-serif" font-size="13" lengthAdjust="spacing" textLength="331" x="49.5" y="343.8232">Ask for new operation's surgery phase estimated duration</text><polygon fill="#181818" points="696.5,375.0313,706.5,379.0313,696.5,383.0313,700.5,379.0313" style="stroke:#181818;stroke-width:1.0;"/><line style="stroke:#181818;stroke-width:1.0;" x1="32.5" x2="702.5" y1="379.0313" y2="379.0313"/><text fill="#000000" font-family="sans-serif" font-size="13" lengthAdjust="spacing" textLength="332" x="39.5" y="374.1748">Provide new operation's surgery phase estimated duration</text><polygon fill="#181818" points="43.5,405.3828,33.5,409.3828,43.5,413.3828,39.5,409.3828" style="stroke:#181818;stroke-width:1.0;"/><line style="stroke:#181818;stroke-width:1.0;stroke-dasharray:2.0,2.0;" x1="37.5" x2="712.5" y1="409.3828" y2="409.3828"/><text fill="#000000" font-family="sans-serif" font-size="13" lengthAdjust="spacing" textLength="336" x="49.5" y="404.5264">Ask for new operation's cleaning phase estimated duration</text><polygon fill="#181818" points="696.5,435.7344,706.5,439.7344,696.5,443.7344,700.5,439.7344" style="stroke:#181818;stroke-width:1.0;"/><line style="stroke:#181818;stroke-width:1.0;" x1="32.5" x2="702.5" y1="439.7344" y2="439.7344"/><text fill="#000000" font-family="sans-serif" font-size="13" lengthAdjust="spacing" textLength="337" x="39.5" y="434.8779">Provide new operation's cleaning phase estimated duration</text><polygon fill="#181818" points="43.5,466.0859,33.5,470.0859,43.5,474.0859,39.5,470.0859" style="stroke:#181818;stroke-width:1.0;"/><line style="stroke:#181818;stroke-width:1.0;stroke-dasharray:2.0,2.0;" x1="37.5" x2="712.5" y1="470.0859" y2="470.0859"/><text fill="#000000" font-family="sans-serif" font-size="13" lengthAdjust="spacing" textLength="321" x="49.5" y="465.2295">Ask for new operation's required staff (by specialization)</text><polygon fill="#181818" points="696.5,496.4375,706.5,500.4375,696.5,504.4375,700.5,500.4375" style="stroke:#181818;stroke-width:1.0;"/><line style="stroke:#181818;stroke-width:1.0;" x1="32.5" x2="702.5" y1="500.4375" y2="500.4375"/><text fill="#000000" font-family="sans-serif" font-size="13" lengthAdjust="spacing" textLength="486" x="39.5" y="495.5811">Provide number of doctors, nurses and technicians required and their specializations</text><polygon fill="#181818" points="38.5,526.7891,28.5,530.7891,38.5,534.7891,34.5,530.7891" style="stroke:#181818;stroke-width:1.0;"/><line style="stroke:#181818;stroke-width:1.0;stroke-dasharray:2.0,2.0;" x1="32.5" x2="712.5" y1="530.7891" y2="530.7891"/><text fill="#000000" font-family="sans-serif" font-size="13" lengthAdjust="spacing" textLength="652" x="44.5" y="525.9326">Save new operation type, making it available for schedulling, and show the assigned ID for the new operation type</text><!--SRC=[jPHDRy8m38Rl_HKMbu446jgHmoGqBhjDgxQxQTpMeasx92tgVlsS5374G7oD72hBTX_xTLCxTWL1t5b79SJqrP1E21QCcS4IXd6y6C44FbwcJzC84rSPcAkIDQ3rHbIZSPnmZTh1ODPZ1ZxOcv5_Xrjq5B8Za2C6J9ut2JDufup5Cg1f3Qwh2QeKgfeCEgvqy8JNjg0DsVl2mvzD_nFX2du6Sxk2jEgPMzQ31OrbJrEqpplKsvkfMbPq77CGijlGB-iJ2rO-zI3iOYMeoRgSBEDZRKW-Gp-kEaTB824kfPO2rVI1Vn1zJSMJypabqpOc8zFTKzTP9MuMaXI4cdLsJoNdrRXPYf4jmKQmrc6Qmd3PWQqfORdWto5dT8sMfbpA4f1_NrL-pTYnk8mbV-yKE4foBNi6zKxv4CY9pLvvUvdC6DkzKOQbCuOILtwOx01Rv0ANiYZzF6oIasgAGeBZq8JDgxNlHFQUvKnBQw-BaEbzVyb7fhFZyRlo1m00]--></g></svg>