<?xml version="1.0" encoding="us-ascii" standalone="no"?><svg xmlns="http://www.w3.org/2000/svg" xmlns:xlink="http://www.w3.org/1999/xlink" contentStyleType="text/css" height="570px" preserveAspectRatio="none" style="width:545px;height:570px;background:#FFFFFF;" version="1.1" viewBox="0 0 545 570" width="545px" zoomAndPan="magnify"><defs/><g><text fill="#000000" font-family="sans-serif" font-size="14" font-weight="bold" lengthAdjust="spacing" textLength="285" x="131.25" y="29.5332">System Sequence Diagram (SSD) - UC022</text><rect fill="#FFFFFF" height="347.3516" style="stroke:#181818;stroke-width:1.0;" width="10" x="37.5" y="131.2188"/><rect fill="#FFFFFF" height="30.3516" style="stroke:#181818;stroke-width:1.0;" width="10" x="291.5" y="153.5703"/><rect fill="#FFFFFF" height="99.0547" style="stroke:#181818;stroke-width:1.0;" width="10" x="291.5" y="214.2734"/><rect fill="#FFFFFF" height="73.7031" style="stroke:#181818;stroke-width:1.0;" width="10" x="291.5" y="343.6797"/><rect fill="none" height="198.9453" style="stroke:#000000;stroke-width:1.5;" width="528.5" x="10" y="272.625"/><line style="stroke:#181818;stroke-width:0.5;stroke-dasharray:5.0,5.0;" x1="42" x2="42" y1="121.2188" y2="488.5703"/><line style="stroke:#181818;stroke-width:0.5;stroke-dasharray:5.0,5.0;" x1="296.5" x2="296.5" y1="121.2188" y2="488.5703"/><text fill="#000000" font-family="sans-serif" font-size="14" lengthAdjust="spacing" textLength="39" x="20" y="118.1426">Admin</text><ellipse cx="42.5" cy="52.1094" fill="#E2E2F0" rx="8" ry="8" style="stroke:#181818;stroke-width:0.5;"/><path d="M42.5,60.1094 L42.5,87.1094 M29.5,68.1094 L55.5,68.1094 M42.5,87.1094 L29.5,102.1094 M42.5,87.1094 L55.5,102.1094 " fill="none" style="stroke:#181818;stroke-width:0.5;"/><text fill="#000000" font-family="sans-serif" font-size="14" lengthAdjust="spacing" textLength="39" x="20" y="502.1035">Admin</text><ellipse cx="42.5" cy="513.6797" fill="#E2E2F0" rx="8" ry="8" style="stroke:#181818;stroke-width:0.5;"/><path d="M42.5,521.6797 L42.5,548.6797 M29.5,529.6797 L55.5,529.6797 M42.5,548.6797 L29.5,563.6797 M42.5,548.6797 L55.5,563.6797 " fill="none" style="stroke:#181818;stroke-width:0.5;"/><rect fill="#E2E2F0" height="31.6094" rx="2.5" ry="2.5" style="stroke:#181818;stroke-width:0.5;" width="64" x="264.5" y="88.6094"/><text fill="#000000" font-family="sans-serif" font-size="14" lengthAdjust="spacing" textLength="50" x="271.5" y="110.1426">:System</text><rect fill="#E2E2F0" height="31.6094" rx="2.5" ry="2.5" style="stroke:#181818;stroke-width:0.5;" width="64" x="264.5" y="487.5703"/><text fill="#000000" font-family="sans-serif" font-size="14" lengthAdjust="spacing" textLength="50" x="271.5" y="509.1035">:System</text><rect fill="#FFFFFF" height="347.3516" style="stroke:#181818;stroke-width:1.0;" width="10" x="37.5" y="131.2188"/><rect fill="#FFFFFF" height="30.3516" style="stroke:#181818;stroke-width:1.0;" width="10" x="291.5" y="153.5703"/><rect fill="#FFFFFF" height="99.0547" style="stroke:#181818;stroke-width:1.0;" width="10" x="291.5" y="214.2734"/><rect fill="#FFFFFF" height="73.7031" style="stroke:#181818;stroke-width:1.0;" width="10" x="291.5" y="343.6797"/><polygon fill="#181818" points="279.5,149.5703,289.5,153.5703,279.5,157.5703,283.5,153.5703" style="stroke:#181818;stroke-width:1.0;"/><line style="stroke:#181818;stroke-width:1.0;" x1="47.5" x2="285.5" y1="153.5703" y2="153.5703"/><text fill="#000000" font-family="sans-serif" font-size="13" lengthAdjust="spacing" textLength="172" x="54.5" y="148.7139">Delete existing operation type</text><polygon fill="#181818" points="58.5,179.9219,48.5,183.9219,58.5,187.9219,54.5,183.9219" style="stroke:#181818;stroke-width:1.0;"/><line style="stroke:#181818;stroke-width:1.0;stroke-dasharray:2.0,2.0;" x1="52.5" x2="295.5" y1="183.9219" y2="183.9219"/><text fill="#000000" font-family="sans-serif" font-size="13" lengthAdjust="spacing" textLength="143" x="64.5" y="179.0654">Ask for operation type ID</text><polygon fill="#181818" points="279.5,210.2734,289.5,214.2734,279.5,218.2734,283.5,214.2734" style="stroke:#181818;stroke-width:1.0;"/><line style="stroke:#181818;stroke-width:1.0;" x1="47.5" x2="285.5" y1="214.2734" y2="214.2734"/><text fill="#000000" font-family="sans-serif" font-size="13" lengthAdjust="spacing" textLength="211" x="54.5" y="209.417">Provide operation type ID for deletion</text><line style="stroke:#181818;stroke-width:1.0;" x1="301.5" x2="343.5" y1="244.625" y2="244.625"/><line style="stroke:#181818;stroke-width:1.0;" x1="343.5" x2="343.5" y1="244.625" y2="257.625"/><line style="stroke:#181818;stroke-width:1.0;" x1="302.5" x2="343.5" y1="257.625" y2="257.625"/><polygon fill="#181818" points="312.5,253.625,302.5,257.625,312.5,261.625,308.5,257.625" style="stroke:#181818;stroke-width:1.0;"/><text fill="#000000" font-family="sans-serif" font-size="13" lengthAdjust="spacing" textLength="149" x="308.5" y="239.7686">Validate operation type ID</text><path d="M10,272.625 L71,272.625 L71,280.9766 L61,290.9766 L10,290.9766 L10,272.625 " fill="#EEEEEE" style="stroke:#000000;stroke-width:1.5;"/><rect fill="none" height="198.9453" style="stroke:#000000;stroke-width:1.5;" width="528.5" x="10" y="272.625"/><text fill="#000000" font-family="sans-serif" font-size="13" font-weight="bold" lengthAdjust="spacing" textLength="16" x="25" y="287.1201">alt</text><text fill="#000000" font-family="sans-serif" font-size="11" font-weight="bold" lengthAdjust="spacing" textLength="59" x="86" y="286.0439">[ID is valid]</text><polygon fill="#181818" points="58.5,309.3281,48.5,313.3281,58.5,317.3281,54.5,313.3281" style="stroke:#181818;stroke-width:1.0;"/><line style="stroke:#181818;stroke-width:1.0;stroke-dasharray:2.0,2.0;" x1="52.5" x2="295.5" y1="313.3281" y2="313.3281"/><text fill="#000000" font-family="sans-serif" font-size="13" lengthAdjust="spacing" textLength="219" x="64.5" y="308.4717">Ask to confirm operation type deletion</text><polygon fill="#181818" points="279.5,339.6797,289.5,343.6797,279.5,347.6797,283.5,343.6797" style="stroke:#181818;stroke-width:1.0;"/><line style="stroke:#181818;stroke-width:1.0;" x1="47.5" x2="285.5" y1="343.6797" y2="343.6797"/><text fill="#000000" font-family="sans-serif" font-size="13" lengthAdjust="spacing" textLength="179" x="54.5" y="338.8232">Confirm operation type deletion</text><line style="stroke:#181818;stroke-width:1.0;" x1="301.5" x2="343.5" y1="374.0313" y2="374.0313"/><line style="stroke:#181818;stroke-width:1.0;" x1="343.5" x2="343.5" y1="374.0313" y2="387.0313"/><line style="stroke:#181818;stroke-width:1.0;" x1="302.5" x2="343.5" y1="387.0313" y2="387.0313"/><polygon fill="#181818" points="312.5,383.0313,302.5,387.0313,312.5,391.0313,308.5,387.0313" style="stroke:#181818;stroke-width:1.0;"/><text fill="#000000" font-family="sans-serif" font-size="13" lengthAdjust="spacing" textLength="218" x="308.5" y="369.1748">Delete operation type and log deletion</text><polygon fill="#181818" points="58.5,413.3828,48.5,417.3828,58.5,421.3828,54.5,417.3828" style="stroke:#181818;stroke-width:1.0;"/><line style="stroke:#181818;stroke-width:1.0;stroke-dasharray:2.0,2.0;" x1="52.5" x2="295.5" y1="417.3828" y2="417.3828"/><text fill="#000000" font-family="sans-serif" font-size="13" lengthAdjust="spacing" textLength="220" x="64.5" y="412.5264">Inform that operation type was deleted</text><line style="stroke:#000000;stroke-width:1.0;stroke-dasharray:2.0,2.0;" x1="10" x2="538.5" y1="426.3828" y2="426.3828"/><text fill="#000000" font-family="sans-serif" font-size="11" font-weight="bold" lengthAdjust="spacing" textLength="69" x="15" y="437.8018">[ID is invalid]</text><polygon fill="#181818" points="58.5,459.5703,48.5,463.5703,58.5,467.5703,54.5,463.5703" style="stroke:#181818;stroke-width:1.0;"/><line style="stroke:#181818;stroke-width:1.0;stroke-dasharray:2.0,2.0;" x1="52.5" x2="295.5" y1="463.5703" y2="463.5703"/><text fill="#000000" font-family="sans-serif" font-size="13" lengthAdjust="spacing" textLength="216" x="64.5" y="458.7139">Inform that operation type ID is invalid</text><!--SRC=[ZPF1JiCm38RlVGfh9pXKGZlsW3IjbzsGAhXRZLSiqgGafh2t9saBesssaKDanVRdttOhB9gWEdcX5Yfw_o1J4vICZSCMxgggl8SSdlSFsss6jLW7EzMo0VJHo3fqmZLtQ0GsnOZPHETePZ67UnGQeZC89nYGFqu11PIaARZfYxsmQS1sv53O6f1JHsFABsIYnhVXYcVIdWTcG1Umyszm33hd83YK8qlHafPIzUHipuhMa06jekRmc5QtKdR6lg1c5KFNudwIHgIMM8izz37ZZBpKi5YehJcoQvVekTOh4qXCONy3ETl3HMXw5DFU5sWq2hHj4gfJdHzCs4OByego17s6Rt20aBhPEMbFqxZP_6FWLyhEARFvN2fkGhK_llYVV0C0]--></g></svg>