<?xml version="1.0" encoding="us-ascii" standalone="no"?><svg xmlns="http://www.w3.org/2000/svg" xmlns:xlink="http://www.w3.org/1999/xlink" contentStyleType="text/css" height="1722px" preserveAspectRatio="none" style="width:502px;height:1722px;background:#FFFFFF;" version="1.1" viewBox="0 0 502 1722" width="502px" zoomAndPan="magnify"><defs/><g><!--cluster Healthcare Management System--><g id="cluster_Healthcare Management System"><rect fill="none" height="1345" rx="2.5" ry="2.5" style="stroke:#181818;stroke-width:1.0;" width="285" x="199.5" y="7"/><text fill="#000000" font-family="sans-serif" font-size="14" font-weight="bold" lengthAdjust="spacing" textLength="225" x="229.5" y="23.5332">Healthcare Management System</text></g><!--cluster IAM System--><g id="cluster_IAM System"><rect fill="none" height="340" rx="2.5" ry="2.5" style="stroke:#181818;stroke-width:1.0;" width="308" x="188" y="1376"/><text fill="#000000" font-family="sans-serif" font-size="14" font-weight="bold" lengthAdjust="spacing" textLength="80" x="302" y="1392.5332">IAM System</text></g><g id="elem_Register Backoffice Users"><ellipse cx="342.0042" cy="1171.0008" fill="#F1F1F1" rx="100.5042" ry="22.5008" style="stroke:#181818;stroke-width:0.5;"/><text fill="#000000" font-family="sans-serif" font-size="14" lengthAdjust="spacing" textLength="162" x="261.0042" y="1174.7293">Register Backoffice Users</text></g><g id="elem_Create Patient Profile"><ellipse cx="342.1756" cy="400.1351" fill="#F1F1F1" rx="88.6756" ry="20.1351" style="stroke:#181818;stroke-width:0.5;"/><text fill="#000000" font-family="sans-serif" font-size="14" lengthAdjust="spacing" textLength="135" x="274.6756" y="403.8636">Create Patient Profile</text></g><g id="elem_Edit Patient Profile"><ellipse cx="342.1887" cy="474.0377" fill="#F1F1F1" rx="80.6887" ry="18.5377" style="stroke:#181818;stroke-width:0.5;"/><text fill="#000000" font-family="sans-serif" font-size="14" lengthAdjust="spacing" textLength="116" x="283.5015" y="477.9661">Edit Patient Profile</text></g><g id="elem_Delete Patient Profile"><ellipse cx="341.8193" cy="547.9639" fill="#F1F1F1" rx="87.8193" ry="19.9639" style="stroke:#181818;stroke-width:0.5;"/><text fill="#000000" font-family="sans-serif" font-size="14" lengthAdjust="spacing" textLength="133" x="275.3193" y="551.6924">Delete Patient Profile</text></g><g id="elem_List/Search Patient Profiles"><ellipse cx="342.0894" cy="626.2179" fill="#F1F1F1" rx="104.0894" ry="23.2179" style="stroke:#181818;stroke-width:0.5;"/><text fill="#000000" font-family="sans-serif" font-size="14" lengthAdjust="spacing" textLength="170" x="257.0894" y="629.9464">List/Search Patient Profiles</text></g><g id="elem_Create Staff Profile"><ellipse cx="341.8351" cy="702.867" fill="#F1F1F1" rx="82.3351" ry="18.867" style="stroke:#181818;stroke-width:0.5;"/><text fill="#000000" font-family="sans-serif" font-size="14" lengthAdjust="spacing" textLength="120" x="281.8351" y="706.5955">Create Staff Profile</text></g><g id="elem_Edit Staff Profile"><ellipse cx="341.8525" cy="774.8705" fill="#F1F1F1" rx="74.8525" ry="17.3705" style="stroke:#181818;stroke-width:0.5;"/><text fill="#000000" font-family="sans-serif" font-size="14" lengthAdjust="spacing" textLength="101" x="288.3525" y="779.3871">Edit Staff Profile</text></g><g id="elem_Deactivate Staff Profile"><ellipse cx="342.066" cy="848.9132" fill="#F1F1F1" rx="92.566" ry="20.9132" style="stroke:#181818;stroke-width:0.5;"/><text fill="#000000" font-family="sans-serif" font-size="14" lengthAdjust="spacing" textLength="144" x="270.066" y="852.6417">Deactivate Staff Profile</text></g><g id="elem_List/Search Staff Profiles"><ellipse cx="341.8945" cy="926.8789" fill="#F1F1F1" rx="97.3945" ry="21.8789" style="stroke:#181818;stroke-width:0.5;"/><text fill="#000000" font-family="sans-serif" font-size="14" lengthAdjust="spacing" textLength="155" x="264.3945" y="930.6074">List/Search Staff Profiles</text></g><g id="elem_Manage Operation Types"><ellipse cx="342.0583" cy="1006.9117" fill="#F1F1F1" rx="100.0583" ry="22.4117" style="stroke:#181818;stroke-width:0.5;"/><text fill="#000000" font-family="sans-serif" font-size="14" lengthAdjust="spacing" textLength="161" x="261.5583" y="1010.6402">Manage Operation Types</text></g><g id="elem_List/Search Operation Types"><ellipse cx="342.0675" cy="1089.2135" fill="#F1F1F1" rx="109.0675" ry="24.2135" style="stroke:#181818;stroke-width:0.5;"/><text fill="#000000" font-family="sans-serif" font-size="14" lengthAdjust="spacing" textLength="181" x="251.5675" y="1092.942">List/Search Operation Types</text></g><g id="elem_Request an Operation"><ellipse cx="341.8297" cy="154.0659" fill="#F1F1F1" rx="90.8297" ry="20.5659" style="stroke:#181818;stroke-width:0.5;"/><text fill="#000000" font-family="sans-serif" font-size="14" lengthAdjust="spacing" textLength="140" x="271.8297" y="157.7945">Request an Operation</text></g><g id="elem_Update Operation Requisition"><ellipse cx="341.847" cy="234.1694" fill="#F1F1F1" rx="111.347" ry="24.6694" style="stroke:#181818;stroke-width:0.5;"/><text fill="#000000" font-family="sans-serif" font-size="14" lengthAdjust="spacing" textLength="186" x="248.847" y="237.8979">Update Operation Requisition</text></g><g id="elem_Remove Operation Requisition"><ellipse cx="342.0541" cy="318.8108" fill="#F1F1F1" rx="114.5541" ry="25.3108" style="stroke:#181818;stroke-width:0.5;"/><text fill="#000000" font-family="sans-serif" font-size="14" lengthAdjust="spacing" textLength="193" x="245.5541" y="322.5393">Remove Operation Requisition</text></g><g id="elem_List/Search Operation Requisitions"><ellipse cx="342.1055" cy="71.2211" fill="#F1F1F1" rx="126.6055" ry="27.7211" style="stroke:#181818;stroke-width:0.5;"/><text fill="#000000" font-family="sans-serif" font-size="14" lengthAdjust="spacing" textLength="219" x="232.6055" y="74.9496">List/Search Operation Requisitions</text></g><g id="elem_Update User Profile"><ellipse cx="342.169" cy="1248.0338" fill="#F1F1F1" rx="83.169" ry="19.0338" style="stroke:#181818;stroke-width:0.5;"/><text fill="#000000" font-family="sans-serif" font-size="14" lengthAdjust="spacing" textLength="122" x="281.169" y="1251.7623">Update User Profile</text></g><g id="elem_Delete Account"><ellipse cx="342.0109" cy="1319.0022" fill="#F1F1F1" rx="73.0109" ry="17.0022" style="stroke:#181818;stroke-width:0.5;"/><text fill="#000000" font-family="sans-serif" font-size="14" lengthAdjust="spacing" textLength="96" x="291.0109" y="1323.5188">Delete Account</text></g><g id="elem_Login to the System"><ellipse cx="341.9267" cy="1609.7853" fill="#F1F1F1" rx="84.4267" ry="19.2853" style="stroke:#181818;stroke-width:0.5;"/><text fill="#000000" font-family="sans-serif" font-size="14" lengthAdjust="spacing" textLength="125" x="279.4267" y="1613.5139">Login to the System</text></g><g id="elem_Reset Password"><ellipse cx="342.2256" cy="1681.9451" fill="#F1F1F1" rx="75.2256" ry="17.4451" style="stroke:#181818;stroke-width:0.5;"/><text fill="#000000" font-family="sans-serif" font-size="14" lengthAdjust="spacing" textLength="102" x="288.2256" y="1686.4617">Reset Password</text></g><g id="elem_Register for the Healthcare Application"><ellipse cx="341.8863" cy="1524.9773" fill="#F1F1F1" rx="137.8863" ry="29.9773" style="stroke:#181818;stroke-width:0.5;"/><text fill="#000000" font-family="sans-serif" font-size="14" lengthAdjust="spacing" textLength="243" x="220.3863" y="1528.7058">Register for the Healthcare Application</text></g><g id="elem_Login using IAM Credentials"><ellipse cx="341.7982" cy="1435.7596" fill="#F1F1F1" rx="106.7982" ry="23.7596" style="stroke:#181818;stroke-width:0.5;"/><text fill="#000000" font-family="sans-serif" font-size="14" lengthAdjust="spacing" textLength="176" x="253.7982" y="1439.4882">Login using IAM Credentials</text></g><!--entity Admin--><g id="elem_Admin"><ellipse cx="55" cy="744.5" fill="#F1F1F1" rx="8" ry="8" style="stroke:#181818;stroke-width:0.5;"/><path d="M55,752.5 L55,779.5 M42,760.5 L68,760.5 M55,779.5 L42,794.5 M55,779.5 L68,794.5 " fill="none" style="stroke:#181818;stroke-width:0.5;"/><text fill="#000000" font-family="sans-serif" font-size="14" lengthAdjust="spacing" textLength="39" x="35.5" y="810.5332">Admin</text></g><!--entity BackofficeUser--><g id="elem_BackofficeUser"><ellipse cx="55" cy="1616.5" fill="#F1F1F1" rx="8" ry="8" style="stroke:#181818;stroke-width:0.5;"/><path d="M55,1624.5 L55,1651.5 M42,1632.5 L68,1632.5 M55,1651.5 L42,1666.5 M55,1651.5 L68,1666.5 " fill="none" style="stroke:#181818;stroke-width:0.5;"/><text fill="#000000" font-family="sans-serif" font-size="14" lengthAdjust="spacing" textLength="98" x="6" y="1682.5332">Backoffice User</text></g><!--entity Patient--><g id="elem_Patient"><ellipse cx="55" cy="1346.5" fill="#F1F1F1" rx="8" ry="8" style="stroke:#181818;stroke-width:0.5;"/><path d="M55,1354.5 L55,1381.5 M42,1362.5 L68,1362.5 M55,1381.5 L42,1396.5 M55,1381.5 L68,1396.5 " fill="none" style="stroke:#181818;stroke-width:0.5;"/><text fill="#000000" font-family="sans-serif" font-size="14" lengthAdjust="spacing" textLength="44" x="33" y="1412.5332">Patient</text></g><!--entity Doctor--><g id="elem_Doctor"><ellipse cx="55" cy="164.5" fill="#F1F1F1" rx="8" ry="8" style="stroke:#181818;stroke-width:0.5;"/><path d="M55,172.5 L55,199.5 M42,180.5 L68,180.5 M55,199.5 L42,214.5 M55,199.5 L68,214.5 " fill="none" style="stroke:#181818;stroke-width:0.5;"/><text fill="#000000" font-family="sans-serif" font-size="14" lengthAdjust="spacing" textLength="42" x="34" y="230.5332">Doctor</text></g><!--link Admin to Register Backoffice Users--><g id="link_Admin_Register Backoffice Users"><path d="M55.96,814.14 C58.28,890.47 75.65,1058.1 180,1131 C201.01,1145.68 221.0425,1153.603 245.8325,1159.493 " fill="none" id="Admin-to-Register Backoffice Users" style="stroke:#181818;stroke-width:1.0;"/><polygon fill="#181818" points="251.67,1160.88,243.8384,1154.9079,246.8054,1159.7242,241.9891,1162.6912,251.67,1160.88" style="stroke:#181818;stroke-width:1.0;"/><text fill="#000000" font-family="sans-serif" font-size="13" lengthAdjust="spacing" textLength="29" x="138.5" y="1086.4951">5.1.1</text></g><!--link Admin to Create Patient Profile--><g id="link_Admin_Create Patient Profile"><path d="M61.46,735.66 C70.45,679.31 91.76,573.52 134,493 C148.81,464.78 152.88,454.74 180,438 C204.32,422.99 228.1684,415.0962 255.4384,409.5962 " fill="none" id="Admin-to-Create Patient Profile" style="stroke:#181818;stroke-width:1.0;"/><polygon fill="#181818" points="261.32,408.41,251.7068,406.2683,256.4187,409.3985,253.2885,414.1104,261.32,408.41" style="stroke:#181818;stroke-width:1.0;"/><text fill="#000000" font-family="sans-serif" font-size="13" lengthAdjust="spacing" textLength="29" x="138.5" y="440.4951">5.1.8</text></g><!--link Admin to Edit Patient Profile--><g id="link_Admin_Edit Patient Profile"><path d="M61.02,735.53 C71.16,674.45 100.4,558.98 180,510 C205.74,494.17 231.6894,486.302 260.2694,481.312 " fill="none" id="Admin-to-Edit Patient Profile" style="stroke:#181818;stroke-width:1.0;"/><polygon fill="#181818" points="266.18,480.28,256.6261,477.8876,261.2545,481.14,258.0021,485.7684,266.18,480.28" style="stroke:#181818;stroke-width:1.0;"/><text fill="#000000" font-family="sans-serif" font-size="13" lengthAdjust="spacing" textLength="29" x="138.5" y="515.4951">5.1.9</text></g><!--link Admin to Delete Patient Profile--><g id="link_Admin_Delete Patient Profile"><path d="M70.48,735.74 C88.85,691.75 124.95,621.93 180,586 C203.81,570.46 227.3969,562.4388 254.5969,556.9888 " fill="none" id="Admin-to-Delete Patient Profile" style="stroke:#181818;stroke-width:1.0;"/><polygon fill="#181818" points="260.48,555.81,250.8695,553.6561,255.5774,556.7923,252.4412,561.5002,260.48,555.81" style="stroke:#181818;stroke-width:1.0;"/><text fill="#000000" font-family="sans-serif" font-size="13" lengthAdjust="spacing" textLength="36" x="135" y="588.4951">5.1.10</text></g><!--link Admin to List/Search Patient Profiles--><g id="link_Admin_List/Search Patient Profiles"><path d="M74.83,753.38 C97.4,728.82 137.52,689.27 180,667 C203.88,654.48 225.9649,647.0272 251.7749,640.8472 " fill="none" id="Admin-to-List/Search Patient Profiles" style="stroke:#181818;stroke-width:1.0;"/><polygon fill="#181818" points="257.61,639.45,247.926,637.6557,252.7474,640.6143,249.7888,645.4358,257.61,639.45" style="stroke:#181818;stroke-width:1.0;"/><text fill="#000000" font-family="sans-serif" font-size="13" lengthAdjust="spacing" textLength="36" x="135" y="669.4951">5.1.11</text></g><!--link Admin to Create Staff Profile--><g id="link_Admin_Create Staff Profile"><path d="M74.75,768.15 C90.44,762.55 113.5,754.68 134,749 C181.9,735.73 230.9621,724.8744 272.2021,716.4244 " fill="none" id="Admin-to-Create Staff Profile" style="stroke:#181818;stroke-width:1.0;"/><polygon fill="#181818" points="278.08,715.22,268.4603,713.108,273.1818,716.2236,270.0661,720.9451,278.08,715.22" style="stroke:#181818;stroke-width:1.0;"/><text fill="#000000" font-family="sans-serif" font-size="13" lengthAdjust="spacing" textLength="36" x="135" y="736.4951">5.1.12</text></g><!--link Admin to Edit Staff Profile--><g id="link_Admin_Edit Staff Profile"><path d="M74.7,775 C113.03,775 196.33,775 260.97,775 " fill="none" id="Admin-to-Edit Staff Profile" style="stroke:#181818;stroke-width:1.0;"/><polygon fill="#181818" points="266.97,775,257.97,771,261.97,775,257.97,779,266.97,775" style="stroke:#181818;stroke-width:1.0;"/><text fill="#000000" font-family="sans-serif" font-size="13" lengthAdjust="spacing" textLength="36" x="135" y="771.4951">5.1.13</text></g><!--link Admin to Deactivate Staff Profile--><g id="link_Admin_Deactivate Staff Profile"><path d="M74.76,781.8 C90.46,787.37 113.53,795.23 134,801 C179.98,813.96 226.5471,824.8146 267.1371,833.6446 " fill="none" id="Admin-to-Deactivate Staff Profile" style="stroke:#181818;stroke-width:1.0;"/><polygon fill="#181818" points="273,834.92,265.056,829.0983,268.1143,833.8572,263.3554,836.9155,273,834.92" style="stroke:#181818;stroke-width:1.0;"/><text fill="#000000" font-family="sans-serif" font-size="13" lengthAdjust="spacing" textLength="36" x="135" y="797.4951">5.1.14</text></g><!--link Admin to List/Search Staff Profiles--><g id="link_Admin_List/Search Staff Profiles"><path d="M74.57,797.74 C96.89,823.55 136.79,865.04 180,888 C204.13,900.82 226.6645,908.1811 252.8345,914.0311 " fill="none" id="Admin-to-List/Search Staff Profiles" style="stroke:#181818;stroke-width:1.0;"/><polygon fill="#181818" points="258.69,915.34,250.7794,909.473,253.8104,914.2492,249.0342,917.2803,258.69,915.34" style="stroke:#181818;stroke-width:1.0;"/><text fill="#000000" font-family="sans-serif" font-size="13" lengthAdjust="spacing" textLength="36" x="135" y="853.4951">5.1.15</text></g><!--link Admin to Manage Operation Types--><g id="link_Admin_Manage Operation Types"><path d="M69.96,814.11 C88.05,858.77 124.08,930.35 180,967 C201.8,981.29 222.469,989.098 247.629,995.008 " fill="none" id="Admin-to-Manage Operation Types" style="stroke:#181818;stroke-width:1.0;"/><polygon fill="#181818" points="253.47,996.38,245.6232,990.4279,248.6025,995.2366,243.7938,998.216,253.47,996.38" style="stroke:#181818;stroke-width:1.0;"/><text fill="#000000" font-family="sans-serif" font-size="13" lengthAdjust="spacing" textLength="36" x="135" y="921.4951">5.1.20</text></g><!--link Admin to List/Search Operation Types--><g id="link_Admin_List/Search Operation Types"><path d="M61.04,814.26 C71.26,875.79 100.64,993.42 180,1047 C200.47,1060.82 219.4242,1068.576 243.3142,1074.806 " fill="none" id="Admin-to-List/Search Operation Types" style="stroke:#181818;stroke-width:1.0;"/><polygon fill="#181818" points="249.12,1076.32,241.4206,1070.1784,244.2818,1075.0583,239.4019,1077.9195,249.12,1076.32" style="stroke:#181818;stroke-width:1.0;"/><text fill="#000000" font-family="sans-serif" font-size="13" lengthAdjust="spacing" textLength="36" x="135" y="999.4951">5.1.23</text></g><!--link Doctor to Request an Operation--><g id="link_Doctor_Request an Operation"><path d="M76.04,192.12 C114.62,186.57 195.0912,174.9949 258.7912,165.8249 " fill="none" id="Doctor-to-Request an Operation" style="stroke:#181818;stroke-width:1.0;"/><polygon fill="#181818" points="264.73,164.97,255.2519,162.2932,259.781,165.6824,256.3918,170.2116,264.73,164.97" style="stroke:#181818;stroke-width:1.0;"/><text fill="#000000" font-family="sans-serif" font-size="13" lengthAdjust="spacing" textLength="36" x="135" y="176.4951">5.1.16</text></g><!--link Doctor to Update Operation Requisition--><g id="link_Doctor_Update Operation Requisition"><path d="M76.14,203.32 C91.67,209.34 113.82,217.07 134,221 C165.02,227.04 193.101,230.0975 224.491,231.9975 " fill="none" id="Doctor-to-Update Operation Requisition" style="stroke:#181818;stroke-width:1.0;"/><polygon fill="#181818" points="230.48,232.36,221.7381,227.8235,225.4891,232.0579,221.2548,235.8089,230.48,232.36" style="stroke:#181818;stroke-width:1.0;"/><text fill="#000000" font-family="sans-serif" font-size="13" lengthAdjust="spacing" textLength="36" x="135" y="217.4951">5.1.17</text></g><!--link Doctor to Remove Operation Requisition--><g id="link_Doctor_Remove Operation Requisition"><path d="M76.16,211.53 C91.52,223.74 113.45,240.36 134,253 C171.27,275.93 211.4576,290.1027 250.6276,300.4127 " fill="none" id="Doctor-to-Remove Operation Requisition" style="stroke:#181818;stroke-width:1.0;"/><polygon fill="#181818" points="256.43,301.94,248.7446,295.7809,251.5947,300.6673,246.7083,303.5174,256.43,301.94" style="stroke:#181818;stroke-width:1.0;"/><text fill="#000000" font-family="sans-serif" font-size="13" lengthAdjust="spacing" textLength="36" x="135" y="249.4951">5.1.18</text></g><!--link Doctor to List/Search Operation Requisitions--><g id="link_Doctor_List/Search Operation Requisitions"><path d="M76,179.61 C99.68,162.04 140.84,133.48 180,116 C202.92,105.77 222.9593,98.9175 247.0893,92.2075 " fill="none" id="Doctor-to-List/Search Operation Requisitions" style="stroke:#181818;stroke-width:1.0;"/><polygon fill="#181818" points="252.87,90.6,243.1274,89.1574,248.0528,91.9396,245.2707,96.865,252.87,90.6" style="stroke:#181818;stroke-width:1.0;"/><text fill="#000000" font-family="sans-serif" font-size="13" lengthAdjust="spacing" textLength="36" x="135" y="118.4951">5.1.19</text></g><!--link Patient to Update User Profile--><g id="link_Patient_Update User Profile"><path d="M77.07,1357.03 C100.42,1335.99 140.08,1303.41 180,1285 C208.26,1271.97 235.5903,1264.4849 264.5003,1258.8649 " fill="none" id="Patient-to-Update User Profile" style="stroke:#181818;stroke-width:1.0;"/><polygon fill="#181818" points="270.39,1257.72,260.7921,1255.5109,265.4819,1258.6741,262.3187,1263.3639,270.39,1257.72" style="stroke:#181818;stroke-width:1.0;"/><text fill="#000000" font-family="sans-serif" font-size="13" lengthAdjust="spacing" textLength="29" x="138.5" y="1286.4951">5.1.4</text></g><!--link Patient to Delete Account--><g id="link_Patient_Delete Account"><path d="M77.42,1372.64 C121.37,1363.7 217.0505,1344.2265 280.4905,1331.3165 " fill="none" id="Patient-to-Delete Account" style="stroke:#181818;stroke-width:1.0;"/><polygon fill="#181818" points="286.37,1330.12,276.7531,1327.995,281.4704,1331.1171,278.3484,1335.8344,286.37,1330.12" style="stroke:#181818;stroke-width:1.0;"/><text fill="#000000" font-family="sans-serif" font-size="13" lengthAdjust="spacing" textLength="29" x="138.5" y="1350.4951">5.1.5</text></g><!--link BackofficeUser to Login to the System--><g id="link_BackofficeUser_Login to the System"><path d="M104.02,1640.77 C148.84,1634.95 210.3898,1626.9515 261.9098,1620.2715 " fill="none" id="BackofficeUser-to-Login to the System" style="stroke:#181818;stroke-width:1.0;"/><polygon fill="#181818" points="267.86,1619.5,258.4204,1616.6904,262.9015,1620.1429,259.449,1624.624,267.86,1619.5" style="stroke:#181818;stroke-width:1.0;"/><text fill="#000000" font-family="sans-serif" font-size="13" lengthAdjust="spacing" textLength="29" x="138.5" y="1628.4951">5.1.6</text></g><!--link BackofficeUser to Reset Password--><g id="link_BackofficeUser_Reset Password"><path d="M104.28,1669.28 C113.93,1672.85 124.14,1676.01 134,1678 C178.57,1686.98 223.6427,1688.2388 263.9027,1687.0388 " fill="none" id="BackofficeUser-to-Reset Password" style="stroke:#181818;stroke-width:1.0;"/><polygon fill="#181818" points="269.9,1686.86,260.7848,1683.1299,264.9022,1687.009,261.0232,1691.1264,269.9,1686.86" style="stroke:#181818;stroke-width:1.0;"/><text fill="#000000" font-family="sans-serif" font-size="13" lengthAdjust="spacing" textLength="29" x="138.5" y="1674.4951">5.1.2</text></g><!--link Patient to Register for the Healthcare Application--><g id="link_Patient_Register for the Healthcare Application"><path d="M77.34,1398.97 C100.62,1421.76 139.94,1456.95 180,1478 C199.98,1488.5 216.8719,1495.1866 238.7319,1501.8666 " fill="none" id="Patient-to-Register for the Healthcare Application" style="stroke:#181818;stroke-width:1.0;"/><polygon fill="#181818" points="244.47,1503.62,237.0319,1497.1645,239.6883,1502.1588,234.6939,1504.8152,244.47,1503.62" style="stroke:#181818;stroke-width:1.0;"/><text fill="#000000" font-family="sans-serif" font-size="13" lengthAdjust="spacing" textLength="29" x="138.5" y="1445.4951">5.1.3</text></g><!--link Patient to Login using IAM Credentials--><g id="link_Patient_Login using IAM Credentials"><path d="M77.42,1381.43 C116.26,1389.47 194.1945,1405.6139 256.9545,1418.6039 " fill="none" id="Patient-to-Login using IAM Credentials" style="stroke:#181818;stroke-width:1.0;"/><polygon fill="#181818" points="262.83,1419.82,254.8275,1414.0789,257.9338,1418.8066,253.2061,1421.9128,262.83,1419.82" style="stroke:#181818;stroke-width:1.0;"/><text fill="#000000" font-family="sans-serif" font-size="13" lengthAdjust="spacing" textLength="29" x="138.5" y="1390.4951">5.1.7</text></g><!--SRC=[XPJTJi8m5CVlznGdkz8BK404l32POgA9H0Fo04rtjZLkwsmBXXZVtHRAlZTtiwqzlvxpFn-DCL2WE0WMHWfy9f0gnbF78LHn0PwViDH-km-4Vl8WO1HXAr6uG2GKQsR9MhuJnJ1Lzc_9pSjnpD4a3MC4znb9h29A1CAAf2J4H9l3vY0L9YxyEA2VesiO3ExXOeqXqri2QX78IxW3TpeS3KTkdNaKI1IUGu5tmGCMOmxC6y2JprId-Q9XliGOUyuVNJU8LwtXQeD4qAYEbOHqAjae4WHDF-Ds8HtManOTkafit-FXfbT91Ihfc3QeKwNXBKD1J8_1no4h4UF-Z7LYMjAHExNPkM6-TYWLaBJWYj1ktGQmpNoJWSA9EO59LWLdRekdXE__1UTDi5rRYIxbSc4bdhkc7BAPWqRDRCagzhPXFKhvBbMvgQxJRsKsNxnLRHAhCsx3vw6kahuuL8JMF3_IvhSDMwD4CsLIVdFX5qLi4vXFVQ1pPjoKRWqlos96gtMTj8W-XRcJB0t12DEpvEjDHk8YlJEJWJy0]--></g></svg>