<?xml version="1.0" encoding="us-ascii" standalone="no"?><svg xmlns="http://www.w3.org/2000/svg" xmlns:xlink="http://www.w3.org/1999/xlink" contentStyleType="text/css" height="514px" preserveAspectRatio="none" style="width:633px;height:514px;background:#FFFFFF;" version="1.1" viewBox="0 0 633 514" width="633px" zoomAndPan="magnify"><defs/><g><text fill="#000000" font-family="sans-serif" font-size="14" font-weight="bold" lengthAdjust="spacing" textLength="285" x="175.25" y="29.5332">System Sequence Diagram (SSD) - UC001</text><rect fill="#FFFFFF" height="283.1641" style="stroke:#181818;stroke-width:1.0;" width="10" x="22.5" y="131.2188"/><rect fill="#FFFFFF" height="33.3516" style="stroke:#181818;stroke-width:1.0;" width="10" x="349.5" y="153.5703"/><rect fill="#FFFFFF" height="46.7031" style="stroke:#181818;stroke-width:1.0;" width="10" x="349.5" y="220.2734"/><rect fill="#FFFFFF" height="117.0547" style="stroke:#181818;stroke-width:1.0;" width="10" x="349.5" y="297.3281"/><line style="stroke:#181818;stroke-width:0.5;stroke-dasharray:5.0,5.0;" x1="27" x2="27" y1="121.2188" y2="432.3828"/><line style="stroke:#181818;stroke-width:0.5;stroke-dasharray:5.0,5.0;" x1="354.5" x2="354.5" y1="121.2188" y2="432.3828"/><text fill="#000000" font-family="sans-serif" font-size="14" lengthAdjust="spacing" textLength="39" x="5" y="118.1426">Admin</text><ellipse cx="27.5" cy="52.1094" fill="#E2E2F0" rx="8" ry="8" style="stroke:#181818;stroke-width:0.5;"/><path d="M27.5,60.1094 L27.5,87.1094 M14.5,68.1094 L40.5,68.1094 M27.5,87.1094 L14.5,102.1094 M27.5,87.1094 L40.5,102.1094 " fill="none" style="stroke:#181818;stroke-width:0.5;"/><text fill="#000000" font-family="sans-serif" font-size="14" lengthAdjust="spacing" textLength="39" x="5" y="445.916">Admin</text><ellipse cx="27.5" cy="457.4922" fill="#E2E2F0" rx="8" ry="8" style="stroke:#181818;stroke-width:0.5;"/><path d="M27.5,465.4922 L27.5,492.4922 M14.5,473.4922 L40.5,473.4922 M27.5,492.4922 L14.5,507.4922 M27.5,492.4922 L40.5,507.4922 " fill="none" style="stroke:#181818;stroke-width:0.5;"/><rect fill="#E2E2F0" height="31.6094" rx="2.5" ry="2.5" style="stroke:#181818;stroke-width:0.5;" width="64" x="322.5" y="88.6094"/><text fill="#000000" font-family="sans-serif" font-size="14" lengthAdjust="spacing" textLength="50" x="329.5" y="110.1426">:System</text><rect fill="#E2E2F0" height="31.6094" rx="2.5" ry="2.5" style="stroke:#181818;stroke-width:0.5;" width="64" x="322.5" y="431.3828"/><text fill="#000000" font-family="sans-serif" font-size="14" lengthAdjust="spacing" textLength="50" x="329.5" y="452.916">:System</text><rect fill="#FFFFFF" height="283.1641" style="stroke:#181818;stroke-width:1.0;" width="10" x="22.5" y="131.2188"/><rect fill="#FFFFFF" height="33.3516" style="stroke:#181818;stroke-width:1.0;" width="10" x="349.5" y="153.5703"/><rect fill="#FFFFFF" height="46.7031" style="stroke:#181818;stroke-width:1.0;" width="10" x="349.5" y="220.2734"/><rect fill="#FFFFFF" height="117.0547" style="stroke:#181818;stroke-width:1.0;" width="10" x="349.5" y="297.3281"/><polygon fill="#181818" points="337.5,149.5703,347.5,153.5703,337.5,157.5703,341.5,153.5703" style="stroke:#181818;stroke-width:1.0;"/><line style="stroke:#181818;stroke-width:1.0;" x1="32.5" x2="343.5" y1="153.5703" y2="153.5703"/><text fill="#000000" font-family="sans-serif" font-size="13" lengthAdjust="spacing" textLength="143" x="39.5" y="148.7139">Register Backoffice User</text><polygon fill="#181818" points="43.5,182.9219,33.5,186.9219,43.5,190.9219,39.5,186.9219" style="stroke:#181818;stroke-width:1.0;"/><line style="stroke:#181818;stroke-width:1.0;stroke-dasharray:2.0,2.0;" x1="37.5" x2="353.5" y1="186.9219" y2="186.9219"/><text fill="#000000" font-family="sans-serif" font-size="13" lengthAdjust="spacing" textLength="202" x="49.5" y="182.0654">Ask for new user's username/email</text><path d="M364,166.5703 L364,192.5703 L626,192.5703 L626,176.5703 L616,166.5703 L364,166.5703 " fill="#FEFFDD" style="stroke:#181818;stroke-width:0.5;"/><path d="M616,166.5703 L616,176.5703 L626,176.5703 L616,166.5703 " fill="#FEFFDD" style="stroke:#181818;stroke-width:0.5;"/><text fill="#000000" font-family="sans-serif" font-size="13" lengthAdjust="spacing" textLength="241" x="370" y="185.0654">The username is the user's email address</text><polygon fill="#181818" points="337.5,216.2734,347.5,220.2734,337.5,224.2734,341.5,220.2734" style="stroke:#181818;stroke-width:1.0;"/><line style="stroke:#181818;stroke-width:1.0;" x1="32.5" x2="343.5" y1="220.2734" y2="220.2734"/><text fill="#000000" font-family="sans-serif" font-size="13" lengthAdjust="spacing" textLength="203" x="39.5" y="215.417">Provide new user's username/email</text><polygon fill="#181818" points="43.5,262.9766,33.5,266.9766,43.5,270.9766,39.5,266.9766" style="stroke:#181818;stroke-width:1.0;"/><line style="stroke:#181818;stroke-width:1.0;stroke-dasharray:2.0,2.0;" x1="37.5" x2="353.5" y1="266.9766" y2="266.9766"/><text fill="#000000" font-family="sans-serif" font-size="13" lengthAdjust="spacing" textLength="264" x="49.5" y="245.7686">Ask for new user's role, giving a set of options</text><text fill="#000000" font-family="sans-serif" font-size="13" lengthAdjust="spacing" textLength="293" x="49.5" y="262.1201">to choose from (Admin, Doctor, Nurse, Technician)</text><polygon fill="#181818" points="337.5,293.3281,347.5,297.3281,337.5,301.3281,341.5,297.3281" style="stroke:#181818;stroke-width:1.0;"/><line style="stroke:#181818;stroke-width:1.0;" x1="32.5" x2="343.5" y1="297.3281" y2="297.3281"/><text fill="#000000" font-family="sans-serif" font-size="13" lengthAdjust="spacing" textLength="127" x="39.5" y="292.4717">Select new user's role</text><line style="stroke:#181818;stroke-width:1.0;" x1="359.5" x2="401.5" y1="327.6797" y2="327.6797"/><line style="stroke:#181818;stroke-width:1.0;" x1="401.5" x2="401.5" y1="327.6797" y2="340.6797"/><line style="stroke:#181818;stroke-width:1.0;" x1="360.5" x2="401.5" y1="340.6797" y2="340.6797"/><polygon fill="#181818" points="370.5,336.6797,360.5,340.6797,370.5,344.6797,366.5,340.6797" style="stroke:#181818;stroke-width:1.0;"/><text fill="#000000" font-family="sans-serif" font-size="13" lengthAdjust="spacing" textLength="169" x="366.5" y="322.8232">Verify staff's profile is created</text><line style="stroke:#181818;stroke-width:1.0;" x1="359.5" x2="401.5" y1="371.0313" y2="371.0313"/><line style="stroke:#181818;stroke-width:1.0;" x1="401.5" x2="401.5" y1="371.0313" y2="384.0313"/><line style="stroke:#181818;stroke-width:1.0;" x1="360.5" x2="401.5" y1="384.0313" y2="384.0313"/><polygon fill="#181818" points="370.5,380.0313,360.5,384.0313,370.5,388.0313,366.5,384.0313" style="stroke:#181818;stroke-width:1.0;"/><text fill="#000000" font-family="sans-serif" font-size="13" lengthAdjust="spacing" textLength="202" x="366.5" y="366.1748">Link staff's profile to user's account</text><polygon fill="#181818" points="38.5,410.3828,28.5,414.3828,38.5,418.3828,34.5,414.3828" style="stroke:#181818;stroke-width:1.0;"/><line style="stroke:#181818;stroke-width:1.0;stroke-dasharray:2.0,2.0;" x1="32.5" x2="353.5" y1="414.3828" y2="414.3828"/><text fill="#000000" font-family="sans-serif" font-size="13" lengthAdjust="spacing" textLength="164" x="44.5" y="409.5264">User registered successfully</text><!--SRC=[bLF1Rjim3BtxAuXUkW89rbrp6D0jns4OvcQdNWY9SeZOeaV9AVBtespFA98cG7MmAOdlwJrIofnRWlgKCdLGqz-1eYFOCZQA7Nogw-q3h67t_V7nIuKkYyAJxpW2fX9KFMfcnpt637URYUQkR4vXLJ1yn4nZTWKsB83rrpbX0x-fOOiKlg4xI0Xin-yIwPIym6U-iZP-ofXLhutDI3Vmb0uGJ66aLnYCuZwDluWTVQOEkLsGKOnIkTdd3JplQKa3Jf3dkQ574A3tIYbDWZoTIthFr2-L8tkweUHTTnznfjBI2Xe-Scm08L462I1zPedf9MO1jnT914756ZbsRGLRAJrSmSz1ay6VoUsZzG_ZmqVirTIIo-TghdYwFpVrbYVwaG6SnC3QOL4_bzqkcQYtlMBScjA1UIesBMQ57bDwjOINY4Qod3fjedConBpKyrB4_yhkhfoUoE3LTUb_I3cS86KCmVptAe7RyVuu9HFYRu5_S3nSGCtTNCmBzJV5w_o0o4CQdBER6eQsFLtjvvkbyYR_0G00]--></g></svg>