<?xml version="1.0" encoding="us-ascii" standalone="no"?><svg xmlns="http://www.w3.org/2000/svg" xmlns:xlink="http://www.w3.org/1999/xlink" contentStyleType="text/css" height="542px" preserveAspectRatio="none" style="width:764px;height:542px;background:#FFFFFF;" version="1.1" viewBox="0 0 764 542" width="764px" zoomAndPan="magnify"><defs/><g><text fill="#000000" font-family="sans-serif" font-size="14" font-weight="bold" lengthAdjust="spacing" textLength="285" x="241.75" y="29.5332">System Sequence Diagram (SSD) - UC001</text><rect fill="#FFFFFF" height="310.8672" style="stroke:#181818;stroke-width:1.0;" width="10" x="22.5" y="131.2188"/><rect fill="#FFFFFF" height="30.3516" style="stroke:#181818;stroke-width:1.0;" width="10" x="349.5" y="153.5703"/><rect fill="#FFFFFF" height="30.3516" style="stroke:#181818;stroke-width:1.0;" width="10" x="349.5" y="214.2734"/><rect fill="#FFFFFF" height="46.7031" style="stroke:#181818;stroke-width:1.0;" width="10" x="349.5" y="274.9766"/><rect fill="#FFFFFF" height="90.0547" style="stroke:#181818;stroke-width:1.0;" width="10" x="349.5" y="352.0313"/><line style="stroke:#181818;stroke-width:0.5;stroke-dasharray:5.0,5.0;" x1="27" x2="27" y1="121.2188" y2="460.0859"/><line style="stroke:#181818;stroke-width:0.5;stroke-dasharray:5.0,5.0;" x1="354" x2="354" y1="121.2188" y2="460.0859"/><text fill="#000000" font-family="sans-serif" font-size="14" lengthAdjust="spacing" textLength="39" x="5" y="118.1426">Admin</text><ellipse cx="27.5" cy="52.1094" fill="#E2E2F0" rx="8" ry="8" style="stroke:#181818;stroke-width:0.5;"/><path d="M27.5,60.1094 L27.5,87.1094 M14.5,68.1094 L40.5,68.1094 M27.5,87.1094 L14.5,102.1094 M27.5,87.1094 L40.5,102.1094 " fill="none" style="stroke:#181818;stroke-width:0.5;"/><text fill="#000000" font-family="sans-serif" font-size="14" lengthAdjust="spacing" textLength="39" x="5" y="473.6191">Admin</text><ellipse cx="27.5" cy="485.1953" fill="#E2E2F0" rx="8" ry="8" style="stroke:#181818;stroke-width:0.5;"/><path d="M27.5,493.1953 L27.5,520.1953 M14.5,501.1953 L40.5,501.1953 M27.5,520.1953 L14.5,535.1953 M27.5,520.1953 L40.5,535.1953 " fill="none" style="stroke:#181818;stroke-width:0.5;"/><rect fill="#E2E2F0" height="31.6094" rx="2.5" ry="2.5" style="stroke:#181818;stroke-width:0.5;" width="41" x="334" y="88.6094"/><text fill="#000000" font-family="sans-serif" font-size="14" lengthAdjust="spacing" textLength="27" x="341" y="110.1426">:IAM</text><rect fill="#E2E2F0" height="31.6094" rx="2.5" ry="2.5" style="stroke:#181818;stroke-width:0.5;" width="41" x="334" y="459.0859"/><text fill="#000000" font-family="sans-serif" font-size="14" lengthAdjust="spacing" textLength="27" x="341" y="480.6191">:IAM</text><rect fill="#FFFFFF" height="310.8672" style="stroke:#181818;stroke-width:1.0;" width="10" x="22.5" y="131.2188"/><rect fill="#FFFFFF" height="30.3516" style="stroke:#181818;stroke-width:1.0;" width="10" x="349.5" y="153.5703"/><rect fill="#FFFFFF" height="30.3516" style="stroke:#181818;stroke-width:1.0;" width="10" x="349.5" y="214.2734"/><rect fill="#FFFFFF" height="46.7031" style="stroke:#181818;stroke-width:1.0;" width="10" x="349.5" y="274.9766"/><rect fill="#FFFFFF" height="90.0547" style="stroke:#181818;stroke-width:1.0;" width="10" x="349.5" y="352.0313"/><polygon fill="#181818" points="337.5,149.5703,347.5,153.5703,337.5,157.5703,341.5,153.5703" style="stroke:#181818;stroke-width:1.0;"/><line style="stroke:#181818;stroke-width:1.0;" x1="32.5" x2="343.5" y1="153.5703" y2="153.5703"/><text fill="#000000" font-family="sans-serif" font-size="13" lengthAdjust="spacing" textLength="143" x="39.5" y="148.7139">Register Backoffice User</text><polygon fill="#181818" points="43.5,179.9219,33.5,183.9219,43.5,187.9219,39.5,183.9219" style="stroke:#181818;stroke-width:1.0;"/><line style="stroke:#181818;stroke-width:1.0;stroke-dasharray:2.0,2.0;" x1="37.5" x2="353.5" y1="183.9219" y2="183.9219"/><text fill="#000000" font-family="sans-serif" font-size="13" lengthAdjust="spacing" textLength="167" x="49.5" y="179.0654">Ask for new user's username</text><polygon fill="#181818" points="337.5,210.2734,347.5,214.2734,337.5,218.2734,341.5,214.2734" style="stroke:#181818;stroke-width:1.0;"/><line style="stroke:#181818;stroke-width:1.0;" x1="32.5" x2="343.5" y1="214.2734" y2="214.2734"/><text fill="#000000" font-family="sans-serif" font-size="13" lengthAdjust="spacing" textLength="168" x="39.5" y="209.417">Provide new user's username</text><polygon fill="#181818" points="43.5,240.625,33.5,244.625,43.5,248.625,39.5,244.625" style="stroke:#181818;stroke-width:1.0;"/><line style="stroke:#181818;stroke-width:1.0;stroke-dasharray:2.0,2.0;" x1="37.5" x2="353.5" y1="244.625" y2="244.625"/><text fill="#000000" font-family="sans-serif" font-size="13" lengthAdjust="spacing" textLength="141" x="49.5" y="239.7686">Ask for new user's email</text><polygon fill="#181818" points="337.5,270.9766,347.5,274.9766,337.5,278.9766,341.5,274.9766" style="stroke:#181818;stroke-width:1.0;"/><line style="stroke:#181818;stroke-width:1.0;" x1="32.5" x2="343.5" y1="274.9766" y2="274.9766"/><text fill="#000000" font-family="sans-serif" font-size="13" lengthAdjust="spacing" textLength="142" x="39.5" y="270.1201">Provide new user's email</text><polygon fill="#181818" points="43.5,317.6797,33.5,321.6797,43.5,325.6797,39.5,321.6797" style="stroke:#181818;stroke-width:1.0;"/><line style="stroke:#181818;stroke-width:1.0;stroke-dasharray:2.0,2.0;" x1="37.5" x2="353.5" y1="321.6797" y2="321.6797"/><text fill="#000000" font-family="sans-serif" font-size="13" lengthAdjust="spacing" textLength="264" x="49.5" y="300.4717">Ask for new user's role, giving a set of options</text><text fill="#000000" font-family="sans-serif" font-size="13" lengthAdjust="spacing" textLength="293" x="49.5" y="316.8232">to choose from (Admin, Doctor, Nurse, Technician)</text><polygon fill="#181818" points="337.5,348.0313,347.5,352.0313,337.5,356.0313,341.5,352.0313" style="stroke:#181818;stroke-width:1.0;"/><line style="stroke:#181818;stroke-width:1.0;" x1="32.5" x2="343.5" y1="352.0313" y2="352.0313"/><text fill="#000000" font-family="sans-serif" font-size="13" lengthAdjust="spacing" textLength="127" x="39.5" y="347.1748">Select new user's role</text><line style="stroke:#181818;stroke-width:1.0;" x1="359.5" x2="401.5" y1="398.7344" y2="398.7344"/><line style="stroke:#181818;stroke-width:1.0;" x1="401.5" x2="401.5" y1="398.7344" y2="411.7344"/><line style="stroke:#181818;stroke-width:1.0;" x1="360.5" x2="401.5" y1="411.7344" y2="411.7344"/><polygon fill="#181818" points="370.5,407.7344,360.5,411.7344,370.5,415.7344,366.5,411.7344" style="stroke:#181818;stroke-width:1.0;"/><text fill="#000000" font-family="sans-serif" font-size="13" lengthAdjust="spacing" textLength="391" x="366.5" y="377.5264">Send user confirmation email in order for them to set their password</text><text fill="#000000" font-family="sans-serif" font-size="13" lengthAdjust="spacing" textLength="148" x="366.5" y="393.8779">and activate their account</text><polygon fill="#181818" points="38.5,438.0859,28.5,442.0859,38.5,446.0859,34.5,442.0859" style="stroke:#181818;stroke-width:1.0;"/><line style="stroke:#181818;stroke-width:1.0;stroke-dasharray:2.0,2.0;" x1="32.5" x2="353.5" y1="442.0859" y2="442.0859"/><text fill="#000000" font-family="sans-serif" font-size="13" lengthAdjust="spacing" textLength="165" x="44.5" y="437.2295">User confirmation email sent</text><!--SRC=[dLB1JiCm3BttAwnTOD8cZUiEI8DTE80GPRTThDJjhBLsIT9D_3rEXmfiJA3ba3YndvzVxCYn9iZVGwG6SdhhI1p1ah7osC1rdY_7C8NL_Mnsaw6Bwc5HD2o08HbPYpwounObmcZ-i7WS9O-TMOhc7KRgupAmPGPCRvDt3YzKiN5wk4EtrR9aOrq5ydtW04s9qaE_fMKFCBKSbceEYx25qYeIsaDdsAlG7u8DzO22VYGwgU7PwuuBEei_HV-d16gGwqlvly2NaNkjQG8LxrWgG0WKGKlGDh9AM4jKS1lLG51wjVRslPp0KbDd9_3K-M3mLt8RiQwYZF-b8wUQN3mkuoyL0rYA7WPEfMJVOAhry15WWwQ-C5-I6JSsegOWYJARFRGOmju2reAMPE0wED4vxIGEfB__uUeCSw1Fw97uRzSqrny0]--></g></svg>