<?xml version="1.0" encoding="us-ascii" standalone="no"?><svg xmlns="http://www.w3.org/2000/svg" xmlns:xlink="http://www.w3.org/1999/xlink" contentStyleType="text/css" height="1011px" preserveAspectRatio="none" style="width:1462px;height:1011px;background:#FFFFFF;" version="1.1" viewBox="0 0 1462 1011" width="1462px" zoomAndPan="magnify"><defs/><g><text fill="#000000" font-family="sans-serif" font-size="14" font-weight="bold" lengthAdjust="spacing" textLength="190" x="629" y="24.5332">Class Diagram (CD) - UC022</text><!--class OperationTypeController--><g id="elem_OperationTypeController"><rect codeLine="12" fill="#F1F1F1" height="83.2188" id="OperationTypeController" rx="2.5" ry="2.5" style="stroke:#181818;stroke-width:0.5;" width="430" x="33" y="45.6094"/><ellipse cx="165.25" cy="61.6094" fill="#ADD1B2" rx="11" ry="11" style="stroke:#181818;stroke-width:1.0;"/><path d="M168.0156,57.4844 Q168.1719,57.2656 168.3594,57.1563 Q168.5469,57.0469 168.7656,57.0469 Q169.1406,57.0469 169.375,57.3125 Q169.6094,57.5625 169.6094,58.1719 L169.6094,59.625 Q169.6094,60.2344 169.375,60.5 Q169.1406,60.7656 168.7656,60.7656 Q168.4219,60.7656 168.2188,60.5625 Q168.0156,60.375 167.9063,59.8594 Q167.8594,59.5 167.6719,59.3125 Q167.3438,58.9375 166.7344,58.7188 Q166.125,58.5 165.5,58.5 Q164.7344,58.5 164.0938,58.8281 Q163.4688,59.1563 162.9688,59.9063 Q162.4844,60.6563 162.4844,61.6875 L162.4844,62.7813 Q162.4844,64.0156 163.375,64.8438 Q164.2656,65.6563 165.8594,65.6563 Q166.7969,65.6563 167.4531,65.4063 Q167.8438,65.25 168.2656,64.8125 Q168.5313,64.5469 168.6719,64.4688 Q168.8281,64.3906 169.0313,64.3906 Q169.3594,64.3906 169.6094,64.6563 Q169.875,64.9063 169.875,65.25 Q169.875,65.5938 169.5313,66 Q169.0313,66.5781 168.2344,66.9063 Q167.1563,67.3594 165.8594,67.3594 Q164.3438,67.3594 163.1406,66.7344 Q162.1563,66.2344 161.4688,65.1719 Q160.7813,64.0938 160.7813,62.8125 L160.7813,61.6563 Q160.7813,60.3281 161.3906,59.1875 Q162.0156,58.0313 163.1094,57.4219 Q164.2031,56.7969 165.4375,56.7969 Q166.1719,56.7969 166.8125,56.9688 Q167.4688,57.125 168.0156,57.4844 Z " fill="#000000"/><text fill="#000000" font-family="sans-serif" font-size="14" lengthAdjust="spacing" textLength="157" x="185.75" y="67.3379">OperationTypeController</text><line style="stroke:#181818;stroke-width:0.5;" x1="34" x2="462" y1="77.6094" y2="77.6094"/><line style="stroke:#181818;stroke-width:0.5;" x1="34" x2="462" y1="85.6094" y2="85.6094"/><text fill="#000000" font-family="sans-serif" font-size="14" lengthAdjust="spacing" textLength="418" x="39" y="104.1426">+GetAll(): Task&lt;ActionResult&lt;IEnumerable&lt;OperationTypeDto&gt;&gt;&gt;</text><text fill="#000000" font-family="sans-serif" font-size="14" lengthAdjust="spacing" textLength="400" x="39" y="121.752">+SoftDelete(id: Guid): Task&lt;ActionResult&lt;OperationTypeDto&gt;&gt;</text></g><!--class OperationTypeService--><g id="elem_OperationTypeService"><rect codeLine="17" fill="#F1F1F1" height="83.2188" id="OperationTypeService" rx="2.5" ry="2.5" style="stroke:#181818;stroke-width:0.5;" width="425" x="168.5" y="197.6094"/><ellipse cx="305.75" cy="213.6094" fill="#ADD1B2" rx="11" ry="11" style="stroke:#181818;stroke-width:1.0;"/><path d="M308.5156,209.4844 Q308.6719,209.2656 308.8594,209.1563 Q309.0469,209.0469 309.2656,209.0469 Q309.6406,209.0469 309.875,209.3125 Q310.1094,209.5625 310.1094,210.1719 L310.1094,211.625 Q310.1094,212.2344 309.875,212.5 Q309.6406,212.7656 309.2656,212.7656 Q308.9219,212.7656 308.7188,212.5625 Q308.5156,212.375 308.4063,211.8594 Q308.3594,211.5 308.1719,211.3125 Q307.8438,210.9375 307.2344,210.7188 Q306.625,210.5 306,210.5 Q305.2344,210.5 304.5938,210.8281 Q303.9688,211.1563 303.4688,211.9063 Q302.9844,212.6563 302.9844,213.6875 L302.9844,214.7813 Q302.9844,216.0156 303.875,216.8438 Q304.7656,217.6563 306.3594,217.6563 Q307.2969,217.6563 307.9531,217.4063 Q308.3438,217.25 308.7656,216.8125 Q309.0313,216.5469 309.1719,216.4688 Q309.3281,216.3906 309.5313,216.3906 Q309.8594,216.3906 310.1094,216.6563 Q310.375,216.9063 310.375,217.25 Q310.375,217.5938 310.0313,218 Q309.5313,218.5781 308.7344,218.9063 Q307.6563,219.3594 306.3594,219.3594 Q304.8438,219.3594 303.6406,218.7344 Q302.6563,218.2344 301.9688,217.1719 Q301.2813,216.0938 301.2813,214.8125 L301.2813,213.6563 Q301.2813,212.3281 301.8906,211.1875 Q302.5156,210.0313 303.6094,209.4219 Q304.7031,208.7969 305.9375,208.7969 Q306.6719,208.7969 307.3125,208.9688 Q307.9688,209.125 308.5156,209.4844 Z " fill="#000000"/><text fill="#000000" font-family="sans-serif" font-size="14" lengthAdjust="spacing" textLength="142" x="326.25" y="219.3379">OperationTypeService</text><line style="stroke:#181818;stroke-width:0.5;" x1="169.5" x2="592.5" y1="229.6094" y2="229.6094"/><line style="stroke:#181818;stroke-width:0.5;" x1="169.5" x2="592.5" y1="237.6094" y2="237.6094"/><text fill="#000000" font-family="sans-serif" font-size="14" lengthAdjust="spacing" textLength="304" x="174.5" y="256.1426">+GetAllAsync(): Task&lt;List&lt;OperationTypeDto&gt;&gt;</text><text fill="#000000" font-family="sans-serif" font-size="14" lengthAdjust="spacing" textLength="413" x="174.5" y="273.752">+InactivateAsync(id: OperationTypeId): Task&lt;OperationTypeDto&gt;</text></g><!--class OperationTypeRepository--><g id="elem_OperationTypeRepository"><rect codeLine="22" fill="#F1F1F1" height="100.8281" id="OperationTypeRepository" rx="2.5" ry="2.5" style="stroke:#181818;stroke-width:0.5;" width="403" x="628.5" y="188.6094"/><ellipse cx="744.25" cy="204.6094" fill="#ADD1B2" rx="11" ry="11" style="stroke:#181818;stroke-width:1.0;"/><path d="M747.0156,200.4844 Q747.1719,200.2656 747.3594,200.1563 Q747.5469,200.0469 747.7656,200.0469 Q748.1406,200.0469 748.375,200.3125 Q748.6094,200.5625 748.6094,201.1719 L748.6094,202.625 Q748.6094,203.2344 748.375,203.5 Q748.1406,203.7656 747.7656,203.7656 Q747.4219,203.7656 747.2188,203.5625 Q747.0156,203.375 746.9063,202.8594 Q746.8594,202.5 746.6719,202.3125 Q746.3438,201.9375 745.7344,201.7188 Q745.125,201.5 744.5,201.5 Q743.7344,201.5 743.0938,201.8281 Q742.4688,202.1563 741.9688,202.9063 Q741.4844,203.6563 741.4844,204.6875 L741.4844,205.7813 Q741.4844,207.0156 742.375,207.8438 Q743.2656,208.6563 744.8594,208.6563 Q745.7969,208.6563 746.4531,208.4063 Q746.8438,208.25 747.2656,207.8125 Q747.5313,207.5469 747.6719,207.4688 Q747.8281,207.3906 748.0313,207.3906 Q748.3594,207.3906 748.6094,207.6563 Q748.875,207.9063 748.875,208.25 Q748.875,208.5938 748.5313,209 Q748.0313,209.5781 747.2344,209.9063 Q746.1563,210.3594 744.8594,210.3594 Q743.3438,210.3594 742.1406,209.7344 Q741.1563,209.2344 740.4688,208.1719 Q739.7813,207.0938 739.7813,205.8125 L739.7813,204.6563 Q739.7813,203.3281 740.3906,202.1875 Q741.0156,201.0313 742.1094,200.4219 Q743.2031,199.7969 744.4375,199.7969 Q745.1719,199.7969 745.8125,199.9688 Q746.4688,200.125 747.0156,200.4844 Z " fill="#000000"/><text fill="#000000" font-family="sans-serif" font-size="14" lengthAdjust="spacing" textLength="163" x="764.75" y="210.3379">OperationTypeRepository</text><line style="stroke:#181818;stroke-width:0.5;" x1="629.5" x2="1030.5" y1="220.6094" y2="220.6094"/><line style="stroke:#181818;stroke-width:0.5;" x1="629.5" x2="1030.5" y1="228.6094" y2="228.6094"/><text fill="#000000" font-family="sans-serif" font-size="14" lengthAdjust="spacing" textLength="381" x="634.5" y="247.1426">+GetByIdAsync(id: OperationTypeId): Task&lt;OperationType&gt;</text><text fill="#000000" font-family="sans-serif" font-size="14" lengthAdjust="spacing" textLength="282" x="634.5" y="264.752">+GetAllAsync(): Task&lt;List&lt;OperationType&gt;&gt;</text><text fill="#000000" font-family="sans-serif" font-size="14" lengthAdjust="spacing" textLength="391" x="634.5" y="282.3613">+InactivateAsync(id: OperationTypeId): Task&lt;OperationType&gt;</text></g><!--class IOperationTypeRepository--><g id="elem_IOperationTypeRepository"><rect codeLine="28" fill="#F1F1F1" height="100.8281" id="IOperationTypeRepository" rx="2.5" ry="2.5" style="stroke:#181818;stroke-width:0.5;" width="403" x="434.5" y="349.6094"/><ellipse cx="548.25" cy="365.6094" fill="#B4A7E5" rx="11" ry="11" style="stroke:#181818;stroke-width:1.0;"/><path d="M549.2031,362.25 L549.2031,368.9063 L550.9219,368.9063 Q551.5313,368.9063 551.7969,369.1406 Q552.0625,369.375 552.0625,369.7656 Q552.0625,370.1406 551.7969,370.375 Q551.5313,370.6094 550.9219,370.6094 L545.7813,370.6094 Q545.1719,370.6094 544.9063,370.375 Q544.6406,370.1406 544.6406,369.75 Q544.6406,369.375 544.9063,369.1406 Q545.1719,368.9063 545.7813,368.9063 L547.5,368.9063 L547.5,362.25 L545.7813,362.25 Q545.1719,362.25 544.9063,362.0156 Q544.6406,361.7813 544.6406,361.3906 Q544.6406,361.0156 544.9063,360.7813 Q545.1719,360.5469 545.7813,360.5469 L550.9219,360.5469 Q551.5313,360.5469 551.7969,360.7813 Q552.0625,361.0156 552.0625,361.3906 Q552.0625,361.7813 551.7969,362.0156 Q551.5313,362.25 550.9219,362.25 L549.2031,362.25 Z " fill="#000000"/><text fill="#000000" font-family="sans-serif" font-size="14" font-style="italic" lengthAdjust="spacing" textLength="167" x="568.75" y="371.3379">IOperationTypeRepository</text><line style="stroke:#181818;stroke-width:0.5;" x1="435.5" x2="836.5" y1="381.6094" y2="381.6094"/><line style="stroke:#181818;stroke-width:0.5;" x1="435.5" x2="836.5" y1="389.6094" y2="389.6094"/><text fill="#000000" font-family="sans-serif" font-size="14" lengthAdjust="spacing" textLength="381" x="440.5" y="408.1426">+GetByIdAsync(id: OperationTypeId): Task&lt;OperationType&gt;</text><text fill="#000000" font-family="sans-serif" font-size="14" lengthAdjust="spacing" textLength="282" x="440.5" y="425.752">+GetAllAsync(): Task&lt;List&lt;OperationType&gt;&gt;</text><text fill="#000000" font-family="sans-serif" font-size="14" lengthAdjust="spacing" textLength="391" x="440.5" y="443.3613">+InactivateAsync(id: OperationTypeId): Task&lt;OperationType&gt;</text></g><!--class OperationType--><g id="elem_OperationType"><rect codeLine="34" fill="#F1F1F1" height="241.7031" id="OperationType" rx="2.5" ry="2.5" style="stroke:#181818;stroke-width:0.5;" width="424" x="407" y="510.6094"/><ellipse cx="567.25" cy="526.6094" fill="#ADD1B2" rx="11" ry="11" style="stroke:#181818;stroke-width:1.0;"/><path d="M570.0156,522.4844 Q570.1719,522.2656 570.3594,522.1563 Q570.5469,522.0469 570.7656,522.0469 Q571.1406,522.0469 571.375,522.3125 Q571.6094,522.5625 571.6094,523.1719 L571.6094,524.625 Q571.6094,525.2344 571.375,525.5 Q571.1406,525.7656 570.7656,525.7656 Q570.4219,525.7656 570.2188,525.5625 Q570.0156,525.375 569.9063,524.8594 Q569.8594,524.5 569.6719,524.3125 Q569.3438,523.9375 568.7344,523.7188 Q568.125,523.5 567.5,523.5 Q566.7344,523.5 566.0938,523.8281 Q565.4688,524.1563 564.9688,524.9063 Q564.4844,525.6563 564.4844,526.6875 L564.4844,527.7813 Q564.4844,529.0156 565.375,529.8438 Q566.2656,530.6563 567.8594,530.6563 Q568.7969,530.6563 569.4531,530.4063 Q569.8438,530.25 570.2656,529.8125 Q570.5313,529.5469 570.6719,529.4688 Q570.8281,529.3906 571.0313,529.3906 Q571.3594,529.3906 571.6094,529.6563 Q571.875,529.9063 571.875,530.25 Q571.875,530.5938 571.5313,531 Q571.0313,531.5781 570.2344,531.9063 Q569.1563,532.3594 567.8594,532.3594 Q566.3438,532.3594 565.1406,531.7344 Q564.1563,531.2344 563.4688,530.1719 Q562.7813,529.0938 562.7813,527.8125 L562.7813,526.6563 Q562.7813,525.3281 563.3906,524.1875 Q564.0156,523.0313 565.1094,522.4219 Q566.2031,521.7969 567.4375,521.7969 Q568.1719,521.7969 568.8125,521.9688 Q569.4688,522.125 570.0156,522.4844 Z " fill="#000000"/><text fill="#000000" font-family="sans-serif" font-size="14" lengthAdjust="spacing" textLength="95" x="587.75" y="532.3379">OperationType</text><line style="stroke:#181818;stroke-width:0.5;" x1="408" x2="830" y1="542.6094" y2="542.6094"/><text fill="#000000" font-family="sans-serif" font-size="14" lengthAdjust="spacing" textLength="135" x="413" y="561.1426">+Id: OperationTypeID</text><text fill="#000000" font-family="sans-serif" font-size="14" lengthAdjust="spacing" textLength="88" x="413" y="578.752">+Name: Name</text><text fill="#000000" font-family="sans-serif" font-size="14" lengthAdjust="spacing" textLength="83" x="413" y="596.3613">+Status: bool</text><text fill="#000000" font-family="sans-serif" font-size="14" lengthAdjust="spacing" textLength="188" x="413" y="613.9707">+Specialization: Specialization</text><text fill="#000000" font-family="sans-serif" font-size="14" lengthAdjust="spacing" textLength="228" x="413" y="631.5801">+RequiredStaff: List&lt;RequiredStaff&gt;</text><text fill="#000000" font-family="sans-serif" font-size="14" lengthAdjust="spacing" textLength="218" x="413" y="649.1895">+PhasesDuration: PhasesDuration</text><line style="stroke:#181818;stroke-width:0.5;" x1="408" x2="830" y1="656.2656" y2="656.2656"/><text fill="#000000" font-family="sans-serif" font-size="14" lengthAdjust="spacing" textLength="217" x="413" y="674.7988">+ChangeName(name: Name): void</text><text fill="#000000" font-family="sans-serif" font-size="14" lengthAdjust="spacing" textLength="215" x="413" y="692.4082">+ChangeStatus(status: bool): void</text><text fill="#000000" font-family="sans-serif" font-size="14" lengthAdjust="spacing" textLength="366" x="413" y="710.0176">+ChangeSpecialization(specialization: Specialization): void</text><text fill="#000000" font-family="sans-serif" font-size="14" lengthAdjust="spacing" textLength="404" x="413" y="727.627">+ChangeRequiredStaff(requiredStaff: List&lt;RequiredStaff&gt;): void</text><text fill="#000000" font-family="sans-serif" font-size="14" lengthAdjust="spacing" textLength="412" x="413" y="745.2363">+ChangePhasesDuration(phasesDuration: PhasesDuration): void</text></g><!--class OperationTypeDto--><g id="elem_OperationTypeDto"><rect codeLine="48" fill="#F1F1F1" height="153.6563" id="OperationTypeDto" rx="2.5" ry="2.5" style="stroke:#181818;stroke-width:0.5;" width="240" x="92" y="554.6094"/><ellipse cx="149.25" cy="570.6094" fill="#ADD1B2" rx="11" ry="11" style="stroke:#181818;stroke-width:1.0;"/><path d="M152.0156,566.4844 Q152.1719,566.2656 152.3594,566.1563 Q152.5469,566.0469 152.7656,566.0469 Q153.1406,566.0469 153.375,566.3125 Q153.6094,566.5625 153.6094,567.1719 L153.6094,568.625 Q153.6094,569.2344 153.375,569.5 Q153.1406,569.7656 152.7656,569.7656 Q152.4219,569.7656 152.2188,569.5625 Q152.0156,569.375 151.9063,568.8594 Q151.8594,568.5 151.6719,568.3125 Q151.3438,567.9375 150.7344,567.7188 Q150.125,567.5 149.5,567.5 Q148.7344,567.5 148.0938,567.8281 Q147.4688,568.1563 146.9688,568.9063 Q146.4844,569.6563 146.4844,570.6875 L146.4844,571.7813 Q146.4844,573.0156 147.375,573.8438 Q148.2656,574.6563 149.8594,574.6563 Q150.7969,574.6563 151.4531,574.4063 Q151.8438,574.25 152.2656,573.8125 Q152.5313,573.5469 152.6719,573.4688 Q152.8281,573.3906 153.0313,573.3906 Q153.3594,573.3906 153.6094,573.6563 Q153.875,573.9063 153.875,574.25 Q153.875,574.5938 153.5313,575 Q153.0313,575.5781 152.2344,575.9063 Q151.1563,576.3594 149.8594,576.3594 Q148.3438,576.3594 147.1406,575.7344 Q146.1563,575.2344 145.4688,574.1719 Q144.7813,573.0938 144.7813,571.8125 L144.7813,570.6563 Q144.7813,569.3281 145.3906,568.1875 Q146.0156,567.0313 147.1094,566.4219 Q148.2031,565.7969 149.4375,565.7969 Q150.1719,565.7969 150.8125,565.9688 Q151.4688,566.125 152.0156,566.4844 Z " fill="#000000"/><text fill="#000000" font-family="sans-serif" font-size="14" lengthAdjust="spacing" textLength="117" x="169.75" y="576.3379">OperationTypeDto</text><line style="stroke:#181818;stroke-width:0.5;" x1="93" x2="331" y1="586.6094" y2="586.6094"/><text fill="#000000" font-family="sans-serif" font-size="14" lengthAdjust="spacing" textLength="135" x="98" y="605.1426">+Id: OperationTypeID</text><text fill="#000000" font-family="sans-serif" font-size="14" lengthAdjust="spacing" textLength="88" x="98" y="622.752">+Name: Name</text><text fill="#000000" font-family="sans-serif" font-size="14" lengthAdjust="spacing" textLength="83" x="98" y="640.3613">+Status: bool</text><text fill="#000000" font-family="sans-serif" font-size="14" lengthAdjust="spacing" textLength="188" x="98" y="657.9707">+Specialization: Specialization</text><text fill="#000000" font-family="sans-serif" font-size="14" lengthAdjust="spacing" textLength="228" x="98" y="675.5801">+RequiredStaff: List&lt;RequiredStaff&gt;</text><text fill="#000000" font-family="sans-serif" font-size="14" lengthAdjust="spacing" textLength="218" x="98" y="693.1895">+PhasesDuration: PhasesDuration</text><line style="stroke:#181818;stroke-width:0.5;" x1="93" x2="331" y1="700.2656" y2="700.2656"/></g><!--class RequiredStaff--><g id="elem_RequiredStaff"><rect codeLine="57" fill="#F1F1F1" height="65.6094" id="RequiredStaff" rx="2.5" ry="2.5" style="stroke:#181818;stroke-width:0.5;" width="258" x="256" y="812.6094"/><ellipse cx="337.25" cy="828.6094" fill="#ADD1B2" rx="11" ry="11" style="stroke:#181818;stroke-width:1.0;"/><path d="M340.0156,824.4844 Q340.1719,824.2656 340.3594,824.1563 Q340.5469,824.0469 340.7656,824.0469 Q341.1406,824.0469 341.375,824.3125 Q341.6094,824.5625 341.6094,825.1719 L341.6094,826.625 Q341.6094,827.2344 341.375,827.5 Q341.1406,827.7656 340.7656,827.7656 Q340.4219,827.7656 340.2188,827.5625 Q340.0156,827.375 339.9063,826.8594 Q339.8594,826.5 339.6719,826.3125 Q339.3438,825.9375 338.7344,825.7188 Q338.125,825.5 337.5,825.5 Q336.7344,825.5 336.0938,825.8281 Q335.4688,826.1563 334.9688,826.9063 Q334.4844,827.6563 334.4844,828.6875 L334.4844,829.7813 Q334.4844,831.0156 335.375,831.8438 Q336.2656,832.6563 337.8594,832.6563 Q338.7969,832.6563 339.4531,832.4063 Q339.8438,832.25 340.2656,831.8125 Q340.5313,831.5469 340.6719,831.4688 Q340.8281,831.3906 341.0313,831.3906 Q341.3594,831.3906 341.6094,831.6563 Q341.875,831.9063 341.875,832.25 Q341.875,832.5938 341.5313,833 Q341.0313,833.5781 340.2344,833.9063 Q339.1563,834.3594 337.8594,834.3594 Q336.3438,834.3594 335.1406,833.7344 Q334.1563,833.2344 333.4688,832.1719 Q332.7813,831.0938 332.7813,829.8125 L332.7813,828.6563 Q332.7813,827.3281 333.3906,826.1875 Q334.0156,825.0313 335.1094,824.4219 Q336.2031,823.7969 337.4375,823.7969 Q338.1719,823.7969 338.8125,823.9688 Q339.4688,824.125 340.0156,824.4844 Z " fill="#000000"/><text fill="#000000" font-family="sans-serif" font-size="14" lengthAdjust="spacing" textLength="87" x="357.75" y="834.3379">RequiredStaff</text><line style="stroke:#181818;stroke-width:0.5;" x1="257" x2="513" y1="844.6094" y2="844.6094"/><text fill="#000000" font-family="sans-serif" font-size="14" lengthAdjust="spacing" textLength="246" x="262" y="863.1426">-_staff: Dictionary&lt;Role, StaffQuantity&gt;</text><line style="stroke:#181818;stroke-width:0.5;" x1="257" x2="513" y1="870.2188" y2="870.2188"/></g><g id="elem_GMN9"><path d="M795,832.6094 L795,858.9609 L1139,858.9609 L1139,842.6094 L1129,832.6094 L795,832.6094 " fill="#FEFFDD" style="stroke:#181818;stroke-width:0.5;"/><path d="M1129,832.6094 L1129,842.6094 L1139,842.6094 L1129,832.6094 " fill="#FEFFDD" style="stroke:#181818;stroke-width:1.0;"/><text fill="#000000" font-family="sans-serif" font-size="13" lengthAdjust="spacing" textLength="323" x="801" y="851.1045">Role can only be a staff role: Doctor, Nurse or Assistant</text></g><!--class Quantity--><g id="elem_Quantity"><rect codeLine="64" fill="#F1F1F1" height="65.6094" id="Quantity" rx="2.5" ry="2.5" style="stroke:#181818;stroke-width:0.5;" width="96" x="585" y="938.6094"/><ellipse cx="604.95" cy="954.6094" fill="#ADD1B2" rx="11" ry="11" style="stroke:#181818;stroke-width:1.0;"/><path d="M607.7156,950.4844 Q607.8719,950.2656 608.0594,950.1563 Q608.2469,950.0469 608.4656,950.0469 Q608.8406,950.0469 609.075,950.3125 Q609.3094,950.5625 609.3094,951.1719 L609.3094,952.625 Q609.3094,953.2344 609.075,953.5 Q608.8406,953.7656 608.4656,953.7656 Q608.1219,953.7656 607.9188,953.5625 Q607.7156,953.375 607.6063,952.8594 Q607.5594,952.5 607.3719,952.3125 Q607.0438,951.9375 606.4344,951.7188 Q605.825,951.5 605.2,951.5 Q604.4344,951.5 603.7938,951.8281 Q603.1688,952.1563 602.6688,952.9063 Q602.1844,953.6563 602.1844,954.6875 L602.1844,955.7813 Q602.1844,957.0156 603.075,957.8438 Q603.9656,958.6563 605.5594,958.6563 Q606.4969,958.6563 607.1531,958.4063 Q607.5438,958.25 607.9656,957.8125 Q608.2313,957.5469 608.3719,957.4688 Q608.5281,957.3906 608.7313,957.3906 Q609.0594,957.3906 609.3094,957.6563 Q609.575,957.9063 609.575,958.25 Q609.575,958.5938 609.2313,959 Q608.7313,959.5781 607.9344,959.9063 Q606.8563,960.3594 605.5594,960.3594 Q604.0438,960.3594 602.8406,959.7344 Q601.8563,959.2344 601.1688,958.1719 Q600.4813,957.0938 600.4813,955.8125 L600.4813,954.6563 Q600.4813,953.3281 601.0906,952.1875 Q601.7156,951.0313 602.8094,950.4219 Q603.9031,949.7969 605.1375,949.7969 Q605.8719,949.7969 606.5125,949.9688 Q607.1688,950.125 607.7156,950.4844 Z " fill="#000000"/><text fill="#000000" font-family="sans-serif" font-size="14" lengthAdjust="spacing" textLength="53" x="620.05" y="960.3379">Quantity</text><line style="stroke:#181818;stroke-width:0.5;" x1="586" x2="680" y1="970.6094" y2="970.6094"/><text fill="#000000" font-family="sans-serif" font-size="14" lengthAdjust="spacing" textLength="84" x="591" y="989.1426">+Quantity: int</text><line style="stroke:#181818;stroke-width:0.5;" x1="586" x2="680" y1="996.2188" y2="996.2188"/></g><g id="elem_GMN13"><path d="M716.5,958.6094 L716.5,967.6094 L681.38,971.6094 L716.5,975.6094 L716.5,984.9609 A0,0 0 0 0 716.5,984.9609 L921.5,984.9609 A0,0 0 0 0 921.5,984.9609 L921.5,968.6094 L911.5,958.6094 L716.5,958.6094 A0,0 0 0 0 716.5,958.6094 " fill="#FEFFDD" style="stroke:#181818;stroke-width:0.5;"/><path d="M911.5,958.6094 L911.5,968.6094 L921.5,968.6094 L911.5,958.6094 " fill="#FEFFDD" style="stroke:#181818;stroke-width:0.5;"/><text fill="#000000" font-family="sans-serif" font-size="13" lengthAdjust="spacing" textLength="184" x="722.5" y="977.1045">Quantity must be greater than 0</text></g><!--class Specialization--><g id="elem_Specialization"><rect codeLine="71" fill="#F1F1F1" height="65.6094" id="Specialization" rx="2.5" ry="2.5" style="stroke:#181818;stroke-width:0.5;" width="178" x="7" y="938.6094"/><ellipse cx="49" cy="954.6094" fill="#ADD1B2" rx="11" ry="11" style="stroke:#181818;stroke-width:1.0;"/><path d="M51.7656,950.4844 Q51.9219,950.2656 52.1094,950.1563 Q52.2969,950.0469 52.5156,950.0469 Q52.8906,950.0469 53.125,950.3125 Q53.3594,950.5625 53.3594,951.1719 L53.3594,952.625 Q53.3594,953.2344 53.125,953.5 Q52.8906,953.7656 52.5156,953.7656 Q52.1719,953.7656 51.9688,953.5625 Q51.7656,953.375 51.6563,952.8594 Q51.6094,952.5 51.4219,952.3125 Q51.0938,951.9375 50.4844,951.7188 Q49.875,951.5 49.25,951.5 Q48.4844,951.5 47.8438,951.8281 Q47.2188,952.1563 46.7188,952.9063 Q46.2344,953.6563 46.2344,954.6875 L46.2344,955.7813 Q46.2344,957.0156 47.125,957.8438 Q48.0156,958.6563 49.6094,958.6563 Q50.5469,958.6563 51.2031,958.4063 Q51.5938,958.25 52.0156,957.8125 Q52.2813,957.5469 52.4219,957.4688 Q52.5781,957.3906 52.7813,957.3906 Q53.1094,957.3906 53.3594,957.6563 Q53.625,957.9063 53.625,958.25 Q53.625,958.5938 53.2813,959 Q52.7813,959.5781 51.9844,959.9063 Q50.9063,960.3594 49.6094,960.3594 Q48.0938,960.3594 46.8906,959.7344 Q45.9063,959.2344 45.2188,958.1719 Q44.5313,957.0938 44.5313,955.8125 L44.5313,954.6563 Q44.5313,953.3281 45.1406,952.1875 Q45.7656,951.0313 46.8594,950.4219 Q47.9531,949.7969 49.1875,949.7969 Q49.9219,949.7969 50.5625,949.9688 Q51.2188,950.125 51.7656,950.4844 Z " fill="#000000"/><text fill="#000000" font-family="sans-serif" font-size="14" lengthAdjust="spacing" textLength="86" x="69" y="960.3379">Specialization</text><line style="stroke:#181818;stroke-width:0.5;" x1="8" x2="184" y1="970.6094" y2="970.6094"/><text fill="#000000" font-family="sans-serif" font-size="14" lengthAdjust="spacing" textLength="166" x="13" y="989.1426">+Designation: Designation</text><line style="stroke:#181818;stroke-width:0.5;" x1="8" x2="184" y1="996.2188" y2="996.2188"/></g><!--class PhasesDuration--><g id="elem_PhasesDuration"><rect codeLine="75" fill="#F1F1F1" height="65.6094" id="PhasesDuration" rx="2.5" ry="2.5" style="stroke:#181818;stroke-width:0.5;" width="260" x="1174" y="812.6094"/><ellipse cx="1249.25" cy="828.6094" fill="#ADD1B2" rx="11" ry="11" style="stroke:#181818;stroke-width:1.0;"/><path d="M1252.0156,824.4844 Q1252.1719,824.2656 1252.3594,824.1563 Q1252.5469,824.0469 1252.7656,824.0469 Q1253.1406,824.0469 1253.375,824.3125 Q1253.6094,824.5625 1253.6094,825.1719 L1253.6094,826.625 Q1253.6094,827.2344 1253.375,827.5 Q1253.1406,827.7656 1252.7656,827.7656 Q1252.4219,827.7656 1252.2188,827.5625 Q1252.0156,827.375 1251.9063,826.8594 Q1251.8594,826.5 1251.6719,826.3125 Q1251.3438,825.9375 1250.7344,825.7188 Q1250.125,825.5 1249.5,825.5 Q1248.7344,825.5 1248.0938,825.8281 Q1247.4688,826.1563 1246.9688,826.9063 Q1246.4844,827.6563 1246.4844,828.6875 L1246.4844,829.7813 Q1246.4844,831.0156 1247.375,831.8438 Q1248.2656,832.6563 1249.8594,832.6563 Q1250.7969,832.6563 1251.4531,832.4063 Q1251.8438,832.25 1252.2656,831.8125 Q1252.5313,831.5469 1252.6719,831.4688 Q1252.8281,831.3906 1253.0313,831.3906 Q1253.3594,831.3906 1253.6094,831.6563 Q1253.875,831.9063 1253.875,832.25 Q1253.875,832.5938 1253.5313,833 Q1253.0313,833.5781 1252.2344,833.9063 Q1251.1563,834.3594 1249.8594,834.3594 Q1248.3438,834.3594 1247.1406,833.7344 Q1246.1563,833.2344 1245.4688,832.1719 Q1244.7813,831.0938 1244.7813,829.8125 L1244.7813,828.6563 Q1244.7813,827.3281 1245.3906,826.1875 Q1246.0156,825.0313 1247.1094,824.4219 Q1248.2031,823.7969 1249.4375,823.7969 Q1250.1719,823.7969 1250.8125,823.9688 Q1251.4688,824.125 1252.0156,824.4844 Z " fill="#000000"/><text fill="#000000" font-family="sans-serif" font-size="14" lengthAdjust="spacing" textLength="101" x="1269.75" y="834.3379">PhasesDuration</text><line style="stroke:#181818;stroke-width:0.5;" x1="1175" x2="1433" y1="844.6094" y2="844.6094"/><text fill="#000000" font-family="sans-serif" font-size="14" lengthAdjust="spacing" textLength="248" x="1180" y="863.1426">-_phases: Dictionary&lt;Phase, Duration&gt;</text><line style="stroke:#181818;stroke-width:0.5;" x1="1175" x2="1433" y1="870.2188" y2="870.2188"/></g><!--class Phase--><g id="elem_Phase"><rect codeLine="79" fill="#F1F1F1" height="65.6094" id="Phase" rx="2.5" ry="2.5" style="stroke:#181818;stroke-width:0.5;" width="260" x="1068" y="938.6094"/><ellipse cx="1173.75" cy="954.6094" fill="#EB937F" rx="11" ry="11" style="stroke:#181818;stroke-width:1.0;"/><path d="M1172.6094,955.4063 L1172.6094,957.9063 L1176.9375,957.9063 L1176.9375,956.9844 Q1176.9375,956.375 1177.1719,956.1094 Q1177.4219,955.8438 1177.7969,955.8438 Q1178.1719,955.8438 1178.4063,956.1094 Q1178.6406,956.375 1178.6406,956.9844 L1178.6406,959.6094 L1170.6406,959.6094 Q1170.0156,959.6094 1169.75,959.375 Q1169.5,959.1406 1169.5,958.75 Q1169.5,958.375 1169.7656,958.1406 Q1170.0313,957.9063 1170.6406,957.9063 L1170.9063,957.9063 L1170.9063,951.25 L1170.6406,951.25 Q1170.0156,951.25 1169.75,951.0156 Q1169.5,950.7813 1169.5,950.3906 Q1169.5,950.0156 1169.75,949.7813 Q1170.0156,949.5469 1170.6406,949.5469 L1178.2656,949.5469 L1178.2656,952.1406 Q1178.2656,952.75 1178.0313,953.0156 Q1177.8125,953.2656 1177.4219,953.2656 Q1177.0469,953.2656 1176.8125,953.0156 Q1176.5781,952.75 1176.5781,952.1406 L1176.5781,951.25 L1172.6094,951.25 L1172.6094,953.7031 L1174.0938,953.7031 Q1174.0938,953.0469 1174.2188,952.8594 Q1174.4844,952.4531 1174.9531,952.4531 Q1175.3281,952.4531 1175.5625,952.7188 Q1175.7969,952.9688 1175.7969,953.5781 L1175.7969,955.5469 Q1175.7969,956.0938 1175.6719,956.2813 Q1175.4063,956.6719 1174.9531,956.6719 Q1174.4844,956.6719 1174.2188,956.2656 Q1174.0938,956.0781 1174.0938,955.4063 L1172.6094,955.4063 Z " fill="#000000"/><text fill="#000000" font-family="sans-serif" font-size="14" lengthAdjust="spacing" textLength="40" x="1194.25" y="960.3379">Phase</text><line style="stroke:#181818;stroke-width:0.5;" x1="1069" x2="1327" y1="970.6094" y2="970.6094"/><text fill="#000000" font-family="sans-serif" font-size="14" lengthAdjust="spacing" textLength="248" x="1074" y="989.1426">PREPARATION, SURGERY, CLEANING</text><line style="stroke:#181818;stroke-width:0.5;" x1="1069" x2="1327" y1="996.2188" y2="996.2188"/></g><!--class Duration--><g id="elem_Duration"><rect codeLine="83" fill="#F1F1F1" height="65.6094" id="Duration" rx="2.5" ry="2.5" style="stroke:#181818;stroke-width:0.5;" width="92" x="1363" y="938.6094"/><ellipse cx="1380.7" cy="954.6094" fill="#ADD1B2" rx="11" ry="11" style="stroke:#181818;stroke-width:1.0;"/><path d="M1383.4656,950.4844 Q1383.6219,950.2656 1383.8094,950.1563 Q1383.9969,950.0469 1384.2156,950.0469 Q1384.5906,950.0469 1384.825,950.3125 Q1385.0594,950.5625 1385.0594,951.1719 L1385.0594,952.625 Q1385.0594,953.2344 1384.825,953.5 Q1384.5906,953.7656 1384.2156,953.7656 Q1383.8719,953.7656 1383.6688,953.5625 Q1383.4656,953.375 1383.3563,952.8594 Q1383.3094,952.5 1383.1219,952.3125 Q1382.7938,951.9375 1382.1844,951.7188 Q1381.575,951.5 1380.95,951.5 Q1380.1844,951.5 1379.5438,951.8281 Q1378.9188,952.1563 1378.4188,952.9063 Q1377.9344,953.6563 1377.9344,954.6875 L1377.9344,955.7813 Q1377.9344,957.0156 1378.825,957.8438 Q1379.7156,958.6563 1381.3094,958.6563 Q1382.2469,958.6563 1382.9031,958.4063 Q1383.2938,958.25 1383.7156,957.8125 Q1383.9813,957.5469 1384.1219,957.4688 Q1384.2781,957.3906 1384.4813,957.3906 Q1384.8094,957.3906 1385.0594,957.6563 Q1385.325,957.9063 1385.325,958.25 Q1385.325,958.5938 1384.9813,959 Q1384.4813,959.5781 1383.6844,959.9063 Q1382.6063,960.3594 1381.3094,960.3594 Q1379.7938,960.3594 1378.5906,959.7344 Q1377.6063,959.2344 1376.9188,958.1719 Q1376.2313,957.0938 1376.2313,955.8125 L1376.2313,954.6563 Q1376.2313,953.3281 1376.8406,952.1875 Q1377.4656,951.0313 1378.5594,950.4219 Q1379.6531,949.7969 1380.8875,949.7969 Q1381.6219,949.7969 1382.2625,949.9688 Q1382.9188,950.125 1383.4656,950.4844 Z " fill="#000000"/><text fill="#000000" font-family="sans-serif" font-size="14" lengthAdjust="spacing" textLength="54" x="1395.3" y="960.3379">Duration</text><line style="stroke:#181818;stroke-width:0.5;" x1="1364" x2="1454" y1="970.6094" y2="970.6094"/><text fill="#000000" font-family="sans-serif" font-size="14" lengthAdjust="spacing" textLength="80" x="1369" y="989.1426">+Minutes: int</text><line style="stroke:#181818;stroke-width:0.5;" x1="1364" x2="1454" y1="996.2188" y2="996.2188"/></g><!--class Name--><g id="elem_Name"><rect codeLine="87" fill="#F1F1F1" height="65.6094" id="Name" rx="2.5" ry="2.5" style="stroke:#181818;stroke-width:0.5;" width="99" x="121.5" y="812.6094"/><ellipse cx="150.45" cy="828.6094" fill="#ADD1B2" rx="11" ry="11" style="stroke:#181818;stroke-width:1.0;"/><path d="M153.2156,824.4844 Q153.3719,824.2656 153.5594,824.1563 Q153.7469,824.0469 153.9656,824.0469 Q154.3406,824.0469 154.575,824.3125 Q154.8094,824.5625 154.8094,825.1719 L154.8094,826.625 Q154.8094,827.2344 154.575,827.5 Q154.3406,827.7656 153.9656,827.7656 Q153.6219,827.7656 153.4188,827.5625 Q153.2156,827.375 153.1063,826.8594 Q153.0594,826.5 152.8719,826.3125 Q152.5438,825.9375 151.9344,825.7188 Q151.325,825.5 150.7,825.5 Q149.9344,825.5 149.2938,825.8281 Q148.6688,826.1563 148.1688,826.9063 Q147.6844,827.6563 147.6844,828.6875 L147.6844,829.7813 Q147.6844,831.0156 148.575,831.8438 Q149.4656,832.6563 151.0594,832.6563 Q151.9969,832.6563 152.6531,832.4063 Q153.0438,832.25 153.4656,831.8125 Q153.7313,831.5469 153.8719,831.4688 Q154.0281,831.3906 154.2313,831.3906 Q154.5594,831.3906 154.8094,831.6563 Q155.075,831.9063 155.075,832.25 Q155.075,832.5938 154.7313,833 Q154.2313,833.5781 153.4344,833.9063 Q152.3563,834.3594 151.0594,834.3594 Q149.5438,834.3594 148.3406,833.7344 Q147.3563,833.2344 146.6688,832.1719 Q145.9813,831.0938 145.9813,829.8125 L145.9813,828.6563 Q145.9813,827.3281 146.5906,826.1875 Q147.2156,825.0313 148.3094,824.4219 Q149.4031,823.7969 150.6375,823.7969 Q151.3719,823.7969 152.0125,823.9688 Q152.6688,824.125 153.2156,824.4844 Z " fill="#000000"/><text fill="#000000" font-family="sans-serif" font-size="14" lengthAdjust="spacing" textLength="36" x="167.55" y="834.3379">Name</text><line style="stroke:#181818;stroke-width:0.5;" x1="122.5" x2="219.5" y1="844.6094" y2="844.6094"/><text fill="#000000" font-family="sans-serif" font-size="14" lengthAdjust="spacing" textLength="87" x="127.5" y="863.1426">+Name: string</text><line style="stroke:#181818;stroke-width:0.5;" x1="122.5" x2="219.5" y1="870.2188" y2="870.2188"/></g><!--class OperationTypeID--><g id="elem_OperationTypeID"><rect codeLine="91" fill="#F1F1F1" height="65.6094" id="OperationTypeID" rx="2.5" ry="2.5" style="stroke:#181818;stroke-width:0.5;" width="140" x="549" y="812.6094"/><ellipse cx="564" cy="828.6094" fill="#ADD1B2" rx="11" ry="11" style="stroke:#181818;stroke-width:1.0;"/><path d="M566.7656,824.4844 Q566.9219,824.2656 567.1094,824.1563 Q567.2969,824.0469 567.5156,824.0469 Q567.8906,824.0469 568.125,824.3125 Q568.3594,824.5625 568.3594,825.1719 L568.3594,826.625 Q568.3594,827.2344 568.125,827.5 Q567.8906,827.7656 567.5156,827.7656 Q567.1719,827.7656 566.9688,827.5625 Q566.7656,827.375 566.6563,826.8594 Q566.6094,826.5 566.4219,826.3125 Q566.0938,825.9375 565.4844,825.7188 Q564.875,825.5 564.25,825.5 Q563.4844,825.5 562.8438,825.8281 Q562.2188,826.1563 561.7188,826.9063 Q561.2344,827.6563 561.2344,828.6875 L561.2344,829.7813 Q561.2344,831.0156 562.125,831.8438 Q563.0156,832.6563 564.6094,832.6563 Q565.5469,832.6563 566.2031,832.4063 Q566.5938,832.25 567.0156,831.8125 Q567.2813,831.5469 567.4219,831.4688 Q567.5781,831.3906 567.7813,831.3906 Q568.1094,831.3906 568.3594,831.6563 Q568.625,831.9063 568.625,832.25 Q568.625,832.5938 568.2813,833 Q567.7813,833.5781 566.9844,833.9063 Q565.9063,834.3594 564.6094,834.3594 Q563.0938,834.3594 561.8906,833.7344 Q560.9063,833.2344 560.2188,832.1719 Q559.5313,831.0938 559.5313,829.8125 L559.5313,828.6563 Q559.5313,827.3281 560.1406,826.1875 Q560.7656,825.0313 561.8594,824.4219 Q562.9531,823.7969 564.1875,823.7969 Q564.9219,823.7969 565.5625,823.9688 Q566.2188,824.125 566.7656,824.4844 Z " fill="#000000"/><text fill="#000000" font-family="sans-serif" font-size="14" lengthAdjust="spacing" textLength="108" x="578" y="834.3379">OperationTypeID</text><line style="stroke:#181818;stroke-width:0.5;" x1="550" x2="688" y1="844.6094" y2="844.6094"/><text fill="#000000" font-family="sans-serif" font-size="14" lengthAdjust="spacing" textLength="57" x="555" y="863.1426">+Id: Guid</text><line style="stroke:#181818;stroke-width:0.5;" x1="550" x2="688" y1="870.2188" y2="870.2188"/></g><!--class Role--><g id="elem_Role"><rect codeLine="95" fill="#F1F1F1" height="65.6094" id="Role" rx="2.5" ry="2.5" style="stroke:#181818;stroke-width:0.5;" width="330" x="220" y="938.6094"/><ellipse cx="366.25" cy="954.6094" fill="#EB937F" rx="11" ry="11" style="stroke:#181818;stroke-width:1.0;"/><path d="M365.1094,955.4063 L365.1094,957.9063 L369.4375,957.9063 L369.4375,956.9844 Q369.4375,956.375 369.6719,956.1094 Q369.9219,955.8438 370.2969,955.8438 Q370.6719,955.8438 370.9063,956.1094 Q371.1406,956.375 371.1406,956.9844 L371.1406,959.6094 L363.1406,959.6094 Q362.5156,959.6094 362.25,959.375 Q362,959.1406 362,958.75 Q362,958.375 362.2656,958.1406 Q362.5313,957.9063 363.1406,957.9063 L363.4063,957.9063 L363.4063,951.25 L363.1406,951.25 Q362.5156,951.25 362.25,951.0156 Q362,950.7813 362,950.3906 Q362,950.0156 362.25,949.7813 Q362.5156,949.5469 363.1406,949.5469 L370.7656,949.5469 L370.7656,952.1406 Q370.7656,952.75 370.5313,953.0156 Q370.3125,953.2656 369.9219,953.2656 Q369.5469,953.2656 369.3125,953.0156 Q369.0781,952.75 369.0781,952.1406 L369.0781,951.25 L365.1094,951.25 L365.1094,953.7031 L366.5938,953.7031 Q366.5938,953.0469 366.7188,952.8594 Q366.9844,952.4531 367.4531,952.4531 Q367.8281,952.4531 368.0625,952.7188 Q368.2969,952.9688 368.2969,953.5781 L368.2969,955.5469 Q368.2969,956.0938 368.1719,956.2813 Q367.9063,956.6719 367.4531,956.6719 Q366.9844,956.6719 366.7188,956.2656 Q366.5938,956.0781 366.5938,955.4063 L365.1094,955.4063 Z " fill="#000000"/><text fill="#000000" font-family="sans-serif" font-size="14" lengthAdjust="spacing" textLength="29" x="386.75" y="960.3379">Role</text><line style="stroke:#181818;stroke-width:0.5;" x1="221" x2="549" y1="970.6094" y2="970.6094"/><text fill="#000000" font-family="sans-serif" font-size="14" lengthAdjust="spacing" textLength="318" x="226" y="989.1426">ADMIN, DOCTOR, NURSE, TECHNICIAN, PATIENT</text><line style="stroke:#181818;stroke-width:0.5;" x1="221" x2="549" y1="996.2188" y2="996.2188"/></g><!--class Status--><g id="elem_Status"><rect fill="#F1F1F1" height="48" id="Status" rx="2.5" ry="2.5" style="stroke:#181818;stroke-width:0.5;" width="72" x="14" y="821.6094"/><ellipse cx="29" cy="837.6094" fill="#ADD1B2" rx="11" ry="11" style="stroke:#181818;stroke-width:1.0;"/><path d="M31.7656,833.4844 Q31.9219,833.2656 32.1094,833.1563 Q32.2969,833.0469 32.5156,833.0469 Q32.8906,833.0469 33.125,833.3125 Q33.3594,833.5625 33.3594,834.1719 L33.3594,835.625 Q33.3594,836.2344 33.125,836.5 Q32.8906,836.7656 32.5156,836.7656 Q32.1719,836.7656 31.9688,836.5625 Q31.7656,836.375 31.6563,835.8594 Q31.6094,835.5 31.4219,835.3125 Q31.0938,834.9375 30.4844,834.7188 Q29.875,834.5 29.25,834.5 Q28.4844,834.5 27.8438,834.8281 Q27.2188,835.1563 26.7188,835.9063 Q26.2344,836.6563 26.2344,837.6875 L26.2344,838.7813 Q26.2344,840.0156 27.125,840.8438 Q28.0156,841.6563 29.6094,841.6563 Q30.5469,841.6563 31.2031,841.4063 Q31.5938,841.25 32.0156,840.8125 Q32.2813,840.5469 32.4219,840.4688 Q32.5781,840.3906 32.7813,840.3906 Q33.1094,840.3906 33.3594,840.6563 Q33.625,840.9063 33.625,841.25 Q33.625,841.5938 33.2813,842 Q32.7813,842.5781 31.9844,842.9063 Q30.9063,843.3594 29.6094,843.3594 Q28.0938,843.3594 26.8906,842.7344 Q25.9063,842.2344 25.2188,841.1719 Q24.5313,840.0938 24.5313,838.8125 L24.5313,837.6563 Q24.5313,836.3281 25.1406,835.1875 Q25.7656,834.0313 26.8594,833.4219 Q27.9531,832.7969 29.1875,832.7969 Q29.9219,832.7969 30.5625,832.9688 Q31.2188,833.125 31.7656,833.4844 Z " fill="#000000"/><text fill="#000000" font-family="sans-serif" font-size="14" lengthAdjust="spacing" textLength="40" x="43" y="843.3379">Status</text><line style="stroke:#181818;stroke-width:0.5;" x1="15" x2="85" y1="853.6094" y2="853.6094"/><line style="stroke:#181818;stroke-width:0.5;" x1="15" x2="85" y1="861.6094" y2="861.6094"/></g><!--link RequiredStaff to GMN9--><g id="link_RequiredStaff_GMN9"><path d="M478.33,812.2694 C478.33,797.1494 478.33,782.6094 478.33,782.6094 C478.33,782.6094 807,782.6094 807,782.6094 C807,782.6094 807,814.0994 807,832.5594 " fill="none" id="RequiredStaff-GMN9" style="stroke:#181818;stroke-width:1.0;stroke-dasharray:7.0,7.0;"/></g><!--link OperationTypeController to OperationTypeService--><g id="link_OperationTypeController_OperationTypeService"><path codeLine="99" d="M315.75,128.6394 C315.75,149.9994 315.75,169.9694 315.75,191.3594 " fill="none" id="OperationTypeController-to-OperationTypeService" style="stroke:#181818;stroke-width:1.0;stroke-dasharray:7.0,7.0;"/><polygon fill="#181818" points="315.75,197.3594,319.75,188.3594,315.75,192.3594,311.75,188.3594,315.75,197.3594" style="stroke:#181818;stroke-width:1.0;"/><polygon fill="#000000" points="277.75,159.1752,280.6889,150.1301,274.8111,150.1301,277.75,159.1752" style="stroke:#000000;stroke-width:1.0;"/><text fill="#000000" font-family="sans-serif" font-size="13" lengthAdjust="spacing" textLength="28" x="286.75" y="159.4945">uses</text></g><!--link OperationTypeController to OperationTypeDto--><g id="link_OperationTypeController_OperationTypeDto"><path codeLine="100" d="M130.25,128.9294 C130.25,220.0794 130.25,431.7794 130.25,548.5294 " fill="none" id="OperationTypeController-to-OperationTypeDto" style="stroke:#181818;stroke-width:1.0;"/><polygon fill="#181818" points="130.25,554.5294,134.25,545.5294,130.25,549.5294,126.25,545.5294,130.25,554.5294" style="stroke:#181818;stroke-width:1.0;"/><polygon fill="#000000" points="80.25,337.9052,83.1889,328.8601,77.3111,328.8601,80.25,337.9052" style="stroke:#000000;stroke-width:1.0;"/><text fill="#000000" font-family="sans-serif" font-size="13" lengthAdjust="spacing" textLength="40" x="89.25" y="338.2245">returns</text></g><!--link OperationTypeService to OperationTypeRepository--><g id="link_OperationTypeService_OperationTypeRepository"><path codeLine="102" d="M593.67,239.6094 C605.23,239.6094 610.83,239.6094 622.35,239.6094 " fill="none" id="OperationTypeService-to-OperationTypeRepository" style="stroke:#181818;stroke-width:1.0;"/><polygon fill="#181818" points="628.35,239.6094,619.35,235.6094,623.35,239.6094,619.35,243.6094,628.35,239.6094" style="stroke:#181818;stroke-width:1.0;"/><polygon fill="#000000" points="599.51,248.7852,590.4649,245.8462,590.4649,251.7241,599.51,248.7852" style="stroke:#000000;stroke-width:1.0;"/><text fill="#000000" font-family="sans-serif" font-size="13" lengthAdjust="spacing" textLength="28" x="603.51" y="254.1045">uses</text></g><!--link OperationTypeService to OperationType--><g id="link_OperationTypeService_OperationType"><path codeLine="103" d="M416.17,280.7394 C416.17,334.9994 416.17,426.1894 416.17,504.5494 " fill="none" id="OperationTypeService-to-OperationType" style="stroke:#181818;stroke-width:1.0;"/><polygon fill="#181818" points="416.17,510.5494,420.17,501.5494,416.17,505.5494,412.17,501.5494,416.17,510.5494" style="stroke:#181818;stroke-width:1.0;"/><polygon fill="#000000" points="360.17,391.8152,363.1089,382.7701,357.2311,382.7701,360.17,391.8152" style="stroke:#000000;stroke-width:1.0;"/><text fill="#000000" font-family="sans-serif" font-size="13" lengthAdjust="spacing" textLength="46" x="369.17" y="392.1345">updates</text></g><!--link OperationTypeService to OperationTypeDto--><g id="link_OperationTypeService_OperationTypeDto"><path codeLine="104" d="M250.25,280.7394 C250.25,345.7494 250.25,466.3994 250.25,548.4294 " fill="none" id="OperationTypeService-to-OperationTypeDto" style="stroke:#181818;stroke-width:1.0;"/><polygon fill="#181818" points="250.25,554.4294,254.25,545.4294,250.25,549.4294,246.25,545.4294,250.25,554.4294" style="stroke:#181818;stroke-width:1.0;"/><polygon fill="#000000" points="197.25,413.7652,200.1889,404.7201,194.3111,404.7201,197.25,413.7652" style="stroke:#000000;stroke-width:1.0;"/><text fill="#000000" font-family="sans-serif" font-size="13" lengthAdjust="spacing" textLength="43" x="206.25" y="414.0845">creates</text></g><!--link OperationTypeRepository to IOperationTypeRepository--><g id="link_OperationTypeRepository_IOperationTypeRepository"><path codeLine="106" d="M733,290.0494 C733,309.0294 733,324.5494 733,343.4994 " fill="none" id="OperationTypeRepository-to-IOperationTypeRepository" style="stroke:#181818;stroke-width:1.0;"/><polygon fill="#181818" points="733,349.4994,737,340.4994,733,344.4994,729,340.4994,733,349.4994" style="stroke:#181818;stroke-width:1.0;"/><polygon fill="#000000" points="656,315.9552,658.9389,306.9101,653.0611,306.9101,656,315.9552" style="stroke:#000000;stroke-width:1.0;"/><text fill="#000000" font-family="sans-serif" font-size="13" lengthAdjust="spacing" textLength="67" x="665" y="316.2745">implements</text></g><!--link OperationTypeRepository to OperationType--><g id="link_OperationTypeRepository_OperationType"><path codeLine="107" d="M628.26,285.6094 C526.9,285.6094 425.33,285.6094 425.33,285.6094 C425.33,285.6094 425.33,404.8194 425.33,504.5994 " fill="none" id="OperationTypeRepository-to-OperationType" style="stroke:#181818;stroke-width:1.0;"/><polygon fill="#181818" points="425.33,510.5994,429.33,501.5994,425.33,505.5994,421.33,501.5994,425.33,510.5994" style="stroke:#181818;stroke-width:1.0;"/><polygon fill="#000000" points="307.9315,309.4826,316.2351,304.8457,311.9238,300.8505,307.9315,309.4826" style="stroke:#000000;stroke-width:1.0;"/><text fill="#000000" font-family="sans-serif" font-size="13" lengthAdjust="spacing" textLength="104" x="320.33" y="311.1345">saves in database</text></g><!--link OperationType to OperationTypeID--><g id="link_OperationType_OperationTypeID"><path codeLine="109" d="M642.33,752.6794 C642.33,774.6194 642.33,789.7594 642.33,806.3194 " fill="none" id="OperationType-to-OperationTypeID" style="stroke:#181818;stroke-width:1.0;"/><polygon fill="#181818" points="642.33,812.3194,646.33,803.3194,642.33,807.3194,638.33,803.3194,642.33,812.3194" style="stroke:#181818;stroke-width:1.0;"/><polygon fill="#000000" points="611.33,778.6752,614.2689,769.6301,608.3911,769.6301,611.33,778.6752" style="stroke:#000000;stroke-width:1.0;"/><text fill="#000000" font-family="sans-serif" font-size="13" lengthAdjust="spacing" textLength="21" x="620.33" y="778.9945">has</text></g><!--link OperationType to Name--><g id="link_OperationType_Name"><path codeLine="110" d="M406.73,738.6094 C297.71,738.6094 187.5,738.6094 187.5,738.6094 C187.5,738.6094 187.5,774.9294 187.5,806.3394 " fill="none" id="OperationType-to-Name" style="stroke:#181818;stroke-width:1.0;"/><polygon fill="#181818" points="187.5,812.3394,191.5,803.3394,187.5,807.3394,183.5,803.3394,187.5,812.3394" style="stroke:#181818;stroke-width:1.0;"/><polygon fill="#000000" points="224.4728,731.2611,233.9824,731.3991,232.2473,725.7832,224.4728,731.2611" style="stroke:#000000;stroke-width:1.0;"/><text fill="#000000" font-family="sans-serif" font-size="13" lengthAdjust="spacing" textLength="21" x="238.25" y="735.1045">has</text></g><!--link OperationType to Specialization--><g id="link_OperationType_Specialization"><path codeLine="111" d="M406.72,723.6094 C268.64,723.6094 114.12,723.6094 114.12,723.6094 C114.12,723.6094 114.12,864.8394 114.12,932.4194 " fill="none" id="OperationType-to-Specialization" style="stroke:#181818;stroke-width:1.0;"/><polygon fill="#181818" points="114.12,938.4194,118.12,929.4194,114.12,933.4194,110.12,929.4194,114.12,938.4194" style="stroke:#181818;stroke-width:1.0;"/><polygon fill="#000000" points="117.9501,735.6896,127.0198,732.8277,123.6054,728.0432,117.9501,735.6896" style="stroke:#000000;stroke-width:1.0;"/><text fill="#000000" font-family="sans-serif" font-size="13" lengthAdjust="spacing" textLength="21" x="131.02" y="738.1045">has</text></g><!--link OperationType to RequiredStaff--><g id="link_OperationType_RequiredStaff"><path codeLine="112" d="M442.67,752.6794 C442.67,774.6194 442.67,789.7594 442.67,806.3194 " fill="none" id="OperationType-to-RequiredStaff" style="stroke:#181818;stroke-width:1.0;"/><polygon fill="#181818" points="442.67,812.3194,446.67,803.3194,442.67,807.3194,438.67,803.3194,442.67,812.3194" style="stroke:#181818;stroke-width:1.0;"/><polygon fill="#000000" points="411.67,778.6752,414.6089,769.6301,408.7311,769.6301,411.67,778.6752" style="stroke:#000000;stroke-width:1.0;"/><text fill="#000000" font-family="sans-serif" font-size="13" lengthAdjust="spacing" textLength="21" x="420.67" y="778.9945">has</text></g><!--link OperationType to PhasesDuration--><g id="link_OperationType_PhasesDuration"><path codeLine="113" d="M819,752.8394 C819,790.6294 819,822.6094 819,822.6094 C819,822.6094 1024.05,822.6094 1167.71,822.6094 " fill="none" id="OperationType-to-PhasesDuration" style="stroke:#181818;stroke-width:1.0;"/><polygon fill="#181818" points="1173.71,822.6094,1164.71,818.6094,1168.71,822.6094,1164.71,826.6094,1173.71,822.6094" style="stroke:#181818;stroke-width:1.0;"/><polygon fill="#000000" points="935.3728,814.7661,927.0801,810.1097,925.9269,815.8734,935.3728,814.7661" style="stroke:#000000;stroke-width:1.0;"/><text fill="#000000" font-family="sans-serif" font-size="13" lengthAdjust="spacing" textLength="21" x="939.47" y="819.1045">has</text></g><!--link OperationTypeDto to OperationTypeID--><g id="link_OperationTypeDto_OperationTypeID"><path codeLine="115" d="M294,708.7794 C294,752.1294 294,797.6094 294,797.6094 C294,797.6094 595.67,797.6094 595.67,797.6094 C595.67,797.6094 595.67,798.2194 595.67,806.5294 " fill="none" id="OperationTypeDto-to-OperationTypeID" style="stroke:#181818;stroke-width:1.0;"/><polygon fill="#181818" points="595.67,812.5294,599.67,803.5294,595.67,807.5294,591.67,803.5294,595.67,812.5294" style="stroke:#181818;stroke-width:1.0;"/><polygon fill="#000000" points="381.6365,790.3264,373.9378,784.7424,372.126,790.3341,381.6365,790.3264" style="stroke:#000000;stroke-width:1.0;"/><text fill="#000000" font-family="sans-serif" font-size="13" lengthAdjust="spacing" textLength="21" x="385.88" y="794.1045">has</text></g><!--link OperationTypeDto to Name--><g id="link_OperationTypeDto_Name"><path codeLine="116" d="M154.5,708.8694 C154.5,744.4294 154.5,778.7394 154.5,806.3294 " fill="none" id="OperationTypeDto-to-Name" style="stroke:#181818;stroke-width:1.0;"/><polygon fill="#181818" points="154.5,812.3294,158.5,803.3294,154.5,807.3294,150.5,803.3294,154.5,812.3294" style="stroke:#181818;stroke-width:1.0;"/><polygon fill="#000000" points="123.5,756.7752,126.4389,747.7301,120.5611,747.7301,123.5,756.7752" style="stroke:#000000;stroke-width:1.0;"/><text fill="#000000" font-family="sans-serif" font-size="13" lengthAdjust="spacing" textLength="21" x="132.5" y="757.0945">has</text></g><!--link OperationTypeDto to Status--><g id="link_OperationTypeDto_Status"><path codeLine="117" d="M99.38,708.8694 C99.38,770.1694 99.38,845.6094 99.38,845.6094 C99.38,845.6094 99.67,845.6094 92.14,845.6094 " fill="none" id="OperationTypeDto-to-Status" style="stroke:#181818;stroke-width:1.0;"/><polygon fill="#181818" points="86.14,845.6094,95.14,849.6094,91.14,845.6094,95.14,841.6094,86.14,845.6094" style="stroke:#181818;stroke-width:1.0;"/><polygon fill="#000000" points="68.1156,780.0282,71.5287,771.1511,65.6591,770.8403,68.1156,780.0282" style="stroke:#000000;stroke-width:1.0;"/><text fill="#000000" font-family="sans-serif" font-size="13" lengthAdjust="spacing" textLength="21" x="77.38" y="780.3545">has</text></g><!--link OperationTypeDto to Specialization--><g id="link_OperationTypeDto_Specialization"><path codeLine="118" d="M106.75,708.7594 C106.75,781.0594 106.75,879.6694 106.75,932.4694 " fill="none" id="OperationTypeDto-to-Specialization" style="stroke:#181818;stroke-width:1.0;"/><polygon fill="#181818" points="106.75,938.4694,110.75,929.4694,106.75,933.4694,102.75,929.4694,106.75,938.4694" style="stroke:#181818;stroke-width:1.0;"/><polygon fill="#000000" points="75.75,819.7952,78.6889,810.7501,72.8111,810.7501,75.75,819.7952" style="stroke:#000000;stroke-width:1.0;"/><text fill="#000000" font-family="sans-serif" font-size="13" lengthAdjust="spacing" textLength="21" x="84.75" y="820.1145">has</text></g><!--link OperationTypeDto to RequiredStaff--><g id="link_OperationTypeDto_RequiredStaff"><path codeLine="119" d="M275,708.8694 C275,744.4294 275,778.7394 275,806.3294 " fill="none" id="OperationTypeDto-to-RequiredStaff" style="stroke:#181818;stroke-width:1.0;"/><polygon fill="#181818" points="275,812.3294,279,803.3294,275,807.3294,271,803.3294,275,812.3294" style="stroke:#181818;stroke-width:1.0;"/><polygon fill="#000000" points="200,756.7752,202.9389,747.7301,197.0611,747.7301,200,756.7752" style="stroke:#000000;stroke-width:1.0;"/><text fill="#000000" font-family="sans-serif" font-size="13" lengthAdjust="spacing" textLength="65" x="209" y="757.0945">has several</text></g><!--link OperationTypeDto to PhasesDuration--><g id="link_OperationTypeDto_PhasesDuration"><path codeLine="120" d="M313,708.7494 C313,739.4394 313,767.6094 313,767.6094 C313,767.6094 1304,767.6094 1304,767.6094 C1304,767.6094 1304,785.2694 1304,806.5294 " fill="none" id="OperationTypeDto-to-PhasesDuration" style="stroke:#181818;stroke-width:1.0;"/><polygon fill="#181818" points="1304,812.5294,1308,803.5294,1304,807.5294,1300,803.5294,1304,812.5294" style="stroke:#181818;stroke-width:1.0;"/><polygon fill="#000000" points="775.5058,777.2761,766.793,773.4632,766.2159,779.3127,775.5058,777.2761" style="stroke:#000000;stroke-width:1.0;"/><text fill="#000000" font-family="sans-serif" font-size="13" lengthAdjust="spacing" textLength="21" x="779.53" y="782.1045">has</text></g><!--link RequiredStaff to Role--><g id="link_RequiredStaff_Role"><path codeLine="122" d="M385,878.7194 C385,897.0894 385,913.8794 385,932.2894 " fill="none" id="RequiredStaff-to-Role" style="stroke:#181818;stroke-width:1.0;"/><polygon fill="#181818" points="385,938.2894,389,929.2894,385,933.2894,381,929.2894,385,938.2894" style="stroke:#181818;stroke-width:1.0;"/><text fill="#000000" font-family="sans-serif" font-size="13" lengthAdjust="spacing" textLength="21" x="363" y="904.9945">has</text></g><!--link RequiredStaff to Specialization--><g id="link_RequiredStaff_Specialization"><path codeLine="123" d="M320.5,878.8694 C320.5,889.5194 320.5,898.6094 320.5,898.6094 C320.5,898.6094 153.25,898.6094 153.25,898.6094 C153.25,898.6094 153.25,913.2094 153.25,932.5294 " fill="none" id="RequiredStaff-to-Specialization" style="stroke:#181818;stroke-width:1.0;"/><polygon fill="#181818" points="153.25,938.5294,157.25,929.5294,153.25,933.5294,149.25,929.5294,153.25,938.5294" style="stroke:#181818;stroke-width:1.0;"/><polygon fill="#000000" points="191.019,891.3126,200.5295,891.3478,198.7339,885.751,191.019,891.3126" style="stroke:#000000;stroke-width:1.0;"/><text fill="#000000" font-family="sans-serif" font-size="13" lengthAdjust="spacing" textLength="21" x="204.78" y="895.1045">has</text></g><!--link RequiredStaff to Quantity--><g id="link_RequiredStaff_Quantity"><path codeLine="124" d="M449.5,878.6894 C449.5,898.0094 449.5,918.6094 449.5,918.6094 C449.5,918.6094 633,918.6094 633,918.6094 C633,918.6094 633,921.6994 633,932.3494 " fill="none" id="RequiredStaff-to-Quantity" style="stroke:#181818;stroke-width:1.0;"/><polygon fill="#181818" points="633,938.3494,637,929.3494,633,933.3494,629,929.3494,633,938.3494" style="stroke:#181818;stroke-width:1.0;"/><polygon fill="#000000" points="504.959,911.1885,497.1024,905.829,495.4526,911.4706,504.959,911.1885" style="stroke:#000000;stroke-width:1.0;"/><text fill="#000000" font-family="sans-serif" font-size="13" lengthAdjust="spacing" textLength="21" x="509.16" y="915.1045">has</text></g><!--link PhasesDuration to Phase--><g id="link_PhasesDuration_Phase"><path codeLine="126" d="M1251,878.7194 C1251,897.0894 1251,913.8794 1251,932.2894 " fill="none" id="PhasesDuration-to-Phase" style="stroke:#181818;stroke-width:1.0;"/><polygon fill="#181818" points="1251,938.2894,1255,929.2894,1251,933.2894,1247,929.2894,1251,938.2894" style="stroke:#181818;stroke-width:1.0;"/><polygon fill="#000000" points="1220,904.6752,1222.9389,895.6301,1217.0611,895.6301,1220,904.6752" style="stroke:#000000;stroke-width:1.0;"/><text fill="#000000" font-family="sans-serif" font-size="13" lengthAdjust="spacing" textLength="21" x="1229" y="904.9945">has</text></g><!--link PhasesDuration to Duration--><g id="link_PhasesDuration_Duration"><path codeLine="127" d="M1398.5,878.7194 C1398.5,897.0894 1398.5,913.8794 1398.5,932.2894 " fill="none" id="PhasesDuration-to-Duration" style="stroke:#181818;stroke-width:1.0;"/><polygon fill="#181818" points="1398.5,938.2894,1402.5,929.2894,1398.5,933.2894,1394.5,929.2894,1398.5,938.2894" style="stroke:#181818;stroke-width:1.0;"/><polygon fill="#000000" points="1367.5,904.6752,1370.4389,895.6301,1364.5611,895.6301,1367.5,904.6752" style="stroke:#000000;stroke-width:1.0;"/><text fill="#000000" font-family="sans-serif" font-size="13" lengthAdjust="spacing" textLength="21" x="1376.5" y="904.9945">has</text></g><!--SRC=[tLLDR-Cs4BthLypHYtMAnHwDm80g6Qc0NIULdKDF1IsDRI8qgPAK2s_H_zuXzH5zPhFegVN1WCZtthmP3eVcXSk2QNQ1WcKlx8GxUnC86ZFBv4bWO5g0ERDS_Sdb2OvCcEvE9fWneRMQ7qgBIQRaZdz3-DI122xHtWe4fUrP1O70emMhGFFJsKBENK2kP61LuPOFobfrwQm7bblo5Rb847DsSgABAFu0T_0SVVhyEGYy2tWiK3D7sLEqI4chbH2euQy0wFVn0MqenEB32lRClDo7NZr5KmfxdsnaUI7sGU1zJoQsQhrULm8xTRGn2hIuuFaA7agUJugD1OA_9ptkK5zvXds3eRd9h7NvXPj9GKz89AEuLsQn8ZbNFMpI6Xn9p5XAiL26MwLl7LS_tvBynoAiVoIZVvkEpuLBY_h8g9h9_oEXYSDfCaX6Ed6riMKNN87xhplMCbkQ5Tqf9UgL0ZFE1F_ckIleVrUO5FyewVRbn3uUL-3pwwtLwJsTcK4JbxhMwdzNcEXCimITeuLipL7ILyNpBg9okZ0TmrEedjk5UJEP2NulYuN-RfuJ4lqa5yMRDMZuqyT9r_2_TQ9j6ZrkdSCT_6ug-PZxQSZqxJvL0fVWOR-MJD8alxdcbifYFV_LiQ_cjHmDCYP1IN630m83hmqqqQaSiSheGYzXMshZdXK8ZQ6KI3z0cODJRvmsKPj2Dzyhe84nSjBiUcnBlPJ6EXCdZNILDLXg17hXXg7wXMy2ncZuITRrx7oy5hDVvDTgLgtLAwU7Bg71-Zc1z79L6ZNrATqyXMcuJnwtLFhdz66J_hQ4wCict2RRXzUuWuWVlt99JxXfAbEZNEirYAeP3JtsyZJJqqdSRMdtHBOU_Q5Mcs7yDI5pyMEqVqpf79_JtMO9-qtqopQ9af2sdiZ_PhjtvBbd_QVrz6kwWZMKLBbPuXtzrkEhw7WQRQcb6GHjb8Uipjio7RGbZW9MX2AdXdetfp6P-JuSckoOSSpaBQVyKWYyeBJcJOsnOyEkQAX1W8op0_NSmCIOHWtXYDIV4qZVNFFRWnir3-pFetdSuAerm61KvdUdqO3dCsaGrUJ-3kOT2JVOoPp1u9MmOfeobtvVoelxEUisntip9iV0Te2sWGO6MayjOW8miliF]--></g></svg>