<?xml version="1.0" encoding="us-ascii" standalone="no"?><svg xmlns="http://www.w3.org/2000/svg" xmlns:xlink="http://www.w3.org/1999/xlink" contentStyleType="text/css" height="1010px" preserveAspectRatio="none" style="width:1579px;height:1010px;background:#FFFFFF;" version="1.1" viewBox="0 0 1579 1010" width="1579px" zoomAndPan="magnify"><defs/><g><text fill="#000000" font-family="sans-serif" font-size="14" font-weight="bold" lengthAdjust="spacing" textLength="190" x="687.5945" y="24.5332">Class Diagram (CD) - UC020</text><!--class OperationTypeController--><g id="elem_OperationTypeController"><rect codeLine="12" fill="#F1F1F1" height="83.2188" id="OperationTypeController" rx="2.5" ry="2.5" style="stroke:#181818;stroke-width:0.5;" width="539" x="47.6889" y="45.6094"/><ellipse cx="234.4389" cy="61.6094" fill="#ADD1B2" rx="11" ry="11" style="stroke:#181818;stroke-width:1.0;"/><path d="M237.2046,57.4844 Q237.3608,57.2656 237.5483,57.1563 Q237.7358,57.0469 237.9546,57.0469 Q238.3296,57.0469 238.5639,57.3125 Q238.7983,57.5625 238.7983,58.1719 L238.7983,59.625 Q238.7983,60.2344 238.5639,60.5 Q238.3296,60.7656 237.9546,60.7656 Q237.6108,60.7656 237.4077,60.5625 Q237.2046,60.375 237.0952,59.8594 Q237.0483,59.5 236.8608,59.3125 Q236.5327,58.9375 235.9233,58.7188 Q235.3139,58.5 234.6889,58.5 Q233.9233,58.5 233.2827,58.8281 Q232.6577,59.1563 232.1577,59.9063 Q231.6733,60.6563 231.6733,61.6875 L231.6733,62.7813 Q231.6733,64.0156 232.5639,64.8438 Q233.4546,65.6563 235.0483,65.6563 Q235.9858,65.6563 236.6421,65.4063 Q237.0327,65.25 237.4546,64.8125 Q237.7202,64.5469 237.8608,64.4688 Q238.0171,64.3906 238.2202,64.3906 Q238.5483,64.3906 238.7983,64.6563 Q239.0639,64.9063 239.0639,65.25 Q239.0639,65.5938 238.7202,66 Q238.2202,66.5781 237.4233,66.9063 Q236.3452,67.3594 235.0483,67.3594 Q233.5327,67.3594 232.3296,66.7344 Q231.3452,66.2344 230.6577,65.1719 Q229.9702,64.0938 229.9702,62.8125 L229.9702,61.6563 Q229.9702,60.3281 230.5796,59.1875 Q231.2046,58.0313 232.2983,57.4219 Q233.3921,56.7969 234.6264,56.7969 Q235.3608,56.7969 236.0014,56.9688 Q236.6577,57.125 237.2046,57.4844 Z " fill="#000000"/><text fill="#000000" font-family="sans-serif" font-size="14" lengthAdjust="spacing" textLength="157" x="254.9389" y="67.3379">OperationTypeController</text><line style="stroke:#181818;stroke-width:0.5;" x1="48.6889" x2="585.6889" y1="77.6094" y2="77.6094"/><line style="stroke:#181818;stroke-width:0.5;" x1="48.6889" x2="585.6889" y1="85.6094" y2="85.6094"/><text fill="#000000" font-family="sans-serif" font-size="14" lengthAdjust="spacing" textLength="439" x="53.6889" y="104.1426">+GetByName(name: Name): Task&lt;ActionResult&lt;OperationTypeDto&gt;&gt;</text><text fill="#000000" font-family="sans-serif" font-size="14" lengthAdjust="spacing" textLength="527" x="53.6889" y="121.752">+Create(dto: CreatingOperationTypeDto): Task&lt;ActionResult&lt;OperationTypeDto&gt;&gt;</text></g><!--class OperationTypeService--><g id="elem_OperationTypeService"><rect codeLine="17" fill="#F1F1F1" height="100.8281" id="OperationTypeService" rx="2.5" ry="2.5" style="stroke:#181818;stroke-width:0.5;" width="464" x="85.1889" y="188.6094"/><ellipse cx="241.9389" cy="204.6094" fill="#ADD1B2" rx="11" ry="11" style="stroke:#181818;stroke-width:1.0;"/><path d="M244.7046,200.4844 Q244.8608,200.2656 245.0483,200.1563 Q245.2358,200.0469 245.4546,200.0469 Q245.8296,200.0469 246.0639,200.3125 Q246.2983,200.5625 246.2983,201.1719 L246.2983,202.625 Q246.2983,203.2344 246.0639,203.5 Q245.8296,203.7656 245.4546,203.7656 Q245.1108,203.7656 244.9077,203.5625 Q244.7046,203.375 244.5952,202.8594 Q244.5483,202.5 244.3608,202.3125 Q244.0327,201.9375 243.4233,201.7188 Q242.8139,201.5 242.1889,201.5 Q241.4233,201.5 240.7827,201.8281 Q240.1577,202.1563 239.6577,202.9063 Q239.1733,203.6563 239.1733,204.6875 L239.1733,205.7813 Q239.1733,207.0156 240.0639,207.8438 Q240.9546,208.6563 242.5483,208.6563 Q243.4858,208.6563 244.1421,208.4063 Q244.5327,208.25 244.9546,207.8125 Q245.2202,207.5469 245.3608,207.4688 Q245.5171,207.3906 245.7202,207.3906 Q246.0483,207.3906 246.2983,207.6563 Q246.5639,207.9063 246.5639,208.25 Q246.5639,208.5938 246.2202,209 Q245.7202,209.5781 244.9233,209.9063 Q243.8452,210.3594 242.5483,210.3594 Q241.0327,210.3594 239.8296,209.7344 Q238.8452,209.2344 238.1577,208.1719 Q237.4702,207.0938 237.4702,205.8125 L237.4702,204.6563 Q237.4702,203.3281 238.0796,202.1875 Q238.7046,201.0313 239.7983,200.4219 Q240.8921,199.7969 242.1264,199.7969 Q242.8608,199.7969 243.5014,199.9688 Q244.1577,200.125 244.7046,200.4844 Z " fill="#000000"/><text fill="#000000" font-family="sans-serif" font-size="14" lengthAdjust="spacing" textLength="142" x="262.4389" y="210.3379">OperationTypeService</text><line style="stroke:#181818;stroke-width:0.5;" x1="86.1889" x2="548.1889" y1="220.6094" y2="220.6094"/><line style="stroke:#181818;stroke-width:0.5;" x1="86.1889" x2="548.1889" y1="228.6094" y2="228.6094"/><text fill="#000000" font-family="sans-serif" font-size="14" lengthAdjust="spacing" textLength="382" x="91.1889" y="247.1426">+GetByNameAsync(name: Name): Task&lt;OperationTypeDto&gt;</text><text fill="#000000" font-family="sans-serif" font-size="14" lengthAdjust="spacing" textLength="361" x="91.1889" y="264.752">+ValidateOperationTypeName(name: Name): Task&lt;bool&gt;</text><text fill="#000000" font-family="sans-serif" font-size="14" lengthAdjust="spacing" textLength="452" x="91.1889" y="282.3613">+AddAsync(dto: CreatingOperationTypeDto): Task&lt;OperationTypeDto&gt;</text></g><!--class OperationTypeRepository--><g id="elem_OperationTypeRepository"><rect codeLine="23" fill="#F1F1F1" height="83.2188" id="OperationTypeRepository" rx="2.5" ry="2.5" style="stroke:#181818;stroke-width:0.5;" width="442" x="726.1889" y="197.6094"/><ellipse cx="861.4389" cy="213.6094" fill="#ADD1B2" rx="11" ry="11" style="stroke:#181818;stroke-width:1.0;"/><path d="M864.2046,209.4844 Q864.3608,209.2656 864.5483,209.1563 Q864.7358,209.0469 864.9546,209.0469 Q865.3296,209.0469 865.5639,209.3125 Q865.7983,209.5625 865.7983,210.1719 L865.7983,211.625 Q865.7983,212.2344 865.5639,212.5 Q865.3296,212.7656 864.9546,212.7656 Q864.6108,212.7656 864.4077,212.5625 Q864.2046,212.375 864.0952,211.8594 Q864.0483,211.5 863.8608,211.3125 Q863.5327,210.9375 862.9233,210.7188 Q862.3139,210.5 861.6889,210.5 Q860.9233,210.5 860.2827,210.8281 Q859.6577,211.1563 859.1577,211.9063 Q858.6733,212.6563 858.6733,213.6875 L858.6733,214.7813 Q858.6733,216.0156 859.5639,216.8438 Q860.4546,217.6563 862.0483,217.6563 Q862.9858,217.6563 863.6421,217.4063 Q864.0327,217.25 864.4546,216.8125 Q864.7202,216.5469 864.8608,216.4688 Q865.0171,216.3906 865.2202,216.3906 Q865.5483,216.3906 865.7983,216.6563 Q866.0639,216.9063 866.0639,217.25 Q866.0639,217.5938 865.7202,218 Q865.2202,218.5781 864.4233,218.9063 Q863.3452,219.3594 862.0483,219.3594 Q860.5327,219.3594 859.3296,218.7344 Q858.3452,218.2344 857.6577,217.1719 Q856.9702,216.0938 856.9702,214.8125 L856.9702,213.6563 Q856.9702,212.3281 857.5796,211.1875 Q858.2046,210.0313 859.2983,209.4219 Q860.3921,208.7969 861.6264,208.7969 Q862.3608,208.7969 863.0014,208.9688 Q863.6577,209.125 864.2046,209.4844 Z " fill="#000000"/><text fill="#000000" font-family="sans-serif" font-size="14" lengthAdjust="spacing" textLength="163" x="881.9389" y="219.3379">OperationTypeRepository</text><line style="stroke:#181818;stroke-width:0.5;" x1="727.1889" x2="1167.1889" y1="229.6094" y2="229.6094"/><line style="stroke:#181818;stroke-width:0.5;" x1="727.1889" x2="1167.1889" y1="237.6094" y2="237.6094"/><text fill="#000000" font-family="sans-serif" font-size="14" lengthAdjust="spacing" textLength="360" x="732.1889" y="256.1426">+GetByNameAsync(name: Name): Task&lt;OperationType&gt;</text><text fill="#000000" font-family="sans-serif" font-size="14" lengthAdjust="spacing" textLength="430" x="732.1889" y="273.752">+AddAsync(dto: CreatingOperationTypeDto): Task&lt;OperationType&gt;</text></g><!--class IOperationTypeRepository--><g id="elem_IOperationTypeRepository"><rect codeLine="28" fill="#F1F1F1" height="83.2188" id="IOperationTypeRepository" rx="2.5" ry="2.5" style="stroke:#181818;stroke-width:0.5;" width="442" x="726.1889" y="349.6094"/><ellipse cx="859.4389" cy="365.6094" fill="#B4A7E5" rx="11" ry="11" style="stroke:#181818;stroke-width:1.0;"/><path d="M860.3921,362.25 L860.3921,368.9063 L862.1108,368.9063 Q862.7202,368.9063 862.9858,369.1406 Q863.2514,369.375 863.2514,369.7656 Q863.2514,370.1406 862.9858,370.375 Q862.7202,370.6094 862.1108,370.6094 L856.9702,370.6094 Q856.3608,370.6094 856.0952,370.375 Q855.8296,370.1406 855.8296,369.75 Q855.8296,369.375 856.0952,369.1406 Q856.3608,368.9063 856.9702,368.9063 L858.6889,368.9063 L858.6889,362.25 L856.9702,362.25 Q856.3608,362.25 856.0952,362.0156 Q855.8296,361.7813 855.8296,361.3906 Q855.8296,361.0156 856.0952,360.7813 Q856.3608,360.5469 856.9702,360.5469 L862.1108,360.5469 Q862.7202,360.5469 862.9858,360.7813 Q863.2514,361.0156 863.2514,361.3906 Q863.2514,361.7813 862.9858,362.0156 Q862.7202,362.25 862.1108,362.25 L860.3921,362.25 Z " fill="#000000"/><text fill="#000000" font-family="sans-serif" font-size="14" font-style="italic" lengthAdjust="spacing" textLength="167" x="879.9389" y="371.3379">IOperationTypeRepository</text><line style="stroke:#181818;stroke-width:0.5;" x1="727.1889" x2="1167.1889" y1="381.6094" y2="381.6094"/><line style="stroke:#181818;stroke-width:0.5;" x1="727.1889" x2="1167.1889" y1="389.6094" y2="389.6094"/><text fill="#000000" font-family="sans-serif" font-size="14" lengthAdjust="spacing" textLength="360" x="732.1889" y="408.1426">+GetByNameAsync(name: Name): Task&lt;OperationType&gt;</text><text fill="#000000" font-family="sans-serif" font-size="14" lengthAdjust="spacing" textLength="430" x="732.1889" y="425.752">+AddAsync(dto: CreatingOperationTypeDto): Task&lt;OperationType&gt;</text></g><!--class CreatingOperationTypeDto--><g id="elem_CreatingOperationTypeDto"><rect codeLine="33" fill="#F1F1F1" height="259.3125" id="CreatingOperationTypeDto" rx="2.5" ry="2.5" style="stroke:#181818;stroke-width:0.5;" width="393" x="58.6889" y="492.6094"/><ellipse cx="165.4389" cy="508.6094" fill="#ADD1B2" rx="11" ry="11" style="stroke:#181818;stroke-width:1.0;"/><path d="M168.2046,504.4844 Q168.3608,504.2656 168.5483,504.1563 Q168.7358,504.0469 168.9546,504.0469 Q169.3296,504.0469 169.5639,504.3125 Q169.7983,504.5625 169.7983,505.1719 L169.7983,506.625 Q169.7983,507.2344 169.5639,507.5 Q169.3296,507.7656 168.9546,507.7656 Q168.6108,507.7656 168.4077,507.5625 Q168.2046,507.375 168.0952,506.8594 Q168.0483,506.5 167.8608,506.3125 Q167.5327,505.9375 166.9233,505.7188 Q166.3139,505.5 165.6889,505.5 Q164.9233,505.5 164.2827,505.8281 Q163.6577,506.1563 163.1577,506.9063 Q162.6733,507.6563 162.6733,508.6875 L162.6733,509.7813 Q162.6733,511.0156 163.5639,511.8438 Q164.4546,512.6563 166.0483,512.6563 Q166.9858,512.6563 167.6421,512.4063 Q168.0327,512.25 168.4546,511.8125 Q168.7202,511.5469 168.8608,511.4688 Q169.0171,511.3906 169.2202,511.3906 Q169.5483,511.3906 169.7983,511.6563 Q170.0639,511.9063 170.0639,512.25 Q170.0639,512.5938 169.7202,513 Q169.2202,513.5781 168.4233,513.9063 Q167.3452,514.3594 166.0483,514.3594 Q164.5327,514.3594 163.3296,513.7344 Q162.3452,513.2344 161.6577,512.1719 Q160.9702,511.0938 160.9702,509.8125 L160.9702,508.6563 Q160.9702,507.3281 161.5796,506.1875 Q162.2046,505.0313 163.2983,504.4219 Q164.3921,503.7969 165.6264,503.7969 Q166.3608,503.7969 167.0014,503.9688 Q167.6577,504.125 168.2046,504.4844 Z " fill="#000000"/><text fill="#000000" font-family="sans-serif" font-size="14" lengthAdjust="spacing" textLength="171" x="185.9389" y="514.3379">CreatingOperationTypeDto</text><line style="stroke:#181818;stroke-width:0.5;" x1="59.6889" x2="450.6889" y1="524.6094" y2="524.6094"/><text fill="#000000" font-family="sans-serif" font-size="14" lengthAdjust="spacing" textLength="88" x="64.6889" y="543.1426">+Name: Name</text><text fill="#000000" font-family="sans-serif" font-size="14" lengthAdjust="spacing" textLength="188" x="64.6889" y="560.752">+Specialization: Specialization</text><text fill="#000000" font-family="sans-serif" font-size="14" lengthAdjust="spacing" textLength="190" x="64.6889" y="578.3613">+RequiredStaff: RequiredStaff</text><text fill="#000000" font-family="sans-serif" font-size="14" lengthAdjust="spacing" textLength="218" x="64.6889" y="595.9707">+PhasesDuration: PhasesDuration</text><line style="stroke:#181818;stroke-width:0.5;" x1="59.6889" x2="450.6889" y1="603.0469" y2="603.0469"/><text fill="#000000" font-family="sans-serif" font-size="14" lengthAdjust="spacing" textLength="118" x="64.6889" y="621.5801">+getName(): Name</text><text fill="#000000" font-family="sans-serif" font-size="14" lengthAdjust="spacing" textLength="218" x="64.6889" y="639.1895">+getSpecialization(): Specialization</text><text fill="#000000" font-family="sans-serif" font-size="14" lengthAdjust="spacing" textLength="220" x="64.6889" y="656.7988">+getRequiredStaff(): RequiredStaff</text><text fill="#000000" font-family="sans-serif" font-size="14" lengthAdjust="spacing" textLength="248" x="64.6889" y="674.4082">+getPhasesDuration(): PhasesDuration</text><text fill="#000000" font-family="sans-serif" font-size="14" lengthAdjust="spacing" textLength="186" x="64.6889" y="692.0176">+setName(name: Name): void</text><text fill="#000000" font-family="sans-serif" font-size="14" lengthAdjust="spacing" textLength="337" x="64.6889" y="709.627">+setSpecialization(Specialization: Specialization): void</text><text fill="#000000" font-family="sans-serif" font-size="14" lengthAdjust="spacing" textLength="335" x="64.6889" y="727.2363">+setRequiredStaff(requiredStaff: RequiredStaff): void</text><text fill="#000000" font-family="sans-serif" font-size="14" lengthAdjust="spacing" textLength="381" x="64.6889" y="744.8457">+setPhasesDuration(phasesDuration: PhasesDuration): void</text></g><!--class OperationType--><g id="elem_OperationType"><rect codeLine="48" fill="#F1F1F1" height="136.0469" id="OperationType" rx="2.5" ry="2.5" style="stroke:#181818;stroke-width:0.5;" width="230" x="760.1889" y="554.1094"/><ellipse cx="823.4389" cy="570.1094" fill="#ADD1B2" rx="11" ry="11" style="stroke:#181818;stroke-width:1.0;"/><path d="M826.2046,565.9844 Q826.3608,565.7656 826.5483,565.6563 Q826.7358,565.5469 826.9546,565.5469 Q827.3296,565.5469 827.5639,565.8125 Q827.7983,566.0625 827.7983,566.6719 L827.7983,568.125 Q827.7983,568.7344 827.5639,569 Q827.3296,569.2656 826.9546,569.2656 Q826.6108,569.2656 826.4077,569.0625 Q826.2046,568.875 826.0952,568.3594 Q826.0483,568 825.8608,567.8125 Q825.5327,567.4375 824.9233,567.2188 Q824.3139,567 823.6889,567 Q822.9233,567 822.2827,567.3281 Q821.6577,567.6563 821.1577,568.4063 Q820.6733,569.1563 820.6733,570.1875 L820.6733,571.2813 Q820.6733,572.5156 821.5639,573.3438 Q822.4546,574.1563 824.0483,574.1563 Q824.9858,574.1563 825.6421,573.9063 Q826.0327,573.75 826.4546,573.3125 Q826.7202,573.0469 826.8608,572.9688 Q827.0171,572.8906 827.2202,572.8906 Q827.5483,572.8906 827.7983,573.1563 Q828.0639,573.4063 828.0639,573.75 Q828.0639,574.0938 827.7202,574.5 Q827.2202,575.0781 826.4233,575.4063 Q825.3452,575.8594 824.0483,575.8594 Q822.5327,575.8594 821.3296,575.2344 Q820.3452,574.7344 819.6577,573.6719 Q818.9702,572.5938 818.9702,571.3125 L818.9702,570.1563 Q818.9702,568.8281 819.5796,567.6875 Q820.2046,566.5313 821.2983,565.9219 Q822.3921,565.2969 823.6264,565.2969 Q824.3608,565.2969 825.0014,565.4688 Q825.6577,565.625 826.2046,565.9844 Z " fill="#000000"/><text fill="#000000" font-family="sans-serif" font-size="14" lengthAdjust="spacing" textLength="95" x="843.9389" y="575.8379">OperationType</text><line style="stroke:#181818;stroke-width:0.5;" x1="761.1889" x2="989.1889" y1="586.1094" y2="586.1094"/><text fill="#000000" font-family="sans-serif" font-size="14" lengthAdjust="spacing" textLength="135" x="766.1889" y="604.6426">+Id: OperationTypeID</text><text fill="#000000" font-family="sans-serif" font-size="14" lengthAdjust="spacing" textLength="88" x="766.1889" y="622.252">+Name: Name</text><text fill="#000000" font-family="sans-serif" font-size="14" lengthAdjust="spacing" textLength="188" x="766.1889" y="639.8613">+Specialization: Specialization</text><text fill="#000000" font-family="sans-serif" font-size="14" lengthAdjust="spacing" textLength="190" x="766.1889" y="657.4707">+RequiredStaff: RequiredStaff</text><text fill="#000000" font-family="sans-serif" font-size="14" lengthAdjust="spacing" textLength="218" x="766.1889" y="675.0801">+PhasesDuration: PhasesDuration</text><line style="stroke:#181818;stroke-width:0.5;" x1="761.1889" x2="989.1889" y1="682.1563" y2="682.1563"/></g><!--class OperationTypeDto--><g id="elem_OperationTypeDto"><rect codeLine="56" fill="#F1F1F1" height="136.0469" id="OperationTypeDto" rx="2.5" ry="2.5" style="stroke:#181818;stroke-width:0.5;" width="230" x="487.1889" y="554.1094"/><ellipse cx="539.4389" cy="570.1094" fill="#ADD1B2" rx="11" ry="11" style="stroke:#181818;stroke-width:1.0;"/><path d="M542.2046,565.9844 Q542.3608,565.7656 542.5483,565.6563 Q542.7358,565.5469 542.9546,565.5469 Q543.3296,565.5469 543.5639,565.8125 Q543.7983,566.0625 543.7983,566.6719 L543.7983,568.125 Q543.7983,568.7344 543.5639,569 Q543.3296,569.2656 542.9546,569.2656 Q542.6108,569.2656 542.4077,569.0625 Q542.2046,568.875 542.0952,568.3594 Q542.0483,568 541.8608,567.8125 Q541.5327,567.4375 540.9233,567.2188 Q540.3139,567 539.6889,567 Q538.9233,567 538.2827,567.3281 Q537.6577,567.6563 537.1577,568.4063 Q536.6733,569.1563 536.6733,570.1875 L536.6733,571.2813 Q536.6733,572.5156 537.5639,573.3438 Q538.4546,574.1563 540.0483,574.1563 Q540.9858,574.1563 541.6421,573.9063 Q542.0327,573.75 542.4546,573.3125 Q542.7202,573.0469 542.8608,572.9688 Q543.0171,572.8906 543.2202,572.8906 Q543.5483,572.8906 543.7983,573.1563 Q544.0639,573.4063 544.0639,573.75 Q544.0639,574.0938 543.7202,574.5 Q543.2202,575.0781 542.4233,575.4063 Q541.3452,575.8594 540.0483,575.8594 Q538.5327,575.8594 537.3296,575.2344 Q536.3452,574.7344 535.6577,573.6719 Q534.9702,572.5938 534.9702,571.3125 L534.9702,570.1563 Q534.9702,568.8281 535.5796,567.6875 Q536.2046,566.5313 537.2983,565.9219 Q538.3921,565.2969 539.6264,565.2969 Q540.3608,565.2969 541.0014,565.4688 Q541.6577,565.625 542.2046,565.9844 Z " fill="#000000"/><text fill="#000000" font-family="sans-serif" font-size="14" lengthAdjust="spacing" textLength="117" x="559.9389" y="575.8379">OperationTypeDto</text><line style="stroke:#181818;stroke-width:0.5;" x1="488.1889" x2="716.1889" y1="586.1094" y2="586.1094"/><text fill="#000000" font-family="sans-serif" font-size="14" lengthAdjust="spacing" textLength="135" x="493.1889" y="604.6426">+Id: OperationTypeID</text><text fill="#000000" font-family="sans-serif" font-size="14" lengthAdjust="spacing" textLength="88" x="493.1889" y="622.252">+Name: Name</text><text fill="#000000" font-family="sans-serif" font-size="14" lengthAdjust="spacing" textLength="188" x="493.1889" y="639.8613">+Specialization: Specialization</text><text fill="#000000" font-family="sans-serif" font-size="14" lengthAdjust="spacing" textLength="190" x="493.1889" y="657.4707">+RequiredStaff: RequiredStaff</text><text fill="#000000" font-family="sans-serif" font-size="14" lengthAdjust="spacing" textLength="218" x="493.1889" y="675.0801">+PhasesDuration: PhasesDuration</text><line style="stroke:#181818;stroke-width:0.5;" x1="488.1889" x2="716.1889" y1="682.1563" y2="682.1563"/></g><!--class RequiredStaff--><g id="elem_RequiredStaff"><rect codeLine="64" fill="#F1F1F1" height="65.6094" id="RequiredStaff" rx="2.5" ry="2.5" style="stroke:#181818;stroke-width:0.5;" width="258" x="760.1889" y="811.6094"/><ellipse cx="841.4389" cy="827.6094" fill="#ADD1B2" rx="11" ry="11" style="stroke:#181818;stroke-width:1.0;"/><path d="M844.2046,823.4844 Q844.3608,823.2656 844.5483,823.1563 Q844.7358,823.0469 844.9546,823.0469 Q845.3296,823.0469 845.5639,823.3125 Q845.7983,823.5625 845.7983,824.1719 L845.7983,825.625 Q845.7983,826.2344 845.5639,826.5 Q845.3296,826.7656 844.9546,826.7656 Q844.6108,826.7656 844.4077,826.5625 Q844.2046,826.375 844.0952,825.8594 Q844.0483,825.5 843.8608,825.3125 Q843.5327,824.9375 842.9233,824.7188 Q842.3139,824.5 841.6889,824.5 Q840.9233,824.5 840.2827,824.8281 Q839.6577,825.1563 839.1577,825.9063 Q838.6733,826.6563 838.6733,827.6875 L838.6733,828.7813 Q838.6733,830.0156 839.5639,830.8438 Q840.4546,831.6563 842.0483,831.6563 Q842.9858,831.6563 843.6421,831.4063 Q844.0327,831.25 844.4546,830.8125 Q844.7202,830.5469 844.8608,830.4688 Q845.0171,830.3906 845.2202,830.3906 Q845.5483,830.3906 845.7983,830.6563 Q846.0639,830.9063 846.0639,831.25 Q846.0639,831.5938 845.7202,832 Q845.2202,832.5781 844.4233,832.9063 Q843.3452,833.3594 842.0483,833.3594 Q840.5327,833.3594 839.3296,832.7344 Q838.3452,832.2344 837.6577,831.1719 Q836.9702,830.0938 836.9702,828.8125 L836.9702,827.6563 Q836.9702,826.3281 837.5796,825.1875 Q838.2046,824.0313 839.2983,823.4219 Q840.3921,822.7969 841.6264,822.7969 Q842.3608,822.7969 843.0014,822.9688 Q843.6577,823.125 844.2046,823.4844 Z " fill="#000000"/><text fill="#000000" font-family="sans-serif" font-size="14" lengthAdjust="spacing" textLength="87" x="861.9389" y="833.3379">RequiredStaff</text><line style="stroke:#181818;stroke-width:0.5;" x1="761.1889" x2="1017.1889" y1="843.6094" y2="843.6094"/><text fill="#000000" font-family="sans-serif" font-size="14" lengthAdjust="spacing" textLength="246" x="766.1889" y="862.1426">-_staff: Dictionary&lt;Role, StaffQuantity&gt;</text><line style="stroke:#181818;stroke-width:0.5;" x1="761.1889" x2="1017.1889" y1="869.2188" y2="869.2188"/></g><g id="elem_GMN10"><path d="M1053.1889,831.6094 L1053.1889,840.6094 L1018.6189,844.6094 L1053.1889,848.6094 L1053.1889,857.9609 A0,0 0 0 0 1053.1889,857.9609 L1397.1889,857.9609 A0,0 0 0 0 1397.1889,857.9609 L1397.1889,841.6094 L1387.1889,831.6094 L1053.1889,831.6094 A0,0 0 0 0 1053.1889,831.6094 " fill="#FEFFDD" style="stroke:#181818;stroke-width:0.5;"/><path d="M1387.1889,831.6094 L1387.1889,841.6094 L1397.1889,841.6094 L1387.1889,831.6094 " fill="#FEFFDD" style="stroke:#181818;stroke-width:0.5;"/><text fill="#000000" font-family="sans-serif" font-size="13" lengthAdjust="spacing" textLength="323" x="1059.1889" y="850.1045">Role can only be a staff role: Doctor, Nurse or Assistant</text></g><!--class StaffQuantity--><g id="elem_StaffQuantity"><rect codeLine="71" fill="#F1F1F1" height="65.6094" id="StaffQuantity" rx="2.5" ry="2.5" style="stroke:#181818;stroke-width:0.5;" width="114" x="1077.1889" y="937.6094"/><ellipse cx="1092.1889" cy="953.6094" fill="#ADD1B2" rx="11" ry="11" style="stroke:#181818;stroke-width:1.0;"/><path d="M1094.9546,949.4844 Q1095.1108,949.2656 1095.2983,949.1563 Q1095.4858,949.0469 1095.7046,949.0469 Q1096.0796,949.0469 1096.3139,949.3125 Q1096.5483,949.5625 1096.5483,950.1719 L1096.5483,951.625 Q1096.5483,952.2344 1096.3139,952.5 Q1096.0796,952.7656 1095.7046,952.7656 Q1095.3608,952.7656 1095.1577,952.5625 Q1094.9546,952.375 1094.8452,951.8594 Q1094.7983,951.5 1094.6108,951.3125 Q1094.2827,950.9375 1093.6733,950.7188 Q1093.0639,950.5 1092.4389,950.5 Q1091.6733,950.5 1091.0327,950.8281 Q1090.4077,951.1563 1089.9077,951.9063 Q1089.4233,952.6563 1089.4233,953.6875 L1089.4233,954.7813 Q1089.4233,956.0156 1090.3139,956.8438 Q1091.2046,957.6563 1092.7983,957.6563 Q1093.7358,957.6563 1094.3921,957.4063 Q1094.7827,957.25 1095.2046,956.8125 Q1095.4702,956.5469 1095.6108,956.4688 Q1095.7671,956.3906 1095.9702,956.3906 Q1096.2983,956.3906 1096.5483,956.6563 Q1096.8139,956.9063 1096.8139,957.25 Q1096.8139,957.5938 1096.4702,958 Q1095.9702,958.5781 1095.1733,958.9063 Q1094.0952,959.3594 1092.7983,959.3594 Q1091.2827,959.3594 1090.0796,958.7344 Q1089.0952,958.2344 1088.4077,957.1719 Q1087.7202,956.0938 1087.7202,954.8125 L1087.7202,953.6563 Q1087.7202,952.3281 1088.3296,951.1875 Q1088.9546,950.0313 1090.0483,949.4219 Q1091.1421,948.7969 1092.3764,948.7969 Q1093.1108,948.7969 1093.7514,948.9688 Q1094.4077,949.125 1094.9546,949.4844 Z " fill="#000000"/><text fill="#000000" font-family="sans-serif" font-size="14" lengthAdjust="spacing" textLength="82" x="1106.1889" y="959.3379">StaffQuantity</text><line style="stroke:#181818;stroke-width:0.5;" x1="1078.1889" x2="1190.1889" y1="969.6094" y2="969.6094"/><text fill="#000000" font-family="sans-serif" font-size="14" lengthAdjust="spacing" textLength="84" x="1083.1889" y="988.1426">+Quantity: int</text><line style="stroke:#181818;stroke-width:0.5;" x1="1078.1889" x2="1190.1889" y1="995.2188" y2="995.2188"/></g><g id="elem_GMN14"><path d="M1226.6889,957.6094 L1226.6889,966.6094 L1191.3789,970.6094 L1226.6889,974.6094 L1226.6889,983.9609 A0,0 0 0 0 1226.6889,983.9609 L1431.6889,983.9609 A0,0 0 0 0 1431.6889,983.9609 L1431.6889,967.6094 L1421.6889,957.6094 L1226.6889,957.6094 A0,0 0 0 0 1226.6889,957.6094 " fill="#FEFFDD" style="stroke:#181818;stroke-width:0.5;"/><path d="M1421.6889,957.6094 L1421.6889,967.6094 L1431.6889,967.6094 L1421.6889,957.6094 " fill="#FEFFDD" style="stroke:#181818;stroke-width:0.5;"/><text fill="#000000" font-family="sans-serif" font-size="13" lengthAdjust="spacing" textLength="184" x="1232.6889" y="976.1045">Quantity must be greater than 0</text></g><!--class Specialization--><g id="elem_Specialization"><rect codeLine="78" fill="#F1F1F1" height="65.6094" id="Specialization" rx="2.5" ry="2.5" style="stroke:#181818;stroke-width:0.5;" width="178" x="252.1889" y="811.6094"/><ellipse cx="294.1889" cy="827.6094" fill="#ADD1B2" rx="11" ry="11" style="stroke:#181818;stroke-width:1.0;"/><path d="M296.9546,823.4844 Q297.1108,823.2656 297.2983,823.1563 Q297.4858,823.0469 297.7046,823.0469 Q298.0796,823.0469 298.3139,823.3125 Q298.5483,823.5625 298.5483,824.1719 L298.5483,825.625 Q298.5483,826.2344 298.3139,826.5 Q298.0796,826.7656 297.7046,826.7656 Q297.3608,826.7656 297.1577,826.5625 Q296.9546,826.375 296.8452,825.8594 Q296.7983,825.5 296.6108,825.3125 Q296.2827,824.9375 295.6733,824.7188 Q295.0639,824.5 294.4389,824.5 Q293.6733,824.5 293.0327,824.8281 Q292.4077,825.1563 291.9077,825.9063 Q291.4233,826.6563 291.4233,827.6875 L291.4233,828.7813 Q291.4233,830.0156 292.3139,830.8438 Q293.2046,831.6563 294.7983,831.6563 Q295.7358,831.6563 296.3921,831.4063 Q296.7827,831.25 297.2046,830.8125 Q297.4702,830.5469 297.6108,830.4688 Q297.7671,830.3906 297.9702,830.3906 Q298.2983,830.3906 298.5483,830.6563 Q298.8139,830.9063 298.8139,831.25 Q298.8139,831.5938 298.4702,832 Q297.9702,832.5781 297.1733,832.9063 Q296.0952,833.3594 294.7983,833.3594 Q293.2827,833.3594 292.0796,832.7344 Q291.0952,832.2344 290.4077,831.1719 Q289.7202,830.0938 289.7202,828.8125 L289.7202,827.6563 Q289.7202,826.3281 290.3296,825.1875 Q290.9546,824.0313 292.0483,823.4219 Q293.1421,822.7969 294.3764,822.7969 Q295.1108,822.7969 295.7514,822.9688 Q296.4077,823.125 296.9546,823.4844 Z " fill="#000000"/><text fill="#000000" font-family="sans-serif" font-size="14" lengthAdjust="spacing" textLength="86" x="314.1889" y="833.3379">Specialization</text><line style="stroke:#181818;stroke-width:0.5;" x1="253.1889" x2="429.1889" y1="843.6094" y2="843.6094"/><text fill="#000000" font-family="sans-serif" font-size="14" lengthAdjust="spacing" textLength="166" x="258.1889" y="862.1426">+Designation: Designation</text><line style="stroke:#181818;stroke-width:0.5;" x1="253.1889" x2="429.1889" y1="869.2188" y2="869.2188"/></g><!--class PhasesDuration--><g id="elem_PhasesDuration"><rect codeLine="82" fill="#F1F1F1" height="65.6094" id="PhasesDuration" rx="2.5" ry="2.5" style="stroke:#181818;stroke-width:0.5;" width="260" x="465.1889" y="811.6094"/><ellipse cx="540.4389" cy="827.6094" fill="#ADD1B2" rx="11" ry="11" style="stroke:#181818;stroke-width:1.0;"/><path d="M543.2046,823.4844 Q543.3608,823.2656 543.5483,823.1563 Q543.7358,823.0469 543.9546,823.0469 Q544.3296,823.0469 544.5639,823.3125 Q544.7983,823.5625 544.7983,824.1719 L544.7983,825.625 Q544.7983,826.2344 544.5639,826.5 Q544.3296,826.7656 543.9546,826.7656 Q543.6108,826.7656 543.4077,826.5625 Q543.2046,826.375 543.0952,825.8594 Q543.0483,825.5 542.8608,825.3125 Q542.5327,824.9375 541.9233,824.7188 Q541.3139,824.5 540.6889,824.5 Q539.9233,824.5 539.2827,824.8281 Q538.6577,825.1563 538.1577,825.9063 Q537.6733,826.6563 537.6733,827.6875 L537.6733,828.7813 Q537.6733,830.0156 538.5639,830.8438 Q539.4546,831.6563 541.0483,831.6563 Q541.9858,831.6563 542.6421,831.4063 Q543.0327,831.25 543.4546,830.8125 Q543.7202,830.5469 543.8608,830.4688 Q544.0171,830.3906 544.2202,830.3906 Q544.5483,830.3906 544.7983,830.6563 Q545.0639,830.9063 545.0639,831.25 Q545.0639,831.5938 544.7202,832 Q544.2202,832.5781 543.4233,832.9063 Q542.3452,833.3594 541.0483,833.3594 Q539.5327,833.3594 538.3296,832.7344 Q537.3452,832.2344 536.6577,831.1719 Q535.9702,830.0938 535.9702,828.8125 L535.9702,827.6563 Q535.9702,826.3281 536.5796,825.1875 Q537.2046,824.0313 538.2983,823.4219 Q539.3921,822.7969 540.6264,822.7969 Q541.3608,822.7969 542.0014,822.9688 Q542.6577,823.125 543.2046,823.4844 Z " fill="#000000"/><text fill="#000000" font-family="sans-serif" font-size="14" lengthAdjust="spacing" textLength="101" x="560.9389" y="833.3379">PhasesDuration</text><line style="stroke:#181818;stroke-width:0.5;" x1="466.1889" x2="724.1889" y1="843.6094" y2="843.6094"/><text fill="#000000" font-family="sans-serif" font-size="14" lengthAdjust="spacing" textLength="248" x="471.1889" y="862.1426">-_phases: Dictionary&lt;Phase, Duration&gt;</text><line style="stroke:#181818;stroke-width:0.5;" x1="466.1889" x2="724.1889" y1="869.2188" y2="869.2188"/></g><!--class Phase--><g id="elem_Phase"><rect codeLine="86" fill="#F1F1F1" height="65.6094" id="Phase" rx="2.5" ry="2.5" style="stroke:#181818;stroke-width:0.5;" width="260" x="266.1889" y="937.6094"/><ellipse cx="371.9389" cy="953.6094" fill="#EB937F" rx="11" ry="11" style="stroke:#181818;stroke-width:1.0;"/><path d="M370.7983,954.4063 L370.7983,956.9063 L375.1264,956.9063 L375.1264,955.9844 Q375.1264,955.375 375.3608,955.1094 Q375.6108,954.8438 375.9858,954.8438 Q376.3608,954.8438 376.5952,955.1094 Q376.8296,955.375 376.8296,955.9844 L376.8296,958.6094 L368.8296,958.6094 Q368.2046,958.6094 367.9389,958.375 Q367.6889,958.1406 367.6889,957.75 Q367.6889,957.375 367.9546,957.1406 Q368.2202,956.9063 368.8296,956.9063 L369.0952,956.9063 L369.0952,950.25 L368.8296,950.25 Q368.2046,950.25 367.9389,950.0156 Q367.6889,949.7813 367.6889,949.3906 Q367.6889,949.0156 367.9389,948.7813 Q368.2046,948.5469 368.8296,948.5469 L376.4546,948.5469 L376.4546,951.1406 Q376.4546,951.75 376.2202,952.0156 Q376.0014,952.2656 375.6108,952.2656 Q375.2358,952.2656 375.0014,952.0156 Q374.7671,951.75 374.7671,951.1406 L374.7671,950.25 L370.7983,950.25 L370.7983,952.7031 L372.2827,952.7031 Q372.2827,952.0469 372.4077,951.8594 Q372.6733,951.4531 373.1421,951.4531 Q373.5171,951.4531 373.7514,951.7188 Q373.9858,951.9688 373.9858,952.5781 L373.9858,954.5469 Q373.9858,955.0938 373.8608,955.2813 Q373.5952,955.6719 373.1421,955.6719 Q372.6733,955.6719 372.4077,955.2656 Q372.2827,955.0781 372.2827,954.4063 L370.7983,954.4063 Z " fill="#000000"/><text fill="#000000" font-family="sans-serif" font-size="14" lengthAdjust="spacing" textLength="40" x="392.4389" y="959.3379">Phase</text><line style="stroke:#181818;stroke-width:0.5;" x1="267.1889" x2="525.1889" y1="969.6094" y2="969.6094"/><text fill="#000000" font-family="sans-serif" font-size="14" lengthAdjust="spacing" textLength="248" x="272.1889" y="988.1426">PREPARATION, SURGERY, CLEANING</text><line style="stroke:#181818;stroke-width:0.5;" x1="267.1889" x2="525.1889" y1="995.2188" y2="995.2188"/></g><!--class Duration--><g id="elem_Duration"><rect codeLine="90" fill="#F1F1F1" height="65.6094" id="Duration" rx="2.5" ry="2.5" style="stroke:#181818;stroke-width:0.5;" width="92" x="561.1889" y="937.6094"/><ellipse cx="578.8889" cy="953.6094" fill="#ADD1B2" rx="11" ry="11" style="stroke:#181818;stroke-width:1.0;"/><path d="M581.6546,949.4844 Q581.8108,949.2656 581.9983,949.1563 Q582.1858,949.0469 582.4046,949.0469 Q582.7796,949.0469 583.0139,949.3125 Q583.2483,949.5625 583.2483,950.1719 L583.2483,951.625 Q583.2483,952.2344 583.0139,952.5 Q582.7796,952.7656 582.4046,952.7656 Q582.0608,952.7656 581.8577,952.5625 Q581.6546,952.375 581.5452,951.8594 Q581.4983,951.5 581.3108,951.3125 Q580.9827,950.9375 580.3733,950.7188 Q579.7639,950.5 579.1389,950.5 Q578.3733,950.5 577.7327,950.8281 Q577.1077,951.1563 576.6077,951.9063 Q576.1233,952.6563 576.1233,953.6875 L576.1233,954.7813 Q576.1233,956.0156 577.0139,956.8438 Q577.9046,957.6563 579.4983,957.6563 Q580.4358,957.6563 581.0921,957.4063 Q581.4827,957.25 581.9046,956.8125 Q582.1702,956.5469 582.3108,956.4688 Q582.4671,956.3906 582.6702,956.3906 Q582.9983,956.3906 583.2483,956.6563 Q583.5139,956.9063 583.5139,957.25 Q583.5139,957.5938 583.1702,958 Q582.6702,958.5781 581.8733,958.9063 Q580.7952,959.3594 579.4983,959.3594 Q577.9827,959.3594 576.7796,958.7344 Q575.7952,958.2344 575.1077,957.1719 Q574.4202,956.0938 574.4202,954.8125 L574.4202,953.6563 Q574.4202,952.3281 575.0296,951.1875 Q575.6546,950.0313 576.7483,949.4219 Q577.8421,948.7969 579.0764,948.7969 Q579.8108,948.7969 580.4514,948.9688 Q581.1077,949.125 581.6546,949.4844 Z " fill="#000000"/><text fill="#000000" font-family="sans-serif" font-size="14" lengthAdjust="spacing" textLength="54" x="593.4889" y="959.3379">Duration</text><line style="stroke:#181818;stroke-width:0.5;" x1="562.1889" x2="652.1889" y1="969.6094" y2="969.6094"/><text fill="#000000" font-family="sans-serif" font-size="14" lengthAdjust="spacing" textLength="80" x="567.1889" y="988.1426">+Minutes: int</text><line style="stroke:#181818;stroke-width:0.5;" x1="562.1889" x2="652.1889" y1="995.2188" y2="995.2188"/></g><!--class Name--><g id="elem_Name"><rect codeLine="94" fill="#F1F1F1" height="65.6094" id="Name" rx="2.5" ry="2.5" style="stroke:#181818;stroke-width:0.5;" width="99" x="117.6889" y="811.6094"/><ellipse cx="146.6389" cy="827.6094" fill="#ADD1B2" rx="11" ry="11" style="stroke:#181818;stroke-width:1.0;"/><path d="M149.4046,823.4844 Q149.5608,823.2656 149.7483,823.1563 Q149.9358,823.0469 150.1546,823.0469 Q150.5296,823.0469 150.7639,823.3125 Q150.9983,823.5625 150.9983,824.1719 L150.9983,825.625 Q150.9983,826.2344 150.7639,826.5 Q150.5296,826.7656 150.1546,826.7656 Q149.8108,826.7656 149.6077,826.5625 Q149.4046,826.375 149.2952,825.8594 Q149.2483,825.5 149.0608,825.3125 Q148.7327,824.9375 148.1233,824.7188 Q147.5139,824.5 146.8889,824.5 Q146.1233,824.5 145.4827,824.8281 Q144.8577,825.1563 144.3577,825.9063 Q143.8733,826.6563 143.8733,827.6875 L143.8733,828.7813 Q143.8733,830.0156 144.7639,830.8438 Q145.6546,831.6563 147.2483,831.6563 Q148.1858,831.6563 148.8421,831.4063 Q149.2327,831.25 149.6546,830.8125 Q149.9202,830.5469 150.0608,830.4688 Q150.2171,830.3906 150.4202,830.3906 Q150.7483,830.3906 150.9983,830.6563 Q151.2639,830.9063 151.2639,831.25 Q151.2639,831.5938 150.9202,832 Q150.4202,832.5781 149.6233,832.9063 Q148.5452,833.3594 147.2483,833.3594 Q145.7327,833.3594 144.5296,832.7344 Q143.5452,832.2344 142.8577,831.1719 Q142.1702,830.0938 142.1702,828.8125 L142.1702,827.6563 Q142.1702,826.3281 142.7796,825.1875 Q143.4046,824.0313 144.4983,823.4219 Q145.5921,822.7969 146.8264,822.7969 Q147.5608,822.7969 148.2014,822.9688 Q148.8577,823.125 149.4046,823.4844 Z " fill="#000000"/><text fill="#000000" font-family="sans-serif" font-size="14" lengthAdjust="spacing" textLength="36" x="163.7389" y="833.3379">Name</text><line style="stroke:#181818;stroke-width:0.5;" x1="118.6889" x2="215.6889" y1="843.6094" y2="843.6094"/><text fill="#000000" font-family="sans-serif" font-size="14" lengthAdjust="spacing" textLength="87" x="123.6889" y="862.1426">+Name: string</text><line style="stroke:#181818;stroke-width:0.5;" x1="118.6889" x2="215.6889" y1="869.2188" y2="869.2188"/></g><!--class OperationTypeID--><g id="elem_OperationTypeID"><rect codeLine="98" fill="#F1F1F1" height="65.6094" id="OperationTypeID" rx="2.5" ry="2.5" style="stroke:#181818;stroke-width:0.5;" width="140" x="1432.1889" y="811.6094"/><ellipse cx="1447.1889" cy="827.6094" fill="#ADD1B2" rx="11" ry="11" style="stroke:#181818;stroke-width:1.0;"/><path d="M1449.9546,823.4844 Q1450.1108,823.2656 1450.2983,823.1563 Q1450.4858,823.0469 1450.7046,823.0469 Q1451.0796,823.0469 1451.3139,823.3125 Q1451.5483,823.5625 1451.5483,824.1719 L1451.5483,825.625 Q1451.5483,826.2344 1451.3139,826.5 Q1451.0796,826.7656 1450.7046,826.7656 Q1450.3608,826.7656 1450.1577,826.5625 Q1449.9546,826.375 1449.8452,825.8594 Q1449.7983,825.5 1449.6108,825.3125 Q1449.2827,824.9375 1448.6733,824.7188 Q1448.0639,824.5 1447.4389,824.5 Q1446.6733,824.5 1446.0327,824.8281 Q1445.4077,825.1563 1444.9077,825.9063 Q1444.4233,826.6563 1444.4233,827.6875 L1444.4233,828.7813 Q1444.4233,830.0156 1445.3139,830.8438 Q1446.2046,831.6563 1447.7983,831.6563 Q1448.7358,831.6563 1449.3921,831.4063 Q1449.7827,831.25 1450.2046,830.8125 Q1450.4702,830.5469 1450.6108,830.4688 Q1450.7671,830.3906 1450.9702,830.3906 Q1451.2983,830.3906 1451.5483,830.6563 Q1451.8139,830.9063 1451.8139,831.25 Q1451.8139,831.5938 1451.4702,832 Q1450.9702,832.5781 1450.1733,832.9063 Q1449.0952,833.3594 1447.7983,833.3594 Q1446.2827,833.3594 1445.0796,832.7344 Q1444.0952,832.2344 1443.4077,831.1719 Q1442.7202,830.0938 1442.7202,828.8125 L1442.7202,827.6563 Q1442.7202,826.3281 1443.3296,825.1875 Q1443.9546,824.0313 1445.0483,823.4219 Q1446.1421,822.7969 1447.3764,822.7969 Q1448.1108,822.7969 1448.7514,822.9688 Q1449.4077,823.125 1449.9546,823.4844 Z " fill="#000000"/><text fill="#000000" font-family="sans-serif" font-size="14" lengthAdjust="spacing" textLength="108" x="1461.1889" y="833.3379">OperationTypeID</text><line style="stroke:#181818;stroke-width:0.5;" x1="1433.1889" x2="1571.1889" y1="843.6094" y2="843.6094"/><text fill="#000000" font-family="sans-serif" font-size="14" lengthAdjust="spacing" textLength="57" x="1438.1889" y="862.1426">+Id: Guid</text><line style="stroke:#181818;stroke-width:0.5;" x1="1433.1889" x2="1571.1889" y1="869.2188" y2="869.2188"/></g><!--class Role--><g id="elem_Role"><rect codeLine="102" fill="#F1F1F1" height="65.6094" id="Role" rx="2.5" ry="2.5" style="stroke:#181818;stroke-width:0.5;" width="330" x="712.1889" y="937.6094"/><ellipse cx="858.4389" cy="953.6094" fill="#EB937F" rx="11" ry="11" style="stroke:#181818;stroke-width:1.0;"/><path d="M857.2983,954.4063 L857.2983,956.9063 L861.6264,956.9063 L861.6264,955.9844 Q861.6264,955.375 861.8608,955.1094 Q862.1108,954.8438 862.4858,954.8438 Q862.8608,954.8438 863.0952,955.1094 Q863.3296,955.375 863.3296,955.9844 L863.3296,958.6094 L855.3296,958.6094 Q854.7046,958.6094 854.4389,958.375 Q854.1889,958.1406 854.1889,957.75 Q854.1889,957.375 854.4546,957.1406 Q854.7202,956.9063 855.3296,956.9063 L855.5952,956.9063 L855.5952,950.25 L855.3296,950.25 Q854.7046,950.25 854.4389,950.0156 Q854.1889,949.7813 854.1889,949.3906 Q854.1889,949.0156 854.4389,948.7813 Q854.7046,948.5469 855.3296,948.5469 L862.9546,948.5469 L862.9546,951.1406 Q862.9546,951.75 862.7202,952.0156 Q862.5014,952.2656 862.1108,952.2656 Q861.7358,952.2656 861.5014,952.0156 Q861.2671,951.75 861.2671,951.1406 L861.2671,950.25 L857.2983,950.25 L857.2983,952.7031 L858.7827,952.7031 Q858.7827,952.0469 858.9077,951.8594 Q859.1733,951.4531 859.6421,951.4531 Q860.0171,951.4531 860.2514,951.7188 Q860.4858,951.9688 860.4858,952.5781 L860.4858,954.5469 Q860.4858,955.0938 860.3608,955.2813 Q860.0952,955.6719 859.6421,955.6719 Q859.1733,955.6719 858.9077,955.2656 Q858.7827,955.0781 858.7827,954.4063 L857.2983,954.4063 Z " fill="#000000"/><text fill="#000000" font-family="sans-serif" font-size="14" lengthAdjust="spacing" textLength="29" x="878.9389" y="959.3379">Role</text><line style="stroke:#181818;stroke-width:0.5;" x1="713.1889" x2="1041.1889" y1="969.6094" y2="969.6094"/><text fill="#000000" font-family="sans-serif" font-size="14" lengthAdjust="spacing" textLength="318" x="718.1889" y="988.1426">ADMIN, DOCTOR, NURSE, TECHNICIAN, PATIENT</text><line style="stroke:#181818;stroke-width:0.5;" x1="713.1889" x2="1041.1889" y1="995.2188" y2="995.2188"/></g><!--link OperationTypeController to OperationTypeService--><g id="link_OperationTypeController_OperationTypeService"><path codeLine="106" d="M317.1889,128.6394 C317.1889,147.0994 317.1889,162.9994 317.1889,182.4194 " fill="none" id="OperationTypeController-to-OperationTypeService" style="stroke:#181818;stroke-width:1.0;stroke-dasharray:7.0,7.0;"/><polygon fill="#181818" points="317.1889,188.4194,321.1889,179.4194,317.1889,183.4194,313.1889,179.4194,317.1889,188.4194" style="stroke:#181818;stroke-width:1.0;"/><polygon fill="#000000" points="279.1889,154.7052,282.1279,145.6601,276.25,145.6601,279.1889,154.7052" style="stroke:#000000;stroke-width:1.0;"/><text fill="#000000" font-family="sans-serif" font-size="13" lengthAdjust="spacing" textLength="28" x="288.1889" y="155.0245">uses</text></g><!--link OperationTypeController to CreatingOperationTypeDto--><g id="link_OperationTypeController_CreatingOperationTypeDto"><path codeLine="107" d="M71.9389,128.6494 C71.9389,205.7394 71.9389,367.8694 71.9389,486.3794 " fill="none" id="OperationTypeController-to-CreatingOperationTypeDto" style="stroke:#181818;stroke-width:1.0;"/><polygon fill="#181818" points="71.9389,492.3794,75.9389,483.3794,71.9389,487.3794,67.9389,483.3794,71.9389,492.3794" style="stroke:#181818;stroke-width:1.0;"/><polygon fill="#000000" points="18.9389,306.6852,21.8779,297.6401,16,297.6401,18.9389,306.6852" style="stroke:#000000;stroke-width:1.0;"/><text fill="#000000" font-family="sans-serif" font-size="13" lengthAdjust="spacing" textLength="43" x="27.9389" y="307.0045">creates</text></g><!--link OperationTypeController to OperationTypeDto--><g id="link_OperationTypeController_OperationTypeDto"><path codeLine="108" d="M567.9389,128.6494 C567.9389,220.4694 567.9389,435.4494 567.9389,547.8994 " fill="none" id="OperationTypeController-to-OperationTypeDto" style="stroke:#181818;stroke-width:1.0;"/><polygon fill="#181818" points="567.9389,553.8994,571.9389,544.8994,567.9389,548.8994,563.9389,544.8994,567.9389,553.8994" style="stroke:#181818;stroke-width:1.0;"/><polygon fill="#000000" points="517.9389,337.4452,520.8779,328.4001,515,328.4001,517.9389,337.4452" style="stroke:#000000;stroke-width:1.0;"/><text fill="#000000" font-family="sans-serif" font-size="13" lengthAdjust="spacing" textLength="40" x="526.9389" y="337.7645">returns</text></g><!--link OperationTypeService to OperationTypeRepository--><g id="link_OperationTypeService_OperationTypeRepository"><path codeLine="110" d="M549.5389,225.6094 C607.2289,225.6094 662.8989,225.6094 720.0289,225.6094 " fill="none" id="OperationTypeService-to-OperationTypeRepository" style="stroke:#181818;stroke-width:1.0;"/><polygon fill="#181818" points="726.0289,225.6094,717.0289,221.6094,721.0289,225.6094,717.0289,229.6094,726.0289,225.6094" style="stroke:#181818;stroke-width:1.0;"/><polygon fill="#000000" points="604.7889,216.7852,595.7438,213.8462,595.7438,219.7241,604.7889,216.7852" style="stroke:#000000;stroke-width:1.0;"/><text fill="#000000" font-family="sans-serif" font-size="13" lengthAdjust="spacing" textLength="28" x="608.7889" y="222.1045">uses</text></g><!--link OperationTypeService to CreatingOperationTypeDto--><g id="link_OperationTypeService_CreatingOperationTypeDto"><path codeLine="111" d="M268.4389,289.9694 C268.4389,341.3494 268.4389,416.8294 268.4389,486.2294 " fill="none" id="OperationTypeService-to-CreatingOperationTypeDto" style="stroke:#181818;stroke-width:1.0;"/><polygon fill="#181818" points="268.4389,492.2294,272.4389,483.2294,268.4389,487.2294,264.4389,483.2294,268.4389,492.2294" style="stroke:#181818;stroke-width:1.0;"/><polygon fill="#000000" points="230.4389,387.2752,233.3779,378.2301,227.5,378.2301,230.4389,387.2752" style="stroke:#000000;stroke-width:1.0;"/><text fill="#000000" font-family="sans-serif" font-size="13" lengthAdjust="spacing" textLength="28" x="239.4389" y="387.5945">uses</text></g><!--link OperationTypeService to OperationType--><g id="link_OperationTypeService_OperationType"><path codeLine="112" d="M528.5189,289.6494 C528.5189,371.3994 528.5189,523.6094 528.5189,523.6094 C528.5189,523.6094 836.8589,523.6094 836.8589,523.6094 C836.8589,523.6094 836.8589,531.0294 836.8589,547.9694 " fill="none" id="OperationTypeService-to-OperationType" style="stroke:#181818;stroke-width:1.0;"/><polygon fill="#181818" points="836.8589,553.9694,840.8589,544.9694,836.8589,548.9694,832.8589,544.9694,836.8589,553.9694" style="stroke:#181818;stroke-width:1.0;"/><polygon fill="#000000" points="531.7216,517.9961,526.6755,509.9346,522.9008,514.4402,531.7216,517.9961" style="stroke:#000000;stroke-width:1.0;"/><text fill="#000000" font-family="sans-serif" font-size="13" lengthAdjust="spacing" textLength="43" x="536.8889" y="520.1045">creates</text></g><!--link OperationTypeService to OperationTypeDto--><g id="link_OperationTypeService_OperationTypeDto"><path codeLine="113" d="M507.8589,289.9694 C507.8589,357.8294 507.8589,472.2094 507.8589,547.8894 " fill="none" id="OperationTypeService-to-OperationTypeDto" style="stroke:#181818;stroke-width:1.0;"/><polygon fill="#181818" points="507.8589,553.8894,511.8589,544.8894,507.8589,548.8894,503.8589,544.8894,507.8589,553.8894" style="stroke:#181818;stroke-width:1.0;"/><polygon fill="#000000" points="454.8589,418.1052,457.7979,409.0601,451.92,409.0601,454.8589,418.1052" style="stroke:#000000;stroke-width:1.0;"/><text fill="#000000" font-family="sans-serif" font-size="13" lengthAdjust="spacing" textLength="43" x="463.8589" y="418.4245">creates</text></g><!--link OperationTypeRepository to IOperationTypeRepository--><g id="link_OperationTypeRepository_IOperationTypeRepository"><path codeLine="115" d="M947.1889,280.6394 C947.1889,301.9994 947.1889,321.9694 947.1889,343.3594 " fill="none" id="OperationTypeRepository-to-IOperationTypeRepository" style="stroke:#181818;stroke-width:1.0;"/><polygon fill="#181818" points="947.1889,349.3594,951.1889,340.3594,947.1889,344.3594,943.1889,340.3594,947.1889,349.3594" style="stroke:#181818;stroke-width:1.0;"/><polygon fill="#000000" points="870.1889,311.1752,873.1279,302.1301,867.25,302.1301,870.1889,311.1752" style="stroke:#000000;stroke-width:1.0;"/><text fill="#000000" font-family="sans-serif" font-size="13" lengthAdjust="spacing" textLength="67" x="879.1889" y="311.4945">implements</text></g><!--link OperationTypeRepository to OperationType--><g id="link_OperationTypeRepository_OperationType"><path codeLine="116" d="M725.9389,253.6094 C722.0189,253.6094 719.8589,253.6094 719.8589,253.6094 C719.8589,253.6094 719.8589,588.6094 719.8589,588.6094 C719.8589,588.6094 730.9789,588.6094 753.8589,588.6094 " fill="none" id="OperationTypeRepository-to-OperationType" style="stroke:#181818;stroke-width:1.0;"/><polygon fill="#181818" points="759.8589,588.6094,750.8589,584.6094,754.8589,588.6094,750.8589,592.6094,759.8589,588.6094" style="stroke:#181818;stroke-width:1.0;"/><polygon fill="#000000" points="606.2742,434.2279,608.4517,424.97,602.5942,425.4581,606.2742,434.2279" style="stroke:#000000;stroke-width:1.0;"/><text fill="#000000" font-family="sans-serif" font-size="13" lengthAdjust="spacing" textLength="104" x="614.8589" y="434.5645">saves in database</text></g><!--link IOperationTypeRepository to OperationType--><g id="link_IOperationTypeRepository_OperationType"><path codeLine="118" d="M913.5189,432.6694 C913.5189,466.3194 913.5189,508.3994 913.5189,547.6994 " fill="none" id="IOperationTypeRepository-to-OperationType" style="stroke:#181818;stroke-width:1.0;"/><polygon fill="#181818" points="913.5189,553.6994,917.5189,544.6994,913.5189,548.6994,909.5189,544.6994,913.5189,553.6994" style="stroke:#181818;stroke-width:1.0;"/><polygon fill="#000000" points="799.5189,489.3652,802.4579,480.3201,796.58,480.3201,799.5189,489.3652" style="stroke:#000000;stroke-width:1.0;"/><text fill="#000000" font-family="sans-serif" font-size="13" lengthAdjust="spacing" textLength="104" x="808.5189" y="489.6845">saves in database</text></g><!--link CreatingOperationTypeDto to Name--><g id="link_CreatingOperationTypeDto_Name"><path codeLine="120" d="M142.4389,751.8594 C142.4389,773.9794 142.4389,789.0994 142.4389,805.5794 " fill="none" id="CreatingOperationTypeDto-to-Name" style="stroke:#181818;stroke-width:1.0;"/><polygon fill="#181818" points="142.4389,811.5794,146.4389,802.5794,142.4389,806.5794,138.4389,802.5794,142.4389,811.5794" style="stroke:#181818;stroke-width:1.0;"/><polygon fill="#000000" points="111.4389,777.8952,114.3779,768.8501,108.5,768.8501,111.4389,777.8952" style="stroke:#000000;stroke-width:1.0;"/><text fill="#000000" font-family="sans-serif" font-size="13" lengthAdjust="spacing" textLength="21" x="120.4389" y="778.2145">has</text></g><!--link CreatingOperationTypeDto to Specialization--><g id="link_CreatingOperationTypeDto_Specialization"><path codeLine="121" d="M311.5189,751.8594 C311.5189,773.9794 311.5189,789.0994 311.5189,805.5794 " fill="none" id="CreatingOperationTypeDto-to-Specialization" style="stroke:#181818;stroke-width:1.0;"/><polygon fill="#181818" points="311.5189,811.5794,315.5189,802.5794,311.5189,806.5794,307.5189,802.5794,311.5189,811.5794" style="stroke:#181818;stroke-width:1.0;"/><polygon fill="#000000" points="280.5189,777.8952,283.4579,768.8501,277.58,768.8501,280.5189,777.8952" style="stroke:#000000;stroke-width:1.0;"/><text fill="#000000" font-family="sans-serif" font-size="13" lengthAdjust="spacing" textLength="21" x="289.5189" y="778.2145">has</text></g><!--link CreatingOperationTypeDto to RequiredStaff--><g id="link_CreatingOperationTypeDto_RequiredStaff"><path codeLine="122" d="M451.9089,721.6094 C625.8589,721.6094 852.1889,721.6094 852.1889,721.6094 C852.1889,721.6094 852.1889,768.8994 852.1889,805.3194 " fill="none" id="CreatingOperationTypeDto-to-RequiredStaff" style="stroke:#181818;stroke-width:1.0;"/><polygon fill="#181818" points="852.1889,811.3194,856.1889,802.3194,852.1889,806.3194,848.1889,802.3194,852.1889,811.3194" style="stroke:#181818;stroke-width:1.0;"/><polygon fill="#000000" points="670.803,713.8087,662.5511,709.0804,661.3479,714.8338,670.803,713.8087" style="stroke:#000000;stroke-width:1.0;"/><text fill="#000000" font-family="sans-serif" font-size="13" lengthAdjust="spacing" textLength="21" x="674.9089" y="718.1045">has</text></g><!--link CreatingOperationTypeDto to PhasesDuration--><g id="link_CreatingOperationTypeDto_PhasesDuration"><path codeLine="123" d="M451.6889,736.6094 C466.7189,736.6094 476.1889,736.6094 476.1889,736.6094 C476.1889,736.6094 476.1889,773.5894 476.1889,805.3294 " fill="none" id="CreatingOperationTypeDto-to-PhasesDuration" style="stroke:#181818;stroke-width:1.0;"/><polygon fill="#181818" points="476.1889,811.3294,480.1889,802.3294,476.1889,806.3294,472.1889,802.3294,476.1889,811.3294" style="stroke:#181818;stroke-width:1.0;"/><polygon fill="#000000" points="446.868,775.6048,446.5988,766.098,441.0623,768.0719,446.868,775.6048" style="stroke:#000000;stroke-width:1.0;"/><text fill="#000000" font-family="sans-serif" font-size="13" lengthAdjust="spacing" textLength="21" x="454.1889" y="776.2145">has</text></g><!--link OperationType to OperationTypeID--><g id="link_OperationType_OperationTypeID"><path codeLine="125" d="M990.3289,622.6094 C1177.1189,622.6094 1525.5189,622.6094 1525.5189,622.6094 C1525.5189,622.6094 1525.5189,743.4394 1525.5189,805.3694 " fill="none" id="OperationType-to-OperationTypeID" style="stroke:#181818;stroke-width:1.0;"/><polygon fill="#181818" points="1525.5189,811.3694,1529.5189,802.3694,1525.5189,806.3694,1521.5189,802.3694,1525.5189,811.3694" style="stroke:#181818;stroke-width:1.0;"/><polygon fill="#000000" points="1326.0406,615.401,1318.4306,609.6967,1316.5311,615.2592,1326.0406,615.401" style="stroke:#000000;stroke-width:1.0;"/><text fill="#000000" font-family="sans-serif" font-size="13" lengthAdjust="spacing" textLength="21" x="1330.3089" y="619.1045">has</text></g><!--link OperationType to Name--><g id="link_OperationType_Name"><path codeLine="126" d="M806.1889,690.2194 C806.1889,733.5694 806.1889,781.6094 806.1889,781.6094 C806.1889,781.6094 191.9389,781.6094 191.9389,781.6094 C191.9389,781.6094 191.9389,790.1494 191.9389,805.2694 " fill="none" id="OperationType-to-Name" style="stroke:#181818;stroke-width:1.0;"/><polygon fill="#181818" points="191.9389,811.2694,195.9389,802.2694,191.9389,806.2694,187.9389,802.2694,191.9389,811.2694" style="stroke:#181818;stroke-width:1.0;"/><polygon fill="#000000" points="494.0144,773.7057,503.4459,774.9291,502.3638,769.1518,494.0144,773.7057" style="stroke:#000000;stroke-width:1.0;"/><text fill="#000000" font-family="sans-serif" font-size="13" lengthAdjust="spacing" textLength="21" x="507.9289" y="778.1045">has</text></g><!--link OperationType to Specialization--><g id="link_OperationType_Specialization"><path codeLine="127" d="M898.1889,690.3294 C898.1889,739.2694 898.1889,796.6094 898.1889,796.6094 C898.1889,796.6094 370.8589,796.6094 370.8589,796.6094 C370.8589,796.6094 370.8589,797.2194 370.8589,805.5294 " fill="none" id="OperationType-to-Specialization" style="stroke:#181818;stroke-width:1.0;"/><polygon fill="#181818" points="370.8589,811.5294,374.8589,802.5294,370.8589,806.5294,366.8589,802.5294,370.8589,811.5294" style="stroke:#181818;stroke-width:1.0;"/><polygon fill="#000000" points="644.3141,788.8523,653.7781,789.793,652.5236,784.0506,644.3141,788.8523" style="stroke:#000000;stroke-width:1.0;"/><text fill="#000000" font-family="sans-serif" font-size="13" lengthAdjust="spacing" textLength="21" x="658.1989" y="793.1045">has</text></g><!--link OperationType to RequiredStaff--><g id="link_OperationType_RequiredStaff"><path codeLine="128" d="M944.1889,690.3794 C944.1889,730.6194 944.1889,773.7194 944.1889,805.5494 " fill="none" id="OperationType-to-RequiredStaff" style="stroke:#181818;stroke-width:1.0;"/><polygon fill="#181818" points="944.1889,811.5494,948.1889,802.5494,944.1889,806.5494,940.1889,802.5494,944.1889,811.5494" style="stroke:#181818;stroke-width:1.0;"/><polygon fill="#000000" points="913.1889,747.1452,916.1279,738.1001,910.25,738.1001,913.1889,747.1452" style="stroke:#000000;stroke-width:1.0;"/><text fill="#000000" font-family="sans-serif" font-size="13" lengthAdjust="spacing" textLength="21" x="922.1889" y="747.4645">has</text></g><!--link OperationType to PhasesDuration--><g id="link_OperationType_PhasesDuration"><path codeLine="129" d="M759.8689,656.6094 C738.3789,656.6094 722.5189,656.6094 722.5189,656.6094 C722.5189,656.6094 722.5189,751.4594 722.5189,805.4294 " fill="none" id="OperationType-to-PhasesDuration" style="stroke:#181818;stroke-width:1.0;"/><polygon fill="#181818" points="722.5189,811.4294,726.5189,802.4294,722.5189,806.4294,718.5189,802.4294,722.5189,811.4294" style="stroke:#181818;stroke-width:1.0;"/><polygon fill="#000000" points="726.3018,711.3748,731.3541,703.3172,725.6531,701.8863,726.3018,711.3748" style="stroke:#000000;stroke-width:1.0;"/><text fill="#000000" font-family="sans-serif" font-size="13" lengthAdjust="spacing" textLength="21" x="736.5189" y="711.8445">has</text></g><!--link OperationTypeDto to OperationTypeID--><g id="link_OperationTypeDto_OperationTypeID"><path codeLine="131" d="M544.6889,690.2894 C544.6889,699.3694 544.6889,705.6094 544.6889,705.6094 C544.6889,705.6094 1478.8589,705.6094 1478.8589,705.6094 C1478.8589,705.6094 1478.8589,764.1894 1478.8589,805.3194 " fill="none" id="OperationTypeDto-to-OperationTypeID" style="stroke:#181818;stroke-width:1.0;"/><polygon fill="#181818" points="1478.8589,811.3194,1482.8589,802.3194,1478.8589,806.3194,1474.8589,802.3194,1478.8589,811.3194" style="stroke:#181818;stroke-width:1.0;"/><polygon fill="#000000" points="1030.9314,697.3962,1022.3133,693.3739,1021.595,699.2077,1030.9314,697.3962" style="stroke:#000000;stroke-width:1.0;"/><text fill="#000000" font-family="sans-serif" font-size="13" lengthAdjust="spacing" textLength="21" x="1034.9689" y="702.1045">has</text></g><!--link OperationTypeDto to Name--><g id="link_OperationTypeDto_Name"><path codeLine="132" d="M602.1889,690.1294 C602.1889,727.6094 602.1889,766.6094 602.1889,766.6094 C602.1889,766.6094 167.1889,766.6094 167.1889,766.6094 C167.1889,766.6094 167.1889,784.2694 167.1889,805.5294 " fill="none" id="OperationTypeDto-to-Name" style="stroke:#181818;stroke-width:1.0;"/><polygon fill="#181818" points="167.1889,811.5294,171.1889,802.5294,167.1889,806.5294,163.1889,802.5294,167.1889,811.5294" style="stroke:#181818;stroke-width:1.0;"/><polygon fill="#000000" points="364.6361,777.0672,374.1324,777.5886,372.6252,771.9073,364.6361,777.0672" style="stroke:#000000;stroke-width:1.0;"/><text fill="#000000" font-family="sans-serif" font-size="13" lengthAdjust="spacing" textLength="21" x="378.4689" y="781.1045">has</text></g><!--link OperationTypeDto to Specialization--><g id="link_OperationTypeDto_Specialization"><path codeLine="133" d="M487.1789,622.6094 C470.2889,622.6094 458.4389,622.6094 458.4389,622.6094 C458.4389,622.6094 458.4389,844.6094 458.4389,844.6094 C458.4389,844.6094 452.5589,844.6094 436.3589,844.6094 " fill="none" id="OperationTypeDto-to-Specialization" style="stroke:#181818;stroke-width:1.0;"/><polygon fill="#181818" points="430.3589,844.6094,439.3589,848.6094,435.3589,844.6094,439.3589,840.6094,430.3589,844.6094" style="stroke:#181818;stroke-width:1.0;"/><polygon fill="#000000" points="462.3232,729.3291,467.2064,721.1679,461.4768,719.8563,462.3232,729.3291" style="stroke:#000000;stroke-width:1.0;"/><text fill="#000000" font-family="sans-serif" font-size="13" lengthAdjust="spacing" textLength="21" x="472.4389" y="729.7745">has</text></g><!--link OperationTypeDto to RequiredStaff--><g id="link_OperationTypeDto_RequiredStaff"><path codeLine="134" d="M717.3289,622.6094 C732.6489,622.6094 743.1889,622.6094 743.1889,622.6094 C743.1889,622.6094 743.1889,844.6094 743.1889,844.6094 C743.1889,844.6094 743.6889,844.6094 753.9389,844.6094 " fill="none" id="OperationTypeDto-to-RequiredStaff" style="stroke:#181818;stroke-width:1.0;"/><polygon fill="#181818" points="759.9389,844.6094,750.9389,840.6094,754.9389,844.6094,750.9389,848.6094,759.9389,844.6094" style="stroke:#181818;stroke-width:1.0;"/><polygon fill="#000000" points="713.0025,743.1585,714.4305,733.7558,708.631,734.7122,713.0025,743.1585" style="stroke:#000000;stroke-width:1.0;"/><text fill="#000000" font-family="sans-serif" font-size="13" lengthAdjust="spacing" textLength="21" x="721.1889" y="743.5445">has</text></g><!--link OperationTypeDto to PhasesDuration--><g id="link_OperationTypeDto_PhasesDuration"><path codeLine="135" d="M659.6889,690.3794 C659.6889,730.6194 659.6889,773.7194 659.6889,805.5494 " fill="none" id="OperationTypeDto-to-PhasesDuration" style="stroke:#181818;stroke-width:1.0;"/><polygon fill="#181818" points="659.6889,811.5494,663.6889,802.5494,659.6889,806.5494,655.6889,802.5494,659.6889,811.5494" style="stroke:#181818;stroke-width:1.0;"/><polygon fill="#000000" points="628.6889,747.1452,631.6279,738.1001,625.75,738.1001,628.6889,747.1452" style="stroke:#000000;stroke-width:1.0;"/><text fill="#000000" font-family="sans-serif" font-size="13" lengthAdjust="spacing" textLength="21" x="637.6889" y="747.4645">has</text></g><!--link RequiredStaff to Role--><g id="link_RequiredStaff_Role"><path codeLine="137" d="M889.1889,877.7194 C889.1889,896.0894 889.1889,912.8794 889.1889,931.2894 " fill="none" id="RequiredStaff-to-Role" style="stroke:#181818;stroke-width:1.0;"/><polygon fill="#181818" points="889.1889,937.2894,893.1889,928.2894,889.1889,932.2894,885.1889,928.2894,889.1889,937.2894" style="stroke:#181818;stroke-width:1.0;"/><text fill="#000000" font-family="sans-serif" font-size="13" lengthAdjust="spacing" textLength="21" x="867.1889" y="903.9945">has</text></g><!--link RequiredStaff to StaffQuantity--><g id="link_RequiredStaff_StaffQuantity"><path codeLine="138" d="M1018.5089,867.6094 C1077.3989,867.6094 1134.1889,867.6094 1134.1889,867.6094 C1134.1889,867.6094 1134.1889,901.3394 1134.1889,931.4494 " fill="none" id="RequiredStaff-to-StaffQuantity" style="stroke:#181818;stroke-width:1.0;"/><polygon fill="#181818" points="1134.1889,937.4494,1138.1889,928.4494,1134.1889,932.4494,1130.1889,928.4494,1134.1889,937.4494" style="stroke:#181818;stroke-width:1.0;"/><polygon fill="#000000" points="1084.6465,879.201,1078.1474,872.2576,1075.3073,877.4038,1084.6465,879.201" style="stroke:#000000;stroke-width:1.0;"/><text fill="#000000" font-family="sans-serif" font-size="13" lengthAdjust="spacing" textLength="21" x="1089.2689" y="882.1045">has</text></g><!--link PhasesDuration to Phase--><g id="link_PhasesDuration_Phase"><path codeLine="140" d="M495.6889,877.7194 C495.6889,896.0894 495.6889,912.8794 495.6889,931.2894 " fill="none" id="PhasesDuration-to-Phase" style="stroke:#181818;stroke-width:1.0;"/><polygon fill="#181818" points="495.6889,937.2894,499.6889,928.2894,495.6889,932.2894,491.6889,928.2894,495.6889,937.2894" style="stroke:#181818;stroke-width:1.0;"/><polygon fill="#000000" points="464.6889,903.6752,467.6279,894.6301,461.75,894.6301,464.6889,903.6752" style="stroke:#000000;stroke-width:1.0;"/><text fill="#000000" font-family="sans-serif" font-size="13" lengthAdjust="spacing" textLength="21" x="473.6889" y="903.9945">has</text></g><!--link PhasesDuration to Duration--><g id="link_PhasesDuration_Duration"><path codeLine="141" d="M607.1889,877.7194 C607.1889,896.0894 607.1889,912.8794 607.1889,931.2894 " fill="none" id="PhasesDuration-to-Duration" style="stroke:#181818;stroke-width:1.0;"/><polygon fill="#181818" points="607.1889,937.2894,611.1889,928.2894,607.1889,932.2894,603.1889,928.2894,607.1889,937.2894" style="stroke:#181818;stroke-width:1.0;"/><polygon fill="#000000" points="576.1889,903.6752,579.1279,894.6301,573.25,894.6301,576.1889,903.6752" style="stroke:#000000;stroke-width:1.0;"/><text fill="#000000" font-family="sans-serif" font-size="13" lengthAdjust="spacing" textLength="21" x="585.1889" y="903.9945">has</text></g><!--SRC=[pLPDRziu4BthLymnGPr5qACH6D1AHYfWwsHbPu4zBMXfB1EHIIr9PU4M_Uyxf2p7r8VZj8TM1yFKl3VpPeRaI3zpKJ75Tb2nx9aLk3Jx4a5XPfWeIWpq4Q2tB9V_SL70XfNwr9ALJElG6CNNjS4aasB9lo3Sda1ABj3iAmIfp5O6GOaR0qQ2uiNMGCvjG2v5O6HbNw-bCN9tyZumt92ko4Q2cBF2EhsAuckuWQVezkDj43WLy52XOfQoecYH54R9iaG5NmEWvyCzcj_t2xR3Aq4_Kx1_hwUmOlhvBdIXKjHrQUuyFx6HirdZ85B835xbHax1_QU2TB6NElmsA7g9weLds5CSwht81cJt73UylrZ9SvBgcKSoNqjP7cXXdZU1Bigm7tiufnGhgRcHQlzzQVsuEAUC2uDgmwYuoQyehodS6A-LjZXgQTRB2ZDEpVxYm5FmrmqcnNzhEalvqh3DPWhUia4yRfb67TVguCLVDvW2ZTj0rwVXwQKVqPg7D13GYsjn0q88viUsk24r-g36wysBvFdHtD5rlb1TigzLdIbWbzcHNvsjR4iUFZTjpvDywXkI-2TkXc6j9rlq5vNhKGzQR-0VtJYEkRkkcThVfRB42JZOdpKJD7lsze0AQV0miUHcG8YbGSO4I57kOOt0mFa6ca6KTYmpkc8ciAYLjeCGGgqv0OG9KEHWlRTAlT1jLTlr5EWUwydnA8vmvEzgRQoSmiqk1MPB6c_xGRtYjr5ZrBmGXygUB5xBwfVxjQxDnlSAww0JQB7kraDHxneV1-fZEdyCqt2LF2oe2K_f_JpzUmBH7_DmaIpkN-Ds8dxup0LzVkYsF0UKtMp-rQdfGqKK8xiuYKytyNtT74sdqRMtCORnvuJ4nG_HwY6bZZwbo_a4LlFeqoA9af1CZwH_lbXPyjWdoM-puS4_XHdKLBbHuWqzi_4vOVcPQ_LRBWQf2asjXExeRiLrMIUZSrZtaVYcvZUu_iKuckGufrkRO2mHoqpEPSbtLOax54QVzT5NhDaBQjgVG5zcR4rRFWYI7_OmMbJhmMr_IwG3TXxPEVuNSVmRzI9AvxPeENuX-ydJkMoXVQINPDyyabaVE9nE7tTH3ct25wKnsAxtjEaTxNbNMtmNpgaRPjROj_bpw-Yau_mOxuWO0FIa_0y0]--></g></svg>