<?xml version="1.0" encoding="us-ascii" standalone="no"?><svg xmlns="http://www.w3.org/2000/svg" xmlns:xlink="http://www.w3.org/1999/xlink" contentStyleType="text/css" height="722px" preserveAspectRatio="none" style="width:1422px;height:722px;background:#FFFFFF;" version="1.1" viewBox="0 0 1422 722" width="1422px" zoomAndPan="magnify"><defs/><g><text fill="#000000" font-family="sans-serif" font-size="14" font-weight="bold" lengthAdjust="spacing" textLength="222" x="599.25" y="29.5332">Sequence Diagram (SD) - UC021</text><rect fill="#FFFFFF" height="559.3281" style="stroke:#181818;stroke-width:1.0;" width="10" x="151" y="108.5703"/><rect fill="#FFFFFF" height="498.625" style="stroke:#181818;stroke-width:1.0;" width="10" x="324.5" y="138.9219"/><rect fill="#FFFFFF" height="30.3516" style="stroke:#181818;stroke-width:1.0;" width="10" x="972.5" y="455.4375"/><rect fill="#FFFFFF" height="91.0547" style="stroke:#181818;stroke-width:1.0;" width="10" x="1125.5" y="169.2734"/><rect fill="#FFFFFF" height="91.0547" style="stroke:#181818;stroke-width:1.0;" width="10" x="1125.5" y="334.0313"/><rect fill="#FFFFFF" height="91.0547" style="stroke:#181818;stroke-width:1.0;" width="10" x="1125.5" y="516.1406"/><rect fill="#FFFFFF" height="30.3516" style="stroke:#181818;stroke-width:1.0;" width="10" x="1321.5" y="199.625"/><rect fill="#FFFFFF" height="30.3516" style="stroke:#181818;stroke-width:1.0;" width="10" x="1321.5" y="364.3828"/><rect fill="#FFFFFF" height="30.3516" style="stroke:#181818;stroke-width:1.0;" width="10" x="1321.5" y="546.4922"/><line style="stroke:#181818;stroke-width:0.5;stroke-dasharray:5.0,5.0;" x1="155.5" x2="155.5" y1="76.2188" y2="685.8984"/><line style="stroke:#181818;stroke-width:0.5;stroke-dasharray:5.0,5.0;" x1="329.5" x2="329.5" y1="76.2188" y2="685.8984"/><line style="stroke:#181818;stroke-width:0.5;stroke-dasharray:5.0,5.0;" x1="977" x2="977" y1="76.2188" y2="685.8984"/><line style="stroke:#181818;stroke-width:0.5;stroke-dasharray:5.0,5.0;" x1="1130" x2="1130" y1="76.2188" y2="685.8984"/><line style="stroke:#181818;stroke-width:0.5;stroke-dasharray:5.0,5.0;" x1="1326.5" x2="1326.5" y1="76.2188" y2="685.8984"/><rect fill="#E2E2F0" height="31.6094" rx="2.5" ry="2.5" style="stroke:#181818;stroke-width:0.5;" width="171" x="70.5" y="43.6094"/><text fill="#000000" font-family="sans-serif" font-size="14" lengthAdjust="spacing" textLength="157" x="77.5" y="65.1426">OperationTypeController</text><rect fill="#E2E2F0" height="31.6094" rx="2.5" ry="2.5" style="stroke:#181818;stroke-width:0.5;" width="171" x="70.5" y="684.8984"/><text fill="#000000" font-family="sans-serif" font-size="14" lengthAdjust="spacing" textLength="157" x="77.5" y="706.4316">OperationTypeController</text><rect fill="#E2E2F0" height="31.6094" rx="2.5" ry="2.5" style="stroke:#181818;stroke-width:0.5;" width="156" x="251.5" y="43.6094"/><text fill="#000000" font-family="sans-serif" font-size="14" lengthAdjust="spacing" textLength="142" x="258.5" y="65.1426">OperationTypeService</text><rect fill="#E2E2F0" height="31.6094" rx="2.5" ry="2.5" style="stroke:#181818;stroke-width:0.5;" width="156" x="251.5" y="684.8984"/><text fill="#000000" font-family="sans-serif" font-size="14" lengthAdjust="spacing" textLength="142" x="258.5" y="706.4316">OperationTypeService</text><rect fill="#E2E2F0" height="31.6094" rx="2.5" ry="2.5" style="stroke:#181818;stroke-width:0.5;" width="109" x="923" y="43.6094"/><text fill="#000000" font-family="sans-serif" font-size="14" lengthAdjust="spacing" textLength="95" x="930" y="65.1426">OperationType</text><rect fill="#E2E2F0" height="31.6094" rx="2.5" ry="2.5" style="stroke:#181818;stroke-width:0.5;" width="109" x="923" y="684.8984"/><text fill="#000000" font-family="sans-serif" font-size="14" lengthAdjust="spacing" textLength="95" x="930" y="706.4316">OperationType</text><rect fill="#E2E2F0" height="31.6094" rx="2.5" ry="2.5" style="stroke:#181818;stroke-width:0.5;" width="177" x="1042" y="43.6094"/><text fill="#000000" font-family="sans-serif" font-size="14" lengthAdjust="spacing" textLength="163" x="1049" y="65.1426">OperationTypeRepository</text><rect fill="#E2E2F0" height="31.6094" rx="2.5" ry="2.5" style="stroke:#181818;stroke-width:0.5;" width="177" x="1042" y="684.8984"/><text fill="#000000" font-family="sans-serif" font-size="14" lengthAdjust="spacing" textLength="163" x="1049" y="706.4316">OperationTypeRepository</text><rect fill="#E2E2F0" height="31.6094" rx="2.5" ry="2.5" style="stroke:#181818;stroke-width:0.5;" width="180" x="1236.5" y="43.6094"/><text fill="#000000" font-family="sans-serif" font-size="14" lengthAdjust="spacing" textLength="166" x="1243.5" y="65.1426">IOperationTypeRepository</text><rect fill="#E2E2F0" height="31.6094" rx="2.5" ry="2.5" style="stroke:#181818;stroke-width:0.5;" width="180" x="1236.5" y="684.8984"/><text fill="#000000" font-family="sans-serif" font-size="14" lengthAdjust="spacing" textLength="166" x="1243.5" y="706.4316">IOperationTypeRepository</text><rect fill="#FFFFFF" height="559.3281" style="stroke:#181818;stroke-width:1.0;" width="10" x="151" y="108.5703"/><rect fill="#FFFFFF" height="498.625" style="stroke:#181818;stroke-width:1.0;" width="10" x="324.5" y="138.9219"/><rect fill="#FFFFFF" height="30.3516" style="stroke:#181818;stroke-width:1.0;" width="10" x="972.5" y="455.4375"/><rect fill="#FFFFFF" height="91.0547" style="stroke:#181818;stroke-width:1.0;" width="10" x="1125.5" y="169.2734"/><rect fill="#FFFFFF" height="91.0547" style="stroke:#181818;stroke-width:1.0;" width="10" x="1125.5" y="334.0313"/><rect fill="#FFFFFF" height="91.0547" style="stroke:#181818;stroke-width:1.0;" width="10" x="1125.5" y="516.1406"/><rect fill="#FFFFFF" height="30.3516" style="stroke:#181818;stroke-width:1.0;" width="10" x="1321.5" y="199.625"/><rect fill="#FFFFFF" height="30.3516" style="stroke:#181818;stroke-width:1.0;" width="10" x="1321.5" y="364.3828"/><rect fill="#FFFFFF" height="30.3516" style="stroke:#181818;stroke-width:1.0;" width="10" x="1321.5" y="546.4922"/><polygon fill="#181818" points="139,104.5703,149,108.5703,139,112.5703,143,108.5703" style="stroke:#181818;stroke-width:1.0;"/><line style="stroke:#181818;stroke-width:1.0;" x1="0" x2="145" y1="108.5703" y2="108.5703"/><text fill="#000000" font-family="sans-serif" font-size="13" lengthAdjust="spacing" textLength="132" x="7" y="103.7139">PUT /api/operationtype</text><polygon fill="#181818" points="312.5,134.9219,322.5,138.9219,312.5,142.9219,316.5,138.9219" style="stroke:#181818;stroke-width:1.0;"/><line style="stroke:#181818;stroke-width:1.0;" x1="161" x2="318.5" y1="138.9219" y2="138.9219"/><text fill="#000000" font-family="sans-serif" font-size="13" lengthAdjust="spacing" textLength="104" x="168" y="134.0654">UpdateAsync(dto)</text><polygon fill="#181818" points="1113.5,165.2734,1123.5,169.2734,1113.5,173.2734,1117.5,169.2734" style="stroke:#181818;stroke-width:1.0;"/><line style="stroke:#181818;stroke-width:1.0;" x1="334.5" x2="1119.5" y1="169.2734" y2="169.2734"/><text fill="#000000" font-family="sans-serif" font-size="13" lengthAdjust="spacing" textLength="102" x="341.5" y="164.417">GetByIdAsync(id)</text><polygon fill="#181818" points="1309.5,195.625,1319.5,199.625,1309.5,203.625,1313.5,199.625" style="stroke:#181818;stroke-width:1.0;"/><line style="stroke:#181818;stroke-width:1.0;" x1="1135.5" x2="1315.5" y1="199.625" y2="199.625"/><text fill="#000000" font-family="sans-serif" font-size="13" lengthAdjust="spacing" textLength="102" x="1142.5" y="194.7686">GetByIdAsync(id)</text><polygon fill="#181818" points="1146.5,225.9766,1136.5,229.9766,1146.5,233.9766,1142.5,229.9766" style="stroke:#181818;stroke-width:1.0;"/><line style="stroke:#181818;stroke-width:1.0;stroke-dasharray:2.0,2.0;" x1="1140.5" x2="1325.5" y1="229.9766" y2="229.9766"/><text fill="#000000" font-family="sans-serif" font-size="13" lengthAdjust="spacing" textLength="18" x="1152.5" y="225.1201">dto</text><polygon fill="#181818" points="345.5,256.3281,335.5,260.3281,345.5,264.3281,341.5,260.3281" style="stroke:#181818;stroke-width:1.0;"/><line style="stroke:#181818;stroke-width:1.0;stroke-dasharray:2.0,2.0;" x1="339.5" x2="1129.5" y1="260.3281" y2="260.3281"/><text fill="#000000" font-family="sans-serif" font-size="13" lengthAdjust="spacing" textLength="18" x="351.5" y="255.4717">dto</text><line style="stroke:#181818;stroke-width:1.0;" x1="334.5" x2="376.5" y1="290.6797" y2="290.6797"/><line style="stroke:#181818;stroke-width:1.0;" x1="376.5" x2="376.5" y1="290.6797" y2="303.6797"/><line style="stroke:#181818;stroke-width:1.0;" x1="335.5" x2="376.5" y1="303.6797" y2="303.6797"/><polygon fill="#181818" points="345.5,299.6797,335.5,303.6797,345.5,307.6797,341.5,303.6797" style="stroke:#181818;stroke-width:1.0;"/><text fill="#000000" font-family="sans-serif" font-size="13" lengthAdjust="spacing" textLength="205" x="341.5" y="285.8232">ValidateOperationTypeName(name)</text><polygon fill="#181818" points="1113.5,330.0313,1123.5,334.0313,1113.5,338.0313,1117.5,334.0313" style="stroke:#181818;stroke-width:1.0;"/><line style="stroke:#181818;stroke-width:1.0;" x1="334.5" x2="1119.5" y1="334.0313" y2="334.0313"/><text fill="#000000" font-family="sans-serif" font-size="13" lengthAdjust="spacing" textLength="148" x="341.5" y="329.1748">GetByNameAsync(name)</text><polygon fill="#181818" points="1309.5,360.3828,1319.5,364.3828,1309.5,368.3828,1313.5,364.3828" style="stroke:#181818;stroke-width:1.0;"/><line style="stroke:#181818;stroke-width:1.0;" x1="1135.5" x2="1315.5" y1="364.3828" y2="364.3828"/><text fill="#000000" font-family="sans-serif" font-size="13" lengthAdjust="spacing" textLength="148" x="1142.5" y="359.5264">GetByNameAsync(name)</text><polygon fill="#181818" points="1146.5,390.7344,1136.5,394.7344,1146.5,398.7344,1142.5,394.7344" style="stroke:#181818;stroke-width:1.0;"/><line style="stroke:#181818;stroke-width:1.0;stroke-dasharray:2.0,2.0;" x1="1140.5" x2="1325.5" y1="394.7344" y2="394.7344"/><text fill="#000000" font-family="sans-serif" font-size="13" lengthAdjust="spacing" textLength="20" x="1152.5" y="389.8779">null</text><polygon fill="#181818" points="345.5,421.0859,335.5,425.0859,345.5,429.0859,341.5,425.0859" style="stroke:#181818;stroke-width:1.0;"/><line style="stroke:#181818;stroke-width:1.0;stroke-dasharray:2.0,2.0;" x1="339.5" x2="1129.5" y1="425.0859" y2="425.0859"/><text fill="#000000" font-family="sans-serif" font-size="13" lengthAdjust="spacing" textLength="20" x="351.5" y="420.2295">null</text><polygon fill="#181818" points="960.5,451.4375,970.5,455.4375,960.5,459.4375,964.5,455.4375" style="stroke:#181818;stroke-width:1.0;"/><line style="stroke:#181818;stroke-width:1.0;" x1="334.5" x2="966.5" y1="455.4375" y2="455.4375"/><text fill="#000000" font-family="sans-serif" font-size="13" lengthAdjust="spacing" textLength="619" x="341.5" y="450.5811">new OperationType(dto.getName(), dto.getSpecialization(), dto.getRequiredStaff(), dto.getPhasesDuration())</text><polygon fill="#181818" points="345.5,481.7891,335.5,485.7891,345.5,489.7891,341.5,485.7891" style="stroke:#181818;stroke-width:1.0;"/><line style="stroke:#181818;stroke-width:1.0;stroke-dasharray:2.0,2.0;" x1="339.5" x2="976.5" y1="485.7891" y2="485.7891"/><text fill="#000000" font-family="sans-serif" font-size="13" lengthAdjust="spacing" textLength="81" x="351.5" y="480.9326">operationType</text><polygon fill="#181818" points="1113.5,512.1406,1123.5,516.1406,1113.5,520.1406,1117.5,516.1406" style="stroke:#181818;stroke-width:1.0;"/><line style="stroke:#181818;stroke-width:1.0;" x1="334.5" x2="1119.5" y1="516.1406" y2="516.1406"/><text fill="#000000" font-family="sans-serif" font-size="13" lengthAdjust="spacing" textLength="167" x="341.5" y="511.2842">UpdateAsync(operationType)</text><polygon fill="#181818" points="1309.5,542.4922,1319.5,546.4922,1309.5,550.4922,1313.5,546.4922" style="stroke:#181818;stroke-width:1.0;"/><line style="stroke:#181818;stroke-width:1.0;" x1="1135.5" x2="1315.5" y1="546.4922" y2="546.4922"/><text fill="#000000" font-family="sans-serif" font-size="13" lengthAdjust="spacing" textLength="167" x="1142.5" y="541.6357">UpdateAsync(operationType)</text><polygon fill="#181818" points="1146.5,572.8438,1136.5,576.8438,1146.5,580.8438,1142.5,576.8438" style="stroke:#181818;stroke-width:1.0;"/><line style="stroke:#181818;stroke-width:1.0;stroke-dasharray:2.0,2.0;" x1="1140.5" x2="1325.5" y1="576.8438" y2="576.8438"/><text fill="#000000" font-family="sans-serif" font-size="13" lengthAdjust="spacing" textLength="18" x="1152.5" y="571.9873">dto</text><polygon fill="#181818" points="345.5,603.1953,335.5,607.1953,345.5,611.1953,341.5,607.1953" style="stroke:#181818;stroke-width:1.0;"/><line style="stroke:#181818;stroke-width:1.0;stroke-dasharray:2.0,2.0;" x1="339.5" x2="1129.5" y1="607.1953" y2="607.1953"/><text fill="#000000" font-family="sans-serif" font-size="13" lengthAdjust="spacing" textLength="18" x="351.5" y="602.3389">dto</text><polygon fill="#181818" points="172,633.5469,162,637.5469,172,641.5469,168,637.5469" style="stroke:#181818;stroke-width:1.0;"/><line style="stroke:#181818;stroke-width:1.0;stroke-dasharray:2.0,2.0;" x1="166" x2="328.5" y1="637.5469" y2="637.5469"/><text fill="#000000" font-family="sans-serif" font-size="13" lengthAdjust="spacing" textLength="18" x="178" y="632.6904">dto</text><polygon fill="#181818" points="11,663.8984,1,667.8984,11,671.8984,7,667.8984" style="stroke:#181818;stroke-width:1.0;"/><line style="stroke:#181818;stroke-width:1.0;stroke-dasharray:2.0,2.0;" x1="5" x2="155" y1="667.8984" y2="667.8984"/><text fill="#000000" font-family="sans-serif" font-size="13" lengthAdjust="spacing" textLength="18" x="17" y="663.042">dto</text><!--SRC=[rLJ1Rjim3BthAuYUOc1Ukns3OK3N04CkMr4tktCoumfL94rIMhXVFybsRSd8Z03jPJeO9lNUi_XeqJqAPT3Y0GpoHsoeygqaiCGzgaOISoF0FM2jduLgO8_IfJjIAFAj8J1QjZ58zhX4vwwzj-BtqTEMQrM95u8hnhpmuKiL_JcIuWGRWKqahAfD0INiRgu-Vs8iY7Z1XK7buUAd8OjUQ7KVFdQZbRTQIh8NW0wcS85JaNqId3h2yBw0xc0RVK2X5b1tPBGJNjksmqzXpjakaROnPgpycfInXjlTFLoY4PVwbHfDPWov5q_eAQsPGLXJ345gA70DErC7zBLh5L_LNXSzU5HvDQBBnZKaeiPqpZLy9_-jtTQzZgYBYJ1A9SMFct5D-IZQLNj2BsLamQW_-0IprQMXd9qtb9f3QreIIi-OkfV991AdQasS6_c_K8heVzR_7tYWbGgFuZpR8xutQaPwW_LppNUsNnsbV0__Svtp6z1VtC2dPyYyZtVWOqE-wq7n0OQmCiH5wDLB1qmsxiA44fRgokD-d-Hl7z2HsnpjG3ZLbM5wP8NskRn8dHxmPBLpfN_yBUbTpqJV_C-Se_n_NjRPs1qr4dus8x-KPJfg1qQ2JkRoNm00]--></g></svg>