<?xml version="1.0" encoding="us-ascii" standalone="no"?><svg xmlns="http://www.w3.org/2000/svg" xmlns:xlink="http://www.w3.org/1999/xlink" contentStyleType="text/css" height="1011px" preserveAspectRatio="none" style="width:1968px;height:1011px;background:#FFFFFF;" version="1.1" viewBox="0 0 1968 1011" width="1968px" zoomAndPan="magnify"><defs/><g><text fill="#000000" font-family="sans-serif" font-size="14" font-weight="bold" lengthAdjust="spacing" textLength="190" x="882.25" y="24.5332">Class Diagram (CD) - UC022</text><!--class OperationTypeController--><g id="elem_OperationTypeController"><rect codeLine="12" fill="#F1F1F1" height="83.2188" id="OperationTypeController" rx="2.5" ry="2.5" style="stroke:#181818;stroke-width:0.5;" width="430" x="963" y="45.6094"/><ellipse cx="1095.25" cy="61.6094" fill="#ADD1B2" rx="11" ry="11" style="stroke:#181818;stroke-width:1.0;"/><path d="M1098.0156,57.4844 Q1098.1719,57.2656 1098.3594,57.1563 Q1098.5469,57.0469 1098.7656,57.0469 Q1099.1406,57.0469 1099.375,57.3125 Q1099.6094,57.5625 1099.6094,58.1719 L1099.6094,59.625 Q1099.6094,60.2344 1099.375,60.5 Q1099.1406,60.7656 1098.7656,60.7656 Q1098.4219,60.7656 1098.2188,60.5625 Q1098.0156,60.375 1097.9063,59.8594 Q1097.8594,59.5 1097.6719,59.3125 Q1097.3438,58.9375 1096.7344,58.7188 Q1096.125,58.5 1095.5,58.5 Q1094.7344,58.5 1094.0938,58.8281 Q1093.4688,59.1563 1092.9688,59.9063 Q1092.4844,60.6563 1092.4844,61.6875 L1092.4844,62.7813 Q1092.4844,64.0156 1093.375,64.8438 Q1094.2656,65.6563 1095.8594,65.6563 Q1096.7969,65.6563 1097.4531,65.4063 Q1097.8438,65.25 1098.2656,64.8125 Q1098.5313,64.5469 1098.6719,64.4688 Q1098.8281,64.3906 1099.0313,64.3906 Q1099.3594,64.3906 1099.6094,64.6563 Q1099.875,64.9063 1099.875,65.25 Q1099.875,65.5938 1099.5313,66 Q1099.0313,66.5781 1098.2344,66.9063 Q1097.1563,67.3594 1095.8594,67.3594 Q1094.3438,67.3594 1093.1406,66.7344 Q1092.1563,66.2344 1091.4688,65.1719 Q1090.7813,64.0938 1090.7813,62.8125 L1090.7813,61.6563 Q1090.7813,60.3281 1091.3906,59.1875 Q1092.0156,58.0313 1093.1094,57.4219 Q1094.2031,56.7969 1095.4375,56.7969 Q1096.1719,56.7969 1096.8125,56.9688 Q1097.4688,57.125 1098.0156,57.4844 Z " fill="#000000"/><text fill="#000000" font-family="sans-serif" font-size="14" lengthAdjust="spacing" textLength="157" x="1115.75" y="67.3379">OperationTypeController</text><line style="stroke:#181818;stroke-width:0.5;" x1="964" x2="1392" y1="77.6094" y2="77.6094"/><line style="stroke:#181818;stroke-width:0.5;" x1="964" x2="1392" y1="85.6094" y2="85.6094"/><text fill="#000000" font-family="sans-serif" font-size="14" lengthAdjust="spacing" textLength="418" x="969" y="104.1426">+GetAll(): Task&lt;ActionResult&lt;IEnumerable&lt;OperationTypeDto&gt;&gt;&gt;</text><text fill="#000000" font-family="sans-serif" font-size="14" lengthAdjust="spacing" textLength="400" x="969" y="121.752">+SoftDelete(id: Guid): Task&lt;ActionResult&lt;OperationTypeDto&gt;&gt;</text></g><!--class OperationTypeService--><g id="elem_OperationTypeService"><rect codeLine="17" fill="#F1F1F1" height="83.2188" id="OperationTypeService" rx="2.5" ry="2.5" style="stroke:#181818;stroke-width:0.5;" width="425" x="1098.5" y="197.6094"/><ellipse cx="1235.75" cy="213.6094" fill="#ADD1B2" rx="11" ry="11" style="stroke:#181818;stroke-width:1.0;"/><path d="M1238.5156,209.4844 Q1238.6719,209.2656 1238.8594,209.1563 Q1239.0469,209.0469 1239.2656,209.0469 Q1239.6406,209.0469 1239.875,209.3125 Q1240.1094,209.5625 1240.1094,210.1719 L1240.1094,211.625 Q1240.1094,212.2344 1239.875,212.5 Q1239.6406,212.7656 1239.2656,212.7656 Q1238.9219,212.7656 1238.7188,212.5625 Q1238.5156,212.375 1238.4063,211.8594 Q1238.3594,211.5 1238.1719,211.3125 Q1237.8438,210.9375 1237.2344,210.7188 Q1236.625,210.5 1236,210.5 Q1235.2344,210.5 1234.5938,210.8281 Q1233.9688,211.1563 1233.4688,211.9063 Q1232.9844,212.6563 1232.9844,213.6875 L1232.9844,214.7813 Q1232.9844,216.0156 1233.875,216.8438 Q1234.7656,217.6563 1236.3594,217.6563 Q1237.2969,217.6563 1237.9531,217.4063 Q1238.3438,217.25 1238.7656,216.8125 Q1239.0313,216.5469 1239.1719,216.4688 Q1239.3281,216.3906 1239.5313,216.3906 Q1239.8594,216.3906 1240.1094,216.6563 Q1240.375,216.9063 1240.375,217.25 Q1240.375,217.5938 1240.0313,218 Q1239.5313,218.5781 1238.7344,218.9063 Q1237.6563,219.3594 1236.3594,219.3594 Q1234.8438,219.3594 1233.6406,218.7344 Q1232.6563,218.2344 1231.9688,217.1719 Q1231.2813,216.0938 1231.2813,214.8125 L1231.2813,213.6563 Q1231.2813,212.3281 1231.8906,211.1875 Q1232.5156,210.0313 1233.6094,209.4219 Q1234.7031,208.7969 1235.9375,208.7969 Q1236.6719,208.7969 1237.3125,208.9688 Q1237.9688,209.125 1238.5156,209.4844 Z " fill="#000000"/><text fill="#000000" font-family="sans-serif" font-size="14" lengthAdjust="spacing" textLength="142" x="1256.25" y="219.3379">OperationTypeService</text><line style="stroke:#181818;stroke-width:0.5;" x1="1099.5" x2="1522.5" y1="229.6094" y2="229.6094"/><line style="stroke:#181818;stroke-width:0.5;" x1="1099.5" x2="1522.5" y1="237.6094" y2="237.6094"/><text fill="#000000" font-family="sans-serif" font-size="14" lengthAdjust="spacing" textLength="304" x="1104.5" y="256.1426">+GetAllAsync(): Task&lt;List&lt;OperationTypeDto&gt;&gt;</text><text fill="#000000" font-family="sans-serif" font-size="14" lengthAdjust="spacing" textLength="413" x="1104.5" y="273.752">+InactivateAsync(id: OperationTypeId): Task&lt;OperationTypeDto&gt;</text></g><!--class OperationTypeRepository--><g id="elem_OperationTypeRepository"><rect codeLine="22" fill="#F1F1F1" height="100.8281" id="OperationTypeRepository" rx="2.5" ry="2.5" style="stroke:#181818;stroke-width:0.5;" width="403" x="1558.5" y="188.6094"/><ellipse cx="1674.25" cy="204.6094" fill="#ADD1B2" rx="11" ry="11" style="stroke:#181818;stroke-width:1.0;"/><path d="M1677.0156,200.4844 Q1677.1719,200.2656 1677.3594,200.1563 Q1677.5469,200.0469 1677.7656,200.0469 Q1678.1406,200.0469 1678.375,200.3125 Q1678.6094,200.5625 1678.6094,201.1719 L1678.6094,202.625 Q1678.6094,203.2344 1678.375,203.5 Q1678.1406,203.7656 1677.7656,203.7656 Q1677.4219,203.7656 1677.2188,203.5625 Q1677.0156,203.375 1676.9063,202.8594 Q1676.8594,202.5 1676.6719,202.3125 Q1676.3438,201.9375 1675.7344,201.7188 Q1675.125,201.5 1674.5,201.5 Q1673.7344,201.5 1673.0938,201.8281 Q1672.4688,202.1563 1671.9688,202.9063 Q1671.4844,203.6563 1671.4844,204.6875 L1671.4844,205.7813 Q1671.4844,207.0156 1672.375,207.8438 Q1673.2656,208.6563 1674.8594,208.6563 Q1675.7969,208.6563 1676.4531,208.4063 Q1676.8438,208.25 1677.2656,207.8125 Q1677.5313,207.5469 1677.6719,207.4688 Q1677.8281,207.3906 1678.0313,207.3906 Q1678.3594,207.3906 1678.6094,207.6563 Q1678.875,207.9063 1678.875,208.25 Q1678.875,208.5938 1678.5313,209 Q1678.0313,209.5781 1677.2344,209.9063 Q1676.1563,210.3594 1674.8594,210.3594 Q1673.3438,210.3594 1672.1406,209.7344 Q1671.1563,209.2344 1670.4688,208.1719 Q1669.7813,207.0938 1669.7813,205.8125 L1669.7813,204.6563 Q1669.7813,203.3281 1670.3906,202.1875 Q1671.0156,201.0313 1672.1094,200.4219 Q1673.2031,199.7969 1674.4375,199.7969 Q1675.1719,199.7969 1675.8125,199.9688 Q1676.4688,200.125 1677.0156,200.4844 Z " fill="#000000"/><text fill="#000000" font-family="sans-serif" font-size="14" lengthAdjust="spacing" textLength="163" x="1694.75" y="210.3379">OperationTypeRepository</text><line style="stroke:#181818;stroke-width:0.5;" x1="1559.5" x2="1960.5" y1="220.6094" y2="220.6094"/><line style="stroke:#181818;stroke-width:0.5;" x1="1559.5" x2="1960.5" y1="228.6094" y2="228.6094"/><text fill="#000000" font-family="sans-serif" font-size="14" lengthAdjust="spacing" textLength="381" x="1564.5" y="247.1426">+GetByIdAsync(id: OperationTypeId): Task&lt;OperationType&gt;</text><text fill="#000000" font-family="sans-serif" font-size="14" lengthAdjust="spacing" textLength="282" x="1564.5" y="264.752">+GetAllAsync(): Task&lt;List&lt;OperationType&gt;&gt;</text><text fill="#000000" font-family="sans-serif" font-size="14" lengthAdjust="spacing" textLength="391" x="1564.5" y="282.3613">+InactivateAsync(id: OperationTypeId): Task&lt;OperationType&gt;</text></g><!--class IOperationTypeRepository--><g id="elem_IOperationTypeRepository"><rect codeLine="28" fill="#F1F1F1" height="100.8281" id="IOperationTypeRepository" rx="2.5" ry="2.5" style="stroke:#181818;stroke-width:0.5;" width="403" x="1364.5" y="349.6094"/><ellipse cx="1478.25" cy="365.6094" fill="#B4A7E5" rx="11" ry="11" style="stroke:#181818;stroke-width:1.0;"/><path d="M1479.2031,362.25 L1479.2031,368.9063 L1480.9219,368.9063 Q1481.5313,368.9063 1481.7969,369.1406 Q1482.0625,369.375 1482.0625,369.7656 Q1482.0625,370.1406 1481.7969,370.375 Q1481.5313,370.6094 1480.9219,370.6094 L1475.7813,370.6094 Q1475.1719,370.6094 1474.9063,370.375 Q1474.6406,370.1406 1474.6406,369.75 Q1474.6406,369.375 1474.9063,369.1406 Q1475.1719,368.9063 1475.7813,368.9063 L1477.5,368.9063 L1477.5,362.25 L1475.7813,362.25 Q1475.1719,362.25 1474.9063,362.0156 Q1474.6406,361.7813 1474.6406,361.3906 Q1474.6406,361.0156 1474.9063,360.7813 Q1475.1719,360.5469 1475.7813,360.5469 L1480.9219,360.5469 Q1481.5313,360.5469 1481.7969,360.7813 Q1482.0625,361.0156 1482.0625,361.3906 Q1482.0625,361.7813 1481.7969,362.0156 Q1481.5313,362.25 1480.9219,362.25 L1479.2031,362.25 Z " fill="#000000"/><text fill="#000000" font-family="sans-serif" font-size="14" font-style="italic" lengthAdjust="spacing" textLength="167" x="1498.75" y="371.3379">IOperationTypeRepository</text><line style="stroke:#181818;stroke-width:0.5;" x1="1365.5" x2="1766.5" y1="381.6094" y2="381.6094"/><line style="stroke:#181818;stroke-width:0.5;" x1="1365.5" x2="1766.5" y1="389.6094" y2="389.6094"/><text fill="#000000" font-family="sans-serif" font-size="14" lengthAdjust="spacing" textLength="381" x="1370.5" y="408.1426">+GetByIdAsync(id: OperationTypeId): Task&lt;OperationType&gt;</text><text fill="#000000" font-family="sans-serif" font-size="14" lengthAdjust="spacing" textLength="282" x="1370.5" y="425.752">+GetAllAsync(): Task&lt;List&lt;OperationType&gt;&gt;</text><text fill="#000000" font-family="sans-serif" font-size="14" lengthAdjust="spacing" textLength="391" x="1370.5" y="443.3613">+InactivateAsync(id: OperationTypeId): Task&lt;OperationType&gt;</text></g><!--class OperationType--><g id="elem_OperationType"><rect codeLine="34" fill="#F1F1F1" height="241.7031" id="OperationType" rx="2.5" ry="2.5" style="stroke:#181818;stroke-width:0.5;" width="424" x="1297" y="510.6094"/><ellipse cx="1457.25" cy="526.6094" fill="#ADD1B2" rx="11" ry="11" style="stroke:#181818;stroke-width:1.0;"/><path d="M1460.0156,522.4844 Q1460.1719,522.2656 1460.3594,522.1563 Q1460.5469,522.0469 1460.7656,522.0469 Q1461.1406,522.0469 1461.375,522.3125 Q1461.6094,522.5625 1461.6094,523.1719 L1461.6094,524.625 Q1461.6094,525.2344 1461.375,525.5 Q1461.1406,525.7656 1460.7656,525.7656 Q1460.4219,525.7656 1460.2188,525.5625 Q1460.0156,525.375 1459.9063,524.8594 Q1459.8594,524.5 1459.6719,524.3125 Q1459.3438,523.9375 1458.7344,523.7188 Q1458.125,523.5 1457.5,523.5 Q1456.7344,523.5 1456.0938,523.8281 Q1455.4688,524.1563 1454.9688,524.9063 Q1454.4844,525.6563 1454.4844,526.6875 L1454.4844,527.7813 Q1454.4844,529.0156 1455.375,529.8438 Q1456.2656,530.6563 1457.8594,530.6563 Q1458.7969,530.6563 1459.4531,530.4063 Q1459.8438,530.25 1460.2656,529.8125 Q1460.5313,529.5469 1460.6719,529.4688 Q1460.8281,529.3906 1461.0313,529.3906 Q1461.3594,529.3906 1461.6094,529.6563 Q1461.875,529.9063 1461.875,530.25 Q1461.875,530.5938 1461.5313,531 Q1461.0313,531.5781 1460.2344,531.9063 Q1459.1563,532.3594 1457.8594,532.3594 Q1456.3438,532.3594 1455.1406,531.7344 Q1454.1563,531.2344 1453.4688,530.1719 Q1452.7813,529.0938 1452.7813,527.8125 L1452.7813,526.6563 Q1452.7813,525.3281 1453.3906,524.1875 Q1454.0156,523.0313 1455.1094,522.4219 Q1456.2031,521.7969 1457.4375,521.7969 Q1458.1719,521.7969 1458.8125,521.9688 Q1459.4688,522.125 1460.0156,522.4844 Z " fill="#000000"/><text fill="#000000" font-family="sans-serif" font-size="14" lengthAdjust="spacing" textLength="95" x="1477.75" y="532.3379">OperationType</text><line style="stroke:#181818;stroke-width:0.5;" x1="1298" x2="1720" y1="542.6094" y2="542.6094"/><text fill="#000000" font-family="sans-serif" font-size="14" lengthAdjust="spacing" textLength="135" x="1303" y="561.1426">+Id: OperationTypeID</text><text fill="#000000" font-family="sans-serif" font-size="14" lengthAdjust="spacing" textLength="88" x="1303" y="578.752">+Name: Name</text><text fill="#000000" font-family="sans-serif" font-size="14" lengthAdjust="spacing" textLength="96" x="1303" y="596.3613">+Status: Status</text><text fill="#000000" font-family="sans-serif" font-size="14" lengthAdjust="spacing" textLength="188" x="1303" y="613.9707">+Specialization: Specialization</text><text fill="#000000" font-family="sans-serif" font-size="14" lengthAdjust="spacing" textLength="228" x="1303" y="631.5801">+RequiredStaff: List&lt;RequiredStaff&gt;</text><text fill="#000000" font-family="sans-serif" font-size="14" lengthAdjust="spacing" textLength="218" x="1303" y="649.1895">+PhasesDuration: PhasesDuration</text><line style="stroke:#181818;stroke-width:0.5;" x1="1298" x2="1720" y1="656.2656" y2="656.2656"/><text fill="#000000" font-family="sans-serif" font-size="14" lengthAdjust="spacing" textLength="217" x="1303" y="674.7988">+ChangeName(name: Name): void</text><text fill="#000000" font-family="sans-serif" font-size="14" lengthAdjust="spacing" textLength="147" x="1303" y="692.4082">+MarkAsInactive(): void</text><text fill="#000000" font-family="sans-serif" font-size="14" lengthAdjust="spacing" textLength="366" x="1303" y="710.0176">+ChangeSpecialization(specialization: Specialization): void</text><text fill="#000000" font-family="sans-serif" font-size="14" lengthAdjust="spacing" textLength="404" x="1303" y="727.627">+ChangeRequiredStaff(requiredStaff: List&lt;RequiredStaff&gt;): void</text><text fill="#000000" font-family="sans-serif" font-size="14" lengthAdjust="spacing" textLength="412" x="1303" y="745.2363">+ChangePhasesDuration(phasesDuration: PhasesDuration): void</text></g><!--class OperationTypeDto--><g id="elem_OperationTypeDto"><rect codeLine="48" fill="#F1F1F1" height="153.6563" id="OperationTypeDto" rx="2.5" ry="2.5" style="stroke:#181818;stroke-width:0.5;" width="240" x="1022" y="554.6094"/><ellipse cx="1079.25" cy="570.6094" fill="#ADD1B2" rx="11" ry="11" style="stroke:#181818;stroke-width:1.0;"/><path d="M1082.0156,566.4844 Q1082.1719,566.2656 1082.3594,566.1563 Q1082.5469,566.0469 1082.7656,566.0469 Q1083.1406,566.0469 1083.375,566.3125 Q1083.6094,566.5625 1083.6094,567.1719 L1083.6094,568.625 Q1083.6094,569.2344 1083.375,569.5 Q1083.1406,569.7656 1082.7656,569.7656 Q1082.4219,569.7656 1082.2188,569.5625 Q1082.0156,569.375 1081.9063,568.8594 Q1081.8594,568.5 1081.6719,568.3125 Q1081.3438,567.9375 1080.7344,567.7188 Q1080.125,567.5 1079.5,567.5 Q1078.7344,567.5 1078.0938,567.8281 Q1077.4688,568.1563 1076.9688,568.9063 Q1076.4844,569.6563 1076.4844,570.6875 L1076.4844,571.7813 Q1076.4844,573.0156 1077.375,573.8438 Q1078.2656,574.6563 1079.8594,574.6563 Q1080.7969,574.6563 1081.4531,574.4063 Q1081.8438,574.25 1082.2656,573.8125 Q1082.5313,573.5469 1082.6719,573.4688 Q1082.8281,573.3906 1083.0313,573.3906 Q1083.3594,573.3906 1083.6094,573.6563 Q1083.875,573.9063 1083.875,574.25 Q1083.875,574.5938 1083.5313,575 Q1083.0313,575.5781 1082.2344,575.9063 Q1081.1563,576.3594 1079.8594,576.3594 Q1078.3438,576.3594 1077.1406,575.7344 Q1076.1563,575.2344 1075.4688,574.1719 Q1074.7813,573.0938 1074.7813,571.8125 L1074.7813,570.6563 Q1074.7813,569.3281 1075.3906,568.1875 Q1076.0156,567.0313 1077.1094,566.4219 Q1078.2031,565.7969 1079.4375,565.7969 Q1080.1719,565.7969 1080.8125,565.9688 Q1081.4688,566.125 1082.0156,566.4844 Z " fill="#000000"/><text fill="#000000" font-family="sans-serif" font-size="14" lengthAdjust="spacing" textLength="117" x="1099.75" y="576.3379">OperationTypeDto</text><line style="stroke:#181818;stroke-width:0.5;" x1="1023" x2="1261" y1="586.6094" y2="586.6094"/><text fill="#000000" font-family="sans-serif" font-size="14" lengthAdjust="spacing" textLength="135" x="1028" y="605.1426">+Id: OperationTypeID</text><text fill="#000000" font-family="sans-serif" font-size="14" lengthAdjust="spacing" textLength="88" x="1028" y="622.752">+Name: Name</text><text fill="#000000" font-family="sans-serif" font-size="14" lengthAdjust="spacing" textLength="96" x="1028" y="640.3613">+Status: Status</text><text fill="#000000" font-family="sans-serif" font-size="14" lengthAdjust="spacing" textLength="188" x="1028" y="657.9707">+Specialization: Specialization</text><text fill="#000000" font-family="sans-serif" font-size="14" lengthAdjust="spacing" textLength="228" x="1028" y="675.5801">+RequiredStaff: List&lt;RequiredStaff&gt;</text><text fill="#000000" font-family="sans-serif" font-size="14" lengthAdjust="spacing" textLength="218" x="1028" y="693.1895">+PhasesDuration: PhasesDuration</text><line style="stroke:#181818;stroke-width:0.5;" x1="1023" x2="1261" y1="700.2656" y2="700.2656"/></g><!--class RequiredStaff--><g id="elem_RequiredStaff"><rect codeLine="57" fill="#F1F1F1" height="65.6094" id="RequiredStaff" rx="2.5" ry="2.5" style="stroke:#181818;stroke-width:0.5;" width="258" x="489" y="812.6094"/><ellipse cx="570.25" cy="828.6094" fill="#ADD1B2" rx="11" ry="11" style="stroke:#181818;stroke-width:1.0;"/><path d="M573.0156,824.4844 Q573.1719,824.2656 573.3594,824.1563 Q573.5469,824.0469 573.7656,824.0469 Q574.1406,824.0469 574.375,824.3125 Q574.6094,824.5625 574.6094,825.1719 L574.6094,826.625 Q574.6094,827.2344 574.375,827.5 Q574.1406,827.7656 573.7656,827.7656 Q573.4219,827.7656 573.2188,827.5625 Q573.0156,827.375 572.9063,826.8594 Q572.8594,826.5 572.6719,826.3125 Q572.3438,825.9375 571.7344,825.7188 Q571.125,825.5 570.5,825.5 Q569.7344,825.5 569.0938,825.8281 Q568.4688,826.1563 567.9688,826.9063 Q567.4844,827.6563 567.4844,828.6875 L567.4844,829.7813 Q567.4844,831.0156 568.375,831.8438 Q569.2656,832.6563 570.8594,832.6563 Q571.7969,832.6563 572.4531,832.4063 Q572.8438,832.25 573.2656,831.8125 Q573.5313,831.5469 573.6719,831.4688 Q573.8281,831.3906 574.0313,831.3906 Q574.3594,831.3906 574.6094,831.6563 Q574.875,831.9063 574.875,832.25 Q574.875,832.5938 574.5313,833 Q574.0313,833.5781 573.2344,833.9063 Q572.1563,834.3594 570.8594,834.3594 Q569.3438,834.3594 568.1406,833.7344 Q567.1563,833.2344 566.4688,832.1719 Q565.7813,831.0938 565.7813,829.8125 L565.7813,828.6563 Q565.7813,827.3281 566.3906,826.1875 Q567.0156,825.0313 568.1094,824.4219 Q569.2031,823.7969 570.4375,823.7969 Q571.1719,823.7969 571.8125,823.9688 Q572.4688,824.125 573.0156,824.4844 Z " fill="#000000"/><text fill="#000000" font-family="sans-serif" font-size="14" lengthAdjust="spacing" textLength="87" x="590.75" y="834.3379">RequiredStaff</text><line style="stroke:#181818;stroke-width:0.5;" x1="490" x2="746" y1="844.6094" y2="844.6094"/><text fill="#000000" font-family="sans-serif" font-size="14" lengthAdjust="spacing" textLength="246" x="495" y="863.1426">-_staff: Dictionary&lt;Role, StaffQuantity&gt;</text><line style="stroke:#181818;stroke-width:0.5;" x1="490" x2="746" y1="870.2188" y2="870.2188"/></g><g id="elem_GMN9"><path d="M782,832.6094 L782,841.6094 L747.43,845.6094 L782,849.6094 L782,858.9609 A0,0 0 0 0 782,858.9609 L1126,858.9609 A0,0 0 0 0 1126,858.9609 L1126,842.6094 L1116,832.6094 L782,832.6094 A0,0 0 0 0 782,832.6094 " fill="#FEFFDD" style="stroke:#181818;stroke-width:0.5;"/><path d="M1116,832.6094 L1116,842.6094 L1126,842.6094 L1116,832.6094 " fill="#FEFFDD" style="stroke:#181818;stroke-width:0.5;"/><text fill="#000000" font-family="sans-serif" font-size="13" lengthAdjust="spacing" textLength="323" x="788" y="851.1045">Role can only be a staff role: Doctor, Nurse or Assistant</text></g><!--class Quantity--><g id="elem_Quantity"><rect codeLine="64" fill="#F1F1F1" height="65.6094" id="Quantity" rx="2.5" ry="2.5" style="stroke:#181818;stroke-width:0.5;" width="96" x="854" y="938.6094"/><ellipse cx="873.95" cy="954.6094" fill="#ADD1B2" rx="11" ry="11" style="stroke:#181818;stroke-width:1.0;"/><path d="M876.7156,950.4844 Q876.8719,950.2656 877.0594,950.1563 Q877.2469,950.0469 877.4656,950.0469 Q877.8406,950.0469 878.075,950.3125 Q878.3094,950.5625 878.3094,951.1719 L878.3094,952.625 Q878.3094,953.2344 878.075,953.5 Q877.8406,953.7656 877.4656,953.7656 Q877.1219,953.7656 876.9188,953.5625 Q876.7156,953.375 876.6063,952.8594 Q876.5594,952.5 876.3719,952.3125 Q876.0438,951.9375 875.4344,951.7188 Q874.825,951.5 874.2,951.5 Q873.4344,951.5 872.7938,951.8281 Q872.1688,952.1563 871.6688,952.9063 Q871.1844,953.6563 871.1844,954.6875 L871.1844,955.7813 Q871.1844,957.0156 872.075,957.8438 Q872.9656,958.6563 874.5594,958.6563 Q875.4969,958.6563 876.1531,958.4063 Q876.5438,958.25 876.9656,957.8125 Q877.2313,957.5469 877.3719,957.4688 Q877.5281,957.3906 877.7313,957.3906 Q878.0594,957.3906 878.3094,957.6563 Q878.575,957.9063 878.575,958.25 Q878.575,958.5938 878.2313,959 Q877.7313,959.5781 876.9344,959.9063 Q875.8563,960.3594 874.5594,960.3594 Q873.0438,960.3594 871.8406,959.7344 Q870.8563,959.2344 870.1688,958.1719 Q869.4813,957.0938 869.4813,955.8125 L869.4813,954.6563 Q869.4813,953.3281 870.0906,952.1875 Q870.7156,951.0313 871.8094,950.4219 Q872.9031,949.7969 874.1375,949.7969 Q874.8719,949.7969 875.5125,949.9688 Q876.1688,950.125 876.7156,950.4844 Z " fill="#000000"/><text fill="#000000" font-family="sans-serif" font-size="14" lengthAdjust="spacing" textLength="53" x="889.05" y="960.3379">Quantity</text><line style="stroke:#181818;stroke-width:0.5;" x1="855" x2="949" y1="970.6094" y2="970.6094"/><text fill="#000000" font-family="sans-serif" font-size="14" lengthAdjust="spacing" textLength="84" x="860" y="989.1426">+Quantity: int</text><line style="stroke:#181818;stroke-width:0.5;" x1="855" x2="949" y1="996.2188" y2="996.2188"/></g><g id="elem_GMN13"><path d="M1268.5,958.6094 L1268.5,984.9609 L1473.5,984.9609 L1473.5,968.6094 L1463.5,958.6094 L1268.5,958.6094 " fill="#FEFFDD" style="stroke:#181818;stroke-width:0.5;"/><path d="M1463.5,958.6094 L1463.5,968.6094 L1473.5,968.6094 L1463.5,958.6094 " fill="#FEFFDD" style="stroke:#181818;stroke-width:1.0;"/><text fill="#000000" font-family="sans-serif" font-size="13" lengthAdjust="spacing" textLength="184" x="1274.5" y="977.1045">Quantity must be greater than 0</text></g><!--class Specialization--><g id="elem_Specialization"><rect codeLine="71" fill="#F1F1F1" height="65.6094" id="Specialization" rx="2.5" ry="2.5" style="stroke:#181818;stroke-width:0.5;" width="178" x="1055" y="938.6094"/><ellipse cx="1097" cy="954.6094" fill="#ADD1B2" rx="11" ry="11" style="stroke:#181818;stroke-width:1.0;"/><path d="M1099.7656,950.4844 Q1099.9219,950.2656 1100.1094,950.1563 Q1100.2969,950.0469 1100.5156,950.0469 Q1100.8906,950.0469 1101.125,950.3125 Q1101.3594,950.5625 1101.3594,951.1719 L1101.3594,952.625 Q1101.3594,953.2344 1101.125,953.5 Q1100.8906,953.7656 1100.5156,953.7656 Q1100.1719,953.7656 1099.9688,953.5625 Q1099.7656,953.375 1099.6563,952.8594 Q1099.6094,952.5 1099.4219,952.3125 Q1099.0938,951.9375 1098.4844,951.7188 Q1097.875,951.5 1097.25,951.5 Q1096.4844,951.5 1095.8438,951.8281 Q1095.2188,952.1563 1094.7188,952.9063 Q1094.2344,953.6563 1094.2344,954.6875 L1094.2344,955.7813 Q1094.2344,957.0156 1095.125,957.8438 Q1096.0156,958.6563 1097.6094,958.6563 Q1098.5469,958.6563 1099.2031,958.4063 Q1099.5938,958.25 1100.0156,957.8125 Q1100.2813,957.5469 1100.4219,957.4688 Q1100.5781,957.3906 1100.7813,957.3906 Q1101.1094,957.3906 1101.3594,957.6563 Q1101.625,957.9063 1101.625,958.25 Q1101.625,958.5938 1101.2813,959 Q1100.7813,959.5781 1099.9844,959.9063 Q1098.9063,960.3594 1097.6094,960.3594 Q1096.0938,960.3594 1094.8906,959.7344 Q1093.9063,959.2344 1093.2188,958.1719 Q1092.5313,957.0938 1092.5313,955.8125 L1092.5313,954.6563 Q1092.5313,953.3281 1093.1406,952.1875 Q1093.7656,951.0313 1094.8594,950.4219 Q1095.9531,949.7969 1097.1875,949.7969 Q1097.9219,949.7969 1098.5625,949.9688 Q1099.2188,950.125 1099.7656,950.4844 Z " fill="#000000"/><text fill="#000000" font-family="sans-serif" font-size="14" lengthAdjust="spacing" textLength="86" x="1117" y="960.3379">Specialization</text><line style="stroke:#181818;stroke-width:0.5;" x1="1056" x2="1232" y1="970.6094" y2="970.6094"/><text fill="#000000" font-family="sans-serif" font-size="14" lengthAdjust="spacing" textLength="166" x="1061" y="989.1426">+Designation: Designation</text><line style="stroke:#181818;stroke-width:0.5;" x1="1056" x2="1232" y1="996.2188" y2="996.2188"/></g><!--class PhasesDuration--><g id="elem_PhasesDuration"><rect codeLine="75" fill="#F1F1F1" height="65.6094" id="PhasesDuration" rx="2.5" ry="2.5" style="stroke:#181818;stroke-width:0.5;" width="260" x="194" y="812.6094"/><ellipse cx="269.25" cy="828.6094" fill="#ADD1B2" rx="11" ry="11" style="stroke:#181818;stroke-width:1.0;"/><path d="M272.0156,824.4844 Q272.1719,824.2656 272.3594,824.1563 Q272.5469,824.0469 272.7656,824.0469 Q273.1406,824.0469 273.375,824.3125 Q273.6094,824.5625 273.6094,825.1719 L273.6094,826.625 Q273.6094,827.2344 273.375,827.5 Q273.1406,827.7656 272.7656,827.7656 Q272.4219,827.7656 272.2188,827.5625 Q272.0156,827.375 271.9063,826.8594 Q271.8594,826.5 271.6719,826.3125 Q271.3438,825.9375 270.7344,825.7188 Q270.125,825.5 269.5,825.5 Q268.7344,825.5 268.0938,825.8281 Q267.4688,826.1563 266.9688,826.9063 Q266.4844,827.6563 266.4844,828.6875 L266.4844,829.7813 Q266.4844,831.0156 267.375,831.8438 Q268.2656,832.6563 269.8594,832.6563 Q270.7969,832.6563 271.4531,832.4063 Q271.8438,832.25 272.2656,831.8125 Q272.5313,831.5469 272.6719,831.4688 Q272.8281,831.3906 273.0313,831.3906 Q273.3594,831.3906 273.6094,831.6563 Q273.875,831.9063 273.875,832.25 Q273.875,832.5938 273.5313,833 Q273.0313,833.5781 272.2344,833.9063 Q271.1563,834.3594 269.8594,834.3594 Q268.3438,834.3594 267.1406,833.7344 Q266.1563,833.2344 265.4688,832.1719 Q264.7813,831.0938 264.7813,829.8125 L264.7813,828.6563 Q264.7813,827.3281 265.3906,826.1875 Q266.0156,825.0313 267.1094,824.4219 Q268.2031,823.7969 269.4375,823.7969 Q270.1719,823.7969 270.8125,823.9688 Q271.4688,824.125 272.0156,824.4844 Z " fill="#000000"/><text fill="#000000" font-family="sans-serif" font-size="14" lengthAdjust="spacing" textLength="101" x="289.75" y="834.3379">PhasesDuration</text><line style="stroke:#181818;stroke-width:0.5;" x1="195" x2="453" y1="844.6094" y2="844.6094"/><text fill="#000000" font-family="sans-serif" font-size="14" lengthAdjust="spacing" textLength="248" x="200" y="863.1426">-_phases: Dictionary&lt;Phase, Duration&gt;</text><line style="stroke:#181818;stroke-width:0.5;" x1="195" x2="453" y1="870.2188" y2="870.2188"/></g><!--class Phase--><g id="elem_Phase"><rect codeLine="79" fill="#F1F1F1" height="65.6094" id="Phase" rx="2.5" ry="2.5" style="stroke:#181818;stroke-width:0.5;" width="260" x="7" y="938.6094"/><ellipse cx="112.75" cy="954.6094" fill="#EB937F" rx="11" ry="11" style="stroke:#181818;stroke-width:1.0;"/><path d="M111.6094,955.4063 L111.6094,957.9063 L115.9375,957.9063 L115.9375,956.9844 Q115.9375,956.375 116.1719,956.1094 Q116.4219,955.8438 116.7969,955.8438 Q117.1719,955.8438 117.4063,956.1094 Q117.6406,956.375 117.6406,956.9844 L117.6406,959.6094 L109.6406,959.6094 Q109.0156,959.6094 108.75,959.375 Q108.5,959.1406 108.5,958.75 Q108.5,958.375 108.7656,958.1406 Q109.0313,957.9063 109.6406,957.9063 L109.9063,957.9063 L109.9063,951.25 L109.6406,951.25 Q109.0156,951.25 108.75,951.0156 Q108.5,950.7813 108.5,950.3906 Q108.5,950.0156 108.75,949.7813 Q109.0156,949.5469 109.6406,949.5469 L117.2656,949.5469 L117.2656,952.1406 Q117.2656,952.75 117.0313,953.0156 Q116.8125,953.2656 116.4219,953.2656 Q116.0469,953.2656 115.8125,953.0156 Q115.5781,952.75 115.5781,952.1406 L115.5781,951.25 L111.6094,951.25 L111.6094,953.7031 L113.0938,953.7031 Q113.0938,953.0469 113.2188,952.8594 Q113.4844,952.4531 113.9531,952.4531 Q114.3281,952.4531 114.5625,952.7188 Q114.7969,952.9688 114.7969,953.5781 L114.7969,955.5469 Q114.7969,956.0938 114.6719,956.2813 Q114.4063,956.6719 113.9531,956.6719 Q113.4844,956.6719 113.2188,956.2656 Q113.0938,956.0781 113.0938,955.4063 L111.6094,955.4063 Z " fill="#000000"/><text fill="#000000" font-family="sans-serif" font-size="14" lengthAdjust="spacing" textLength="40" x="133.25" y="960.3379">Phase</text><line style="stroke:#181818;stroke-width:0.5;" x1="8" x2="266" y1="970.6094" y2="970.6094"/><text fill="#000000" font-family="sans-serif" font-size="14" lengthAdjust="spacing" textLength="248" x="13" y="989.1426">PREPARATION, SURGERY, CLEANING</text><line style="stroke:#181818;stroke-width:0.5;" x1="8" x2="266" y1="996.2188" y2="996.2188"/></g><!--class Duration--><g id="elem_Duration"><rect codeLine="83" fill="#F1F1F1" height="65.6094" id="Duration" rx="2.5" ry="2.5" style="stroke:#181818;stroke-width:0.5;" width="92" x="302" y="938.6094"/><ellipse cx="319.7" cy="954.6094" fill="#ADD1B2" rx="11" ry="11" style="stroke:#181818;stroke-width:1.0;"/><path d="M322.4656,950.4844 Q322.6219,950.2656 322.8094,950.1563 Q322.9969,950.0469 323.2156,950.0469 Q323.5906,950.0469 323.825,950.3125 Q324.0594,950.5625 324.0594,951.1719 L324.0594,952.625 Q324.0594,953.2344 323.825,953.5 Q323.5906,953.7656 323.2156,953.7656 Q322.8719,953.7656 322.6688,953.5625 Q322.4656,953.375 322.3563,952.8594 Q322.3094,952.5 322.1219,952.3125 Q321.7938,951.9375 321.1844,951.7188 Q320.575,951.5 319.95,951.5 Q319.1844,951.5 318.5438,951.8281 Q317.9188,952.1563 317.4188,952.9063 Q316.9344,953.6563 316.9344,954.6875 L316.9344,955.7813 Q316.9344,957.0156 317.825,957.8438 Q318.7156,958.6563 320.3094,958.6563 Q321.2469,958.6563 321.9031,958.4063 Q322.2938,958.25 322.7156,957.8125 Q322.9813,957.5469 323.1219,957.4688 Q323.2781,957.3906 323.4813,957.3906 Q323.8094,957.3906 324.0594,957.6563 Q324.325,957.9063 324.325,958.25 Q324.325,958.5938 323.9813,959 Q323.4813,959.5781 322.6844,959.9063 Q321.6063,960.3594 320.3094,960.3594 Q318.7938,960.3594 317.5906,959.7344 Q316.6063,959.2344 315.9188,958.1719 Q315.2313,957.0938 315.2313,955.8125 L315.2313,954.6563 Q315.2313,953.3281 315.8406,952.1875 Q316.4656,951.0313 317.5594,950.4219 Q318.6531,949.7969 319.8875,949.7969 Q320.6219,949.7969 321.2625,949.9688 Q321.9188,950.125 322.4656,950.4844 Z " fill="#000000"/><text fill="#000000" font-family="sans-serif" font-size="14" lengthAdjust="spacing" textLength="54" x="334.3" y="960.3379">Duration</text><line style="stroke:#181818;stroke-width:0.5;" x1="303" x2="393" y1="970.6094" y2="970.6094"/><text fill="#000000" font-family="sans-serif" font-size="14" lengthAdjust="spacing" textLength="80" x="308" y="989.1426">+Minutes: int</text><line style="stroke:#181818;stroke-width:0.5;" x1="303" x2="393" y1="996.2188" y2="996.2188"/></g><!--class Name--><g id="elem_Name"><rect codeLine="87" fill="#F1F1F1" height="65.6094" id="Name" rx="2.5" ry="2.5" style="stroke:#181818;stroke-width:0.5;" width="99" x="1572.5" y="812.6094"/><ellipse cx="1601.45" cy="828.6094" fill="#ADD1B2" rx="11" ry="11" style="stroke:#181818;stroke-width:1.0;"/><path d="M1604.2156,824.4844 Q1604.3719,824.2656 1604.5594,824.1563 Q1604.7469,824.0469 1604.9656,824.0469 Q1605.3406,824.0469 1605.575,824.3125 Q1605.8094,824.5625 1605.8094,825.1719 L1605.8094,826.625 Q1605.8094,827.2344 1605.575,827.5 Q1605.3406,827.7656 1604.9656,827.7656 Q1604.6219,827.7656 1604.4188,827.5625 Q1604.2156,827.375 1604.1063,826.8594 Q1604.0594,826.5 1603.8719,826.3125 Q1603.5438,825.9375 1602.9344,825.7188 Q1602.325,825.5 1601.7,825.5 Q1600.9344,825.5 1600.2938,825.8281 Q1599.6688,826.1563 1599.1688,826.9063 Q1598.6844,827.6563 1598.6844,828.6875 L1598.6844,829.7813 Q1598.6844,831.0156 1599.575,831.8438 Q1600.4656,832.6563 1602.0594,832.6563 Q1602.9969,832.6563 1603.6531,832.4063 Q1604.0438,832.25 1604.4656,831.8125 Q1604.7313,831.5469 1604.8719,831.4688 Q1605.0281,831.3906 1605.2313,831.3906 Q1605.5594,831.3906 1605.8094,831.6563 Q1606.075,831.9063 1606.075,832.25 Q1606.075,832.5938 1605.7313,833 Q1605.2313,833.5781 1604.4344,833.9063 Q1603.3563,834.3594 1602.0594,834.3594 Q1600.5438,834.3594 1599.3406,833.7344 Q1598.3563,833.2344 1597.6688,832.1719 Q1596.9813,831.0938 1596.9813,829.8125 L1596.9813,828.6563 Q1596.9813,827.3281 1597.5906,826.1875 Q1598.2156,825.0313 1599.3094,824.4219 Q1600.4031,823.7969 1601.6375,823.7969 Q1602.3719,823.7969 1603.0125,823.9688 Q1603.6688,824.125 1604.2156,824.4844 Z " fill="#000000"/><text fill="#000000" font-family="sans-serif" font-size="14" lengthAdjust="spacing" textLength="36" x="1618.55" y="834.3379">Name</text><line style="stroke:#181818;stroke-width:0.5;" x1="1573.5" x2="1670.5" y1="844.6094" y2="844.6094"/><text fill="#000000" font-family="sans-serif" font-size="14" lengthAdjust="spacing" textLength="87" x="1578.5" y="863.1426">+Name: string</text><line style="stroke:#181818;stroke-width:0.5;" x1="1573.5" x2="1670.5" y1="870.2188" y2="870.2188"/></g><!--class OperationTypeID--><g id="elem_OperationTypeID"><rect codeLine="91" fill="#F1F1F1" height="65.6094" id="OperationTypeID" rx="2.5" ry="2.5" style="stroke:#181818;stroke-width:0.5;" width="140" x="1232" y="812.6094"/><ellipse cx="1247" cy="828.6094" fill="#ADD1B2" rx="11" ry="11" style="stroke:#181818;stroke-width:1.0;"/><path d="M1249.7656,824.4844 Q1249.9219,824.2656 1250.1094,824.1563 Q1250.2969,824.0469 1250.5156,824.0469 Q1250.8906,824.0469 1251.125,824.3125 Q1251.3594,824.5625 1251.3594,825.1719 L1251.3594,826.625 Q1251.3594,827.2344 1251.125,827.5 Q1250.8906,827.7656 1250.5156,827.7656 Q1250.1719,827.7656 1249.9688,827.5625 Q1249.7656,827.375 1249.6563,826.8594 Q1249.6094,826.5 1249.4219,826.3125 Q1249.0938,825.9375 1248.4844,825.7188 Q1247.875,825.5 1247.25,825.5 Q1246.4844,825.5 1245.8438,825.8281 Q1245.2188,826.1563 1244.7188,826.9063 Q1244.2344,827.6563 1244.2344,828.6875 L1244.2344,829.7813 Q1244.2344,831.0156 1245.125,831.8438 Q1246.0156,832.6563 1247.6094,832.6563 Q1248.5469,832.6563 1249.2031,832.4063 Q1249.5938,832.25 1250.0156,831.8125 Q1250.2813,831.5469 1250.4219,831.4688 Q1250.5781,831.3906 1250.7813,831.3906 Q1251.1094,831.3906 1251.3594,831.6563 Q1251.625,831.9063 1251.625,832.25 Q1251.625,832.5938 1251.2813,833 Q1250.7813,833.5781 1249.9844,833.9063 Q1248.9063,834.3594 1247.6094,834.3594 Q1246.0938,834.3594 1244.8906,833.7344 Q1243.9063,833.2344 1243.2188,832.1719 Q1242.5313,831.0938 1242.5313,829.8125 L1242.5313,828.6563 Q1242.5313,827.3281 1243.1406,826.1875 Q1243.7656,825.0313 1244.8594,824.4219 Q1245.9531,823.7969 1247.1875,823.7969 Q1247.9219,823.7969 1248.5625,823.9688 Q1249.2188,824.125 1249.7656,824.4844 Z " fill="#000000"/><text fill="#000000" font-family="sans-serif" font-size="14" lengthAdjust="spacing" textLength="108" x="1261" y="834.3379">OperationTypeID</text><line style="stroke:#181818;stroke-width:0.5;" x1="1233" x2="1371" y1="844.6094" y2="844.6094"/><text fill="#000000" font-family="sans-serif" font-size="14" lengthAdjust="spacing" textLength="57" x="1238" y="863.1426">+Id: Guid</text><line style="stroke:#181818;stroke-width:0.5;" x1="1233" x2="1371" y1="870.2188" y2="870.2188"/></g><!--class Role--><g id="elem_Role"><rect codeLine="95" fill="#F1F1F1" height="65.6094" id="Role" rx="2.5" ry="2.5" style="stroke:#181818;stroke-width:0.5;" width="330" x="453" y="938.6094"/><ellipse cx="599.25" cy="954.6094" fill="#EB937F" rx="11" ry="11" style="stroke:#181818;stroke-width:1.0;"/><path d="M598.1094,955.4063 L598.1094,957.9063 L602.4375,957.9063 L602.4375,956.9844 Q602.4375,956.375 602.6719,956.1094 Q602.9219,955.8438 603.2969,955.8438 Q603.6719,955.8438 603.9063,956.1094 Q604.1406,956.375 604.1406,956.9844 L604.1406,959.6094 L596.1406,959.6094 Q595.5156,959.6094 595.25,959.375 Q595,959.1406 595,958.75 Q595,958.375 595.2656,958.1406 Q595.5313,957.9063 596.1406,957.9063 L596.4063,957.9063 L596.4063,951.25 L596.1406,951.25 Q595.5156,951.25 595.25,951.0156 Q595,950.7813 595,950.3906 Q595,950.0156 595.25,949.7813 Q595.5156,949.5469 596.1406,949.5469 L603.7656,949.5469 L603.7656,952.1406 Q603.7656,952.75 603.5313,953.0156 Q603.3125,953.2656 602.9219,953.2656 Q602.5469,953.2656 602.3125,953.0156 Q602.0781,952.75 602.0781,952.1406 L602.0781,951.25 L598.1094,951.25 L598.1094,953.7031 L599.5938,953.7031 Q599.5938,953.0469 599.7188,952.8594 Q599.9844,952.4531 600.4531,952.4531 Q600.8281,952.4531 601.0625,952.7188 Q601.2969,952.9688 601.2969,953.5781 L601.2969,955.5469 Q601.2969,956.0938 601.1719,956.2813 Q600.9063,956.6719 600.4531,956.6719 Q599.9844,956.6719 599.7188,956.2656 Q599.5938,956.0781 599.5938,955.4063 L598.1094,955.4063 Z " fill="#000000"/><text fill="#000000" font-family="sans-serif" font-size="14" lengthAdjust="spacing" textLength="29" x="619.75" y="960.3379">Role</text><line style="stroke:#181818;stroke-width:0.5;" x1="454" x2="782" y1="970.6094" y2="970.6094"/><text fill="#000000" font-family="sans-serif" font-size="14" lengthAdjust="spacing" textLength="318" x="459" y="989.1426">ADMIN, DOCTOR, NURSE, TECHNICIAN, PATIENT</text><line style="stroke:#181818;stroke-width:0.5;" x1="454" x2="782" y1="996.2188" y2="996.2188"/></g><!--class Status--><g id="elem_Status"><rect codeLine="99" fill="#F1F1F1" height="65.6094" id="Status" rx="2.5" ry="2.5" style="stroke:#181818;stroke-width:0.5;" width="130" x="1407" y="812.6094"/><ellipse cx="1448.1" cy="828.6094" fill="#EB937F" rx="11" ry="11" style="stroke:#181818;stroke-width:1.0;"/><path d="M1446.9594,829.4063 L1446.9594,831.9063 L1451.2875,831.9063 L1451.2875,830.9844 Q1451.2875,830.375 1451.5219,830.1094 Q1451.7719,829.8438 1452.1469,829.8438 Q1452.5219,829.8438 1452.7563,830.1094 Q1452.9906,830.375 1452.9906,830.9844 L1452.9906,833.6094 L1444.9906,833.6094 Q1444.3656,833.6094 1444.1,833.375 Q1443.85,833.1406 1443.85,832.75 Q1443.85,832.375 1444.1156,832.1406 Q1444.3813,831.9063 1444.9906,831.9063 L1445.2563,831.9063 L1445.2563,825.25 L1444.9906,825.25 Q1444.3656,825.25 1444.1,825.0156 Q1443.85,824.7813 1443.85,824.3906 Q1443.85,824.0156 1444.1,823.7813 Q1444.3656,823.5469 1444.9906,823.5469 L1452.6156,823.5469 L1452.6156,826.1406 Q1452.6156,826.75 1452.3813,827.0156 Q1452.1625,827.2656 1451.7719,827.2656 Q1451.3969,827.2656 1451.1625,827.0156 Q1450.9281,826.75 1450.9281,826.1406 L1450.9281,825.25 L1446.9594,825.25 L1446.9594,827.7031 L1448.4438,827.7031 Q1448.4438,827.0469 1448.5688,826.8594 Q1448.8344,826.4531 1449.3031,826.4531 Q1449.6781,826.4531 1449.9125,826.7188 Q1450.1469,826.9688 1450.1469,827.5781 L1450.1469,829.5469 Q1450.1469,830.0938 1450.0219,830.2813 Q1449.7563,830.6719 1449.3031,830.6719 Q1448.8344,830.6719 1448.5688,830.2656 Q1448.4438,830.0781 1448.4438,829.4063 L1446.9594,829.4063 Z " fill="#000000"/><text fill="#000000" font-family="sans-serif" font-size="14" lengthAdjust="spacing" textLength="40" x="1467.9" y="834.3379">Status</text><line style="stroke:#181818;stroke-width:0.5;" x1="1408" x2="1536" y1="844.6094" y2="844.6094"/><text fill="#000000" font-family="sans-serif" font-size="14" lengthAdjust="spacing" textLength="118" x="1413" y="863.1426">ACTIVE, INACTIVE</text><line style="stroke:#181818;stroke-width:0.5;" x1="1408" x2="1536" y1="870.2188" y2="870.2188"/></g><!--link Quantity to GMN13--><g id="link_Quantity_GMN13"><path d="M886,938.2694 C886,923.1494 886,908.6094 886,908.6094 C886,908.6094 1320.25,908.6094 1320.25,908.6094 C1320.25,908.6094 1320.25,940.0994 1320.25,958.5594 " fill="none" id="Quantity-GMN13" style="stroke:#181818;stroke-width:1.0;stroke-dasharray:7.0,7.0;"/></g><!--link OperationTypeController to OperationTypeService--><g id="link_OperationTypeController_OperationTypeService"><path codeLine="103" d="M1245.75,128.6394 C1245.75,149.9994 1245.75,169.9694 1245.75,191.3594 " fill="none" id="OperationTypeController-to-OperationTypeService" style="stroke:#181818;stroke-width:1.0;stroke-dasharray:7.0,7.0;"/><polygon fill="#181818" points="1245.75,197.3594,1249.75,188.3594,1245.75,192.3594,1241.75,188.3594,1245.75,197.3594" style="stroke:#181818;stroke-width:1.0;"/><polygon fill="#000000" points="1207.75,159.1752,1210.6889,150.1301,1204.8111,150.1301,1207.75,159.1752" style="stroke:#000000;stroke-width:1.0;"/><text fill="#000000" font-family="sans-serif" font-size="13" lengthAdjust="spacing" textLength="28" x="1216.75" y="159.4945">uses</text></g><!--link OperationTypeController to OperationTypeDto--><g id="link_OperationTypeController_OperationTypeDto"><path codeLine="104" d="M1060.25,128.9294 C1060.25,220.0794 1060.25,431.7794 1060.25,548.5294 " fill="none" id="OperationTypeController-to-OperationTypeDto" style="stroke:#181818;stroke-width:1.0;"/><polygon fill="#181818" points="1060.25,554.5294,1064.25,545.5294,1060.25,549.5294,1056.25,545.5294,1060.25,554.5294" style="stroke:#181818;stroke-width:1.0;"/><polygon fill="#000000" points="1010.25,337.9052,1013.1889,328.8601,1007.3111,328.8601,1010.25,337.9052" style="stroke:#000000;stroke-width:1.0;"/><text fill="#000000" font-family="sans-serif" font-size="13" lengthAdjust="spacing" textLength="40" x="1019.25" y="338.2245">returns</text></g><!--link OperationTypeService to OperationTypeRepository--><g id="link_OperationTypeService_OperationTypeRepository"><path codeLine="106" d="M1523.67,239.6094 C1535.23,239.6094 1540.83,239.6094 1552.35,239.6094 " fill="none" id="OperationTypeService-to-OperationTypeRepository" style="stroke:#181818;stroke-width:1.0;"/><polygon fill="#181818" points="1558.35,239.6094,1549.35,235.6094,1553.35,239.6094,1549.35,243.6094,1558.35,239.6094" style="stroke:#181818;stroke-width:1.0;"/><polygon fill="#000000" points="1529.51,248.7852,1520.4649,245.8462,1520.4649,251.7241,1529.51,248.7852" style="stroke:#000000;stroke-width:1.0;"/><text fill="#000000" font-family="sans-serif" font-size="13" lengthAdjust="spacing" textLength="28" x="1533.51" y="254.1045">uses</text></g><!--link OperationTypeService to OperationType--><g id="link_OperationTypeService_OperationType"><path codeLine="107" d="M1319.5,280.7394 C1319.5,334.9994 1319.5,426.1894 1319.5,504.5494 " fill="none" id="OperationTypeService-to-OperationType" style="stroke:#181818;stroke-width:1.0;"/><polygon fill="#181818" points="1319.5,510.5494,1323.5,501.5494,1319.5,505.5494,1315.5,501.5494,1319.5,510.5494" style="stroke:#181818;stroke-width:1.0;"/><polygon fill="#000000" points="1263.5,391.8152,1266.4389,382.7701,1260.5611,382.7701,1263.5,391.8152" style="stroke:#000000;stroke-width:1.0;"/><text fill="#000000" font-family="sans-serif" font-size="13" lengthAdjust="spacing" textLength="46" x="1272.5" y="392.1345">updates</text></g><!--link OperationTypeService to OperationTypeDto--><g id="link_OperationTypeService_OperationTypeDto"><path codeLine="108" d="M1180.25,280.7394 C1180.25,345.7494 1180.25,466.3994 1180.25,548.4294 " fill="none" id="OperationTypeService-to-OperationTypeDto" style="stroke:#181818;stroke-width:1.0;"/><polygon fill="#181818" points="1180.25,554.4294,1184.25,545.4294,1180.25,549.4294,1176.25,545.4294,1180.25,554.4294" style="stroke:#181818;stroke-width:1.0;"/><polygon fill="#000000" points="1127.25,413.7652,1130.1889,404.7201,1124.3111,404.7201,1127.25,413.7652" style="stroke:#000000;stroke-width:1.0;"/><text fill="#000000" font-family="sans-serif" font-size="13" lengthAdjust="spacing" textLength="43" x="1136.25" y="414.0845">creates</text></g><!--link OperationTypeRepository to IOperationTypeRepository--><g id="link_OperationTypeRepository_IOperationTypeRepository"><path codeLine="110" d="M1663,290.0494 C1663,309.0294 1663,324.5494 1663,343.4994 " fill="none" id="OperationTypeRepository-to-IOperationTypeRepository" style="stroke:#181818;stroke-width:1.0;"/><polygon fill="#181818" points="1663,349.4994,1667,340.4994,1663,344.4994,1659,340.4994,1663,349.4994" style="stroke:#181818;stroke-width:1.0;"/><polygon fill="#000000" points="1586,315.9552,1588.9389,306.9101,1583.0611,306.9101,1586,315.9552" style="stroke:#000000;stroke-width:1.0;"/><text fill="#000000" font-family="sans-serif" font-size="13" lengthAdjust="spacing" textLength="67" x="1595" y="316.2745">implements</text></g><!--link OperationTypeRepository to OperationType--><g id="link_OperationTypeRepository_OperationType"><path codeLine="111" d="M1558.35,285.6094 C1451.46,285.6094 1342,285.6094 1342,285.6094 C1342,285.6094 1342,404.8194 1342,504.5994 " fill="none" id="OperationTypeRepository-to-OperationType" style="stroke:#181818;stroke-width:1.0;"/><polygon fill="#181818" points="1342,510.5994,1346,501.5994,1342,505.5994,1338,501.5994,1342,510.5994" style="stroke:#181818;stroke-width:1.0;"/><polygon fill="#000000" points="1224.486,302.6621,1232.9336,298.2931,1228.7522,294.1621,1224.486,302.6621" style="stroke:#000000;stroke-width:1.0;"/><text fill="#000000" font-family="sans-serif" font-size="13" lengthAdjust="spacing" textLength="104" x="1237" y="304.4245">saves in database</text></g><!--link OperationType to OperationTypeID--><g id="link_OperationType_OperationTypeID"><path codeLine="113" d="M1334.5,752.6794 C1334.5,774.6194 1334.5,789.7594 1334.5,806.3194 " fill="none" id="OperationType-to-OperationTypeID" style="stroke:#181818;stroke-width:1.0;"/><polygon fill="#181818" points="1334.5,812.3194,1338.5,803.3194,1334.5,807.3194,1330.5,803.3194,1334.5,812.3194" style="stroke:#181818;stroke-width:1.0;"/><polygon fill="#000000" points="1303.5,778.6752,1306.4389,769.6301,1300.5611,769.6301,1303.5,778.6752" style="stroke:#000000;stroke-width:1.0;"/><text fill="#000000" font-family="sans-serif" font-size="13" lengthAdjust="spacing" textLength="21" x="1312.5" y="778.9945">has</text></g><!--link OperationType to Name--><g id="link_OperationType_Name"><path codeLine="114" d="M1638.5,752.6794 C1638.5,774.6194 1638.5,789.7594 1638.5,806.3194 " fill="none" id="OperationType-to-Name" style="stroke:#181818;stroke-width:1.0;"/><polygon fill="#181818" points="1638.5,812.3194,1642.5,803.3194,1638.5,807.3194,1634.5,803.3194,1638.5,812.3194" style="stroke:#181818;stroke-width:1.0;"/><polygon fill="#000000" points="1607.5,778.6752,1610.4389,769.6301,1604.5611,769.6301,1607.5,778.6752" style="stroke:#000000;stroke-width:1.0;"/><text fill="#000000" font-family="sans-serif" font-size="13" lengthAdjust="spacing" textLength="21" x="1616.5" y="778.9945">has</text></g><!--link OperationType to Status--><g id="link_OperationType_Status"><path codeLine="115" d="M1493.67,752.6794 C1493.67,774.6194 1493.67,789.7594 1493.67,806.3194 " fill="none" id="OperationType-to-Status" style="stroke:#181818;stroke-width:1.0;"/><polygon fill="#181818" points="1493.67,812.3194,1497.67,803.3194,1493.67,807.3194,1489.67,803.3194,1493.67,812.3194" style="stroke:#181818;stroke-width:1.0;"/><polygon fill="#000000" points="1462.67,778.6752,1465.6089,769.6301,1459.7311,769.6301,1462.67,778.6752" style="stroke:#000000;stroke-width:1.0;"/><text fill="#000000" font-family="sans-serif" font-size="13" lengthAdjust="spacing" textLength="21" x="1471.67" y="778.9945">has</text></g><!--link OperationType to Specialization--><g id="link_OperationType_Specialization"><path codeLine="116" d="M1296.78,741.6094 C1241.28,741.6094 1196.67,741.6094 1196.67,741.6094 C1196.67,741.6094 1196.67,868.3794 1196.67,932.1694 " fill="none" id="OperationType-to-Specialization" style="stroke:#181818;stroke-width:1.0;"/><polygon fill="#181818" points="1196.67,938.1694,1200.67,929.1694,1196.67,933.1694,1192.67,929.1694,1196.67,938.1694" style="stroke:#181818;stroke-width:1.0;"/><polygon fill="#000000" points="1163.3446,785.4315,1170.153,778.791,1164.9495,776.0573,1163.3446,785.4315" style="stroke:#000000;stroke-width:1.0;"/><text fill="#000000" font-family="sans-serif" font-size="13" lengthAdjust="spacing" textLength="21" x="1174.67" y="786.3245">has</text></g><!--link OperationType to RequiredStaff--><g id="link_OperationType_RequiredStaff"><path codeLine="117" d="M1297,730.6094 C1033.47,730.6094 618,730.6094 618,730.6094 C618,730.6094 618,772.3794 618,806.3494 " fill="none" id="OperationType-to-RequiredStaff" style="stroke:#181818;stroke-width:1.0;"/><polygon fill="#181818" points="618,812.3494,622,803.3494,618,807.3494,614,803.3494,618,812.3494" style="stroke:#181818;stroke-width:1.0;"/><polygon fill="#000000" points="880.6608,722.3395,889.976,724.2575,889.3243,718.4159,880.6608,722.3395" style="stroke:#000000;stroke-width:1.0;"/><text fill="#000000" font-family="sans-serif" font-size="13" lengthAdjust="spacing" textLength="21" x="894.63" y="727.1045">has</text></g><!--link OperationType to PhasesDuration--><g id="link_OperationType_PhasesDuration"><path codeLine="118" d="M1296.94,719.6094 C966.78,719.6094 367.33,719.6094 367.33,719.6094 C367.33,719.6094 367.33,769.1694 367.33,806.4994 " fill="none" id="OperationType-to-PhasesDuration" style="stroke:#181818;stroke-width:1.0;"/><polygon fill="#181818" points="367.33,812.4994,371.33,803.4994,367.33,807.4994,363.33,803.4994,367.33,812.4994" style="stroke:#181818;stroke-width:1.0;"/><polygon fill="#000000" points="749.7117,711.2505,758.991,713.3349,758.444,707.4825,749.7117,711.2505" style="stroke:#000000;stroke-width:1.0;"/><text fill="#000000" font-family="sans-serif" font-size="13" lengthAdjust="spacing" textLength="21" x="763.69" y="716.1045">has</text></g><!--link OperationTypeDto to OperationTypeID--><g id="link_OperationTypeDto_OperationTypeID"><path codeLine="120" d="M1239.5,708.8694 C1239.5,744.4294 1239.5,778.7394 1239.5,806.3294 " fill="none" id="OperationTypeDto-to-OperationTypeID" style="stroke:#181818;stroke-width:1.0;"/><polygon fill="#181818" points="1239.5,812.3294,1243.5,803.3294,1239.5,807.3294,1235.5,803.3294,1239.5,812.3294" style="stroke:#181818;stroke-width:1.0;"/><polygon fill="#000000" points="1208.5,756.7752,1211.4389,747.7301,1205.5611,747.7301,1208.5,756.7752" style="stroke:#000000;stroke-width:1.0;"/><text fill="#000000" font-family="sans-serif" font-size="13" lengthAdjust="spacing" textLength="21" x="1217.5" y="757.0945">has</text></g><!--link OperationTypeDto to Name--><g id="link_OperationTypeDto_Name"><path codeLine="121" d="M1254.5,708.7094 C1254.5,741.6294 1254.5,772.6094 1254.5,772.6094 C1254.5,772.6094 1605.5,772.6094 1605.5,772.6094 C1605.5,772.6094 1605.5,787.2094 1605.5,806.5294 " fill="none" id="OperationTypeDto-to-Name" style="stroke:#181818;stroke-width:1.0;"/><polygon fill="#181818" points="1605.5,812.5294,1609.5,803.5294,1605.5,807.5294,1601.5,803.5294,1605.5,812.5294" style="stroke:#181818;stroke-width:1.0;"/><polygon fill="#000000" points="1391.8265,765.1275,1383.9024,759.8682,1382.3244,765.5303,1391.8265,765.1275" style="stroke:#000000;stroke-width:1.0;"/><text fill="#000000" font-family="sans-serif" font-size="13" lengthAdjust="spacing" textLength="21" x="1396.01" y="769.1045">has</text></g><!--link OperationTypeDto to Status--><g id="link_OperationTypeDto_Status"><path codeLine="122" d="M1247,708.8094 C1247,750.1294 1247,792.6094 1247,792.6094 C1247,792.6094 1450.33,792.6094 1450.33,792.6094 C1450.33,792.6094 1450.33,795.6994 1450.33,806.3494 " fill="none" id="OperationTypeDto-to-Status" style="stroke:#181818;stroke-width:1.0;"/><polygon fill="#181818" points="1450.33,812.3494,1454.33,803.3494,1450.33,807.3494,1446.33,803.3494,1450.33,812.3494" style="stroke:#181818;stroke-width:1.0;"/><polygon fill="#000000" points="1290.1381,803.9478,1283.254,797.3858,1280.7117,802.6854,1290.1381,803.9478" style="stroke:#000000;stroke-width:1.0;"/><text fill="#000000" font-family="sans-serif" font-size="13" lengthAdjust="spacing" textLength="21" x="1294.63" y="807.1045">has</text></g><!--link OperationTypeDto to Specialization--><g id="link_OperationTypeDto_Specialization"><path codeLine="123" d="M1161.33,708.7594 C1161.33,781.0594 1161.33,879.6694 1161.33,932.4694 " fill="none" id="OperationTypeDto-to-Specialization" style="stroke:#181818;stroke-width:1.0;"/><polygon fill="#181818" points="1161.33,938.4694,1165.33,929.4694,1161.33,933.4694,1157.33,929.4694,1161.33,938.4694" style="stroke:#181818;stroke-width:1.0;"/><polygon fill="#000000" points="1130.33,819.7952,1133.2689,810.7501,1127.3911,810.7501,1130.33,819.7952" style="stroke:#000000;stroke-width:1.0;"/><text fill="#000000" font-family="sans-serif" font-size="13" lengthAdjust="spacing" textLength="21" x="1139.33" y="820.1145">has</text></g><!--link OperationTypeDto to RequiredStaff--><g id="link_OperationTypeDto_RequiredStaff"><path codeLine="124" d="M1074,708.7494 C1074,761.7594 1074,822.6094 1074,822.6094 C1074,822.6094 887.98,822.6094 753.15,822.6094 " fill="none" id="OperationTypeDto-to-RequiredStaff" style="stroke:#181818;stroke-width:1.0;"/><polygon fill="#181818" points="747.15,822.6094,756.15,826.6094,752.15,822.6094,756.15,818.6094,747.15,822.6094" style="stroke:#181818;stroke-width:1.0;"/><polygon fill="#000000" points="887.7979,815.4573,897.305,815.202,895.3393,809.6626,887.7979,815.4573" style="stroke:#000000;stroke-width:1.0;"/><text fill="#000000" font-family="sans-serif" font-size="13" lengthAdjust="spacing" textLength="65" x="901.51" y="819.1045">has several</text></g><!--link OperationTypeDto to PhasesDuration--><g id="link_OperationTypeDto_PhasesDuration"><path codeLine="125" d="M1021.78,631.6094 C784.92,631.6094 280.67,631.6094 280.67,631.6094 C280.67,631.6094 280.67,745.9894 280.67,806.1694 " fill="none" id="OperationTypeDto-to-PhasesDuration" style="stroke:#181818;stroke-width:1.0;"/><polygon fill="#181818" points="280.67,812.1694,284.67,803.1694,280.67,807.1694,276.67,803.1694,280.67,812.1694" style="stroke:#181818;stroke-width:1.0;"/><polygon fill="#000000" points="525.0732,623.9315,534.5511,624.7184,533.2035,618.9971,525.0732,623.9315" style="stroke:#000000;stroke-width:1.0;"/><text fill="#000000" font-family="sans-serif" font-size="13" lengthAdjust="spacing" textLength="21" x="538.94" y="628.1045">has</text></g><!--link RequiredStaff to Role--><g id="link_RequiredStaff_Role"><path codeLine="127" d="M618,878.7194 C618,897.0894 618,913.8794 618,932.2894 " fill="none" id="RequiredStaff-to-Role" style="stroke:#181818;stroke-width:1.0;"/><polygon fill="#181818" points="618,938.2894,622,929.2894,618,933.2894,614,929.2894,618,938.2894" style="stroke:#181818;stroke-width:1.0;"/><text fill="#000000" font-family="sans-serif" font-size="13" lengthAdjust="spacing" textLength="21" x="596" y="904.9945">has</text></g><!--link RequiredStaff to Specialization--><g id="link_RequiredStaff_Specialization"><path codeLine="128" d="M747.11,865.6094 C887.01,865.6094 1090.5,865.6094 1090.5,865.6094 C1090.5,865.6094 1090.5,901.2794 1090.5,932.3594 " fill="none" id="RequiredStaff-to-Specialization" style="stroke:#181818;stroke-width:1.0;"/><polygon fill="#181818" points="1090.5,938.3594,1094.5,929.3594,1090.5,933.3594,1086.5,929.3594,1090.5,938.3594" style="stroke:#181818;stroke-width:1.0;"/><polygon fill="#000000" points="929.0881,875.7392,920.77,871.1284,919.6485,876.8982,929.0881,875.7392" style="stroke:#000000;stroke-width:1.0;"/><text fill="#000000" font-family="sans-serif" font-size="13" lengthAdjust="spacing" textLength="21" x="933.18" y="880.1045">has</text></g><!--link RequiredStaff to Quantity--><g id="link_RequiredStaff_Quantity"><path codeLine="129" d="M747.4,872.6094 C828.6,872.6094 918,872.6094 918,872.6094 C918,872.6094 918,903.6094 918,932.3694 " fill="none" id="RequiredStaff-to-Quantity" style="stroke:#181818;stroke-width:1.0;"/><polygon fill="#181818" points="918,938.3694,922,929.3694,918,933.3694,914,929.3694,918,938.3694" style="stroke:#181818;stroke-width:1.0;"/><polygon fill="#000000" points="839.2989,883.4381,831.734,877.6742,829.7908,883.2215,839.2989,883.4381" style="stroke:#000000;stroke-width:1.0;"/><text fill="#000000" font-family="sans-serif" font-size="13" lengthAdjust="spacing" textLength="21" x="843.58" y="887.1045">has</text></g><!--link PhasesDuration to Phase--><g id="link_PhasesDuration_Phase"><path codeLine="131" d="M230.5,878.7194 C230.5,897.0894 230.5,913.8794 230.5,932.2894 " fill="none" id="PhasesDuration-to-Phase" style="stroke:#181818;stroke-width:1.0;"/><polygon fill="#181818" points="230.5,938.2894,234.5,929.2894,230.5,933.2894,226.5,929.2894,230.5,938.2894" style="stroke:#181818;stroke-width:1.0;"/><polygon fill="#000000" points="199.5,904.6752,202.4389,895.6301,196.5611,895.6301,199.5,904.6752" style="stroke:#000000;stroke-width:1.0;"/><text fill="#000000" font-family="sans-serif" font-size="13" lengthAdjust="spacing" textLength="21" x="208.5" y="904.9945">has</text></g><!--link PhasesDuration to Duration--><g id="link_PhasesDuration_Duration"><path codeLine="132" d="M348,878.7194 C348,897.0894 348,913.8794 348,932.2894 " fill="none" id="PhasesDuration-to-Duration" style="stroke:#181818;stroke-width:1.0;"/><polygon fill="#181818" points="348,938.2894,352,929.2894,348,933.2894,344,929.2894,348,938.2894" style="stroke:#181818;stroke-width:1.0;"/><polygon fill="#000000" points="317,904.6752,319.9389,895.6301,314.0611,895.6301,317,904.6752" style="stroke:#000000;stroke-width:1.0;"/><text fill="#000000" font-family="sans-serif" font-size="13" lengthAdjust="spacing" textLength="21" x="326" y="904.9945">has</text></g><!--SRC=[tLLDR-Cs4BthLypHYtMAnHwDm80g6Qc0ZPFAJe6U2beUsqHeKYKf5zwY_xr3wYEc9Ncps5FhWss9xxrvCnmEpIkN9TFi22KhNjaUL_Oi43GMbiczmCXq07DWM_KNbtlOCM4kLmh1Z8cjrNnJMSmA9LVyAyAd2uZW4ksvH53Q7bGK2TnPi0eqtnyiRBaBo9MCh2hTwusoLXqltaUMM_ALk4YGShPtefCa_G1ty99y-lmvYhmBU2fHCqTPKxH4IQkL4AZXxmZey_41RIp4vCCCrioytiTUFKTJ2NkVBMHr9FP6u7qWarerdyzhWPNQsHG5MfpmxGmUAhuT5EiBHFyCUboXFl42GuEnESkYS_c5cq51JyWaexWdPh4cELS1DkiCzYH6BELOAiEjqkSBLp-Vi-ttHPX_JqO_cexFXKkBUiUecjd_8w61pMapo7ewQRsmP4USWVjkEjOoMvaPrB_Dkn8BpWJ_wjcq5ZpNc1p_hEZyROctsyt0PnYyQn9yFZ239grqenK-rvZaGDC4dQU9xEnHsYV5jpNYaUdNs3J5macmLhD3ZnDpCuK1Vk1zeh-PtO14cDgal9bvon_UHZf-_xMTx189k4qMT_27gULJxkSWq-VxN0cSWeVzMZ59C_pisbegYytaLxjGpMiv6XHCWfBY31i41buRQ9PJGL9Lq56UmhBInbqe41j3AP5-X78BJhrrsaPjIzq-pu16HSz9k-gn7VLO6UjCx3NI8TPWgHNeRhiE5HQ-3PYYuNlPrFFYuQsOOP7VgbatLr1E3vr2Y_KJ0kdEgZKQwdE-U8xpU9qzBQdqB_d38lzz2icNHRpCbWzlSQyYVdpaaYvlqrQcGRdcQn5rEngwvkL-fAkpzBAftUNOUVIRMY_6wMD6vjAdPFsKqpw-vAl55DQBv9TbbcGnBJsJ_yLotP7hZc_foJhxZGZPilxdK6FN_a_puTjs1dEegBwZn3lwpFj7rl4qsafBSnMqLRvcNTmzmq4xOYzWJIYtr7RlvhGc2z-jroOlp3XcTiifFvO2ZoYjkQdHTspO2Gsr4P1njg7El3BHfr7RE29ryG3Ij-3uSjCQDm3XmHm7XcDj77TrObjWrDk7T-VPWiTJRH6tikqmxqYunGxc30PFX1N3bB7qGoalxiUrM-olZPZi0xivt0MwCj1vwX03W9xTVm40]--></g></svg>