<?xml version="1.0" encoding="us-ascii" standalone="no"?><svg xmlns="http://www.w3.org/2000/svg" xmlns:xlink="http://www.w3.org/1999/xlink" contentStyleType="text/css" height="479px" preserveAspectRatio="none" style="width:1296px;height:479px;background:#FFFFFF;" version="1.1" viewBox="0 0 1296 479" width="1296px" zoomAndPan="magnify"><defs/><g><text fill="#000000" font-family="sans-serif" font-size="14" font-weight="bold" lengthAdjust="spacing" textLength="222" x="536" y="29.5332">Sequence Diagram (SD) - UC022</text><rect fill="#FFFFFF" height="316.5156" style="stroke:#181818;stroke-width:1.0;" width="10" x="176" y="108.5703"/><rect fill="#FFFFFF" height="255.8125" style="stroke:#181818;stroke-width:1.0;" width="10" x="349.5" y="138.9219"/><rect fill="#FFFFFF" height="30.3516" style="stroke:#181818;stroke-width:1.0;" width="10" x="853.5" y="290.6797"/><rect fill="#FFFFFF" height="91.0547" style="stroke:#181818;stroke-width:1.0;" width="10" x="1006.5" y="169.2734"/><rect fill="#FFFFFF" height="30.3516" style="stroke:#181818;stroke-width:1.0;" width="10" x="1195" y="199.625"/><line style="stroke:#181818;stroke-width:0.5;stroke-dasharray:5.0,5.0;" x1="180.5" x2="180.5" y1="76.2188" y2="443.0859"/><line style="stroke:#181818;stroke-width:0.5;stroke-dasharray:5.0,5.0;" x1="354.5" x2="354.5" y1="76.2188" y2="443.0859"/><line style="stroke:#181818;stroke-width:0.5;stroke-dasharray:5.0,5.0;" x1="858" x2="858" y1="76.2188" y2="443.0859"/><line style="stroke:#181818;stroke-width:0.5;stroke-dasharray:5.0,5.0;" x1="1011" x2="1011" y1="76.2188" y2="443.0859"/><line style="stroke:#181818;stroke-width:0.5;stroke-dasharray:5.0,5.0;" x1="1200" x2="1200" y1="76.2188" y2="443.0859"/><rect fill="#E2E2F0" height="31.6094" rx="2.5" ry="2.5" style="stroke:#181818;stroke-width:0.5;" width="171" x="95.5" y="43.6094"/><text fill="#000000" font-family="sans-serif" font-size="14" lengthAdjust="spacing" textLength="157" x="102.5" y="65.1426">OperationTypeController</text><rect fill="#E2E2F0" height="31.6094" rx="2.5" ry="2.5" style="stroke:#181818;stroke-width:0.5;" width="171" x="95.5" y="442.0859"/><text fill="#000000" font-family="sans-serif" font-size="14" lengthAdjust="spacing" textLength="157" x="102.5" y="463.6191">OperationTypeController</text><rect fill="#E2E2F0" height="31.6094" rx="2.5" ry="2.5" style="stroke:#181818;stroke-width:0.5;" width="156" x="276.5" y="43.6094"/><text fill="#000000" font-family="sans-serif" font-size="14" lengthAdjust="spacing" textLength="142" x="283.5" y="65.1426">OperationTypeService</text><rect fill="#E2E2F0" height="31.6094" rx="2.5" ry="2.5" style="stroke:#181818;stroke-width:0.5;" width="156" x="276.5" y="442.0859"/><text fill="#000000" font-family="sans-serif" font-size="14" lengthAdjust="spacing" textLength="142" x="283.5" y="463.6191">OperationTypeService</text><rect fill="#E2E2F0" height="31.6094" rx="2.5" ry="2.5" style="stroke:#181818;stroke-width:0.5;" width="109" x="804" y="43.6094"/><text fill="#000000" font-family="sans-serif" font-size="14" lengthAdjust="spacing" textLength="95" x="811" y="65.1426">OperationType</text><rect fill="#E2E2F0" height="31.6094" rx="2.5" ry="2.5" style="stroke:#181818;stroke-width:0.5;" width="109" x="804" y="442.0859"/><text fill="#000000" font-family="sans-serif" font-size="14" lengthAdjust="spacing" textLength="95" x="811" y="463.6191">OperationType</text><rect fill="#E2E2F0" height="31.6094" rx="2.5" ry="2.5" style="stroke:#181818;stroke-width:0.5;" width="177" x="923" y="43.6094"/><text fill="#000000" font-family="sans-serif" font-size="14" lengthAdjust="spacing" textLength="163" x="930" y="65.1426">OperationTypeRepository</text><rect fill="#E2E2F0" height="31.6094" rx="2.5" ry="2.5" style="stroke:#181818;stroke-width:0.5;" width="177" x="923" y="442.0859"/><text fill="#000000" font-family="sans-serif" font-size="14" lengthAdjust="spacing" textLength="163" x="930" y="463.6191">OperationTypeRepository</text><rect fill="#E2E2F0" height="31.6094" rx="2.5" ry="2.5" style="stroke:#181818;stroke-width:0.5;" width="180" x="1110" y="43.6094"/><text fill="#000000" font-family="sans-serif" font-size="14" lengthAdjust="spacing" textLength="166" x="1117" y="65.1426">IOperationTypeRepository</text><rect fill="#E2E2F0" height="31.6094" rx="2.5" ry="2.5" style="stroke:#181818;stroke-width:0.5;" width="180" x="1110" y="442.0859"/><text fill="#000000" font-family="sans-serif" font-size="14" lengthAdjust="spacing" textLength="166" x="1117" y="463.6191">IOperationTypeRepository</text><rect fill="#FFFFFF" height="316.5156" style="stroke:#181818;stroke-width:1.0;" width="10" x="176" y="108.5703"/><rect fill="#FFFFFF" height="255.8125" style="stroke:#181818;stroke-width:1.0;" width="10" x="349.5" y="138.9219"/><rect fill="#FFFFFF" height="30.3516" style="stroke:#181818;stroke-width:1.0;" width="10" x="853.5" y="290.6797"/><rect fill="#FFFFFF" height="91.0547" style="stroke:#181818;stroke-width:1.0;" width="10" x="1006.5" y="169.2734"/><rect fill="#FFFFFF" height="30.3516" style="stroke:#181818;stroke-width:1.0;" width="10" x="1195" y="199.625"/><polygon fill="#181818" points="164,104.5703,174,108.5703,164,112.5703,168,108.5703" style="stroke:#181818;stroke-width:1.0;"/><line style="stroke:#181818;stroke-width:1.0;" x1="0" x2="170" y1="108.5703" y2="108.5703"/><text fill="#000000" font-family="sans-serif" font-size="13" lengthAdjust="spacing" textLength="157" x="7" y="103.7139">DELETE /api/operationtype</text><polygon fill="#181818" points="337.5,134.9219,347.5,138.9219,337.5,142.9219,341.5,138.9219" style="stroke:#181818;stroke-width:1.0;"/><line style="stroke:#181818;stroke-width:1.0;" x1="186" x2="343.5" y1="138.9219" y2="138.9219"/><text fill="#000000" font-family="sans-serif" font-size="13" lengthAdjust="spacing" textLength="117" x="193" y="134.0654">InactivateAsync(dto)</text><polygon fill="#181818" points="994.5,165.2734,1004.5,169.2734,994.5,173.2734,998.5,169.2734" style="stroke:#181818;stroke-width:1.0;"/><line style="stroke:#181818;stroke-width:1.0;" x1="359.5" x2="1000.5" y1="169.2734" y2="169.2734"/><text fill="#000000" font-family="sans-serif" font-size="13" lengthAdjust="spacing" textLength="102" x="366.5" y="164.417">GetByIdAsync(id)</text><polygon fill="#181818" points="1183,195.625,1193,199.625,1183,203.625,1187,199.625" style="stroke:#181818;stroke-width:1.0;"/><line style="stroke:#181818;stroke-width:1.0;" x1="1016.5" x2="1189" y1="199.625" y2="199.625"/><text fill="#000000" font-family="sans-serif" font-size="13" lengthAdjust="spacing" textLength="102" x="1023.5" y="194.7686">GetByIdAsync(id)</text><polygon fill="#181818" points="1027.5,225.9766,1017.5,229.9766,1027.5,233.9766,1023.5,229.9766" style="stroke:#181818;stroke-width:1.0;"/><line style="stroke:#181818;stroke-width:1.0;stroke-dasharray:2.0,2.0;" x1="1021.5" x2="1199" y1="229.9766" y2="229.9766"/><text fill="#000000" font-family="sans-serif" font-size="13" lengthAdjust="spacing" textLength="81" x="1033.5" y="225.1201">operationType</text><polygon fill="#181818" points="370.5,256.3281,360.5,260.3281,370.5,264.3281,366.5,260.3281" style="stroke:#181818;stroke-width:1.0;"/><line style="stroke:#181818;stroke-width:1.0;stroke-dasharray:2.0,2.0;" x1="364.5" x2="1010.5" y1="260.3281" y2="260.3281"/><text fill="#000000" font-family="sans-serif" font-size="13" lengthAdjust="spacing" textLength="81" x="376.5" y="255.4717">operationType</text><polygon fill="#181818" points="841.5,286.6797,851.5,290.6797,841.5,294.6797,845.5,290.6797" style="stroke:#181818;stroke-width:1.0;"/><line style="stroke:#181818;stroke-width:1.0;" x1="359.5" x2="847.5" y1="290.6797" y2="290.6797"/><text fill="#000000" font-family="sans-serif" font-size="13" lengthAdjust="spacing" textLength="96" x="366.5" y="285.8232">MarkAsInactive()</text><polygon fill="#181818" points="370.5,317.0313,360.5,321.0313,370.5,325.0313,366.5,321.0313" style="stroke:#181818;stroke-width:1.0;"/><line style="stroke:#181818;stroke-width:1.0;stroke-dasharray:2.0,2.0;" x1="364.5" x2="857.5" y1="321.0313" y2="321.0313"/><text fill="#000000" font-family="sans-serif" font-size="13" lengthAdjust="spacing" textLength="22" x="376.5" y="316.1748">void</text><line style="stroke:#181818;stroke-width:1.0;" x1="359.5" x2="401.5" y1="351.3828" y2="351.3828"/><line style="stroke:#181818;stroke-width:1.0;" x1="401.5" x2="401.5" y1="351.3828" y2="364.3828"/><line style="stroke:#181818;stroke-width:1.0;" x1="360.5" x2="401.5" y1="364.3828" y2="364.3828"/><polygon fill="#181818" points="370.5,360.3828,360.5,364.3828,370.5,368.3828,366.5,364.3828" style="stroke:#181818;stroke-width:1.0;"/><text fill="#000000" font-family="sans-serif" font-size="13" lengthAdjust="spacing" textLength="480" x="366.5" y="346.5264">new OperationTypeDto(name, status, specialization, requiredStaff, phasesDuration)</text><polygon fill="#181818" points="197,390.7344,187,394.7344,197,398.7344,193,394.7344" style="stroke:#181818;stroke-width:1.0;"/><line style="stroke:#181818;stroke-width:1.0;stroke-dasharray:2.0,2.0;" x1="191" x2="353.5" y1="394.7344" y2="394.7344"/><text fill="#000000" font-family="sans-serif" font-size="13" lengthAdjust="spacing" textLength="18" x="203" y="389.8779">dto</text><polygon fill="#181818" points="11,421.0859,1,425.0859,11,429.0859,7,425.0859" style="stroke:#181818;stroke-width:1.0;"/><line style="stroke:#181818;stroke-width:1.0;stroke-dasharray:2.0,2.0;" x1="5" x2="180" y1="425.0859" y2="425.0859"/><text fill="#000000" font-family="sans-serif" font-size="13" lengthAdjust="spacing" textLength="18" x="17" y="420.2295">dto</text><!--SRC=[VLJRRjim37tNLn1zIe04BVeO30EoEXWCj1WmTn_0oKnAn95KYKxXVlryYosdcVbYa-8vEZmc78vi77eyWKDzn0DbKXK4dhIWEHIamj0GtZ2t7smEiCSYn2S56vBA4JXRL4qIdUa2GzYAUFvR2gNQcem_2HwK4fRwfepUIpAQ864yD815bYnX3N-U7XuVbQf9X3KxD09tlnnv5BRcjRxioHhnjYZ8tm466DCPJ4R-p9fQGFy-qzss9VQ4R6QwVfEpWSNwgkqVqoacdGEbJQxK-diqnWQItVFkTGVtwFZUNj2DpqgX5ZwZK3osWZh676gsViODfEQ2s8RAw4KkTja11gQB7ssrYRxGy8noD_2Jv4ULvXqFvyiHC5157Wo7JOprXhGT-WPVZ9Wa0tzl5rn5MuRrbLuR-pu5vJH76QkDlVmFOKHsQ_x8pMwbDl22_hWD_QUXnJZvLqVxBPpewsfJRMVB-Kr9rmIHd05iw0CcMvg8NHWyqGg2e9IXVZhIZ0L_jZsh-Z_nNhAdF1FSxrVWtZ1GICgEOddZkgiLh_UmQugaJXRnsthz5H0rH_l_3m00]--></g></svg>