<?xml version="1.0" encoding="us-ascii" standalone="no"?><svg xmlns="http://www.w3.org/2000/svg" xmlns:xlink="http://www.w3.org/1999/xlink" contentStyleType="text/css" height="957px" preserveAspectRatio="none" style="width:1498px;height:957px;background:#FFFFFF;" version="1.1" viewBox="0 0 1498 957" width="1498px" zoomAndPan="magnify"><defs/><g><text fill="#000000" font-family="sans-serif" font-size="14" font-weight="bold" lengthAdjust="spacing" textLength="190" x="647" y="24.5332">Class Diagram (CD) - UC021</text><!--class OperationTypeController--><g id="elem_OperationTypeController"><rect codeLine="12" fill="#F1F1F1" height="83.2188" id="OperationTypeController" rx="2.5" ry="2.5" style="stroke:#181818;stroke-width:0.5;" width="487" x="440.5" y="45.6094"/><ellipse cx="601.25" cy="61.6094" fill="#ADD1B2" rx="11" ry="11" style="stroke:#181818;stroke-width:1.0;"/><path d="M604.0156,57.4844 Q604.1719,57.2656 604.3594,57.1563 Q604.5469,57.0469 604.7656,57.0469 Q605.1406,57.0469 605.375,57.3125 Q605.6094,57.5625 605.6094,58.1719 L605.6094,59.625 Q605.6094,60.2344 605.375,60.5 Q605.1406,60.7656 604.7656,60.7656 Q604.4219,60.7656 604.2188,60.5625 Q604.0156,60.375 603.9063,59.8594 Q603.8594,59.5 603.6719,59.3125 Q603.3438,58.9375 602.7344,58.7188 Q602.125,58.5 601.5,58.5 Q600.7344,58.5 600.0938,58.8281 Q599.4688,59.1563 598.9688,59.9063 Q598.4844,60.6563 598.4844,61.6875 L598.4844,62.7813 Q598.4844,64.0156 599.375,64.8438 Q600.2656,65.6563 601.8594,65.6563 Q602.7969,65.6563 603.4531,65.4063 Q603.8438,65.25 604.2656,64.8125 Q604.5313,64.5469 604.6719,64.4688 Q604.8281,64.3906 605.0313,64.3906 Q605.3594,64.3906 605.6094,64.6563 Q605.875,64.9063 605.875,65.25 Q605.875,65.5938 605.5313,66 Q605.0313,66.5781 604.2344,66.9063 Q603.1563,67.3594 601.8594,67.3594 Q600.3438,67.3594 599.1406,66.7344 Q598.1563,66.2344 597.4688,65.1719 Q596.7813,64.0938 596.7813,62.8125 L596.7813,61.6563 Q596.7813,60.3281 597.3906,59.1875 Q598.0156,58.0313 599.1094,57.4219 Q600.2031,56.7969 601.4375,56.7969 Q602.1719,56.7969 602.8125,56.9688 Q603.4688,57.125 604.0156,57.4844 Z " fill="#000000"/><text fill="#000000" font-family="sans-serif" font-size="14" lengthAdjust="spacing" textLength="157" x="621.75" y="67.3379">OperationTypeController</text><line style="stroke:#181818;stroke-width:0.5;" x1="441.5" x2="926.5" y1="77.6094" y2="77.6094"/><line style="stroke:#181818;stroke-width:0.5;" x1="441.5" x2="926.5" y1="85.6094" y2="85.6094"/><text fill="#000000" font-family="sans-serif" font-size="14" lengthAdjust="spacing" textLength="439" x="446.5" y="104.1426">+GetByName(name: Name): Task&lt;ActionResult&lt;OperationTypeDto&gt;&gt;</text><text fill="#000000" font-family="sans-serif" font-size="14" lengthAdjust="spacing" textLength="475" x="446.5" y="121.752">+Update(dto: OperationTypeDto): Task&lt;ActionResult&lt;OperationTypeDto&gt;&gt;</text></g><!--class OperationTypeService--><g id="elem_OperationTypeService"><rect codeLine="17" fill="#F1F1F1" height="100.8281" id="OperationTypeService" rx="2.5" ry="2.5" style="stroke:#181818;stroke-width:0.5;" width="430" x="114" y="188.6094"/><ellipse cx="253.75" cy="204.6094" fill="#ADD1B2" rx="11" ry="11" style="stroke:#181818;stroke-width:1.0;"/><path d="M256.5156,200.4844 Q256.6719,200.2656 256.8594,200.1563 Q257.0469,200.0469 257.2656,200.0469 Q257.6406,200.0469 257.875,200.3125 Q258.1094,200.5625 258.1094,201.1719 L258.1094,202.625 Q258.1094,203.2344 257.875,203.5 Q257.6406,203.7656 257.2656,203.7656 Q256.9219,203.7656 256.7188,203.5625 Q256.5156,203.375 256.4063,202.8594 Q256.3594,202.5 256.1719,202.3125 Q255.8438,201.9375 255.2344,201.7188 Q254.625,201.5 254,201.5 Q253.2344,201.5 252.5938,201.8281 Q251.9688,202.1563 251.4688,202.9063 Q250.9844,203.6563 250.9844,204.6875 L250.9844,205.7813 Q250.9844,207.0156 251.875,207.8438 Q252.7656,208.6563 254.3594,208.6563 Q255.2969,208.6563 255.9531,208.4063 Q256.3438,208.25 256.7656,207.8125 Q257.0313,207.5469 257.1719,207.4688 Q257.3281,207.3906 257.5313,207.3906 Q257.8594,207.3906 258.1094,207.6563 Q258.375,207.9063 258.375,208.25 Q258.375,208.5938 258.0313,209 Q257.5313,209.5781 256.7344,209.9063 Q255.6563,210.3594 254.3594,210.3594 Q252.8438,210.3594 251.6406,209.7344 Q250.6563,209.2344 249.9688,208.1719 Q249.2813,207.0938 249.2813,205.8125 L249.2813,204.6563 Q249.2813,203.3281 249.8906,202.1875 Q250.5156,201.0313 251.6094,200.4219 Q252.7031,199.7969 253.9375,199.7969 Q254.6719,199.7969 255.3125,199.9688 Q255.9688,200.125 256.5156,200.4844 Z " fill="#000000"/><text fill="#000000" font-family="sans-serif" font-size="14" lengthAdjust="spacing" textLength="142" x="274.25" y="210.3379">OperationTypeService</text><line style="stroke:#181818;stroke-width:0.5;" x1="115" x2="543" y1="220.6094" y2="220.6094"/><line style="stroke:#181818;stroke-width:0.5;" x1="115" x2="543" y1="228.6094" y2="228.6094"/><text fill="#000000" font-family="sans-serif" font-size="14" lengthAdjust="spacing" textLength="382" x="120" y="247.1426">+GetByNameAsync(name: Name): Task&lt;OperationTypeDto&gt;</text><text fill="#000000" font-family="sans-serif" font-size="14" lengthAdjust="spacing" textLength="361" x="120" y="264.752">+ValidateOperationTypeName(name: Name): Task&lt;bool&gt;</text><text fill="#000000" font-family="sans-serif" font-size="14" lengthAdjust="spacing" textLength="418" x="120" y="282.3613">+UpdateAsync(dto: OperationTypeDto): Task&lt;OperationTypeDto&gt;</text></g><!--class OperationTypeRepository--><g id="elem_OperationTypeRepository"><rect codeLine="23" fill="#F1F1F1" height="83.2188" id="OperationTypeRepository" rx="2.5" ry="2.5" style="stroke:#181818;stroke-width:0.5;" width="408" x="579" y="197.6094"/><ellipse cx="697.25" cy="213.6094" fill="#ADD1B2" rx="11" ry="11" style="stroke:#181818;stroke-width:1.0;"/><path d="M700.0156,209.4844 Q700.1719,209.2656 700.3594,209.1563 Q700.5469,209.0469 700.7656,209.0469 Q701.1406,209.0469 701.375,209.3125 Q701.6094,209.5625 701.6094,210.1719 L701.6094,211.625 Q701.6094,212.2344 701.375,212.5 Q701.1406,212.7656 700.7656,212.7656 Q700.4219,212.7656 700.2188,212.5625 Q700.0156,212.375 699.9063,211.8594 Q699.8594,211.5 699.6719,211.3125 Q699.3438,210.9375 698.7344,210.7188 Q698.125,210.5 697.5,210.5 Q696.7344,210.5 696.0938,210.8281 Q695.4688,211.1563 694.9688,211.9063 Q694.4844,212.6563 694.4844,213.6875 L694.4844,214.7813 Q694.4844,216.0156 695.375,216.8438 Q696.2656,217.6563 697.8594,217.6563 Q698.7969,217.6563 699.4531,217.4063 Q699.8438,217.25 700.2656,216.8125 Q700.5313,216.5469 700.6719,216.4688 Q700.8281,216.3906 701.0313,216.3906 Q701.3594,216.3906 701.6094,216.6563 Q701.875,216.9063 701.875,217.25 Q701.875,217.5938 701.5313,218 Q701.0313,218.5781 700.2344,218.9063 Q699.1563,219.3594 697.8594,219.3594 Q696.3438,219.3594 695.1406,218.7344 Q694.1563,218.2344 693.4688,217.1719 Q692.7813,216.0938 692.7813,214.8125 L692.7813,213.6563 Q692.7813,212.3281 693.3906,211.1875 Q694.0156,210.0313 695.1094,209.4219 Q696.2031,208.7969 697.4375,208.7969 Q698.1719,208.7969 698.8125,208.9688 Q699.4688,209.125 700.0156,209.4844 Z " fill="#000000"/><text fill="#000000" font-family="sans-serif" font-size="14" lengthAdjust="spacing" textLength="163" x="717.75" y="219.3379">OperationTypeRepository</text><line style="stroke:#181818;stroke-width:0.5;" x1="580" x2="986" y1="229.6094" y2="229.6094"/><line style="stroke:#181818;stroke-width:0.5;" x1="580" x2="986" y1="237.6094" y2="237.6094"/><text fill="#000000" font-family="sans-serif" font-size="14" lengthAdjust="spacing" textLength="360" x="585" y="256.1426">+GetByNameAsync(name: Name): Task&lt;OperationType&gt;</text><text fill="#000000" font-family="sans-serif" font-size="14" lengthAdjust="spacing" textLength="396" x="585" y="273.752">+UpdateAsync(dto: OperationTypeDto): Task&lt;OperationType&gt;</text></g><!--class IOperationTypeRepository--><g id="elem_IOperationTypeRepository"><rect codeLine="28" fill="#F1F1F1" height="83.2188" id="IOperationTypeRepository" rx="2.5" ry="2.5" style="stroke:#181818;stroke-width:0.5;" width="408" x="579" y="349.6094"/><ellipse cx="695.25" cy="365.6094" fill="#B4A7E5" rx="11" ry="11" style="stroke:#181818;stroke-width:1.0;"/><path d="M696.2031,362.25 L696.2031,368.9063 L697.9219,368.9063 Q698.5313,368.9063 698.7969,369.1406 Q699.0625,369.375 699.0625,369.7656 Q699.0625,370.1406 698.7969,370.375 Q698.5313,370.6094 697.9219,370.6094 L692.7813,370.6094 Q692.1719,370.6094 691.9063,370.375 Q691.6406,370.1406 691.6406,369.75 Q691.6406,369.375 691.9063,369.1406 Q692.1719,368.9063 692.7813,368.9063 L694.5,368.9063 L694.5,362.25 L692.7813,362.25 Q692.1719,362.25 691.9063,362.0156 Q691.6406,361.7813 691.6406,361.3906 Q691.6406,361.0156 691.9063,360.7813 Q692.1719,360.5469 692.7813,360.5469 L697.9219,360.5469 Q698.5313,360.5469 698.7969,360.7813 Q699.0625,361.0156 699.0625,361.3906 Q699.0625,361.7813 698.7969,362.0156 Q698.5313,362.25 697.9219,362.25 L696.2031,362.25 Z " fill="#000000"/><text fill="#000000" font-family="sans-serif" font-size="14" font-style="italic" lengthAdjust="spacing" textLength="167" x="715.75" y="371.3379">IOperationTypeRepository</text><line style="stroke:#181818;stroke-width:0.5;" x1="580" x2="986" y1="381.6094" y2="381.6094"/><line style="stroke:#181818;stroke-width:0.5;" x1="580" x2="986" y1="389.6094" y2="389.6094"/><text fill="#000000" font-family="sans-serif" font-size="14" lengthAdjust="spacing" textLength="360" x="585" y="408.1426">+GetByNameAsync(name: Name): Task&lt;OperationType&gt;</text><text fill="#000000" font-family="sans-serif" font-size="14" lengthAdjust="spacing" textLength="396" x="585" y="425.752">+UpdateAsync(dto: OperationTypeDto): Task&lt;OperationType&gt;</text></g><!--class OperationType--><g id="elem_OperationType"><rect codeLine="33" fill="#F1F1F1" height="206.4844" id="OperationType" rx="2.5" ry="2.5" style="stroke:#181818;stroke-width:0.5;" width="424" x="195" y="492.6094"/><ellipse cx="355.25" cy="508.6094" fill="#ADD1B2" rx="11" ry="11" style="stroke:#181818;stroke-width:1.0;"/><path d="M358.0156,504.4844 Q358.1719,504.2656 358.3594,504.1563 Q358.5469,504.0469 358.7656,504.0469 Q359.1406,504.0469 359.375,504.3125 Q359.6094,504.5625 359.6094,505.1719 L359.6094,506.625 Q359.6094,507.2344 359.375,507.5 Q359.1406,507.7656 358.7656,507.7656 Q358.4219,507.7656 358.2188,507.5625 Q358.0156,507.375 357.9063,506.8594 Q357.8594,506.5 357.6719,506.3125 Q357.3438,505.9375 356.7344,505.7188 Q356.125,505.5 355.5,505.5 Q354.7344,505.5 354.0938,505.8281 Q353.4688,506.1563 352.9688,506.9063 Q352.4844,507.6563 352.4844,508.6875 L352.4844,509.7813 Q352.4844,511.0156 353.375,511.8438 Q354.2656,512.6563 355.8594,512.6563 Q356.7969,512.6563 357.4531,512.4063 Q357.8438,512.25 358.2656,511.8125 Q358.5313,511.5469 358.6719,511.4688 Q358.8281,511.3906 359.0313,511.3906 Q359.3594,511.3906 359.6094,511.6563 Q359.875,511.9063 359.875,512.25 Q359.875,512.5938 359.5313,513 Q359.0313,513.5781 358.2344,513.9063 Q357.1563,514.3594 355.8594,514.3594 Q354.3438,514.3594 353.1406,513.7344 Q352.1563,513.2344 351.4688,512.1719 Q350.7813,511.0938 350.7813,509.8125 L350.7813,508.6563 Q350.7813,507.3281 351.3906,506.1875 Q352.0156,505.0313 353.1094,504.4219 Q354.2031,503.7969 355.4375,503.7969 Q356.1719,503.7969 356.8125,503.9688 Q357.4688,504.125 358.0156,504.4844 Z " fill="#000000"/><text fill="#000000" font-family="sans-serif" font-size="14" lengthAdjust="spacing" textLength="95" x="375.75" y="514.3379">OperationType</text><line style="stroke:#181818;stroke-width:0.5;" x1="196" x2="618" y1="524.6094" y2="524.6094"/><text fill="#000000" font-family="sans-serif" font-size="14" lengthAdjust="spacing" textLength="135" x="201" y="543.1426">+Id: OperationTypeID</text><text fill="#000000" font-family="sans-serif" font-size="14" lengthAdjust="spacing" textLength="88" x="201" y="560.752">+Name: Name</text><text fill="#000000" font-family="sans-serif" font-size="14" lengthAdjust="spacing" textLength="188" x="201" y="578.3613">+Specialization: Specialization</text><text fill="#000000" font-family="sans-serif" font-size="14" lengthAdjust="spacing" textLength="190" x="201" y="595.9707">+RequiredStaff: RequiredStaff</text><text fill="#000000" font-family="sans-serif" font-size="14" lengthAdjust="spacing" textLength="218" x="201" y="613.5801">+PhasesDuration: PhasesDuration</text><line style="stroke:#181818;stroke-width:0.5;" x1="196" x2="618" y1="620.6563" y2="620.6563"/><text fill="#000000" font-family="sans-serif" font-size="14" lengthAdjust="spacing" textLength="217" x="201" y="639.1895">+ChangeName(name: Name): void</text><text fill="#000000" font-family="sans-serif" font-size="14" lengthAdjust="spacing" textLength="366" x="201" y="656.7988">+ChangeSpecialization(specialization: Specialization): void</text><text fill="#000000" font-family="sans-serif" font-size="14" lengthAdjust="spacing" textLength="366" x="201" y="674.4082">+ChangeRequiredStaff(requiredStaff: RequiredStaff): void</text><text fill="#000000" font-family="sans-serif" font-size="14" lengthAdjust="spacing" textLength="412" x="201" y="692.0176">+ChangePhasesDuration(phasesDuration: PhasesDuration): void</text></g><!--class OperationTypeDto--><g id="elem_OperationTypeDto"><rect codeLine="45" fill="#F1F1F1" height="136.0469" id="OperationTypeDto" rx="2.5" ry="2.5" style="stroke:#181818;stroke-width:0.5;" width="230" x="654" y="527.6094"/><ellipse cx="706.25" cy="543.6094" fill="#ADD1B2" rx="11" ry="11" style="stroke:#181818;stroke-width:1.0;"/><path d="M709.0156,539.4844 Q709.1719,539.2656 709.3594,539.1563 Q709.5469,539.0469 709.7656,539.0469 Q710.1406,539.0469 710.375,539.3125 Q710.6094,539.5625 710.6094,540.1719 L710.6094,541.625 Q710.6094,542.2344 710.375,542.5 Q710.1406,542.7656 709.7656,542.7656 Q709.4219,542.7656 709.2188,542.5625 Q709.0156,542.375 708.9063,541.8594 Q708.8594,541.5 708.6719,541.3125 Q708.3438,540.9375 707.7344,540.7188 Q707.125,540.5 706.5,540.5 Q705.7344,540.5 705.0938,540.8281 Q704.4688,541.1563 703.9688,541.9063 Q703.4844,542.6563 703.4844,543.6875 L703.4844,544.7813 Q703.4844,546.0156 704.375,546.8438 Q705.2656,547.6563 706.8594,547.6563 Q707.7969,547.6563 708.4531,547.4063 Q708.8438,547.25 709.2656,546.8125 Q709.5313,546.5469 709.6719,546.4688 Q709.8281,546.3906 710.0313,546.3906 Q710.3594,546.3906 710.6094,546.6563 Q710.875,546.9063 710.875,547.25 Q710.875,547.5938 710.5313,548 Q710.0313,548.5781 709.2344,548.9063 Q708.1563,549.3594 706.8594,549.3594 Q705.3438,549.3594 704.1406,548.7344 Q703.1563,548.2344 702.4688,547.1719 Q701.7813,546.0938 701.7813,544.8125 L701.7813,543.6563 Q701.7813,542.3281 702.3906,541.1875 Q703.0156,540.0313 704.1094,539.4219 Q705.2031,538.7969 706.4375,538.7969 Q707.1719,538.7969 707.8125,538.9688 Q708.4688,539.125 709.0156,539.4844 Z " fill="#000000"/><text fill="#000000" font-family="sans-serif" font-size="14" lengthAdjust="spacing" textLength="117" x="726.75" y="549.3379">OperationTypeDto</text><line style="stroke:#181818;stroke-width:0.5;" x1="655" x2="883" y1="559.6094" y2="559.6094"/><text fill="#000000" font-family="sans-serif" font-size="14" lengthAdjust="spacing" textLength="135" x="660" y="578.1426">+Id: OperationTypeID</text><text fill="#000000" font-family="sans-serif" font-size="14" lengthAdjust="spacing" textLength="88" x="660" y="595.752">+Name: Name</text><text fill="#000000" font-family="sans-serif" font-size="14" lengthAdjust="spacing" textLength="188" x="660" y="613.3613">+Specialization: Specialization</text><text fill="#000000" font-family="sans-serif" font-size="14" lengthAdjust="spacing" textLength="190" x="660" y="630.9707">+RequiredStaff: RequiredStaff</text><text fill="#000000" font-family="sans-serif" font-size="14" lengthAdjust="spacing" textLength="218" x="660" y="648.5801">+PhasesDuration: PhasesDuration</text><line style="stroke:#181818;stroke-width:0.5;" x1="655" x2="883" y1="655.6563" y2="655.6563"/></g><!--class RequiredStaff--><g id="elem_RequiredStaff"><rect codeLine="53" fill="#F1F1F1" height="65.6094" id="RequiredStaff" rx="2.5" ry="2.5" style="stroke:#181818;stroke-width:0.5;" width="258" x="395" y="758.6094"/><ellipse cx="476.25" cy="774.6094" fill="#ADD1B2" rx="11" ry="11" style="stroke:#181818;stroke-width:1.0;"/><path d="M479.0156,770.4844 Q479.1719,770.2656 479.3594,770.1563 Q479.5469,770.0469 479.7656,770.0469 Q480.1406,770.0469 480.375,770.3125 Q480.6094,770.5625 480.6094,771.1719 L480.6094,772.625 Q480.6094,773.2344 480.375,773.5 Q480.1406,773.7656 479.7656,773.7656 Q479.4219,773.7656 479.2188,773.5625 Q479.0156,773.375 478.9063,772.8594 Q478.8594,772.5 478.6719,772.3125 Q478.3438,771.9375 477.7344,771.7188 Q477.125,771.5 476.5,771.5 Q475.7344,771.5 475.0938,771.8281 Q474.4688,772.1563 473.9688,772.9063 Q473.4844,773.6563 473.4844,774.6875 L473.4844,775.7813 Q473.4844,777.0156 474.375,777.8438 Q475.2656,778.6563 476.8594,778.6563 Q477.7969,778.6563 478.4531,778.4063 Q478.8438,778.25 479.2656,777.8125 Q479.5313,777.5469 479.6719,777.4688 Q479.8281,777.3906 480.0313,777.3906 Q480.3594,777.3906 480.6094,777.6563 Q480.875,777.9063 480.875,778.25 Q480.875,778.5938 480.5313,779 Q480.0313,779.5781 479.2344,779.9063 Q478.1563,780.3594 476.8594,780.3594 Q475.3438,780.3594 474.1406,779.7344 Q473.1563,779.2344 472.4688,778.1719 Q471.7813,777.0938 471.7813,775.8125 L471.7813,774.6563 Q471.7813,773.3281 472.3906,772.1875 Q473.0156,771.0313 474.1094,770.4219 Q475.2031,769.7969 476.4375,769.7969 Q477.1719,769.7969 477.8125,769.9688 Q478.4688,770.125 479.0156,770.4844 Z " fill="#000000"/><text fill="#000000" font-family="sans-serif" font-size="14" lengthAdjust="spacing" textLength="87" x="496.75" y="780.3379">RequiredStaff</text><line style="stroke:#181818;stroke-width:0.5;" x1="396" x2="652" y1="790.6094" y2="790.6094"/><text fill="#000000" font-family="sans-serif" font-size="14" lengthAdjust="spacing" textLength="246" x="401" y="809.1426">-_staff: Dictionary&lt;Role, StaffQuantity&gt;</text><line style="stroke:#181818;stroke-width:0.5;" x1="396" x2="652" y1="816.2188" y2="816.2188"/></g><g id="elem_GMN9"><path d="M688,778.6094 L688,787.6094 L653.43,791.6094 L688,795.6094 L688,804.9609 A0,0 0 0 0 688,804.9609 L1032,804.9609 A0,0 0 0 0 1032,804.9609 L1032,788.6094 L1022,778.6094 L688,778.6094 A0,0 0 0 0 688,778.6094 " fill="#FEFFDD" style="stroke:#181818;stroke-width:0.5;"/><path d="M1022,778.6094 L1022,788.6094 L1032,788.6094 L1022,778.6094 " fill="#FEFFDD" style="stroke:#181818;stroke-width:0.5;"/><text fill="#000000" font-family="sans-serif" font-size="13" lengthAdjust="spacing" textLength="323" x="694" y="797.1045">Role can only be a staff role: Doctor, Nurse or Assistant</text></g><!--class StaffQuantity--><g id="elem_StaffQuantity"><rect codeLine="60" fill="#F1F1F1" height="65.6094" id="StaffQuantity" rx="2.5" ry="2.5" style="stroke:#181818;stroke-width:0.5;" width="114" x="256" y="884.6094"/><ellipse cx="271" cy="900.6094" fill="#ADD1B2" rx="11" ry="11" style="stroke:#181818;stroke-width:1.0;"/><path d="M273.7656,896.4844 Q273.9219,896.2656 274.1094,896.1563 Q274.2969,896.0469 274.5156,896.0469 Q274.8906,896.0469 275.125,896.3125 Q275.3594,896.5625 275.3594,897.1719 L275.3594,898.625 Q275.3594,899.2344 275.125,899.5 Q274.8906,899.7656 274.5156,899.7656 Q274.1719,899.7656 273.9688,899.5625 Q273.7656,899.375 273.6563,898.8594 Q273.6094,898.5 273.4219,898.3125 Q273.0938,897.9375 272.4844,897.7188 Q271.875,897.5 271.25,897.5 Q270.4844,897.5 269.8438,897.8281 Q269.2188,898.1563 268.7188,898.9063 Q268.2344,899.6563 268.2344,900.6875 L268.2344,901.7813 Q268.2344,903.0156 269.125,903.8438 Q270.0156,904.6563 271.6094,904.6563 Q272.5469,904.6563 273.2031,904.4063 Q273.5938,904.25 274.0156,903.8125 Q274.2813,903.5469 274.4219,903.4688 Q274.5781,903.3906 274.7813,903.3906 Q275.1094,903.3906 275.3594,903.6563 Q275.625,903.9063 275.625,904.25 Q275.625,904.5938 275.2813,905 Q274.7813,905.5781 273.9844,905.9063 Q272.9063,906.3594 271.6094,906.3594 Q270.0938,906.3594 268.8906,905.7344 Q267.9063,905.2344 267.2188,904.1719 Q266.5313,903.0938 266.5313,901.8125 L266.5313,900.6563 Q266.5313,899.3281 267.1406,898.1875 Q267.7656,897.0313 268.8594,896.4219 Q269.9531,895.7969 271.1875,895.7969 Q271.9219,895.7969 272.5625,895.9688 Q273.2188,896.125 273.7656,896.4844 Z " fill="#000000"/><text fill="#000000" font-family="sans-serif" font-size="14" lengthAdjust="spacing" textLength="82" x="285" y="906.3379">StaffQuantity</text><line style="stroke:#181818;stroke-width:0.5;" x1="257" x2="369" y1="916.6094" y2="916.6094"/><text fill="#000000" font-family="sans-serif" font-size="14" lengthAdjust="spacing" textLength="84" x="262" y="935.1426">+Quantity: int</text><line style="stroke:#181818;stroke-width:0.5;" x1="257" x2="369" y1="942.2188" y2="942.2188"/></g><g id="elem_GMN13"><path d="M770.5,904.6094 L770.5,930.9609 L975.5,930.9609 L975.5,914.6094 L965.5,904.6094 L770.5,904.6094 " fill="#FEFFDD" style="stroke:#181818;stroke-width:0.5;"/><path d="M965.5,904.6094 L965.5,914.6094 L975.5,914.6094 L965.5,904.6094 " fill="#FEFFDD" style="stroke:#181818;stroke-width:1.0;"/><text fill="#000000" font-family="sans-serif" font-size="13" lengthAdjust="spacing" textLength="184" x="776.5" y="923.1045">Quantity must be greater than 0</text></g><!--class Specialization--><g id="elem_Specialization"><rect codeLine="67" fill="#F1F1F1" height="65.6094" id="Specialization" rx="2.5" ry="2.5" style="stroke:#181818;stroke-width:0.5;" width="178" x="7" y="758.6094"/><ellipse cx="49" cy="774.6094" fill="#ADD1B2" rx="11" ry="11" style="stroke:#181818;stroke-width:1.0;"/><path d="M51.7656,770.4844 Q51.9219,770.2656 52.1094,770.1563 Q52.2969,770.0469 52.5156,770.0469 Q52.8906,770.0469 53.125,770.3125 Q53.3594,770.5625 53.3594,771.1719 L53.3594,772.625 Q53.3594,773.2344 53.125,773.5 Q52.8906,773.7656 52.5156,773.7656 Q52.1719,773.7656 51.9688,773.5625 Q51.7656,773.375 51.6563,772.8594 Q51.6094,772.5 51.4219,772.3125 Q51.0938,771.9375 50.4844,771.7188 Q49.875,771.5 49.25,771.5 Q48.4844,771.5 47.8438,771.8281 Q47.2188,772.1563 46.7188,772.9063 Q46.2344,773.6563 46.2344,774.6875 L46.2344,775.7813 Q46.2344,777.0156 47.125,777.8438 Q48.0156,778.6563 49.6094,778.6563 Q50.5469,778.6563 51.2031,778.4063 Q51.5938,778.25 52.0156,777.8125 Q52.2813,777.5469 52.4219,777.4688 Q52.5781,777.3906 52.7813,777.3906 Q53.1094,777.3906 53.3594,777.6563 Q53.625,777.9063 53.625,778.25 Q53.625,778.5938 53.2813,779 Q52.7813,779.5781 51.9844,779.9063 Q50.9063,780.3594 49.6094,780.3594 Q48.0938,780.3594 46.8906,779.7344 Q45.9063,779.2344 45.2188,778.1719 Q44.5313,777.0938 44.5313,775.8125 L44.5313,774.6563 Q44.5313,773.3281 45.1406,772.1875 Q45.7656,771.0313 46.8594,770.4219 Q47.9531,769.7969 49.1875,769.7969 Q49.9219,769.7969 50.5625,769.9688 Q51.2188,770.125 51.7656,770.4844 Z " fill="#000000"/><text fill="#000000" font-family="sans-serif" font-size="14" lengthAdjust="spacing" textLength="86" x="69" y="780.3379">Specialization</text><line style="stroke:#181818;stroke-width:0.5;" x1="8" x2="184" y1="790.6094" y2="790.6094"/><text fill="#000000" font-family="sans-serif" font-size="14" lengthAdjust="spacing" textLength="166" x="13" y="809.1426">+Designation: Designation</text><line style="stroke:#181818;stroke-width:0.5;" x1="8" x2="184" y1="816.2188" y2="816.2188"/></g><!--class PhasesDuration--><g id="elem_PhasesDuration"><rect codeLine="71" fill="#F1F1F1" height="65.6094" id="PhasesDuration" rx="2.5" ry="2.5" style="stroke:#181818;stroke-width:0.5;" width="260" x="1067" y="758.6094"/><ellipse cx="1142.25" cy="774.6094" fill="#ADD1B2" rx="11" ry="11" style="stroke:#181818;stroke-width:1.0;"/><path d="M1145.0156,770.4844 Q1145.1719,770.2656 1145.3594,770.1563 Q1145.5469,770.0469 1145.7656,770.0469 Q1146.1406,770.0469 1146.375,770.3125 Q1146.6094,770.5625 1146.6094,771.1719 L1146.6094,772.625 Q1146.6094,773.2344 1146.375,773.5 Q1146.1406,773.7656 1145.7656,773.7656 Q1145.4219,773.7656 1145.2188,773.5625 Q1145.0156,773.375 1144.9063,772.8594 Q1144.8594,772.5 1144.6719,772.3125 Q1144.3438,771.9375 1143.7344,771.7188 Q1143.125,771.5 1142.5,771.5 Q1141.7344,771.5 1141.0938,771.8281 Q1140.4688,772.1563 1139.9688,772.9063 Q1139.4844,773.6563 1139.4844,774.6875 L1139.4844,775.7813 Q1139.4844,777.0156 1140.375,777.8438 Q1141.2656,778.6563 1142.8594,778.6563 Q1143.7969,778.6563 1144.4531,778.4063 Q1144.8438,778.25 1145.2656,777.8125 Q1145.5313,777.5469 1145.6719,777.4688 Q1145.8281,777.3906 1146.0313,777.3906 Q1146.3594,777.3906 1146.6094,777.6563 Q1146.875,777.9063 1146.875,778.25 Q1146.875,778.5938 1146.5313,779 Q1146.0313,779.5781 1145.2344,779.9063 Q1144.1563,780.3594 1142.8594,780.3594 Q1141.3438,780.3594 1140.1406,779.7344 Q1139.1563,779.2344 1138.4688,778.1719 Q1137.7813,777.0938 1137.7813,775.8125 L1137.7813,774.6563 Q1137.7813,773.3281 1138.3906,772.1875 Q1139.0156,771.0313 1140.1094,770.4219 Q1141.2031,769.7969 1142.4375,769.7969 Q1143.1719,769.7969 1143.8125,769.9688 Q1144.4688,770.125 1145.0156,770.4844 Z " fill="#000000"/><text fill="#000000" font-family="sans-serif" font-size="14" lengthAdjust="spacing" textLength="101" x="1162.75" y="780.3379">PhasesDuration</text><line style="stroke:#181818;stroke-width:0.5;" x1="1068" x2="1326" y1="790.6094" y2="790.6094"/><text fill="#000000" font-family="sans-serif" font-size="14" lengthAdjust="spacing" textLength="248" x="1073" y="809.1426">-_phases: Dictionary&lt;Phase, Duration&gt;</text><line style="stroke:#181818;stroke-width:0.5;" x1="1068" x2="1326" y1="816.2188" y2="816.2188"/></g><!--class Phase--><g id="elem_Phase"><rect codeLine="75" fill="#F1F1F1" height="65.6094" id="Phase" rx="2.5" ry="2.5" style="stroke:#181818;stroke-width:0.5;" width="260" x="1231" y="884.6094"/><ellipse cx="1336.75" cy="900.6094" fill="#EB937F" rx="11" ry="11" style="stroke:#181818;stroke-width:1.0;"/><path d="M1335.6094,901.4063 L1335.6094,903.9063 L1339.9375,903.9063 L1339.9375,902.9844 Q1339.9375,902.375 1340.1719,902.1094 Q1340.4219,901.8438 1340.7969,901.8438 Q1341.1719,901.8438 1341.4063,902.1094 Q1341.6406,902.375 1341.6406,902.9844 L1341.6406,905.6094 L1333.6406,905.6094 Q1333.0156,905.6094 1332.75,905.375 Q1332.5,905.1406 1332.5,904.75 Q1332.5,904.375 1332.7656,904.1406 Q1333.0313,903.9063 1333.6406,903.9063 L1333.9063,903.9063 L1333.9063,897.25 L1333.6406,897.25 Q1333.0156,897.25 1332.75,897.0156 Q1332.5,896.7813 1332.5,896.3906 Q1332.5,896.0156 1332.75,895.7813 Q1333.0156,895.5469 1333.6406,895.5469 L1341.2656,895.5469 L1341.2656,898.1406 Q1341.2656,898.75 1341.0313,899.0156 Q1340.8125,899.2656 1340.4219,899.2656 Q1340.0469,899.2656 1339.8125,899.0156 Q1339.5781,898.75 1339.5781,898.1406 L1339.5781,897.25 L1335.6094,897.25 L1335.6094,899.7031 L1337.0938,899.7031 Q1337.0938,899.0469 1337.2188,898.8594 Q1337.4844,898.4531 1337.9531,898.4531 Q1338.3281,898.4531 1338.5625,898.7188 Q1338.7969,898.9688 1338.7969,899.5781 L1338.7969,901.5469 Q1338.7969,902.0938 1338.6719,902.2813 Q1338.4063,902.6719 1337.9531,902.6719 Q1337.4844,902.6719 1337.2188,902.2656 Q1337.0938,902.0781 1337.0938,901.4063 L1335.6094,901.4063 Z " fill="#000000"/><text fill="#000000" font-family="sans-serif" font-size="14" lengthAdjust="spacing" textLength="40" x="1357.25" y="906.3379">Phase</text><line style="stroke:#181818;stroke-width:0.5;" x1="1232" x2="1490" y1="916.6094" y2="916.6094"/><text fill="#000000" font-family="sans-serif" font-size="14" lengthAdjust="spacing" textLength="248" x="1237" y="935.1426">PREPARATION, SURGERY, CLEANING</text><line style="stroke:#181818;stroke-width:0.5;" x1="1232" x2="1490" y1="942.2188" y2="942.2188"/></g><!--class Duration--><g id="elem_Duration"><rect codeLine="79" fill="#F1F1F1" height="65.6094" id="Duration" rx="2.5" ry="2.5" style="stroke:#181818;stroke-width:0.5;" width="92" x="1104" y="884.6094"/><ellipse cx="1121.7" cy="900.6094" fill="#ADD1B2" rx="11" ry="11" style="stroke:#181818;stroke-width:1.0;"/><path d="M1124.4656,896.4844 Q1124.6219,896.2656 1124.8094,896.1563 Q1124.9969,896.0469 1125.2156,896.0469 Q1125.5906,896.0469 1125.825,896.3125 Q1126.0594,896.5625 1126.0594,897.1719 L1126.0594,898.625 Q1126.0594,899.2344 1125.825,899.5 Q1125.5906,899.7656 1125.2156,899.7656 Q1124.8719,899.7656 1124.6688,899.5625 Q1124.4656,899.375 1124.3563,898.8594 Q1124.3094,898.5 1124.1219,898.3125 Q1123.7938,897.9375 1123.1844,897.7188 Q1122.575,897.5 1121.95,897.5 Q1121.1844,897.5 1120.5438,897.8281 Q1119.9188,898.1563 1119.4188,898.9063 Q1118.9344,899.6563 1118.9344,900.6875 L1118.9344,901.7813 Q1118.9344,903.0156 1119.825,903.8438 Q1120.7156,904.6563 1122.3094,904.6563 Q1123.2469,904.6563 1123.9031,904.4063 Q1124.2938,904.25 1124.7156,903.8125 Q1124.9813,903.5469 1125.1219,903.4688 Q1125.2781,903.3906 1125.4813,903.3906 Q1125.8094,903.3906 1126.0594,903.6563 Q1126.325,903.9063 1126.325,904.25 Q1126.325,904.5938 1125.9813,905 Q1125.4813,905.5781 1124.6844,905.9063 Q1123.6063,906.3594 1122.3094,906.3594 Q1120.7938,906.3594 1119.5906,905.7344 Q1118.6063,905.2344 1117.9188,904.1719 Q1117.2313,903.0938 1117.2313,901.8125 L1117.2313,900.6563 Q1117.2313,899.3281 1117.8406,898.1875 Q1118.4656,897.0313 1119.5594,896.4219 Q1120.6531,895.7969 1121.8875,895.7969 Q1122.6219,895.7969 1123.2625,895.9688 Q1123.9188,896.125 1124.4656,896.4844 Z " fill="#000000"/><text fill="#000000" font-family="sans-serif" font-size="14" lengthAdjust="spacing" textLength="54" x="1136.3" y="906.3379">Duration</text><line style="stroke:#181818;stroke-width:0.5;" x1="1105" x2="1195" y1="916.6094" y2="916.6094"/><text fill="#000000" font-family="sans-serif" font-size="14" lengthAdjust="spacing" textLength="80" x="1110" y="935.1426">+Minutes: int</text><line style="stroke:#181818;stroke-width:0.5;" x1="1105" x2="1195" y1="942.2188" y2="942.2188"/></g><!--class Name--><g id="elem_Name"><rect codeLine="83" fill="#F1F1F1" height="65.6094" id="Name" rx="2.5" ry="2.5" style="stroke:#181818;stroke-width:0.5;" width="99" x="1362.5" y="758.6094"/><ellipse cx="1391.45" cy="774.6094" fill="#ADD1B2" rx="11" ry="11" style="stroke:#181818;stroke-width:1.0;"/><path d="M1394.2156,770.4844 Q1394.3719,770.2656 1394.5594,770.1563 Q1394.7469,770.0469 1394.9656,770.0469 Q1395.3406,770.0469 1395.575,770.3125 Q1395.8094,770.5625 1395.8094,771.1719 L1395.8094,772.625 Q1395.8094,773.2344 1395.575,773.5 Q1395.3406,773.7656 1394.9656,773.7656 Q1394.6219,773.7656 1394.4188,773.5625 Q1394.2156,773.375 1394.1063,772.8594 Q1394.0594,772.5 1393.8719,772.3125 Q1393.5438,771.9375 1392.9344,771.7188 Q1392.325,771.5 1391.7,771.5 Q1390.9344,771.5 1390.2938,771.8281 Q1389.6688,772.1563 1389.1688,772.9063 Q1388.6844,773.6563 1388.6844,774.6875 L1388.6844,775.7813 Q1388.6844,777.0156 1389.575,777.8438 Q1390.4656,778.6563 1392.0594,778.6563 Q1392.9969,778.6563 1393.6531,778.4063 Q1394.0438,778.25 1394.4656,777.8125 Q1394.7313,777.5469 1394.8719,777.4688 Q1395.0281,777.3906 1395.2313,777.3906 Q1395.5594,777.3906 1395.8094,777.6563 Q1396.075,777.9063 1396.075,778.25 Q1396.075,778.5938 1395.7313,779 Q1395.2313,779.5781 1394.4344,779.9063 Q1393.3563,780.3594 1392.0594,780.3594 Q1390.5438,780.3594 1389.3406,779.7344 Q1388.3563,779.2344 1387.6688,778.1719 Q1386.9813,777.0938 1386.9813,775.8125 L1386.9813,774.6563 Q1386.9813,773.3281 1387.5906,772.1875 Q1388.2156,771.0313 1389.3094,770.4219 Q1390.4031,769.7969 1391.6375,769.7969 Q1392.3719,769.7969 1393.0125,769.9688 Q1393.6688,770.125 1394.2156,770.4844 Z " fill="#000000"/><text fill="#000000" font-family="sans-serif" font-size="14" lengthAdjust="spacing" textLength="36" x="1408.55" y="780.3379">Name</text><line style="stroke:#181818;stroke-width:0.5;" x1="1363.5" x2="1460.5" y1="790.6094" y2="790.6094"/><text fill="#000000" font-family="sans-serif" font-size="14" lengthAdjust="spacing" textLength="87" x="1368.5" y="809.1426">+Name: string</text><line style="stroke:#181818;stroke-width:0.5;" x1="1363.5" x2="1460.5" y1="816.2188" y2="816.2188"/></g><!--class OperationTypeID--><g id="elem_OperationTypeID"><rect codeLine="87" fill="#F1F1F1" height="65.6094" id="OperationTypeID" rx="2.5" ry="2.5" style="stroke:#181818;stroke-width:0.5;" width="140" x="220" y="758.6094"/><ellipse cx="235" cy="774.6094" fill="#ADD1B2" rx="11" ry="11" style="stroke:#181818;stroke-width:1.0;"/><path d="M237.7656,770.4844 Q237.9219,770.2656 238.1094,770.1563 Q238.2969,770.0469 238.5156,770.0469 Q238.8906,770.0469 239.125,770.3125 Q239.3594,770.5625 239.3594,771.1719 L239.3594,772.625 Q239.3594,773.2344 239.125,773.5 Q238.8906,773.7656 238.5156,773.7656 Q238.1719,773.7656 237.9688,773.5625 Q237.7656,773.375 237.6563,772.8594 Q237.6094,772.5 237.4219,772.3125 Q237.0938,771.9375 236.4844,771.7188 Q235.875,771.5 235.25,771.5 Q234.4844,771.5 233.8438,771.8281 Q233.2188,772.1563 232.7188,772.9063 Q232.2344,773.6563 232.2344,774.6875 L232.2344,775.7813 Q232.2344,777.0156 233.125,777.8438 Q234.0156,778.6563 235.6094,778.6563 Q236.5469,778.6563 237.2031,778.4063 Q237.5938,778.25 238.0156,777.8125 Q238.2813,777.5469 238.4219,777.4688 Q238.5781,777.3906 238.7813,777.3906 Q239.1094,777.3906 239.3594,777.6563 Q239.625,777.9063 239.625,778.25 Q239.625,778.5938 239.2813,779 Q238.7813,779.5781 237.9844,779.9063 Q236.9063,780.3594 235.6094,780.3594 Q234.0938,780.3594 232.8906,779.7344 Q231.9063,779.2344 231.2188,778.1719 Q230.5313,777.0938 230.5313,775.8125 L230.5313,774.6563 Q230.5313,773.3281 231.1406,772.1875 Q231.7656,771.0313 232.8594,770.4219 Q233.9531,769.7969 235.1875,769.7969 Q235.9219,769.7969 236.5625,769.9688 Q237.2188,770.125 237.7656,770.4844 Z " fill="#000000"/><text fill="#000000" font-family="sans-serif" font-size="14" lengthAdjust="spacing" textLength="108" x="249" y="780.3379">OperationTypeID</text><line style="stroke:#181818;stroke-width:0.5;" x1="221" x2="359" y1="790.6094" y2="790.6094"/><text fill="#000000" font-family="sans-serif" font-size="14" lengthAdjust="spacing" textLength="57" x="226" y="809.1426">+Id: Guid</text><line style="stroke:#181818;stroke-width:0.5;" x1="221" x2="359" y1="816.2188" y2="816.2188"/></g><!--class Role--><g id="elem_Role"><rect codeLine="91" fill="#F1F1F1" height="65.6094" id="Role" rx="2.5" ry="2.5" style="stroke:#181818;stroke-width:0.5;" width="330" x="405" y="884.6094"/><ellipse cx="551.25" cy="900.6094" fill="#EB937F" rx="11" ry="11" style="stroke:#181818;stroke-width:1.0;"/><path d="M550.1094,901.4063 L550.1094,903.9063 L554.4375,903.9063 L554.4375,902.9844 Q554.4375,902.375 554.6719,902.1094 Q554.9219,901.8438 555.2969,901.8438 Q555.6719,901.8438 555.9063,902.1094 Q556.1406,902.375 556.1406,902.9844 L556.1406,905.6094 L548.1406,905.6094 Q547.5156,905.6094 547.25,905.375 Q547,905.1406 547,904.75 Q547,904.375 547.2656,904.1406 Q547.5313,903.9063 548.1406,903.9063 L548.4063,903.9063 L548.4063,897.25 L548.1406,897.25 Q547.5156,897.25 547.25,897.0156 Q547,896.7813 547,896.3906 Q547,896.0156 547.25,895.7813 Q547.5156,895.5469 548.1406,895.5469 L555.7656,895.5469 L555.7656,898.1406 Q555.7656,898.75 555.5313,899.0156 Q555.3125,899.2656 554.9219,899.2656 Q554.5469,899.2656 554.3125,899.0156 Q554.0781,898.75 554.0781,898.1406 L554.0781,897.25 L550.1094,897.25 L550.1094,899.7031 L551.5938,899.7031 Q551.5938,899.0469 551.7188,898.8594 Q551.9844,898.4531 552.4531,898.4531 Q552.8281,898.4531 553.0625,898.7188 Q553.2969,898.9688 553.2969,899.5781 L553.2969,901.5469 Q553.2969,902.0938 553.1719,902.2813 Q552.9063,902.6719 552.4531,902.6719 Q551.9844,902.6719 551.7188,902.2656 Q551.5938,902.0781 551.5938,901.4063 L550.1094,901.4063 Z " fill="#000000"/><text fill="#000000" font-family="sans-serif" font-size="14" lengthAdjust="spacing" textLength="29" x="571.75" y="906.3379">Role</text><line style="stroke:#181818;stroke-width:0.5;" x1="406" x2="734" y1="916.6094" y2="916.6094"/><text fill="#000000" font-family="sans-serif" font-size="14" lengthAdjust="spacing" textLength="318" x="411" y="935.1426">ADMIN, DOCTOR, NURSE, TECHNICIAN, PATIENT</text><line style="stroke:#181818;stroke-width:0.5;" x1="406" x2="734" y1="942.2188" y2="942.2188"/></g><!--link StaffQuantity to GMN13--><g id="link_StaffQuantity_GMN13"><path d="M365,884.2694 C365,869.1494 365,854.6094 365,854.6094 C365,854.6094 873,854.6094 873,854.6094 C873,854.6094 873,886.0994 873,904.5594 " fill="none" id="StaffQuantity-GMN13" style="stroke:#181818;stroke-width:1.0;stroke-dasharray:7.0,7.0;"/></g><!--link OperationTypeController to OperationTypeService--><g id="link_OperationTypeController_OperationTypeService"><path codeLine="95" d="M492.25,128.6394 C492.25,147.0994 492.25,162.9994 492.25,182.4194 " fill="none" id="OperationTypeController-to-OperationTypeService" style="stroke:#181818;stroke-width:1.0;stroke-dasharray:7.0,7.0;"/><polygon fill="#181818" points="492.25,188.4194,496.25,179.4194,492.25,183.4194,488.25,179.4194,492.25,188.4194" style="stroke:#181818;stroke-width:1.0;"/><polygon fill="#000000" points="454.25,154.7052,457.1889,145.6601,451.3111,145.6601,454.25,154.7052" style="stroke:#000000;stroke-width:1.0;"/><text fill="#000000" font-family="sans-serif" font-size="13" lengthAdjust="spacing" textLength="28" x="463.25" y="155.0245">uses</text></g><!--link OperationTypeController to OperationTypeDto--><g id="link_OperationTypeController_OperationTypeDto"><path codeLine="96" d="M555.67,128.6794 C555.67,224.4794 555.67,452.6094 555.67,452.6094 C555.67,452.6094 807.33,452.6094 807.33,452.6094 C807.33,452.6094 807.33,484.6294 807.33,521.4594 " fill="none" id="OperationTypeController-to-OperationTypeDto" style="stroke:#181818;stroke-width:1.0;"/><polygon fill="#181818" points="807.33,527.4594,811.33,518.4594,807.33,522.4594,803.33,518.4594,807.33,527.4594" style="stroke:#181818;stroke-width:1.0;"/><polygon fill="#000000" points="509.6574,447.9951,507.2523,438.7937,502.3032,441.9647,509.6574,447.9951" style="stroke:#000000;stroke-width:1.0;"/><text fill="#000000" font-family="sans-serif" font-size="13" lengthAdjust="spacing" textLength="40" x="515.96" y="449.1045">returns</text></g><!--link OperationTypeService to OperationTypeRepository--><g id="link_OperationTypeService_OperationTypeRepository"><path codeLine="98" d="M544.03,225.6094 C555.61,225.6094 561.22,225.6094 572.76,225.6094 " fill="none" id="OperationTypeService-to-OperationTypeRepository" style="stroke:#181818;stroke-width:1.0;"/><polygon fill="#181818" points="578.76,225.6094,569.76,221.6094,573.76,225.6094,569.76,229.6094,578.76,225.6094" style="stroke:#181818;stroke-width:1.0;"/><polygon fill="#000000" points="549.9,234.7852,540.8549,231.8462,540.8549,237.7241,549.9,234.7852" style="stroke:#000000;stroke-width:1.0;"/><text fill="#000000" font-family="sans-serif" font-size="13" lengthAdjust="spacing" textLength="28" x="553.9" y="240.1045">uses</text></g><!--link OperationTypeService to OperationType--><g id="link_OperationTypeService_OperationType"><path codeLine="99" d="M311.33,289.8094 C311.33,342.3794 311.33,420.0494 311.33,486.5894 " fill="none" id="OperationTypeService-to-OperationType" style="stroke:#181818;stroke-width:1.0;"/><polygon fill="#181818" points="311.33,492.5894,315.33,483.5894,311.33,487.5894,307.33,483.5894,311.33,492.5894" style="stroke:#181818;stroke-width:1.0;"/><polygon fill="#000000" points="255.33,387.3752,258.2689,378.3301,252.3911,378.3301,255.33,387.3752" style="stroke:#000000;stroke-width:1.0;"/><text fill="#000000" font-family="sans-serif" font-size="13" lengthAdjust="spacing" textLength="46" x="264.33" y="387.6945">updates</text></g><!--link OperationTypeService to OperationTypeDto--><g id="link_OperationTypeService_OperationTypeDto"><path codeLine="100" d="M427.67,289.7794 C427.67,358.4494 427.67,472.6094 427.67,472.6094 C427.67,472.6094 730.67,472.6094 730.67,472.6094 C730.67,472.6094 730.67,492.9594 730.67,521.2794 " fill="none" id="OperationTypeService-to-OperationTypeDto" style="stroke:#181818;stroke-width:1.0;"/><polygon fill="#181818" points="730.67,527.2794,734.67,518.2794,730.67,522.2794,726.67,518.2794,730.67,527.2794" style="stroke:#181818;stroke-width:1.0;"/><polygon fill="#000000" points="466.0531,466.8207,460.65,458.994,457.0815,463.6647,466.0531,466.8207" style="stroke:#000000;stroke-width:1.0;"/><text fill="#000000" font-family="sans-serif" font-size="13" lengthAdjust="spacing" textLength="43" x="471.08" y="469.1045">creates</text></g><!--link OperationTypeRepository to IOperationTypeRepository--><g id="link_OperationTypeRepository_IOperationTypeRepository"><path codeLine="102" d="M783,280.6394 C783,301.9994 783,321.9694 783,343.3594 " fill="none" id="OperationTypeRepository-to-IOperationTypeRepository" style="stroke:#181818;stroke-width:1.0;"/><polygon fill="#181818" points="783,349.3594,787,340.3594,783,344.3594,779,340.3594,783,349.3594" style="stroke:#181818;stroke-width:1.0;"/><polygon fill="#000000" points="706,311.1752,708.9389,302.1301,703.0611,302.1301,706,311.1752" style="stroke:#000000;stroke-width:1.0;"/><text fill="#000000" font-family="sans-serif" font-size="13" lengthAdjust="spacing" textLength="67" x="715" y="311.4945">implements</text></g><!--link OperationTypeRepository to OperationType--><g id="link_OperationTypeRepository_OperationType"><path codeLine="103" d="M578.93,253.6094 C571.6,253.6094 567.33,253.6094 567.33,253.6094 C567.33,253.6094 567.33,385.8394 567.33,486.5294 " fill="none" id="OperationTypeRepository-to-OperationType" style="stroke:#181818;stroke-width:1.0;"/><polygon fill="#181818" points="567.33,492.5294,571.33,483.5294,567.33,487.5294,563.33,483.5294,567.33,492.5294" style="stroke:#181818;stroke-width:1.0;"/><polygon fill="#000000" points="453.0813,363.439,456.4665,354.5513,450.5959,354.2589,453.0813,363.439" style="stroke:#000000;stroke-width:1.0;"/><text fill="#000000" font-family="sans-serif" font-size="13" lengthAdjust="spacing" textLength="104" x="462.33" y="363.7645">saves in database</text></g><!--link OperationType to OperationTypeID--><g id="link_OperationType_OperationTypeID"><path codeLine="105" d="M266.67,698.7794 C266.67,720.3594 266.67,735.5994 266.67,752.3094 " fill="none" id="OperationType-to-OperationTypeID" style="stroke:#181818;stroke-width:1.0;"/><polygon fill="#181818" points="266.67,758.3094,270.67,749.3094,266.67,753.3094,262.67,749.3094,266.67,758.3094" style="stroke:#181818;stroke-width:1.0;"/><polygon fill="#000000" points="235.67,724.7152,238.6089,715.6701,232.7311,715.6701,235.67,724.7152" style="stroke:#000000;stroke-width:1.0;"/><text fill="#000000" font-family="sans-serif" font-size="13" lengthAdjust="spacing" textLength="21" x="244.67" y="725.0345">has</text></g><!--link OperationType to Name--><g id="link_OperationType_Name"><path codeLine="106" d="M619.06,675.6094 C909.51,675.6094 1395.5,675.6094 1395.5,675.6094 C1395.5,675.6094 1395.5,718.0894 1395.5,752.3694 " fill="none" id="OperationType-to-Name" style="stroke:#181818;stroke-width:1.0;"/><polygon fill="#181818" points="1395.5,758.3694,1399.5,749.3694,1395.5,753.3694,1391.5,749.3694,1395.5,758.3694" style="stroke:#181818;stroke-width:1.0;"/><polygon fill="#000000" points="1022.6357,667.2771,1013.9237,663.4625,1013.3454,669.3119,1022.6357,667.2771" style="stroke:#000000;stroke-width:1.0;"/><text fill="#000000" font-family="sans-serif" font-size="13" lengthAdjust="spacing" textLength="21" x="1026.66" y="672.1045">has</text></g><!--link OperationType to Specialization--><g id="link_OperationType_Specialization"><path codeLine="107" d="M207.5,698.7794 C207.5,745.9894 207.5,791.6094 207.5,791.6094 C207.5,791.6094 204.31,791.6094 191.2,791.6094 " fill="none" id="OperationType-to-Specialization" style="stroke:#181818;stroke-width:1.0;"/><polygon fill="#181818" points="185.2,791.6094,194.2,795.6094,190.2,791.6094,194.2,787.6094,185.2,791.6094" style="stroke:#181818;stroke-width:1.0;"/><polygon fill="#000000" points="175.6353,752.4398,180.0942,744.0393,174.3049,743.0228,175.6353,752.4398" style="stroke:#000000;stroke-width:1.0;"/><text fill="#000000" font-family="sans-serif" font-size="13" lengthAdjust="spacing" textLength="21" x="185.5" y="752.8345">has</text></g><!--link OperationType to RequiredStaff--><g id="link_OperationType_RequiredStaff"><path codeLine="108" d="M507,698.7794 C507,720.3594 507,735.5994 507,752.3094 " fill="none" id="OperationType-to-RequiredStaff" style="stroke:#181818;stroke-width:1.0;"/><polygon fill="#181818" points="507,758.3094,511,749.3094,507,753.3094,503,749.3094,507,758.3094" style="stroke:#181818;stroke-width:1.0;"/><polygon fill="#000000" points="476,724.7152,478.9389,715.6701,473.0611,715.6701,476,724.7152" style="stroke:#000000;stroke-width:1.0;"/><text fill="#000000" font-family="sans-serif" font-size="13" lengthAdjust="spacing" textLength="21" x="485" y="725.0345">has</text></g><!--link OperationType to PhasesDuration--><g id="link_OperationType_PhasesDuration"><path codeLine="109" d="M619.22,687.6094 C853.22,687.6094 1197,687.6094 1197,687.6094 C1197,687.6094 1197,721.9794 1197,752.4194 " fill="none" id="OperationType-to-PhasesDuration" style="stroke:#181818;stroke-width:1.0;"/><polygon fill="#181818" points="1197,758.4194,1201,749.4194,1197,753.4194,1193,749.4194,1197,758.4194" style="stroke:#181818;stroke-width:1.0;"/><polygon fill="#000000" points="917.4888,679.3425,908.8277,675.4136,908.1725,681.2549,917.4888,679.3425" style="stroke:#000000;stroke-width:1.0;"/><text fill="#000000" font-family="sans-serif" font-size="13" lengthAdjust="spacing" textLength="21" x="921.52" y="684.1045">has</text></g><!--link OperationTypeDto to OperationTypeID--><g id="link_OperationTypeDto_OperationTypeID"><path codeLine="111" d="M671,663.7594 C671,700.5894 671,738.6094 671,738.6094 C671,738.6094 313.33,738.6094 313.33,738.6094 C313.33,738.6094 313.33,741.6994 313.33,752.3494 " fill="none" id="OperationTypeDto-to-OperationTypeID" style="stroke:#181818;stroke-width:1.0;"/><polygon fill="#181818" points="313.33,758.3494,317.33,749.3494,313.33,753.3494,309.33,749.3494,313.33,758.3494" style="stroke:#181818;stroke-width:1.0;"/><polygon fill="#000000" points="483.8667,748.9873,493.353,749.6654,491.9399,743.9599,483.8667,748.9873" style="stroke:#000000;stroke-width:1.0;"/><text fill="#000000" font-family="sans-serif" font-size="13" lengthAdjust="spacing" textLength="21" x="497.72" y="753.1045">has</text></g><!--link OperationTypeDto to Name--><g id="link_OperationTypeDto_Name"><path codeLine="112" d="M884.25,595.6094 C1073.3,595.6094 1428.5,595.6094 1428.5,595.6094 C1428.5,595.6094 1428.5,696.4394 1428.5,752.3594 " fill="none" id="OperationTypeDto-to-Name" style="stroke:#181818;stroke-width:1.0;"/><polygon fill="#181818" points="1428.5,758.3594,1432.5,749.3594,1428.5,753.3594,1424.5,749.3594,1428.5,758.3594" style="stroke:#181818;stroke-width:1.0;"/><polygon fill="#000000" points="1211.5547,588.169,1203.6763,582.8415,1202.0495,588.4898,1211.5547,588.169" style="stroke:#000000;stroke-width:1.0;"/><text fill="#000000" font-family="sans-serif" font-size="13" lengthAdjust="spacing" textLength="21" x="1215.75" y="592.1045">has</text></g><!--link OperationTypeDto to Specialization--><g id="link_OperationTypeDto_Specialization"><path codeLine="113" d="M662.5,663.9394 C662.5,692.2594 662.5,718.6094 662.5,718.6094 C662.5,718.6094 149.5,718.6094 149.5,718.6094 C149.5,718.6094 149.5,733.2094 149.5,752.5294 " fill="none" id="OperationTypeDto-to-Specialization" style="stroke:#181818;stroke-width:1.0;"/><polygon fill="#181818" points="149.5,758.5294,153.5,749.5294,149.5,753.5294,145.5,749.5294,149.5,758.5294" style="stroke:#181818;stroke-width:1.0;"/><polygon fill="#000000" points="377.4429,710.636,386.8562,711.9929,385.856,706.2007,377.4429,710.636" style="stroke:#000000;stroke-width:1.0;"/><text fill="#000000" font-family="sans-serif" font-size="13" lengthAdjust="spacing" textLength="21" x="391.37" y="715.1045">has</text></g><!--link OperationTypeDto to RequiredStaff--><g id="link_OperationTypeDto_RequiredStaff"><path codeLine="114" d="M679.5,663.7894 C679.5,713.6494 679.5,772.6094 679.5,772.6094 C679.5,772.6094 674.85,772.6094 659.12,772.6094 " fill="none" id="OperationTypeDto-to-RequiredStaff" style="stroke:#181818;stroke-width:1.0;"/><polygon fill="#181818" points="653.12,772.6094,662.12,776.6094,658.12,772.6094,662.12,768.6094,653.12,772.6094" style="stroke:#181818;stroke-width:1.0;"/><polygon fill="#000000" points="647.5796,727.4797,652.1333,719.1302,646.3559,718.0482,647.5796,727.4797" style="stroke:#000000;stroke-width:1.0;"/><text fill="#000000" font-family="sans-serif" font-size="13" lengthAdjust="spacing" textLength="21" x="657.5" y="727.8845">has</text></g><!--link OperationTypeDto to PhasesDuration--><g id="link_OperationTypeDto_PhasesDuration"><path codeLine="115" d="M786,663.7794 C786,711.0694 786,765.6094 786,765.6094 C786,765.6094 940.55,765.6094 1060.96,765.6094 " fill="none" id="OperationTypeDto-to-PhasesDuration" style="stroke:#181818;stroke-width:1.0;"/><polygon fill="#181818" points="1066.96,765.6094,1057.96,761.6094,1061.96,765.6094,1057.96,769.6094,1066.96,765.6094" style="stroke:#181818;stroke-width:1.0;"/><polygon fill="#000000" points="849.2488,758.5216,841.7874,752.6243,839.746,758.1363,849.2488,758.5216" style="stroke:#000000;stroke-width:1.0;"/><text fill="#000000" font-family="sans-serif" font-size="13" lengthAdjust="spacing" textLength="21" x="853.56" y="762.1045">has</text></g><!--link RequiredStaff to Role--><g id="link_RequiredStaff_Role"><path codeLine="117" d="M529,824.7194 C529,843.0894 529,859.8794 529,878.2894 " fill="none" id="RequiredStaff-to-Role" style="stroke:#181818;stroke-width:1.0;"/><polygon fill="#181818" points="529,884.2894,533,875.2894,529,879.2894,525,875.2894,529,884.2894" style="stroke:#181818;stroke-width:1.0;"/><text fill="#000000" font-family="sans-serif" font-size="13" lengthAdjust="spacing" textLength="21" x="507" y="850.9945">has</text></g><!--link RequiredStaff to StaffQuantity--><g id="link_RequiredStaff_StaffQuantity"><path codeLine="118" d="M400,824.7194 C400,862.0494 400,917.6094 400,917.6094 C400,917.6094 392.46,917.6094 376.06,917.6094 " fill="none" id="RequiredStaff-to-StaffQuantity" style="stroke:#181818;stroke-width:1.0;"/><polygon fill="#181818" points="370.06,917.6094,379.06,921.6094,375.06,917.6094,379.06,913.6094,370.06,917.6094" style="stroke:#181818;stroke-width:1.0;"/><polygon fill="#000000" points="367.7522,882.1469,372.8555,874.1215,367.1636,872.6546,367.7522,882.1469" style="stroke:#000000;stroke-width:1.0;"/><text fill="#000000" font-family="sans-serif" font-size="13" lengthAdjust="spacing" textLength="21" x="378" y="882.6245">has</text></g><!--link PhasesDuration to Phase--><g id="link_PhasesDuration_Phase"><path codeLine="120" d="M1279,824.7194 C1279,843.0894 1279,859.8794 1279,878.2894 " fill="none" id="PhasesDuration-to-Phase" style="stroke:#181818;stroke-width:1.0;"/><polygon fill="#181818" points="1279,884.2894,1283,875.2894,1279,879.2894,1275,875.2894,1279,884.2894" style="stroke:#181818;stroke-width:1.0;"/><polygon fill="#000000" points="1248,850.6752,1250.9389,841.6301,1245.0611,841.6301,1248,850.6752" style="stroke:#000000;stroke-width:1.0;"/><text fill="#000000" font-family="sans-serif" font-size="13" lengthAdjust="spacing" textLength="21" x="1257" y="850.9945">has</text></g><!--link PhasesDuration to Duration--><g id="link_PhasesDuration_Duration"><path codeLine="121" d="M1150,824.7194 C1150,843.0894 1150,859.8794 1150,878.2894 " fill="none" id="PhasesDuration-to-Duration" style="stroke:#181818;stroke-width:1.0;"/><polygon fill="#181818" points="1150,884.2894,1154,875.2894,1150,879.2894,1146,875.2894,1150,884.2894" style="stroke:#181818;stroke-width:1.0;"/><polygon fill="#000000" points="1119,850.6752,1121.9389,841.6301,1116.0611,841.6301,1119,850.6752" style="stroke:#000000;stroke-width:1.0;"/><text fill="#000000" font-family="sans-serif" font-size="13" lengthAdjust="spacing" textLength="21" x="1128" y="850.9945">has</text></g><!--SRC=[pLLDZzem4BtdLyoHrRBLjaUqGaeJj8tK3JH0fPugamnWRR1JszcALltljHsInVb0gBqi1uJnUs_UZCTZ-KnPGGGvG47IPxB3fJhc209JHTWkHqys0Bad6Vz9sGws99VdEsbEfFIL4dHJAenIpfRq5yBz6IId3DMnGE12xRddvRXLe3W8kjihoAW9I3dp52_Ctnkk53-S_UyfghIlm4I2a9AT4Hq5uGtSmJgu__3UywmBc1SeYA6iTBI0CoLudgE0tnxep-qZge_7c1nmnFJN1CpFcmciY7n-y6se16MPgmT79rHyEgq4raL658uonIVGnbmhzAVNx1B52qsnuzINHvRssEq8Lxol9AV6ehCzaF66yzp9gufrCRbksFvq4Youf8gBuxzbz5- -h2dA58ejqIMDtfYpddBLLgAi9HI5rKRScAhMom9Jgi_wbqLEm5rNc0H_bFeAPKj5jji9ECiAiTWJYJ8inKd5NLUOOAz7GKyBlN2QdIDS1oDvqM0Ftx4t4XUyzv1TuwFYOburl_yezD6zpTDex3hKazSx-2uhuP3Q-KF4yI7XEOx1mhwKXEaXUZGDoBZ2q-ZbsnuZXWOfOS1PVeGD0W6h3NgOwhH3dkhRCuQu5D9CTF2bf1h0b8Si0wDUEtL2rrMjrnFGLxHZnw5OGiC_b58PEpk1-ke9KFhezJFJ2UeKluuQegGxTghisUArh6wvN-jQDPDJM0iTGusrjnfPUQWqJjH5CbluYR-Avh4-X7NoE4k-ZI7uFFFZA7vyZTkAUFj4cNv7PLsU4yeqMusesa_g5vVj1heu2i-R-B6isjrwjCTRRVhXKwJDXVDWDK_qYQwJvMmCgrdmAOw2oDTR2-r_5gyCUUXjVJVjVyacC8LILswGUAS_q-xbCpo1gXHCjeBMoctMsKZl3zeGEm4hWftbLtDgawdjmxR9CpE66LroIWz5ZWTaIbxKw3gMv0MbRX3Gnib6zrpBH9Uc6y8GTN_s86rp3M-tRjGmq9rCmxZMLQk1NgVCLwTHWuSpgH7N95DZhyYdXWwbv4fOKJj5pMPtpnsOZKXBl8dN87e07Ij_0G00]--></g></svg>