<?xml version="1.0" encoding="us-ascii" standalone="no"?><svg xmlns="http://www.w3.org/2000/svg" xmlns:xlink="http://www.w3.org/1999/xlink" contentStyleType="text/css" height="437px" preserveAspectRatio="none" style="width:481px;height:437px;background:#FFFFFF;" version="1.1" viewBox="0 0 481 437" width="481px" zoomAndPan="magnify"><defs/><g><text fill="#000000" font-family="sans-serif" font-size="14" font-weight="bold" lengthAdjust="spacing" textLength="297" x="94.25" y="28.5352">System Sequence Diagram (SSD) - UC008</text><rect fill="#FFFFFF" height="209.1738" style="stroke:#181818;stroke-width:1.0;" width="10" x="25.5" y="128.9766"/><rect fill="#FFFFFF" height="29.3105" style="stroke:#181818;stroke-width:1.0;" width="10" x="276.5" y="150.2871"/><rect fill="#FFFFFF" height="129.2422" style="stroke:#181818;stroke-width:1.0;" width="10" x="276.5" y="208.9082"/><line style="stroke:#181818;stroke-width:0.5;stroke-dasharray:5.0,5.0;" x1="30" x2="30" y1="118.9766" y2="356.1504"/><line style="stroke:#181818;stroke-width:0.5;stroke-dasharray:5.0,5.0;" x1="281.5" x2="281.5" y1="118.9766" y2="356.1504"/><text fill="#000000" font-family="sans-serif" font-size="14" lengthAdjust="spacing" textLength="45" x="5" y="116.0234">Admin</text><ellipse cx="30.5" cy="50.9883" fill="#E3E3E3" rx="8" ry="8" style="stroke:#181818;stroke-width:0.5;"/><path d="M30.5,58.9883 L30.5,85.9883 M17.5,66.9883 L43.5,66.9883 M30.5,85.9883 L17.5,100.9883 M30.5,85.9883 L43.5,100.9883 " fill="none" style="stroke:#181818;stroke-width:0.5;"/><text fill="#000000" font-family="sans-serif" font-size="14" lengthAdjust="spacing" textLength="45" x="5" y="368.6855">Admin</text><ellipse cx="30.5" cy="380.1387" fill="#E3E3E3" rx="8" ry="8" style="stroke:#181818;stroke-width:0.5;"/><path d="M30.5,388.1387 L30.5,415.1387 M17.5,396.1387 L43.5,396.1387 M30.5,415.1387 L17.5,430.1387 M30.5,415.1387 L43.5,430.1387 " fill="none" style="stroke:#181818;stroke-width:0.5;"/><rect fill="#E3E3E3" height="30.4883" rx="2.5" ry="2.5" style="stroke:#181818;stroke-width:0.5;" width="66" x="248.5" y="87.4883"/><text fill="#000000" font-family="sans-serif" font-size="14" lengthAdjust="spacing" textLength="52" x="255.5" y="108.0234">:System</text><rect fill="#E3E3E3" height="30.4883" rx="2.5" ry="2.5" style="stroke:#181818;stroke-width:0.5;" width="66" x="248.5" y="355.1504"/><text fill="#000000" font-family="sans-serif" font-size="14" lengthAdjust="spacing" textLength="52" x="255.5" y="375.6855">:System</text><rect fill="#FFFFFF" height="209.1738" style="stroke:#181818;stroke-width:1.0;" width="10" x="25.5" y="128.9766"/><rect fill="#FFFFFF" height="29.3105" style="stroke:#181818;stroke-width:1.0;" width="10" x="276.5" y="150.2871"/><rect fill="#FFFFFF" height="129.2422" style="stroke:#181818;stroke-width:1.0;" width="10" x="276.5" y="208.9082"/><polygon fill="#181818" points="264.5,146.2871,274.5,150.2871,264.5,154.2871,268.5,150.2871" style="stroke:#181818;stroke-width:1.0;"/><line style="stroke:#181818;stroke-width:1.0;" x1="35.5" x2="270.5" y1="150.2871" y2="150.2871"/><text fill="#000000" font-family="sans-serif" font-size="13" font-weight="bold" lengthAdjust="spacing" textLength="9" x="42.5" y="145.5449">1</text><text fill="#000000" font-family="sans-serif" font-size="13" lengthAdjust="spacing" textLength="171" x="55.5" y="145.5449">create a new patient profile</text><polygon fill="#181818" points="46.5,175.5977,36.5,179.5977,46.5,183.5977,42.5,179.5977" style="stroke:#181818;stroke-width:1.0;"/><line style="stroke:#181818;stroke-width:1.0;" x1="40.5" x2="280.5" y1="179.5977" y2="179.5977"/><text fill="#000000" font-family="sans-serif" font-size="13" font-weight="bold" lengthAdjust="spacing" textLength="9" x="52.5" y="174.8555">2</text><text fill="#000000" font-family="sans-serif" font-size="13" lengthAdjust="spacing" textLength="204" x="65.5" y="174.8555">asks to insert the patient details</text><polygon fill="#181818" points="264.5,204.9082,274.5,208.9082,264.5,212.9082,268.5,208.9082" style="stroke:#181818;stroke-width:1.0;"/><line style="stroke:#181818;stroke-width:1.0;" x1="35.5" x2="270.5" y1="208.9082" y2="208.9082"/><text fill="#000000" font-family="sans-serif" font-size="13" font-weight="bold" lengthAdjust="spacing" textLength="9" x="42.5" y="204.166">3</text><text fill="#000000" font-family="sans-serif" font-size="13" lengthAdjust="spacing" textLength="82" x="55.5" y="204.166">Insert details</text><line style="stroke:#181818;stroke-width:1.0;" x1="286.5" x2="328.5" y1="253.5293" y2="253.5293"/><line style="stroke:#181818;stroke-width:1.0;" x1="328.5" x2="328.5" y1="253.5293" y2="266.5293"/><line style="stroke:#181818;stroke-width:1.0;" x1="287.5" x2="328.5" y1="266.5293" y2="266.5293"/><polygon fill="#181818" points="297.5,262.5293,287.5,266.5293,297.5,270.5293,293.5,266.5293" style="stroke:#181818;stroke-width:1.0;"/><text fill="#000000" font-family="sans-serif" font-size="13" font-weight="bold" lengthAdjust="spacing" textLength="9" x="293.5" y="241.1318">4</text><text fill="#000000" font-family="sans-serif" font-size="13" lengthAdjust="spacing" textLength="164" x="306.5" y="233.4766">validates email and phone</text><text fill="#000000" font-family="sans-serif" font-size="13" lengthAdjust="spacing" textLength="118" x="306.5" y="248.7871">number are unique</text><line style="stroke:#181818;stroke-width:1.0;" x1="286.5" x2="328.5" y1="295.8398" y2="295.8398"/><line style="stroke:#181818;stroke-width:1.0;" x1="328.5" x2="328.5" y1="295.8398" y2="308.8398"/><line style="stroke:#181818;stroke-width:1.0;" x1="287.5" x2="328.5" y1="308.8398" y2="308.8398"/><polygon fill="#181818" points="297.5,304.8398,287.5,308.8398,297.5,312.8398,293.5,308.8398" style="stroke:#181818;stroke-width:1.0;"/><text fill="#000000" font-family="sans-serif" font-size="13" font-weight="bold" lengthAdjust="spacing" textLength="9" x="293.5" y="291.0977">5</text><text fill="#000000" font-family="sans-serif" font-size="13" lengthAdjust="spacing" textLength="167" x="306.5" y="291.0977">generate unique patient ID</text><polygon fill="#181818" points="41.5,334.1504,31.5,338.1504,41.5,342.1504,37.5,338.1504" style="stroke:#181818;stroke-width:1.0;"/><line style="stroke:#181818;stroke-width:1.0;stroke-dasharray:2.0,2.0;" x1="35.5" x2="280.5" y1="338.1504" y2="338.1504"/><text fill="#000000" font-family="sans-serif" font-size="13" font-weight="bold" lengthAdjust="spacing" textLength="9" x="47.5" y="333.4082">6</text><text fill="#000000" font-family="sans-serif" font-size="13" lengthAdjust="spacing" textLength="188" x="60.5" y="333.4082">show operation success/error</text><!--SRC=[VP6nRiCm34HtVSMXKpi4pLXuA13KIuPEHhSkhCpOGcpAbUW4-VjAiMC4JHjDXCXxv95nxsIWG3rwBzwsmVSC3IERk6G6idjgkD9JnmXibQJfhWjYIxK_EccmeowoeL6zZFqN1sFKQL9LfwZSe-BlaSKoIaTDLZvMLVc45JxUrkiNGrPzmARkdO0YDkMxIGtKMJUGA1wA2VEGarDeiiOTIFbSRP1U2h1wdGiAsC0vJH0-9YlgEA66u7SkUJWB5iJCnFpceHCh8OlKT1-X7auY1uMslE1gLd9Td70r_mRUZeK2smbpaTuRv8-9BkuErBawIIAuJnoGr1XQBunFcKu02enHNDgykGDgM3ZatbFfOcrRtgek6ucjFy8FMUUy88xMSepF788F_wt2NFtba_q0]--></g></svg>