<?xml version="1.0" encoding="us-ascii" standalone="no"?><svg xmlns="http://www.w3.org/2000/svg" xmlns:xlink="http://www.w3.org/1999/xlink" contentStyleType="text/css" height="601px" preserveAspectRatio="none" style="width:1620px;height:601px;background:#FFFFFF;" version="1.1" viewBox="0 0 1620 601" width="1620px" zoomAndPan="magnify"><defs/><g><text fill="#000000" font-family="sans-serif" font-size="14" font-weight="bold" lengthAdjust="spacing" textLength="222" x="698" y="29.5332">Sequence Diagram (SD) - UC020</text><rect fill="#FFFFFF" height="437.9219" style="stroke:#181818;stroke-width:1.0;" width="10" x="161" y="108.5703"/><rect fill="#FFFFFF" height="377.2188" style="stroke:#181818;stroke-width:1.0;" width="10" x="334.5" y="138.9219"/><rect fill="#FFFFFF" height="30.3516" style="stroke:#181818;stroke-width:1.0;" width="10" x="982.5" y="334.0313"/><rect fill="#FFFFFF" height="91.0547" style="stroke:#181818;stroke-width:1.0;" width="10" x="1135.5" y="212.625"/><rect fill="#FFFFFF" height="91.0547" style="stroke:#181818;stroke-width:1.0;" width="10" x="1135.5" y="394.7344"/><rect fill="#FFFFFF" height="30.3516" style="stroke:#181818;stroke-width:1.0;" width="10" x="1324" y="242.9766"/><rect fill="#FFFFFF" height="30.3516" style="stroke:#181818;stroke-width:1.0;" width="10" x="1324" y="425.0859"/><line style="stroke:#181818;stroke-width:0.5;stroke-dasharray:5.0,5.0;" x1="165.5" x2="165.5" y1="76.2188" y2="564.4922"/><line style="stroke:#181818;stroke-width:0.5;stroke-dasharray:5.0,5.0;" x1="339.5" x2="339.5" y1="76.2188" y2="564.4922"/><line style="stroke:#181818;stroke-width:0.5;stroke-dasharray:5.0,5.0;" x1="987" x2="987" y1="76.2188" y2="564.4922"/><line style="stroke:#181818;stroke-width:0.5;stroke-dasharray:5.0,5.0;" x1="1140" x2="1140" y1="76.2188" y2="564.4922"/><line style="stroke:#181818;stroke-width:0.5;stroke-dasharray:5.0,5.0;" x1="1329" x2="1329" y1="76.2188" y2="564.4922"/><line style="stroke:#181818;stroke-width:0.5;stroke-dasharray:5.0,5.0;" x1="1521" x2="1521" y1="76.2188" y2="564.4922"/><rect fill="#E2E2F0" height="31.6094" rx="2.5" ry="2.5" style="stroke:#181818;stroke-width:0.5;" width="171" x="80.5" y="43.6094"/><text fill="#000000" font-family="sans-serif" font-size="14" lengthAdjust="spacing" textLength="157" x="87.5" y="65.1426">OperationTypeController</text><rect fill="#E2E2F0" height="31.6094" rx="2.5" ry="2.5" style="stroke:#181818;stroke-width:0.5;" width="171" x="80.5" y="563.4922"/><text fill="#000000" font-family="sans-serif" font-size="14" lengthAdjust="spacing" textLength="157" x="87.5" y="585.0254">OperationTypeController</text><rect fill="#E2E2F0" height="31.6094" rx="2.5" ry="2.5" style="stroke:#181818;stroke-width:0.5;" width="156" x="261.5" y="43.6094"/><text fill="#000000" font-family="sans-serif" font-size="14" lengthAdjust="spacing" textLength="142" x="268.5" y="65.1426">OperationTypeService</text><rect fill="#E2E2F0" height="31.6094" rx="2.5" ry="2.5" style="stroke:#181818;stroke-width:0.5;" width="156" x="261.5" y="563.4922"/><text fill="#000000" font-family="sans-serif" font-size="14" lengthAdjust="spacing" textLength="142" x="268.5" y="585.0254">OperationTypeService</text><rect fill="#E2E2F0" height="31.6094" rx="2.5" ry="2.5" style="stroke:#181818;stroke-width:0.5;" width="109" x="933" y="43.6094"/><text fill="#000000" font-family="sans-serif" font-size="14" lengthAdjust="spacing" textLength="95" x="940" y="65.1426">OperationType</text><rect fill="#E2E2F0" height="31.6094" rx="2.5" ry="2.5" style="stroke:#181818;stroke-width:0.5;" width="109" x="933" y="563.4922"/><text fill="#000000" font-family="sans-serif" font-size="14" lengthAdjust="spacing" textLength="95" x="940" y="585.0254">OperationType</text><rect fill="#E2E2F0" height="31.6094" rx="2.5" ry="2.5" style="stroke:#181818;stroke-width:0.5;" width="177" x="1052" y="43.6094"/><text fill="#000000" font-family="sans-serif" font-size="14" lengthAdjust="spacing" textLength="163" x="1059" y="65.1426">OperationTypeRepository</text><rect fill="#E2E2F0" height="31.6094" rx="2.5" ry="2.5" style="stroke:#181818;stroke-width:0.5;" width="177" x="1052" y="563.4922"/><text fill="#000000" font-family="sans-serif" font-size="14" lengthAdjust="spacing" textLength="163" x="1059" y="585.0254">OperationTypeRepository</text><rect fill="#E2E2F0" height="31.6094" rx="2.5" ry="2.5" style="stroke:#181818;stroke-width:0.5;" width="180" x="1239" y="43.6094"/><text fill="#000000" font-family="sans-serif" font-size="14" lengthAdjust="spacing" textLength="166" x="1246" y="65.1426">IOperationTypeRepository</text><rect fill="#E2E2F0" height="31.6094" rx="2.5" ry="2.5" style="stroke:#181818;stroke-width:0.5;" width="180" x="1239" y="563.4922"/><text fill="#000000" font-family="sans-serif" font-size="14" lengthAdjust="spacing" textLength="166" x="1246" y="585.0254">IOperationTypeRepository</text><rect fill="#E2E2F0" height="31.6094" rx="2.5" ry="2.5" style="stroke:#181818;stroke-width:0.5;" width="185" x="1429" y="43.6094"/><text fill="#000000" font-family="sans-serif" font-size="14" lengthAdjust="spacing" textLength="171" x="1436" y="65.1426">CreatingOperationTypeDto</text><rect fill="#E2E2F0" height="31.6094" rx="2.5" ry="2.5" style="stroke:#181818;stroke-width:0.5;" width="185" x="1429" y="563.4922"/><text fill="#000000" font-family="sans-serif" font-size="14" lengthAdjust="spacing" textLength="171" x="1436" y="585.0254">CreatingOperationTypeDto</text><rect fill="#FFFFFF" height="437.9219" style="stroke:#181818;stroke-width:1.0;" width="10" x="161" y="108.5703"/><rect fill="#FFFFFF" height="377.2188" style="stroke:#181818;stroke-width:1.0;" width="10" x="334.5" y="138.9219"/><rect fill="#FFFFFF" height="30.3516" style="stroke:#181818;stroke-width:1.0;" width="10" x="982.5" y="334.0313"/><rect fill="#FFFFFF" height="91.0547" style="stroke:#181818;stroke-width:1.0;" width="10" x="1135.5" y="212.625"/><rect fill="#FFFFFF" height="91.0547" style="stroke:#181818;stroke-width:1.0;" width="10" x="1135.5" y="394.7344"/><rect fill="#FFFFFF" height="30.3516" style="stroke:#181818;stroke-width:1.0;" width="10" x="1324" y="242.9766"/><rect fill="#FFFFFF" height="30.3516" style="stroke:#181818;stroke-width:1.0;" width="10" x="1324" y="425.0859"/><polygon fill="#181818" points="149,104.5703,159,108.5703,149,112.5703,153,108.5703" style="stroke:#181818;stroke-width:1.0;"/><line style="stroke:#181818;stroke-width:1.0;" x1="0" x2="155" y1="108.5703" y2="108.5703"/><text fill="#000000" font-family="sans-serif" font-size="13" lengthAdjust="spacing" textLength="142" x="7" y="103.7139">POST /api/operationtype</text><polygon fill="#181818" points="322.5,134.9219,332.5,138.9219,322.5,142.9219,326.5,138.9219" style="stroke:#181818;stroke-width:1.0;"/><line style="stroke:#181818;stroke-width:1.0;" x1="171" x2="328.5" y1="138.9219" y2="138.9219"/><text fill="#000000" font-family="sans-serif" font-size="13" lengthAdjust="spacing" textLength="86" x="178" y="134.0654">AddAsync(dto)</text><line style="stroke:#181818;stroke-width:1.0;" x1="344.5" x2="386.5" y1="169.2734" y2="169.2734"/><line style="stroke:#181818;stroke-width:1.0;" x1="386.5" x2="386.5" y1="169.2734" y2="182.2734"/><line style="stroke:#181818;stroke-width:1.0;" x1="345.5" x2="386.5" y1="182.2734" y2="182.2734"/><polygon fill="#181818" points="355.5,178.2734,345.5,182.2734,355.5,186.2734,351.5,182.2734" style="stroke:#181818;stroke-width:1.0;"/><text fill="#000000" font-family="sans-serif" font-size="13" lengthAdjust="spacing" textLength="205" x="351.5" y="164.417">ValidateOperationTypeName(name)</text><polygon fill="#181818" points="1123.5,208.625,1133.5,212.625,1123.5,216.625,1127.5,212.625" style="stroke:#181818;stroke-width:1.0;"/><line style="stroke:#181818;stroke-width:1.0;" x1="344.5" x2="1129.5" y1="212.625" y2="212.625"/><text fill="#000000" font-family="sans-serif" font-size="13" lengthAdjust="spacing" textLength="148" x="351.5" y="207.7686">GetByNameAsync(name)</text><polygon fill="#181818" points="1312,238.9766,1322,242.9766,1312,246.9766,1316,242.9766" style="stroke:#181818;stroke-width:1.0;"/><line style="stroke:#181818;stroke-width:1.0;" x1="1145.5" x2="1318" y1="242.9766" y2="242.9766"/><text fill="#000000" font-family="sans-serif" font-size="13" lengthAdjust="spacing" textLength="148" x="1152.5" y="238.1201">GetByNameAsync(name)</text><polygon fill="#181818" points="1156.5,269.3281,1146.5,273.3281,1156.5,277.3281,1152.5,273.3281" style="stroke:#181818;stroke-width:1.0;"/><line style="stroke:#181818;stroke-width:1.0;stroke-dasharray:2.0,2.0;" x1="1150.5" x2="1328" y1="273.3281" y2="273.3281"/><text fill="#000000" font-family="sans-serif" font-size="13" lengthAdjust="spacing" textLength="20" x="1162.5" y="268.4717">null</text><polygon fill="#181818" points="355.5,299.6797,345.5,303.6797,355.5,307.6797,351.5,303.6797" style="stroke:#181818;stroke-width:1.0;"/><line style="stroke:#181818;stroke-width:1.0;stroke-dasharray:2.0,2.0;" x1="349.5" x2="1139.5" y1="303.6797" y2="303.6797"/><text fill="#000000" font-family="sans-serif" font-size="13" lengthAdjust="spacing" textLength="20" x="361.5" y="298.8232">null</text><polygon fill="#181818" points="970.5,330.0313,980.5,334.0313,970.5,338.0313,974.5,334.0313" style="stroke:#181818;stroke-width:1.0;"/><line style="stroke:#181818;stroke-width:1.0;" x1="344.5" x2="976.5" y1="334.0313" y2="334.0313"/><text fill="#000000" font-family="sans-serif" font-size="13" lengthAdjust="spacing" textLength="619" x="351.5" y="329.1748">new OperationType(dto.getName(), dto.getSpecialization(), dto.getRequiredStaff(), dto.getPhasesDuration())</text><polygon fill="#181818" points="355.5,360.3828,345.5,364.3828,355.5,368.3828,351.5,364.3828" style="stroke:#181818;stroke-width:1.0;"/><line style="stroke:#181818;stroke-width:1.0;stroke-dasharray:2.0,2.0;" x1="349.5" x2="986.5" y1="364.3828" y2="364.3828"/><text fill="#000000" font-family="sans-serif" font-size="13" lengthAdjust="spacing" textLength="81" x="361.5" y="359.5264">operationType</text><polygon fill="#181818" points="1123.5,390.7344,1133.5,394.7344,1123.5,398.7344,1127.5,394.7344" style="stroke:#181818;stroke-width:1.0;"/><line style="stroke:#181818;stroke-width:1.0;" x1="344.5" x2="1129.5" y1="394.7344" y2="394.7344"/><text fill="#000000" font-family="sans-serif" font-size="13" lengthAdjust="spacing" textLength="149" x="351.5" y="389.8779">AddAsync(operationType)</text><polygon fill="#181818" points="1312,421.0859,1322,425.0859,1312,429.0859,1316,425.0859" style="stroke:#181818;stroke-width:1.0;"/><line style="stroke:#181818;stroke-width:1.0;" x1="1145.5" x2="1318" y1="425.0859" y2="425.0859"/><text fill="#000000" font-family="sans-serif" font-size="13" lengthAdjust="spacing" textLength="149" x="1152.5" y="420.2295">AddAsync(operationType)</text><polygon fill="#181818" points="1156.5,451.4375,1146.5,455.4375,1156.5,459.4375,1152.5,455.4375" style="stroke:#181818;stroke-width:1.0;"/><line style="stroke:#181818;stroke-width:1.0;stroke-dasharray:2.0,2.0;" x1="1150.5" x2="1328" y1="455.4375" y2="455.4375"/><text fill="#000000" font-family="sans-serif" font-size="13" lengthAdjust="spacing" textLength="18" x="1162.5" y="450.5811">dto</text><polygon fill="#181818" points="355.5,481.7891,345.5,485.7891,355.5,489.7891,351.5,485.7891" style="stroke:#181818;stroke-width:1.0;"/><line style="stroke:#181818;stroke-width:1.0;stroke-dasharray:2.0,2.0;" x1="349.5" x2="1139.5" y1="485.7891" y2="485.7891"/><text fill="#000000" font-family="sans-serif" font-size="13" lengthAdjust="spacing" textLength="18" x="361.5" y="480.9326">dto</text><polygon fill="#181818" points="182,512.1406,172,516.1406,182,520.1406,178,516.1406" style="stroke:#181818;stroke-width:1.0;"/><line style="stroke:#181818;stroke-width:1.0;stroke-dasharray:2.0,2.0;" x1="176" x2="338.5" y1="516.1406" y2="516.1406"/><text fill="#000000" font-family="sans-serif" font-size="13" lengthAdjust="spacing" textLength="18" x="188" y="511.2842">dto</text><polygon fill="#181818" points="11,542.4922,1,546.4922,11,550.4922,7,546.4922" style="stroke:#181818;stroke-width:1.0;"/><line style="stroke:#181818;stroke-width:1.0;stroke-dasharray:2.0,2.0;" x1="5" x2="165" y1="546.4922" y2="546.4922"/><text fill="#000000" font-family="sans-serif" font-size="13" lengthAdjust="spacing" textLength="18" x="17" y="541.6357">dto</text><!--SRC=[hLHDJzmm4BtdLumuxKeD88whgj9s8rLxAOZGtgVERB3msgaz2mg_7Zi9YRrQqWhm8SgCttkUBzizIDsWnJqqA1wmff9RHM19CEfQKUP6WBl7oZn9NSCEbOjtbDJ4RKFG6DK68zeJ2frRCrlvvy2q5KQNyfdWCijOiZ-ffBy7qeAWa5W7mg8ibf33hytbbGTv4PP2DgWPpguRiiZIw3j_sCPejaOficU03YPpXbEIVPI2EiBmFuFkO8NPezGpg5jgZ9DiRDlX9pFbRET8ss2d-8qbZzPrGYlOz46noRByMvJq2cwkopkum4PUc5TAw4cMeM3vY4nnYJBmQxB1QmtrMC6wgjQkrM9HiLdso57YjMYTDwp1aGZyHYKhZqv2_ubxMcZ_MPuaJmLPmG_Yxst0zs4SaSPOeagFcs5D_Y3SbVODpPYL6ECPVMEIlR0wD-H7SUk3KYcseZcbED2uVgbEf74guwY6_QXwFZr1KllGoVEQkEl1yWiCPjcGaBvNpnqmshZrTr9Qgah6tIxotzoZ8rSSx40urPNXlYI9zhuqIHC7U3BROwKtfcKSrqJnmmFpJzdtpqd5vZF6997vtoavUZH6ZOYVtF6lUHw_4mCZGaUFoWi0]--></g></svg>