<?xml version="1.0" encoding="us-ascii" standalone="no"?><svg xmlns="http://www.w3.org/2000/svg" xmlns:xlink="http://www.w3.org/1999/xlink" contentStyleType="text/css" height="785px" preserveAspectRatio="none" style="width:2379px;height:785px;background:#FFFFFF;" version="1.1" viewBox="0 0 2379 785" width="2379px" zoomAndPan="magnify"><defs/><g><text fill="#000000" font-family="sans-serif" font-size="14" font-weight="bold" lengthAdjust="spacing" textLength="222" x="1077.75" y="29.5332">Sequence Diagram (SD) - UC020</text><rect fill="#FFFFFF" height="553.6797" style="stroke:#181818;stroke-width:1.0;" width="10" x="22.5" y="131.2188"/><rect fill="#FFFFFF" height="531.3281" style="stroke:#181818;stroke-width:1.0;" width="10" x="310.5" y="153.5703"/><rect fill="#FFFFFF" height="454.2734" style="stroke:#181818;stroke-width:1.0;" width="10" x="648.5" y="200.2734"/><rect fill="#FFFFFF" height="316.5156" style="stroke:#181818;stroke-width:1.0;" width="10" x="965.5" y="291.3281"/><rect fill="#FFFFFF" height="30.3516" style="stroke:#181818;stroke-width:1.0;" width="10" x="1613.5" y="425.7344"/><rect fill="#FFFFFF" height="30.3516" style="stroke:#181818;stroke-width:1.0;" width="10" x="1766.5" y="365.0313"/><rect fill="#FFFFFF" height="91.0547" style="stroke:#181818;stroke-width:1.0;" width="10" x="1766.5" y="486.4375"/><rect fill="#FFFFFF" height="30.3516" style="stroke:#181818;stroke-width:1.0;" width="10" x="2083.5" y="516.7891"/><rect fill="#FFFFFF" height="30.3516" style="stroke:#181818;stroke-width:1.0;" width="10" x="2276" y="230.625"/><line style="stroke:#181818;stroke-width:0.5;stroke-dasharray:5.0,5.0;" x1="27" x2="27" y1="121.2188" y2="702.8984"/><line style="stroke:#181818;stroke-width:0.5;stroke-dasharray:5.0,5.0;" x1="315" x2="315" y1="121.2188" y2="702.8984"/><line style="stroke:#181818;stroke-width:0.5;stroke-dasharray:5.0,5.0;" x1="653" x2="653" y1="121.2188" y2="702.8984"/><line style="stroke:#181818;stroke-width:0.5;stroke-dasharray:5.0,5.0;" x1="970.5" x2="970.5" y1="121.2188" y2="702.8984"/><line style="stroke:#181818;stroke-width:0.5;stroke-dasharray:5.0,5.0;" x1="1618" x2="1618" y1="121.2188" y2="702.8984"/><line style="stroke:#181818;stroke-width:0.5;stroke-dasharray:5.0,5.0;" x1="1771" x2="1771" y1="121.2188" y2="702.8984"/><line style="stroke:#181818;stroke-width:0.5;stroke-dasharray:5.0,5.0;" x1="2088.5" x2="2088.5" y1="121.2188" y2="702.8984"/><line style="stroke:#181818;stroke-width:0.5;stroke-dasharray:5.0,5.0;" x1="2280.5" x2="2280.5" y1="121.2188" y2="702.8984"/><text fill="#000000" font-family="sans-serif" font-size="14" lengthAdjust="spacing" textLength="39" x="5" y="118.1426">Admin</text><ellipse cx="27.5" cy="52.1094" fill="#E2E2F0" rx="8" ry="8" style="stroke:#181818;stroke-width:0.5;"/><path d="M27.5,60.1094 L27.5,87.1094 M14.5,68.1094 L40.5,68.1094 M27.5,87.1094 L14.5,102.1094 M27.5,87.1094 L40.5,102.1094 " fill="none" style="stroke:#181818;stroke-width:0.5;"/><text fill="#000000" font-family="sans-serif" font-size="14" lengthAdjust="spacing" textLength="39" x="5" y="716.4316">Admin</text><ellipse cx="27.5" cy="728.0078" fill="#E2E2F0" rx="8" ry="8" style="stroke:#181818;stroke-width:0.5;"/><path d="M27.5,736.0078 L27.5,763.0078 M14.5,744.0078 L40.5,744.0078 M27.5,763.0078 L14.5,778.0078 M27.5,763.0078 L40.5,778.0078 " fill="none" style="stroke:#181818;stroke-width:0.5;"/><rect fill="#E2E2F0" height="31.6094" rx="2.5" ry="2.5" style="stroke:#181818;stroke-width:0.5;" width="241" x="195" y="88.6094"/><text fill="#000000" font-family="sans-serif" font-size="14" lengthAdjust="spacing" textLength="227" x="202" y="110.1426">Postman (Client Interface Simulator)</text><rect fill="#E2E2F0" height="31.6094" rx="2.5" ry="2.5" style="stroke:#181818;stroke-width:0.5;" width="241" x="195" y="701.8984"/><text fill="#000000" font-family="sans-serif" font-size="14" lengthAdjust="spacing" textLength="227" x="202" y="723.4316">Postman (Client Interface Simulator)</text><rect fill="#E2E2F0" height="31.6094" rx="2.5" ry="2.5" style="stroke:#181818;stroke-width:0.5;" width="171" x="568" y="88.6094"/><text fill="#000000" font-family="sans-serif" font-size="14" lengthAdjust="spacing" textLength="157" x="575" y="110.1426">OperationTypeController</text><rect fill="#E2E2F0" height="31.6094" rx="2.5" ry="2.5" style="stroke:#181818;stroke-width:0.5;" width="171" x="568" y="701.8984"/><text fill="#000000" font-family="sans-serif" font-size="14" lengthAdjust="spacing" textLength="157" x="575" y="723.4316">OperationTypeController</text><rect fill="#E2E2F0" height="31.6094" rx="2.5" ry="2.5" style="stroke:#181818;stroke-width:0.5;" width="156" x="892.5" y="88.6094"/><text fill="#000000" font-family="sans-serif" font-size="14" lengthAdjust="spacing" textLength="142" x="899.5" y="110.1426">OperationTypeService</text><rect fill="#E2E2F0" height="31.6094" rx="2.5" ry="2.5" style="stroke:#181818;stroke-width:0.5;" width="156" x="892.5" y="701.8984"/><text fill="#000000" font-family="sans-serif" font-size="14" lengthAdjust="spacing" textLength="142" x="899.5" y="723.4316">OperationTypeService</text><rect fill="#E2E2F0" height="31.6094" rx="2.5" ry="2.5" style="stroke:#181818;stroke-width:0.5;" width="109" x="1564" y="88.6094"/><text fill="#000000" font-family="sans-serif" font-size="14" lengthAdjust="spacing" textLength="95" x="1571" y="110.1426">OperationType</text><rect fill="#E2E2F0" height="31.6094" rx="2.5" ry="2.5" style="stroke:#181818;stroke-width:0.5;" width="109" x="1564" y="701.8984"/><text fill="#000000" font-family="sans-serif" font-size="14" lengthAdjust="spacing" textLength="95" x="1571" y="723.4316">OperationType</text><rect fill="#E2E2F0" height="31.6094" rx="2.5" ry="2.5" style="stroke:#181818;stroke-width:0.5;" width="177" x="1683" y="88.6094"/><text fill="#000000" font-family="sans-serif" font-size="14" lengthAdjust="spacing" textLength="163" x="1690" y="110.1426">OperationTypeRepository</text><rect fill="#E2E2F0" height="31.6094" rx="2.5" ry="2.5" style="stroke:#181818;stroke-width:0.5;" width="177" x="1683" y="701.8984"/><text fill="#000000" font-family="sans-serif" font-size="14" lengthAdjust="spacing" textLength="163" x="1690" y="723.4316">OperationTypeRepository</text><rect fill="#E2E2F0" height="31.6094" rx="2.5" ry="2.5" style="stroke:#181818;stroke-width:0.5;" width="180" x="1998.5" y="88.6094"/><text fill="#000000" font-family="sans-serif" font-size="14" lengthAdjust="spacing" textLength="166" x="2005.5" y="110.1426">IOperationTypeRepository</text><rect fill="#E2E2F0" height="31.6094" rx="2.5" ry="2.5" style="stroke:#181818;stroke-width:0.5;" width="180" x="1998.5" y="701.8984"/><text fill="#000000" font-family="sans-serif" font-size="14" lengthAdjust="spacing" textLength="166" x="2005.5" y="723.4316">IOperationTypeRepository</text><rect fill="#E2E2F0" height="31.6094" rx="2.5" ry="2.5" style="stroke:#181818;stroke-width:0.5;" width="185" x="2188.5" y="88.6094"/><text fill="#000000" font-family="sans-serif" font-size="14" lengthAdjust="spacing" textLength="171" x="2195.5" y="110.1426">CreatingOperationTypeDto</text><rect fill="#E2E2F0" height="31.6094" rx="2.5" ry="2.5" style="stroke:#181818;stroke-width:0.5;" width="185" x="2188.5" y="701.8984"/><text fill="#000000" font-family="sans-serif" font-size="14" lengthAdjust="spacing" textLength="171" x="2195.5" y="723.4316">CreatingOperationTypeDto</text><rect fill="#FFFFFF" height="553.6797" style="stroke:#181818;stroke-width:1.0;" width="10" x="22.5" y="131.2188"/><rect fill="#FFFFFF" height="531.3281" style="stroke:#181818;stroke-width:1.0;" width="10" x="310.5" y="153.5703"/><rect fill="#FFFFFF" height="454.2734" style="stroke:#181818;stroke-width:1.0;" width="10" x="648.5" y="200.2734"/><rect fill="#FFFFFF" height="316.5156" style="stroke:#181818;stroke-width:1.0;" width="10" x="965.5" y="291.3281"/><rect fill="#FFFFFF" height="30.3516" style="stroke:#181818;stroke-width:1.0;" width="10" x="1613.5" y="425.7344"/><rect fill="#FFFFFF" height="30.3516" style="stroke:#181818;stroke-width:1.0;" width="10" x="1766.5" y="365.0313"/><rect fill="#FFFFFF" height="91.0547" style="stroke:#181818;stroke-width:1.0;" width="10" x="1766.5" y="486.4375"/><rect fill="#FFFFFF" height="30.3516" style="stroke:#181818;stroke-width:1.0;" width="10" x="2083.5" y="516.7891"/><rect fill="#FFFFFF" height="30.3516" style="stroke:#181818;stroke-width:1.0;" width="10" x="2276" y="230.625"/><polygon fill="#181818" points="298.5,149.5703,308.5,153.5703,298.5,157.5703,302.5,153.5703" style="stroke:#181818;stroke-width:1.0;"/><line style="stroke:#181818;stroke-width:1.0;" x1="32.5" x2="304.5" y1="153.5703" y2="153.5703"/><text fill="#000000" font-family="sans-serif" font-size="13" lengthAdjust="spacing" textLength="142" x="39.5" y="148.7139">POST /api/operationtype</text><polygon fill="#181818" points="636.5,196.2734,646.5,200.2734,636.5,204.2734,640.5,200.2734" style="stroke:#181818;stroke-width:1.0;"/><line style="stroke:#181818;stroke-width:1.0;" x1="320.5" x2="642.5" y1="200.2734" y2="200.2734"/><text fill="#000000" font-family="sans-serif" font-size="13" lengthAdjust="spacing" textLength="142" x="327.5" y="179.0654">POST /api/operationtype</text><text fill="#000000" font-family="sans-serif" font-size="13" lengthAdjust="spacing" textLength="305" x="331.5" y="195.417">Body: {name, staffBySpecialization, phasesDuration}</text><polygon fill="#181818" points="2264,226.625,2274,230.625,2264,234.625,2268,230.625" style="stroke:#181818;stroke-width:1.0;"/><line style="stroke:#181818;stroke-width:1.0;" x1="658.5" x2="2270" y1="230.625" y2="230.625"/><text fill="#000000" font-family="sans-serif" font-size="13" lengthAdjust="spacing" textLength="446" x="665.5" y="225.7686">new CreatingOperationTypeDto(name, staffBySpecialization, phasesDuration)</text><polygon fill="#181818" points="669.5,256.9766,659.5,260.9766,669.5,264.9766,665.5,260.9766" style="stroke:#181818;stroke-width:1.0;"/><line style="stroke:#181818;stroke-width:1.0;stroke-dasharray:2.0,2.0;" x1="663.5" x2="2280" y1="260.9766" y2="260.9766"/><text fill="#000000" font-family="sans-serif" font-size="13" lengthAdjust="spacing" textLength="18" x="675.5" y="256.1201">dto</text><polygon fill="#181818" points="953.5,287.3281,963.5,291.3281,953.5,295.3281,957.5,291.3281" style="stroke:#181818;stroke-width:1.0;"/><line style="stroke:#181818;stroke-width:1.0;" x1="658.5" x2="959.5" y1="291.3281" y2="291.3281"/><text fill="#000000" font-family="sans-serif" font-size="13" lengthAdjust="spacing" textLength="86" x="665.5" y="286.4717">AddAsync(dto)</text><line style="stroke:#181818;stroke-width:1.0;" x1="975.5" x2="1017.5" y1="321.6797" y2="321.6797"/><line style="stroke:#181818;stroke-width:1.0;" x1="1017.5" x2="1017.5" y1="321.6797" y2="334.6797"/><line style="stroke:#181818;stroke-width:1.0;" x1="976.5" x2="1017.5" y1="334.6797" y2="334.6797"/><polygon fill="#181818" points="986.5,330.6797,976.5,334.6797,986.5,338.6797,982.5,334.6797" style="stroke:#181818;stroke-width:1.0;"/><text fill="#000000" font-family="sans-serif" font-size="13" lengthAdjust="spacing" textLength="205" x="982.5" y="316.8232">ValidateOperationTypeName(name)</text><polygon fill="#181818" points="1754.5,361.0313,1764.5,365.0313,1754.5,369.0313,1758.5,365.0313" style="stroke:#181818;stroke-width:1.0;"/><line style="stroke:#181818;stroke-width:1.0;" x1="975.5" x2="1760.5" y1="365.0313" y2="365.0313"/><text fill="#000000" font-family="sans-serif" font-size="13" lengthAdjust="spacing" textLength="148" x="982.5" y="360.1748">GetByNameAsync(name)</text><polygon fill="#181818" points="986.5,391.3828,976.5,395.3828,986.5,399.3828,982.5,395.3828" style="stroke:#181818;stroke-width:1.0;"/><line style="stroke:#181818;stroke-width:1.0;stroke-dasharray:2.0,2.0;" x1="980.5" x2="1770.5" y1="395.3828" y2="395.3828"/><text fill="#000000" font-family="sans-serif" font-size="13" lengthAdjust="spacing" textLength="276" x="992.5" y="390.5264">404 Not Found (Operation Type with said name)</text><polygon fill="#181818" points="1601.5,421.7344,1611.5,425.7344,1601.5,429.7344,1605.5,425.7344" style="stroke:#181818;stroke-width:1.0;"/><line style="stroke:#181818;stroke-width:1.0;" x1="975.5" x2="1607.5" y1="425.7344" y2="425.7344"/><text fill="#000000" font-family="sans-serif" font-size="13" lengthAdjust="spacing" textLength="619" x="982.5" y="420.8779">new OperationType(dto.getName(), dto.getSpecialization(), dto.getRequiredStaff(), dto.getPhasesDuration())</text><polygon fill="#181818" points="986.5,452.0859,976.5,456.0859,986.5,460.0859,982.5,456.0859" style="stroke:#181818;stroke-width:1.0;"/><line style="stroke:#181818;stroke-width:1.0;stroke-dasharray:2.0,2.0;" x1="980.5" x2="1617.5" y1="456.0859" y2="456.0859"/><text fill="#000000" font-family="sans-serif" font-size="13" lengthAdjust="spacing" textLength="81" x="992.5" y="451.2295">operationType</text><polygon fill="#181818" points="1754.5,482.4375,1764.5,486.4375,1754.5,490.4375,1758.5,486.4375" style="stroke:#181818;stroke-width:1.0;"/><line style="stroke:#181818;stroke-width:1.0;" x1="975.5" x2="1760.5" y1="486.4375" y2="486.4375"/><text fill="#000000" font-family="sans-serif" font-size="13" lengthAdjust="spacing" textLength="86" x="982.5" y="481.5811">AddAsync(dto)</text><polygon fill="#181818" points="2071.5,512.7891,2081.5,516.7891,2071.5,520.7891,2075.5,516.7891" style="stroke:#181818;stroke-width:1.0;"/><line style="stroke:#181818;stroke-width:1.0;" x1="1776.5" x2="2077.5" y1="516.7891" y2="516.7891"/><text fill="#000000" font-family="sans-serif" font-size="13" lengthAdjust="spacing" textLength="149" x="1783.5" y="511.9326">AddAsync(operationType)</text><polygon fill="#181818" points="1787.5,543.1406,1777.5,547.1406,1787.5,551.1406,1783.5,547.1406" style="stroke:#181818;stroke-width:1.0;"/><line style="stroke:#181818;stroke-width:1.0;stroke-dasharray:2.0,2.0;" x1="1781.5" x2="2087.5" y1="547.1406" y2="547.1406"/><text fill="#000000" font-family="sans-serif" font-size="13" lengthAdjust="spacing" textLength="283" x="1793.5" y="542.2842">201 Created (Operation Type successfully saved)</text><polygon fill="#181818" points="986.5,573.4922,976.5,577.4922,986.5,581.4922,982.5,577.4922" style="stroke:#181818;stroke-width:1.0;"/><line style="stroke:#181818;stroke-width:1.0;stroke-dasharray:2.0,2.0;" x1="980.5" x2="1770.5" y1="577.4922" y2="577.4922"/><text fill="#000000" font-family="sans-serif" font-size="13" lengthAdjust="spacing" textLength="201" x="992.5" y="572.6357">Operation Type successfully saved</text><polygon fill="#181818" points="669.5,603.8438,659.5,607.8438,669.5,611.8438,665.5,607.8438" style="stroke:#181818;stroke-width:1.0;"/><line style="stroke:#181818;stroke-width:1.0;stroke-dasharray:2.0,2.0;" x1="663.5" x2="969.5" y1="607.8438" y2="607.8438"/><text fill="#000000" font-family="sans-serif" font-size="13" lengthAdjust="spacing" textLength="283" x="675.5" y="602.9873">201 Created (Operation Type successfully saved)</text><polygon fill="#181818" points="331.5,650.5469,321.5,654.5469,331.5,658.5469,327.5,654.5469" style="stroke:#181818;stroke-width:1.0;"/><line style="stroke:#181818;stroke-width:1.0;stroke-dasharray:2.0,2.0;" x1="325.5" x2="652.5" y1="654.5469" y2="654.5469"/><text fill="#000000" font-family="sans-serif" font-size="13" lengthAdjust="spacing" textLength="70" x="337.5" y="633.3389">201 Created</text><text fill="#000000" font-family="sans-serif" font-size="13" lengthAdjust="spacing" textLength="137" x="341.5" y="649.6904">Body: {operationTypeId}</text><polygon fill="#181818" points="38.5,680.8984,28.5,684.8984,38.5,688.8984,34.5,684.8984" style="stroke:#181818;stroke-width:1.0;"/><line style="stroke:#181818;stroke-width:1.0;stroke-dasharray:2.0,2.0;" x1="32.5" x2="314.5" y1="684.8984" y2="684.8984"/><text fill="#000000" font-family="sans-serif" font-size="13" lengthAdjust="spacing" textLength="254" x="44.5" y="680.042">Operation Type successfully created with ID</text><!--SRC=[fLLDRzim3BtdLn0znK2oPaLFEHJ81pRaqWPrjzCkgimaGXN9i-G4xh3_FdqujfJ47hRgP8byvDCZJQat9d9Ia3taXBwHBQQwuWW5Kat4bkD0DGvgHp9vP68B6y9LQE5CeAvoX5poocu26-L4gPdM1NijDQwe52bxHvWC1fffaod5doKAYh1aP6i1mtIPm1Y-BIPtnebGBGkOPNicW2ZxCJ1nDQCi9qB3pLeglIS2XWlEq1oiXCPYGqoybErBJWmwkR58Ru_1JpaMH3CfNWpvXHIwa9nZuVsRRGycnUB0A3f0_TtZxToMSa-OwF5wnbmgPdXNph_TnfXL7sXbzx7_ea3ZBROHRAcb9wMbaveTY4OdyW3CCXymVgYbcyBwANs1MvApMtaAOglkVHjqBRGxjAikZ8tJIDeP2tu8cCkici8lGVOu0gN9PZElqXmf8vozEyyHv3kYK2rBZ_pTPcjfjFLhZ8vESsufcOjFGU0HkkGP_WED9CxKK77gmjaoXp0-4oKxTyomEqXyaRhxfgPcsKnLWWvDi2v2frQz85KRee3VpNqpWugKUJIgE6cItY1jMqxXA-fvPN6UNWUuuHZq_OMJNQtToTZGlP_SmwFKy4MM8eDXmneiRJWolGD5M0OT-GF5-nW4T_G_jE-YI2DRWKzRr4whP0JrDkwXmF1i9Y4hC4jjhmNdwwZ9XacVQlLqkQgOjyLgoP1mhnfTaJkgtTE6_rtc1p_NWk0H_UHwX2QL7ufNVUnoPgTEU8-xoMS_6_2ocLH9AIgrAJclJ5CTCEkW4CZOGwAhe_-QzUDTV3Q7FdJf8FVLEHFEhU1n2NEsZq1Ku5KM3FeWpRLHVtfrJ0RpYlMBIEkqRZYibZv86Bz-qO8Z-qJ-0G00]--></g></svg>