<?xml version="1.0" encoding="us-ascii" standalone="no"?><svg xmlns="http://www.w3.org/2000/svg" xmlns:xlink="http://www.w3.org/1999/xlink" contentStyleType="text/css" height="740px" preserveAspectRatio="none" style="width:2040px;height:740px;background:#FFFFFF;" version="1.1" viewBox="0 0 2040 740" width="2040px" zoomAndPan="magnify"><defs/><g><text fill="#000000" font-family="sans-serif" font-size="14" font-weight="bold" lengthAdjust="spacing" textLength="222" x="910.75" y="29.5332">Sequence Diagram (SD) - UC020</text><rect fill="#FFFFFF" height="509.3281" style="stroke:#181818;stroke-width:1.0;" width="10" x="22.5" y="131.2188"/><rect fill="#FFFFFF" height="486.9766" style="stroke:#181818;stroke-width:1.0;" width="10" x="310.5" y="153.5703"/><rect fill="#FFFFFF" height="409.9219" style="stroke:#181818;stroke-width:1.0;" width="10" x="648.5" y="200.2734"/><rect fill="#FFFFFF" height="332.8672" style="stroke:#181818;stroke-width:1.0;" width="10" x="1071.5" y="230.625"/><rect fill="#FFFFFF" height="30.3516" style="stroke:#181818;stroke-width:1.0;" width="10" x="1478.5" y="365.0313"/><rect fill="#FFFFFF" height="30.3516" style="stroke:#181818;stroke-width:1.0;" width="10" x="1631.5" y="304.3281"/><rect fill="#FFFFFF" height="91.0547" style="stroke:#181818;stroke-width:1.0;" width="10" x="1631.5" y="442.0859"/><rect fill="#FFFFFF" height="30.3516" style="stroke:#181818;stroke-width:1.0;" width="10" x="1948.5" y="472.4375"/><line style="stroke:#181818;stroke-width:0.5;stroke-dasharray:5.0,5.0;" x1="27" x2="27" y1="121.2188" y2="658.5469"/><line style="stroke:#181818;stroke-width:0.5;stroke-dasharray:5.0,5.0;" x1="315" x2="315" y1="121.2188" y2="658.5469"/><line style="stroke:#181818;stroke-width:0.5;stroke-dasharray:5.0,5.0;" x1="653" x2="653" y1="121.2188" y2="658.5469"/><line style="stroke:#181818;stroke-width:0.5;stroke-dasharray:5.0,5.0;" x1="1076.5" x2="1076.5" y1="121.2188" y2="658.5469"/><line style="stroke:#181818;stroke-width:0.5;stroke-dasharray:5.0,5.0;" x1="1483" x2="1483" y1="121.2188" y2="658.5469"/><line style="stroke:#181818;stroke-width:0.5;stroke-dasharray:5.0,5.0;" x1="1636" x2="1636" y1="121.2188" y2="658.5469"/><line style="stroke:#181818;stroke-width:0.5;stroke-dasharray:5.0,5.0;" x1="1953.5" x2="1953.5" y1="121.2188" y2="658.5469"/><text fill="#000000" font-family="sans-serif" font-size="14" lengthAdjust="spacing" textLength="39" x="5" y="118.1426">Admin</text><ellipse cx="27.5" cy="52.1094" fill="#E2E2F0" rx="8" ry="8" style="stroke:#181818;stroke-width:0.5;"/><path d="M27.5,60.1094 L27.5,87.1094 M14.5,68.1094 L40.5,68.1094 M27.5,87.1094 L14.5,102.1094 M27.5,87.1094 L40.5,102.1094 " fill="none" style="stroke:#181818;stroke-width:0.5;"/><text fill="#000000" font-family="sans-serif" font-size="14" lengthAdjust="spacing" textLength="39" x="5" y="672.0801">Admin</text><ellipse cx="27.5" cy="683.6563" fill="#E2E2F0" rx="8" ry="8" style="stroke:#181818;stroke-width:0.5;"/><path d="M27.5,691.6563 L27.5,718.6563 M14.5,699.6563 L40.5,699.6563 M27.5,718.6563 L14.5,733.6563 M27.5,718.6563 L40.5,733.6563 " fill="none" style="stroke:#181818;stroke-width:0.5;"/><rect fill="#E2E2F0" height="31.6094" rx="2.5" ry="2.5" style="stroke:#181818;stroke-width:0.5;" width="119" x="256" y="88.6094"/><text fill="#000000" font-family="sans-serif" font-size="14" lengthAdjust="spacing" textLength="105" x="263" y="110.1426">Postman (Client)</text><rect fill="#E2E2F0" height="31.6094" rx="2.5" ry="2.5" style="stroke:#181818;stroke-width:0.5;" width="119" x="256" y="657.5469"/><text fill="#000000" font-family="sans-serif" font-size="14" lengthAdjust="spacing" textLength="105" x="263" y="679.0801">Postman (Client)</text><rect fill="#E2E2F0" height="31.6094" rx="2.5" ry="2.5" style="stroke:#181818;stroke-width:0.5;" width="171" x="568" y="88.6094"/><text fill="#000000" font-family="sans-serif" font-size="14" lengthAdjust="spacing" textLength="157" x="575" y="110.1426">OperationTypeController</text><rect fill="#E2E2F0" height="31.6094" rx="2.5" ry="2.5" style="stroke:#181818;stroke-width:0.5;" width="171" x="568" y="657.5469"/><text fill="#000000" font-family="sans-serif" font-size="14" lengthAdjust="spacing" textLength="157" x="575" y="679.0801">OperationTypeController</text><rect fill="#E2E2F0" height="31.6094" rx="2.5" ry="2.5" style="stroke:#181818;stroke-width:0.5;" width="156" x="998.5" y="88.6094"/><text fill="#000000" font-family="sans-serif" font-size="14" lengthAdjust="spacing" textLength="142" x="1005.5" y="110.1426">OperationTypeService</text><rect fill="#E2E2F0" height="31.6094" rx="2.5" ry="2.5" style="stroke:#181818;stroke-width:0.5;" width="156" x="998.5" y="657.5469"/><text fill="#000000" font-family="sans-serif" font-size="14" lengthAdjust="spacing" textLength="142" x="1005.5" y="679.0801">OperationTypeService</text><rect fill="#E2E2F0" height="31.6094" rx="2.5" ry="2.5" style="stroke:#181818;stroke-width:0.5;" width="109" x="1429" y="88.6094"/><text fill="#000000" font-family="sans-serif" font-size="14" lengthAdjust="spacing" textLength="95" x="1436" y="110.1426">OperationType</text><rect fill="#E2E2F0" height="31.6094" rx="2.5" ry="2.5" style="stroke:#181818;stroke-width:0.5;" width="109" x="1429" y="657.5469"/><text fill="#000000" font-family="sans-serif" font-size="14" lengthAdjust="spacing" textLength="95" x="1436" y="679.0801">OperationType</text><rect fill="#E2E2F0" height="31.6094" rx="2.5" ry="2.5" style="stroke:#181818;stroke-width:0.5;" width="177" x="1548" y="88.6094"/><text fill="#000000" font-family="sans-serif" font-size="14" lengthAdjust="spacing" textLength="163" x="1555" y="110.1426">OperationTypeRepository</text><rect fill="#E2E2F0" height="31.6094" rx="2.5" ry="2.5" style="stroke:#181818;stroke-width:0.5;" width="177" x="1548" y="657.5469"/><text fill="#000000" font-family="sans-serif" font-size="14" lengthAdjust="spacing" textLength="163" x="1555" y="679.0801">OperationTypeRepository</text><text fill="#000000" font-family="sans-serif" font-size="14" lengthAdjust="spacing" textLength="166" x="1867.5" y="118.1426">IOperationTypeRepository</text><path d="M1935.5,67.6094 C1935.5,57.6094 1953.5,57.6094 1953.5,57.6094 C1953.5,57.6094 1971.5,57.6094 1971.5,67.6094 L1971.5,93.6094 C1971.5,103.6094 1953.5,103.6094 1953.5,103.6094 C1953.5,103.6094 1935.5,103.6094 1935.5,93.6094 L1935.5,67.6094 " fill="#E2E2F0" style="stroke:#181818;stroke-width:1.5;"/><path d="M1935.5,67.6094 C1935.5,77.6094 1953.5,77.6094 1953.5,77.6094 C1953.5,77.6094 1971.5,77.6094 1971.5,67.6094 " fill="none" style="stroke:#181818;stroke-width:1.5;"/><text fill="#000000" font-family="sans-serif" font-size="14" lengthAdjust="spacing" textLength="166" x="1867.5" y="672.0801">IOperationTypeRepository</text><path d="M1935.5,685.1563 C1935.5,675.1563 1953.5,675.1563 1953.5,675.1563 C1953.5,675.1563 1971.5,675.1563 1971.5,685.1563 L1971.5,711.1563 C1971.5,721.1563 1953.5,721.1563 1953.5,721.1563 C1953.5,721.1563 1935.5,721.1563 1935.5,711.1563 L1935.5,685.1563 " fill="#E2E2F0" style="stroke:#181818;stroke-width:1.5;"/><path d="M1935.5,685.1563 C1935.5,695.1563 1953.5,695.1563 1953.5,695.1563 C1953.5,695.1563 1971.5,695.1563 1971.5,685.1563 " fill="none" style="stroke:#181818;stroke-width:1.5;"/><rect fill="#FFFFFF" height="509.3281" style="stroke:#181818;stroke-width:1.0;" width="10" x="22.5" y="131.2188"/><rect fill="#FFFFFF" height="486.9766" style="stroke:#181818;stroke-width:1.0;" width="10" x="310.5" y="153.5703"/><rect fill="#FFFFFF" height="409.9219" style="stroke:#181818;stroke-width:1.0;" width="10" x="648.5" y="200.2734"/><rect fill="#FFFFFF" height="332.8672" style="stroke:#181818;stroke-width:1.0;" width="10" x="1071.5" y="230.625"/><rect fill="#FFFFFF" height="30.3516" style="stroke:#181818;stroke-width:1.0;" width="10" x="1478.5" y="365.0313"/><rect fill="#FFFFFF" height="30.3516" style="stroke:#181818;stroke-width:1.0;" width="10" x="1631.5" y="304.3281"/><rect fill="#FFFFFF" height="91.0547" style="stroke:#181818;stroke-width:1.0;" width="10" x="1631.5" y="442.0859"/><rect fill="#FFFFFF" height="30.3516" style="stroke:#181818;stroke-width:1.0;" width="10" x="1948.5" y="472.4375"/><polygon fill="#181818" points="298.5,149.5703,308.5,153.5703,298.5,157.5703,302.5,153.5703" style="stroke:#181818;stroke-width:1.0;"/><line style="stroke:#181818;stroke-width:1.0;" x1="32.5" x2="304.5" y1="153.5703" y2="153.5703"/><text fill="#000000" font-family="sans-serif" font-size="13" lengthAdjust="spacing" textLength="142" x="39.5" y="148.7139">POST /api/operationtype</text><polygon fill="#181818" points="636.5,196.2734,646.5,200.2734,636.5,204.2734,640.5,200.2734" style="stroke:#181818;stroke-width:1.0;"/><line style="stroke:#181818;stroke-width:1.0;" x1="320.5" x2="642.5" y1="200.2734" y2="200.2734"/><text fill="#000000" font-family="sans-serif" font-size="13" lengthAdjust="spacing" textLength="142" x="327.5" y="179.0654">POST /api/operationtype</text><text fill="#000000" font-family="sans-serif" font-size="13" lengthAdjust="spacing" textLength="305" x="331.5" y="195.417">Body: {name, staffBySpecialization, phasesDuration}</text><polygon fill="#181818" points="1059.5,226.625,1069.5,230.625,1059.5,234.625,1063.5,230.625" style="stroke:#181818;stroke-width:1.0;"/><line style="stroke:#181818;stroke-width:1.0;" x1="658.5" x2="1065.5" y1="230.625" y2="230.625"/><text fill="#000000" font-family="sans-serif" font-size="13" lengthAdjust="spacing" textLength="394" x="665.5" y="225.7686">registerOperationType(name, staffBySpecialization, phasesDuration)</text><line style="stroke:#181818;stroke-width:1.0;" x1="1081.5" x2="1123.5" y1="260.9766" y2="260.9766"/><line style="stroke:#181818;stroke-width:1.0;" x1="1123.5" x2="1123.5" y1="260.9766" y2="273.9766"/><line style="stroke:#181818;stroke-width:1.0;" x1="1082.5" x2="1123.5" y1="273.9766" y2="273.9766"/><polygon fill="#181818" points="1092.5,269.9766,1082.5,273.9766,1092.5,277.9766,1088.5,273.9766" style="stroke:#181818;stroke-width:1.0;"/><text fill="#000000" font-family="sans-serif" font-size="13" lengthAdjust="spacing" textLength="201" x="1088.5" y="256.1201">validateOperationTypeName(name)</text><polygon fill="#181818" points="1619.5,300.3281,1629.5,304.3281,1619.5,308.3281,1623.5,304.3281" style="stroke:#181818;stroke-width:1.0;"/><line style="stroke:#181818;stroke-width:1.0;" x1="1081.5" x2="1625.5" y1="304.3281" y2="304.3281"/><text fill="#000000" font-family="sans-serif" font-size="13" lengthAdjust="spacing" textLength="213" x="1088.5" y="299.4717">GET /operationtypes/byname/{name}</text><polygon fill="#181818" points="1092.5,330.6797,1082.5,334.6797,1092.5,338.6797,1088.5,334.6797" style="stroke:#181818;stroke-width:1.0;"/><line style="stroke:#181818;stroke-width:1.0;stroke-dasharray:2.0,2.0;" x1="1086.5" x2="1635.5" y1="334.6797" y2="334.6797"/><text fill="#000000" font-family="sans-serif" font-size="13" lengthAdjust="spacing" textLength="276" x="1098.5" y="329.8232">404 Not Found (Operation Type with said name)</text><polygon fill="#181818" points="1466.5,361.0313,1476.5,365.0313,1466.5,369.0313,1470.5,365.0313" style="stroke:#181818;stroke-width:1.0;"/><line style="stroke:#181818;stroke-width:1.0;" x1="1081.5" x2="1472.5" y1="365.0313" y2="365.0313"/><text fill="#000000" font-family="sans-serif" font-size="13" lengthAdjust="spacing" textLength="378" x="1088.5" y="360.1748">new OperationType(name, staffBySpecialization, phasesDuration)</text><polygon fill="#181818" points="1092.5,391.3828,1082.5,395.3828,1092.5,399.3828,1088.5,395.3828" style="stroke:#181818;stroke-width:1.0;"/><line style="stroke:#181818;stroke-width:1.0;stroke-dasharray:2.0,2.0;" x1="1086.5" x2="1482.5" y1="395.3828" y2="395.3828"/><text fill="#000000" font-family="sans-serif" font-size="13" lengthAdjust="spacing" textLength="81" x="1098.5" y="390.5264">operationType</text><polygon fill="#181818" points="1619.5,438.0859,1629.5,442.0859,1619.5,446.0859,1623.5,442.0859" style="stroke:#181818;stroke-width:1.0;"/><line style="stroke:#181818;stroke-width:1.0;" x1="1081.5" x2="1625.5" y1="442.0859" y2="442.0859"/><text fill="#000000" font-family="sans-serif" font-size="13" lengthAdjust="spacing" textLength="128" x="1088.5" y="420.8779">POST /operationtypes</text><text fill="#000000" font-family="sans-serif" font-size="13" lengthAdjust="spacing" textLength="127" x="1092.5" y="437.2295">Body: {operationType}</text><polygon fill="#181818" points="1936.5,468.4375,1946.5,472.4375,1936.5,476.4375,1940.5,472.4375" style="stroke:#181818;stroke-width:1.0;"/><line style="stroke:#181818;stroke-width:1.0;" x1="1641.5" x2="1942.5" y1="472.4375" y2="472.4375"/><text fill="#000000" font-family="sans-serif" font-size="13" lengthAdjust="spacing" textLength="115" x="1648.5" y="467.5811">save(operationType)</text><polygon fill="#181818" points="1652.5,498.7891,1642.5,502.7891,1652.5,506.7891,1648.5,502.7891" style="stroke:#181818;stroke-width:1.0;"/><line style="stroke:#181818;stroke-width:1.0;stroke-dasharray:2.0,2.0;" x1="1646.5" x2="1952.5" y1="502.7891" y2="502.7891"/><text fill="#000000" font-family="sans-serif" font-size="13" lengthAdjust="spacing" textLength="283" x="1658.5" y="497.9326">201 Created (Operation Type successfully saved)</text><polygon fill="#181818" points="1092.5,529.1406,1082.5,533.1406,1092.5,537.1406,1088.5,533.1406" style="stroke:#181818;stroke-width:1.0;"/><line style="stroke:#181818;stroke-width:1.0;stroke-dasharray:2.0,2.0;" x1="1086.5" x2="1635.5" y1="533.1406" y2="533.1406"/><text fill="#000000" font-family="sans-serif" font-size="13" lengthAdjust="spacing" textLength="201" x="1098.5" y="528.2842">Operation Type successfully saved</text><polygon fill="#181818" points="669.5,559.4922,659.5,563.4922,669.5,567.4922,665.5,563.4922" style="stroke:#181818;stroke-width:1.0;"/><line style="stroke:#181818;stroke-width:1.0;stroke-dasharray:2.0,2.0;" x1="663.5" x2="1075.5" y1="563.4922" y2="563.4922"/><text fill="#000000" font-family="sans-serif" font-size="13" lengthAdjust="spacing" textLength="283" x="675.5" y="558.6357">201 Created (Operation Type successfully saved)</text><polygon fill="#181818" points="331.5,606.1953,321.5,610.1953,331.5,614.1953,327.5,610.1953" style="stroke:#181818;stroke-width:1.0;"/><line style="stroke:#181818;stroke-width:1.0;stroke-dasharray:2.0,2.0;" x1="325.5" x2="652.5" y1="610.1953" y2="610.1953"/><text fill="#000000" font-family="sans-serif" font-size="13" lengthAdjust="spacing" textLength="70" x="337.5" y="588.9873">201 Created</text><text fill="#000000" font-family="sans-serif" font-size="13" lengthAdjust="spacing" textLength="137" x="341.5" y="605.3389">Body: {operationTypeId}</text><polygon fill="#181818" points="38.5,636.5469,28.5,640.5469,38.5,644.5469,34.5,640.5469" style="stroke:#181818;stroke-width:1.0;"/><line style="stroke:#181818;stroke-width:1.0;stroke-dasharray:2.0,2.0;" x1="32.5" x2="314.5" y1="640.5469" y2="640.5469"/><text fill="#000000" font-family="sans-serif" font-size="13" lengthAdjust="spacing" textLength="254" x="44.5" y="635.6904">Operation Type successfully created with ID</text><!--SRC=[hLKzRzim4DtrAmwUR226tI2JXW29tHPUag1AjovdwcmJeKbLf6meHVvxIKgMgDfIMoISIDxNktV7etxXCiCSzv0XUy4j9QOK13anWt8hADADWjvXgevSRc63GeSImIMPCYF8b2ZT8P0nWLhV6PFpTM5enPHC-2l1F8eCDpPIGZyBaenWoN7h3CR9SW9J-BwONribP4RbS9VkkGJKRXDPluOpdg4qC7fIsknHmdWXE4ap6JcjQjzLVCmeHyELVBP05qgQN0b1UQNV70Ti4ieFd94tgFS3sbvjgVR8vO3MDygKvZR3qkktnoX5WslK1AFLaCNAdJrB_826F3yHs6KtCBsjcOZXwJ5vXXbcVAPEtbp1Ajt6kkRDNxfLdRsVXg5UN_13mhrAonX-ITpJ5MY3cyrzcMJ4E0h-wZMl8DlPjFIog2pVscWjZBOSZT33QUuTfBe6iUtLBTU6yWvFu__0CEc6QN2SgjoHkbKBEYWErhqj6dLGF5WG7ibaq4bRr1Y-VhRaTeZLitNfVCmyhs_ddXh0GV-SARdLoc4QOh-Pty23Cl155JA5SPC2k1pWoCqEDF8KUZ99wPyG10bN3oC6IKVugB9rcAXVtaKMAbcN0HM26ComptDFEQl7qgrdy58wSJ-gjBVLM8XjqGuqxeIONBPkmjJp17gM5tlcmXolvvzWaPErFsyUNJ16McyA8KgF9-s1450y0AAlW_yQzVrT-ySKV5VIGUoBGoQSTC4K3sFszD0g3Ree27Dfffx6kurWlujX4baTrW-3rR9o4lglluxWolr5lm40]--></g></svg>