<?xml version="1.0" encoding="us-ascii" standalone="no"?><svg xmlns="http://www.w3.org/2000/svg" xmlns:xlink="http://www.w3.org/1999/xlink" contentStyleType="text/css" height="617px" preserveAspectRatio="none" style="width:1787px;height:617px;background:#FFFFFF;" version="1.1" viewBox="0 0 1787 617" width="1787px" zoomAndPan="magnify"><defs/><g><text fill="#000000" font-family="sans-serif" font-size="14" font-weight="bold" lengthAdjust="spacing" textLength="222" x="781.5" y="29.5332">Sequence Diagram (SD) - UC020</text><rect fill="#FFFFFF" height="437.9219" style="stroke:#181818;stroke-width:1.0;" width="10" x="328" y="124.9219"/><rect fill="#FFFFFF" height="377.2188" style="stroke:#181818;stroke-width:1.0;" width="10" x="501.5" y="155.2734"/><rect fill="#FFFFFF" height="30.3516" style="stroke:#181818;stroke-width:1.0;" width="10" x="1149.5" y="350.3828"/><rect fill="#FFFFFF" height="91.0547" style="stroke:#181818;stroke-width:1.0;" width="10" x="1302.5" y="228.9766"/><rect fill="#FFFFFF" height="91.0547" style="stroke:#181818;stroke-width:1.0;" width="10" x="1302.5" y="411.0859"/><rect fill="#FFFFFF" height="30.3516" style="stroke:#181818;stroke-width:1.0;" width="10" x="1491" y="259.3281"/><rect fill="#FFFFFF" height="30.3516" style="stroke:#181818;stroke-width:1.0;" width="10" x="1491" y="441.4375"/><line style="stroke:#181818;stroke-width:0.5;stroke-dasharray:5.0,5.0;" x1="332.5" x2="332.5" y1="76.2188" y2="580.8438"/><line style="stroke:#181818;stroke-width:0.5;stroke-dasharray:5.0,5.0;" x1="506.5" x2="506.5" y1="76.2188" y2="580.8438"/><line style="stroke:#181818;stroke-width:0.5;stroke-dasharray:5.0,5.0;" x1="1154" x2="1154" y1="76.2188" y2="580.8438"/><line style="stroke:#181818;stroke-width:0.5;stroke-dasharray:5.0,5.0;" x1="1307" x2="1307" y1="76.2188" y2="580.8438"/><line style="stroke:#181818;stroke-width:0.5;stroke-dasharray:5.0,5.0;" x1="1496" x2="1496" y1="76.2188" y2="580.8438"/><line style="stroke:#181818;stroke-width:0.5;stroke-dasharray:5.0,5.0;" x1="1688" x2="1688" y1="76.2188" y2="580.8438"/><rect fill="#E2E2F0" height="31.6094" rx="2.5" ry="2.5" style="stroke:#181818;stroke-width:0.5;" width="171" x="247.5" y="43.6094"/><text fill="#000000" font-family="sans-serif" font-size="14" lengthAdjust="spacing" textLength="157" x="254.5" y="65.1426">OperationTypeController</text><rect fill="#E2E2F0" height="31.6094" rx="2.5" ry="2.5" style="stroke:#181818;stroke-width:0.5;" width="171" x="247.5" y="579.8438"/><text fill="#000000" font-family="sans-serif" font-size="14" lengthAdjust="spacing" textLength="157" x="254.5" y="601.377">OperationTypeController</text><rect fill="#E2E2F0" height="31.6094" rx="2.5" ry="2.5" style="stroke:#181818;stroke-width:0.5;" width="156" x="428.5" y="43.6094"/><text fill="#000000" font-family="sans-serif" font-size="14" lengthAdjust="spacing" textLength="142" x="435.5" y="65.1426">OperationTypeService</text><rect fill="#E2E2F0" height="31.6094" rx="2.5" ry="2.5" style="stroke:#181818;stroke-width:0.5;" width="156" x="428.5" y="579.8438"/><text fill="#000000" font-family="sans-serif" font-size="14" lengthAdjust="spacing" textLength="142" x="435.5" y="601.377">OperationTypeService</text><rect fill="#E2E2F0" height="31.6094" rx="2.5" ry="2.5" style="stroke:#181818;stroke-width:0.5;" width="109" x="1100" y="43.6094"/><text fill="#000000" font-family="sans-serif" font-size="14" lengthAdjust="spacing" textLength="95" x="1107" y="65.1426">OperationType</text><rect fill="#E2E2F0" height="31.6094" rx="2.5" ry="2.5" style="stroke:#181818;stroke-width:0.5;" width="109" x="1100" y="579.8438"/><text fill="#000000" font-family="sans-serif" font-size="14" lengthAdjust="spacing" textLength="95" x="1107" y="601.377">OperationType</text><rect fill="#E2E2F0" height="31.6094" rx="2.5" ry="2.5" style="stroke:#181818;stroke-width:0.5;" width="177" x="1219" y="43.6094"/><text fill="#000000" font-family="sans-serif" font-size="14" lengthAdjust="spacing" textLength="163" x="1226" y="65.1426">OperationTypeRepository</text><rect fill="#E2E2F0" height="31.6094" rx="2.5" ry="2.5" style="stroke:#181818;stroke-width:0.5;" width="177" x="1219" y="579.8438"/><text fill="#000000" font-family="sans-serif" font-size="14" lengthAdjust="spacing" textLength="163" x="1226" y="601.377">OperationTypeRepository</text><rect fill="#E2E2F0" height="31.6094" rx="2.5" ry="2.5" style="stroke:#181818;stroke-width:0.5;" width="180" x="1406" y="43.6094"/><text fill="#000000" font-family="sans-serif" font-size="14" lengthAdjust="spacing" textLength="166" x="1413" y="65.1426">IOperationTypeRepository</text><rect fill="#E2E2F0" height="31.6094" rx="2.5" ry="2.5" style="stroke:#181818;stroke-width:0.5;" width="180" x="1406" y="579.8438"/><text fill="#000000" font-family="sans-serif" font-size="14" lengthAdjust="spacing" textLength="166" x="1413" y="601.377">IOperationTypeRepository</text><rect fill="#E2E2F0" height="31.6094" rx="2.5" ry="2.5" style="stroke:#181818;stroke-width:0.5;" width="185" x="1596" y="43.6094"/><text fill="#000000" font-family="sans-serif" font-size="14" lengthAdjust="spacing" textLength="171" x="1603" y="65.1426">CreatingOperationTypeDto</text><rect fill="#E2E2F0" height="31.6094" rx="2.5" ry="2.5" style="stroke:#181818;stroke-width:0.5;" width="185" x="1596" y="579.8438"/><text fill="#000000" font-family="sans-serif" font-size="14" lengthAdjust="spacing" textLength="171" x="1603" y="601.377">CreatingOperationTypeDto</text><rect fill="#FFFFFF" height="437.9219" style="stroke:#181818;stroke-width:1.0;" width="10" x="328" y="124.9219"/><rect fill="#FFFFFF" height="377.2188" style="stroke:#181818;stroke-width:1.0;" width="10" x="501.5" y="155.2734"/><rect fill="#FFFFFF" height="30.3516" style="stroke:#181818;stroke-width:1.0;" width="10" x="1149.5" y="350.3828"/><rect fill="#FFFFFF" height="91.0547" style="stroke:#181818;stroke-width:1.0;" width="10" x="1302.5" y="228.9766"/><rect fill="#FFFFFF" height="91.0547" style="stroke:#181818;stroke-width:1.0;" width="10" x="1302.5" y="411.0859"/><rect fill="#FFFFFF" height="30.3516" style="stroke:#181818;stroke-width:1.0;" width="10" x="1491" y="259.3281"/><rect fill="#FFFFFF" height="30.3516" style="stroke:#181818;stroke-width:1.0;" width="10" x="1491" y="441.4375"/><polygon fill="#181818" points="316,120.9219,326,124.9219,316,128.9219,320,124.9219" style="stroke:#181818;stroke-width:1.0;"/><line style="stroke:#181818;stroke-width:1.0;" x1="0" x2="322" y1="124.9219" y2="124.9219"/><text fill="#000000" font-family="sans-serif" font-size="13" lengthAdjust="spacing" textLength="142" x="7" y="103.7139">POST /api/operationtype</text><text fill="#000000" font-family="sans-serif" font-size="13" lengthAdjust="spacing" textLength="305" x="11" y="120.0654">Body: {name, staffBySpecialization, phasesDuration}</text><polygon fill="#181818" points="489.5,151.2734,499.5,155.2734,489.5,159.2734,493.5,155.2734" style="stroke:#181818;stroke-width:1.0;"/><line style="stroke:#181818;stroke-width:1.0;" x1="338" x2="495.5" y1="155.2734" y2="155.2734"/><text fill="#000000" font-family="sans-serif" font-size="13" lengthAdjust="spacing" textLength="86" x="345" y="150.417">AddAsync(dto)</text><line style="stroke:#181818;stroke-width:1.0;" x1="511.5" x2="553.5" y1="185.625" y2="185.625"/><line style="stroke:#181818;stroke-width:1.0;" x1="553.5" x2="553.5" y1="185.625" y2="198.625"/><line style="stroke:#181818;stroke-width:1.0;" x1="512.5" x2="553.5" y1="198.625" y2="198.625"/><polygon fill="#181818" points="522.5,194.625,512.5,198.625,522.5,202.625,518.5,198.625" style="stroke:#181818;stroke-width:1.0;"/><text fill="#000000" font-family="sans-serif" font-size="13" lengthAdjust="spacing" textLength="205" x="518.5" y="180.7686">ValidateOperationTypeName(name)</text><polygon fill="#181818" points="1290.5,224.9766,1300.5,228.9766,1290.5,232.9766,1294.5,228.9766" style="stroke:#181818;stroke-width:1.0;"/><line style="stroke:#181818;stroke-width:1.0;" x1="511.5" x2="1296.5" y1="228.9766" y2="228.9766"/><text fill="#000000" font-family="sans-serif" font-size="13" lengthAdjust="spacing" textLength="148" x="518.5" y="224.1201">GetByNameAsync(name)</text><polygon fill="#181818" points="1479,255.3281,1489,259.3281,1479,263.3281,1483,259.3281" style="stroke:#181818;stroke-width:1.0;"/><line style="stroke:#181818;stroke-width:1.0;" x1="1312.5" x2="1485" y1="259.3281" y2="259.3281"/><text fill="#000000" font-family="sans-serif" font-size="13" lengthAdjust="spacing" textLength="148" x="1319.5" y="254.4717">GetByNameAsync(name)</text><polygon fill="#181818" points="1323.5,285.6797,1313.5,289.6797,1323.5,293.6797,1319.5,289.6797" style="stroke:#181818;stroke-width:1.0;"/><line style="stroke:#181818;stroke-width:1.0;stroke-dasharray:2.0,2.0;" x1="1317.5" x2="1495" y1="289.6797" y2="289.6797"/><text fill="#000000" font-family="sans-serif" font-size="13" lengthAdjust="spacing" textLength="20" x="1329.5" y="284.8232">null</text><polygon fill="#181818" points="522.5,316.0313,512.5,320.0313,522.5,324.0313,518.5,320.0313" style="stroke:#181818;stroke-width:1.0;"/><line style="stroke:#181818;stroke-width:1.0;stroke-dasharray:2.0,2.0;" x1="516.5" x2="1306.5" y1="320.0313" y2="320.0313"/><text fill="#000000" font-family="sans-serif" font-size="13" lengthAdjust="spacing" textLength="20" x="528.5" y="315.1748">null</text><polygon fill="#181818" points="1137.5,346.3828,1147.5,350.3828,1137.5,354.3828,1141.5,350.3828" style="stroke:#181818;stroke-width:1.0;"/><line style="stroke:#181818;stroke-width:1.0;" x1="511.5" x2="1143.5" y1="350.3828" y2="350.3828"/><text fill="#000000" font-family="sans-serif" font-size="13" lengthAdjust="spacing" textLength="619" x="518.5" y="345.5264">new OperationType(dto.getName(), dto.getSpecialization(), dto.getRequiredStaff(), dto.getPhasesDuration())</text><polygon fill="#181818" points="522.5,376.7344,512.5,380.7344,522.5,384.7344,518.5,380.7344" style="stroke:#181818;stroke-width:1.0;"/><line style="stroke:#181818;stroke-width:1.0;stroke-dasharray:2.0,2.0;" x1="516.5" x2="1153.5" y1="380.7344" y2="380.7344"/><text fill="#000000" font-family="sans-serif" font-size="13" lengthAdjust="spacing" textLength="81" x="528.5" y="375.8779">operationType</text><polygon fill="#181818" points="1290.5,407.0859,1300.5,411.0859,1290.5,415.0859,1294.5,411.0859" style="stroke:#181818;stroke-width:1.0;"/><line style="stroke:#181818;stroke-width:1.0;" x1="511.5" x2="1296.5" y1="411.0859" y2="411.0859"/><text fill="#000000" font-family="sans-serif" font-size="13" lengthAdjust="spacing" textLength="86" x="518.5" y="406.2295">AddAsync(dto)</text><polygon fill="#181818" points="1479,437.4375,1489,441.4375,1479,445.4375,1483,441.4375" style="stroke:#181818;stroke-width:1.0;"/><line style="stroke:#181818;stroke-width:1.0;" x1="1312.5" x2="1485" y1="441.4375" y2="441.4375"/><text fill="#000000" font-family="sans-serif" font-size="13" lengthAdjust="spacing" textLength="149" x="1319.5" y="436.5811">AddAsync(operationType)</text><polygon fill="#181818" points="1323.5,467.7891,1313.5,471.7891,1323.5,475.7891,1319.5,471.7891" style="stroke:#181818;stroke-width:1.0;"/><line style="stroke:#181818;stroke-width:1.0;stroke-dasharray:2.0,2.0;" x1="1317.5" x2="1495" y1="471.7891" y2="471.7891"/><text fill="#000000" font-family="sans-serif" font-size="13" lengthAdjust="spacing" textLength="18" x="1329.5" y="466.9326">dto</text><polygon fill="#181818" points="522.5,498.1406,512.5,502.1406,522.5,506.1406,518.5,502.1406" style="stroke:#181818;stroke-width:1.0;"/><line style="stroke:#181818;stroke-width:1.0;stroke-dasharray:2.0,2.0;" x1="516.5" x2="1306.5" y1="502.1406" y2="502.1406"/><text fill="#000000" font-family="sans-serif" font-size="13" lengthAdjust="spacing" textLength="18" x="528.5" y="497.2842">dto</text><polygon fill="#181818" points="349,528.4922,339,532.4922,349,536.4922,345,532.4922" style="stroke:#181818;stroke-width:1.0;"/><line style="stroke:#181818;stroke-width:1.0;stroke-dasharray:2.0,2.0;" x1="343" x2="505.5" y1="532.4922" y2="532.4922"/><text fill="#000000" font-family="sans-serif" font-size="13" lengthAdjust="spacing" textLength="18" x="355" y="527.6357">dto</text><polygon fill="#181818" points="11,558.8438,1,562.8438,11,566.8438,7,562.8438" style="stroke:#181818;stroke-width:1.0;"/><line style="stroke:#181818;stroke-width:1.0;stroke-dasharray:2.0,2.0;" x1="5" x2="332" y1="562.8438" y2="562.8438"/><text fill="#000000" font-family="sans-serif" font-size="13" lengthAdjust="spacing" textLength="18" x="17" y="557.9873">dto</text><!--SRC=[hLGzRzim4DtrAmwPBC1kWev6KS2sWC9B4aHffouiTLQ8q2H3dXCeHVzxIKcHI4CHYYAST7VlFTwNw1w5Cioo8nZ67rcD9JKImI8dfcg9cHi0xe5L-aMe6WvCkZWYXK9g38BHiWb65EEIERSXikBNYN3FjIh5Ay9Lbf4WVrE9JoTK7A4Gh0w4HLdai8BlkwlF7kH5I71Xc2Auk35e6GcjxlrbEwt8QYdHNW1pC9epd1Bji-3O4lhl6NGBA_IH2JM3kaEZdI1jcnO_cYbdFqVQ1pl5xonwjAeJMa6wIufqbgs-HaMluVQcl8TBPiIbVgEqC_cfOAkhPWs_5JlY4Xonms7Rb0QvO5AyjiWbc0Vcq1MdZladonWdySm8uyvcuCzeWq-XR-CQDbMrSOtYYufqtY47YRTUjzvmUaSYyCDdKtbqKl6rptaH4iydoMCVr_0DQTi4V9V66Md89HhG40ndz0VXTYBlQCQin1ZkwEQPnC9ftR0workTf4on5SufnOd6_Kjr8esfYgCUTXlk-VW2IU_393_LIEqCyYNqPhevKU3E_yh2ObM63OlyjybgBVAfgVI_ML9evqkBr762azMUAxspBHFh-lzhCeWbwUNP1sn7HVeZbYEH-TVTE7jX1es8d_pPNrQh-7Ne6H4wUah-0W00]--></g></svg>