<?xml version="1.0" encoding="us-ascii" standalone="no"?><svg xmlns="http://www.w3.org/2000/svg" xmlns:xlink="http://www.w3.org/1999/xlink" contentStyleType="text/css" height="1010px" preserveAspectRatio="none" style="width:1583px;height:1010px;background:#FFFFFF;" version="1.1" viewBox="0 0 1583 1010" width="1583px" zoomAndPan="magnify"><defs/><g><text fill="#000000" font-family="sans-serif" font-size="14" font-weight="bold" lengthAdjust="spacing" textLength="190" x="689.5945" y="24.5332">Class Diagram (CD) - UC020</text><!--class OperationTypeController--><g id="elem_OperationTypeController"><rect codeLine="12" fill="#F1F1F1" height="83.2188" id="OperationTypeController" rx="2.5" ry="2.5" style="stroke:#181818;stroke-width:0.5;" width="539" x="51.6889" y="45.6094"/><ellipse cx="238.4389" cy="61.6094" fill="#ADD1B2" rx="11" ry="11" style="stroke:#181818;stroke-width:1.0;"/><path d="M241.2046,57.4844 Q241.3608,57.2656 241.5483,57.1563 Q241.7358,57.0469 241.9546,57.0469 Q242.3296,57.0469 242.5639,57.3125 Q242.7983,57.5625 242.7983,58.1719 L242.7983,59.625 Q242.7983,60.2344 242.5639,60.5 Q242.3296,60.7656 241.9546,60.7656 Q241.6108,60.7656 241.4077,60.5625 Q241.2046,60.375 241.0952,59.8594 Q241.0483,59.5 240.8608,59.3125 Q240.5327,58.9375 239.9233,58.7188 Q239.3139,58.5 238.6889,58.5 Q237.9233,58.5 237.2827,58.8281 Q236.6577,59.1563 236.1577,59.9063 Q235.6733,60.6563 235.6733,61.6875 L235.6733,62.7813 Q235.6733,64.0156 236.5639,64.8438 Q237.4546,65.6563 239.0483,65.6563 Q239.9858,65.6563 240.6421,65.4063 Q241.0327,65.25 241.4546,64.8125 Q241.7202,64.5469 241.8608,64.4688 Q242.0171,64.3906 242.2202,64.3906 Q242.5483,64.3906 242.7983,64.6563 Q243.0639,64.9063 243.0639,65.25 Q243.0639,65.5938 242.7202,66 Q242.2202,66.5781 241.4233,66.9063 Q240.3452,67.3594 239.0483,67.3594 Q237.5327,67.3594 236.3296,66.7344 Q235.3452,66.2344 234.6577,65.1719 Q233.9702,64.0938 233.9702,62.8125 L233.9702,61.6563 Q233.9702,60.3281 234.5796,59.1875 Q235.2046,58.0313 236.2983,57.4219 Q237.3921,56.7969 238.6264,56.7969 Q239.3608,56.7969 240.0014,56.9688 Q240.6577,57.125 241.2046,57.4844 Z " fill="#000000"/><text fill="#000000" font-family="sans-serif" font-size="14" lengthAdjust="spacing" textLength="157" x="258.9389" y="67.3379">OperationTypeController</text><line style="stroke:#181818;stroke-width:0.5;" x1="52.6889" x2="589.6889" y1="77.6094" y2="77.6094"/><line style="stroke:#181818;stroke-width:0.5;" x1="52.6889" x2="589.6889" y1="85.6094" y2="85.6094"/><text fill="#000000" font-family="sans-serif" font-size="14" lengthAdjust="spacing" textLength="439" x="57.6889" y="104.1426">+GetByName(name: Name): Task&lt;ActionResult&lt;OperationTypeDto&gt;&gt;</text><text fill="#000000" font-family="sans-serif" font-size="14" lengthAdjust="spacing" textLength="527" x="57.6889" y="121.752">+Create(dto: CreatingOperationTypeDto): Task&lt;ActionResult&lt;OperationTypeDto&gt;&gt;</text></g><!--class OperationTypeService--><g id="elem_OperationTypeService"><rect codeLine="17" fill="#F1F1F1" height="100.8281" id="OperationTypeService" rx="2.5" ry="2.5" style="stroke:#181818;stroke-width:0.5;" width="464" x="89.1889" y="188.6094"/><ellipse cx="245.9389" cy="204.6094" fill="#ADD1B2" rx="11" ry="11" style="stroke:#181818;stroke-width:1.0;"/><path d="M248.7046,200.4844 Q248.8608,200.2656 249.0483,200.1563 Q249.2358,200.0469 249.4546,200.0469 Q249.8296,200.0469 250.0639,200.3125 Q250.2983,200.5625 250.2983,201.1719 L250.2983,202.625 Q250.2983,203.2344 250.0639,203.5 Q249.8296,203.7656 249.4546,203.7656 Q249.1108,203.7656 248.9077,203.5625 Q248.7046,203.375 248.5952,202.8594 Q248.5483,202.5 248.3608,202.3125 Q248.0327,201.9375 247.4233,201.7188 Q246.8139,201.5 246.1889,201.5 Q245.4233,201.5 244.7827,201.8281 Q244.1577,202.1563 243.6577,202.9063 Q243.1733,203.6563 243.1733,204.6875 L243.1733,205.7813 Q243.1733,207.0156 244.0639,207.8438 Q244.9546,208.6563 246.5483,208.6563 Q247.4858,208.6563 248.1421,208.4063 Q248.5327,208.25 248.9546,207.8125 Q249.2202,207.5469 249.3608,207.4688 Q249.5171,207.3906 249.7202,207.3906 Q250.0483,207.3906 250.2983,207.6563 Q250.5639,207.9063 250.5639,208.25 Q250.5639,208.5938 250.2202,209 Q249.7202,209.5781 248.9233,209.9063 Q247.8452,210.3594 246.5483,210.3594 Q245.0327,210.3594 243.8296,209.7344 Q242.8452,209.2344 242.1577,208.1719 Q241.4702,207.0938 241.4702,205.8125 L241.4702,204.6563 Q241.4702,203.3281 242.0796,202.1875 Q242.7046,201.0313 243.7983,200.4219 Q244.8921,199.7969 246.1264,199.7969 Q246.8608,199.7969 247.5014,199.9688 Q248.1577,200.125 248.7046,200.4844 Z " fill="#000000"/><text fill="#000000" font-family="sans-serif" font-size="14" lengthAdjust="spacing" textLength="142" x="266.4389" y="210.3379">OperationTypeService</text><line style="stroke:#181818;stroke-width:0.5;" x1="90.1889" x2="552.1889" y1="220.6094" y2="220.6094"/><line style="stroke:#181818;stroke-width:0.5;" x1="90.1889" x2="552.1889" y1="228.6094" y2="228.6094"/><text fill="#000000" font-family="sans-serif" font-size="14" lengthAdjust="spacing" textLength="382" x="95.1889" y="247.1426">+GetByNameAsync(name: Name): Task&lt;OperationTypeDto&gt;</text><text fill="#000000" font-family="sans-serif" font-size="14" lengthAdjust="spacing" textLength="361" x="95.1889" y="264.752">+ValidateOperationTypeName(name: Name): Task&lt;bool&gt;</text><text fill="#000000" font-family="sans-serif" font-size="14" lengthAdjust="spacing" textLength="452" x="95.1889" y="282.3613">+AddAsync(dto: CreatingOperationTypeDto): Task&lt;OperationTypeDto&gt;</text></g><!--class OperationTypeRepository--><g id="elem_OperationTypeRepository"><rect codeLine="23" fill="#F1F1F1" height="83.2188" id="OperationTypeRepository" rx="2.5" ry="2.5" style="stroke:#181818;stroke-width:0.5;" width="442" x="730.1889" y="197.6094"/><ellipse cx="865.4389" cy="213.6094" fill="#ADD1B2" rx="11" ry="11" style="stroke:#181818;stroke-width:1.0;"/><path d="M868.2046,209.4844 Q868.3608,209.2656 868.5483,209.1563 Q868.7358,209.0469 868.9546,209.0469 Q869.3296,209.0469 869.5639,209.3125 Q869.7983,209.5625 869.7983,210.1719 L869.7983,211.625 Q869.7983,212.2344 869.5639,212.5 Q869.3296,212.7656 868.9546,212.7656 Q868.6108,212.7656 868.4077,212.5625 Q868.2046,212.375 868.0952,211.8594 Q868.0483,211.5 867.8608,211.3125 Q867.5327,210.9375 866.9233,210.7188 Q866.3139,210.5 865.6889,210.5 Q864.9233,210.5 864.2827,210.8281 Q863.6577,211.1563 863.1577,211.9063 Q862.6733,212.6563 862.6733,213.6875 L862.6733,214.7813 Q862.6733,216.0156 863.5639,216.8438 Q864.4546,217.6563 866.0483,217.6563 Q866.9858,217.6563 867.6421,217.4063 Q868.0327,217.25 868.4546,216.8125 Q868.7202,216.5469 868.8608,216.4688 Q869.0171,216.3906 869.2202,216.3906 Q869.5483,216.3906 869.7983,216.6563 Q870.0639,216.9063 870.0639,217.25 Q870.0639,217.5938 869.7202,218 Q869.2202,218.5781 868.4233,218.9063 Q867.3452,219.3594 866.0483,219.3594 Q864.5327,219.3594 863.3296,218.7344 Q862.3452,218.2344 861.6577,217.1719 Q860.9702,216.0938 860.9702,214.8125 L860.9702,213.6563 Q860.9702,212.3281 861.5796,211.1875 Q862.2046,210.0313 863.2983,209.4219 Q864.3921,208.7969 865.6264,208.7969 Q866.3608,208.7969 867.0014,208.9688 Q867.6577,209.125 868.2046,209.4844 Z " fill="#000000"/><text fill="#000000" font-family="sans-serif" font-size="14" lengthAdjust="spacing" textLength="163" x="885.9389" y="219.3379">OperationTypeRepository</text><line style="stroke:#181818;stroke-width:0.5;" x1="731.1889" x2="1171.1889" y1="229.6094" y2="229.6094"/><line style="stroke:#181818;stroke-width:0.5;" x1="731.1889" x2="1171.1889" y1="237.6094" y2="237.6094"/><text fill="#000000" font-family="sans-serif" font-size="14" lengthAdjust="spacing" textLength="360" x="736.1889" y="256.1426">+GetByNameAsync(name: Name): Task&lt;OperationType&gt;</text><text fill="#000000" font-family="sans-serif" font-size="14" lengthAdjust="spacing" textLength="430" x="736.1889" y="273.752">+AddAsync(dto: CreatingOperationTypeDto): Task&lt;OperationType&gt;</text></g><!--class IOperationTypeRepository--><g id="elem_IOperationTypeRepository"><rect codeLine="28" fill="#F1F1F1" height="83.2188" id="IOperationTypeRepository" rx="2.5" ry="2.5" style="stroke:#181818;stroke-width:0.5;" width="442" x="730.1889" y="349.6094"/><ellipse cx="863.4389" cy="365.6094" fill="#B4A7E5" rx="11" ry="11" style="stroke:#181818;stroke-width:1.0;"/><path d="M864.3921,362.25 L864.3921,368.9063 L866.1108,368.9063 Q866.7202,368.9063 866.9858,369.1406 Q867.2514,369.375 867.2514,369.7656 Q867.2514,370.1406 866.9858,370.375 Q866.7202,370.6094 866.1108,370.6094 L860.9702,370.6094 Q860.3608,370.6094 860.0952,370.375 Q859.8296,370.1406 859.8296,369.75 Q859.8296,369.375 860.0952,369.1406 Q860.3608,368.9063 860.9702,368.9063 L862.6889,368.9063 L862.6889,362.25 L860.9702,362.25 Q860.3608,362.25 860.0952,362.0156 Q859.8296,361.7813 859.8296,361.3906 Q859.8296,361.0156 860.0952,360.7813 Q860.3608,360.5469 860.9702,360.5469 L866.1108,360.5469 Q866.7202,360.5469 866.9858,360.7813 Q867.2514,361.0156 867.2514,361.3906 Q867.2514,361.7813 866.9858,362.0156 Q866.7202,362.25 866.1108,362.25 L864.3921,362.25 Z " fill="#000000"/><text fill="#000000" font-family="sans-serif" font-size="14" font-style="italic" lengthAdjust="spacing" textLength="167" x="883.9389" y="371.3379">IOperationTypeRepository</text><line style="stroke:#181818;stroke-width:0.5;" x1="731.1889" x2="1171.1889" y1="381.6094" y2="381.6094"/><line style="stroke:#181818;stroke-width:0.5;" x1="731.1889" x2="1171.1889" y1="389.6094" y2="389.6094"/><text fill="#000000" font-family="sans-serif" font-size="14" lengthAdjust="spacing" textLength="360" x="736.1889" y="408.1426">+GetByNameAsync(name: Name): Task&lt;OperationType&gt;</text><text fill="#000000" font-family="sans-serif" font-size="14" lengthAdjust="spacing" textLength="430" x="736.1889" y="425.752">+AddAsync(dto: CreatingOperationTypeDto): Task&lt;OperationType&gt;</text></g><!--class CreatingOperationTypeDto--><g id="elem_CreatingOperationTypeDto"><rect codeLine="33" fill="#F1F1F1" height="259.3125" id="CreatingOperationTypeDto" rx="2.5" ry="2.5" style="stroke:#181818;stroke-width:0.5;" width="393" x="62.6889" y="492.6094"/><ellipse cx="169.4389" cy="508.6094" fill="#ADD1B2" rx="11" ry="11" style="stroke:#181818;stroke-width:1.0;"/><path d="M172.2046,504.4844 Q172.3608,504.2656 172.5483,504.1563 Q172.7358,504.0469 172.9546,504.0469 Q173.3296,504.0469 173.5639,504.3125 Q173.7983,504.5625 173.7983,505.1719 L173.7983,506.625 Q173.7983,507.2344 173.5639,507.5 Q173.3296,507.7656 172.9546,507.7656 Q172.6108,507.7656 172.4077,507.5625 Q172.2046,507.375 172.0952,506.8594 Q172.0483,506.5 171.8608,506.3125 Q171.5327,505.9375 170.9233,505.7188 Q170.3139,505.5 169.6889,505.5 Q168.9233,505.5 168.2827,505.8281 Q167.6577,506.1563 167.1577,506.9063 Q166.6733,507.6563 166.6733,508.6875 L166.6733,509.7813 Q166.6733,511.0156 167.5639,511.8438 Q168.4546,512.6563 170.0483,512.6563 Q170.9858,512.6563 171.6421,512.4063 Q172.0327,512.25 172.4546,511.8125 Q172.7202,511.5469 172.8608,511.4688 Q173.0171,511.3906 173.2202,511.3906 Q173.5483,511.3906 173.7983,511.6563 Q174.0639,511.9063 174.0639,512.25 Q174.0639,512.5938 173.7202,513 Q173.2202,513.5781 172.4233,513.9063 Q171.3452,514.3594 170.0483,514.3594 Q168.5327,514.3594 167.3296,513.7344 Q166.3452,513.2344 165.6577,512.1719 Q164.9702,511.0938 164.9702,509.8125 L164.9702,508.6563 Q164.9702,507.3281 165.5796,506.1875 Q166.2046,505.0313 167.2983,504.4219 Q168.3921,503.7969 169.6264,503.7969 Q170.3608,503.7969 171.0014,503.9688 Q171.6577,504.125 172.2046,504.4844 Z " fill="#000000"/><text fill="#000000" font-family="sans-serif" font-size="14" lengthAdjust="spacing" textLength="171" x="189.9389" y="514.3379">CreatingOperationTypeDto</text><line style="stroke:#181818;stroke-width:0.5;" x1="63.6889" x2="454.6889" y1="524.6094" y2="524.6094"/><text fill="#000000" font-family="sans-serif" font-size="14" lengthAdjust="spacing" textLength="88" x="68.6889" y="543.1426">+Name: Name</text><text fill="#000000" font-family="sans-serif" font-size="14" lengthAdjust="spacing" textLength="188" x="68.6889" y="560.752">+Specialization: Specialization</text><text fill="#000000" font-family="sans-serif" font-size="14" lengthAdjust="spacing" textLength="190" x="68.6889" y="578.3613">+RequiredStaff: RequiredStaff</text><text fill="#000000" font-family="sans-serif" font-size="14" lengthAdjust="spacing" textLength="218" x="68.6889" y="595.9707">+PhasesDuration: PhasesDuration</text><line style="stroke:#181818;stroke-width:0.5;" x1="63.6889" x2="454.6889" y1="603.0469" y2="603.0469"/><text fill="#000000" font-family="sans-serif" font-size="14" lengthAdjust="spacing" textLength="118" x="68.6889" y="621.5801">+getName(): Name</text><text fill="#000000" font-family="sans-serif" font-size="14" lengthAdjust="spacing" textLength="218" x="68.6889" y="639.1895">+getSpecialization(): Specialization</text><text fill="#000000" font-family="sans-serif" font-size="14" lengthAdjust="spacing" textLength="220" x="68.6889" y="656.7988">+getRequiredStaff(): RequiredStaff</text><text fill="#000000" font-family="sans-serif" font-size="14" lengthAdjust="spacing" textLength="248" x="68.6889" y="674.4082">+getPhasesDuration(): PhasesDuration</text><text fill="#000000" font-family="sans-serif" font-size="14" lengthAdjust="spacing" textLength="186" x="68.6889" y="692.0176">+setName(name: Name): void</text><text fill="#000000" font-family="sans-serif" font-size="14" lengthAdjust="spacing" textLength="337" x="68.6889" y="709.627">+setSpecialization(Specialization: Specialization): void</text><text fill="#000000" font-family="sans-serif" font-size="14" lengthAdjust="spacing" textLength="335" x="68.6889" y="727.2363">+setRequiredStaff(requiredStaff: RequiredStaff): void</text><text fill="#000000" font-family="sans-serif" font-size="14" lengthAdjust="spacing" textLength="381" x="68.6889" y="744.8457">+setPhasesDuration(phasesDuration: PhasesDuration): void</text></g><!--class OperationType--><g id="elem_OperationType"><rect codeLine="48" fill="#F1F1F1" height="136.0469" id="OperationType" rx="2.5" ry="2.5" style="stroke:#181818;stroke-width:0.5;" width="230" x="764.1889" y="554.1094"/><ellipse cx="827.4389" cy="570.1094" fill="#ADD1B2" rx="11" ry="11" style="stroke:#181818;stroke-width:1.0;"/><path d="M830.2046,565.9844 Q830.3608,565.7656 830.5483,565.6563 Q830.7358,565.5469 830.9546,565.5469 Q831.3296,565.5469 831.5639,565.8125 Q831.7983,566.0625 831.7983,566.6719 L831.7983,568.125 Q831.7983,568.7344 831.5639,569 Q831.3296,569.2656 830.9546,569.2656 Q830.6108,569.2656 830.4077,569.0625 Q830.2046,568.875 830.0952,568.3594 Q830.0483,568 829.8608,567.8125 Q829.5327,567.4375 828.9233,567.2188 Q828.3139,567 827.6889,567 Q826.9233,567 826.2827,567.3281 Q825.6577,567.6563 825.1577,568.4063 Q824.6733,569.1563 824.6733,570.1875 L824.6733,571.2813 Q824.6733,572.5156 825.5639,573.3438 Q826.4546,574.1563 828.0483,574.1563 Q828.9858,574.1563 829.6421,573.9063 Q830.0327,573.75 830.4546,573.3125 Q830.7202,573.0469 830.8608,572.9688 Q831.0171,572.8906 831.2202,572.8906 Q831.5483,572.8906 831.7983,573.1563 Q832.0639,573.4063 832.0639,573.75 Q832.0639,574.0938 831.7202,574.5 Q831.2202,575.0781 830.4233,575.4063 Q829.3452,575.8594 828.0483,575.8594 Q826.5327,575.8594 825.3296,575.2344 Q824.3452,574.7344 823.6577,573.6719 Q822.9702,572.5938 822.9702,571.3125 L822.9702,570.1563 Q822.9702,568.8281 823.5796,567.6875 Q824.2046,566.5313 825.2983,565.9219 Q826.3921,565.2969 827.6264,565.2969 Q828.3608,565.2969 829.0014,565.4688 Q829.6577,565.625 830.2046,565.9844 Z " fill="#000000"/><text fill="#000000" font-family="sans-serif" font-size="14" lengthAdjust="spacing" textLength="95" x="847.9389" y="575.8379">OperationType</text><line style="stroke:#181818;stroke-width:0.5;" x1="765.1889" x2="993.1889" y1="586.1094" y2="586.1094"/><text fill="#000000" font-family="sans-serif" font-size="14" lengthAdjust="spacing" textLength="135" x="770.1889" y="604.6426">+Id: OperationTypeID</text><text fill="#000000" font-family="sans-serif" font-size="14" lengthAdjust="spacing" textLength="88" x="770.1889" y="622.252">+Name: Name</text><text fill="#000000" font-family="sans-serif" font-size="14" lengthAdjust="spacing" textLength="188" x="770.1889" y="639.8613">+Specialization: Specialization</text><text fill="#000000" font-family="sans-serif" font-size="14" lengthAdjust="spacing" textLength="190" x="770.1889" y="657.4707">+RequiredStaff: RequiredStaff</text><text fill="#000000" font-family="sans-serif" font-size="14" lengthAdjust="spacing" textLength="218" x="770.1889" y="675.0801">+PhasesDuration: PhasesDuration</text><line style="stroke:#181818;stroke-width:0.5;" x1="765.1889" x2="993.1889" y1="682.1563" y2="682.1563"/></g><!--class OperationTypeDto--><g id="elem_OperationTypeDto"><rect codeLine="56" fill="#F1F1F1" height="136.0469" id="OperationTypeDto" rx="2.5" ry="2.5" style="stroke:#181818;stroke-width:0.5;" width="230" x="491.1889" y="554.1094"/><ellipse cx="543.4389" cy="570.1094" fill="#ADD1B2" rx="11" ry="11" style="stroke:#181818;stroke-width:1.0;"/><path d="M546.2046,565.9844 Q546.3608,565.7656 546.5483,565.6563 Q546.7358,565.5469 546.9546,565.5469 Q547.3296,565.5469 547.5639,565.8125 Q547.7983,566.0625 547.7983,566.6719 L547.7983,568.125 Q547.7983,568.7344 547.5639,569 Q547.3296,569.2656 546.9546,569.2656 Q546.6108,569.2656 546.4077,569.0625 Q546.2046,568.875 546.0952,568.3594 Q546.0483,568 545.8608,567.8125 Q545.5327,567.4375 544.9233,567.2188 Q544.3139,567 543.6889,567 Q542.9233,567 542.2827,567.3281 Q541.6577,567.6563 541.1577,568.4063 Q540.6733,569.1563 540.6733,570.1875 L540.6733,571.2813 Q540.6733,572.5156 541.5639,573.3438 Q542.4546,574.1563 544.0483,574.1563 Q544.9858,574.1563 545.6421,573.9063 Q546.0327,573.75 546.4546,573.3125 Q546.7202,573.0469 546.8608,572.9688 Q547.0171,572.8906 547.2202,572.8906 Q547.5483,572.8906 547.7983,573.1563 Q548.0639,573.4063 548.0639,573.75 Q548.0639,574.0938 547.7202,574.5 Q547.2202,575.0781 546.4233,575.4063 Q545.3452,575.8594 544.0483,575.8594 Q542.5327,575.8594 541.3296,575.2344 Q540.3452,574.7344 539.6577,573.6719 Q538.9702,572.5938 538.9702,571.3125 L538.9702,570.1563 Q538.9702,568.8281 539.5796,567.6875 Q540.2046,566.5313 541.2983,565.9219 Q542.3921,565.2969 543.6264,565.2969 Q544.3608,565.2969 545.0014,565.4688 Q545.6577,565.625 546.2046,565.9844 Z " fill="#000000"/><text fill="#000000" font-family="sans-serif" font-size="14" lengthAdjust="spacing" textLength="117" x="563.9389" y="575.8379">OperationTypeDto</text><line style="stroke:#181818;stroke-width:0.5;" x1="492.1889" x2="720.1889" y1="586.1094" y2="586.1094"/><text fill="#000000" font-family="sans-serif" font-size="14" lengthAdjust="spacing" textLength="135" x="497.1889" y="604.6426">+Id: OperationTypeID</text><text fill="#000000" font-family="sans-serif" font-size="14" lengthAdjust="spacing" textLength="88" x="497.1889" y="622.252">+Name: Name</text><text fill="#000000" font-family="sans-serif" font-size="14" lengthAdjust="spacing" textLength="188" x="497.1889" y="639.8613">+Specialization: Specialization</text><text fill="#000000" font-family="sans-serif" font-size="14" lengthAdjust="spacing" textLength="190" x="497.1889" y="657.4707">+RequiredStaff: RequiredStaff</text><text fill="#000000" font-family="sans-serif" font-size="14" lengthAdjust="spacing" textLength="218" x="497.1889" y="675.0801">+PhasesDuration: PhasesDuration</text><line style="stroke:#181818;stroke-width:0.5;" x1="492.1889" x2="720.1889" y1="682.1563" y2="682.1563"/></g><!--class RequiredStaff--><g id="elem_RequiredStaff"><rect codeLine="64" fill="#F1F1F1" height="65.6094" id="RequiredStaff" rx="2.5" ry="2.5" style="stroke:#181818;stroke-width:0.5;" width="258" x="764.1889" y="811.6094"/><ellipse cx="845.4389" cy="827.6094" fill="#ADD1B2" rx="11" ry="11" style="stroke:#181818;stroke-width:1.0;"/><path d="M848.2046,823.4844 Q848.3608,823.2656 848.5483,823.1563 Q848.7358,823.0469 848.9546,823.0469 Q849.3296,823.0469 849.5639,823.3125 Q849.7983,823.5625 849.7983,824.1719 L849.7983,825.625 Q849.7983,826.2344 849.5639,826.5 Q849.3296,826.7656 848.9546,826.7656 Q848.6108,826.7656 848.4077,826.5625 Q848.2046,826.375 848.0952,825.8594 Q848.0483,825.5 847.8608,825.3125 Q847.5327,824.9375 846.9233,824.7188 Q846.3139,824.5 845.6889,824.5 Q844.9233,824.5 844.2827,824.8281 Q843.6577,825.1563 843.1577,825.9063 Q842.6733,826.6563 842.6733,827.6875 L842.6733,828.7813 Q842.6733,830.0156 843.5639,830.8438 Q844.4546,831.6563 846.0483,831.6563 Q846.9858,831.6563 847.6421,831.4063 Q848.0327,831.25 848.4546,830.8125 Q848.7202,830.5469 848.8608,830.4688 Q849.0171,830.3906 849.2202,830.3906 Q849.5483,830.3906 849.7983,830.6563 Q850.0639,830.9063 850.0639,831.25 Q850.0639,831.5938 849.7202,832 Q849.2202,832.5781 848.4233,832.9063 Q847.3452,833.3594 846.0483,833.3594 Q844.5327,833.3594 843.3296,832.7344 Q842.3452,832.2344 841.6577,831.1719 Q840.9702,830.0938 840.9702,828.8125 L840.9702,827.6563 Q840.9702,826.3281 841.5796,825.1875 Q842.2046,824.0313 843.2983,823.4219 Q844.3921,822.7969 845.6264,822.7969 Q846.3608,822.7969 847.0014,822.9688 Q847.6577,823.125 848.2046,823.4844 Z " fill="#000000"/><text fill="#000000" font-family="sans-serif" font-size="14" lengthAdjust="spacing" textLength="87" x="865.9389" y="833.3379">RequiredStaff</text><line style="stroke:#181818;stroke-width:0.5;" x1="765.1889" x2="1021.1889" y1="843.6094" y2="843.6094"/><text fill="#000000" font-family="sans-serif" font-size="14" lengthAdjust="spacing" textLength="246" x="770.1889" y="862.1426">-_staff: Dictionary&lt;Role, StaffQuantity&gt;</text><line style="stroke:#181818;stroke-width:0.5;" x1="765.1889" x2="1021.1889" y1="869.2188" y2="869.2188"/></g><g id="elem_GMN10"><path d="M1057.1889,831.6094 L1057.1889,840.6094 L1022.6189,844.6094 L1057.1889,848.6094 L1057.1889,857.9609 A0,0 0 0 0 1057.1889,857.9609 L1401.1889,857.9609 A0,0 0 0 0 1401.1889,857.9609 L1401.1889,841.6094 L1391.1889,831.6094 L1057.1889,831.6094 A0,0 0 0 0 1057.1889,831.6094 " fill="#FEFFDD" style="stroke:#181818;stroke-width:0.5;"/><path d="M1391.1889,831.6094 L1391.1889,841.6094 L1401.1889,841.6094 L1391.1889,831.6094 " fill="#FEFFDD" style="stroke:#181818;stroke-width:0.5;"/><text fill="#000000" font-family="sans-serif" font-size="13" lengthAdjust="spacing" textLength="323" x="1063.1889" y="850.1045">Role can only be a staff role: Doctor, Nurse or Assistant</text></g><!--class StaffQuantity--><g id="elem_StaffQuantity"><rect codeLine="71" fill="#F1F1F1" height="65.6094" id="StaffQuantity" rx="2.5" ry="2.5" style="stroke:#181818;stroke-width:0.5;" width="114" x="1081.1889" y="937.6094"/><ellipse cx="1096.1889" cy="953.6094" fill="#ADD1B2" rx="11" ry="11" style="stroke:#181818;stroke-width:1.0;"/><path d="M1098.9546,949.4844 Q1099.1108,949.2656 1099.2983,949.1563 Q1099.4858,949.0469 1099.7046,949.0469 Q1100.0796,949.0469 1100.3139,949.3125 Q1100.5483,949.5625 1100.5483,950.1719 L1100.5483,951.625 Q1100.5483,952.2344 1100.3139,952.5 Q1100.0796,952.7656 1099.7046,952.7656 Q1099.3608,952.7656 1099.1577,952.5625 Q1098.9546,952.375 1098.8452,951.8594 Q1098.7983,951.5 1098.6108,951.3125 Q1098.2827,950.9375 1097.6733,950.7188 Q1097.0639,950.5 1096.4389,950.5 Q1095.6733,950.5 1095.0327,950.8281 Q1094.4077,951.1563 1093.9077,951.9063 Q1093.4233,952.6563 1093.4233,953.6875 L1093.4233,954.7813 Q1093.4233,956.0156 1094.3139,956.8438 Q1095.2046,957.6563 1096.7983,957.6563 Q1097.7358,957.6563 1098.3921,957.4063 Q1098.7827,957.25 1099.2046,956.8125 Q1099.4702,956.5469 1099.6108,956.4688 Q1099.7671,956.3906 1099.9702,956.3906 Q1100.2983,956.3906 1100.5483,956.6563 Q1100.8139,956.9063 1100.8139,957.25 Q1100.8139,957.5938 1100.4702,958 Q1099.9702,958.5781 1099.1733,958.9063 Q1098.0952,959.3594 1096.7983,959.3594 Q1095.2827,959.3594 1094.0796,958.7344 Q1093.0952,958.2344 1092.4077,957.1719 Q1091.7202,956.0938 1091.7202,954.8125 L1091.7202,953.6563 Q1091.7202,952.3281 1092.3296,951.1875 Q1092.9546,950.0313 1094.0483,949.4219 Q1095.1421,948.7969 1096.3764,948.7969 Q1097.1108,948.7969 1097.7514,948.9688 Q1098.4077,949.125 1098.9546,949.4844 Z " fill="#000000"/><text fill="#000000" font-family="sans-serif" font-size="14" lengthAdjust="spacing" textLength="82" x="1110.1889" y="959.3379">StaffQuantity</text><line style="stroke:#181818;stroke-width:0.5;" x1="1082.1889" x2="1194.1889" y1="969.6094" y2="969.6094"/><text fill="#000000" font-family="sans-serif" font-size="14" lengthAdjust="spacing" textLength="84" x="1087.1889" y="988.1426">+Quantity: int</text><line style="stroke:#181818;stroke-width:0.5;" x1="1082.1889" x2="1194.1889" y1="995.2188" y2="995.2188"/></g><g id="elem_GMN14"><path d="M1230.6889,957.6094 L1230.6889,966.6094 L1195.3789,970.6094 L1230.6889,974.6094 L1230.6889,983.9609 A0,0 0 0 0 1230.6889,983.9609 L1435.6889,983.9609 A0,0 0 0 0 1435.6889,983.9609 L1435.6889,967.6094 L1425.6889,957.6094 L1230.6889,957.6094 A0,0 0 0 0 1230.6889,957.6094 " fill="#FEFFDD" style="stroke:#181818;stroke-width:0.5;"/><path d="M1425.6889,957.6094 L1425.6889,967.6094 L1435.6889,967.6094 L1425.6889,957.6094 " fill="#FEFFDD" style="stroke:#181818;stroke-width:0.5;"/><text fill="#000000" font-family="sans-serif" font-size="13" lengthAdjust="spacing" textLength="184" x="1236.6889" y="976.1045">Quantity must be greater than 0</text></g><!--class Specialization--><g id="elem_Specialization"><rect codeLine="78" fill="#F1F1F1" height="65.6094" id="Specialization" rx="2.5" ry="2.5" style="stroke:#181818;stroke-width:0.5;" width="178" x="256.1889" y="811.6094"/><ellipse cx="298.1889" cy="827.6094" fill="#ADD1B2" rx="11" ry="11" style="stroke:#181818;stroke-width:1.0;"/><path d="M300.9546,823.4844 Q301.1108,823.2656 301.2983,823.1563 Q301.4858,823.0469 301.7046,823.0469 Q302.0796,823.0469 302.3139,823.3125 Q302.5483,823.5625 302.5483,824.1719 L302.5483,825.625 Q302.5483,826.2344 302.3139,826.5 Q302.0796,826.7656 301.7046,826.7656 Q301.3608,826.7656 301.1577,826.5625 Q300.9546,826.375 300.8452,825.8594 Q300.7983,825.5 300.6108,825.3125 Q300.2827,824.9375 299.6733,824.7188 Q299.0639,824.5 298.4389,824.5 Q297.6733,824.5 297.0327,824.8281 Q296.4077,825.1563 295.9077,825.9063 Q295.4233,826.6563 295.4233,827.6875 L295.4233,828.7813 Q295.4233,830.0156 296.3139,830.8438 Q297.2046,831.6563 298.7983,831.6563 Q299.7358,831.6563 300.3921,831.4063 Q300.7827,831.25 301.2046,830.8125 Q301.4702,830.5469 301.6108,830.4688 Q301.7671,830.3906 301.9702,830.3906 Q302.2983,830.3906 302.5483,830.6563 Q302.8139,830.9063 302.8139,831.25 Q302.8139,831.5938 302.4702,832 Q301.9702,832.5781 301.1733,832.9063 Q300.0952,833.3594 298.7983,833.3594 Q297.2827,833.3594 296.0796,832.7344 Q295.0952,832.2344 294.4077,831.1719 Q293.7202,830.0938 293.7202,828.8125 L293.7202,827.6563 Q293.7202,826.3281 294.3296,825.1875 Q294.9546,824.0313 296.0483,823.4219 Q297.1421,822.7969 298.3764,822.7969 Q299.1108,822.7969 299.7514,822.9688 Q300.4077,823.125 300.9546,823.4844 Z " fill="#000000"/><text fill="#000000" font-family="sans-serif" font-size="14" lengthAdjust="spacing" textLength="86" x="318.1889" y="833.3379">Specialization</text><line style="stroke:#181818;stroke-width:0.5;" x1="257.1889" x2="433.1889" y1="843.6094" y2="843.6094"/><text fill="#000000" font-family="sans-serif" font-size="14" lengthAdjust="spacing" textLength="166" x="262.1889" y="862.1426">+Designation: Designation</text><line style="stroke:#181818;stroke-width:0.5;" x1="257.1889" x2="433.1889" y1="869.2188" y2="869.2188"/></g><!--class PhasesDuration--><g id="elem_PhasesDuration"><rect codeLine="82" fill="#F1F1F1" height="65.6094" id="PhasesDuration" rx="2.5" ry="2.5" style="stroke:#181818;stroke-width:0.5;" width="260" x="469.1889" y="811.6094"/><ellipse cx="544.4389" cy="827.6094" fill="#ADD1B2" rx="11" ry="11" style="stroke:#181818;stroke-width:1.0;"/><path d="M547.2046,823.4844 Q547.3608,823.2656 547.5483,823.1563 Q547.7358,823.0469 547.9546,823.0469 Q548.3296,823.0469 548.5639,823.3125 Q548.7983,823.5625 548.7983,824.1719 L548.7983,825.625 Q548.7983,826.2344 548.5639,826.5 Q548.3296,826.7656 547.9546,826.7656 Q547.6108,826.7656 547.4077,826.5625 Q547.2046,826.375 547.0952,825.8594 Q547.0483,825.5 546.8608,825.3125 Q546.5327,824.9375 545.9233,824.7188 Q545.3139,824.5 544.6889,824.5 Q543.9233,824.5 543.2827,824.8281 Q542.6577,825.1563 542.1577,825.9063 Q541.6733,826.6563 541.6733,827.6875 L541.6733,828.7813 Q541.6733,830.0156 542.5639,830.8438 Q543.4546,831.6563 545.0483,831.6563 Q545.9858,831.6563 546.6421,831.4063 Q547.0327,831.25 547.4546,830.8125 Q547.7202,830.5469 547.8608,830.4688 Q548.0171,830.3906 548.2202,830.3906 Q548.5483,830.3906 548.7983,830.6563 Q549.0639,830.9063 549.0639,831.25 Q549.0639,831.5938 548.7202,832 Q548.2202,832.5781 547.4233,832.9063 Q546.3452,833.3594 545.0483,833.3594 Q543.5327,833.3594 542.3296,832.7344 Q541.3452,832.2344 540.6577,831.1719 Q539.9702,830.0938 539.9702,828.8125 L539.9702,827.6563 Q539.9702,826.3281 540.5796,825.1875 Q541.2046,824.0313 542.2983,823.4219 Q543.3921,822.7969 544.6264,822.7969 Q545.3608,822.7969 546.0014,822.9688 Q546.6577,823.125 547.2046,823.4844 Z " fill="#000000"/><text fill="#000000" font-family="sans-serif" font-size="14" lengthAdjust="spacing" textLength="101" x="564.9389" y="833.3379">PhasesDuration</text><line style="stroke:#181818;stroke-width:0.5;" x1="470.1889" x2="728.1889" y1="843.6094" y2="843.6094"/><text fill="#000000" font-family="sans-serif" font-size="14" lengthAdjust="spacing" textLength="248" x="475.1889" y="862.1426">-_phases: Dictionary&lt;Phase, Duration&gt;</text><line style="stroke:#181818;stroke-width:0.5;" x1="470.1889" x2="728.1889" y1="869.2188" y2="869.2188"/></g><!--class Phase--><g id="elem_Phase"><rect codeLine="86" fill="#F1F1F1" height="65.6094" id="Phase" rx="2.5" ry="2.5" style="stroke:#181818;stroke-width:0.5;" width="260" x="270.1889" y="937.6094"/><ellipse cx="375.9389" cy="953.6094" fill="#EB937F" rx="11" ry="11" style="stroke:#181818;stroke-width:1.0;"/><path d="M374.7983,954.4063 L374.7983,956.9063 L379.1264,956.9063 L379.1264,955.9844 Q379.1264,955.375 379.3608,955.1094 Q379.6108,954.8438 379.9858,954.8438 Q380.3608,954.8438 380.5952,955.1094 Q380.8296,955.375 380.8296,955.9844 L380.8296,958.6094 L372.8296,958.6094 Q372.2046,958.6094 371.9389,958.375 Q371.6889,958.1406 371.6889,957.75 Q371.6889,957.375 371.9546,957.1406 Q372.2202,956.9063 372.8296,956.9063 L373.0952,956.9063 L373.0952,950.25 L372.8296,950.25 Q372.2046,950.25 371.9389,950.0156 Q371.6889,949.7813 371.6889,949.3906 Q371.6889,949.0156 371.9389,948.7813 Q372.2046,948.5469 372.8296,948.5469 L380.4546,948.5469 L380.4546,951.1406 Q380.4546,951.75 380.2202,952.0156 Q380.0014,952.2656 379.6108,952.2656 Q379.2358,952.2656 379.0014,952.0156 Q378.7671,951.75 378.7671,951.1406 L378.7671,950.25 L374.7983,950.25 L374.7983,952.7031 L376.2827,952.7031 Q376.2827,952.0469 376.4077,951.8594 Q376.6733,951.4531 377.1421,951.4531 Q377.5171,951.4531 377.7514,951.7188 Q377.9858,951.9688 377.9858,952.5781 L377.9858,954.5469 Q377.9858,955.0938 377.8608,955.2813 Q377.5952,955.6719 377.1421,955.6719 Q376.6733,955.6719 376.4077,955.2656 Q376.2827,955.0781 376.2827,954.4063 L374.7983,954.4063 Z " fill="#000000"/><text fill="#000000" font-family="sans-serif" font-size="14" lengthAdjust="spacing" textLength="40" x="396.4389" y="959.3379">Phase</text><line style="stroke:#181818;stroke-width:0.5;" x1="271.1889" x2="529.1889" y1="969.6094" y2="969.6094"/><text fill="#000000" font-family="sans-serif" font-size="14" lengthAdjust="spacing" textLength="248" x="276.1889" y="988.1426">PREPARATION, SURGERY, CLEANING</text><line style="stroke:#181818;stroke-width:0.5;" x1="271.1889" x2="529.1889" y1="995.2188" y2="995.2188"/></g><!--class Duration--><g id="elem_Duration"><rect codeLine="90" fill="#F1F1F1" height="65.6094" id="Duration" rx="2.5" ry="2.5" style="stroke:#181818;stroke-width:0.5;" width="92" x="565.1889" y="937.6094"/><ellipse cx="582.8889" cy="953.6094" fill="#ADD1B2" rx="11" ry="11" style="stroke:#181818;stroke-width:1.0;"/><path d="M585.6546,949.4844 Q585.8108,949.2656 585.9983,949.1563 Q586.1858,949.0469 586.4046,949.0469 Q586.7796,949.0469 587.0139,949.3125 Q587.2483,949.5625 587.2483,950.1719 L587.2483,951.625 Q587.2483,952.2344 587.0139,952.5 Q586.7796,952.7656 586.4046,952.7656 Q586.0608,952.7656 585.8577,952.5625 Q585.6546,952.375 585.5452,951.8594 Q585.4983,951.5 585.3108,951.3125 Q584.9827,950.9375 584.3733,950.7188 Q583.7639,950.5 583.1389,950.5 Q582.3733,950.5 581.7327,950.8281 Q581.1077,951.1563 580.6077,951.9063 Q580.1233,952.6563 580.1233,953.6875 L580.1233,954.7813 Q580.1233,956.0156 581.0139,956.8438 Q581.9046,957.6563 583.4983,957.6563 Q584.4358,957.6563 585.0921,957.4063 Q585.4827,957.25 585.9046,956.8125 Q586.1702,956.5469 586.3108,956.4688 Q586.4671,956.3906 586.6702,956.3906 Q586.9983,956.3906 587.2483,956.6563 Q587.5139,956.9063 587.5139,957.25 Q587.5139,957.5938 587.1702,958 Q586.6702,958.5781 585.8733,958.9063 Q584.7952,959.3594 583.4983,959.3594 Q581.9827,959.3594 580.7796,958.7344 Q579.7952,958.2344 579.1077,957.1719 Q578.4202,956.0938 578.4202,954.8125 L578.4202,953.6563 Q578.4202,952.3281 579.0296,951.1875 Q579.6546,950.0313 580.7483,949.4219 Q581.8421,948.7969 583.0764,948.7969 Q583.8108,948.7969 584.4514,948.9688 Q585.1077,949.125 585.6546,949.4844 Z " fill="#000000"/><text fill="#000000" font-family="sans-serif" font-size="14" lengthAdjust="spacing" textLength="54" x="597.4889" y="959.3379">Duration</text><line style="stroke:#181818;stroke-width:0.5;" x1="566.1889" x2="656.1889" y1="969.6094" y2="969.6094"/><text fill="#000000" font-family="sans-serif" font-size="14" lengthAdjust="spacing" textLength="80" x="571.1889" y="988.1426">+Minutes: int</text><line style="stroke:#181818;stroke-width:0.5;" x1="566.1889" x2="656.1889" y1="995.2188" y2="995.2188"/></g><!--class Name--><g id="elem_Name"><rect codeLine="94" fill="#F1F1F1" height="65.6094" id="Name" rx="2.5" ry="2.5" style="stroke:#181818;stroke-width:0.5;" width="99" x="121.6889" y="811.6094"/><ellipse cx="150.6389" cy="827.6094" fill="#ADD1B2" rx="11" ry="11" style="stroke:#181818;stroke-width:1.0;"/><path d="M153.4046,823.4844 Q153.5608,823.2656 153.7483,823.1563 Q153.9358,823.0469 154.1546,823.0469 Q154.5296,823.0469 154.7639,823.3125 Q154.9983,823.5625 154.9983,824.1719 L154.9983,825.625 Q154.9983,826.2344 154.7639,826.5 Q154.5296,826.7656 154.1546,826.7656 Q153.8108,826.7656 153.6077,826.5625 Q153.4046,826.375 153.2952,825.8594 Q153.2483,825.5 153.0608,825.3125 Q152.7327,824.9375 152.1233,824.7188 Q151.5139,824.5 150.8889,824.5 Q150.1233,824.5 149.4827,824.8281 Q148.8577,825.1563 148.3577,825.9063 Q147.8733,826.6563 147.8733,827.6875 L147.8733,828.7813 Q147.8733,830.0156 148.7639,830.8438 Q149.6546,831.6563 151.2483,831.6563 Q152.1858,831.6563 152.8421,831.4063 Q153.2327,831.25 153.6546,830.8125 Q153.9202,830.5469 154.0608,830.4688 Q154.2171,830.3906 154.4202,830.3906 Q154.7483,830.3906 154.9983,830.6563 Q155.2639,830.9063 155.2639,831.25 Q155.2639,831.5938 154.9202,832 Q154.4202,832.5781 153.6233,832.9063 Q152.5452,833.3594 151.2483,833.3594 Q149.7327,833.3594 148.5296,832.7344 Q147.5452,832.2344 146.8577,831.1719 Q146.1702,830.0938 146.1702,828.8125 L146.1702,827.6563 Q146.1702,826.3281 146.7796,825.1875 Q147.4046,824.0313 148.4983,823.4219 Q149.5921,822.7969 150.8264,822.7969 Q151.5608,822.7969 152.2014,822.9688 Q152.8577,823.125 153.4046,823.4844 Z " fill="#000000"/><text fill="#000000" font-family="sans-serif" font-size="14" lengthAdjust="spacing" textLength="36" x="167.7389" y="833.3379">Name</text><line style="stroke:#181818;stroke-width:0.5;" x1="122.6889" x2="219.6889" y1="843.6094" y2="843.6094"/><text fill="#000000" font-family="sans-serif" font-size="14" lengthAdjust="spacing" textLength="87" x="127.6889" y="862.1426">+Name: string</text><line style="stroke:#181818;stroke-width:0.5;" x1="122.6889" x2="219.6889" y1="869.2188" y2="869.2188"/></g><!--class OperationTypeID--><g id="elem_OperationTypeID"><rect codeLine="98" fill="#F1F1F1" height="65.6094" id="OperationTypeID" rx="2.5" ry="2.5" style="stroke:#181818;stroke-width:0.5;" width="140" x="1436.1889" y="811.6094"/><ellipse cx="1451.1889" cy="827.6094" fill="#ADD1B2" rx="11" ry="11" style="stroke:#181818;stroke-width:1.0;"/><path d="M1453.9546,823.4844 Q1454.1108,823.2656 1454.2983,823.1563 Q1454.4858,823.0469 1454.7046,823.0469 Q1455.0796,823.0469 1455.3139,823.3125 Q1455.5483,823.5625 1455.5483,824.1719 L1455.5483,825.625 Q1455.5483,826.2344 1455.3139,826.5 Q1455.0796,826.7656 1454.7046,826.7656 Q1454.3608,826.7656 1454.1577,826.5625 Q1453.9546,826.375 1453.8452,825.8594 Q1453.7983,825.5 1453.6108,825.3125 Q1453.2827,824.9375 1452.6733,824.7188 Q1452.0639,824.5 1451.4389,824.5 Q1450.6733,824.5 1450.0327,824.8281 Q1449.4077,825.1563 1448.9077,825.9063 Q1448.4233,826.6563 1448.4233,827.6875 L1448.4233,828.7813 Q1448.4233,830.0156 1449.3139,830.8438 Q1450.2046,831.6563 1451.7983,831.6563 Q1452.7358,831.6563 1453.3921,831.4063 Q1453.7827,831.25 1454.2046,830.8125 Q1454.4702,830.5469 1454.6108,830.4688 Q1454.7671,830.3906 1454.9702,830.3906 Q1455.2983,830.3906 1455.5483,830.6563 Q1455.8139,830.9063 1455.8139,831.25 Q1455.8139,831.5938 1455.4702,832 Q1454.9702,832.5781 1454.1733,832.9063 Q1453.0952,833.3594 1451.7983,833.3594 Q1450.2827,833.3594 1449.0796,832.7344 Q1448.0952,832.2344 1447.4077,831.1719 Q1446.7202,830.0938 1446.7202,828.8125 L1446.7202,827.6563 Q1446.7202,826.3281 1447.3296,825.1875 Q1447.9546,824.0313 1449.0483,823.4219 Q1450.1421,822.7969 1451.3764,822.7969 Q1452.1108,822.7969 1452.7514,822.9688 Q1453.4077,823.125 1453.9546,823.4844 Z " fill="#000000"/><text fill="#000000" font-family="sans-serif" font-size="14" lengthAdjust="spacing" textLength="108" x="1465.1889" y="833.3379">OperationTypeID</text><line style="stroke:#181818;stroke-width:0.5;" x1="1437.1889" x2="1575.1889" y1="843.6094" y2="843.6094"/><text fill="#000000" font-family="sans-serif" font-size="14" lengthAdjust="spacing" textLength="57" x="1442.1889" y="862.1426">+Id: Guid</text><line style="stroke:#181818;stroke-width:0.5;" x1="1437.1889" x2="1575.1889" y1="869.2188" y2="869.2188"/></g><!--class Role--><g id="elem_Role"><rect codeLine="102" fill="#F1F1F1" height="65.6094" id="Role" rx="2.5" ry="2.5" style="stroke:#181818;stroke-width:0.5;" width="330" x="716.1889" y="937.6094"/><ellipse cx="862.4389" cy="953.6094" fill="#EB937F" rx="11" ry="11" style="stroke:#181818;stroke-width:1.0;"/><path d="M861.2983,954.4063 L861.2983,956.9063 L865.6264,956.9063 L865.6264,955.9844 Q865.6264,955.375 865.8608,955.1094 Q866.1108,954.8438 866.4858,954.8438 Q866.8608,954.8438 867.0952,955.1094 Q867.3296,955.375 867.3296,955.9844 L867.3296,958.6094 L859.3296,958.6094 Q858.7046,958.6094 858.4389,958.375 Q858.1889,958.1406 858.1889,957.75 Q858.1889,957.375 858.4546,957.1406 Q858.7202,956.9063 859.3296,956.9063 L859.5952,956.9063 L859.5952,950.25 L859.3296,950.25 Q858.7046,950.25 858.4389,950.0156 Q858.1889,949.7813 858.1889,949.3906 Q858.1889,949.0156 858.4389,948.7813 Q858.7046,948.5469 859.3296,948.5469 L866.9546,948.5469 L866.9546,951.1406 Q866.9546,951.75 866.7202,952.0156 Q866.5014,952.2656 866.1108,952.2656 Q865.7358,952.2656 865.5014,952.0156 Q865.2671,951.75 865.2671,951.1406 L865.2671,950.25 L861.2983,950.25 L861.2983,952.7031 L862.7827,952.7031 Q862.7827,952.0469 862.9077,951.8594 Q863.1733,951.4531 863.6421,951.4531 Q864.0171,951.4531 864.2514,951.7188 Q864.4858,951.9688 864.4858,952.5781 L864.4858,954.5469 Q864.4858,955.0938 864.3608,955.2813 Q864.0952,955.6719 863.6421,955.6719 Q863.1733,955.6719 862.9077,955.2656 Q862.7827,955.0781 862.7827,954.4063 L861.2983,954.4063 Z " fill="#000000"/><text fill="#000000" font-family="sans-serif" font-size="14" lengthAdjust="spacing" textLength="29" x="882.9389" y="959.3379">Role</text><line style="stroke:#181818;stroke-width:0.5;" x1="717.1889" x2="1045.1889" y1="969.6094" y2="969.6094"/><text fill="#000000" font-family="sans-serif" font-size="14" lengthAdjust="spacing" textLength="318" x="722.1889" y="988.1426">ADMIN, DOCTOR, NURSE, TECHNICIAN, PATIENT</text><line style="stroke:#181818;stroke-width:0.5;" x1="717.1889" x2="1045.1889" y1="995.2188" y2="995.2188"/></g><!--link OperationTypeController to OperationTypeService--><g id="link_OperationTypeController_OperationTypeService"><path codeLine="106" d="M321.1889,128.6394 C321.1889,147.0994 321.1889,162.9994 321.1889,182.4194 " fill="none" id="OperationTypeController-to-OperationTypeService" style="stroke:#181818;stroke-width:1.0;stroke-dasharray:7.0,7.0;"/><polygon fill="#181818" points="321.1889,188.4194,325.1889,179.4194,321.1889,183.4194,317.1889,179.4194,321.1889,188.4194" style="stroke:#181818;stroke-width:1.0;"/><polygon fill="#000000" points="283.1889,154.7052,286.1279,145.6601,280.25,145.6601,283.1889,154.7052" style="stroke:#000000;stroke-width:1.0;"/><text fill="#000000" font-family="sans-serif" font-size="13" lengthAdjust="spacing" textLength="28" x="292.1889" y="155.0245">uses</text></g><!--link OperationTypeController to CreatingOperationTypeDto--><g id="link_OperationTypeController_CreatingOperationTypeDto"><path codeLine="107" d="M75.9389,128.6494 C75.9389,205.7394 75.9389,367.8694 75.9389,486.3794 " fill="none" id="OperationTypeController-to-CreatingOperationTypeDto" style="stroke:#181818;stroke-width:1.0;"/><polygon fill="#181818" points="75.9389,492.3794,79.9389,483.3794,75.9389,487.3794,71.9389,483.3794,75.9389,492.3794" style="stroke:#181818;stroke-width:1.0;"/><polygon fill="#000000" points="18.9389,306.6852,21.8779,297.6401,16,297.6401,18.9389,306.6852" style="stroke:#000000;stroke-width:1.0;"/><text fill="#000000" font-family="sans-serif" font-size="13" lengthAdjust="spacing" textLength="47" x="27.9389" y="307.0045">receives</text></g><!--link OperationTypeController to OperationTypeDto--><g id="link_OperationTypeController_OperationTypeDto"><path codeLine="108" d="M571.9389,128.6494 C571.9389,220.4694 571.9389,435.4494 571.9389,547.8994 " fill="none" id="OperationTypeController-to-OperationTypeDto" style="stroke:#181818;stroke-width:1.0;"/><polygon fill="#181818" points="571.9389,553.8994,575.9389,544.8994,571.9389,548.8994,567.9389,544.8994,571.9389,553.8994" style="stroke:#181818;stroke-width:1.0;"/><polygon fill="#000000" points="521.9389,337.4452,524.8779,328.4001,519,328.4001,521.9389,337.4452" style="stroke:#000000;stroke-width:1.0;"/><text fill="#000000" font-family="sans-serif" font-size="13" lengthAdjust="spacing" textLength="40" x="530.9389" y="337.7645">returns</text></g><!--link OperationTypeService to OperationTypeRepository--><g id="link_OperationTypeService_OperationTypeRepository"><path codeLine="110" d="M553.5389,225.6094 C611.2289,225.6094 666.8989,225.6094 724.0289,225.6094 " fill="none" id="OperationTypeService-to-OperationTypeRepository" style="stroke:#181818;stroke-width:1.0;"/><polygon fill="#181818" points="730.0289,225.6094,721.0289,221.6094,725.0289,225.6094,721.0289,229.6094,730.0289,225.6094" style="stroke:#181818;stroke-width:1.0;"/><polygon fill="#000000" points="608.7889,216.7852,599.7438,213.8462,599.7438,219.7241,608.7889,216.7852" style="stroke:#000000;stroke-width:1.0;"/><text fill="#000000" font-family="sans-serif" font-size="13" lengthAdjust="spacing" textLength="28" x="612.7889" y="222.1045">uses</text></g><!--link OperationTypeService to CreatingOperationTypeDto--><g id="link_OperationTypeService_CreatingOperationTypeDto"><path codeLine="111" d="M272.4389,289.9694 C272.4389,341.3494 272.4389,416.8294 272.4389,486.2294 " fill="none" id="OperationTypeService-to-CreatingOperationTypeDto" style="stroke:#181818;stroke-width:1.0;"/><polygon fill="#181818" points="272.4389,492.2294,276.4389,483.2294,272.4389,487.2294,268.4389,483.2294,272.4389,492.2294" style="stroke:#181818;stroke-width:1.0;"/><polygon fill="#000000" points="234.4389,387.2752,237.3779,378.2301,231.5,378.2301,234.4389,387.2752" style="stroke:#000000;stroke-width:1.0;"/><text fill="#000000" font-family="sans-serif" font-size="13" lengthAdjust="spacing" textLength="28" x="243.4389" y="387.5945">uses</text></g><!--link OperationTypeService to OperationType--><g id="link_OperationTypeService_OperationType"><path codeLine="112" d="M532.5189,289.6494 C532.5189,371.3994 532.5189,523.6094 532.5189,523.6094 C532.5189,523.6094 840.8589,523.6094 840.8589,523.6094 C840.8589,523.6094 840.8589,531.0294 840.8589,547.9694 " fill="none" id="OperationTypeService-to-OperationType" style="stroke:#181818;stroke-width:1.0;"/><polygon fill="#181818" points="840.8589,553.9694,844.8589,544.9694,840.8589,548.9694,836.8589,544.9694,840.8589,553.9694" style="stroke:#181818;stroke-width:1.0;"/><polygon fill="#000000" points="535.7216,517.9961,530.6755,509.9346,526.9008,514.4402,535.7216,517.9961" style="stroke:#000000;stroke-width:1.0;"/><text fill="#000000" font-family="sans-serif" font-size="13" lengthAdjust="spacing" textLength="43" x="540.8889" y="520.1045">creates</text></g><!--link OperationTypeService to OperationTypeDto--><g id="link_OperationTypeService_OperationTypeDto"><path codeLine="113" d="M511.8589,289.9694 C511.8589,357.8294 511.8589,472.2094 511.8589,547.8894 " fill="none" id="OperationTypeService-to-OperationTypeDto" style="stroke:#181818;stroke-width:1.0;"/><polygon fill="#181818" points="511.8589,553.8894,515.8589,544.8894,511.8589,548.8894,507.8589,544.8894,511.8589,553.8894" style="stroke:#181818;stroke-width:1.0;"/><polygon fill="#000000" points="458.8589,418.1052,461.7979,409.0601,455.92,409.0601,458.8589,418.1052" style="stroke:#000000;stroke-width:1.0;"/><text fill="#000000" font-family="sans-serif" font-size="13" lengthAdjust="spacing" textLength="43" x="467.8589" y="418.4245">creates</text></g><!--link OperationTypeRepository to IOperationTypeRepository--><g id="link_OperationTypeRepository_IOperationTypeRepository"><path codeLine="115" d="M951.1889,280.6394 C951.1889,301.9994 951.1889,321.9694 951.1889,343.3594 " fill="none" id="OperationTypeRepository-to-IOperationTypeRepository" style="stroke:#181818;stroke-width:1.0;"/><polygon fill="#181818" points="951.1889,349.3594,955.1889,340.3594,951.1889,344.3594,947.1889,340.3594,951.1889,349.3594" style="stroke:#181818;stroke-width:1.0;"/><polygon fill="#000000" points="874.1889,311.1752,877.1279,302.1301,871.25,302.1301,874.1889,311.1752" style="stroke:#000000;stroke-width:1.0;"/><text fill="#000000" font-family="sans-serif" font-size="13" lengthAdjust="spacing" textLength="67" x="883.1889" y="311.4945">implements</text></g><!--link OperationTypeRepository to OperationType--><g id="link_OperationTypeRepository_OperationType"><path codeLine="116" d="M729.9389,253.6094 C726.0189,253.6094 723.8589,253.6094 723.8589,253.6094 C723.8589,253.6094 723.8589,588.6094 723.8589,588.6094 C723.8589,588.6094 734.9789,588.6094 757.8589,588.6094 " fill="none" id="OperationTypeRepository-to-OperationType" style="stroke:#181818;stroke-width:1.0;"/><polygon fill="#181818" points="763.8589,588.6094,754.8589,584.6094,758.8589,588.6094,754.8589,592.6094,763.8589,588.6094" style="stroke:#181818;stroke-width:1.0;"/><polygon fill="#000000" points="610.2742,434.2279,612.4517,424.97,606.5942,425.4581,610.2742,434.2279" style="stroke:#000000;stroke-width:1.0;"/><text fill="#000000" font-family="sans-serif" font-size="13" lengthAdjust="spacing" textLength="104" x="618.8589" y="434.5645">saves in database</text></g><!--link IOperationTypeRepository to OperationType--><g id="link_IOperationTypeRepository_OperationType"><path codeLine="118" d="M917.5189,432.6694 C917.5189,466.3194 917.5189,508.3994 917.5189,547.6994 " fill="none" id="IOperationTypeRepository-to-OperationType" style="stroke:#181818;stroke-width:1.0;"/><polygon fill="#181818" points="917.5189,553.6994,921.5189,544.6994,917.5189,548.6994,913.5189,544.6994,917.5189,553.6994" style="stroke:#181818;stroke-width:1.0;"/><polygon fill="#000000" points="803.5189,489.3652,806.4579,480.3201,800.58,480.3201,803.5189,489.3652" style="stroke:#000000;stroke-width:1.0;"/><text fill="#000000" font-family="sans-serif" font-size="13" lengthAdjust="spacing" textLength="104" x="812.5189" y="489.6845">saves in database</text></g><!--link CreatingOperationTypeDto to Name--><g id="link_CreatingOperationTypeDto_Name"><path codeLine="120" d="M146.4389,751.8594 C146.4389,773.9794 146.4389,789.0994 146.4389,805.5794 " fill="none" id="CreatingOperationTypeDto-to-Name" style="stroke:#181818;stroke-width:1.0;"/><polygon fill="#181818" points="146.4389,811.5794,150.4389,802.5794,146.4389,806.5794,142.4389,802.5794,146.4389,811.5794" style="stroke:#181818;stroke-width:1.0;"/><polygon fill="#000000" points="115.4389,777.8952,118.3779,768.8501,112.5,768.8501,115.4389,777.8952" style="stroke:#000000;stroke-width:1.0;"/><text fill="#000000" font-family="sans-serif" font-size="13" lengthAdjust="spacing" textLength="21" x="124.4389" y="778.2145">has</text></g><!--link CreatingOperationTypeDto to Specialization--><g id="link_CreatingOperationTypeDto_Specialization"><path codeLine="121" d="M315.5189,751.8594 C315.5189,773.9794 315.5189,789.0994 315.5189,805.5794 " fill="none" id="CreatingOperationTypeDto-to-Specialization" style="stroke:#181818;stroke-width:1.0;"/><polygon fill="#181818" points="315.5189,811.5794,319.5189,802.5794,315.5189,806.5794,311.5189,802.5794,315.5189,811.5794" style="stroke:#181818;stroke-width:1.0;"/><polygon fill="#000000" points="284.5189,777.8952,287.4579,768.8501,281.58,768.8501,284.5189,777.8952" style="stroke:#000000;stroke-width:1.0;"/><text fill="#000000" font-family="sans-serif" font-size="13" lengthAdjust="spacing" textLength="21" x="293.5189" y="778.2145">has</text></g><!--link CreatingOperationTypeDto to RequiredStaff--><g id="link_CreatingOperationTypeDto_RequiredStaff"><path codeLine="122" d="M455.9089,721.6094 C629.8589,721.6094 856.1889,721.6094 856.1889,721.6094 C856.1889,721.6094 856.1889,768.8994 856.1889,805.3194 " fill="none" id="CreatingOperationTypeDto-to-RequiredStaff" style="stroke:#181818;stroke-width:1.0;"/><polygon fill="#181818" points="856.1889,811.3194,860.1889,802.3194,856.1889,806.3194,852.1889,802.3194,856.1889,811.3194" style="stroke:#181818;stroke-width:1.0;"/><polygon fill="#000000" points="674.803,713.8087,666.5511,709.0804,665.3479,714.8338,674.803,713.8087" style="stroke:#000000;stroke-width:1.0;"/><text fill="#000000" font-family="sans-serif" font-size="13" lengthAdjust="spacing" textLength="21" x="678.9089" y="718.1045">has</text></g><!--link CreatingOperationTypeDto to PhasesDuration--><g id="link_CreatingOperationTypeDto_PhasesDuration"><path codeLine="123" d="M455.6889,736.6094 C470.7189,736.6094 480.1889,736.6094 480.1889,736.6094 C480.1889,736.6094 480.1889,773.5894 480.1889,805.3294 " fill="none" id="CreatingOperationTypeDto-to-PhasesDuration" style="stroke:#181818;stroke-width:1.0;"/><polygon fill="#181818" points="480.1889,811.3294,484.1889,802.3294,480.1889,806.3294,476.1889,802.3294,480.1889,811.3294" style="stroke:#181818;stroke-width:1.0;"/><polygon fill="#000000" points="450.868,775.6048,450.5988,766.098,445.0623,768.0719,450.868,775.6048" style="stroke:#000000;stroke-width:1.0;"/><text fill="#000000" font-family="sans-serif" font-size="13" lengthAdjust="spacing" textLength="21" x="458.1889" y="776.2145">has</text></g><!--link OperationType to OperationTypeID--><g id="link_OperationType_OperationTypeID"><path codeLine="125" d="M994.3289,622.6094 C1181.1189,622.6094 1529.5189,622.6094 1529.5189,622.6094 C1529.5189,622.6094 1529.5189,743.4394 1529.5189,805.3694 " fill="none" id="OperationType-to-OperationTypeID" style="stroke:#181818;stroke-width:1.0;"/><polygon fill="#181818" points="1529.5189,811.3694,1533.5189,802.3694,1529.5189,806.3694,1525.5189,802.3694,1529.5189,811.3694" style="stroke:#181818;stroke-width:1.0;"/><polygon fill="#000000" points="1330.0406,615.401,1322.4306,609.6967,1320.5311,615.2592,1330.0406,615.401" style="stroke:#000000;stroke-width:1.0;"/><text fill="#000000" font-family="sans-serif" font-size="13" lengthAdjust="spacing" textLength="21" x="1334.3089" y="619.1045">has</text></g><!--link OperationType to Name--><g id="link_OperationType_Name"><path codeLine="126" d="M810.1889,690.2194 C810.1889,733.5694 810.1889,781.6094 810.1889,781.6094 C810.1889,781.6094 195.9389,781.6094 195.9389,781.6094 C195.9389,781.6094 195.9389,790.1494 195.9389,805.2694 " fill="none" id="OperationType-to-Name" style="stroke:#181818;stroke-width:1.0;"/><polygon fill="#181818" points="195.9389,811.2694,199.9389,802.2694,195.9389,806.2694,191.9389,802.2694,195.9389,811.2694" style="stroke:#181818;stroke-width:1.0;"/><polygon fill="#000000" points="498.0144,773.7057,507.4459,774.9291,506.3638,769.1518,498.0144,773.7057" style="stroke:#000000;stroke-width:1.0;"/><text fill="#000000" font-family="sans-serif" font-size="13" lengthAdjust="spacing" textLength="21" x="511.9289" y="778.1045">has</text></g><!--link OperationType to Specialization--><g id="link_OperationType_Specialization"><path codeLine="127" d="M902.1889,690.3294 C902.1889,739.2694 902.1889,796.6094 902.1889,796.6094 C902.1889,796.6094 374.8589,796.6094 374.8589,796.6094 C374.8589,796.6094 374.8589,797.2194 374.8589,805.5294 " fill="none" id="OperationType-to-Specialization" style="stroke:#181818;stroke-width:1.0;"/><polygon fill="#181818" points="374.8589,811.5294,378.8589,802.5294,374.8589,806.5294,370.8589,802.5294,374.8589,811.5294" style="stroke:#181818;stroke-width:1.0;"/><polygon fill="#000000" points="648.3141,788.8523,657.7781,789.793,656.5236,784.0506,648.3141,788.8523" style="stroke:#000000;stroke-width:1.0;"/><text fill="#000000" font-family="sans-serif" font-size="13" lengthAdjust="spacing" textLength="21" x="662.1989" y="793.1045">has</text></g><!--link OperationType to RequiredStaff--><g id="link_OperationType_RequiredStaff"><path codeLine="128" d="M948.1889,690.3794 C948.1889,730.6194 948.1889,773.7194 948.1889,805.5494 " fill="none" id="OperationType-to-RequiredStaff" style="stroke:#181818;stroke-width:1.0;"/><polygon fill="#181818" points="948.1889,811.5494,952.1889,802.5494,948.1889,806.5494,944.1889,802.5494,948.1889,811.5494" style="stroke:#181818;stroke-width:1.0;"/><polygon fill="#000000" points="917.1889,747.1452,920.1279,738.1001,914.25,738.1001,917.1889,747.1452" style="stroke:#000000;stroke-width:1.0;"/><text fill="#000000" font-family="sans-serif" font-size="13" lengthAdjust="spacing" textLength="21" x="926.1889" y="747.4645">has</text></g><!--link OperationType to PhasesDuration--><g id="link_OperationType_PhasesDuration"><path codeLine="129" d="M763.8689,656.6094 C742.3789,656.6094 726.5189,656.6094 726.5189,656.6094 C726.5189,656.6094 726.5189,751.4594 726.5189,805.4294 " fill="none" id="OperationType-to-PhasesDuration" style="stroke:#181818;stroke-width:1.0;"/><polygon fill="#181818" points="726.5189,811.4294,730.5189,802.4294,726.5189,806.4294,722.5189,802.4294,726.5189,811.4294" style="stroke:#181818;stroke-width:1.0;"/><polygon fill="#000000" points="730.3018,711.3748,735.3541,703.3172,729.6531,701.8863,730.3018,711.3748" style="stroke:#000000;stroke-width:1.0;"/><text fill="#000000" font-family="sans-serif" font-size="13" lengthAdjust="spacing" textLength="21" x="740.5189" y="711.8445">has</text></g><!--link OperationTypeDto to OperationTypeID--><g id="link_OperationTypeDto_OperationTypeID"><path codeLine="131" d="M548.6889,690.2894 C548.6889,699.3694 548.6889,705.6094 548.6889,705.6094 C548.6889,705.6094 1482.8589,705.6094 1482.8589,705.6094 C1482.8589,705.6094 1482.8589,764.1894 1482.8589,805.3194 " fill="none" id="OperationTypeDto-to-OperationTypeID" style="stroke:#181818;stroke-width:1.0;"/><polygon fill="#181818" points="1482.8589,811.3194,1486.8589,802.3194,1482.8589,806.3194,1478.8589,802.3194,1482.8589,811.3194" style="stroke:#181818;stroke-width:1.0;"/><polygon fill="#000000" points="1034.9314,697.3962,1026.3133,693.3739,1025.595,699.2077,1034.9314,697.3962" style="stroke:#000000;stroke-width:1.0;"/><text fill="#000000" font-family="sans-serif" font-size="13" lengthAdjust="spacing" textLength="21" x="1038.9689" y="702.1045">has</text></g><!--link OperationTypeDto to Name--><g id="link_OperationTypeDto_Name"><path codeLine="132" d="M606.1889,690.1294 C606.1889,727.6094 606.1889,766.6094 606.1889,766.6094 C606.1889,766.6094 171.1889,766.6094 171.1889,766.6094 C171.1889,766.6094 171.1889,784.2694 171.1889,805.5294 " fill="none" id="OperationTypeDto-to-Name" style="stroke:#181818;stroke-width:1.0;"/><polygon fill="#181818" points="171.1889,811.5294,175.1889,802.5294,171.1889,806.5294,167.1889,802.5294,171.1889,811.5294" style="stroke:#181818;stroke-width:1.0;"/><polygon fill="#000000" points="368.6361,777.0672,378.1324,777.5886,376.6252,771.9073,368.6361,777.0672" style="stroke:#000000;stroke-width:1.0;"/><text fill="#000000" font-family="sans-serif" font-size="13" lengthAdjust="spacing" textLength="21" x="382.4689" y="781.1045">has</text></g><!--link OperationTypeDto to Specialization--><g id="link_OperationTypeDto_Specialization"><path codeLine="133" d="M491.1789,622.6094 C474.2889,622.6094 462.4389,622.6094 462.4389,622.6094 C462.4389,622.6094 462.4389,844.6094 462.4389,844.6094 C462.4389,844.6094 456.5589,844.6094 440.3589,844.6094 " fill="none" id="OperationTypeDto-to-Specialization" style="stroke:#181818;stroke-width:1.0;"/><polygon fill="#181818" points="434.3589,844.6094,443.3589,848.6094,439.3589,844.6094,443.3589,840.6094,434.3589,844.6094" style="stroke:#181818;stroke-width:1.0;"/><polygon fill="#000000" points="466.3232,729.3291,471.2064,721.1679,465.4768,719.8563,466.3232,729.3291" style="stroke:#000000;stroke-width:1.0;"/><text fill="#000000" font-family="sans-serif" font-size="13" lengthAdjust="spacing" textLength="21" x="476.4389" y="729.7745">has</text></g><!--link OperationTypeDto to RequiredStaff--><g id="link_OperationTypeDto_RequiredStaff"><path codeLine="134" d="M721.3289,622.6094 C736.6489,622.6094 747.1889,622.6094 747.1889,622.6094 C747.1889,622.6094 747.1889,844.6094 747.1889,844.6094 C747.1889,844.6094 747.6889,844.6094 757.9389,844.6094 " fill="none" id="OperationTypeDto-to-RequiredStaff" style="stroke:#181818;stroke-width:1.0;"/><polygon fill="#181818" points="763.9389,844.6094,754.9389,840.6094,758.9389,844.6094,754.9389,848.6094,763.9389,844.6094" style="stroke:#181818;stroke-width:1.0;"/><polygon fill="#000000" points="717.0025,743.1585,718.4305,733.7558,712.631,734.7122,717.0025,743.1585" style="stroke:#000000;stroke-width:1.0;"/><text fill="#000000" font-family="sans-serif" font-size="13" lengthAdjust="spacing" textLength="21" x="725.1889" y="743.5445">has</text></g><!--link OperationTypeDto to PhasesDuration--><g id="link_OperationTypeDto_PhasesDuration"><path codeLine="135" d="M663.6889,690.3794 C663.6889,730.6194 663.6889,773.7194 663.6889,805.5494 " fill="none" id="OperationTypeDto-to-PhasesDuration" style="stroke:#181818;stroke-width:1.0;"/><polygon fill="#181818" points="663.6889,811.5494,667.6889,802.5494,663.6889,806.5494,659.6889,802.5494,663.6889,811.5494" style="stroke:#181818;stroke-width:1.0;"/><polygon fill="#000000" points="632.6889,747.1452,635.6279,738.1001,629.75,738.1001,632.6889,747.1452" style="stroke:#000000;stroke-width:1.0;"/><text fill="#000000" font-family="sans-serif" font-size="13" lengthAdjust="spacing" textLength="21" x="641.6889" y="747.4645">has</text></g><!--link RequiredStaff to Role--><g id="link_RequiredStaff_Role"><path codeLine="137" d="M893.1889,877.7194 C893.1889,896.0894 893.1889,912.8794 893.1889,931.2894 " fill="none" id="RequiredStaff-to-Role" style="stroke:#181818;stroke-width:1.0;"/><polygon fill="#181818" points="893.1889,937.2894,897.1889,928.2894,893.1889,932.2894,889.1889,928.2894,893.1889,937.2894" style="stroke:#181818;stroke-width:1.0;"/><text fill="#000000" font-family="sans-serif" font-size="13" lengthAdjust="spacing" textLength="21" x="871.1889" y="903.9945">has</text></g><!--link RequiredStaff to StaffQuantity--><g id="link_RequiredStaff_StaffQuantity"><path codeLine="138" d="M1022.5089,867.6094 C1081.3989,867.6094 1138.1889,867.6094 1138.1889,867.6094 C1138.1889,867.6094 1138.1889,901.3394 1138.1889,931.4494 " fill="none" id="RequiredStaff-to-StaffQuantity" style="stroke:#181818;stroke-width:1.0;"/><polygon fill="#181818" points="1138.1889,937.4494,1142.1889,928.4494,1138.1889,932.4494,1134.1889,928.4494,1138.1889,937.4494" style="stroke:#181818;stroke-width:1.0;"/><polygon fill="#000000" points="1088.6465,879.201,1082.1474,872.2576,1079.3073,877.4038,1088.6465,879.201" style="stroke:#000000;stroke-width:1.0;"/><text fill="#000000" font-family="sans-serif" font-size="13" lengthAdjust="spacing" textLength="21" x="1093.2689" y="882.1045">has</text></g><!--link PhasesDuration to Phase--><g id="link_PhasesDuration_Phase"><path codeLine="140" d="M499.6889,877.7194 C499.6889,896.0894 499.6889,912.8794 499.6889,931.2894 " fill="none" id="PhasesDuration-to-Phase" style="stroke:#181818;stroke-width:1.0;"/><polygon fill="#181818" points="499.6889,937.2894,503.6889,928.2894,499.6889,932.2894,495.6889,928.2894,499.6889,937.2894" style="stroke:#181818;stroke-width:1.0;"/><polygon fill="#000000" points="468.6889,903.6752,471.6279,894.6301,465.75,894.6301,468.6889,903.6752" style="stroke:#000000;stroke-width:1.0;"/><text fill="#000000" font-family="sans-serif" font-size="13" lengthAdjust="spacing" textLength="21" x="477.6889" y="903.9945">has</text></g><!--link PhasesDuration to Duration--><g id="link_PhasesDuration_Duration"><path codeLine="141" d="M611.1889,877.7194 C611.1889,896.0894 611.1889,912.8794 611.1889,931.2894 " fill="none" id="PhasesDuration-to-Duration" style="stroke:#181818;stroke-width:1.0;"/><polygon fill="#181818" points="611.1889,937.2894,615.1889,928.2894,611.1889,932.2894,607.1889,928.2894,611.1889,937.2894" style="stroke:#181818;stroke-width:1.0;"/><polygon fill="#000000" points="580.1889,903.6752,583.1279,894.6301,577.25,894.6301,580.1889,903.6752" style="stroke:#000000;stroke-width:1.0;"/><text fill="#000000" font-family="sans-serif" font-size="13" lengthAdjust="spacing" textLength="21" x="589.1889" y="903.9945">has</text></g><!--SRC=[pLPDRziu4BthLymnGPr5qACH6D1AHYfWwsHbPu4zBMXfB1EHIIr9PU4M_Uyxf2p7r8VZj8TM1yCKtvjvyq6Ez3CN5LDi1nNBdbc1IxCl4HHcXecYn40V0NhBSlaV5mLiMAbFTxAIQHqQe_YwDfXaKYpv5uJR4qZ91PfzXI2LsSeWA75Zm4XGlDWQoBbroAK8ZApiwxKqHkvEtWU66z8LMKyGSrPOerTHV0qty1JTVhmD0gS27YfKp59Mv2sImYXPbgZWQm3qVBX7y_j-mNPu9UXd2lRlzHHMJ3_VXSvLYhekpPrd9pPoDciCH0gPmQlSo2cu_vIGBlPIWzy6HIzHlV0CUuf3lHVPWEoUuORt5ojvJbAzxP78rrAM1rgOvusZYoBi-nwEASLAQcwasdzVM3ykpYdZmg3QC4fkyYlAQn8tnckbBOvQclMomenJiRyuy1JyTOD9yT-QpbA-D6opcOAtR12FMwPHnxKwMF7N3QP0unhe-jGzlVGzskqX3GJq_5hSW122-RujRaYDFgZnQlCYUNxSxkWwdwWksTUgpYImo-p8hyvcjYKFdvksvaa-zJUI-2Ssmx3ManRzHULwr8FM6_X7DuPZxgvhflPtgInn0WxsPyq4pPwzFQ126ZnCBBaP469fa341KfHxM2CmSBQ1PX257SkChfW9B6gbxI24K6jE064253bOwwrIptMRrNOz1Rh7Ud8yYYCS-RjQ6okdSBDBWTcInjk-Ko_vhTSODI_48RCdYzUq-kb-pMlJ-5vY7NG2BTRTUYZgNMFZG7rCvuzX6gwIXmKLuIczdwT_Jo3wOnukaiNzgz-Enm-VkQ3F3zscvu2opUPVdPe-L4GnqiL9VDh4ztLpD9r6LzvcCum_9oGkVeXM3obLz2bTpYUmcaUV5acKXBJrIFhdYvKbZtsI_3OR7lnJc45DcHibtj0p6vyJba_VJSXVthGnmZMr4heZl5NNPPtCpc7XH-ARej_W-ZUZ9MIkeI_cj7vQMZ0MY6KcvwBakwh47GgZpzheAzQCYa8D2lHfnjRKyq6G_B25qQHQ2wx_BP5Es7bav_nVnF6lr8iedUkYvVY9x0TF1xE5zf5UaFtjaSZwmE5m-hYBOcW3lYYCmNAzfqplAC-xokARS4RTDBER_Jr_S1sDT8mV_HqH0u2UbFy1]--></g></svg>