<?xml version="1.0" encoding="us-ascii" standalone="no"?><svg xmlns="http://www.w3.org/2000/svg" xmlns:xlink="http://www.w3.org/1999/xlink" contentStyleType="text/css" height="1045px" preserveAspectRatio="none" style="width:2035px;height:1045px;background:#FFFFFF;" version="1.1" viewBox="0 0 2035 1045" width="2035px" zoomAndPan="magnify"><defs/><g><text fill="#000000" font-family="sans-serif" font-size="14" font-weight="bold" lengthAdjust="spacing" textLength="190" x="915.5" y="24.5332">Class Diagram (CD) - UC020</text><!--class OperationTypeController--><g id="elem_OperationTypeController"><rect codeLine="12" fill="#F1F1F1" height="83.2188" id="OperationTypeController" rx="2.5" ry="2.5" style="stroke:#181818;stroke-width:0.5;" width="539" x="331.5" y="45.6094"/><ellipse cx="518.25" cy="61.6094" fill="#ADD1B2" rx="11" ry="11" style="stroke:#181818;stroke-width:1.0;"/><path d="M521.0156,57.4844 Q521.1719,57.2656 521.3594,57.1563 Q521.5469,57.0469 521.7656,57.0469 Q522.1406,57.0469 522.375,57.3125 Q522.6094,57.5625 522.6094,58.1719 L522.6094,59.625 Q522.6094,60.2344 522.375,60.5 Q522.1406,60.7656 521.7656,60.7656 Q521.4219,60.7656 521.2188,60.5625 Q521.0156,60.375 520.9063,59.8594 Q520.8594,59.5 520.6719,59.3125 Q520.3438,58.9375 519.7344,58.7188 Q519.125,58.5 518.5,58.5 Q517.7344,58.5 517.0938,58.8281 Q516.4688,59.1563 515.9688,59.9063 Q515.4844,60.6563 515.4844,61.6875 L515.4844,62.7813 Q515.4844,64.0156 516.375,64.8438 Q517.2656,65.6563 518.8594,65.6563 Q519.7969,65.6563 520.4531,65.4063 Q520.8438,65.25 521.2656,64.8125 Q521.5313,64.5469 521.6719,64.4688 Q521.8281,64.3906 522.0313,64.3906 Q522.3594,64.3906 522.6094,64.6563 Q522.875,64.9063 522.875,65.25 Q522.875,65.5938 522.5313,66 Q522.0313,66.5781 521.2344,66.9063 Q520.1563,67.3594 518.8594,67.3594 Q517.3438,67.3594 516.1406,66.7344 Q515.1563,66.2344 514.4688,65.1719 Q513.7813,64.0938 513.7813,62.8125 L513.7813,61.6563 Q513.7813,60.3281 514.3906,59.1875 Q515.0156,58.0313 516.1094,57.4219 Q517.2031,56.7969 518.4375,56.7969 Q519.1719,56.7969 519.8125,56.9688 Q520.4688,57.125 521.0156,57.4844 Z " fill="#000000"/><text fill="#000000" font-family="sans-serif" font-size="14" lengthAdjust="spacing" textLength="157" x="538.75" y="67.3379">OperationTypeController</text><line style="stroke:#181818;stroke-width:0.5;" x1="332.5" x2="869.5" y1="77.6094" y2="77.6094"/><line style="stroke:#181818;stroke-width:0.5;" x1="332.5" x2="869.5" y1="85.6094" y2="85.6094"/><text fill="#000000" font-family="sans-serif" font-size="14" lengthAdjust="spacing" textLength="439" x="337.5" y="104.1426">+GetByName(name: Name): Task&lt;ActionResult&lt;OperationTypeDto&gt;&gt;</text><text fill="#000000" font-family="sans-serif" font-size="14" lengthAdjust="spacing" textLength="527" x="337.5" y="121.752">+Create(dto: CreatingOperationTypeDto): Task&lt;ActionResult&lt;OperationTypeDto&gt;&gt;</text></g><!--class OperationTypeService--><g id="elem_OperationTypeService"><rect codeLine="17" fill="#F1F1F1" height="100.8281" id="OperationTypeService" rx="2.5" ry="2.5" style="stroke:#181818;stroke-width:0.5;" width="464" x="369" y="188.6094"/><ellipse cx="525.75" cy="204.6094" fill="#ADD1B2" rx="11" ry="11" style="stroke:#181818;stroke-width:1.0;"/><path d="M528.5156,200.4844 Q528.6719,200.2656 528.8594,200.1563 Q529.0469,200.0469 529.2656,200.0469 Q529.6406,200.0469 529.875,200.3125 Q530.1094,200.5625 530.1094,201.1719 L530.1094,202.625 Q530.1094,203.2344 529.875,203.5 Q529.6406,203.7656 529.2656,203.7656 Q528.9219,203.7656 528.7188,203.5625 Q528.5156,203.375 528.4063,202.8594 Q528.3594,202.5 528.1719,202.3125 Q527.8438,201.9375 527.2344,201.7188 Q526.625,201.5 526,201.5 Q525.2344,201.5 524.5938,201.8281 Q523.9688,202.1563 523.4688,202.9063 Q522.9844,203.6563 522.9844,204.6875 L522.9844,205.7813 Q522.9844,207.0156 523.875,207.8438 Q524.7656,208.6563 526.3594,208.6563 Q527.2969,208.6563 527.9531,208.4063 Q528.3438,208.25 528.7656,207.8125 Q529.0313,207.5469 529.1719,207.4688 Q529.3281,207.3906 529.5313,207.3906 Q529.8594,207.3906 530.1094,207.6563 Q530.375,207.9063 530.375,208.25 Q530.375,208.5938 530.0313,209 Q529.5313,209.5781 528.7344,209.9063 Q527.6563,210.3594 526.3594,210.3594 Q524.8438,210.3594 523.6406,209.7344 Q522.6563,209.2344 521.9688,208.1719 Q521.2813,207.0938 521.2813,205.8125 L521.2813,204.6563 Q521.2813,203.3281 521.8906,202.1875 Q522.5156,201.0313 523.6094,200.4219 Q524.7031,199.7969 525.9375,199.7969 Q526.6719,199.7969 527.3125,199.9688 Q527.9688,200.125 528.5156,200.4844 Z " fill="#000000"/><text fill="#000000" font-family="sans-serif" font-size="14" lengthAdjust="spacing" textLength="142" x="546.25" y="210.3379">OperationTypeService</text><line style="stroke:#181818;stroke-width:0.5;" x1="370" x2="832" y1="220.6094" y2="220.6094"/><line style="stroke:#181818;stroke-width:0.5;" x1="370" x2="832" y1="228.6094" y2="228.6094"/><text fill="#000000" font-family="sans-serif" font-size="14" lengthAdjust="spacing" textLength="382" x="375" y="247.1426">+GetByNameAsync(name: Name): Task&lt;OperationTypeDto&gt;</text><text fill="#000000" font-family="sans-serif" font-size="14" lengthAdjust="spacing" textLength="361" x="375" y="264.752">+ValidateOperationTypeName(name: Name): Task&lt;bool&gt;</text><text fill="#000000" font-family="sans-serif" font-size="14" lengthAdjust="spacing" textLength="452" x="375" y="282.3613">+AddAsync(dto: CreatingOperationTypeDto): Task&lt;OperationTypeDto&gt;</text></g><!--class OperationTypeRepository--><g id="elem_OperationTypeRepository"><rect codeLine="23" fill="#F1F1F1" height="83.2188" id="OperationTypeRepository" rx="2.5" ry="2.5" style="stroke:#181818;stroke-width:0.5;" width="442" x="939" y="197.6094"/><ellipse cx="1074.25" cy="213.6094" fill="#ADD1B2" rx="11" ry="11" style="stroke:#181818;stroke-width:1.0;"/><path d="M1077.0156,209.4844 Q1077.1719,209.2656 1077.3594,209.1563 Q1077.5469,209.0469 1077.7656,209.0469 Q1078.1406,209.0469 1078.375,209.3125 Q1078.6094,209.5625 1078.6094,210.1719 L1078.6094,211.625 Q1078.6094,212.2344 1078.375,212.5 Q1078.1406,212.7656 1077.7656,212.7656 Q1077.4219,212.7656 1077.2188,212.5625 Q1077.0156,212.375 1076.9063,211.8594 Q1076.8594,211.5 1076.6719,211.3125 Q1076.3438,210.9375 1075.7344,210.7188 Q1075.125,210.5 1074.5,210.5 Q1073.7344,210.5 1073.0938,210.8281 Q1072.4688,211.1563 1071.9688,211.9063 Q1071.4844,212.6563 1071.4844,213.6875 L1071.4844,214.7813 Q1071.4844,216.0156 1072.375,216.8438 Q1073.2656,217.6563 1074.8594,217.6563 Q1075.7969,217.6563 1076.4531,217.4063 Q1076.8438,217.25 1077.2656,216.8125 Q1077.5313,216.5469 1077.6719,216.4688 Q1077.8281,216.3906 1078.0313,216.3906 Q1078.3594,216.3906 1078.6094,216.6563 Q1078.875,216.9063 1078.875,217.25 Q1078.875,217.5938 1078.5313,218 Q1078.0313,218.5781 1077.2344,218.9063 Q1076.1563,219.3594 1074.8594,219.3594 Q1073.3438,219.3594 1072.1406,218.7344 Q1071.1563,218.2344 1070.4688,217.1719 Q1069.7813,216.0938 1069.7813,214.8125 L1069.7813,213.6563 Q1069.7813,212.3281 1070.3906,211.1875 Q1071.0156,210.0313 1072.1094,209.4219 Q1073.2031,208.7969 1074.4375,208.7969 Q1075.1719,208.7969 1075.8125,208.9688 Q1076.4688,209.125 1077.0156,209.4844 Z " fill="#000000"/><text fill="#000000" font-family="sans-serif" font-size="14" lengthAdjust="spacing" textLength="163" x="1094.75" y="219.3379">OperationTypeRepository</text><line style="stroke:#181818;stroke-width:0.5;" x1="940" x2="1380" y1="229.6094" y2="229.6094"/><line style="stroke:#181818;stroke-width:0.5;" x1="940" x2="1380" y1="237.6094" y2="237.6094"/><text fill="#000000" font-family="sans-serif" font-size="14" lengthAdjust="spacing" textLength="360" x="945" y="256.1426">+GetByNameAsync(name: Name): Task&lt;OperationType&gt;</text><text fill="#000000" font-family="sans-serif" font-size="14" lengthAdjust="spacing" textLength="430" x="945" y="273.752">+AddAsync(dto: CreatingOperationTypeDto): Task&lt;OperationType&gt;</text></g><!--class IOperationTypeRepository--><g id="elem_IOperationTypeRepository"><rect codeLine="28" fill="#F1F1F1" height="83.2188" id="IOperationTypeRepository" rx="2.5" ry="2.5" style="stroke:#181818;stroke-width:0.5;" width="442" x="1010" y="349.6094"/><ellipse cx="1143.25" cy="365.6094" fill="#B4A7E5" rx="11" ry="11" style="stroke:#181818;stroke-width:1.0;"/><path d="M1144.2031,362.25 L1144.2031,368.9063 L1145.9219,368.9063 Q1146.5313,368.9063 1146.7969,369.1406 Q1147.0625,369.375 1147.0625,369.7656 Q1147.0625,370.1406 1146.7969,370.375 Q1146.5313,370.6094 1145.9219,370.6094 L1140.7813,370.6094 Q1140.1719,370.6094 1139.9063,370.375 Q1139.6406,370.1406 1139.6406,369.75 Q1139.6406,369.375 1139.9063,369.1406 Q1140.1719,368.9063 1140.7813,368.9063 L1142.5,368.9063 L1142.5,362.25 L1140.7813,362.25 Q1140.1719,362.25 1139.9063,362.0156 Q1139.6406,361.7813 1139.6406,361.3906 Q1139.6406,361.0156 1139.9063,360.7813 Q1140.1719,360.5469 1140.7813,360.5469 L1145.9219,360.5469 Q1146.5313,360.5469 1146.7969,360.7813 Q1147.0625,361.0156 1147.0625,361.3906 Q1147.0625,361.7813 1146.7969,362.0156 Q1146.5313,362.25 1145.9219,362.25 L1144.2031,362.25 Z " fill="#000000"/><text fill="#000000" font-family="sans-serif" font-size="14" font-style="italic" lengthAdjust="spacing" textLength="167" x="1163.75" y="371.3379">IOperationTypeRepository</text><line style="stroke:#181818;stroke-width:0.5;" x1="1011" x2="1451" y1="381.6094" y2="381.6094"/><line style="stroke:#181818;stroke-width:0.5;" x1="1011" x2="1451" y1="389.6094" y2="389.6094"/><text fill="#000000" font-family="sans-serif" font-size="14" lengthAdjust="spacing" textLength="360" x="1016" y="408.1426">+GetByNameAsync(name: Name): Task&lt;OperationType&gt;</text><text fill="#000000" font-family="sans-serif" font-size="14" lengthAdjust="spacing" textLength="430" x="1016" y="425.752">+AddAsync(dto: CreatingOperationTypeDto): Task&lt;OperationType&gt;</text></g><!--class CreatingOperationTypeDto--><g id="elem_CreatingOperationTypeDto"><rect codeLine="33" fill="#F1F1F1" height="259.3125" id="CreatingOperationTypeDto" rx="2.5" ry="2.5" style="stroke:#181818;stroke-width:0.5;" width="393" x="133.5" y="492.6094"/><ellipse cx="240.25" cy="508.6094" fill="#ADD1B2" rx="11" ry="11" style="stroke:#181818;stroke-width:1.0;"/><path d="M243.0156,504.4844 Q243.1719,504.2656 243.3594,504.1563 Q243.5469,504.0469 243.7656,504.0469 Q244.1406,504.0469 244.375,504.3125 Q244.6094,504.5625 244.6094,505.1719 L244.6094,506.625 Q244.6094,507.2344 244.375,507.5 Q244.1406,507.7656 243.7656,507.7656 Q243.4219,507.7656 243.2188,507.5625 Q243.0156,507.375 242.9063,506.8594 Q242.8594,506.5 242.6719,506.3125 Q242.3438,505.9375 241.7344,505.7188 Q241.125,505.5 240.5,505.5 Q239.7344,505.5 239.0938,505.8281 Q238.4688,506.1563 237.9688,506.9063 Q237.4844,507.6563 237.4844,508.6875 L237.4844,509.7813 Q237.4844,511.0156 238.375,511.8438 Q239.2656,512.6563 240.8594,512.6563 Q241.7969,512.6563 242.4531,512.4063 Q242.8438,512.25 243.2656,511.8125 Q243.5313,511.5469 243.6719,511.4688 Q243.8281,511.3906 244.0313,511.3906 Q244.3594,511.3906 244.6094,511.6563 Q244.875,511.9063 244.875,512.25 Q244.875,512.5938 244.5313,513 Q244.0313,513.5781 243.2344,513.9063 Q242.1563,514.3594 240.8594,514.3594 Q239.3438,514.3594 238.1406,513.7344 Q237.1563,513.2344 236.4688,512.1719 Q235.7813,511.0938 235.7813,509.8125 L235.7813,508.6563 Q235.7813,507.3281 236.3906,506.1875 Q237.0156,505.0313 238.1094,504.4219 Q239.2031,503.7969 240.4375,503.7969 Q241.1719,503.7969 241.8125,503.9688 Q242.4688,504.125 243.0156,504.4844 Z " fill="#000000"/><text fill="#000000" font-family="sans-serif" font-size="14" lengthAdjust="spacing" textLength="171" x="260.75" y="514.3379">CreatingOperationTypeDto</text><line style="stroke:#181818;stroke-width:0.5;" x1="134.5" x2="525.5" y1="524.6094" y2="524.6094"/><text fill="#000000" font-family="sans-serif" font-size="14" lengthAdjust="spacing" textLength="88" x="139.5" y="543.1426">+Name: Name</text><text fill="#000000" font-family="sans-serif" font-size="14" lengthAdjust="spacing" textLength="188" x="139.5" y="560.752">+Specialization: Specialization</text><text fill="#000000" font-family="sans-serif" font-size="14" lengthAdjust="spacing" textLength="228" x="139.5" y="578.3613">-_requiredStaff: List&lt;RequiredStaff&gt;</text><text fill="#000000" font-family="sans-serif" font-size="14" lengthAdjust="spacing" textLength="218" x="139.5" y="595.9707">+PhasesDuration: PhasesDuration</text><line style="stroke:#181818;stroke-width:0.5;" x1="134.5" x2="525.5" y1="603.0469" y2="603.0469"/><text fill="#000000" font-family="sans-serif" font-size="14" lengthAdjust="spacing" textLength="118" x="139.5" y="621.5801">+getName(): Name</text><text fill="#000000" font-family="sans-serif" font-size="14" lengthAdjust="spacing" textLength="218" x="139.5" y="639.1895">+getSpecialization(): Specialization</text><text fill="#000000" font-family="sans-serif" font-size="14" lengthAdjust="spacing" textLength="258" x="139.5" y="656.7988">+getRequiredStaff(): List&lt;RequiredStaff&gt;</text><text fill="#000000" font-family="sans-serif" font-size="14" lengthAdjust="spacing" textLength="248" x="139.5" y="674.4082">+getPhasesDuration(): PhasesDuration</text><text fill="#000000" font-family="sans-serif" font-size="14" lengthAdjust="spacing" textLength="186" x="139.5" y="692.0176">+setName(name: Name): void</text><text fill="#000000" font-family="sans-serif" font-size="14" lengthAdjust="spacing" textLength="337" x="139.5" y="709.627">+setSpecialization(Specialization: Specialization): void</text><text fill="#000000" font-family="sans-serif" font-size="14" lengthAdjust="spacing" textLength="373" x="139.5" y="727.2363">+setRequiredStaff(requiredStaff: List&lt;RequiredStaff&gt;): void</text><text fill="#000000" font-family="sans-serif" font-size="14" lengthAdjust="spacing" textLength="381" x="139.5" y="744.8457">+setPhasesDuration(phasesDuration: PhasesDuration): void</text></g><!--class OperationType--><g id="elem_OperationType"><rect codeLine="48" fill="#F1F1F1" height="136.0469" id="OperationType" rx="2.5" ry="2.5" style="stroke:#181818;stroke-width:0.5;" width="240" x="837" y="554.1094"/><ellipse cx="905.25" cy="570.1094" fill="#ADD1B2" rx="11" ry="11" style="stroke:#181818;stroke-width:1.0;"/><path d="M908.0156,565.9844 Q908.1719,565.7656 908.3594,565.6563 Q908.5469,565.5469 908.7656,565.5469 Q909.1406,565.5469 909.375,565.8125 Q909.6094,566.0625 909.6094,566.6719 L909.6094,568.125 Q909.6094,568.7344 909.375,569 Q909.1406,569.2656 908.7656,569.2656 Q908.4219,569.2656 908.2188,569.0625 Q908.0156,568.875 907.9063,568.3594 Q907.8594,568 907.6719,567.8125 Q907.3438,567.4375 906.7344,567.2188 Q906.125,567 905.5,567 Q904.7344,567 904.0938,567.3281 Q903.4688,567.6563 902.9688,568.4063 Q902.4844,569.1563 902.4844,570.1875 L902.4844,571.2813 Q902.4844,572.5156 903.375,573.3438 Q904.2656,574.1563 905.8594,574.1563 Q906.7969,574.1563 907.4531,573.9063 Q907.8438,573.75 908.2656,573.3125 Q908.5313,573.0469 908.6719,572.9688 Q908.8281,572.8906 909.0313,572.8906 Q909.3594,572.8906 909.6094,573.1563 Q909.875,573.4063 909.875,573.75 Q909.875,574.0938 909.5313,574.5 Q909.0313,575.0781 908.2344,575.4063 Q907.1563,575.8594 905.8594,575.8594 Q904.3438,575.8594 903.1406,575.2344 Q902.1563,574.7344 901.4688,573.6719 Q900.7813,572.5938 900.7813,571.3125 L900.7813,570.1563 Q900.7813,568.8281 901.3906,567.6875 Q902.0156,566.5313 903.1094,565.9219 Q904.2031,565.2969 905.4375,565.2969 Q906.1719,565.2969 906.8125,565.4688 Q907.4688,565.625 908.0156,565.9844 Z " fill="#000000"/><text fill="#000000" font-family="sans-serif" font-size="14" lengthAdjust="spacing" textLength="95" x="925.75" y="575.8379">OperationType</text><line style="stroke:#181818;stroke-width:0.5;" x1="838" x2="1076" y1="586.1094" y2="586.1094"/><text fill="#000000" font-family="sans-serif" font-size="14" lengthAdjust="spacing" textLength="135" x="843" y="604.6426">+Id: OperationTypeID</text><text fill="#000000" font-family="sans-serif" font-size="14" lengthAdjust="spacing" textLength="88" x="843" y="622.252">+Name: Name</text><text fill="#000000" font-family="sans-serif" font-size="14" lengthAdjust="spacing" textLength="188" x="843" y="639.8613">+Specialization: Specialization</text><text fill="#000000" font-family="sans-serif" font-size="14" lengthAdjust="spacing" textLength="228" x="843" y="657.4707">-_requiredStaff: List&lt;RequiredStaff&gt;</text><text fill="#000000" font-family="sans-serif" font-size="14" lengthAdjust="spacing" textLength="218" x="843" y="675.0801">+PhasesDuration: PhasesDuration</text><line style="stroke:#181818;stroke-width:0.5;" x1="838" x2="1076" y1="682.1563" y2="682.1563"/></g><!--class OperationTypeDto--><g id="elem_OperationTypeDto"><rect codeLine="56" fill="#F1F1F1" height="136.0469" id="OperationTypeDto" rx="2.5" ry="2.5" style="stroke:#181818;stroke-width:0.5;" width="240" x="562" y="554.1094"/><ellipse cx="619.25" cy="570.1094" fill="#ADD1B2" rx="11" ry="11" style="stroke:#181818;stroke-width:1.0;"/><path d="M622.0156,565.9844 Q622.1719,565.7656 622.3594,565.6563 Q622.5469,565.5469 622.7656,565.5469 Q623.1406,565.5469 623.375,565.8125 Q623.6094,566.0625 623.6094,566.6719 L623.6094,568.125 Q623.6094,568.7344 623.375,569 Q623.1406,569.2656 622.7656,569.2656 Q622.4219,569.2656 622.2188,569.0625 Q622.0156,568.875 621.9063,568.3594 Q621.8594,568 621.6719,567.8125 Q621.3438,567.4375 620.7344,567.2188 Q620.125,567 619.5,567 Q618.7344,567 618.0938,567.3281 Q617.4688,567.6563 616.9688,568.4063 Q616.4844,569.1563 616.4844,570.1875 L616.4844,571.2813 Q616.4844,572.5156 617.375,573.3438 Q618.2656,574.1563 619.8594,574.1563 Q620.7969,574.1563 621.4531,573.9063 Q621.8438,573.75 622.2656,573.3125 Q622.5313,573.0469 622.6719,572.9688 Q622.8281,572.8906 623.0313,572.8906 Q623.3594,572.8906 623.6094,573.1563 Q623.875,573.4063 623.875,573.75 Q623.875,574.0938 623.5313,574.5 Q623.0313,575.0781 622.2344,575.4063 Q621.1563,575.8594 619.8594,575.8594 Q618.3438,575.8594 617.1406,575.2344 Q616.1563,574.7344 615.4688,573.6719 Q614.7813,572.5938 614.7813,571.3125 L614.7813,570.1563 Q614.7813,568.8281 615.3906,567.6875 Q616.0156,566.5313 617.1094,565.9219 Q618.2031,565.2969 619.4375,565.2969 Q620.1719,565.2969 620.8125,565.4688 Q621.4688,565.625 622.0156,565.9844 Z " fill="#000000"/><text fill="#000000" font-family="sans-serif" font-size="14" lengthAdjust="spacing" textLength="117" x="639.75" y="575.8379">OperationTypeDto</text><line style="stroke:#181818;stroke-width:0.5;" x1="563" x2="801" y1="586.1094" y2="586.1094"/><text fill="#000000" font-family="sans-serif" font-size="14" lengthAdjust="spacing" textLength="135" x="568" y="604.6426">+Id: OperationTypeID</text><text fill="#000000" font-family="sans-serif" font-size="14" lengthAdjust="spacing" textLength="88" x="568" y="622.252">+Name: Name</text><text fill="#000000" font-family="sans-serif" font-size="14" lengthAdjust="spacing" textLength="188" x="568" y="639.8613">+Specialization: Specialization</text><text fill="#000000" font-family="sans-serif" font-size="14" lengthAdjust="spacing" textLength="228" x="568" y="657.4707">-_requiredStaff: List&lt;RequiredStaff&gt;</text><text fill="#000000" font-family="sans-serif" font-size="14" lengthAdjust="spacing" textLength="218" x="568" y="675.0801">+PhasesDuration: PhasesDuration</text><line style="stroke:#181818;stroke-width:0.5;" x1="563" x2="801" y1="682.1563" y2="682.1563"/></g><!--class RequiredStaff--><g id="elem_RequiredStaff"><rect codeLine="64" fill="#F1F1F1" height="100.8281" id="RequiredStaff" rx="2.5" ry="2.5" style="stroke:#181818;stroke-width:0.5;" width="200" x="694" y="811.6094"/><ellipse cx="746.25" cy="827.6094" fill="#ADD1B2" rx="11" ry="11" style="stroke:#181818;stroke-width:1.0;"/><path d="M749.0156,823.4844 Q749.1719,823.2656 749.3594,823.1563 Q749.5469,823.0469 749.7656,823.0469 Q750.1406,823.0469 750.375,823.3125 Q750.6094,823.5625 750.6094,824.1719 L750.6094,825.625 Q750.6094,826.2344 750.375,826.5 Q750.1406,826.7656 749.7656,826.7656 Q749.4219,826.7656 749.2188,826.5625 Q749.0156,826.375 748.9063,825.8594 Q748.8594,825.5 748.6719,825.3125 Q748.3438,824.9375 747.7344,824.7188 Q747.125,824.5 746.5,824.5 Q745.7344,824.5 745.0938,824.8281 Q744.4688,825.1563 743.9688,825.9063 Q743.4844,826.6563 743.4844,827.6875 L743.4844,828.7813 Q743.4844,830.0156 744.375,830.8438 Q745.2656,831.6563 746.8594,831.6563 Q747.7969,831.6563 748.4531,831.4063 Q748.8438,831.25 749.2656,830.8125 Q749.5313,830.5469 749.6719,830.4688 Q749.8281,830.3906 750.0313,830.3906 Q750.3594,830.3906 750.6094,830.6563 Q750.875,830.9063 750.875,831.25 Q750.875,831.5938 750.5313,832 Q750.0313,832.5781 749.2344,832.9063 Q748.1563,833.3594 746.8594,833.3594 Q745.3438,833.3594 744.1406,832.7344 Q743.1563,832.2344 742.4688,831.1719 Q741.7813,830.0938 741.7813,828.8125 L741.7813,827.6563 Q741.7813,826.3281 742.3906,825.1875 Q743.0156,824.0313 744.1094,823.4219 Q745.2031,822.7969 746.4375,822.7969 Q747.1719,822.7969 747.8125,822.9688 Q748.4688,823.125 749.0156,823.4844 Z " fill="#000000"/><text fill="#000000" font-family="sans-serif" font-size="14" lengthAdjust="spacing" textLength="87" x="766.75" y="833.3379">RequiredStaff</text><line style="stroke:#181818;stroke-width:0.5;" x1="695" x2="893" y1="843.6094" y2="843.6094"/><text fill="#000000" font-family="sans-serif" font-size="14" lengthAdjust="spacing" textLength="74" x="700" y="862.1426">+Role: Role</text><text fill="#000000" font-family="sans-serif" font-size="14" lengthAdjust="spacing" textLength="188" x="700" y="879.752">+Specialization: Specialization</text><text fill="#000000" font-family="sans-serif" font-size="14" lengthAdjust="spacing" textLength="122" x="700" y="897.3613">+Quantity: Quantity</text><line style="stroke:#181818;stroke-width:0.5;" x1="695" x2="893" y1="904.4375" y2="904.4375"/></g><!--class Quantity--><g id="elem_Quantity"><rect codeLine="70" fill="#F1F1F1" height="65.6094" id="Quantity" rx="2.5" ry="2.5" style="stroke:#181818;stroke-width:0.5;" width="96" x="1206" y="972.6094"/><ellipse cx="1225.95" cy="988.6094" fill="#ADD1B2" rx="11" ry="11" style="stroke:#181818;stroke-width:1.0;"/><path d="M1228.7156,984.4844 Q1228.8719,984.2656 1229.0594,984.1563 Q1229.2469,984.0469 1229.4656,984.0469 Q1229.8406,984.0469 1230.075,984.3125 Q1230.3094,984.5625 1230.3094,985.1719 L1230.3094,986.625 Q1230.3094,987.2344 1230.075,987.5 Q1229.8406,987.7656 1229.4656,987.7656 Q1229.1219,987.7656 1228.9188,987.5625 Q1228.7156,987.375 1228.6063,986.8594 Q1228.5594,986.5 1228.3719,986.3125 Q1228.0438,985.9375 1227.4344,985.7188 Q1226.825,985.5 1226.2,985.5 Q1225.4344,985.5 1224.7938,985.8281 Q1224.1688,986.1563 1223.6688,986.9063 Q1223.1844,987.6563 1223.1844,988.6875 L1223.1844,989.7813 Q1223.1844,991.0156 1224.075,991.8438 Q1224.9656,992.6563 1226.5594,992.6563 Q1227.4969,992.6563 1228.1531,992.4063 Q1228.5438,992.25 1228.9656,991.8125 Q1229.2313,991.5469 1229.3719,991.4688 Q1229.5281,991.3906 1229.7313,991.3906 Q1230.0594,991.3906 1230.3094,991.6563 Q1230.575,991.9063 1230.575,992.25 Q1230.575,992.5938 1230.2313,993 Q1229.7313,993.5781 1228.9344,993.9063 Q1227.8563,994.3594 1226.5594,994.3594 Q1225.0438,994.3594 1223.8406,993.7344 Q1222.8563,993.2344 1222.1688,992.1719 Q1221.4813,991.0938 1221.4813,989.8125 L1221.4813,988.6563 Q1221.4813,987.3281 1222.0906,986.1875 Q1222.7156,985.0313 1223.8094,984.4219 Q1224.9031,983.7969 1226.1375,983.7969 Q1226.8719,983.7969 1227.5125,983.9688 Q1228.1688,984.125 1228.7156,984.4844 Z " fill="#000000"/><text fill="#000000" font-family="sans-serif" font-size="14" lengthAdjust="spacing" textLength="53" x="1241.05" y="994.3379">Quantity</text><line style="stroke:#181818;stroke-width:0.5;" x1="1207" x2="1301" y1="1004.6094" y2="1004.6094"/><text fill="#000000" font-family="sans-serif" font-size="14" lengthAdjust="spacing" textLength="84" x="1212" y="1023.1426">+Quantity: int</text><line style="stroke:#181818;stroke-width:0.5;" x1="1207" x2="1301" y1="1030.2188" y2="1030.2188"/></g><g id="elem_GMN11"><path d="M1337.5,992.6094 L1337.5,1001.6094 L1302.38,1005.6094 L1337.5,1009.6094 L1337.5,1018.9609 A0,0 0 0 0 1337.5,1018.9609 L1542.5,1018.9609 A0,0 0 0 0 1542.5,1018.9609 L1542.5,1002.6094 L1532.5,992.6094 L1337.5,992.6094 A0,0 0 0 0 1337.5,992.6094 " fill="#FEFFDD" style="stroke:#181818;stroke-width:0.5;"/><path d="M1532.5,992.6094 L1532.5,1002.6094 L1542.5,1002.6094 L1532.5,992.6094 " fill="#FEFFDD" style="stroke:#181818;stroke-width:0.5;"/><text fill="#000000" font-family="sans-serif" font-size="13" lengthAdjust="spacing" textLength="184" x="1343.5" y="1011.1045">Quantity must be greater than 0</text></g><!--class Specialization--><g id="elem_Specialization"><rect codeLine="77" fill="#F1F1F1" height="65.6094" id="Specialization" rx="2.5" ry="2.5" style="stroke:#181818;stroke-width:0.5;" width="354" x="452" y="972.6094"/><ellipse cx="581.75" cy="988.6094" fill="#EB937F" rx="11" ry="11" style="stroke:#181818;stroke-width:1.0;"/><path d="M580.6094,989.4063 L580.6094,991.9063 L584.9375,991.9063 L584.9375,990.9844 Q584.9375,990.375 585.1719,990.1094 Q585.4219,989.8438 585.7969,989.8438 Q586.1719,989.8438 586.4063,990.1094 Q586.6406,990.375 586.6406,990.9844 L586.6406,993.6094 L578.6406,993.6094 Q578.0156,993.6094 577.75,993.375 Q577.5,993.1406 577.5,992.75 Q577.5,992.375 577.7656,992.1406 Q578.0313,991.9063 578.6406,991.9063 L578.9063,991.9063 L578.9063,985.25 L578.6406,985.25 Q578.0156,985.25 577.75,985.0156 Q577.5,984.7813 577.5,984.3906 Q577.5,984.0156 577.75,983.7813 Q578.0156,983.5469 578.6406,983.5469 L586.2656,983.5469 L586.2656,986.1406 Q586.2656,986.75 586.0313,987.0156 Q585.8125,987.2656 585.4219,987.2656 Q585.0469,987.2656 584.8125,987.0156 Q584.5781,986.75 584.5781,986.1406 L584.5781,985.25 L580.6094,985.25 L580.6094,987.7031 L582.0938,987.7031 Q582.0938,987.0469 582.2188,986.8594 Q582.4844,986.4531 582.9531,986.4531 Q583.3281,986.4531 583.5625,986.7188 Q583.7969,986.9688 583.7969,987.5781 L583.7969,989.5469 Q583.7969,990.0938 583.6719,990.2813 Q583.4063,990.6719 582.9531,990.6719 Q582.4844,990.6719 582.2188,990.2656 Q582.0938,990.0781 582.0938,989.4063 L580.6094,989.4063 Z " fill="#000000"/><text fill="#000000" font-family="sans-serif" font-size="14" lengthAdjust="spacing" textLength="86" x="602.25" y="994.3379">Specialization</text><line style="stroke:#181818;stroke-width:0.5;" x1="453" x2="805" y1="1004.6094" y2="1004.6094"/><text fill="#000000" font-family="sans-serif" font-size="14" lengthAdjust="spacing" textLength="342" x="458" y="1023.1426">ANAESTHESIOLOGY, CARDIOLOGY, ORTHOPEDICS</text><line style="stroke:#181818;stroke-width:0.5;" x1="453" x2="805" y1="1030.2188" y2="1030.2188"/></g><!--class PhasesDuration--><g id="elem_PhasesDuration"><rect codeLine="81" fill="#F1F1F1" height="65.6094" id="PhasesDuration" rx="2.5" ry="2.5" style="stroke:#181818;stroke-width:0.5;" width="260" x="122" y="829.1094"/><ellipse cx="197.25" cy="845.1094" fill="#ADD1B2" rx="11" ry="11" style="stroke:#181818;stroke-width:1.0;"/><path d="M200.0156,840.9844 Q200.1719,840.7656 200.3594,840.6563 Q200.5469,840.5469 200.7656,840.5469 Q201.1406,840.5469 201.375,840.8125 Q201.6094,841.0625 201.6094,841.6719 L201.6094,843.125 Q201.6094,843.7344 201.375,844 Q201.1406,844.2656 200.7656,844.2656 Q200.4219,844.2656 200.2188,844.0625 Q200.0156,843.875 199.9063,843.3594 Q199.8594,843 199.6719,842.8125 Q199.3438,842.4375 198.7344,842.2188 Q198.125,842 197.5,842 Q196.7344,842 196.0938,842.3281 Q195.4688,842.6563 194.9688,843.4063 Q194.4844,844.1563 194.4844,845.1875 L194.4844,846.2813 Q194.4844,847.5156 195.375,848.3438 Q196.2656,849.1563 197.8594,849.1563 Q198.7969,849.1563 199.4531,848.9063 Q199.8438,848.75 200.2656,848.3125 Q200.5313,848.0469 200.6719,847.9688 Q200.8281,847.8906 201.0313,847.8906 Q201.3594,847.8906 201.6094,848.1563 Q201.875,848.4063 201.875,848.75 Q201.875,849.0938 201.5313,849.5 Q201.0313,850.0781 200.2344,850.4063 Q199.1563,850.8594 197.8594,850.8594 Q196.3438,850.8594 195.1406,850.2344 Q194.1563,849.7344 193.4688,848.6719 Q192.7813,847.5938 192.7813,846.3125 L192.7813,845.1563 Q192.7813,843.8281 193.3906,842.6875 Q194.0156,841.5313 195.1094,840.9219 Q196.2031,840.2969 197.4375,840.2969 Q198.1719,840.2969 198.8125,840.4688 Q199.4688,840.625 200.0156,840.9844 Z " fill="#000000"/><text fill="#000000" font-family="sans-serif" font-size="14" lengthAdjust="spacing" textLength="101" x="217.75" y="850.8379">PhasesDuration</text><line style="stroke:#181818;stroke-width:0.5;" x1="123" x2="381" y1="861.1094" y2="861.1094"/><text fill="#000000" font-family="sans-serif" font-size="14" lengthAdjust="spacing" textLength="248" x="128" y="879.6426">-_phases: Dictionary&lt;Phase, Duration&gt;</text><line style="stroke:#181818;stroke-width:0.5;" x1="123" x2="381" y1="886.7188" y2="886.7188"/></g><!--class Phase--><g id="elem_Phase"><rect codeLine="85" fill="#F1F1F1" height="65.6094" id="Phase" rx="2.5" ry="2.5" style="stroke:#181818;stroke-width:0.5;" width="260" x="134" y="972.6094"/><ellipse cx="239.75" cy="988.6094" fill="#EB937F" rx="11" ry="11" style="stroke:#181818;stroke-width:1.0;"/><path d="M238.6094,989.4063 L238.6094,991.9063 L242.9375,991.9063 L242.9375,990.9844 Q242.9375,990.375 243.1719,990.1094 Q243.4219,989.8438 243.7969,989.8438 Q244.1719,989.8438 244.4063,990.1094 Q244.6406,990.375 244.6406,990.9844 L244.6406,993.6094 L236.6406,993.6094 Q236.0156,993.6094 235.75,993.375 Q235.5,993.1406 235.5,992.75 Q235.5,992.375 235.7656,992.1406 Q236.0313,991.9063 236.6406,991.9063 L236.9063,991.9063 L236.9063,985.25 L236.6406,985.25 Q236.0156,985.25 235.75,985.0156 Q235.5,984.7813 235.5,984.3906 Q235.5,984.0156 235.75,983.7813 Q236.0156,983.5469 236.6406,983.5469 L244.2656,983.5469 L244.2656,986.1406 Q244.2656,986.75 244.0313,987.0156 Q243.8125,987.2656 243.4219,987.2656 Q243.0469,987.2656 242.8125,987.0156 Q242.5781,986.75 242.5781,986.1406 L242.5781,985.25 L238.6094,985.25 L238.6094,987.7031 L240.0938,987.7031 Q240.0938,987.0469 240.2188,986.8594 Q240.4844,986.4531 240.9531,986.4531 Q241.3281,986.4531 241.5625,986.7188 Q241.7969,986.9688 241.7969,987.5781 L241.7969,989.5469 Q241.7969,990.0938 241.6719,990.2813 Q241.4063,990.6719 240.9531,990.6719 Q240.4844,990.6719 240.2188,990.2656 Q240.0938,990.0781 240.0938,989.4063 L238.6094,989.4063 Z " fill="#000000"/><text fill="#000000" font-family="sans-serif" font-size="14" lengthAdjust="spacing" textLength="40" x="260.25" y="994.3379">Phase</text><line style="stroke:#181818;stroke-width:0.5;" x1="135" x2="393" y1="1004.6094" y2="1004.6094"/><text fill="#000000" font-family="sans-serif" font-size="14" lengthAdjust="spacing" textLength="248" x="140" y="1023.1426">PREPARATION, SURGERY, CLEANING</text><line style="stroke:#181818;stroke-width:0.5;" x1="135" x2="393" y1="1030.2188" y2="1030.2188"/></g><!--class Duration--><g id="elem_Duration"><rect codeLine="89" fill="#F1F1F1" height="65.6094" id="Duration" rx="2.5" ry="2.5" style="stroke:#181818;stroke-width:0.5;" width="92" x="7" y="972.6094"/><ellipse cx="24.7" cy="988.6094" fill="#ADD1B2" rx="11" ry="11" style="stroke:#181818;stroke-width:1.0;"/><path d="M27.4656,984.4844 Q27.6219,984.2656 27.8094,984.1563 Q27.9969,984.0469 28.2156,984.0469 Q28.5906,984.0469 28.825,984.3125 Q29.0594,984.5625 29.0594,985.1719 L29.0594,986.625 Q29.0594,987.2344 28.825,987.5 Q28.5906,987.7656 28.2156,987.7656 Q27.8719,987.7656 27.6688,987.5625 Q27.4656,987.375 27.3563,986.8594 Q27.3094,986.5 27.1219,986.3125 Q26.7938,985.9375 26.1844,985.7188 Q25.575,985.5 24.95,985.5 Q24.1844,985.5 23.5438,985.8281 Q22.9188,986.1563 22.4188,986.9063 Q21.9344,987.6563 21.9344,988.6875 L21.9344,989.7813 Q21.9344,991.0156 22.825,991.8438 Q23.7156,992.6563 25.3094,992.6563 Q26.2469,992.6563 26.9031,992.4063 Q27.2938,992.25 27.7156,991.8125 Q27.9813,991.5469 28.1219,991.4688 Q28.2781,991.3906 28.4813,991.3906 Q28.8094,991.3906 29.0594,991.6563 Q29.325,991.9063 29.325,992.25 Q29.325,992.5938 28.9813,993 Q28.4813,993.5781 27.6844,993.9063 Q26.6063,994.3594 25.3094,994.3594 Q23.7938,994.3594 22.5906,993.7344 Q21.6063,993.2344 20.9188,992.1719 Q20.2313,991.0938 20.2313,989.8125 L20.2313,988.6563 Q20.2313,987.3281 20.8406,986.1875 Q21.4656,985.0313 22.5594,984.4219 Q23.6531,983.7969 24.8875,983.7969 Q25.6219,983.7969 26.2625,983.9688 Q26.9188,984.125 27.4656,984.4844 Z " fill="#000000"/><text fill="#000000" font-family="sans-serif" font-size="14" lengthAdjust="spacing" textLength="54" x="39.3" y="994.3379">Duration</text><line style="stroke:#181818;stroke-width:0.5;" x1="8" x2="98" y1="1004.6094" y2="1004.6094"/><text fill="#000000" font-family="sans-serif" font-size="14" lengthAdjust="spacing" textLength="80" x="13" y="1023.1426">+Minutes: int</text><line style="stroke:#181818;stroke-width:0.5;" x1="8" x2="98" y1="1030.2188" y2="1030.2188"/></g><!--class Name--><g id="elem_Name"><rect codeLine="93" fill="#F1F1F1" height="65.6094" id="Name" rx="2.5" ry="2.5" style="stroke:#181818;stroke-width:0.5;" width="99" x="488.5" y="829.1094"/><ellipse cx="517.45" cy="845.1094" fill="#ADD1B2" rx="11" ry="11" style="stroke:#181818;stroke-width:1.0;"/><path d="M520.2156,840.9844 Q520.3719,840.7656 520.5594,840.6563 Q520.7469,840.5469 520.9656,840.5469 Q521.3406,840.5469 521.575,840.8125 Q521.8094,841.0625 521.8094,841.6719 L521.8094,843.125 Q521.8094,843.7344 521.575,844 Q521.3406,844.2656 520.9656,844.2656 Q520.6219,844.2656 520.4188,844.0625 Q520.2156,843.875 520.1063,843.3594 Q520.0594,843 519.8719,842.8125 Q519.5438,842.4375 518.9344,842.2188 Q518.325,842 517.7,842 Q516.9344,842 516.2938,842.3281 Q515.6688,842.6563 515.1688,843.4063 Q514.6844,844.1563 514.6844,845.1875 L514.6844,846.2813 Q514.6844,847.5156 515.575,848.3438 Q516.4656,849.1563 518.0594,849.1563 Q518.9969,849.1563 519.6531,848.9063 Q520.0438,848.75 520.4656,848.3125 Q520.7313,848.0469 520.8719,847.9688 Q521.0281,847.8906 521.2313,847.8906 Q521.5594,847.8906 521.8094,848.1563 Q522.075,848.4063 522.075,848.75 Q522.075,849.0938 521.7313,849.5 Q521.2313,850.0781 520.4344,850.4063 Q519.3563,850.8594 518.0594,850.8594 Q516.5438,850.8594 515.3406,850.2344 Q514.3563,849.7344 513.6688,848.6719 Q512.9813,847.5938 512.9813,846.3125 L512.9813,845.1563 Q512.9813,843.8281 513.5906,842.6875 Q514.2156,841.5313 515.3094,840.9219 Q516.4031,840.2969 517.6375,840.2969 Q518.3719,840.2969 519.0125,840.4688 Q519.6688,840.625 520.2156,840.9844 Z " fill="#000000"/><text fill="#000000" font-family="sans-serif" font-size="14" lengthAdjust="spacing" textLength="36" x="534.55" y="850.8379">Name</text><line style="stroke:#181818;stroke-width:0.5;" x1="489.5" x2="586.5" y1="861.1094" y2="861.1094"/><text fill="#000000" font-family="sans-serif" font-size="14" lengthAdjust="spacing" textLength="87" x="494.5" y="879.6426">+Name: string</text><line style="stroke:#181818;stroke-width:0.5;" x1="489.5" x2="586.5" y1="886.7188" y2="886.7188"/></g><!--class OperationTypeID--><g id="elem_OperationTypeID"><rect codeLine="97" fill="#F1F1F1" height="65.6094" id="OperationTypeID" rx="2.5" ry="2.5" style="stroke:#181818;stroke-width:0.5;" width="140" x="929" y="829.1094"/><ellipse cx="944" cy="845.1094" fill="#ADD1B2" rx="11" ry="11" style="stroke:#181818;stroke-width:1.0;"/><path d="M946.7656,840.9844 Q946.9219,840.7656 947.1094,840.6563 Q947.2969,840.5469 947.5156,840.5469 Q947.8906,840.5469 948.125,840.8125 Q948.3594,841.0625 948.3594,841.6719 L948.3594,843.125 Q948.3594,843.7344 948.125,844 Q947.8906,844.2656 947.5156,844.2656 Q947.1719,844.2656 946.9688,844.0625 Q946.7656,843.875 946.6563,843.3594 Q946.6094,843 946.4219,842.8125 Q946.0938,842.4375 945.4844,842.2188 Q944.875,842 944.25,842 Q943.4844,842 942.8438,842.3281 Q942.2188,842.6563 941.7188,843.4063 Q941.2344,844.1563 941.2344,845.1875 L941.2344,846.2813 Q941.2344,847.5156 942.125,848.3438 Q943.0156,849.1563 944.6094,849.1563 Q945.5469,849.1563 946.2031,848.9063 Q946.5938,848.75 947.0156,848.3125 Q947.2813,848.0469 947.4219,847.9688 Q947.5781,847.8906 947.7813,847.8906 Q948.1094,847.8906 948.3594,848.1563 Q948.625,848.4063 948.625,848.75 Q948.625,849.0938 948.2813,849.5 Q947.7813,850.0781 946.9844,850.4063 Q945.9063,850.8594 944.6094,850.8594 Q943.0938,850.8594 941.8906,850.2344 Q940.9063,849.7344 940.2188,848.6719 Q939.5313,847.5938 939.5313,846.3125 L939.5313,845.1563 Q939.5313,843.8281 940.1406,842.6875 Q940.7656,841.5313 941.8594,840.9219 Q942.9531,840.2969 944.1875,840.2969 Q944.9219,840.2969 945.5625,840.4688 Q946.2188,840.625 946.7656,840.9844 Z " fill="#000000"/><text fill="#000000" font-family="sans-serif" font-size="14" lengthAdjust="spacing" textLength="108" x="958" y="850.8379">OperationTypeID</text><line style="stroke:#181818;stroke-width:0.5;" x1="930" x2="1068" y1="861.1094" y2="861.1094"/><text fill="#000000" font-family="sans-serif" font-size="14" lengthAdjust="spacing" textLength="57" x="935" y="879.6426">+Id: Guid</text><line style="stroke:#181818;stroke-width:0.5;" x1="930" x2="1068" y1="886.7188" y2="886.7188"/></g><!--class Role--><g id="elem_Role"><rect codeLine="101" fill="#F1F1F1" height="65.6094" id="Role" rx="2.5" ry="2.5" style="stroke:#181818;stroke-width:0.5;" width="330" x="841" y="972.6094"/><ellipse cx="987.25" cy="988.6094" fill="#EB937F" rx="11" ry="11" style="stroke:#181818;stroke-width:1.0;"/><path d="M986.1094,989.4063 L986.1094,991.9063 L990.4375,991.9063 L990.4375,990.9844 Q990.4375,990.375 990.6719,990.1094 Q990.9219,989.8438 991.2969,989.8438 Q991.6719,989.8438 991.9063,990.1094 Q992.1406,990.375 992.1406,990.9844 L992.1406,993.6094 L984.1406,993.6094 Q983.5156,993.6094 983.25,993.375 Q983,993.1406 983,992.75 Q983,992.375 983.2656,992.1406 Q983.5313,991.9063 984.1406,991.9063 L984.4063,991.9063 L984.4063,985.25 L984.1406,985.25 Q983.5156,985.25 983.25,985.0156 Q983,984.7813 983,984.3906 Q983,984.0156 983.25,983.7813 Q983.5156,983.5469 984.1406,983.5469 L991.7656,983.5469 L991.7656,986.1406 Q991.7656,986.75 991.5313,987.0156 Q991.3125,987.2656 990.9219,987.2656 Q990.5469,987.2656 990.3125,987.0156 Q990.0781,986.75 990.0781,986.1406 L990.0781,985.25 L986.1094,985.25 L986.1094,987.7031 L987.5938,987.7031 Q987.5938,987.0469 987.7188,986.8594 Q987.9844,986.4531 988.4531,986.4531 Q988.8281,986.4531 989.0625,986.7188 Q989.2969,986.9688 989.2969,987.5781 L989.2969,989.5469 Q989.2969,990.0938 989.1719,990.2813 Q988.9063,990.6719 988.4531,990.6719 Q987.9844,990.6719 987.7188,990.2656 Q987.5938,990.0781 987.5938,989.4063 L986.1094,989.4063 Z " fill="#000000"/><text fill="#000000" font-family="sans-serif" font-size="14" lengthAdjust="spacing" textLength="29" x="1007.75" y="994.3379">Role</text><line style="stroke:#181818;stroke-width:0.5;" x1="842" x2="1170" y1="1004.6094" y2="1004.6094"/><text fill="#000000" font-family="sans-serif" font-size="14" lengthAdjust="spacing" textLength="318" x="847" y="1023.1426">ADMIN, DOCTOR, NURSE, TECHNICIAN, PATIENT</text><line style="stroke:#181818;stroke-width:0.5;" x1="842" x2="1170" y1="1030.2188" y2="1030.2188"/></g><g id="elem_GMN21"><path d="M1578,992.6094 L1578,1018.9609 L2028,1018.9609 L2028,1002.6094 L2018,992.6094 L1578,992.6094 " fill="#FEFFDD" style="stroke:#181818;stroke-width:0.5;"/><path d="M2018,992.6094 L2018,1002.6094 L2028,1002.6094 L2018,992.6094 " fill="#FEFFDD" style="stroke:#181818;stroke-width:1.0;"/><text fill="#000000" font-family="sans-serif" font-size="13" lengthAdjust="spacing" textLength="429" x="1584" y="1011.1045">In this Use Case, role can only be a staff role: Doctor, Nurse or Technician</text></g><!--link Role to GMN21--><g id="link_Role_GMN21"><path d="M1124,972.5294 C1124,953.2094 1124,932.6094 1124,932.6094 C1124,932.6094 1803,932.6094 1803,932.6094 C1803,932.6094 1803,971.5594 1803,992.5594 " fill="none" id="Role-GMN21" style="stroke:#181818;stroke-width:1.0;stroke-dasharray:7.0,7.0;"/></g><!--link OperationTypeController to OperationTypeService--><g id="link_OperationTypeController_OperationTypeService"><path codeLine="108" d="M601,128.6394 C601,147.0994 601,162.9994 601,182.4194 " fill="none" id="OperationTypeController-to-OperationTypeService" style="stroke:#181818;stroke-width:1.0;stroke-dasharray:7.0,7.0;"/><polygon fill="#181818" points="601,188.4194,605,179.4194,601,183.4194,597,179.4194,601,188.4194" style="stroke:#181818;stroke-width:1.0;"/><polygon fill="#000000" points="563,154.7052,565.9389,145.6601,560.0611,145.6601,563,154.7052" style="stroke:#000000;stroke-width:1.0;"/><text fill="#000000" font-family="sans-serif" font-size="13" lengthAdjust="spacing" textLength="28" x="572" y="155.0245">uses</text></g><!--link OperationTypeController to CreatingOperationTypeDto--><g id="link_OperationTypeController_CreatingOperationTypeDto"><path codeLine="109" d="M350.25,128.6494 C350.25,205.7394 350.25,367.8694 350.25,486.3794 " fill="none" id="OperationTypeController-to-CreatingOperationTypeDto" style="stroke:#181818;stroke-width:1.0;"/><polygon fill="#181818" points="350.25,492.3794,354.25,483.3794,350.25,487.3794,346.25,483.3794,350.25,492.3794" style="stroke:#181818;stroke-width:1.0;"/><polygon fill="#000000" points="293.25,306.6852,296.1889,297.6401,290.3111,297.6401,293.25,306.6852" style="stroke:#000000;stroke-width:1.0;"/><text fill="#000000" font-family="sans-serif" font-size="13" lengthAdjust="spacing" textLength="47" x="302.25" y="307.0045">receives</text></g><!--link OperationTypeController to OperationTypeDto--><g id="link_OperationTypeController_OperationTypeDto"><path codeLine="110" d="M848.17,128.6794 C848.17,195.5494 848.17,319.6094 848.17,319.6094 C848.17,319.6094 722,319.6094 722,319.6094 C722,319.6094 722,458.6294 722,547.8494 " fill="none" id="OperationTypeController-to-OperationTypeDto" style="stroke:#181818;stroke-width:1.0;"/><polygon fill="#181818" points="722,553.8494,726,544.8494,722,548.8494,718,544.8494,722,553.8494" style="stroke:#181818;stroke-width:1.0;"/><polygon fill="#000000" points="711.9889,315.573,717.4101,307.7588,711.7817,306.0647,711.9889,315.573" style="stroke:#000000;stroke-width:1.0;"/><text fill="#000000" font-family="sans-serif" font-size="13" lengthAdjust="spacing" textLength="40" x="722.43" y="316.1045">returns</text></g><!--link OperationTypeService to OperationTypeRepository--><g id="link_OperationTypeService_OperationTypeRepository"><path codeLine="112" d="M833.21,239.6094 C868.16,239.6094 898.12,239.6094 932.83,239.6094 " fill="none" id="OperationTypeService-to-OperationTypeRepository" style="stroke:#181818;stroke-width:1.0;"/><polygon fill="#181818" points="938.83,239.6094,929.83,235.6094,933.83,239.6094,929.83,243.6094,938.83,239.6094" style="stroke:#181818;stroke-width:1.0;"/><polygon fill="#000000" points="853.02,230.7852,843.9749,227.8462,843.9749,233.7241,853.02,230.7852" style="stroke:#000000;stroke-width:1.0;"/><text fill="#000000" font-family="sans-serif" font-size="13" lengthAdjust="spacing" textLength="28" x="857.02" y="236.1045">uses</text></g><!--link OperationTypeService to CreatingOperationTypeDto--><g id="link_OperationTypeService_CreatingOperationTypeDto"><path codeLine="113" d="M447.75,289.9694 C447.75,341.3494 447.75,416.8294 447.75,486.2294 " fill="none" id="OperationTypeService-to-CreatingOperationTypeDto" style="stroke:#181818;stroke-width:1.0;"/><polygon fill="#181818" points="447.75,492.2294,451.75,483.2294,447.75,487.2294,443.75,483.2294,447.75,492.2294" style="stroke:#181818;stroke-width:1.0;"/><polygon fill="#000000" points="409.75,387.2752,412.6889,378.2301,406.8111,378.2301,409.75,387.2752" style="stroke:#000000;stroke-width:1.0;"/><text fill="#000000" font-family="sans-serif" font-size="13" lengthAdjust="spacing" textLength="28" x="418.75" y="387.5945">uses</text></g><!--link OperationTypeService to OperationType--><g id="link_OperationTypeService_OperationType"><path codeLine="114" d="M833.14,285.6094 C849.28,285.6094 859.33,285.6094 859.33,285.6094 C859.33,285.6094 859.33,449.6894 859.33,548.0094 " fill="none" id="OperationTypeService-to-OperationType" style="stroke:#181818;stroke-width:1.0;"/><polygon fill="#181818" points="859.33,554.0094,863.33,545.0094,859.33,549.0094,855.33,545.0094,859.33,554.0094" style="stroke:#181818;stroke-width:1.0;"/><polygon fill="#000000" points="806.8266,402.8704,808.8527,393.5782,803.0039,394.162,806.8266,402.8704" style="stroke:#000000;stroke-width:1.0;"/><text fill="#000000" font-family="sans-serif" font-size="13" lengthAdjust="spacing" textLength="43" x="815.33" y="403.2145">creates</text></g><!--link OperationTypeService to OperationTypeDto--><g id="link_OperationTypeService_OperationTypeDto"><path codeLine="115" d="M642,289.9694 C642,357.8294 642,472.2094 642,547.8894 " fill="none" id="OperationTypeService-to-OperationTypeDto" style="stroke:#181818;stroke-width:1.0;"/><polygon fill="#181818" points="642,553.8894,646,544.8894,642,548.8894,638,544.8894,642,553.8894" style="stroke:#181818;stroke-width:1.0;"/><polygon fill="#000000" points="589,418.1052,591.9389,409.0601,586.0611,409.0601,589,418.1052" style="stroke:#000000;stroke-width:1.0;"/><text fill="#000000" font-family="sans-serif" font-size="13" lengthAdjust="spacing" textLength="43" x="598" y="418.4245">creates</text></g><!--link OperationTypeRepository to IOperationTypeRepository--><g id="link_OperationTypeRepository_IOperationTypeRepository"><path codeLine="117" d="M1195.5,280.6394 C1195.5,301.9994 1195.5,321.9694 1195.5,343.3594 " fill="none" id="OperationTypeRepository-to-IOperationTypeRepository" style="stroke:#181818;stroke-width:1.0;"/><polygon fill="#181818" points="1195.5,349.3594,1199.5,340.3594,1195.5,344.3594,1191.5,340.3594,1195.5,349.3594" style="stroke:#181818;stroke-width:1.0;"/><polygon fill="#000000" points="1118.5,311.1752,1121.4389,302.1301,1115.5611,302.1301,1118.5,311.1752" style="stroke:#000000;stroke-width:1.0;"/><text fill="#000000" font-family="sans-serif" font-size="13" lengthAdjust="spacing" textLength="67" x="1127.5" y="311.4945">implements</text></g><!--link OperationTypeRepository to OperationType--><g id="link_OperationTypeRepository_OperationType"><path codeLine="118" d="M974.5,280.8294 C974.5,346.5494 974.5,468.8594 974.5,548.0594 " fill="none" id="OperationTypeRepository-to-OperationType" style="stroke:#181818;stroke-width:1.0;"/><polygon fill="#181818" points="974.5,554.0594,978.5,545.0594,974.5,549.0594,970.5,545.0594,974.5,554.0594" style="stroke:#181818;stroke-width:1.0;"/><polygon fill="#000000" points="860.5,431.6152,863.4389,422.5701,857.5611,422.5701,860.5,431.6152" style="stroke:#000000;stroke-width:1.0;"/><text fill="#000000" font-family="sans-serif" font-size="13" lengthAdjust="spacing" textLength="104" x="869.5" y="431.9345">saves in database</text></g><!--link IOperationTypeRepository to OperationType--><g id="link_IOperationTypeRepository_OperationType"><path codeLine="120" d="M1043.5,432.6694 C1043.5,466.3194 1043.5,508.3994 1043.5,547.6994 " fill="none" id="IOperationTypeRepository-to-OperationType" style="stroke:#181818;stroke-width:1.0;"/><polygon fill="#181818" points="1043.5,553.6994,1047.5,544.6994,1043.5,548.6994,1039.5,544.6994,1043.5,553.6994" style="stroke:#181818;stroke-width:1.0;"/><polygon fill="#000000" points="929.5,489.3652,932.4389,480.3201,926.5611,480.3201,929.5,489.3652" style="stroke:#000000;stroke-width:1.0;"/><text fill="#000000" font-family="sans-serif" font-size="13" lengthAdjust="spacing" textLength="104" x="938.5" y="489.6845">saves in database</text></g><!--link CreatingOperationTypeDto to Name--><g id="link_CreatingOperationTypeDto_Name"><path codeLine="122" d="M501.17,751.9394 C501.17,780.4394 501.17,802.1894 501.17,822.7094 " fill="none" id="CreatingOperationTypeDto-to-Name" style="stroke:#181818;stroke-width:1.0;"/><polygon fill="#181818" points="501.17,828.7094,505.17,819.7094,501.17,823.7094,497.17,819.7094,501.17,828.7094" style="stroke:#181818;stroke-width:1.0;"/><polygon fill="#000000" points="470.17,786.5052,473.1089,777.4601,467.2311,777.4601,470.17,786.5052" style="stroke:#000000;stroke-width:1.0;"/><text fill="#000000" font-family="sans-serif" font-size="13" lengthAdjust="spacing" textLength="21" x="479.17" y="786.8245">has</text></g><!--link CreatingOperationTypeDto to Specialization--><g id="link_CreatingOperationTypeDto_Specialization"><path codeLine="123" d="M470.25,751.6794 C470.25,829.9294 470.25,917.6794 470.25,966.4494 " fill="none" id="CreatingOperationTypeDto-to-Specialization" style="stroke:#181818;stroke-width:1.0;"/><polygon fill="#181818" points="470.25,972.4494,474.25,963.4494,470.25,967.4494,466.25,963.4494,470.25,972.4494" style="stroke:#181818;stroke-width:1.0;"/><polygon fill="#000000" points="439.25,858.2352,442.1889,849.1901,436.3111,849.1901,439.25,858.2352" style="stroke:#000000;stroke-width:1.0;"/><text fill="#000000" font-family="sans-serif" font-size="13" lengthAdjust="spacing" textLength="21" x="448.25" y="858.5545">has</text></g><!--link CreatingOperationTypeDto to RequiredStaff--><g id="link_CreatingOperationTypeDto_RequiredStaff"><path codeLine="124" d="M513.83,751.7394 C513.83,789.4094 513.83,820.6094 513.83,820.6094 C513.83,820.6094 607.25,820.6094 687.64,820.6094 " fill="none" id="CreatingOperationTypeDto-to-RequiredStaff" style="stroke:#181818;stroke-width:1.0;"/><polygon fill="#181818" points="693.64,820.6094,684.64,816.6094,688.64,820.6094,684.64,824.6094,693.64,820.6094" style="stroke:#181818;stroke-width:1.0;"/><polygon fill="#000000" points="542.9484,813.627,535.622,807.5628,533.4568,813.0273,542.9484,813.627" style="stroke:#000000;stroke-width:1.0;"/><text fill="#000000" font-family="sans-serif" font-size="13" lengthAdjust="spacing" textLength="21" x="547.3" y="817.1045">has</text></g><!--link CreatingOperationTypeDto to PhasesDuration--><g id="link_CreatingOperationTypeDto_PhasesDuration"><path codeLine="125" d="M195.62,751.9394 C195.62,780.4394 195.62,802.1894 195.62,822.7094 " fill="none" id="CreatingOperationTypeDto-to-PhasesDuration" style="stroke:#181818;stroke-width:1.0;"/><polygon fill="#181818" points="195.62,828.7094,199.62,819.7094,195.62,823.7094,191.62,819.7094,195.62,828.7094" style="stroke:#181818;stroke-width:1.0;"/><polygon fill="#000000" points="164.63,786.5052,167.5689,777.4601,161.6911,777.4601,164.63,786.5052" style="stroke:#000000;stroke-width:1.0;"/><text fill="#000000" font-family="sans-serif" font-size="13" lengthAdjust="spacing" textLength="21" x="173.63" y="786.8245">has</text></g><!--link OperationType to OperationTypeID--><g id="link_OperationType_OperationTypeID"><path codeLine="127" d="M1022.33,690.2394 C1022.33,735.6994 1022.33,787.4494 1022.33,823.0894 " fill="none" id="OperationType-to-OperationTypeID" style="stroke:#181818;stroke-width:1.0;"/><polygon fill="#181818" points="1022.33,829.0894,1026.33,820.0894,1022.33,824.0894,1018.33,820.0894,1022.33,829.0894" style="stroke:#181818;stroke-width:1.0;"/><polygon fill="#000000" points="991.33,755.8352,994.2689,746.7901,988.3911,746.7901,991.33,755.8352" style="stroke:#000000;stroke-width:1.0;"/><text fill="#000000" font-family="sans-serif" font-size="13" lengthAdjust="spacing" textLength="21" x="1000.33" y="756.1545">has</text></g><!--link OperationType to Name--><g id="link_OperationType_Name"><path codeLine="128" d="M865.5,690.3294 C865.5,739.2694 865.5,796.6094 865.5,796.6094 C865.5,796.6094 581.12,796.6094 581.12,796.6094 C581.12,796.6094 581.12,806.7294 581.12,822.9794 " fill="none" id="OperationType-to-Name" style="stroke:#181818;stroke-width:1.0;"/><polygon fill="#181818" points="581.12,828.9794,585.12,819.9794,581.12,823.9794,577.12,819.9794,581.12,828.9794" style="stroke:#181818;stroke-width:1.0;"/><polygon fill="#000000" points="724.7387,789.8988,734.1783,788.7386,731.6935,783.4118,724.7387,789.8988" style="stroke:#000000;stroke-width:1.0;"/><text fill="#000000" font-family="sans-serif" font-size="13" lengthAdjust="spacing" textLength="21" x="738.27" y="793.1045">has</text></g><!--link OperationType to Specialization--><g id="link_OperationType_Specialization"><path codeLine="129" d="M911.5,690.1894 C911.5,786.9394 911.5,952.6094 911.5,952.6094 C911.5,952.6094 768.67,952.6094 768.67,952.6094 C768.67,952.6094 768.67,955.6994 768.67,966.3494 " fill="none" id="OperationType-to-Specialization" style="stroke:#181818;stroke-width:1.0;"/><polygon fill="#181818" points="768.67,972.3494,772.67,963.3494,768.67,967.3494,764.67,963.3494,768.67,972.3494" style="stroke:#181818;stroke-width:1.0;"/><polygon fill="#000000" points="914.203,916.2963,920.9687,909.6123,915.7478,906.9121,914.203,916.2963" style="stroke:#000000;stroke-width:1.0;"/><text fill="#000000" font-family="sans-serif" font-size="13" lengthAdjust="spacing" textLength="21" x="925.5" y="917.1745">has</text></g><!--link OperationType to RequiredStaff--><g id="link_OperationType_RequiredStaff"><path codeLine="130" d="M879.75,690.2394 C879.75,728.7694 879.75,770.1294 879.75,805.3694 " fill="none" id="OperationType-to-RequiredStaff" style="stroke:#181818;stroke-width:1.0;"/><polygon fill="#181818" points="879.75,811.3694,883.75,802.3694,879.75,806.3694,875.75,802.3694,879.75,811.3694" style="stroke:#181818;stroke-width:1.0;"/><polygon fill="#000000" points="848.75,746.9852,851.6889,737.9401,845.8111,737.9401,848.75,746.9852" style="stroke:#000000;stroke-width:1.0;"/><text fill="#000000" font-family="sans-serif" font-size="13" lengthAdjust="spacing" textLength="21" x="857.75" y="747.3045">has</text></g><!--link OperationType to PhasesDuration--><g id="link_OperationType_PhasesDuration"><path codeLine="131" d="M851.25,690.2194 C851.25,733.5694 851.25,781.6094 851.25,781.6094 C851.25,781.6094 319.88,781.6094 319.88,781.6094 C319.88,781.6094 319.88,800.7294 319.88,822.8994 " fill="none" id="OperationType-to-PhasesDuration" style="stroke:#181818;stroke-width:1.0;"/><polygon fill="#181818" points="319.88,828.8994,323.88,819.8994,319.88,823.8994,315.88,819.8994,319.88,828.8994" style="stroke:#181818;stroke-width:1.0;"/><polygon fill="#000000" points="571.7589,773.9964,581.2466,774.6566,579.8226,768.9538,571.7589,773.9964" style="stroke:#000000;stroke-width:1.0;"/><text fill="#000000" font-family="sans-serif" font-size="13" lengthAdjust="spacing" textLength="21" x="585.61" y="778.1045">has</text></g><!--link OperationTypeDto to OperationTypeID--><g id="link_OperationTypeDto_OperationTypeID"><path codeLine="133" d="M730,690.1294 C730,707.6194 730,721.6094 730,721.6094 C730,721.6094 975.67,721.6094 975.67,721.6094 C975.67,721.6094 975.67,781.2694 975.67,822.8094 " fill="none" id="OperationTypeDto-to-OperationTypeID" style="stroke:#181818;stroke-width:1.0;"/><polygon fill="#181818" points="975.67,828.8094,979.67,819.8094,975.67,823.8094,971.67,819.8094,975.67,828.8094" style="stroke:#181818;stroke-width:1.0;"/><polygon fill="#000000" points="864.0894,715.1612,857.5274,708.277,854.7342,713.4488,864.0894,715.1612" style="stroke:#000000;stroke-width:1.0;"/><text fill="#000000" font-family="sans-serif" font-size="13" lengthAdjust="spacing" textLength="21" x="868.69" y="718.1045">has</text></g><!--link OperationTypeDto to Name--><g id="link_OperationTypeDto_Name"><path codeLine="134" d="M574.75,690.2394 C574.75,735.6994 574.75,787.4494 574.75,823.0894 " fill="none" id="OperationTypeDto-to-Name" style="stroke:#181818;stroke-width:1.0;"/><polygon fill="#181818" points="574.75,829.0894,578.75,820.0894,574.75,824.0894,570.75,820.0894,574.75,829.0894" style="stroke:#181818;stroke-width:1.0;"/><polygon fill="#000000" points="543.75,755.8352,546.6889,746.7901,540.8111,746.7901,543.75,755.8352" style="stroke:#000000;stroke-width:1.0;"/><text fill="#000000" font-family="sans-serif" font-size="13" lengthAdjust="spacing" textLength="21" x="552.75" y="756.1545">has</text></g><!--link OperationTypeDto to Specialization--><g id="link_OperationTypeDto_Specialization"><path codeLine="135" d="M640.75,690.2294 C640.75,773.0994 640.75,903.6694 640.75,966.3194 " fill="none" id="OperationTypeDto-to-Specialization" style="stroke:#181818;stroke-width:1.0;"/><polygon fill="#181818" points="640.75,972.3194,644.75,963.3194,640.75,967.3194,636.75,963.3194,640.75,972.3194" style="stroke:#181818;stroke-width:1.0;"/><polygon fill="#000000" points="609.75,827.4452,612.6889,818.4001,606.8111,818.4001,609.75,827.4452" style="stroke:#000000;stroke-width:1.0;"/><text fill="#000000" font-family="sans-serif" font-size="13" lengthAdjust="spacing" textLength="21" x="618.75" y="827.7645">has</text></g><!--link OperationTypeDto to RequiredStaff--><g id="link_OperationTypeDto_RequiredStaff"><path codeLine="136" d="M766,690.2394 C766,728.7694 766,770.1294 766,805.3694 " fill="none" id="OperationTypeDto-to-RequiredStaff" style="stroke:#181818;stroke-width:1.0;"/><polygon fill="#181818" points="766,811.3694,770,802.3694,766,806.3694,762,802.3694,766,811.3694" style="stroke:#181818;stroke-width:1.0;"/><polygon fill="#000000" points="691,746.9852,693.9389,737.9401,688.0611,737.9401,691,746.9852" style="stroke:#000000;stroke-width:1.0;"/><text fill="#000000" font-family="sans-serif" font-size="13" lengthAdjust="spacing" textLength="65" x="700" y="747.3045">has several</text></g><!--link OperationTypeDto to PhasesDuration--><g id="link_OperationTypeDto_PhasesDuration"><path codeLine="137" d="M568.38,690.1294 C568.38,727.6094 568.38,766.6094 568.38,766.6094 C568.38,766.6094 257.75,766.6094 257.75,766.6094 C257.75,766.6094 257.75,795.3894 257.75,822.9794 " fill="none" id="OperationTypeDto-to-PhasesDuration" style="stroke:#181818;stroke-width:1.0;"/><polygon fill="#181818" points="257.75,828.9794,261.75,819.9794,257.75,823.9794,253.75,819.9794,257.75,828.9794" style="stroke:#181818;stroke-width:1.0;"/><polygon fill="#000000" points="384.5228,777.7513,393.9949,776.8967,391.6836,771.4924,384.5228,777.7513" style="stroke:#000000;stroke-width:1.0;"/><text fill="#000000" font-family="sans-serif" font-size="13" lengthAdjust="spacing" textLength="21" x="398.12" y="781.1045">has</text></g><!--link RequiredStaff to Role--><g id="link_RequiredStaff_Role"><path codeLine="139" d="M867.5,912.6994 C867.5,932.5494 867.5,948.7794 867.5,966.5094 " fill="none" id="RequiredStaff-to-Role" style="stroke:#181818;stroke-width:1.0;"/><polygon fill="#181818" points="867.5,972.5094,871.5,963.5094,867.5,967.5094,863.5,963.5094,867.5,972.5094" style="stroke:#181818;stroke-width:1.0;"/><text fill="#000000" font-family="sans-serif" font-size="13" lengthAdjust="spacing" textLength="21" x="845.5" y="939.1045">has</text></g><!--link RequiredStaff to Specialization--><g id="link_RequiredStaff_Specialization"><path codeLine="140" d="M731.33,912.6994 C731.33,932.5494 731.33,948.7794 731.33,966.5094 " fill="none" id="RequiredStaff-to-Specialization" style="stroke:#181818;stroke-width:1.0;"/><polygon fill="#181818" points="731.33,972.5094,735.33,963.5094,731.33,967.5094,727.33,963.5094,731.33,972.5094" style="stroke:#181818;stroke-width:1.0;"/><polygon fill="#000000" points="711.33,938.7852,714.2689,929.7401,708.3911,929.7401,711.33,938.7852" style="stroke:#000000;stroke-width:1.0;"/><text fill="#000000" font-family="sans-serif" font-size="13" lengthAdjust="spacing" textLength="10" x="720.33" y="939.1045">of</text></g><!--link RequiredStaff to Quantity--><g id="link_RequiredStaff_Quantity"><path codeLine="141" d="M894.1,904.6094 C1029.42,904.6094 1254,904.6094 1254,904.6094 C1254,904.6094 1254,937.0794 1254,966.5394 " fill="none" id="RequiredStaff-to-Quantity" style="stroke:#181818;stroke-width:1.0;"/><polygon fill="#181818" points="1254,972.5394,1258,963.5394,1254,967.5394,1250,963.5394,1254,972.5394" style="stroke:#181818;stroke-width:1.0;"/><polygon fill="#000000" points="1045.9376,914.6331,1037.5219,910.2028,1036.5251,915.9955,1045.9376,914.6331" style="stroke:#000000;stroke-width:1.0;"/><text fill="#000000" font-family="sans-serif" font-size="13" lengthAdjust="spacing" textLength="57" x="1050.01" y="919.1045">this many</text></g><!--link PhasesDuration to Phase--><g id="link_PhasesDuration_Phase"><path codeLine="143" d="M258,895.3894 C258,918.5794 258,943.3594 258,966.5094 " fill="none" id="PhasesDuration-to-Phase" style="stroke:#181818;stroke-width:1.0;"/><polygon fill="#181818" points="258,972.5094,262,963.5094,258,967.5094,254,963.5094,258,972.5094" style="stroke:#181818;stroke-width:1.0;"/><polygon fill="#000000" points="227,930.1252,229.9389,921.0801,224.0611,921.0801,227,930.1252" style="stroke:#000000;stroke-width:1.0;"/><text fill="#000000" font-family="sans-serif" font-size="13" lengthAdjust="spacing" textLength="21" x="236" y="930.4445">has</text></g><!--link PhasesDuration to Duration--><g id="link_PhasesDuration_Duration"><path codeLine="144" d="M128,895.3894 C128,937.7794 128,1005.6094 128,1005.6094 C128,1005.6094 120.65,1005.6094 105.22,1005.6094 " fill="none" id="PhasesDuration-to-Duration" style="stroke:#181818;stroke-width:1.0;"/><polygon fill="#181818" points="99.22,1005.6094,108.22,1009.6094,104.22,1005.6094,108.22,1001.6094,99.22,1005.6094" style="stroke:#181818;stroke-width:1.0;"/><polygon fill="#000000" points="95.988,960.9617,100.6968,952.6986,94.9406,951.509,95.988,960.9617" style="stroke:#000000;stroke-width:1.0;"/><text fill="#000000" font-family="sans-serif" font-size="13" lengthAdjust="spacing" textLength="21" x="106" y="961.3845">has</text></g><!--SRC=[pLRBRjiu5DthAxXC46SGT2a41bH9S0IaiaTo2ingG4kqJKGcLPBAG2twxxsa9LbFHvrkueL1aUVSU-w33_bAMOu5Fg4S9w_uG69LPWG9aYZC3XcnP0EGHvpo_oWxe3tEP7iboR2KZbA2xWf5WeIpc7udwA45oIWZgim9ua8TkMLbPA-GuaZGmr6Xb6g7b3DByLnFxxXI_DIQjnHLeClLdf17yK4RlN6zMtIFNjo7Jm-MPLIWTKu4rfGjU7CvKu9d6H7eXuNWTxSYwdCPuXEvOV1d8psyjT4MozT7nxYAY2mozTYnuoc-N9uDk89WHMvInMranf2GFdQkmP-ZecCYtcX21eeTMR9aHFR0y9dt5MSq1QcTvOd8Tvnd5Sr9qxEZMH4EVO_7596SIwguAFzVM7ykpYYZJ16nnv3Su2FAEoTkYbTB2nijv-yu9mc5OdytO1jrlmtc7lqhoBS2TbCQAxpVs-YPIlKOjUUg63P7B8dq2b5PwtwVCGUYJ2FTjcN0PDUpNXxHee4TnnetAGV0NGKQFQP9LfewbNhZD6sMU-gkfwrFxYf-FvbzVY-8_6gMQ_BuNghx84ZjxaBWVO066TVSQjyFBhl3hJL7F0Df-d-sjBk_2ypWqYfjL8ykJkgPslu52oSKm1XNfBeQ-Vx2rzY6UYgaGZk23kP24aWTCOChbx0KQRe5e-BKKrRvSqB7ZxTFVXoidzUhVnR8TIAl7g-ZxTDwutk16ry4TxDLcO7id_lOXXlPN7LOb8y6ka0rrXniHefPgAYRoDyuaRCDrk42nI_Hoe-qZ6VV2ODmTV7RytZtXJ9uOSWwJnLAzqptT9Jm5c67YMOCl7OlhehpJZCQTOdh97bV0X3dhTtjEbgWy2MA_GNQ-kvJ6BY10qiRqE-7sq6zcZu965I5IlG2SRicAqBRJw1Gd6MbhXu6gRhHXEamZoTm2O6pGaZzL49RaXmPXGgoLc6ddZX_BSSV4ZPQeWBAD4cyXzzo-jxHV7Y74Vhsheq9hYe4aptXjRe-gtKNZmjlYE-AVeVRFLKr8J5xQJQdzbFJhAb0D3Eu5YKzvHav4QRaLHj3nH93KM0t87ZguHtqc6K5VsnXCgdQWjbicWZR-JgoT_RCudIFtrcKtjbKSxg970OFfq0D7I8xGGwN9o8R0iV36U9cnL07F2kCqNBzJfdcbmT9yWROpFgjydHD6UFc3DIBmxKHaNm_WckkHuqmX-y9izAoUYeQOOsU4S10yoy0]--></g></svg>