<?xml version="1.0" encoding="us-ascii" standalone="no"?><svg xmlns="http://www.w3.org/2000/svg" xmlns:xlink="http://www.w3.org/1999/xlink" contentStyleType="text/css" height="636px" preserveAspectRatio="none" style="width:777px;height:636px;background:#FFFFFF;" version="1.1" viewBox="0 0 777 636" width="777px" zoomAndPan="magnify"><defs/><g><text fill="#000000" font-family="sans-serif" font-size="14" font-weight="bold" lengthAdjust="spacing" textLength="222" x="276.5" y="29.5332">Sequence Diagram (SD) - UC001</text><rect fill="#FFFFFF" height="437.9219" style="stroke:#181818;stroke-width:1.0;" width="10" x="108" y="126.1797"/><rect fill="#FFFFFF" height="377.2188" style="stroke:#181818;stroke-width:1.0;" width="10" x="298" y="156.5313"/><rect fill="#FFFFFF" height="30.3516" style="stroke:#181818;stroke-width:1.0;" width="10" x="523" y="230.2344"/><rect fill="#FFFFFF" height="30.3516" style="stroke:#181818;stroke-width:1.0;" width="10" x="523" y="290.9375"/><rect fill="#FFFFFF" height="30.3516" style="stroke:#181818;stroke-width:1.0;" width="10" x="523" y="412.3438"/><rect fill="#FFFFFF" height="30.3516" style="stroke:#181818;stroke-width:1.0;" width="10" x="629.5" y="351.6406"/><rect fill="#FFFFFF" height="30.3516" style="stroke:#181818;stroke-width:1.0;" width="10" x="721.5" y="473.0469"/><line style="stroke:#181818;stroke-width:0.5;stroke-dasharray:5.0,5.0;" x1="112.5" x2="112.5" y1="93.8281" y2="582.1016"/><line style="stroke:#181818;stroke-width:0.5;stroke-dasharray:5.0,5.0;" x1="303" x2="303" y1="93.8281" y2="582.1016"/><line style="stroke:#181818;stroke-width:0.5;stroke-dasharray:5.0,5.0;" x1="528" x2="528" y1="93.8281" y2="582.1016"/><line style="stroke:#181818;stroke-width:0.5;stroke-dasharray:5.0,5.0;" x1="634" x2="634" y1="93.8281" y2="582.1016"/><line style="stroke:#181818;stroke-width:0.5;stroke-dasharray:5.0,5.0;" x1="726" x2="726" y1="93.8281" y2="582.1016"/><rect fill="#E2E2F0" height="31.6094" rx="2.5" ry="2.5" style="stroke:#181818;stroke-width:0.5;" width="109" x="58.5" y="61.2188"/><text fill="#000000" font-family="sans-serif" font-size="14" lengthAdjust="spacing" textLength="95" x="65.5" y="82.752">:UserController</text><rect fill="#E2E2F0" height="31.6094" rx="2.5" ry="2.5" style="stroke:#181818;stroke-width:0.5;" width="109" x="58.5" y="581.1016"/><text fill="#000000" font-family="sans-serif" font-size="14" lengthAdjust="spacing" textLength="95" x="65.5" y="602.6348">:UserController</text><rect fill="#E2E2F0" height="31.6094" rx="2.5" ry="2.5" style="stroke:#181818;stroke-width:0.5;" width="94" x="256" y="61.2188"/><text fill="#000000" font-family="sans-serif" font-size="14" lengthAdjust="spacing" textLength="80" x="263" y="82.752">:UserService</text><rect fill="#E2E2F0" height="31.6094" rx="2.5" ry="2.5" style="stroke:#181818;stroke-width:0.5;" width="94" x="256" y="581.1016"/><text fill="#000000" font-family="sans-serif" font-size="14" lengthAdjust="spacing" textLength="80" x="263" y="602.6348">:UserService</text><rect fill="#E2E2F0" height="49.2188" rx="2.5" ry="2.5" style="stroke:#181818;stroke-width:0.5;" width="118" x="469" y="43.6094"/><text fill="#000000" font-family="sans-serif" font-size="14" font-style="italic" lengthAdjust="spacing" textLength="71" x="492.5" y="65.1426">&#171;interface&#187;</text><text fill="#000000" font-family="sans-serif" font-size="14" lengthAdjust="spacing" textLength="104" x="476" y="82.752">:IUserRepository</text><rect fill="#E2E2F0" height="49.2188" rx="2.5" ry="2.5" style="stroke:#181818;stroke-width:0.5;" width="118" x="469" y="581.1016"/><text fill="#000000" font-family="sans-serif" font-size="14" font-style="italic" lengthAdjust="spacing" textLength="71" x="492.5" y="602.6348">&#171;interface&#187;</text><text fill="#000000" font-family="sans-serif" font-size="14" lengthAdjust="spacing" textLength="104" x="476" y="620.2441">:IUserRepository</text><rect fill="#E2E2F0" height="31.6094" rx="2.5" ry="2.5" style="stroke:#181818;stroke-width:0.5;" width="75" x="597" y="61.2188"/><text fill="#000000" font-family="sans-serif" font-size="14" lengthAdjust="spacing" textLength="61" x="604" y="82.752">user:User</text><rect fill="#E2E2F0" height="31.6094" rx="2.5" ry="2.5" style="stroke:#181818;stroke-width:0.5;" width="75" x="597" y="581.1016"/><text fill="#000000" font-family="sans-serif" font-size="14" lengthAdjust="spacing" textLength="61" x="604" y="602.6348">user:User</text><rect fill="#E2E2F0" height="31.6094" rx="2.5" ry="2.5" style="stroke:#181818;stroke-width:0.5;" width="89" x="682" y="61.2188"/><text fill="#000000" font-family="sans-serif" font-size="14" lengthAdjust="spacing" textLength="75" x="689" y="82.752">dto:UserDto</text><rect fill="#E2E2F0" height="31.6094" rx="2.5" ry="2.5" style="stroke:#181818;stroke-width:0.5;" width="89" x="682" y="581.1016"/><text fill="#000000" font-family="sans-serif" font-size="14" lengthAdjust="spacing" textLength="75" x="689" y="602.6348">dto:UserDto</text><rect fill="#FFFFFF" height="437.9219" style="stroke:#181818;stroke-width:1.0;" width="10" x="108" y="126.1797"/><rect fill="#FFFFFF" height="377.2188" style="stroke:#181818;stroke-width:1.0;" width="10" x="298" y="156.5313"/><rect fill="#FFFFFF" height="30.3516" style="stroke:#181818;stroke-width:1.0;" width="10" x="523" y="230.2344"/><rect fill="#FFFFFF" height="30.3516" style="stroke:#181818;stroke-width:1.0;" width="10" x="523" y="290.9375"/><rect fill="#FFFFFF" height="30.3516" style="stroke:#181818;stroke-width:1.0;" width="10" x="523" y="412.3438"/><rect fill="#FFFFFF" height="30.3516" style="stroke:#181818;stroke-width:1.0;" width="10" x="629.5" y="351.6406"/><rect fill="#FFFFFF" height="30.3516" style="stroke:#181818;stroke-width:1.0;" width="10" x="721.5" y="473.0469"/><polygon fill="#181818" points="96,122.1797,106,126.1797,96,130.1797,100,126.1797" style="stroke:#181818;stroke-width:1.0;"/><line style="stroke:#181818;stroke-width:1.0;" x1="0" x2="102" y1="126.1797" y2="126.1797"/><text fill="#000000" font-family="sans-serif" font-size="13" lengthAdjust="spacing" textLength="89" x="7" y="121.3232">POST /api/user</text><polygon fill="#181818" points="286,152.5313,296,156.5313,286,160.5313,290,156.5313" style="stroke:#181818;stroke-width:1.0;"/><line style="stroke:#181818;stroke-width:1.0;" x1="118" x2="292" y1="156.5313" y2="156.5313"/><text fill="#000000" font-family="sans-serif" font-size="13" lengthAdjust="spacing" textLength="161" x="125" y="151.6748">AddAsync(creatingUserDto)</text><line style="stroke:#181818;stroke-width:1.0;" x1="308" x2="350" y1="186.8828" y2="186.8828"/><line style="stroke:#181818;stroke-width:1.0;" x1="350" x2="350" y1="186.8828" y2="199.8828"/><line style="stroke:#181818;stroke-width:1.0;" x1="309" x2="350" y1="199.8828" y2="199.8828"/><polygon fill="#181818" points="319,195.8828,309,199.8828,319,203.8828,315,199.8828" style="stroke:#181818;stroke-width:1.0;"/><text fill="#000000" font-family="sans-serif" font-size="13" lengthAdjust="spacing" textLength="201" x="315" y="182.0264">ValidateUsernameAndEmail(email)</text><polygon fill="#181818" points="511,226.2344,521,230.2344,511,234.2344,515,230.2344" style="stroke:#181818;stroke-width:1.0;"/><line style="stroke:#181818;stroke-width:1.0;" x1="308" x2="517" y1="230.2344" y2="230.2344"/><text fill="#000000" font-family="sans-serif" font-size="13" lengthAdjust="spacing" textLength="172" x="315" y="225.3779">GetByUsernameAsync(email)</text><polygon fill="#181818" points="319,256.5859,309,260.5859,319,264.5859,315,260.5859" style="stroke:#181818;stroke-width:1.0;"/><line style="stroke:#181818;stroke-width:1.0;stroke-dasharray:2.0,2.0;" x1="313" x2="527" y1="260.5859" y2="260.5859"/><text fill="#000000" font-family="sans-serif" font-size="13" lengthAdjust="spacing" textLength="25" x="325" y="255.7295">user</text><polygon fill="#181818" points="511,286.9375,521,290.9375,511,294.9375,515,290.9375" style="stroke:#181818;stroke-width:1.0;"/><line style="stroke:#181818;stroke-width:1.0;" x1="308" x2="517" y1="290.9375" y2="290.9375"/><text fill="#000000" font-family="sans-serif" font-size="13" lengthAdjust="spacing" textLength="146" x="315" y="286.0811">GetByEmailAsync(email)</text><polygon fill="#181818" points="319,317.2891,309,321.2891,319,325.2891,315,321.2891" style="stroke:#181818;stroke-width:1.0;"/><line style="stroke:#181818;stroke-width:1.0;stroke-dasharray:2.0,2.0;" x1="313" x2="527" y1="321.2891" y2="321.2891"/><text fill="#000000" font-family="sans-serif" font-size="13" lengthAdjust="spacing" textLength="25" x="325" y="316.4326">user</text><polygon fill="#181818" points="617.5,347.6406,627.5,351.6406,617.5,355.6406,621.5,351.6406" style="stroke:#181818;stroke-width:1.0;"/><line style="stroke:#181818;stroke-width:1.0;" x1="308" x2="623.5" y1="351.6406" y2="351.6406"/><text fill="#000000" font-family="sans-serif" font-size="13" lengthAdjust="spacing" textLength="122" x="315" y="346.7842">new User(email, role)</text><polygon fill="#181818" points="319,377.9922,309,381.9922,319,385.9922,315,381.9922" style="stroke:#181818;stroke-width:1.0;"/><line style="stroke:#181818;stroke-width:1.0;stroke-dasharray:2.0,2.0;" x1="313" x2="633.5" y1="381.9922" y2="381.9922"/><text fill="#000000" font-family="sans-serif" font-size="13" lengthAdjust="spacing" textLength="25" x="325" y="377.1357">user</text><polygon fill="#181818" points="511,408.3438,521,412.3438,511,416.3438,515,412.3438" style="stroke:#181818;stroke-width:1.0;"/><line style="stroke:#181818;stroke-width:1.0;" x1="308" x2="517" y1="412.3438" y2="412.3438"/><text fill="#000000" font-family="sans-serif" font-size="13" lengthAdjust="spacing" textLength="93" x="315" y="407.4873">AddAsync(user)</text><polygon fill="#181818" points="319,438.6953,309,442.6953,319,446.6953,315,442.6953" style="stroke:#181818;stroke-width:1.0;"/><line style="stroke:#181818;stroke-width:1.0;stroke-dasharray:2.0,2.0;" x1="313" x2="527" y1="442.6953" y2="442.6953"/><text fill="#000000" font-family="sans-serif" font-size="13" lengthAdjust="spacing" textLength="25" x="325" y="437.8389">user</text><polygon fill="#181818" points="709.5,469.0469,719.5,473.0469,709.5,477.0469,713.5,473.0469" style="stroke:#181818;stroke-width:1.0;"/><line style="stroke:#181818;stroke-width:1.0;" x1="308" x2="715.5" y1="473.0469" y2="473.0469"/><text fill="#000000" font-family="sans-serif" font-size="13" lengthAdjust="spacing" textLength="107" x="315" y="468.1904">new UserDto(user)</text><polygon fill="#181818" points="319,499.3984,309,503.3984,319,507.3984,315,503.3984" style="stroke:#181818;stroke-width:1.0;"/><line style="stroke:#181818;stroke-width:1.0;stroke-dasharray:2.0,2.0;" x1="313" x2="725.5" y1="503.3984" y2="503.3984"/><text fill="#000000" font-family="sans-serif" font-size="13" lengthAdjust="spacing" textLength="18" x="325" y="498.542">dto</text><polygon fill="#181818" points="129,529.75,119,533.75,129,537.75,125,533.75" style="stroke:#181818;stroke-width:1.0;"/><line style="stroke:#181818;stroke-width:1.0;stroke-dasharray:2.0,2.0;" x1="123" x2="302" y1="533.75" y2="533.75"/><text fill="#000000" font-family="sans-serif" font-size="13" lengthAdjust="spacing" textLength="18" x="135" y="528.8936">dto</text><polygon fill="#181818" points="11,560.1016,1,564.1016,11,568.1016,7,564.1016" style="stroke:#181818;stroke-width:1.0;"/><line style="stroke:#181818;stroke-width:1.0;stroke-dasharray:2.0,2.0;" x1="5" x2="112" y1="564.1016" y2="564.1016"/><text fill="#000000" font-family="sans-serif" font-size="13" lengthAdjust="spacing" textLength="70" x="17" y="559.2451">201 Created</text><!--SRC=[pLF1Rjim3BthAuYU4c16qnsD842M34DF6-PrTqvcCw6Av4bC2-_h9ycEB0TfiTCm7GnJUk_naHBzap8TEZn2X_893zHmhmaSIKPpq2Hy1lYVsDeNPGxmYDgN9rePuhuZwApkOo2AGwdH-ospKpzEJFVIcaRz9bW9mOf3geP-dSX8Wht2GoGiclqIAdZOhLPtGWGHLb9rQ1XkwWTFRcSDEwirkHj03rDu1TkGUrQI4d3ylq3THzXNwgnNR5sVa5C8wxKoJEuH9MqsS-ef45EInDdR8oepHxHi4s3FTi2m5QBQ59Ph-FAv-GQtsAdRg2S4IbRFo5JM9I2iAOOWCHPJmxPjjxutSY4T8OVR6HCk1rQMErUVTkCQDsPYtr6hDg2ZXi4ZRKtxCPIb5nI_owlagLarV2B-q6ToiZKopyJyaurD_4a-hk8IgjBZqAOpggKtXTxocIhxpqmEhwW6GoyG-pWuUmVXugbeVvORNztCqx3tbtuk1LvfM7vbKUYQaN_Me31IkJiXUDLGchLPMzZEBRGbecn9kPzJNunj9XV4sOYjgweSsVhzwWvsSKIf5Q8W5MF-1m00]--></g></svg>