<?xml version="1.0" encoding="us-ascii" standalone="no"?><svg xmlns="http://www.w3.org/2000/svg" xmlns:xlink="http://www.w3.org/1999/xlink" contentStyleType="text/css" height="402px" preserveAspectRatio="none" style="width:1649px;height:402px;background:#FFFFFF;" version="1.1" viewBox="0 0 1649 402" width="1649px" zoomAndPan="magnify"><defs/><g><text fill="#000000" font-family="sans-serif" font-size="14" font-weight="bold" lengthAdjust="spacing" textLength="190" x="722.5" y="24.5332">Class Diagram (CD) - UC001</text><!--class User--><g id="elem_User"><rect codeLine="9" fill="#F1F1F1" height="136.0469" id="User" rx="2.5" ry="2.5" style="stroke:#181818;stroke-width:0.5;" width="166" x="1251" y="45.6094"/><ellipse cx="1315.25" cy="61.6094" fill="#ADD1B2" rx="11" ry="11" style="stroke:#181818;stroke-width:1.0;"/><path d="M1318.0156,57.4844 Q1318.1719,57.2656 1318.3594,57.1563 Q1318.5469,57.0469 1318.7656,57.0469 Q1319.1406,57.0469 1319.375,57.3125 Q1319.6094,57.5625 1319.6094,58.1719 L1319.6094,59.625 Q1319.6094,60.2344 1319.375,60.5 Q1319.1406,60.7656 1318.7656,60.7656 Q1318.4219,60.7656 1318.2188,60.5625 Q1318.0156,60.375 1317.9063,59.8594 Q1317.8594,59.5 1317.6719,59.3125 Q1317.3438,58.9375 1316.7344,58.7188 Q1316.125,58.5 1315.5,58.5 Q1314.7344,58.5 1314.0938,58.8281 Q1313.4688,59.1563 1312.9688,59.9063 Q1312.4844,60.6563 1312.4844,61.6875 L1312.4844,62.7813 Q1312.4844,64.0156 1313.375,64.8438 Q1314.2656,65.6563 1315.8594,65.6563 Q1316.7969,65.6563 1317.4531,65.4063 Q1317.8438,65.25 1318.2656,64.8125 Q1318.5313,64.5469 1318.6719,64.4688 Q1318.8281,64.3906 1319.0313,64.3906 Q1319.3594,64.3906 1319.6094,64.6563 Q1319.875,64.9063 1319.875,65.25 Q1319.875,65.5938 1319.5313,66 Q1319.0313,66.5781 1318.2344,66.9063 Q1317.1563,67.3594 1315.8594,67.3594 Q1314.3438,67.3594 1313.1406,66.7344 Q1312.1563,66.2344 1311.4688,65.1719 Q1310.7813,64.0938 1310.7813,62.8125 L1310.7813,61.6563 Q1310.7813,60.3281 1311.3906,59.1875 Q1312.0156,58.0313 1313.1094,57.4219 Q1314.2031,56.7969 1315.4375,56.7969 Q1316.1719,56.7969 1316.8125,56.9688 Q1317.4688,57.125 1318.0156,57.4844 Z " fill="#000000"/><text fill="#000000" font-family="sans-serif" font-size="14" lengthAdjust="spacing" textLength="29" x="1335.75" y="67.3379">User</text><line style="stroke:#181818;stroke-width:0.5;" x1="1252" x2="1416" y1="77.6094" y2="77.6094"/><text fill="#000000" font-family="sans-serif" font-size="14" lengthAdjust="spacing" textLength="86" x="1257" y="96.1426">+UserId: Guid</text><text fill="#000000" font-family="sans-serif" font-size="14" lengthAdjust="spacing" textLength="144" x="1257" y="113.752">+Username: Username</text><text fill="#000000" font-family="sans-serif" font-size="14" lengthAdjust="spacing" textLength="84" x="1257" y="131.3613">+Email: Email</text><text fill="#000000" font-family="sans-serif" font-size="14" lengthAdjust="spacing" textLength="74" x="1257" y="148.9707">+Role: Role</text><text fill="#000000" font-family="sans-serif" font-size="14" lengthAdjust="spacing" textLength="154" x="1257" y="166.5801">+UserStatus: UserStatus</text><line style="stroke:#181818;stroke-width:0.5;" x1="1252" x2="1416" y1="173.6563" y2="173.6563"/></g><!--class Username--><g id="elem_Username"><rect codeLine="17" fill="#F1F1F1" height="65.6094" id="Username" rx="2.5" ry="2.5" style="stroke:#181818;stroke-width:0.5;" width="99" x="1284.5" y="294.6094"/><ellipse cx="1300.85" cy="310.6094" fill="#ADD1B2" rx="11" ry="11" style="stroke:#181818;stroke-width:1.0;"/><path d="M1303.6156,306.4844 Q1303.7719,306.2656 1303.9594,306.1563 Q1304.1469,306.0469 1304.3656,306.0469 Q1304.7406,306.0469 1304.975,306.3125 Q1305.2094,306.5625 1305.2094,307.1719 L1305.2094,308.625 Q1305.2094,309.2344 1304.975,309.5 Q1304.7406,309.7656 1304.3656,309.7656 Q1304.0219,309.7656 1303.8188,309.5625 Q1303.6156,309.375 1303.5063,308.8594 Q1303.4594,308.5 1303.2719,308.3125 Q1302.9438,307.9375 1302.3344,307.7188 Q1301.725,307.5 1301.1,307.5 Q1300.3344,307.5 1299.6938,307.8281 Q1299.0688,308.1563 1298.5688,308.9063 Q1298.0844,309.6563 1298.0844,310.6875 L1298.0844,311.7813 Q1298.0844,313.0156 1298.975,313.8438 Q1299.8656,314.6563 1301.4594,314.6563 Q1302.3969,314.6563 1303.0531,314.4063 Q1303.4438,314.25 1303.8656,313.8125 Q1304.1313,313.5469 1304.2719,313.4688 Q1304.4281,313.3906 1304.6313,313.3906 Q1304.9594,313.3906 1305.2094,313.6563 Q1305.475,313.9063 1305.475,314.25 Q1305.475,314.5938 1305.1313,315 Q1304.6313,315.5781 1303.8344,315.9063 Q1302.7563,316.3594 1301.4594,316.3594 Q1299.9438,316.3594 1298.7406,315.7344 Q1297.7563,315.2344 1297.0688,314.1719 Q1296.3813,313.0938 1296.3813,311.8125 L1296.3813,310.6563 Q1296.3813,309.3281 1296.9906,308.1875 Q1297.6156,307.0313 1298.7094,306.4219 Q1299.8031,305.7969 1301.0375,305.7969 Q1301.7719,305.7969 1302.4125,305.9688 Q1303.0688,306.125 1303.6156,306.4844 Z " fill="#000000"/><text fill="#000000" font-family="sans-serif" font-size="14" lengthAdjust="spacing" textLength="64" x="1315.15" y="316.3379">Username</text><line style="stroke:#181818;stroke-width:0.5;" x1="1285.5" x2="1382.5" y1="326.6094" y2="326.6094"/><text fill="#000000" font-family="sans-serif" font-size="14" lengthAdjust="spacing" textLength="87" x="1290.5" y="345.1426">+value: String</text><line style="stroke:#181818;stroke-width:0.5;" x1="1285.5" x2="1382.5" y1="352.2188" y2="352.2188"/></g><!--class Email--><g id="elem_Email"><rect codeLine="21" fill="#F1F1F1" height="65.6094" id="Email" rx="2.5" ry="2.5" style="stroke:#181818;stroke-width:0.5;" width="116" x="1419" y="294.6094"/><ellipse cx="1456.5" cy="310.6094" fill="#ADD1B2" rx="11" ry="11" style="stroke:#181818;stroke-width:1.0;"/><path d="M1459.2656,306.4844 Q1459.4219,306.2656 1459.6094,306.1563 Q1459.7969,306.0469 1460.0156,306.0469 Q1460.3906,306.0469 1460.625,306.3125 Q1460.8594,306.5625 1460.8594,307.1719 L1460.8594,308.625 Q1460.8594,309.2344 1460.625,309.5 Q1460.3906,309.7656 1460.0156,309.7656 Q1459.6719,309.7656 1459.4688,309.5625 Q1459.2656,309.375 1459.1563,308.8594 Q1459.1094,308.5 1458.9219,308.3125 Q1458.5938,307.9375 1457.9844,307.7188 Q1457.375,307.5 1456.75,307.5 Q1455.9844,307.5 1455.3438,307.8281 Q1454.7188,308.1563 1454.2188,308.9063 Q1453.7344,309.6563 1453.7344,310.6875 L1453.7344,311.7813 Q1453.7344,313.0156 1454.625,313.8438 Q1455.5156,314.6563 1457.1094,314.6563 Q1458.0469,314.6563 1458.7031,314.4063 Q1459.0938,314.25 1459.5156,313.8125 Q1459.7813,313.5469 1459.9219,313.4688 Q1460.0781,313.3906 1460.2813,313.3906 Q1460.6094,313.3906 1460.8594,313.6563 Q1461.125,313.9063 1461.125,314.25 Q1461.125,314.5938 1460.7813,315 Q1460.2813,315.5781 1459.4844,315.9063 Q1458.4063,316.3594 1457.1094,316.3594 Q1455.5938,316.3594 1454.3906,315.7344 Q1453.4063,315.2344 1452.7188,314.1719 Q1452.0313,313.0938 1452.0313,311.8125 L1452.0313,310.6563 Q1452.0313,309.3281 1452.6406,308.1875 Q1453.2656,307.0313 1454.3594,306.4219 Q1455.4531,305.7969 1456.6875,305.7969 Q1457.4219,305.7969 1458.0625,305.9688 Q1458.7188,306.125 1459.2656,306.4844 Z " fill="#000000"/><text fill="#000000" font-family="sans-serif" font-size="14" lengthAdjust="spacing" textLength="34" x="1475.5" y="316.3379">Email</text><line style="stroke:#181818;stroke-width:0.5;" x1="1420" x2="1534" y1="326.6094" y2="326.6094"/><text fill="#000000" font-family="sans-serif" font-size="14" lengthAdjust="spacing" textLength="104" x="1425" y="345.1426">+address: String</text><line style="stroke:#181818;stroke-width:0.5;" x1="1420" x2="1534" y1="352.2188" y2="352.2188"/></g><!--class Role--><g id="elem_Role"><rect codeLine="25" fill="#F1F1F1" height="136.0469" id="Role" rx="2.5" ry="2.5" style="stroke:#181818;stroke-width:0.5;" width="92" x="7" y="259.6094"/><ellipse cx="35.95" cy="275.6094" fill="#EB937F" rx="11" ry="11" style="stroke:#181818;stroke-width:1.0;"/><path d="M34.8094,276.4063 L34.8094,278.9063 L39.1375,278.9063 L39.1375,277.9844 Q39.1375,277.375 39.3719,277.1094 Q39.6219,276.8438 39.9969,276.8438 Q40.3719,276.8438 40.6063,277.1094 Q40.8406,277.375 40.8406,277.9844 L40.8406,280.6094 L32.8406,280.6094 Q32.2156,280.6094 31.95,280.375 Q31.7,280.1406 31.7,279.75 Q31.7,279.375 31.9656,279.1406 Q32.2313,278.9063 32.8406,278.9063 L33.1063,278.9063 L33.1063,272.25 L32.8406,272.25 Q32.2156,272.25 31.95,272.0156 Q31.7,271.7813 31.7,271.3906 Q31.7,271.0156 31.95,270.7813 Q32.2156,270.5469 32.8406,270.5469 L40.4656,270.5469 L40.4656,273.1406 Q40.4656,273.75 40.2313,274.0156 Q40.0125,274.2656 39.6219,274.2656 Q39.2469,274.2656 39.0125,274.0156 Q38.7781,273.75 38.7781,273.1406 L38.7781,272.25 L34.8094,272.25 L34.8094,274.7031 L36.2938,274.7031 Q36.2938,274.0469 36.4188,273.8594 Q36.6844,273.4531 37.1531,273.4531 Q37.5281,273.4531 37.7625,273.7188 Q37.9969,273.9688 37.9969,274.5781 L37.9969,276.5469 Q37.9969,277.0938 37.8719,277.2813 Q37.6063,277.6719 37.1531,277.6719 Q36.6844,277.6719 36.4188,277.2656 Q36.2938,277.0781 36.2938,276.4063 L34.8094,276.4063 Z " fill="#000000"/><text fill="#000000" font-family="sans-serif" font-size="14" lengthAdjust="spacing" textLength="29" x="53.05" y="281.3379">Role</text><line style="stroke:#181818;stroke-width:0.5;" x1="8" x2="98" y1="291.6094" y2="291.6094"/><text fill="#000000" font-family="sans-serif" font-size="14" lengthAdjust="spacing" textLength="42" x="13" y="310.1426">ADMIN</text><text fill="#000000" font-family="sans-serif" font-size="14" lengthAdjust="spacing" textLength="61" x="13" y="327.752">DOCTOR</text><text fill="#000000" font-family="sans-serif" font-size="14" lengthAdjust="spacing" textLength="46" x="13" y="345.3613">NURSE</text><text fill="#000000" font-family="sans-serif" font-size="14" lengthAdjust="spacing" textLength="80" x="13" y="362.9707">TECHNICIAN</text><text fill="#000000" font-family="sans-serif" font-size="14" lengthAdjust="spacing" textLength="57" x="13" y="380.5801">PATIENT</text><line style="stroke:#181818;stroke-width:0.5;" x1="8" x2="98" y1="387.6563" y2="387.6563"/></g><g id="elem_GMN6"><path d="M134.5,314.6094 L134.5,323.6094 L99.02,327.6094 L134.5,331.6094 L134.5,340.9609 A0,0 0 0 0 134.5,340.9609 L725.5,340.9609 A0,0 0 0 0 725.5,340.9609 L725.5,324.6094 L715.5,314.6094 L134.5,314.6094 A0,0 0 0 0 134.5,314.6094 " fill="#FEFFDD" style="stroke:#181818;stroke-width:0.5;"/><path d="M715.5,314.6094 L715.5,324.6094 L725.5,324.6094 L715.5,314.6094 " fill="#FEFFDD" style="stroke:#181818;stroke-width:0.5;"/><text fill="#000000" font-family="sans-serif" font-size="13" lengthAdjust="spacing" textLength="570" x="140.5" y="333.1045">in this Use Case, only Backoffice Roles are considered (ADMIN, DOCTOR, NURSE, TECHNICIAN)</text></g><!--class UserStatus--><g id="elem_UserStatus"><rect codeLine="34" fill="#F1F1F1" height="118.4375" id="UserStatus" rx="2.5" ry="2.5" style="stroke:#181818;stroke-width:0.5;" width="101" x="760.5" y="268.6094"/><ellipse cx="775.5" cy="284.6094" fill="#EB937F" rx="11" ry="11" style="stroke:#181818;stroke-width:1.0;"/><path d="M774.3594,285.4063 L774.3594,287.9063 L778.6875,287.9063 L778.6875,286.9844 Q778.6875,286.375 778.9219,286.1094 Q779.1719,285.8438 779.5469,285.8438 Q779.9219,285.8438 780.1563,286.1094 Q780.3906,286.375 780.3906,286.9844 L780.3906,289.6094 L772.3906,289.6094 Q771.7656,289.6094 771.5,289.375 Q771.25,289.1406 771.25,288.75 Q771.25,288.375 771.5156,288.1406 Q771.7813,287.9063 772.3906,287.9063 L772.6563,287.9063 L772.6563,281.25 L772.3906,281.25 Q771.7656,281.25 771.5,281.0156 Q771.25,280.7813 771.25,280.3906 Q771.25,280.0156 771.5,279.7813 Q771.7656,279.5469 772.3906,279.5469 L780.0156,279.5469 L780.0156,282.1406 Q780.0156,282.75 779.7813,283.0156 Q779.5625,283.2656 779.1719,283.2656 Q778.7969,283.2656 778.5625,283.0156 Q778.3281,282.75 778.3281,282.1406 L778.3281,281.25 L774.3594,281.25 L774.3594,283.7031 L775.8438,283.7031 Q775.8438,283.0469 775.9688,282.8594 Q776.2344,282.4531 776.7031,282.4531 Q777.0781,282.4531 777.3125,282.7188 Q777.5469,282.9688 777.5469,283.5781 L777.5469,285.5469 Q777.5469,286.0938 777.4219,286.2813 Q777.1563,286.6719 776.7031,286.6719 Q776.2344,286.6719 775.9688,286.2656 Q775.8438,286.0781 775.8438,285.4063 L774.3594,285.4063 Z " fill="#000000"/><text fill="#000000" font-family="sans-serif" font-size="14" lengthAdjust="spacing" textLength="69" x="789.5" y="290.3379">UserStatus</text><line style="stroke:#181818;stroke-width:0.5;" x1="761.5" x2="860.5" y1="300.6094" y2="300.6094"/><text fill="#000000" font-family="sans-serif" font-size="14" lengthAdjust="spacing" textLength="49" x="766.5" y="319.1426">ACTIVE</text><text fill="#000000" font-family="sans-serif" font-size="14" lengthAdjust="spacing" textLength="61" x="766.5" y="336.752">INACTIVE</text><text fill="#000000" font-family="sans-serif" font-size="14" lengthAdjust="spacing" textLength="60" x="766.5" y="354.3613">PENDING</text><text fill="#000000" font-family="sans-serif" font-size="14" lengthAdjust="spacing" textLength="66" x="766.5" y="371.9707">BLOCKED</text><line style="stroke:#181818;stroke-width:0.5;" x1="761.5" x2="860.5" y1="379.0469" y2="379.0469"/></g><g id="elem_GMN10"><path d="M897,314.6094 L897,323.6094 L861.66,327.6094 L897,331.6094 L897,340.9609 A0,0 0 0 0 897,340.9609 L1249,340.9609 A0,0 0 0 0 1249,340.9609 L1249,324.6094 L1239,314.6094 L897,314.6094 A0,0 0 0 0 897,314.6094 " fill="#FEFFDD" style="stroke:#181818;stroke-width:0.5;"/><path d="M1239,314.6094 L1239,324.6094 L1249,324.6094 L1239,314.6094 " fill="#FEFFDD" style="stroke:#181818;stroke-width:0.5;"/><text fill="#000000" font-family="sans-serif" font-size="13" lengthAdjust="spacing" textLength="331" x="903" y="333.1045">when a backoffice user is created, its status is PENDING</text></g><!--class Admin--><g id="elem_Admin"><rect codeLine="42" fill="#F1F1F1" height="58.7031" id="Admin" rx="2.5" ry="2.5" style="stroke:#181818;stroke-width:0.5;" width="133" x="1025.5" y="84.1094"/><ellipse cx="1040.5" cy="105.4609" fill="#ADD1B2" rx="11" ry="11" style="stroke:#181818;stroke-width:1.0;"/><path d="M1043.2656,101.3359 Q1043.4219,101.1172 1043.6094,101.0078 Q1043.7969,100.8984 1044.0156,100.8984 Q1044.3906,100.8984 1044.625,101.1641 Q1044.8594,101.4141 1044.8594,102.0234 L1044.8594,103.4766 Q1044.8594,104.0859 1044.625,104.3516 Q1044.3906,104.6172 1044.0156,104.6172 Q1043.6719,104.6172 1043.4688,104.4141 Q1043.2656,104.2266 1043.1563,103.7109 Q1043.1094,103.3516 1042.9219,103.1641 Q1042.5938,102.7891 1041.9844,102.5703 Q1041.375,102.3516 1040.75,102.3516 Q1039.9844,102.3516 1039.3438,102.6797 Q1038.7188,103.0078 1038.2188,103.7578 Q1037.7344,104.5078 1037.7344,105.5391 L1037.7344,106.6328 Q1037.7344,107.8672 1038.625,108.6953 Q1039.5156,109.5078 1041.1094,109.5078 Q1042.0469,109.5078 1042.7031,109.2578 Q1043.0938,109.1016 1043.5156,108.6641 Q1043.7813,108.3984 1043.9219,108.3203 Q1044.0781,108.2422 1044.2813,108.2422 Q1044.6094,108.2422 1044.8594,108.5078 Q1045.125,108.7578 1045.125,109.1016 Q1045.125,109.4453 1044.7813,109.8516 Q1044.2813,110.4297 1043.4844,110.7578 Q1042.4063,111.2109 1041.1094,111.2109 Q1039.5938,111.2109 1038.3906,110.5859 Q1037.4063,110.0859 1036.7188,109.0234 Q1036.0313,107.9453 1036.0313,106.6641 L1036.0313,105.5078 Q1036.0313,104.1797 1036.6406,103.0391 Q1037.2656,101.8828 1038.3594,101.2734 Q1039.4531,100.6484 1040.6875,100.6484 Q1041.4219,100.6484 1042.0625,100.8203 Q1042.7188,100.9766 1043.2656,101.3359 Z " fill="#000000"/><text fill="#000000" font-family="sans-serif" font-size="12" font-style="italic" lengthAdjust="spacing" textLength="105" x="1052.5" y="101.5664">&#171;conceptual class&#187;</text><text fill="#000000" font-family="sans-serif" font-size="14" lengthAdjust="spacing" textLength="39" x="1085.5" y="118.7363">Admin</text><line style="stroke:#181818;stroke-width:0.5;" x1="1026.5" x2="1157.5" y1="126.8125" y2="126.8125"/><line style="stroke:#181818;stroke-width:0.5;" x1="1026.5" x2="1157.5" y1="134.8125" y2="134.8125"/></g><!--class UserId--><g id="elem_UserId"><rect fill="#F1F1F1" height="48" id="UserId" rx="2.5" ry="2.5" style="stroke:#181818;stroke-width:0.5;" width="72" x="1570" y="303.6094"/><ellipse cx="1585" cy="319.6094" fill="#ADD1B2" rx="11" ry="11" style="stroke:#181818;stroke-width:1.0;"/><path d="M1587.7656,315.4844 Q1587.9219,315.2656 1588.1094,315.1563 Q1588.2969,315.0469 1588.5156,315.0469 Q1588.8906,315.0469 1589.125,315.3125 Q1589.3594,315.5625 1589.3594,316.1719 L1589.3594,317.625 Q1589.3594,318.2344 1589.125,318.5 Q1588.8906,318.7656 1588.5156,318.7656 Q1588.1719,318.7656 1587.9688,318.5625 Q1587.7656,318.375 1587.6563,317.8594 Q1587.6094,317.5 1587.4219,317.3125 Q1587.0938,316.9375 1586.4844,316.7188 Q1585.875,316.5 1585.25,316.5 Q1584.4844,316.5 1583.8438,316.8281 Q1583.2188,317.1563 1582.7188,317.9063 Q1582.2344,318.6563 1582.2344,319.6875 L1582.2344,320.7813 Q1582.2344,322.0156 1583.125,322.8438 Q1584.0156,323.6563 1585.6094,323.6563 Q1586.5469,323.6563 1587.2031,323.4063 Q1587.5938,323.25 1588.0156,322.8125 Q1588.2813,322.5469 1588.4219,322.4688 Q1588.5781,322.3906 1588.7813,322.3906 Q1589.1094,322.3906 1589.3594,322.6563 Q1589.625,322.9063 1589.625,323.25 Q1589.625,323.5938 1589.2813,324 Q1588.7813,324.5781 1587.9844,324.9063 Q1586.9063,325.3594 1585.6094,325.3594 Q1584.0938,325.3594 1582.8906,324.7344 Q1581.9063,324.2344 1581.2188,323.1719 Q1580.5313,322.0938 1580.5313,320.8125 L1580.5313,319.6563 Q1580.5313,318.3281 1581.1406,317.1875 Q1581.7656,316.0313 1582.8594,315.4219 Q1583.9531,314.7969 1585.1875,314.7969 Q1585.9219,314.7969 1586.5625,314.9688 Q1587.2188,315.125 1587.7656,315.4844 Z " fill="#000000"/><text fill="#000000" font-family="sans-serif" font-size="14" lengthAdjust="spacing" textLength="40" x="1599" y="325.3379">UserId</text><line style="stroke:#181818;stroke-width:0.5;" x1="1571" x2="1641" y1="335.6094" y2="335.6094"/><line style="stroke:#181818;stroke-width:0.5;" x1="1571" x2="1641" y1="343.6094" y2="343.6094"/></g><!--link Admin to User--><g id="link_Admin_User"><path codeLine="44" d="M1158.77,113.6094 C1187.17,113.6094 1214.59,113.6094 1244.6,113.6094 " fill="none" id="Admin-to-User" style="stroke:#181818;stroke-width:1.0;"/><polygon fill="#181818" points="1250.6,113.6094,1241.6,109.6094,1245.6,113.6094,1241.6,117.6094,1250.6,113.6094" style="stroke:#181818;stroke-width:1.0;"/><polygon fill="#000000" points="1185.75,101.7852,1176.7049,98.8462,1176.7049,104.7241,1185.75,101.7852" style="stroke:#000000;stroke-width:1.0;"/><text fill="#000000" font-family="sans-serif" font-size="13" lengthAdjust="spacing" textLength="43" x="1189.75" y="107.1045">creates</text><text fill="#000000" font-family="sans-serif" font-size="13" lengthAdjust="spacing" textLength="7" x="1166.4558" y="110.265">1</text><text fill="#000000" font-family="sans-serif" font-size="13" lengthAdjust="spacing" textLength="5" x="1237.9495" y="110.4056">*</text></g><!--link User to UserId--><g id="link_User_UserId"><path codeLine="46" d="M1417.26,161.0994 C1460.17,187.1294 1511.95,221.8894 1553,259.6094 C1567.2,272.6594 1577.1408,284.8554 1586.9408,298.5054 " fill="none" id="User-to-UserId" style="stroke:#181818;stroke-width:1.0;"/><polygon fill="#181818" points="1590.44,303.3794,1588.4404,293.7356,1587.524,299.3178,1581.9418,298.4013,1590.44,303.3794" style="stroke:#181818;stroke-width:1.0;"/><polygon fill="#000000" points="1523.8857,223.9318,1518.7059,215.9555,1515.0069,220.5235,1523.8857,223.9318" style="stroke:#000000;stroke-width:1.0;"/><text fill="#000000" font-family="sans-serif" font-size="13" lengthAdjust="spacing" textLength="21" x="1529" y="226.1045">has</text><text fill="#000000" font-family="sans-serif" font-size="13" lengthAdjust="spacing" textLength="7" x="1424.9871" y="162.1251">1</text><text fill="#000000" font-family="sans-serif" font-size="13" lengthAdjust="spacing" textLength="7" x="1578.5559" y="292.6606">1</text></g><!--link User to Username--><g id="link_User_Username"><path codeLine="47" d="M1334,181.6894 C1334,219.4094 1334,258.7794 1334,288.5794 " fill="none" id="User-to-Username" style="stroke:#181818;stroke-width:1.0;"/><polygon fill="#181818" points="1334,294.5794,1338,285.5794,1334,289.5794,1330,285.5794,1334,294.5794" style="stroke:#181818;stroke-width:1.0;"/><polygon fill="#000000" points="1339,225.7852,1341.9389,216.7401,1336.0611,216.7401,1339,225.7852" style="stroke:#000000;stroke-width:1.0;"/><text fill="#000000" font-family="sans-serif" font-size="13" lengthAdjust="spacing" textLength="21" x="1348" y="226.1045">has</text><text fill="#000000" font-family="sans-serif" font-size="13" lengthAdjust="spacing" textLength="7" x="1326.6391" y="203.046">1</text><text fill="#000000" font-family="sans-serif" font-size="13" lengthAdjust="spacing" textLength="7" x="1326.2781" y="283.6886">1</text></g><!--link User to Email--><g id="link_User_Email"><path codeLine="48" d="M1379.25,181.6894 C1404.69,219.4094 1431.9337,259.8059 1452.0437,289.6059 " fill="none" id="User-to-Email" style="stroke:#181818;stroke-width:1.0;"/><polygon fill="#181818" points="1455.4,294.5794,1453.6813,284.8816,1452.6031,290.4348,1447.05,289.3567,1455.4,294.5794" style="stroke:#181818;stroke-width:1.0;"/><polygon fill="#000000" points="1417.796,224.9303,1415.1744,215.7882,1410.3015,219.0751,1417.796,224.9303" style="stroke:#000000;stroke-width:1.0;"/><text fill="#000000" font-family="sans-serif" font-size="13" lengthAdjust="spacing" textLength="21" x="1424" y="226.1045">has</text><text fill="#000000" font-family="sans-serif" font-size="13" lengthAdjust="spacing" textLength="7" x="1376.5555" y="203.046">1</text><text fill="#000000" font-family="sans-serif" font-size="13" lengthAdjust="spacing" textLength="7" x="1443.2231" y="283.6886">1</text></g><!--link User to Role--><g id="link_User_Role"><path codeLine="49" d="M1250.87,155.8594 C1227.21,165.9394 1201.05,175.5494 1176,181.6094 C946.64,237.0794 330.4,158.9094 117,259.6094 C110.74,262.5594 109.5038,262.7099 103.9238,267.0799 " fill="none" id="User-to-Role" style="stroke:#181818;stroke-width:1.0;"/><polygon fill="#181818" points="99.2,270.7794,108.752,268.3794,103.1365,267.6965,103.8194,262.081,99.2,270.7794" style="stroke:#181818;stroke-width:1.0;"/><polygon fill="#000000" points="352.0233,221.2677,361.3099,223.3199,360.7425,217.4695,352.0233,221.2677" style="stroke:#000000;stroke-width:1.0;"/><text fill="#000000" font-family="sans-serif" font-size="13" lengthAdjust="spacing" textLength="21" x="366" y="226.1045">has</text><text fill="#000000" font-family="sans-serif" font-size="13" lengthAdjust="spacing" textLength="5" x="1237.976" y="174.001">*</text><text fill="#000000" font-family="sans-serif" font-size="13" lengthAdjust="spacing" textLength="7" x="107.1209" y="257.9665">1</text></g><!--link User to UserStatus--><g id="link_User_UserStatus"><path codeLine="50" d="M1250.82,152.5294 C1226.94,162.6994 1200.67,173.1894 1176,181.6094 C1046.84,225.6994 997.61,192.0994 879,259.6094 C873.09,262.9694 872.0451,263.2463 866.5351,267.6063 " fill="none" id="User-to-UserStatus" style="stroke:#181818;stroke-width:1.0;"/><polygon fill="#181818" points="861.83,271.3294,871.3698,268.8814,865.751,268.2268,866.4056,262.6079,861.83,271.3294" style="stroke:#181818;stroke-width:1.0;"/><polygon fill="#000000" points="1024.2102,222.2195,1033.7182,222.4401,1032.032,216.8093,1024.2102,222.2195" style="stroke:#000000;stroke-width:1.0;"/><text fill="#000000" font-family="sans-serif" font-size="13" lengthAdjust="spacing" textLength="21" x="1038" y="226.1045">has</text><text fill="#000000" font-family="sans-serif" font-size="13" lengthAdjust="spacing" textLength="5" x="1237.9214" y="152.889">*</text><text fill="#000000" font-family="sans-serif" font-size="13" lengthAdjust="spacing" textLength="7" x="869.4702" y="259.7791">1</text></g><!--SRC=[TL9DRvmm4BtxLupsbAH4shskefM8GIbgoqOBs_i4Pi6ACIji6gLL_tlz0GMf3GSOvZtFUpCU_IhK5GViu8hLApPKc7T9C51bK3MIcFvBq2tM_PjG3LnGQc8hg9AeTMpC85v6GrdLgqBy9DWoPeInvRZ38H7OEFODJsxX7ivykzqnvi_2MTC0lnZOvvEBiteFJwEebup2ZlOmHo6VTYZa7lmdP4wzj2ptNauM1isemzaGizzhNLTlrlw1ShG52jkAQXQQLvWvMDS3QRrcaHexhpfnukHRblieEVBoUF9XVZuLgO_Ab7_ECvx5WVCSbrcQbxQGweqTlcXQ0_q5GZD2WMc5jmeSDKNGA_aEZ_Q- -ij5LEHv6d0Wi9FNegQ1QhZn7gB9G1JKevNqxMHx6SjidfVPzs0qorS_pscUPFcJZn-_7lcNDFd7ydhURoqfG7XPZ8xkbcqhrK1eg8v060qwQDlqB30DFQuxs_l3WssgegiPKOP5EnmO2zXcju7x0spkDbvuFnNMO1b-epp1CNQ1uTQgHOV_5muxzW5XMhOrUhUWuQu-0DTJ2PG_]--></g></svg>