<?xml version="1.0" encoding="us-ascii" standalone="no"?><svg xmlns="http://www.w3.org/2000/svg" xmlns:xlink="http://www.w3.org/1999/xlink" contentStyleType="text/css" height="779px" preserveAspectRatio="none" style="width:802px;height:779px;background:#FFFFFF;" version="1.1" viewBox="0 0 802 779" width="802px" zoomAndPan="magnify"><defs/><g><text fill="#000000" font-family="sans-serif" font-size="14" font-weight="bold" lengthAdjust="spacing" textLength="222" x="289" y="29.5332">Sequence Diagram (SD) - UC001</text><rect fill="#FFFFFF" height="507.2734" style="stroke:#181818;stroke-width:1.0;" width="10" x="108" y="157.1797"/><rect fill="#FFFFFF" height="446.5703" style="stroke:#181818;stroke-width:1.0;" width="10" x="223" y="187.5313"/><rect fill="#FFFFFF" height="73.7031" style="stroke:#181818;stroke-width:1.0;" width="10" x="450" y="261.2344"/><rect fill="#FFFFFF" height="73.7031" style="stroke:#181818;stroke-width:1.0;" width="10" x="450" y="365.2891"/><rect fill="#FFFFFF" height="91.0547" style="stroke:#181818;stroke-width:1.0;" width="10" x="450" y="469.3438"/><rect fill="#FFFFFF" height="30.3516" style="stroke:#181818;stroke-width:1.0;" width="10" x="639" y="499.6953"/><line style="stroke:#181818;stroke-width:0.5;stroke-dasharray:5.0,5.0;" x1="112.5" x2="112.5" y1="124.8281" y2="682.4531"/><line style="stroke:#181818;stroke-width:0.5;stroke-dasharray:5.0,5.0;" x1="227.5" x2="227.5" y1="124.8281" y2="682.4531"/><line style="stroke:#181818;stroke-width:0.5;stroke-dasharray:5.0,5.0;" x1="454.5" x2="454.5" y1="124.8281" y2="682.4531"/><line style="stroke:#181818;stroke-width:0.5;stroke-dasharray:5.0,5.0;" x1="644" x2="644" y1="124.8281" y2="682.4531"/><line style="stroke:#181818;stroke-width:0.5;stroke-dasharray:5.0,5.0;" x1="753" x2="753" y1="124.8281" y2="682.4531"/><rect fill="#E2E2F0" height="49.2188" rx="2.5" ry="2.5" style="stroke:#181818;stroke-width:0.5;" width="105" x="60.5" y="74.6094"/><text fill="#000000" font-family="sans-serif" font-size="14" font-style="italic" lengthAdjust="spacing" textLength="84" x="71" y="96.1426">&#171;application&#187;</text><text fill="#000000" font-family="sans-serif" font-size="14" lengthAdjust="spacing" textLength="91" x="67.5" y="113.752">UserController</text><rect fill="#E2E2F0" height="49.2188" rx="2.5" ry="2.5" style="stroke:#181818;stroke-width:0.5;" width="105" x="60.5" y="681.4531"/><text fill="#000000" font-family="sans-serif" font-size="14" font-style="italic" lengthAdjust="spacing" textLength="84" x="71" y="702.9863">&#171;application&#187;</text><text fill="#000000" font-family="sans-serif" font-size="14" lengthAdjust="spacing" textLength="91" x="67.5" y="720.5957">UserController</text><rect fill="#E2E2F0" height="49.2188" rx="2.5" ry="2.5" style="stroke:#181818;stroke-width:0.5;" width="103" x="176.5" y="74.6094"/><text fill="#000000" font-family="sans-serif" font-size="14" font-style="italic" lengthAdjust="spacing" textLength="89" x="183.5" y="96.1426">&#171;persistence&#187;</text><text fill="#000000" font-family="sans-serif" font-size="14" lengthAdjust="spacing" textLength="76" x="190" y="113.752">UserService</text><rect fill="#E2E2F0" height="49.2188" rx="2.5" ry="2.5" style="stroke:#181818;stroke-width:0.5;" width="103" x="176.5" y="681.4531"/><text fill="#000000" font-family="sans-serif" font-size="14" font-style="italic" lengthAdjust="spacing" textLength="89" x="183.5" y="702.9863">&#171;persistence&#187;</text><text fill="#000000" font-family="sans-serif" font-size="14" lengthAdjust="spacing" textLength="76" x="190" y="720.5957">UserService</text><text fill="#000000" font-family="sans-serif" font-size="14" font-style="italic" lengthAdjust="spacing" textLength="79" x="412.5" y="104.1426">&#171;repository&#187;</text><text fill="#000000" font-family="sans-serif" font-size="14" lengthAdjust="spacing" textLength="97" x="403.5" y="121.752">UserRepository</text><path d="M437,53.6094 C437,43.6094 455,43.6094 455,43.6094 C455,43.6094 473,43.6094 473,53.6094 L473,79.6094 C473,89.6094 455,89.6094 455,89.6094 C455,89.6094 437,89.6094 437,79.6094 L437,53.6094 " fill="#E2E2F0" style="stroke:#181818;stroke-width:1.5;"/><path d="M437,53.6094 C437,63.6094 455,63.6094 455,63.6094 C455,63.6094 473,63.6094 473,53.6094 " fill="none" style="stroke:#181818;stroke-width:1.5;"/><text fill="#000000" font-family="sans-serif" font-size="14" font-style="italic" lengthAdjust="spacing" textLength="79" x="412.5" y="695.9863">&#171;repository&#187;</text><text fill="#000000" font-family="sans-serif" font-size="14" lengthAdjust="spacing" textLength="97" x="403.5" y="713.5957">UserRepository</text><path d="M437,726.6719 C437,716.6719 455,716.6719 455,716.6719 C455,716.6719 473,716.6719 473,726.6719 L473,752.6719 C473,762.6719 455,762.6719 455,762.6719 C455,762.6719 437,762.6719 437,752.6719 L437,726.6719 " fill="#E2E2F0" style="stroke:#181818;stroke-width:1.5;"/><path d="M437,726.6719 C437,736.6719 455,736.6719 455,736.6719 C455,736.6719 473,736.6719 473,726.6719 " fill="none" style="stroke:#181818;stroke-width:1.5;"/><rect fill="#E2E2F0" height="49.2188" rx="2.5" ry="2.5" style="stroke:#181818;stroke-width:0.5;" width="114" x="587" y="74.6094"/><text fill="#000000" font-family="sans-serif" font-size="14" font-style="italic" lengthAdjust="spacing" textLength="89" x="599.5" y="96.1426">&#171;persistence&#187;</text><text fill="#000000" font-family="sans-serif" font-size="14" lengthAdjust="spacing" textLength="100" x="594" y="113.752">IUserRepository</text><rect fill="#E2E2F0" height="49.2188" rx="2.5" ry="2.5" style="stroke:#181818;stroke-width:0.5;" width="114" x="587" y="681.4531"/><text fill="#000000" font-family="sans-serif" font-size="14" font-style="italic" lengthAdjust="spacing" textLength="89" x="599.5" y="702.9863">&#171;persistence&#187;</text><text fill="#000000" font-family="sans-serif" font-size="14" lengthAdjust="spacing" textLength="100" x="594" y="720.5957">IUserRepository</text><rect fill="#E2E2F0" height="31.6094" rx="2.5" ry="2.5" style="stroke:#181818;stroke-width:0.5;" width="85" x="711" y="92.2188"/><text fill="#000000" font-family="sans-serif" font-size="14" lengthAdjust="spacing" textLength="71" x="718" y="113.752">IRepository</text><rect fill="#E2E2F0" height="31.6094" rx="2.5" ry="2.5" style="stroke:#181818;stroke-width:0.5;" width="85" x="711" y="681.4531"/><text fill="#000000" font-family="sans-serif" font-size="14" lengthAdjust="spacing" textLength="71" x="718" y="702.9863">IRepository</text><rect fill="#FFFFFF" height="507.2734" style="stroke:#181818;stroke-width:1.0;" width="10" x="108" y="157.1797"/><rect fill="#FFFFFF" height="446.5703" style="stroke:#181818;stroke-width:1.0;" width="10" x="223" y="187.5313"/><rect fill="#FFFFFF" height="73.7031" style="stroke:#181818;stroke-width:1.0;" width="10" x="450" y="261.2344"/><rect fill="#FFFFFF" height="73.7031" style="stroke:#181818;stroke-width:1.0;" width="10" x="450" y="365.2891"/><rect fill="#FFFFFF" height="91.0547" style="stroke:#181818;stroke-width:1.0;" width="10" x="450" y="469.3438"/><rect fill="#FFFFFF" height="30.3516" style="stroke:#181818;stroke-width:1.0;" width="10" x="639" y="499.6953"/><polygon fill="#181818" points="96,153.1797,106,157.1797,96,161.1797,100,157.1797" style="stroke:#181818;stroke-width:1.0;"/><line style="stroke:#181818;stroke-width:1.0;" x1="0" x2="102" y1="157.1797" y2="157.1797"/><text fill="#000000" font-family="sans-serif" font-size="13" lengthAdjust="spacing" textLength="89" x="7" y="152.3232">POST /api/user</text><polygon fill="#181818" points="211,183.5313,221,187.5313,211,191.5313,215,187.5313" style="stroke:#181818;stroke-width:1.0;"/><line style="stroke:#181818;stroke-width:1.0;" x1="118" x2="217" y1="187.5313" y2="187.5313"/><text fill="#000000" font-family="sans-serif" font-size="13" lengthAdjust="spacing" textLength="86" x="125" y="182.6748">AddAsync(dto)</text><line style="stroke:#181818;stroke-width:1.0;" x1="233" x2="275" y1="217.8828" y2="217.8828"/><line style="stroke:#181818;stroke-width:1.0;" x1="275" x2="275" y1="217.8828" y2="230.8828"/><line style="stroke:#181818;stroke-width:1.0;" x1="234" x2="275" y1="230.8828" y2="230.8828"/><polygon fill="#181818" points="244,226.8828,234,230.8828,244,234.8828,240,230.8828" style="stroke:#181818;stroke-width:1.0;"/><text fill="#000000" font-family="sans-serif" font-size="13" lengthAdjust="spacing" textLength="201" x="240" y="213.0264">ValidateUsernameAndEmail(email)</text><polygon fill="#181818" points="438,257.2344,448,261.2344,438,265.2344,442,261.2344" style="stroke:#181818;stroke-width:1.0;"/><line style="stroke:#181818;stroke-width:1.0;" x1="233" x2="444" y1="261.2344" y2="261.2344"/><text fill="#000000" font-family="sans-serif" font-size="13" lengthAdjust="spacing" textLength="198" x="240" y="256.3779">GetByUsernameAsync(username)</text><line style="stroke:#181818;stroke-width:1.0;" x1="460" x2="502" y1="291.5859" y2="291.5859"/><line style="stroke:#181818;stroke-width:1.0;" x1="502" x2="502" y1="291.5859" y2="304.5859"/><line style="stroke:#181818;stroke-width:1.0;" x1="461" x2="502" y1="304.5859" y2="304.5859"/><polygon fill="#181818" points="471,300.5859,461,304.5859,471,308.5859,467,304.5859" style="stroke:#181818;stroke-width:1.0;"/><text fill="#000000" font-family="sans-serif" font-size="13" lengthAdjust="spacing" textLength="165" x="467" y="286.7295">FindByUsername(username)</text><polygon fill="#181818" points="244,330.9375,234,334.9375,244,338.9375,240,334.9375" style="stroke:#181818;stroke-width:1.0;"/><line style="stroke:#181818;stroke-width:1.0;stroke-dasharray:2.0,2.0;" x1="238" x2="454" y1="334.9375" y2="334.9375"/><text fill="#000000" font-family="sans-serif" font-size="13" lengthAdjust="spacing" textLength="20" x="250" y="330.0811">null</text><polygon fill="#181818" points="438,361.2891,448,365.2891,438,369.2891,442,365.2891" style="stroke:#181818;stroke-width:1.0;"/><line style="stroke:#181818;stroke-width:1.0;" x1="233" x2="444" y1="365.2891" y2="365.2891"/><text fill="#000000" font-family="sans-serif" font-size="13" lengthAdjust="spacing" textLength="146" x="240" y="360.4326">GetByEmailAsync(email)</text><line style="stroke:#181818;stroke-width:1.0;" x1="460" x2="502" y1="395.6406" y2="395.6406"/><line style="stroke:#181818;stroke-width:1.0;" x1="502" x2="502" y1="395.6406" y2="408.6406"/><line style="stroke:#181818;stroke-width:1.0;" x1="461" x2="502" y1="408.6406" y2="408.6406"/><polygon fill="#181818" points="471,404.6406,461,408.6406,471,412.6406,467,408.6406" style="stroke:#181818;stroke-width:1.0;"/><text fill="#000000" font-family="sans-serif" font-size="13" lengthAdjust="spacing" textLength="113" x="467" y="390.7842">FindByEmail(email)</text><polygon fill="#181818" points="244,434.9922,234,438.9922,244,442.9922,240,438.9922" style="stroke:#181818;stroke-width:1.0;"/><line style="stroke:#181818;stroke-width:1.0;stroke-dasharray:2.0,2.0;" x1="238" x2="454" y1="438.9922" y2="438.9922"/><text fill="#000000" font-family="sans-serif" font-size="13" lengthAdjust="spacing" textLength="20" x="250" y="434.1357">null</text><polygon fill="#181818" points="438,465.3438,448,469.3438,438,473.3438,442,469.3438" style="stroke:#181818;stroke-width:1.0;"/><line style="stroke:#181818;stroke-width:1.0;" x1="233" x2="444" y1="469.3438" y2="469.3438"/><text fill="#000000" font-family="sans-serif" font-size="13" lengthAdjust="spacing" textLength="86" x="240" y="464.4873">AddAsync(dto)</text><polygon fill="#181818" points="741.5,495.6953,751.5,499.6953,741.5,503.6953,745.5,499.6953" style="stroke:#181818;stroke-width:1.0;"/><line style="stroke:#181818;stroke-width:1.0;" x1="460" x2="747.5" y1="499.6953" y2="499.6953"/><text fill="#000000" font-family="sans-serif" font-size="13" lengthAdjust="spacing" textLength="86" x="467" y="494.8389">AddAsync(dto)</text><polygon fill="#181818" points="471,526.0469,461,530.0469,471,534.0469,467,530.0469" style="stroke:#181818;stroke-width:1.0;"/><line style="stroke:#181818;stroke-width:1.0;stroke-dasharray:2.0,2.0;" x1="465" x2="643" y1="530.0469" y2="530.0469"/><text fill="#000000" font-family="sans-serif" font-size="13" lengthAdjust="spacing" textLength="25" x="477" y="525.1904">user</text><polygon fill="#181818" points="244,556.3984,234,560.3984,244,564.3984,240,560.3984" style="stroke:#181818;stroke-width:1.0;"/><line style="stroke:#181818;stroke-width:1.0;stroke-dasharray:2.0,2.0;" x1="238" x2="454" y1="560.3984" y2="560.3984"/><text fill="#000000" font-family="sans-serif" font-size="13" lengthAdjust="spacing" textLength="25" x="250" y="555.542">user</text><line style="stroke:#181818;stroke-width:1.0;" x1="233" x2="275" y1="590.75" y2="590.75"/><line style="stroke:#181818;stroke-width:1.0;" x1="275" x2="275" y1="590.75" y2="603.75"/><line style="stroke:#181818;stroke-width:1.0;" x1="234" x2="275" y1="603.75" y2="603.75"/><polygon fill="#181818" points="244,599.75,234,603.75,244,607.75,240,603.75" style="stroke:#181818;stroke-width:1.0;"/><text fill="#000000" font-family="sans-serif" font-size="13" lengthAdjust="spacing" textLength="174" x="240" y="585.8936">SendConfirmationEmail(email)</text><polygon fill="#181818" points="129,630.1016,119,634.1016,129,638.1016,125,634.1016" style="stroke:#181818;stroke-width:1.0;"/><line style="stroke:#181818;stroke-width:1.0;stroke-dasharray:2.0,2.0;" x1="123" x2="227" y1="634.1016" y2="634.1016"/><text fill="#000000" font-family="sans-serif" font-size="13" lengthAdjust="spacing" textLength="18" x="135" y="629.2451">dto</text><polygon fill="#181818" points="11,660.4531,1,664.4531,11,668.4531,7,664.4531" style="stroke:#181818;stroke-width:1.0;"/><line style="stroke:#181818;stroke-width:1.0;stroke-dasharray:2.0,2.0;" x1="5" x2="112" y1="664.4531" y2="664.4531"/><text fill="#000000" font-family="sans-serif" font-size="13" lengthAdjust="spacing" textLength="18" x="17" y="659.5967">dto</text><!--SRC=[nLHDRzim3BthL-YO78ncry08aBNRaDE6UjsTjTYCg29f4jt2-_MJxDIMdVHh630T3D7YUu-FDXNkoJZmS90EwdlOOyMjHkcnPZ1xZI8C2U4dAFj8PY_lG8VyH9D1RXrAPtMR0f4TrXf2s39xkcqOTxKr5Vr6kHA2YQDKXRyQD3NAAu9z0YoggwKivCtbQlL1Y4Z2L9C3m_8ceB-qXhtL6hs48BEeBC4vJJKmMRFPd00hz0yKPIBgQLkM3dsWm4a_GXGmt4B0BlyQdGt4rhS9aaLbwOTWfhCx1UvIUA8aYarM-rf- -rfzbnVWwAA93490pVG0Z5cI43Akp72aE1fPowrIsz2QUg7OBllCWUAOrBzDwyb-Jl03D4Nxc0mOEE3Mg4y78Bt0z5oU1Oz6r_8ByiTs07UbDCTeEM27pL3RI34gf9NrS2RqcOmQbSw8J8JcNBbbqsWzgYfyiQYNR7UDwZqVk_Nl3Ky-nd-nUkON-mjdk-SfdtKrI7JWANjQ_OWLithxGShpCjyzqxlxEELyUny7WWgDYYDyH_xGtLElpDZibeXjwfCovSbqbqLn2iYIizla3m00]--></g></svg>