<?xml version="1.0" encoding="us-ascii" standalone="no"?><svg xmlns="http://www.w3.org/2000/svg" xmlns:xlink="http://www.w3.org/1999/xlink" contentStyleType="text/css" height="957px" preserveAspectRatio="none" style="width:1612px;height:957px;background:#FFFFFF;" version="1.1" viewBox="0 0 1612 957" width="1612px" zoomAndPan="magnify"><defs/><g><text fill="#000000" font-family="sans-serif" font-size="14" font-weight="bold" lengthAdjust="spacing" textLength="190" x="704" y="24.5332">Class Diagram (CD) - UC021</text><!--class OperationTypeController--><g id="elem_OperationTypeController"><rect codeLine="12" fill="#F1F1F1" height="83.2188" id="OperationTypeController" rx="2.5" ry="2.5" style="stroke:#181818;stroke-width:0.5;" width="487" x="569.5" y="45.6094"/><ellipse cx="730.25" cy="61.6094" fill="#ADD1B2" rx="11" ry="11" style="stroke:#181818;stroke-width:1.0;"/><path d="M733.0156,57.4844 Q733.1719,57.2656 733.3594,57.1563 Q733.5469,57.0469 733.7656,57.0469 Q734.1406,57.0469 734.375,57.3125 Q734.6094,57.5625 734.6094,58.1719 L734.6094,59.625 Q734.6094,60.2344 734.375,60.5 Q734.1406,60.7656 733.7656,60.7656 Q733.4219,60.7656 733.2188,60.5625 Q733.0156,60.375 732.9063,59.8594 Q732.8594,59.5 732.6719,59.3125 Q732.3438,58.9375 731.7344,58.7188 Q731.125,58.5 730.5,58.5 Q729.7344,58.5 729.0938,58.8281 Q728.4688,59.1563 727.9688,59.9063 Q727.4844,60.6563 727.4844,61.6875 L727.4844,62.7813 Q727.4844,64.0156 728.375,64.8438 Q729.2656,65.6563 730.8594,65.6563 Q731.7969,65.6563 732.4531,65.4063 Q732.8438,65.25 733.2656,64.8125 Q733.5313,64.5469 733.6719,64.4688 Q733.8281,64.3906 734.0313,64.3906 Q734.3594,64.3906 734.6094,64.6563 Q734.875,64.9063 734.875,65.25 Q734.875,65.5938 734.5313,66 Q734.0313,66.5781 733.2344,66.9063 Q732.1563,67.3594 730.8594,67.3594 Q729.3438,67.3594 728.1406,66.7344 Q727.1563,66.2344 726.4688,65.1719 Q725.7813,64.0938 725.7813,62.8125 L725.7813,61.6563 Q725.7813,60.3281 726.3906,59.1875 Q727.0156,58.0313 728.1094,57.4219 Q729.2031,56.7969 730.4375,56.7969 Q731.1719,56.7969 731.8125,56.9688 Q732.4688,57.125 733.0156,57.4844 Z " fill="#000000"/><text fill="#000000" font-family="sans-serif" font-size="14" lengthAdjust="spacing" textLength="157" x="750.75" y="67.3379">OperationTypeController</text><line style="stroke:#181818;stroke-width:0.5;" x1="570.5" x2="1055.5" y1="77.6094" y2="77.6094"/><line style="stroke:#181818;stroke-width:0.5;" x1="570.5" x2="1055.5" y1="85.6094" y2="85.6094"/><text fill="#000000" font-family="sans-serif" font-size="14" lengthAdjust="spacing" textLength="439" x="575.5" y="104.1426">+GetByName(name: Name): Task&lt;ActionResult&lt;OperationTypeDto&gt;&gt;</text><text fill="#000000" font-family="sans-serif" font-size="14" lengthAdjust="spacing" textLength="475" x="575.5" y="121.752">+Update(dto: OperationTypeDto): Task&lt;ActionResult&lt;OperationTypeDto&gt;&gt;</text></g><!--class OperationTypeService--><g id="elem_OperationTypeService"><rect codeLine="17" fill="#F1F1F1" height="100.8281" id="OperationTypeService" rx="2.5" ry="2.5" style="stroke:#181818;stroke-width:0.5;" width="430" x="732" y="188.6094"/><ellipse cx="871.75" cy="204.6094" fill="#ADD1B2" rx="11" ry="11" style="stroke:#181818;stroke-width:1.0;"/><path d="M874.5156,200.4844 Q874.6719,200.2656 874.8594,200.1563 Q875.0469,200.0469 875.2656,200.0469 Q875.6406,200.0469 875.875,200.3125 Q876.1094,200.5625 876.1094,201.1719 L876.1094,202.625 Q876.1094,203.2344 875.875,203.5 Q875.6406,203.7656 875.2656,203.7656 Q874.9219,203.7656 874.7188,203.5625 Q874.5156,203.375 874.4063,202.8594 Q874.3594,202.5 874.1719,202.3125 Q873.8438,201.9375 873.2344,201.7188 Q872.625,201.5 872,201.5 Q871.2344,201.5 870.5938,201.8281 Q869.9688,202.1563 869.4688,202.9063 Q868.9844,203.6563 868.9844,204.6875 L868.9844,205.7813 Q868.9844,207.0156 869.875,207.8438 Q870.7656,208.6563 872.3594,208.6563 Q873.2969,208.6563 873.9531,208.4063 Q874.3438,208.25 874.7656,207.8125 Q875.0313,207.5469 875.1719,207.4688 Q875.3281,207.3906 875.5313,207.3906 Q875.8594,207.3906 876.1094,207.6563 Q876.375,207.9063 876.375,208.25 Q876.375,208.5938 876.0313,209 Q875.5313,209.5781 874.7344,209.9063 Q873.6563,210.3594 872.3594,210.3594 Q870.8438,210.3594 869.6406,209.7344 Q868.6563,209.2344 867.9688,208.1719 Q867.2813,207.0938 867.2813,205.8125 L867.2813,204.6563 Q867.2813,203.3281 867.8906,202.1875 Q868.5156,201.0313 869.6094,200.4219 Q870.7031,199.7969 871.9375,199.7969 Q872.6719,199.7969 873.3125,199.9688 Q873.9688,200.125 874.5156,200.4844 Z " fill="#000000"/><text fill="#000000" font-family="sans-serif" font-size="14" lengthAdjust="spacing" textLength="142" x="892.25" y="210.3379">OperationTypeService</text><line style="stroke:#181818;stroke-width:0.5;" x1="733" x2="1161" y1="220.6094" y2="220.6094"/><line style="stroke:#181818;stroke-width:0.5;" x1="733" x2="1161" y1="228.6094" y2="228.6094"/><text fill="#000000" font-family="sans-serif" font-size="14" lengthAdjust="spacing" textLength="382" x="738" y="247.1426">+GetByNameAsync(name: Name): Task&lt;OperationTypeDto&gt;</text><text fill="#000000" font-family="sans-serif" font-size="14" lengthAdjust="spacing" textLength="361" x="738" y="264.752">+ValidateOperationTypeName(name: Name): Task&lt;bool&gt;</text><text fill="#000000" font-family="sans-serif" font-size="14" lengthAdjust="spacing" textLength="418" x="738" y="282.3613">+UpdateAsync(dto: OperationTypeDto): Task&lt;OperationTypeDto&gt;</text></g><!--class OperationTypeRepository--><g id="elem_OperationTypeRepository"><rect codeLine="23" fill="#F1F1F1" height="83.2188" id="OperationTypeRepository" rx="2.5" ry="2.5" style="stroke:#181818;stroke-width:0.5;" width="408" x="1197" y="197.6094"/><ellipse cx="1315.25" cy="213.6094" fill="#ADD1B2" rx="11" ry="11" style="stroke:#181818;stroke-width:1.0;"/><path d="M1318.0156,209.4844 Q1318.1719,209.2656 1318.3594,209.1563 Q1318.5469,209.0469 1318.7656,209.0469 Q1319.1406,209.0469 1319.375,209.3125 Q1319.6094,209.5625 1319.6094,210.1719 L1319.6094,211.625 Q1319.6094,212.2344 1319.375,212.5 Q1319.1406,212.7656 1318.7656,212.7656 Q1318.4219,212.7656 1318.2188,212.5625 Q1318.0156,212.375 1317.9063,211.8594 Q1317.8594,211.5 1317.6719,211.3125 Q1317.3438,210.9375 1316.7344,210.7188 Q1316.125,210.5 1315.5,210.5 Q1314.7344,210.5 1314.0938,210.8281 Q1313.4688,211.1563 1312.9688,211.9063 Q1312.4844,212.6563 1312.4844,213.6875 L1312.4844,214.7813 Q1312.4844,216.0156 1313.375,216.8438 Q1314.2656,217.6563 1315.8594,217.6563 Q1316.7969,217.6563 1317.4531,217.4063 Q1317.8438,217.25 1318.2656,216.8125 Q1318.5313,216.5469 1318.6719,216.4688 Q1318.8281,216.3906 1319.0313,216.3906 Q1319.3594,216.3906 1319.6094,216.6563 Q1319.875,216.9063 1319.875,217.25 Q1319.875,217.5938 1319.5313,218 Q1319.0313,218.5781 1318.2344,218.9063 Q1317.1563,219.3594 1315.8594,219.3594 Q1314.3438,219.3594 1313.1406,218.7344 Q1312.1563,218.2344 1311.4688,217.1719 Q1310.7813,216.0938 1310.7813,214.8125 L1310.7813,213.6563 Q1310.7813,212.3281 1311.3906,211.1875 Q1312.0156,210.0313 1313.1094,209.4219 Q1314.2031,208.7969 1315.4375,208.7969 Q1316.1719,208.7969 1316.8125,208.9688 Q1317.4688,209.125 1318.0156,209.4844 Z " fill="#000000"/><text fill="#000000" font-family="sans-serif" font-size="14" lengthAdjust="spacing" textLength="163" x="1335.75" y="219.3379">OperationTypeRepository</text><line style="stroke:#181818;stroke-width:0.5;" x1="1198" x2="1604" y1="229.6094" y2="229.6094"/><line style="stroke:#181818;stroke-width:0.5;" x1="1198" x2="1604" y1="237.6094" y2="237.6094"/><text fill="#000000" font-family="sans-serif" font-size="14" lengthAdjust="spacing" textLength="360" x="1203" y="256.1426">+GetByNameAsync(name: Name): Task&lt;OperationType&gt;</text><text fill="#000000" font-family="sans-serif" font-size="14" lengthAdjust="spacing" textLength="396" x="1203" y="273.752">+UpdateAsync(dto: OperationTypeDto): Task&lt;OperationType&gt;</text></g><!--class IOperationTypeRepository--><g id="elem_IOperationTypeRepository"><rect codeLine="28" fill="#F1F1F1" height="83.2188" id="IOperationTypeRepository" rx="2.5" ry="2.5" style="stroke:#181818;stroke-width:0.5;" width="408" x="1197" y="349.6094"/><ellipse cx="1313.25" cy="365.6094" fill="#B4A7E5" rx="11" ry="11" style="stroke:#181818;stroke-width:1.0;"/><path d="M1314.2031,362.25 L1314.2031,368.9063 L1315.9219,368.9063 Q1316.5313,368.9063 1316.7969,369.1406 Q1317.0625,369.375 1317.0625,369.7656 Q1317.0625,370.1406 1316.7969,370.375 Q1316.5313,370.6094 1315.9219,370.6094 L1310.7813,370.6094 Q1310.1719,370.6094 1309.9063,370.375 Q1309.6406,370.1406 1309.6406,369.75 Q1309.6406,369.375 1309.9063,369.1406 Q1310.1719,368.9063 1310.7813,368.9063 L1312.5,368.9063 L1312.5,362.25 L1310.7813,362.25 Q1310.1719,362.25 1309.9063,362.0156 Q1309.6406,361.7813 1309.6406,361.3906 Q1309.6406,361.0156 1309.9063,360.7813 Q1310.1719,360.5469 1310.7813,360.5469 L1315.9219,360.5469 Q1316.5313,360.5469 1316.7969,360.7813 Q1317.0625,361.0156 1317.0625,361.3906 Q1317.0625,361.7813 1316.7969,362.0156 Q1316.5313,362.25 1315.9219,362.25 L1314.2031,362.25 Z " fill="#000000"/><text fill="#000000" font-family="sans-serif" font-size="14" font-style="italic" lengthAdjust="spacing" textLength="167" x="1333.75" y="371.3379">IOperationTypeRepository</text><line style="stroke:#181818;stroke-width:0.5;" x1="1198" x2="1604" y1="381.6094" y2="381.6094"/><line style="stroke:#181818;stroke-width:0.5;" x1="1198" x2="1604" y1="389.6094" y2="389.6094"/><text fill="#000000" font-family="sans-serif" font-size="14" lengthAdjust="spacing" textLength="360" x="1203" y="408.1426">+GetByNameAsync(name: Name): Task&lt;OperationType&gt;</text><text fill="#000000" font-family="sans-serif" font-size="14" lengthAdjust="spacing" textLength="396" x="1203" y="425.752">+UpdateAsync(dto: OperationTypeDto): Task&lt;OperationType&gt;</text></g><!--class OperationType--><g id="elem_OperationType"><rect codeLine="33" fill="#F1F1F1" height="206.4844" id="OperationType" rx="2.5" ry="2.5" style="stroke:#181818;stroke-width:0.5;" width="424" x="859" y="492.6094"/><ellipse cx="1019.25" cy="508.6094" fill="#ADD1B2" rx="11" ry="11" style="stroke:#181818;stroke-width:1.0;"/><path d="M1022.0156,504.4844 Q1022.1719,504.2656 1022.3594,504.1563 Q1022.5469,504.0469 1022.7656,504.0469 Q1023.1406,504.0469 1023.375,504.3125 Q1023.6094,504.5625 1023.6094,505.1719 L1023.6094,506.625 Q1023.6094,507.2344 1023.375,507.5 Q1023.1406,507.7656 1022.7656,507.7656 Q1022.4219,507.7656 1022.2188,507.5625 Q1022.0156,507.375 1021.9063,506.8594 Q1021.8594,506.5 1021.6719,506.3125 Q1021.3438,505.9375 1020.7344,505.7188 Q1020.125,505.5 1019.5,505.5 Q1018.7344,505.5 1018.0938,505.8281 Q1017.4688,506.1563 1016.9688,506.9063 Q1016.4844,507.6563 1016.4844,508.6875 L1016.4844,509.7813 Q1016.4844,511.0156 1017.375,511.8438 Q1018.2656,512.6563 1019.8594,512.6563 Q1020.7969,512.6563 1021.4531,512.4063 Q1021.8438,512.25 1022.2656,511.8125 Q1022.5313,511.5469 1022.6719,511.4688 Q1022.8281,511.3906 1023.0313,511.3906 Q1023.3594,511.3906 1023.6094,511.6563 Q1023.875,511.9063 1023.875,512.25 Q1023.875,512.5938 1023.5313,513 Q1023.0313,513.5781 1022.2344,513.9063 Q1021.1563,514.3594 1019.8594,514.3594 Q1018.3438,514.3594 1017.1406,513.7344 Q1016.1563,513.2344 1015.4688,512.1719 Q1014.7813,511.0938 1014.7813,509.8125 L1014.7813,508.6563 Q1014.7813,507.3281 1015.3906,506.1875 Q1016.0156,505.0313 1017.1094,504.4219 Q1018.2031,503.7969 1019.4375,503.7969 Q1020.1719,503.7969 1020.8125,503.9688 Q1021.4688,504.125 1022.0156,504.4844 Z " fill="#000000"/><text fill="#000000" font-family="sans-serif" font-size="14" lengthAdjust="spacing" textLength="95" x="1039.75" y="514.3379">OperationType</text><line style="stroke:#181818;stroke-width:0.5;" x1="860" x2="1282" y1="524.6094" y2="524.6094"/><text fill="#000000" font-family="sans-serif" font-size="14" lengthAdjust="spacing" textLength="135" x="865" y="543.1426">+Id: OperationTypeID</text><text fill="#000000" font-family="sans-serif" font-size="14" lengthAdjust="spacing" textLength="88" x="865" y="560.752">+Name: Name</text><text fill="#000000" font-family="sans-serif" font-size="14" lengthAdjust="spacing" textLength="188" x="865" y="578.3613">+Specialization: Specialization</text><text fill="#000000" font-family="sans-serif" font-size="14" lengthAdjust="spacing" textLength="228" x="865" y="595.9707">+RequiredStaff: List&lt;RequiredStaff&gt;</text><text fill="#000000" font-family="sans-serif" font-size="14" lengthAdjust="spacing" textLength="218" x="865" y="613.5801">+PhasesDuration: PhasesDuration</text><line style="stroke:#181818;stroke-width:0.5;" x1="860" x2="1282" y1="620.6563" y2="620.6563"/><text fill="#000000" font-family="sans-serif" font-size="14" lengthAdjust="spacing" textLength="217" x="865" y="639.1895">+ChangeName(name: Name): void</text><text fill="#000000" font-family="sans-serif" font-size="14" lengthAdjust="spacing" textLength="366" x="865" y="656.7988">+ChangeSpecialization(specialization: Specialization): void</text><text fill="#000000" font-family="sans-serif" font-size="14" lengthAdjust="spacing" textLength="404" x="865" y="674.4082">+ChangeRequiredStaff(requiredStaff: List&lt;RequiredStaff&gt;): void</text><text fill="#000000" font-family="sans-serif" font-size="14" lengthAdjust="spacing" textLength="412" x="865" y="692.0176">+ChangePhasesDuration(phasesDuration: PhasesDuration): void</text></g><!--class OperationTypeDto--><g id="elem_OperationTypeDto"><rect codeLine="45" fill="#F1F1F1" height="136.0469" id="OperationTypeDto" rx="2.5" ry="2.5" style="stroke:#181818;stroke-width:0.5;" width="240" x="584" y="527.6094"/><ellipse cx="641.25" cy="543.6094" fill="#ADD1B2" rx="11" ry="11" style="stroke:#181818;stroke-width:1.0;"/><path d="M644.0156,539.4844 Q644.1719,539.2656 644.3594,539.1563 Q644.5469,539.0469 644.7656,539.0469 Q645.1406,539.0469 645.375,539.3125 Q645.6094,539.5625 645.6094,540.1719 L645.6094,541.625 Q645.6094,542.2344 645.375,542.5 Q645.1406,542.7656 644.7656,542.7656 Q644.4219,542.7656 644.2188,542.5625 Q644.0156,542.375 643.9063,541.8594 Q643.8594,541.5 643.6719,541.3125 Q643.3438,540.9375 642.7344,540.7188 Q642.125,540.5 641.5,540.5 Q640.7344,540.5 640.0938,540.8281 Q639.4688,541.1563 638.9688,541.9063 Q638.4844,542.6563 638.4844,543.6875 L638.4844,544.7813 Q638.4844,546.0156 639.375,546.8438 Q640.2656,547.6563 641.8594,547.6563 Q642.7969,547.6563 643.4531,547.4063 Q643.8438,547.25 644.2656,546.8125 Q644.5313,546.5469 644.6719,546.4688 Q644.8281,546.3906 645.0313,546.3906 Q645.3594,546.3906 645.6094,546.6563 Q645.875,546.9063 645.875,547.25 Q645.875,547.5938 645.5313,548 Q645.0313,548.5781 644.2344,548.9063 Q643.1563,549.3594 641.8594,549.3594 Q640.3438,549.3594 639.1406,548.7344 Q638.1563,548.2344 637.4688,547.1719 Q636.7813,546.0938 636.7813,544.8125 L636.7813,543.6563 Q636.7813,542.3281 637.3906,541.1875 Q638.0156,540.0313 639.1094,539.4219 Q640.2031,538.7969 641.4375,538.7969 Q642.1719,538.7969 642.8125,538.9688 Q643.4688,539.125 644.0156,539.4844 Z " fill="#000000"/><text fill="#000000" font-family="sans-serif" font-size="14" lengthAdjust="spacing" textLength="117" x="661.75" y="549.3379">OperationTypeDto</text><line style="stroke:#181818;stroke-width:0.5;" x1="585" x2="823" y1="559.6094" y2="559.6094"/><text fill="#000000" font-family="sans-serif" font-size="14" lengthAdjust="spacing" textLength="135" x="590" y="578.1426">+Id: OperationTypeID</text><text fill="#000000" font-family="sans-serif" font-size="14" lengthAdjust="spacing" textLength="88" x="590" y="595.752">+Name: Name</text><text fill="#000000" font-family="sans-serif" font-size="14" lengthAdjust="spacing" textLength="188" x="590" y="613.3613">+Specialization: Specialization</text><text fill="#000000" font-family="sans-serif" font-size="14" lengthAdjust="spacing" textLength="228" x="590" y="630.9707">+RequiredStaff: List&lt;RequiredStaff&gt;</text><text fill="#000000" font-family="sans-serif" font-size="14" lengthAdjust="spacing" textLength="218" x="590" y="648.5801">+PhasesDuration: PhasesDuration</text><line style="stroke:#181818;stroke-width:0.5;" x1="585" x2="823" y1="655.6563" y2="655.6563"/></g><!--class RequiredStaff--><g id="elem_RequiredStaff"><rect codeLine="53" fill="#F1F1F1" height="65.6094" id="RequiredStaff" rx="2.5" ry="2.5" style="stroke:#181818;stroke-width:0.5;" width="258" x="7" y="758.6094"/><ellipse cx="88.25" cy="774.6094" fill="#ADD1B2" rx="11" ry="11" style="stroke:#181818;stroke-width:1.0;"/><path d="M91.0156,770.4844 Q91.1719,770.2656 91.3594,770.1563 Q91.5469,770.0469 91.7656,770.0469 Q92.1406,770.0469 92.375,770.3125 Q92.6094,770.5625 92.6094,771.1719 L92.6094,772.625 Q92.6094,773.2344 92.375,773.5 Q92.1406,773.7656 91.7656,773.7656 Q91.4219,773.7656 91.2188,773.5625 Q91.0156,773.375 90.9063,772.8594 Q90.8594,772.5 90.6719,772.3125 Q90.3438,771.9375 89.7344,771.7188 Q89.125,771.5 88.5,771.5 Q87.7344,771.5 87.0938,771.8281 Q86.4688,772.1563 85.9688,772.9063 Q85.4844,773.6563 85.4844,774.6875 L85.4844,775.7813 Q85.4844,777.0156 86.375,777.8438 Q87.2656,778.6563 88.8594,778.6563 Q89.7969,778.6563 90.4531,778.4063 Q90.8438,778.25 91.2656,777.8125 Q91.5313,777.5469 91.6719,777.4688 Q91.8281,777.3906 92.0313,777.3906 Q92.3594,777.3906 92.6094,777.6563 Q92.875,777.9063 92.875,778.25 Q92.875,778.5938 92.5313,779 Q92.0313,779.5781 91.2344,779.9063 Q90.1563,780.3594 88.8594,780.3594 Q87.3438,780.3594 86.1406,779.7344 Q85.1563,779.2344 84.4688,778.1719 Q83.7813,777.0938 83.7813,775.8125 L83.7813,774.6563 Q83.7813,773.3281 84.3906,772.1875 Q85.0156,771.0313 86.1094,770.4219 Q87.2031,769.7969 88.4375,769.7969 Q89.1719,769.7969 89.8125,769.9688 Q90.4688,770.125 91.0156,770.4844 Z " fill="#000000"/><text fill="#000000" font-family="sans-serif" font-size="14" lengthAdjust="spacing" textLength="87" x="108.75" y="780.3379">RequiredStaff</text><line style="stroke:#181818;stroke-width:0.5;" x1="8" x2="264" y1="790.6094" y2="790.6094"/><text fill="#000000" font-family="sans-serif" font-size="14" lengthAdjust="spacing" textLength="246" x="13" y="809.1426">-_staff: Dictionary&lt;Role, StaffQuantity&gt;</text><line style="stroke:#181818;stroke-width:0.5;" x1="8" x2="264" y1="816.2188" y2="816.2188"/></g><g id="elem_GMN9"><path d="M300,778.6094 L300,787.6094 L265.43,791.6094 L300,795.6094 L300,804.9609 A0,0 0 0 0 300,804.9609 L644,804.9609 A0,0 0 0 0 644,804.9609 L644,788.6094 L634,778.6094 L300,778.6094 A0,0 0 0 0 300,778.6094 " fill="#FEFFDD" style="stroke:#181818;stroke-width:0.5;"/><path d="M634,778.6094 L634,788.6094 L644,788.6094 L634,778.6094 " fill="#FEFFDD" style="stroke:#181818;stroke-width:0.5;"/><text fill="#000000" font-family="sans-serif" font-size="13" lengthAdjust="spacing" textLength="323" x="306" y="797.1045">Role can only be a staff role: Doctor, Nurse or Assistant</text></g><!--class Quantity--><g id="elem_Quantity"><rect codeLine="60" fill="#F1F1F1" height="65.6094" id="Quantity" rx="2.5" ry="2.5" style="stroke:#181818;stroke-width:0.5;" width="96" x="88" y="884.6094"/><ellipse cx="107.95" cy="900.6094" fill="#ADD1B2" rx="11" ry="11" style="stroke:#181818;stroke-width:1.0;"/><path d="M110.7156,896.4844 Q110.8719,896.2656 111.0594,896.1563 Q111.2469,896.0469 111.4656,896.0469 Q111.8406,896.0469 112.075,896.3125 Q112.3094,896.5625 112.3094,897.1719 L112.3094,898.625 Q112.3094,899.2344 112.075,899.5 Q111.8406,899.7656 111.4656,899.7656 Q111.1219,899.7656 110.9188,899.5625 Q110.7156,899.375 110.6063,898.8594 Q110.5594,898.5 110.3719,898.3125 Q110.0438,897.9375 109.4344,897.7188 Q108.825,897.5 108.2,897.5 Q107.4344,897.5 106.7938,897.8281 Q106.1688,898.1563 105.6688,898.9063 Q105.1844,899.6563 105.1844,900.6875 L105.1844,901.7813 Q105.1844,903.0156 106.075,903.8438 Q106.9656,904.6563 108.5594,904.6563 Q109.4969,904.6563 110.1531,904.4063 Q110.5438,904.25 110.9656,903.8125 Q111.2313,903.5469 111.3719,903.4688 Q111.5281,903.3906 111.7313,903.3906 Q112.0594,903.3906 112.3094,903.6563 Q112.575,903.9063 112.575,904.25 Q112.575,904.5938 112.2313,905 Q111.7313,905.5781 110.9344,905.9063 Q109.8563,906.3594 108.5594,906.3594 Q107.0438,906.3594 105.8406,905.7344 Q104.8563,905.2344 104.1688,904.1719 Q103.4813,903.0938 103.4813,901.8125 L103.4813,900.6563 Q103.4813,899.3281 104.0906,898.1875 Q104.7156,897.0313 105.8094,896.4219 Q106.9031,895.7969 108.1375,895.7969 Q108.8719,895.7969 109.5125,895.9688 Q110.1688,896.125 110.7156,896.4844 Z " fill="#000000"/><text fill="#000000" font-family="sans-serif" font-size="14" lengthAdjust="spacing" textLength="53" x="123.05" y="906.3379">Quantity</text><line style="stroke:#181818;stroke-width:0.5;" x1="89" x2="183" y1="916.6094" y2="916.6094"/><text fill="#000000" font-family="sans-serif" font-size="14" lengthAdjust="spacing" textLength="84" x="94" y="935.1426">+Quantity: int</text><line style="stroke:#181818;stroke-width:0.5;" x1="89" x2="183" y1="942.2188" y2="942.2188"/></g><g id="elem_GMN13"><path d="M809.5,904.6094 L809.5,930.9609 L1014.5,930.9609 L1014.5,914.6094 L1004.5,904.6094 L809.5,904.6094 " fill="#FEFFDD" style="stroke:#181818;stroke-width:0.5;"/><path d="M1004.5,904.6094 L1004.5,914.6094 L1014.5,914.6094 L1004.5,904.6094 " fill="#FEFFDD" style="stroke:#181818;stroke-width:1.0;"/><text fill="#000000" font-family="sans-serif" font-size="13" lengthAdjust="spacing" textLength="184" x="815.5" y="923.1045">Quantity must be greater than 0</text></g><!--class Specialization--><g id="elem_Specialization"><rect codeLine="67" fill="#F1F1F1" height="65.6094" id="Specialization" rx="2.5" ry="2.5" style="stroke:#181818;stroke-width:0.5;" width="178" x="596" y="884.6094"/><ellipse cx="638" cy="900.6094" fill="#ADD1B2" rx="11" ry="11" style="stroke:#181818;stroke-width:1.0;"/><path d="M640.7656,896.4844 Q640.9219,896.2656 641.1094,896.1563 Q641.2969,896.0469 641.5156,896.0469 Q641.8906,896.0469 642.125,896.3125 Q642.3594,896.5625 642.3594,897.1719 L642.3594,898.625 Q642.3594,899.2344 642.125,899.5 Q641.8906,899.7656 641.5156,899.7656 Q641.1719,899.7656 640.9688,899.5625 Q640.7656,899.375 640.6563,898.8594 Q640.6094,898.5 640.4219,898.3125 Q640.0938,897.9375 639.4844,897.7188 Q638.875,897.5 638.25,897.5 Q637.4844,897.5 636.8438,897.8281 Q636.2188,898.1563 635.7188,898.9063 Q635.2344,899.6563 635.2344,900.6875 L635.2344,901.7813 Q635.2344,903.0156 636.125,903.8438 Q637.0156,904.6563 638.6094,904.6563 Q639.5469,904.6563 640.2031,904.4063 Q640.5938,904.25 641.0156,903.8125 Q641.2813,903.5469 641.4219,903.4688 Q641.5781,903.3906 641.7813,903.3906 Q642.1094,903.3906 642.3594,903.6563 Q642.625,903.9063 642.625,904.25 Q642.625,904.5938 642.2813,905 Q641.7813,905.5781 640.9844,905.9063 Q639.9063,906.3594 638.6094,906.3594 Q637.0938,906.3594 635.8906,905.7344 Q634.9063,905.2344 634.2188,904.1719 Q633.5313,903.0938 633.5313,901.8125 L633.5313,900.6563 Q633.5313,899.3281 634.1406,898.1875 Q634.7656,897.0313 635.8594,896.4219 Q636.9531,895.7969 638.1875,895.7969 Q638.9219,895.7969 639.5625,895.9688 Q640.2188,896.125 640.7656,896.4844 Z " fill="#000000"/><text fill="#000000" font-family="sans-serif" font-size="14" lengthAdjust="spacing" textLength="86" x="658" y="906.3379">Specialization</text><line style="stroke:#181818;stroke-width:0.5;" x1="597" x2="773" y1="916.6094" y2="916.6094"/><text fill="#000000" font-family="sans-serif" font-size="14" lengthAdjust="spacing" textLength="166" x="602" y="935.1426">+Designation: Designation</text><line style="stroke:#181818;stroke-width:0.5;" x1="597" x2="773" y1="942.2188" y2="942.2188"/></g><!--class PhasesDuration--><g id="elem_PhasesDuration"><rect codeLine="71" fill="#F1F1F1" height="65.6094" id="PhasesDuration" rx="2.5" ry="2.5" style="stroke:#181818;stroke-width:0.5;" width="260" x="1131" y="758.6094"/><ellipse cx="1206.25" cy="774.6094" fill="#ADD1B2" rx="11" ry="11" style="stroke:#181818;stroke-width:1.0;"/><path d="M1209.0156,770.4844 Q1209.1719,770.2656 1209.3594,770.1563 Q1209.5469,770.0469 1209.7656,770.0469 Q1210.1406,770.0469 1210.375,770.3125 Q1210.6094,770.5625 1210.6094,771.1719 L1210.6094,772.625 Q1210.6094,773.2344 1210.375,773.5 Q1210.1406,773.7656 1209.7656,773.7656 Q1209.4219,773.7656 1209.2188,773.5625 Q1209.0156,773.375 1208.9063,772.8594 Q1208.8594,772.5 1208.6719,772.3125 Q1208.3438,771.9375 1207.7344,771.7188 Q1207.125,771.5 1206.5,771.5 Q1205.7344,771.5 1205.0938,771.8281 Q1204.4688,772.1563 1203.9688,772.9063 Q1203.4844,773.6563 1203.4844,774.6875 L1203.4844,775.7813 Q1203.4844,777.0156 1204.375,777.8438 Q1205.2656,778.6563 1206.8594,778.6563 Q1207.7969,778.6563 1208.4531,778.4063 Q1208.8438,778.25 1209.2656,777.8125 Q1209.5313,777.5469 1209.6719,777.4688 Q1209.8281,777.3906 1210.0313,777.3906 Q1210.3594,777.3906 1210.6094,777.6563 Q1210.875,777.9063 1210.875,778.25 Q1210.875,778.5938 1210.5313,779 Q1210.0313,779.5781 1209.2344,779.9063 Q1208.1563,780.3594 1206.8594,780.3594 Q1205.3438,780.3594 1204.1406,779.7344 Q1203.1563,779.2344 1202.4688,778.1719 Q1201.7813,777.0938 1201.7813,775.8125 L1201.7813,774.6563 Q1201.7813,773.3281 1202.3906,772.1875 Q1203.0156,771.0313 1204.1094,770.4219 Q1205.2031,769.7969 1206.4375,769.7969 Q1207.1719,769.7969 1207.8125,769.9688 Q1208.4688,770.125 1209.0156,770.4844 Z " fill="#000000"/><text fill="#000000" font-family="sans-serif" font-size="14" lengthAdjust="spacing" textLength="101" x="1226.75" y="780.3379">PhasesDuration</text><line style="stroke:#181818;stroke-width:0.5;" x1="1132" x2="1390" y1="790.6094" y2="790.6094"/><text fill="#000000" font-family="sans-serif" font-size="14" lengthAdjust="spacing" textLength="248" x="1137" y="809.1426">-_phases: Dictionary&lt;Phase, Duration&gt;</text><line style="stroke:#181818;stroke-width:0.5;" x1="1132" x2="1390" y1="816.2188" y2="816.2188"/></g><!--class Phase--><g id="elem_Phase"><rect codeLine="75" fill="#F1F1F1" height="65.6094" id="Phase" rx="2.5" ry="2.5" style="stroke:#181818;stroke-width:0.5;" width="260" x="1090" y="884.6094"/><ellipse cx="1195.75" cy="900.6094" fill="#EB937F" rx="11" ry="11" style="stroke:#181818;stroke-width:1.0;"/><path d="M1194.6094,901.4063 L1194.6094,903.9063 L1198.9375,903.9063 L1198.9375,902.9844 Q1198.9375,902.375 1199.1719,902.1094 Q1199.4219,901.8438 1199.7969,901.8438 Q1200.1719,901.8438 1200.4063,902.1094 Q1200.6406,902.375 1200.6406,902.9844 L1200.6406,905.6094 L1192.6406,905.6094 Q1192.0156,905.6094 1191.75,905.375 Q1191.5,905.1406 1191.5,904.75 Q1191.5,904.375 1191.7656,904.1406 Q1192.0313,903.9063 1192.6406,903.9063 L1192.9063,903.9063 L1192.9063,897.25 L1192.6406,897.25 Q1192.0156,897.25 1191.75,897.0156 Q1191.5,896.7813 1191.5,896.3906 Q1191.5,896.0156 1191.75,895.7813 Q1192.0156,895.5469 1192.6406,895.5469 L1200.2656,895.5469 L1200.2656,898.1406 Q1200.2656,898.75 1200.0313,899.0156 Q1199.8125,899.2656 1199.4219,899.2656 Q1199.0469,899.2656 1198.8125,899.0156 Q1198.5781,898.75 1198.5781,898.1406 L1198.5781,897.25 L1194.6094,897.25 L1194.6094,899.7031 L1196.0938,899.7031 Q1196.0938,899.0469 1196.2188,898.8594 Q1196.4844,898.4531 1196.9531,898.4531 Q1197.3281,898.4531 1197.5625,898.7188 Q1197.7969,898.9688 1197.7969,899.5781 L1197.7969,901.5469 Q1197.7969,902.0938 1197.6719,902.2813 Q1197.4063,902.6719 1196.9531,902.6719 Q1196.4844,902.6719 1196.2188,902.2656 Q1196.0938,902.0781 1196.0938,901.4063 L1194.6094,901.4063 Z " fill="#000000"/><text fill="#000000" font-family="sans-serif" font-size="14" lengthAdjust="spacing" textLength="40" x="1216.25" y="906.3379">Phase</text><line style="stroke:#181818;stroke-width:0.5;" x1="1091" x2="1349" y1="916.6094" y2="916.6094"/><text fill="#000000" font-family="sans-serif" font-size="14" lengthAdjust="spacing" textLength="248" x="1096" y="935.1426">PREPARATION, SURGERY, CLEANING</text><line style="stroke:#181818;stroke-width:0.5;" x1="1091" x2="1349" y1="942.2188" y2="942.2188"/></g><!--class Duration--><g id="elem_Duration"><rect codeLine="79" fill="#F1F1F1" height="65.6094" id="Duration" rx="2.5" ry="2.5" style="stroke:#181818;stroke-width:0.5;" width="92" x="1385" y="884.6094"/><ellipse cx="1402.7" cy="900.6094" fill="#ADD1B2" rx="11" ry="11" style="stroke:#181818;stroke-width:1.0;"/><path d="M1405.4656,896.4844 Q1405.6219,896.2656 1405.8094,896.1563 Q1405.9969,896.0469 1406.2156,896.0469 Q1406.5906,896.0469 1406.825,896.3125 Q1407.0594,896.5625 1407.0594,897.1719 L1407.0594,898.625 Q1407.0594,899.2344 1406.825,899.5 Q1406.5906,899.7656 1406.2156,899.7656 Q1405.8719,899.7656 1405.6688,899.5625 Q1405.4656,899.375 1405.3563,898.8594 Q1405.3094,898.5 1405.1219,898.3125 Q1404.7938,897.9375 1404.1844,897.7188 Q1403.575,897.5 1402.95,897.5 Q1402.1844,897.5 1401.5438,897.8281 Q1400.9188,898.1563 1400.4188,898.9063 Q1399.9344,899.6563 1399.9344,900.6875 L1399.9344,901.7813 Q1399.9344,903.0156 1400.825,903.8438 Q1401.7156,904.6563 1403.3094,904.6563 Q1404.2469,904.6563 1404.9031,904.4063 Q1405.2938,904.25 1405.7156,903.8125 Q1405.9813,903.5469 1406.1219,903.4688 Q1406.2781,903.3906 1406.4813,903.3906 Q1406.8094,903.3906 1407.0594,903.6563 Q1407.325,903.9063 1407.325,904.25 Q1407.325,904.5938 1406.9813,905 Q1406.4813,905.5781 1405.6844,905.9063 Q1404.6063,906.3594 1403.3094,906.3594 Q1401.7938,906.3594 1400.5906,905.7344 Q1399.6063,905.2344 1398.9188,904.1719 Q1398.2313,903.0938 1398.2313,901.8125 L1398.2313,900.6563 Q1398.2313,899.3281 1398.8406,898.1875 Q1399.4656,897.0313 1400.5594,896.4219 Q1401.6531,895.7969 1402.8875,895.7969 Q1403.6219,895.7969 1404.2625,895.9688 Q1404.9188,896.125 1405.4656,896.4844 Z " fill="#000000"/><text fill="#000000" font-family="sans-serif" font-size="14" lengthAdjust="spacing" textLength="54" x="1417.3" y="906.3379">Duration</text><line style="stroke:#181818;stroke-width:0.5;" x1="1386" x2="1476" y1="916.6094" y2="916.6094"/><text fill="#000000" font-family="sans-serif" font-size="14" lengthAdjust="spacing" textLength="80" x="1391" y="935.1426">+Minutes: int</text><line style="stroke:#181818;stroke-width:0.5;" x1="1386" x2="1476" y1="942.2188" y2="942.2188"/></g><!--class Name--><g id="elem_Name"><rect codeLine="83" fill="#F1F1F1" height="65.6094" id="Name" rx="2.5" ry="2.5" style="stroke:#181818;stroke-width:0.5;" width="99" x="925.5" y="758.6094"/><ellipse cx="954.45" cy="774.6094" fill="#ADD1B2" rx="11" ry="11" style="stroke:#181818;stroke-width:1.0;"/><path d="M957.2156,770.4844 Q957.3719,770.2656 957.5594,770.1563 Q957.7469,770.0469 957.9656,770.0469 Q958.3406,770.0469 958.575,770.3125 Q958.8094,770.5625 958.8094,771.1719 L958.8094,772.625 Q958.8094,773.2344 958.575,773.5 Q958.3406,773.7656 957.9656,773.7656 Q957.6219,773.7656 957.4188,773.5625 Q957.2156,773.375 957.1063,772.8594 Q957.0594,772.5 956.8719,772.3125 Q956.5438,771.9375 955.9344,771.7188 Q955.325,771.5 954.7,771.5 Q953.9344,771.5 953.2938,771.8281 Q952.6688,772.1563 952.1688,772.9063 Q951.6844,773.6563 951.6844,774.6875 L951.6844,775.7813 Q951.6844,777.0156 952.575,777.8438 Q953.4656,778.6563 955.0594,778.6563 Q955.9969,778.6563 956.6531,778.4063 Q957.0438,778.25 957.4656,777.8125 Q957.7313,777.5469 957.8719,777.4688 Q958.0281,777.3906 958.2313,777.3906 Q958.5594,777.3906 958.8094,777.6563 Q959.075,777.9063 959.075,778.25 Q959.075,778.5938 958.7313,779 Q958.2313,779.5781 957.4344,779.9063 Q956.3563,780.3594 955.0594,780.3594 Q953.5438,780.3594 952.3406,779.7344 Q951.3563,779.2344 950.6688,778.1719 Q949.9813,777.0938 949.9813,775.8125 L949.9813,774.6563 Q949.9813,773.3281 950.5906,772.1875 Q951.2156,771.0313 952.3094,770.4219 Q953.4031,769.7969 954.6375,769.7969 Q955.3719,769.7969 956.0125,769.9688 Q956.6688,770.125 957.2156,770.4844 Z " fill="#000000"/><text fill="#000000" font-family="sans-serif" font-size="14" lengthAdjust="spacing" textLength="36" x="971.55" y="780.3379">Name</text><line style="stroke:#181818;stroke-width:0.5;" x1="926.5" x2="1023.5" y1="790.6094" y2="790.6094"/><text fill="#000000" font-family="sans-serif" font-size="14" lengthAdjust="spacing" textLength="87" x="931.5" y="809.1426">+Name: string</text><line style="stroke:#181818;stroke-width:0.5;" x1="926.5" x2="1023.5" y1="816.2188" y2="816.2188"/></g><!--class OperationTypeID--><g id="elem_OperationTypeID"><rect codeLine="87" fill="#F1F1F1" height="65.6094" id="OperationTypeID" rx="2.5" ry="2.5" style="stroke:#181818;stroke-width:0.5;" width="140" x="750" y="758.6094"/><ellipse cx="765" cy="774.6094" fill="#ADD1B2" rx="11" ry="11" style="stroke:#181818;stroke-width:1.0;"/><path d="M767.7656,770.4844 Q767.9219,770.2656 768.1094,770.1563 Q768.2969,770.0469 768.5156,770.0469 Q768.8906,770.0469 769.125,770.3125 Q769.3594,770.5625 769.3594,771.1719 L769.3594,772.625 Q769.3594,773.2344 769.125,773.5 Q768.8906,773.7656 768.5156,773.7656 Q768.1719,773.7656 767.9688,773.5625 Q767.7656,773.375 767.6563,772.8594 Q767.6094,772.5 767.4219,772.3125 Q767.0938,771.9375 766.4844,771.7188 Q765.875,771.5 765.25,771.5 Q764.4844,771.5 763.8438,771.8281 Q763.2188,772.1563 762.7188,772.9063 Q762.2344,773.6563 762.2344,774.6875 L762.2344,775.7813 Q762.2344,777.0156 763.125,777.8438 Q764.0156,778.6563 765.6094,778.6563 Q766.5469,778.6563 767.2031,778.4063 Q767.5938,778.25 768.0156,777.8125 Q768.2813,777.5469 768.4219,777.4688 Q768.5781,777.3906 768.7813,777.3906 Q769.1094,777.3906 769.3594,777.6563 Q769.625,777.9063 769.625,778.25 Q769.625,778.5938 769.2813,779 Q768.7813,779.5781 767.9844,779.9063 Q766.9063,780.3594 765.6094,780.3594 Q764.0938,780.3594 762.8906,779.7344 Q761.9063,779.2344 761.2188,778.1719 Q760.5313,777.0938 760.5313,775.8125 L760.5313,774.6563 Q760.5313,773.3281 761.1406,772.1875 Q761.7656,771.0313 762.8594,770.4219 Q763.9531,769.7969 765.1875,769.7969 Q765.9219,769.7969 766.5625,769.9688 Q767.2188,770.125 767.7656,770.4844 Z " fill="#000000"/><text fill="#000000" font-family="sans-serif" font-size="14" lengthAdjust="spacing" textLength="108" x="779" y="780.3379">OperationTypeID</text><line style="stroke:#181818;stroke-width:0.5;" x1="751" x2="889" y1="790.6094" y2="790.6094"/><text fill="#000000" font-family="sans-serif" font-size="14" lengthAdjust="spacing" textLength="57" x="756" y="809.1426">+Id: Guid</text><line style="stroke:#181818;stroke-width:0.5;" x1="751" x2="889" y1="816.2188" y2="816.2188"/></g><!--class Role--><g id="elem_Role"><rect codeLine="91" fill="#F1F1F1" height="65.6094" id="Role" rx="2.5" ry="2.5" style="stroke:#181818;stroke-width:0.5;" width="330" x="219" y="884.6094"/><ellipse cx="365.25" cy="900.6094" fill="#EB937F" rx="11" ry="11" style="stroke:#181818;stroke-width:1.0;"/><path d="M364.1094,901.4063 L364.1094,903.9063 L368.4375,903.9063 L368.4375,902.9844 Q368.4375,902.375 368.6719,902.1094 Q368.9219,901.8438 369.2969,901.8438 Q369.6719,901.8438 369.9063,902.1094 Q370.1406,902.375 370.1406,902.9844 L370.1406,905.6094 L362.1406,905.6094 Q361.5156,905.6094 361.25,905.375 Q361,905.1406 361,904.75 Q361,904.375 361.2656,904.1406 Q361.5313,903.9063 362.1406,903.9063 L362.4063,903.9063 L362.4063,897.25 L362.1406,897.25 Q361.5156,897.25 361.25,897.0156 Q361,896.7813 361,896.3906 Q361,896.0156 361.25,895.7813 Q361.5156,895.5469 362.1406,895.5469 L369.7656,895.5469 L369.7656,898.1406 Q369.7656,898.75 369.5313,899.0156 Q369.3125,899.2656 368.9219,899.2656 Q368.5469,899.2656 368.3125,899.0156 Q368.0781,898.75 368.0781,898.1406 L368.0781,897.25 L364.1094,897.25 L364.1094,899.7031 L365.5938,899.7031 Q365.5938,899.0469 365.7188,898.8594 Q365.9844,898.4531 366.4531,898.4531 Q366.8281,898.4531 367.0625,898.7188 Q367.2969,898.9688 367.2969,899.5781 L367.2969,901.5469 Q367.2969,902.0938 367.1719,902.2813 Q366.9063,902.6719 366.4531,902.6719 Q365.9844,902.6719 365.7188,902.2656 Q365.5938,902.0781 365.5938,901.4063 L364.1094,901.4063 Z " fill="#000000"/><text fill="#000000" font-family="sans-serif" font-size="14" lengthAdjust="spacing" textLength="29" x="385.75" y="906.3379">Role</text><line style="stroke:#181818;stroke-width:0.5;" x1="220" x2="548" y1="916.6094" y2="916.6094"/><text fill="#000000" font-family="sans-serif" font-size="14" lengthAdjust="spacing" textLength="318" x="225" y="935.1426">ADMIN, DOCTOR, NURSE, TECHNICIAN, PATIENT</text><line style="stroke:#181818;stroke-width:0.5;" x1="220" x2="548" y1="942.2188" y2="942.2188"/></g><!--link Quantity to GMN13--><g id="link_Quantity_GMN13"><path d="M152,884.2694 C152,869.1494 152,854.6094 152,854.6094 C152,854.6094 849.75,854.6094 849.75,854.6094 C849.75,854.6094 849.75,886.0994 849.75,904.5594 " fill="none" id="Quantity-GMN13" style="stroke:#181818;stroke-width:1.0;stroke-dasharray:7.0,7.0;"/></g><!--link OperationTypeController to OperationTypeService--><g id="link_OperationTypeController_OperationTypeService"><path codeLine="95" d="M894.25,128.6394 C894.25,147.0994 894.25,162.9994 894.25,182.4194 " fill="none" id="OperationTypeController-to-OperationTypeService" style="stroke:#181818;stroke-width:1.0;stroke-dasharray:7.0,7.0;"/><polygon fill="#181818" points="894.25,188.4194,898.25,179.4194,894.25,183.4194,890.25,179.4194,894.25,188.4194" style="stroke:#181818;stroke-width:1.0;"/><polygon fill="#000000" points="856.25,154.7052,859.1889,145.6601,853.3111,145.6601,856.25,154.7052" style="stroke:#000000;stroke-width:1.0;"/><text fill="#000000" font-family="sans-serif" font-size="13" lengthAdjust="spacing" textLength="28" x="865.25" y="155.0245">uses</text></g><!--link OperationTypeController to OperationTypeDto--><g id="link_OperationTypeController_OperationTypeDto"><path codeLine="96" d="M658,128.7194 C658,216.2494 658,414.1194 658,521.1794 " fill="none" id="OperationTypeController-to-OperationTypeDto" style="stroke:#181818;stroke-width:1.0;"/><polygon fill="#181818" points="658,527.1794,662,518.1794,658,522.1794,654,518.1794,658,527.1794" style="stroke:#181818;stroke-width:1.0;"/><polygon fill="#000000" points="608,324.1252,610.9389,315.0801,605.0611,315.0801,608,324.1252" style="stroke:#000000;stroke-width:1.0;"/><text fill="#000000" font-family="sans-serif" font-size="13" lengthAdjust="spacing" textLength="40" x="617" y="324.4445">returns</text></g><!--link OperationTypeService to OperationTypeRepository--><g id="link_OperationTypeService_OperationTypeRepository"><path codeLine="98" d="M1162.03,225.6094 C1173.61,225.6094 1179.22,225.6094 1190.76,225.6094 " fill="none" id="OperationTypeService-to-OperationTypeRepository" style="stroke:#181818;stroke-width:1.0;"/><polygon fill="#181818" points="1196.76,225.6094,1187.76,221.6094,1191.76,225.6094,1187.76,229.6094,1196.76,225.6094" style="stroke:#181818;stroke-width:1.0;"/><polygon fill="#000000" points="1167.9,234.7852,1158.8549,231.8462,1158.8549,237.7241,1167.9,234.7852" style="stroke:#000000;stroke-width:1.0;"/><text fill="#000000" font-family="sans-serif" font-size="13" lengthAdjust="spacing" textLength="28" x="1171.9" y="240.1045">uses</text></g><!--link OperationTypeService to OperationType--><g id="link_OperationTypeService_OperationType"><path codeLine="99" d="M1010.5,289.8094 C1010.5,342.3794 1010.5,420.0494 1010.5,486.5894 " fill="none" id="OperationTypeService-to-OperationType" style="stroke:#181818;stroke-width:1.0;"/><polygon fill="#181818" points="1010.5,492.5894,1014.5,483.5894,1010.5,487.5894,1006.5,483.5894,1010.5,492.5894" style="stroke:#181818;stroke-width:1.0;"/><polygon fill="#000000" points="954.5,387.3752,957.4389,378.3301,951.5611,378.3301,954.5,387.3752" style="stroke:#000000;stroke-width:1.0;"/><text fill="#000000" font-family="sans-serif" font-size="13" lengthAdjust="spacing" textLength="46" x="963.5" y="387.6945">updates</text></g><!--link OperationTypeService to OperationTypeDto--><g id="link_OperationTypeService_OperationTypeDto"><path codeLine="100" d="M778,289.8094 C778,352.0894 778,452.0094 778,521.3894 " fill="none" id="OperationTypeService-to-OperationTypeDto" style="stroke:#181818;stroke-width:1.0;"/><polygon fill="#181818" points="778,527.3894,782,518.3894,778,522.3894,774,518.3894,778,527.3894" style="stroke:#181818;stroke-width:1.0;"/><polygon fill="#000000" points="725,404.7752,727.9389,395.7301,722.0611,395.7301,725,404.7752" style="stroke:#000000;stroke-width:1.0;"/><text fill="#000000" font-family="sans-serif" font-size="13" lengthAdjust="spacing" textLength="43" x="734" y="405.0945">creates</text></g><!--link OperationTypeRepository to IOperationTypeRepository--><g id="link_OperationTypeRepository_IOperationTypeRepository"><path codeLine="102" d="M1401,280.6394 C1401,301.9994 1401,321.9694 1401,343.3594 " fill="none" id="OperationTypeRepository-to-IOperationTypeRepository" style="stroke:#181818;stroke-width:1.0;"/><polygon fill="#181818" points="1401,349.3594,1405,340.3594,1401,344.3594,1397,340.3594,1401,349.3594" style="stroke:#181818;stroke-width:1.0;"/><polygon fill="#000000" points="1324,311.1752,1326.9389,302.1301,1321.0611,302.1301,1324,311.1752" style="stroke:#000000;stroke-width:1.0;"/><text fill="#000000" font-family="sans-serif" font-size="13" lengthAdjust="spacing" textLength="67" x="1333" y="311.4945">implements</text></g><!--link OperationTypeRepository to OperationType--><g id="link_OperationTypeRepository_OperationType"><path codeLine="103" d="M1196.88,253.6094 C1186.04,253.6094 1179.5,253.6094 1179.5,253.6094 C1179.5,253.6094 1179.5,385.8394 1179.5,486.5294 " fill="none" id="OperationTypeRepository-to-OperationType" style="stroke:#181818;stroke-width:1.0;"/><polygon fill="#181818" points="1179.5,492.5294,1183.5,483.5294,1179.5,487.5294,1175.5,483.5294,1179.5,492.5294" style="stroke:#181818;stroke-width:1.0;"/><polygon fill="#000000" points="1065.1279,360.5413,1068.7318,351.74,1062.8702,351.3026,1065.1279,360.5413" style="stroke:#000000;stroke-width:1.0;"/><text fill="#000000" font-family="sans-serif" font-size="13" lengthAdjust="spacing" textLength="104" x="1074.5" y="360.8745">saves in database</text></g><!--link OperationType to OperationTypeID--><g id="link_OperationType_OperationTypeID"><path codeLine="105" d="M874.5,698.7794 C874.5,720.3594 874.5,735.5994 874.5,752.3094 " fill="none" id="OperationType-to-OperationTypeID" style="stroke:#181818;stroke-width:1.0;"/><polygon fill="#181818" points="874.5,758.3094,878.5,749.3094,874.5,753.3094,870.5,749.3094,874.5,758.3094" style="stroke:#181818;stroke-width:1.0;"/><polygon fill="#000000" points="843.5,724.7152,846.4389,715.6701,840.5611,715.6701,843.5,724.7152" style="stroke:#000000;stroke-width:1.0;"/><text fill="#000000" font-family="sans-serif" font-size="13" lengthAdjust="spacing" textLength="21" x="852.5" y="725.0345">has</text></g><!--link OperationType to Name--><g id="link_OperationType_Name"><path codeLine="106" d="M991.5,698.7794 C991.5,720.3594 991.5,735.5994 991.5,752.3094 " fill="none" id="OperationType-to-Name" style="stroke:#181818;stroke-width:1.0;"/><polygon fill="#181818" points="991.5,758.3094,995.5,749.3094,991.5,753.3094,987.5,749.3094,991.5,758.3094" style="stroke:#181818;stroke-width:1.0;"/><polygon fill="#000000" points="960.5,742.7152,963.4389,733.6701,957.5611,733.6701,960.5,742.7152" style="stroke:#000000;stroke-width:1.0;"/><text fill="#000000" font-family="sans-serif" font-size="13" lengthAdjust="spacing" textLength="21" x="969.5" y="743.0345">has</text></g><!--link OperationType to Specialization--><g id="link_OperationType_Specialization"><path codeLine="107" d="M907.75,698.9294 C907.75,785.3494 907.75,894.6094 907.75,894.6094 C907.75,894.6094 842.29,894.6094 780.32,894.6094 " fill="none" id="OperationType-to-Specialization" style="stroke:#181818;stroke-width:1.0;"/><polygon fill="#181818" points="774.32,894.6094,783.32,898.6094,779.32,894.6094,783.32,890.6094,774.32,894.6094" style="stroke:#181818;stroke-width:1.0;"/><polygon fill="#000000" points="874.0215,858.855,881.4202,852.8793,876.4947,849.6717,874.0215,858.855" style="stroke:#000000;stroke-width:1.0;"/><text fill="#000000" font-family="sans-serif" font-size="13" lengthAdjust="spacing" textLength="21" x="885.75" y="859.9845">has</text></g><!--link OperationType to RequiredStaff--><g id="link_OperationType_RequiredStaff"><path codeLine="108" d="M858.83,681.6094 C582.97,681.6094 136,681.6094 136,681.6094 C136,681.6094 136,720.2094 136,752.6094 " fill="none" id="OperationType-to-RequiredStaff" style="stroke:#181818;stroke-width:1.0;"/><polygon fill="#181818" points="136,758.6094,140,749.6094,136,753.6094,132,749.6094,136,758.6094" style="stroke:#181818;stroke-width:1.0;"/><polygon fill="#000000" points="422.9439,673.2739,432.233,675.3146,431.6584,669.4649,422.9439,673.2739" style="stroke:#000000;stroke-width:1.0;"/><text fill="#000000" font-family="sans-serif" font-size="13" lengthAdjust="spacing" textLength="21" x="436.92" y="678.1045">has</text></g><!--link OperationType to PhasesDuration--><g id="link_OperationType_PhasesDuration"><path codeLine="109" d="M1232.33,698.7794 C1232.33,720.3594 1232.33,735.5994 1232.33,752.3094 " fill="none" id="OperationType-to-PhasesDuration" style="stroke:#181818;stroke-width:1.0;"/><polygon fill="#181818" points="1232.33,758.3094,1236.33,749.3094,1232.33,753.3094,1228.33,749.3094,1232.33,758.3094" style="stroke:#181818;stroke-width:1.0;"/><polygon fill="#000000" points="1201.33,724.7152,1204.2689,715.6701,1198.3911,715.6701,1201.33,724.7152" style="stroke:#000000;stroke-width:1.0;"/><text fill="#000000" font-family="sans-serif" font-size="13" lengthAdjust="spacing" textLength="21" x="1210.33" y="725.0345">has</text></g><!--link OperationTypeDto to OperationTypeID--><g id="link_OperationTypeDto_OperationTypeID"><path codeLine="111" d="M768.5,663.6094 C768.5,695.6794 768.5,726.4794 768.5,752.3694 " fill="none" id="OperationTypeDto-to-OperationTypeID" style="stroke:#181818;stroke-width:1.0;"/><polygon fill="#181818" points="768.5,758.3694,772.5,749.3694,768.5,753.3694,764.5,749.3694,768.5,758.3694" style="stroke:#181818;stroke-width:1.0;"/><polygon fill="#000000" points="737.5,707.1652,740.4389,698.1201,734.5611,698.1201,737.5,707.1652" style="stroke:#000000;stroke-width:1.0;"/><text fill="#000000" font-family="sans-serif" font-size="13" lengthAdjust="spacing" textLength="21" x="746.5" y="707.4845">has</text></g><!--link OperationTypeDto to Name--><g id="link_OperationTypeDto_Name"><path codeLine="112" d="M787,663.7594 C787,700.5894 787,738.6094 787,738.6094 C787,738.6094 958.5,738.6094 958.5,738.6094 C958.5,738.6094 958.5,741.6994 958.5,752.3494 " fill="none" id="OperationTypeDto-to-Name" style="stroke:#181818;stroke-width:1.0;"/><polygon fill="#181818" points="958.5,758.3494,962.5,749.3494,958.5,753.3494,954.5,749.3494,958.5,758.3494" style="stroke:#181818;stroke-width:1.0;"/><polygon fill="#000000" points="818.6323,750.0799,811.9449,743.3176,809.2473,748.5398,818.6323,750.0799" style="stroke:#000000;stroke-width:1.0;"/><text fill="#000000" font-family="sans-serif" font-size="13" lengthAdjust="spacing" textLength="21" x="823.19" y="753.1045">has</text></g><!--link OperationTypeDto to Specialization--><g id="link_OperationTypeDto_Specialization"><path codeLine="113" d="M697,663.8994 C697,731.6494 697,826.6294 697,878.3894 " fill="none" id="OperationTypeDto-to-Specialization" style="stroke:#181818;stroke-width:1.0;"/><polygon fill="#181818" points="697,884.3894,701,875.3894,697,879.3894,693,875.3894,697,884.3894" style="stroke:#181818;stroke-width:1.0;"/><polygon fill="#000000" points="666,770.3152,668.9389,761.2701,663.0611,761.2701,666,770.3152" style="stroke:#000000;stroke-width:1.0;"/><text fill="#000000" font-family="sans-serif" font-size="13" lengthAdjust="spacing" textLength="21" x="675" y="770.6345">has</text></g><!--link OperationTypeDto to RequiredStaff--><g id="link_OperationTypeDto_RequiredStaff"><path codeLine="114" d="M614,663.9794 C614,712.3394 614,768.6094 614,768.6094 C614,768.6094 412.61,768.6094 271.04,768.6094 " fill="none" id="OperationTypeDto-to-RequiredStaff" style="stroke:#181818;stroke-width:1.0;"/><polygon fill="#181818" points="265.04,768.6094,274.04,772.6094,270.04,768.6094,274.04,764.6094,265.04,768.6094" style="stroke:#181818;stroke-width:1.0;"/><polygon fill="#000000" points="412.0476,761.2442,421.5566,761.4158,419.8415,755.7938,412.0476,761.2442" style="stroke:#000000;stroke-width:1.0;"/><text fill="#000000" font-family="sans-serif" font-size="13" lengthAdjust="spacing" textLength="65" x="425.83" y="765.1045">has several</text></g><!--link OperationTypeDto to PhasesDuration--><g id="link_OperationTypeDto_PhasesDuration"><path codeLine="115" d="M805.5,663.9394 C805.5,692.2594 805.5,718.6094 805.5,718.6094 C805.5,718.6094 1181.67,718.6094 1181.67,718.6094 C1181.67,718.6094 1181.67,733.2094 1181.67,752.5294 " fill="none" id="OperationTypeDto-to-PhasesDuration" style="stroke:#181818;stroke-width:1.0;"/><polygon fill="#181818" points="1181.67,758.5294,1185.67,749.5294,1181.67,753.5294,1177.67,749.5294,1181.67,758.5294" style="stroke:#181818;stroke-width:1.0;"/><polygon fill="#000000" points="960.0769,710.9313,951.9463,705.9972,950.5989,711.7186,960.0769,710.9313" style="stroke:#000000;stroke-width:1.0;"/><text fill="#000000" font-family="sans-serif" font-size="13" lengthAdjust="spacing" textLength="21" x="964.21" y="715.1045">has</text></g><!--link RequiredStaff to Role--><g id="link_RequiredStaff_Role"><path codeLine="117" d="M242,824.7194 C242,843.0894 242,859.8794 242,878.2894 " fill="none" id="RequiredStaff-to-Role" style="stroke:#181818;stroke-width:1.0;"/><polygon fill="#181818" points="242,884.2894,246,875.2894,242,879.2894,238,875.2894,242,884.2894" style="stroke:#181818;stroke-width:1.0;"/><text fill="#000000" font-family="sans-serif" font-size="13" lengthAdjust="spacing" textLength="21" x="220" y="850.9945">has</text></g><!--link RequiredStaff to Specialization--><g id="link_RequiredStaff_Specialization"><path codeLine="118" d="M265.07,814.6094 C408.45,814.6094 620,814.6094 620,814.6094 C620,814.6094 620,848.3394 620,878.4494 " fill="none" id="RequiredStaff-to-Specialization" style="stroke:#181818;stroke-width:1.0;"/><polygon fill="#181818" points="620,884.4494,624,875.4494,620,879.4494,616,875.4494,620,884.4494" style="stroke:#181818;stroke-width:1.0;"/><polygon fill="#000000" points="451.381,824.6703,442.9991,820.1766,441.9585,825.9616,451.381,824.6703" style="stroke:#000000;stroke-width:1.0;"/><text fill="#000000" font-family="sans-serif" font-size="13" lengthAdjust="spacing" textLength="21" x="455.46" y="829.1045">has</text></g><!--link RequiredStaff to Quantity--><g id="link_RequiredStaff_Quantity"><path codeLine="119" d="M120,824.7194 C120,843.0894 120,859.8794 120,878.2894 " fill="none" id="RequiredStaff-to-Quantity" style="stroke:#181818;stroke-width:1.0;"/><polygon fill="#181818" points="120,884.2894,124,875.2894,120,879.2894,116,875.2894,120,884.2894" style="stroke:#181818;stroke-width:1.0;"/><polygon fill="#000000" points="89,850.6752,91.9389,841.6301,86.0611,841.6301,89,850.6752" style="stroke:#000000;stroke-width:1.0;"/><text fill="#000000" font-family="sans-serif" font-size="13" lengthAdjust="spacing" textLength="21" x="98" y="850.9945">has</text></g><!--link PhasesDuration to Phase--><g id="link_PhasesDuration_Phase"><path codeLine="121" d="M1240.5,824.7194 C1240.5,843.0894 1240.5,859.8794 1240.5,878.2894 " fill="none" id="PhasesDuration-to-Phase" style="stroke:#181818;stroke-width:1.0;"/><polygon fill="#181818" points="1240.5,884.2894,1244.5,875.2894,1240.5,879.2894,1236.5,875.2894,1240.5,884.2894" style="stroke:#181818;stroke-width:1.0;"/><polygon fill="#000000" points="1209.5,850.6752,1212.4389,841.6301,1206.5611,841.6301,1209.5,850.6752" style="stroke:#000000;stroke-width:1.0;"/><text fill="#000000" font-family="sans-serif" font-size="13" lengthAdjust="spacing" textLength="21" x="1218.5" y="850.9945">has</text></g><!--link PhasesDuration to Duration--><g id="link_PhasesDuration_Duration"><path codeLine="122" d="M1367.5,824.7194 C1367.5,862.0494 1367.5,917.6094 1367.5,917.6094 C1367.5,917.6094 1369,917.6094 1378.85,917.6094 " fill="none" id="PhasesDuration-to-Duration" style="stroke:#181818;stroke-width:1.0;"/><polygon fill="#181818" points="1384.85,917.6094,1375.85,913.6094,1379.85,917.6094,1375.85,921.6094,1384.85,917.6094" style="stroke:#181818;stroke-width:1.0;"/><polygon fill="#000000" points="1337.1064,875.9782,1338.9266,866.6435,1333.0922,867.3564,1337.1064,875.9782" style="stroke:#000000;stroke-width:1.0;"/><text fill="#000000" font-family="sans-serif" font-size="13" lengthAdjust="spacing" textLength="21" x="1345.5" y="876.3345">has</text></g><!--SRC=[pLLDZzCm4BtdLyonAxfeuLYjAeMaMY91TqbR94x8JQUjjQaTR6THGVntnawTRRxA2Yxqi5h7xxrvCnwFzICN1LFi00NB7jaE5-QO8oZC31Ex70DT0_IURUHtBdQmPRa-tybofdLeZEBhqc2IIR7WFn1kpY0v5sYE1O9KPY-38CUj0ID1yTtUm8RRW5oAmCZ2VbvBO-JXx7jWk25VaOq4CMSxApgAuYkuXbLqy_PD43WNS5-WOfQof6YH54R9F4S5FmEWtwixDE-EStR0aQ0_4x3_NarWoVJZRUX2fQZBtDmsT68ZfzDAO5LicC7HniW9j34l5VhLQtQ1webds74QwgF8UknsX2lUPvPpQx6nFP3nMigyaLSLws9otR3zwQHOICsDLCU_o-YVV3bJN1XKMqObJVupPptbybQIJKieYQkDUMsgMYyAp3YTzG-7d41pNM5I_5RI5Tei3Djk9_21QtFR-7PAvM7FDEguL2Ujvhh2H7iQ23sDz2JvvXpHz37I5stsy1l-HkgF6VH8DEsFYelPUNx_iT0n_iydKvjkS4-Eh-6hhkHZxYOIKyVRLEOu1WVxL391O_LeMr98WwTXBBTDDQTbQP0n0LBaHrWZC73QGEELaezbHlTf3FDIQJlZ8TIQKYBz0CK6hBftwgFwilhr1EY-TfpuNOUjgOTI6sjYfv2ke093nqxFJJjKi_0-O8oQxyIfdcUBvs8sY_nSpQgH6kLqq35uhBlTACf3fN6YFgIpXp0Dbydzd4g_IkzcwPSnH1zcuJoPtpt7RKLyzP4BUa-rhym9PHlD8whMq_JoYjr01oVnUGFVbLMhEu_kKAlDCFwOaBduFbhUftIEgtGn6yDo5hsV9r4IqjO3-P_DbvOyzCQ-dlQ_Q1EOGacL6oHUqs_QlNYMfz2KIkXMKA_SPfsDzlwWDR4Ji2AucVvYZZUPkJvicpmpOvd99QVyKEHuG67qHOskOysUK5E301bdQ-gvbeakZHh24ga_Uv2kkOQtMpTg6DYSHyEurbNpmA1JvXUduS73cNZ4IvBnsDvyGECJOVD-ob1gJIadxcQetUpk3PZi0klXM0Tg6QWzrOWUGCVkRm00]--></g></svg>