<?xml version="1.0" encoding="us-ascii" standalone="no"?><svg xmlns="http://www.w3.org/2000/svg" xmlns:xlink="http://www.w3.org/1999/xlink" contentStyleType="text/css" height="724px" preserveAspectRatio="none" style="width:2122px;height:724px;background:#FFFFFF;" version="1.1" viewBox="0 0 2122 724" width="2122px" zoomAndPan="magnify"><defs/><g><text fill="#000000" font-family="sans-serif" font-size="14" font-weight="bold" lengthAdjust="spacing" textLength="222" x="949.25" y="29.5332">Sequence Diagram (SD) - UC020</text><rect fill="#FFFFFF" height="454.2734" style="stroke:#181818;stroke-width:1.0;" width="10" x="391.5" y="169.9219"/><rect fill="#FFFFFF" height="316.5156" style="stroke:#181818;stroke-width:1.0;" width="10" x="708.5" y="260.9766"/><rect fill="#FFFFFF" height="30.3516" style="stroke:#181818;stroke-width:1.0;" width="10" x="1356.5" y="395.3828"/><rect fill="#FFFFFF" height="30.3516" style="stroke:#181818;stroke-width:1.0;" width="10" x="1509.5" y="334.6797"/><rect fill="#FFFFFF" height="91.0547" style="stroke:#181818;stroke-width:1.0;" width="10" x="1509.5" y="456.0859"/><rect fill="#FFFFFF" height="30.3516" style="stroke:#181818;stroke-width:1.0;" width="10" x="1826.5" y="486.4375"/><rect fill="#FFFFFF" height="30.3516" style="stroke:#181818;stroke-width:1.0;" width="10" x="2019" y="200.2734"/><line style="stroke:#181818;stroke-width:0.5;stroke-dasharray:5.0,5.0;" x1="27" x2="27" y1="121.2188" y2="642.1953"/><line style="stroke:#181818;stroke-width:0.5;stroke-dasharray:5.0,5.0;" x1="180" x2="180" y1="121.2188" y2="642.1953"/><line style="stroke:#181818;stroke-width:0.5;stroke-dasharray:5.0,5.0;" x1="396" x2="396" y1="121.2188" y2="642.1953"/><line style="stroke:#181818;stroke-width:0.5;stroke-dasharray:5.0,5.0;" x1="713.5" x2="713.5" y1="121.2188" y2="642.1953"/><line style="stroke:#181818;stroke-width:0.5;stroke-dasharray:5.0,5.0;" x1="1361" x2="1361" y1="121.2188" y2="642.1953"/><line style="stroke:#181818;stroke-width:0.5;stroke-dasharray:5.0,5.0;" x1="1514" x2="1514" y1="121.2188" y2="642.1953"/><line style="stroke:#181818;stroke-width:0.5;stroke-dasharray:5.0,5.0;" x1="1831.5" x2="1831.5" y1="121.2188" y2="642.1953"/><line style="stroke:#181818;stroke-width:0.5;stroke-dasharray:5.0,5.0;" x1="2023.5" x2="2023.5" y1="121.2188" y2="642.1953"/><text fill="#000000" font-family="sans-serif" font-size="14" lengthAdjust="spacing" textLength="39" x="5" y="118.1426">Admin</text><ellipse cx="27.5" cy="52.1094" fill="#E2E2F0" rx="8" ry="8" style="stroke:#181818;stroke-width:0.5;"/><path d="M27.5,60.1094 L27.5,87.1094 M14.5,68.1094 L40.5,68.1094 M27.5,87.1094 L14.5,102.1094 M27.5,87.1094 L40.5,102.1094 " fill="none" style="stroke:#181818;stroke-width:0.5;"/><text fill="#000000" font-family="sans-serif" font-size="14" lengthAdjust="spacing" textLength="39" x="5" y="655.7285">Admin</text><ellipse cx="27.5" cy="667.3047" fill="#E2E2F0" rx="8" ry="8" style="stroke:#181818;stroke-width:0.5;"/><path d="M27.5,675.3047 L27.5,702.3047 M14.5,683.3047 L40.5,683.3047 M27.5,702.3047 L14.5,717.3047 M27.5,702.3047 L40.5,717.3047 " fill="none" style="stroke:#181818;stroke-width:0.5;"/><rect fill="#E2E2F0" height="31.6094" rx="2.5" ry="2.5" style="stroke:#181818;stroke-width:0.5;" width="241" x="60" y="88.6094"/><text fill="#000000" font-family="sans-serif" font-size="14" lengthAdjust="spacing" textLength="227" x="67" y="110.1426">Postman (Client Interface Simulator)</text><rect fill="#E2E2F0" height="31.6094" rx="2.5" ry="2.5" style="stroke:#181818;stroke-width:0.5;" width="241" x="60" y="641.1953"/><text fill="#000000" font-family="sans-serif" font-size="14" lengthAdjust="spacing" textLength="227" x="67" y="662.7285">Postman (Client Interface Simulator)</text><rect fill="#E2E2F0" height="31.6094" rx="2.5" ry="2.5" style="stroke:#181818;stroke-width:0.5;" width="171" x="311" y="88.6094"/><text fill="#000000" font-family="sans-serif" font-size="14" lengthAdjust="spacing" textLength="157" x="318" y="110.1426">OperationTypeController</text><rect fill="#E2E2F0" height="31.6094" rx="2.5" ry="2.5" style="stroke:#181818;stroke-width:0.5;" width="171" x="311" y="641.1953"/><text fill="#000000" font-family="sans-serif" font-size="14" lengthAdjust="spacing" textLength="157" x="318" y="662.7285">OperationTypeController</text><rect fill="#E2E2F0" height="31.6094" rx="2.5" ry="2.5" style="stroke:#181818;stroke-width:0.5;" width="156" x="635.5" y="88.6094"/><text fill="#000000" font-family="sans-serif" font-size="14" lengthAdjust="spacing" textLength="142" x="642.5" y="110.1426">OperationTypeService</text><rect fill="#E2E2F0" height="31.6094" rx="2.5" ry="2.5" style="stroke:#181818;stroke-width:0.5;" width="156" x="635.5" y="641.1953"/><text fill="#000000" font-family="sans-serif" font-size="14" lengthAdjust="spacing" textLength="142" x="642.5" y="662.7285">OperationTypeService</text><rect fill="#E2E2F0" height="31.6094" rx="2.5" ry="2.5" style="stroke:#181818;stroke-width:0.5;" width="109" x="1307" y="88.6094"/><text fill="#000000" font-family="sans-serif" font-size="14" lengthAdjust="spacing" textLength="95" x="1314" y="110.1426">OperationType</text><rect fill="#E2E2F0" height="31.6094" rx="2.5" ry="2.5" style="stroke:#181818;stroke-width:0.5;" width="109" x="1307" y="641.1953"/><text fill="#000000" font-family="sans-serif" font-size="14" lengthAdjust="spacing" textLength="95" x="1314" y="662.7285">OperationType</text><rect fill="#E2E2F0" height="31.6094" rx="2.5" ry="2.5" style="stroke:#181818;stroke-width:0.5;" width="177" x="1426" y="88.6094"/><text fill="#000000" font-family="sans-serif" font-size="14" lengthAdjust="spacing" textLength="163" x="1433" y="110.1426">OperationTypeRepository</text><rect fill="#E2E2F0" height="31.6094" rx="2.5" ry="2.5" style="stroke:#181818;stroke-width:0.5;" width="177" x="1426" y="641.1953"/><text fill="#000000" font-family="sans-serif" font-size="14" lengthAdjust="spacing" textLength="163" x="1433" y="662.7285">OperationTypeRepository</text><rect fill="#E2E2F0" height="31.6094" rx="2.5" ry="2.5" style="stroke:#181818;stroke-width:0.5;" width="180" x="1741.5" y="88.6094"/><text fill="#000000" font-family="sans-serif" font-size="14" lengthAdjust="spacing" textLength="166" x="1748.5" y="110.1426">IOperationTypeRepository</text><rect fill="#E2E2F0" height="31.6094" rx="2.5" ry="2.5" style="stroke:#181818;stroke-width:0.5;" width="180" x="1741.5" y="641.1953"/><text fill="#000000" font-family="sans-serif" font-size="14" lengthAdjust="spacing" textLength="166" x="1748.5" y="662.7285">IOperationTypeRepository</text><rect fill="#E2E2F0" height="31.6094" rx="2.5" ry="2.5" style="stroke:#181818;stroke-width:0.5;" width="185" x="1931.5" y="88.6094"/><text fill="#000000" font-family="sans-serif" font-size="14" lengthAdjust="spacing" textLength="171" x="1938.5" y="110.1426">CreatingOperationTypeDto</text><rect fill="#E2E2F0" height="31.6094" rx="2.5" ry="2.5" style="stroke:#181818;stroke-width:0.5;" width="185" x="1931.5" y="641.1953"/><text fill="#000000" font-family="sans-serif" font-size="14" lengthAdjust="spacing" textLength="171" x="1938.5" y="662.7285">CreatingOperationTypeDto</text><rect fill="#FFFFFF" height="454.2734" style="stroke:#181818;stroke-width:1.0;" width="10" x="391.5" y="169.9219"/><rect fill="#FFFFFF" height="316.5156" style="stroke:#181818;stroke-width:1.0;" width="10" x="708.5" y="260.9766"/><rect fill="#FFFFFF" height="30.3516" style="stroke:#181818;stroke-width:1.0;" width="10" x="1356.5" y="395.3828"/><rect fill="#FFFFFF" height="30.3516" style="stroke:#181818;stroke-width:1.0;" width="10" x="1509.5" y="334.6797"/><rect fill="#FFFFFF" height="91.0547" style="stroke:#181818;stroke-width:1.0;" width="10" x="1509.5" y="456.0859"/><rect fill="#FFFFFF" height="30.3516" style="stroke:#181818;stroke-width:1.0;" width="10" x="1826.5" y="486.4375"/><rect fill="#FFFFFF" height="30.3516" style="stroke:#181818;stroke-width:1.0;" width="10" x="2019" y="200.2734"/><polygon fill="#181818" points="379.5,165.9219,389.5,169.9219,379.5,173.9219,383.5,169.9219" style="stroke:#181818;stroke-width:1.0;"/><line style="stroke:#181818;stroke-width:1.0;" x1="0" x2="385.5" y1="169.9219" y2="169.9219"/><text fill="#000000" font-family="sans-serif" font-size="13" lengthAdjust="spacing" textLength="142" x="7" y="148.7139">POST /api/operationtype</text><text fill="#000000" font-family="sans-serif" font-size="13" lengthAdjust="spacing" textLength="305" x="11" y="165.0654">Body: {name, staffBySpecialization, phasesDuration}</text><polygon fill="#181818" points="2007,196.2734,2017,200.2734,2007,204.2734,2011,200.2734" style="stroke:#181818;stroke-width:1.0;"/><line style="stroke:#181818;stroke-width:1.0;" x1="401.5" x2="2013" y1="200.2734" y2="200.2734"/><text fill="#000000" font-family="sans-serif" font-size="13" lengthAdjust="spacing" textLength="446" x="408.5" y="195.417">new CreatingOperationTypeDto(name, staffBySpecialization, phasesDuration)</text><polygon fill="#181818" points="412.5,226.625,402.5,230.625,412.5,234.625,408.5,230.625" style="stroke:#181818;stroke-width:1.0;"/><line style="stroke:#181818;stroke-width:1.0;stroke-dasharray:2.0,2.0;" x1="406.5" x2="2023" y1="230.625" y2="230.625"/><text fill="#000000" font-family="sans-serif" font-size="13" lengthAdjust="spacing" textLength="18" x="418.5" y="225.7686">dto</text><polygon fill="#181818" points="696.5,256.9766,706.5,260.9766,696.5,264.9766,700.5,260.9766" style="stroke:#181818;stroke-width:1.0;"/><line style="stroke:#181818;stroke-width:1.0;" x1="401.5" x2="702.5" y1="260.9766" y2="260.9766"/><text fill="#000000" font-family="sans-serif" font-size="13" lengthAdjust="spacing" textLength="86" x="408.5" y="256.1201">AddAsync(dto)</text><line style="stroke:#181818;stroke-width:1.0;" x1="718.5" x2="760.5" y1="291.3281" y2="291.3281"/><line style="stroke:#181818;stroke-width:1.0;" x1="760.5" x2="760.5" y1="291.3281" y2="304.3281"/><line style="stroke:#181818;stroke-width:1.0;" x1="719.5" x2="760.5" y1="304.3281" y2="304.3281"/><polygon fill="#181818" points="729.5,300.3281,719.5,304.3281,729.5,308.3281,725.5,304.3281" style="stroke:#181818;stroke-width:1.0;"/><text fill="#000000" font-family="sans-serif" font-size="13" lengthAdjust="spacing" textLength="205" x="725.5" y="286.4717">ValidateOperationTypeName(name)</text><polygon fill="#181818" points="1497.5,330.6797,1507.5,334.6797,1497.5,338.6797,1501.5,334.6797" style="stroke:#181818;stroke-width:1.0;"/><line style="stroke:#181818;stroke-width:1.0;" x1="718.5" x2="1503.5" y1="334.6797" y2="334.6797"/><text fill="#000000" font-family="sans-serif" font-size="13" lengthAdjust="spacing" textLength="148" x="725.5" y="329.8232">GetByNameAsync(name)</text><polygon fill="#181818" points="729.5,361.0313,719.5,365.0313,729.5,369.0313,725.5,365.0313" style="stroke:#181818;stroke-width:1.0;"/><line style="stroke:#181818;stroke-width:1.0;stroke-dasharray:2.0,2.0;" x1="723.5" x2="1513.5" y1="365.0313" y2="365.0313"/><text fill="#000000" font-family="sans-serif" font-size="13" lengthAdjust="spacing" textLength="276" x="735.5" y="360.1748">404 Not Found (Operation Type with said name)</text><polygon fill="#181818" points="1344.5,391.3828,1354.5,395.3828,1344.5,399.3828,1348.5,395.3828" style="stroke:#181818;stroke-width:1.0;"/><line style="stroke:#181818;stroke-width:1.0;" x1="718.5" x2="1350.5" y1="395.3828" y2="395.3828"/><text fill="#000000" font-family="sans-serif" font-size="13" lengthAdjust="spacing" textLength="619" x="725.5" y="390.5264">new OperationType(dto.getName(), dto.getSpecialization(), dto.getRequiredStaff(), dto.getPhasesDuration())</text><polygon fill="#181818" points="729.5,421.7344,719.5,425.7344,729.5,429.7344,725.5,425.7344" style="stroke:#181818;stroke-width:1.0;"/><line style="stroke:#181818;stroke-width:1.0;stroke-dasharray:2.0,2.0;" x1="723.5" x2="1360.5" y1="425.7344" y2="425.7344"/><text fill="#000000" font-family="sans-serif" font-size="13" lengthAdjust="spacing" textLength="81" x="735.5" y="420.8779">operationType</text><polygon fill="#181818" points="1497.5,452.0859,1507.5,456.0859,1497.5,460.0859,1501.5,456.0859" style="stroke:#181818;stroke-width:1.0;"/><line style="stroke:#181818;stroke-width:1.0;" x1="718.5" x2="1503.5" y1="456.0859" y2="456.0859"/><text fill="#000000" font-family="sans-serif" font-size="13" lengthAdjust="spacing" textLength="86" x="725.5" y="451.2295">AddAsync(dto)</text><polygon fill="#181818" points="1814.5,482.4375,1824.5,486.4375,1814.5,490.4375,1818.5,486.4375" style="stroke:#181818;stroke-width:1.0;"/><line style="stroke:#181818;stroke-width:1.0;" x1="1519.5" x2="1820.5" y1="486.4375" y2="486.4375"/><text fill="#000000" font-family="sans-serif" font-size="13" lengthAdjust="spacing" textLength="149" x="1526.5" y="481.5811">AddAsync(operationType)</text><polygon fill="#181818" points="1530.5,512.7891,1520.5,516.7891,1530.5,520.7891,1526.5,516.7891" style="stroke:#181818;stroke-width:1.0;"/><line style="stroke:#181818;stroke-width:1.0;stroke-dasharray:2.0,2.0;" x1="1524.5" x2="1830.5" y1="516.7891" y2="516.7891"/><text fill="#000000" font-family="sans-serif" font-size="13" lengthAdjust="spacing" textLength="283" x="1536.5" y="511.9326">201 Created (Operation Type successfully saved)</text><polygon fill="#181818" points="729.5,543.1406,719.5,547.1406,729.5,551.1406,725.5,547.1406" style="stroke:#181818;stroke-width:1.0;"/><line style="stroke:#181818;stroke-width:1.0;stroke-dasharray:2.0,2.0;" x1="723.5" x2="1513.5" y1="547.1406" y2="547.1406"/><text fill="#000000" font-family="sans-serif" font-size="13" lengthAdjust="spacing" textLength="201" x="735.5" y="542.2842">Operation Type successfully saved</text><polygon fill="#181818" points="412.5,573.4922,402.5,577.4922,412.5,581.4922,408.5,577.4922" style="stroke:#181818;stroke-width:1.0;"/><line style="stroke:#181818;stroke-width:1.0;stroke-dasharray:2.0,2.0;" x1="406.5" x2="712.5" y1="577.4922" y2="577.4922"/><text fill="#000000" font-family="sans-serif" font-size="13" lengthAdjust="spacing" textLength="283" x="418.5" y="572.6357">201 Created (Operation Type successfully saved)</text><polygon fill="#181818" points="2109.5,620.1953,2119.5,624.1953,2109.5,628.1953,2113.5,624.1953" style="stroke:#181818;stroke-width:1.0;"/><line style="stroke:#181818;stroke-width:1.0;stroke-dasharray:2.0,2.0;" x1="396.5" x2="2115.5" y1="624.1953" y2="624.1953"/><text fill="#000000" font-family="sans-serif" font-size="13" lengthAdjust="spacing" textLength="70" x="403.5" y="602.9873">201 Created</text><text fill="#000000" font-family="sans-serif" font-size="13" lengthAdjust="spacing" textLength="137" x="407.5" y="619.3389">Body: {operationTypeId}</text><!--SRC=[dLGzRzim4DtrAmwP9C1ft22JXm3-G0ilYH6bdRgmubacGf6gIDbGYlxtKgGiauhimkN48-_TU_T1gZScIbAH0agIlP4SKzrmX0epJKJECLAzWzeHAWzCvB0bNFatd0dKJObGIjwqXdUNSQBKNEkA_QmrhZCfKlQEC8qYpRHXIl5NZI93M36Iju0uNILm2z-MqtlZH38jAvZJWWaWgjr49gvc6Ik9q72paKeNH42yv0pDmLfehBR4n4jPKNDYqCbDYtJt8VYvn8fe9iMh4R-KGbUISwoSVszUmAHOxLc65j3jBtXRjvKi21CNl5wmb8ePtOtrFvaXPdq9j6xjq7zPeV4MUG1RQUb4QHb5juzUqZFOFAUlS4TATYUF4DlZ7m8MaZOp-2r8WHDGccotYoOjCME4itVhEO5oHnIgLUsGVsmdsPvez2iRWLad6um48sK60WzmJd1y1MtY67fgcoTqonXmEqYQ7XqeVWI5Ghj-pynCqhbgH1ORy93mE1GzQNSG1FXkz5FZ7MJwPBAqgIQZu5F3P_0LzQ9f_PsC0QZNuarIVzckqxajHo_hOVe0JrB35raB2d6l3bfvS61w1uem2WC-ht9ZZ5uExYcuRWUvjvNybAEsDKWcq9bXhxsB5_E7i0ffsiw4Txu9XY5EnghIlSUW8kuih8Rq1OvcEunqfbiZut9rcnxT2_U21VAI4Dc7Tjz2SDSkUsopzNNUJp-xDuWVcw_gB4EbjZNdZHc2FT81fLUM4T9p4_TFbkkdRF2-_oifZojup_v_O7Z2wATlCcZDcfglq0leVOP_0G00]--></g></svg>